<svg width="256" height="70" viewBox="0 0 256 70" fill="none" xmlns="http://www.w3.org/2000/svg">
<path d="M0.52 58C0.52 56.1867 0.68 54.3733 1 52.56C1.32 50.6933 1.93333 48.8533 2.84 47.04C3.74667 45.2267 5.08 43.4933 6.84 41.84C8.6 40.1333 10.92 38.5333 13.8 37.04C15.3467 36.24 16.9467 35.4667 18.6 34.72C20.2533 33.92 21.8 33.0667 23.24 32.16C24.7333 31.2 25.9067 30.1333 26.76 28.96C27.6667 27.7333 28.12 26.2933 28.12 24.64C28.12 23.3067 27.72 22 26.92 20.72C26.1733 19.44 25 18.4 23.4 17.6C21.8533 16.8 19.9067 16.4 17.56 16.4C15.8533 16.4 14.3067 16.64 12.92 17.12C11.5333 17.6 10.3067 18.2133 9.24 18.96C8.17333 19.6533 7.26667 20.3733 6.52 21.12C5.77333 21.8133 5.16 22.4 4.68 22.88L1.24 19.12C1.50667 18.8 2.09333 18.24 3 17.44C3.96 16.5867 5.16 15.7067 6.6 14.8C8.09333 13.8933 9.82667 13.12 11.8 12.48C13.8267 11.84 16.04 11.52 18.44 11.52C21.6933 11.52 24.4667 12.1067 26.76 13.28C29.1067 14.4 30.8933 15.92 32.12 17.84C33.3467 19.76 33.96 21.84 33.96 24.08C33.96 26.2667 33.48 28.16 32.52 29.76C31.6133 31.3067 30.4133 32.6667 28.92 33.84C27.48 34.96 25.96 35.9467 24.36 36.8C22.8133 37.6 21.4 38.2933 20.12 38.88C17.6133 40.0533 15.5067 41.2267 13.8 42.4C12.0933 43.5733 10.7333 44.7733 9.72 46C8.70667 47.1733 7.90667 48.3467 7.32 49.52C6.78667 50.64 6.41333 51.8133 6.2 53.04H34.84V58H0.52ZM83.2788 34.56C83.2788 39.2533 82.3988 43.44 80.6388 47.12C78.9321 50.7467 76.5588 53.6 73.5188 55.68C70.4788 57.76 67.0388 58.8 63.1988 58.8C59.3588 58.8 55.9188 57.76 52.8788 55.68C49.8921 53.6 47.5188 50.7467 45.7588 47.12C43.9988 43.44 43.1188 39.2533 43.1188 34.56C43.1188 29.8667 43.9988 25.7067 45.7588 22.08C47.5188 18.4 49.8921 15.52 52.8788 13.44C55.9188 11.3067 59.3588 10.24 63.1988 10.24C67.0388 10.24 70.4788 11.3067 73.5188 13.44C76.5588 15.52 78.9321 18.4 80.6388 22.08C82.3988 25.7067 83.2788 29.8667 83.2788 34.56ZM77.7588 34.56C77.7588 30.7733 77.1454 27.44 75.9188 24.56C74.6921 21.68 72.9854 19.44 70.7988 17.84C68.6121 16.1867 66.0788 15.36 63.1988 15.36C60.3188 15.36 57.7854 16.1867 55.5988 17.84C53.4121 19.44 51.6788 21.68 50.3988 24.56C49.1721 27.44 48.5588 30.7733 48.5588 34.56C48.5588 38.3467 49.1721 41.68 50.3988 44.56C51.6788 47.44 53.4121 49.68 55.5988 51.28C57.7854 52.88 60.3188 53.68 63.1988 53.68C66.0788 53.68 68.6121 52.88 70.7988 51.28C72.9854 49.6267 74.6921 47.3867 75.9188 44.56C77.1454 41.68 77.7588 38.3467 77.7588 34.56ZM91.2231 58C91.2231 56.1867 91.3831 54.3733 91.7031 52.56C92.0231 50.6933 92.6365 48.8533 93.5431 47.04C94.4498 45.2267 95.7831 43.4933 97.5431 41.84C99.3031 40.1333 101.623 38.5333 104.503 37.04C106.05 36.24 107.65 35.4667 109.303 34.72C110.956 33.92 112.503 33.0667 113.943 32.16C115.436 31.2 116.61 30.1333 117.463 28.96C118.37 27.7333 118.823 26.2933 118.823 24.64C118.823 23.3067 118.423 22 117.623 20.72C116.876 19.44 115.703 18.4 114.103 17.6C112.556 16.8 110.61 16.4 108.263 16.4C106.556 16.4 105.01 16.64 103.623 17.12C102.236 17.6 101.01 18.2133 99.9431 18.96C98.8765 19.6533 97.9698 20.3733 97.2231 21.12C96.4765 21.8133 95.8631 22.4 95.3831 22.88L91.9431 19.12C92.2098 18.8 92.7965 18.24 93.7031 17.44C94.6631 16.5867 95.8631 15.7067 97.3031 14.8C98.7965 13.8933 100.53 13.12 102.503 12.48C104.53 11.84 106.743 11.52 109.143 11.52C112.396 11.52 115.17 12.1067 117.463 13.28C119.81 14.4 121.596 15.92 122.823 17.84C124.05 19.76 124.663 21.84 124.663 24.08C124.663 26.2667 124.183 28.16 123.223 29.76C122.316 31.3067 121.116 32.6667 119.623 33.84C118.183 34.96 116.663 35.9467 115.063 36.8C113.516 37.6 112.103 38.2933 110.823 38.88C108.316 40.0533 106.21 41.2267 104.503 42.4C102.796 43.5733 101.436 44.7733 100.423 46C99.4098 47.1733 98.6098 48.3467 98.0231 49.52C97.4898 50.64 97.1165 51.8133 96.9031 53.04H125.543V58H91.2231ZM156.862 39.12C159.262 39.4933 161.315 40.3467 163.022 41.68C164.729 43.0133 166.062 44.6933 167.022 46.72C167.982 48.7467 168.462 51.04 168.462 53.6C168.462 56.8 167.689 59.6267 166.142 62.08C164.595 64.5333 162.435 66.4267 159.662 67.76C156.889 69.0933 153.662 69.76 149.982 69.76C145.929 69.76 142.382 68.9333 139.342 67.28C136.302 65.68 134.009 63.44 132.462 60.56L136.222 57.12C137.395 59.4133 139.129 61.2533 141.422 62.64C143.715 64.08 146.569 64.8 149.982 64.8C153.929 64.8 157.049 63.8133 159.342 61.84C161.689 59.92 162.862 57.1467 162.862 53.52C162.862 49.8933 161.635 47.0133 159.182 44.88C156.782 42.6933 153.342 41.6 148.862 41.6H146.862V36.96H149.022C153.129 36.96 156.275 36 158.462 34.08C160.649 32.16 161.742 29.7067 161.742 26.72C161.742 24.5333 161.235 22.72 160.222 21.28C159.209 19.84 157.822 18.7467 156.062 18C154.355 17.2533 152.382 16.88 150.142 16.88C147.102 16.88 144.409 17.5733 142.062 18.96C139.769 20.2933 138.035 22.16 136.862 24.56L133.342 21.2C134.249 19.3333 135.555 17.7067 137.262 16.32C138.969 14.9333 140.969 13.8667 143.262 13.12C145.555 12.32 148.009 11.92 150.622 11.92C153.929 11.92 156.835 12.5333 159.342 13.76C161.849 14.9333 163.822 16.5867 165.262 18.72C166.702 20.8533 167.422 23.36 167.422 26.24C167.422 28.3733 166.995 30.3467 166.142 32.16C165.289 33.9733 164.062 35.4933 162.462 36.72C160.915 37.9467 159.049 38.7467 156.862 39.12ZM225.747 58.56C221.534 58.56 217.64 57.84 214.067 56.4C210.494 54.96 207.374 52.9333 204.707 50.32C202.094 47.7067 200.04 44.64 198.547 41.12C197.107 37.6 196.387 33.76 196.387 29.6C196.387 25.4933 197.107 21.68 198.547 18.16C200.04 14.64 202.094 11.6 204.707 9.04C207.374 6.42666 210.494 4.4 214.067 2.96C217.64 1.52 221.534 0.799997 225.747 0.799997C229.96 0.799997 233.854 1.52 237.427 2.96C241.054 4.4 244.2 6.42666 246.867 9.04C249.534 11.6 251.587 14.64 253.027 18.16C254.52 21.68 255.267 25.4933 255.267 29.6C255.267 33.76 254.52 37.6 253.027 41.12C251.587 44.64 249.534 47.7067 246.867 50.32C244.2 52.9333 241.054 54.96 237.427 56.4C233.854 57.84 229.96 58.56 225.747 58.56ZM225.747 55.6C229.48 55.6 232.92 54.9867 236.067 53.76C239.267 52.48 242.067 50.6933 244.467 48.4C246.867 46.1067 248.734 43.3867 250.067 40.24C251.454 37.0933 252.147 33.6 252.147 29.76C252.147 26.08 251.48 22.6667 250.147 19.52C248.814 16.32 246.947 13.5467 244.547 11.2C242.2 8.85333 239.427 7.04 236.227 5.76C233.027 4.42666 229.534 3.76 225.747 3.76C222.014 3.76 218.547 4.42666 215.347 5.76C212.147 7.04 209.347 8.85333 206.947 11.2C204.6 13.5467 202.76 16.2933 201.427 19.44C200.147 22.5333 199.507 25.9467 199.507 29.68C199.507 33.36 200.147 36.7733 201.427 39.92C202.76 43.0133 204.6 45.76 206.947 48.16C209.347 50.5067 212.147 52.3467 215.347 53.68C218.547 54.96 222.014 55.6 225.747 55.6ZM226.387 48.16C223.934 48.16 221.587 47.7333 219.347 46.88C217.107 45.9733 215.107 44.72 213.347 43.12C211.64 41.4667 210.254 39.52 209.187 37.28C208.174 34.9867 207.667 32.4267 207.667 29.6C207.667 27.36 208.04 25.1467 208.787 22.96C209.534 20.72 210.654 18.6933 212.147 16.88C213.64 15.0667 215.534 13.6267 217.827 12.56C220.12 11.44 222.814 10.88 225.907 10.88C229.427 10.88 232.547 11.6533 235.267 13.2C238.04 14.6933 240.04 16.88 241.267 19.76L235.987 21.44C235.294 19.84 234.334 18.64 233.107 17.84C231.934 16.9867 230.707 16.4267 229.427 16.16C228.147 15.84 226.974 15.68 225.907 15.68C223.774 15.68 221.907 16.08 220.307 16.88C218.707 17.68 217.374 18.7733 216.307 20.16C215.294 21.4933 214.52 22.9867 213.987 24.64C213.507 26.24 213.267 27.8933 213.267 29.6C213.267 31.84 213.64 33.8133 214.387 35.52C215.187 37.2267 216.2 38.6667 217.427 39.84C218.707 41.0133 220.094 41.92 221.587 42.56C223.134 43.1467 224.627 43.44 226.067 43.44C227.4 43.44 228.76 43.2 230.147 42.72C231.534 42.1867 232.814 41.4667 233.987 40.56C235.16 39.6533 236.014 38.5867 236.547 37.36L241.827 38.88C241.294 40.16 240.334 41.52 238.947 42.96C237.56 44.4 235.8 45.6267 233.667 46.64C231.534 47.6533 229.107 48.16 226.387 48.16Z" fill="#FFFCF9"/>
</svg>
