<?xml version="1.0" encoding="utf-8"?>
<!-- Generator: Adobe Illustrator 27.5.0, SVG Export Plug-In . SVG Version: 6.00 Build 0)  -->
<svg version="1.1" id="Livello_1" xmlns="http://www.w3.org/2000/svg" xmlns:xlink="http://www.w3.org/1999/xlink" x="0px" y="0px"
	 viewBox="0 0 501 190.9" style="enable-background:new 0 0 501 190.9;" xml:space="preserve">
<style type="text/css">
	.st0{clip-path:url(#SVGID_00000044856963301155154100000013557745309711278263_);fill:#FFFFFF;}
</style>
<g>
	<defs>
		<rect id="SVGID_1_" width="501" height="196"/>
	</defs>
	<clipPath id="SVGID_00000141444280767471794870000015957159459626438531_">
		<use xlink:href="#SVGID_1_"  style="overflow:visible;"/>
	</clipPath>
	<path style="clip-path:url(#SVGID_00000141444280767471794870000015957159459626438531_);fill:#FFFFFF;" d="M3.1,35.7V1.6h5.4v29.3
		h18.3v4.8L3.1,35.7L3.1,35.7z M41.4,36.2c-2,0-3.8-0.3-5.3-1c-1.6-0.7-2.9-1.7-4.1-2.9c-1.1-1.2-2-2.6-2.6-4.1
		c-0.6-1.6-0.9-3.2-0.9-5s0.3-3.4,0.9-5c0.6-1.6,1.5-2.9,2.6-4.1c1.2-1.2,2.5-2.2,4.1-2.8c1.6-0.7,3.4-1.1,5.3-1.1
		c2,0,3.7,0.4,5.3,1.1c1.6,0.7,3,1.6,4.1,2.8c1.2,1.2,2,2.6,2.6,4.1c0.6,1.6,0.9,3.2,0.9,5s-0.3,3.4-0.9,5c-0.6,1.5-1.5,2.9-2.6,4.1
		s-2.5,2.2-4.1,2.9C45.1,35.8,43.4,36.2,41.4,36.2z M33.9,23.2c0,1.6,0.3,3,1,4.3c0.7,1.3,1.6,2.3,2.7,3s2.4,1.1,3.8,1.1
		c1.4,0,2.6-0.4,3.7-1.1c1.2-0.8,2.1-1.8,2.7-3.1c0.7-1.3,1-2.8,1-4.3c0-1.6-0.3-3-1-4.3s-1.6-2.3-2.7-3c-1.1-0.8-2.4-1.2-3.7-1.2
		c-1.4,0-2.7,0.4-3.8,1.2c-1.1,0.8-2,1.8-2.7,3.1C34.3,20.1,33.9,21.6,33.9,23.2z M73.1,15.1c-2,0-3.9,0.5-5.5,1.4
		c-1.6,0.9-2.7,2.2-3.4,3.8v15.4h-5.3V10.6h4.9v5.6c0.9-1.7,2-3.1,3.4-4.1c1.4-1.1,2.9-1.6,4.5-1.7c0.3,0,0.6,0,0.8,0s0.4,0,0.6,0
		V15.1z M87.9,36.2c-2,0-3.7-0.3-5.3-1s-2.9-1.6-4.1-2.8c-1.2-1.2-2-2.6-2.7-4.1c-0.6-1.6-0.9-3.2-0.9-5c0-2.4,0.5-4.5,1.6-6.5
		s2.6-3.6,4.6-4.8s4.2-1.8,6.9-1.8c2.6,0,4.9,0.6,6.8,1.8c1.9,1.2,3.4,2.8,4.5,4.7c1.1,2,1.6,4,1.6,6.3c0,0.4,0,0.8,0,1.1
		s-0.1,0.6-0.1,0.8H80.7c0.1,1.5,0.5,2.8,1.2,3.9c0.7,1.1,1.7,2,2.8,2.6s2.3,0.9,3.6,0.9c1.4,0,2.7-0.4,4-1.1s2.1-1.6,2.6-2.8
		l4.5,1.3C98.9,30.9,98,32,96.9,33s-2.4,1.7-3.9,2.3C91.3,35.9,89.6,36.2,87.9,36.2z M80.3,21.4h15.2c-0.1-1.4-0.5-2.7-1.2-3.8
		s-1.6-2-2.7-2.6c-1.1-0.6-2.3-1-3.6-1s-2.5,0.3-3.6,1c-1.1,0.6-2,1.5-2.7,2.6C80.8,18.7,80.4,19.9,80.3,21.4z M143.4,35.7h-5.3
		V21.6c0-2.3-0.4-4-1.2-5.1s-1.9-1.6-3.4-1.6s-2.8,0.6-4.1,1.7c-1.2,1.1-2.1,2.5-2.6,4.3v14.9h-5.2V21.7c0-2.3-0.4-4-1.2-5.1
		s-1.9-1.6-3.3-1.6c-1.5,0-2.8,0.5-4.1,1.6c-1.2,1.1-2.1,2.5-2.7,4.3v14.9H105V10.7h4.8v5c1-1.8,2.3-3.1,3.9-4
		c1.6-1,3.5-1.4,5.6-1.4s3.7,0.5,4.9,1.6s2,2.4,2.3,4.1c1.1-1.9,2.4-3.3,4-4.2c1.6-1,3.4-1.5,5.5-1.5c1.5,0,2.7,0.3,3.7,0.8
		s1.8,1.3,2.3,2.3c0.5,0.9,0.9,2,1.2,3.3c0.3,1.2,0.4,2.5,0.4,3.9v15.1H143.4z M161.4,35.7V10.6h5.3v25.1H161.4z M161.4,6.5V0.7h5.3
		v5.8H161.4z M187.3,36.2c-2,0-3.8-0.5-5.3-1.4c-1.5-1-2.8-2.2-3.6-3.7V46h-5.3V10.7h4.7v4.5c1-1.5,2.2-2.7,3.7-3.6
		c1.5-0.9,3.2-1.3,5.1-1.3c1.7,0,3.3,0.4,4.8,1.1c1.4,0.7,2.7,1.6,3.7,2.8c1.1,1.2,1.9,2.6,2.4,4.2c0.6,1.5,0.9,3.2,0.9,4.9
		c0,2.4-0.5,4.6-1.4,6.6s-2.2,3.6-3.9,4.8C191.4,35.6,189.4,36.2,187.3,36.2z M185.5,31.7c1.1,0,2.1-0.2,3-0.7s1.7-1.1,2.4-1.9
		c0.7-0.8,1.2-1.7,1.5-2.7s0.5-2.1,0.5-3.2c0-1.2-0.2-2.2-0.6-3.3c-0.4-1-0.9-1.9-1.7-2.7c-0.7-0.8-1.5-1.4-2.5-1.8
		c-0.9-0.4-2-0.7-3.1-0.7c-0.7,0-1.4,0.1-2.1,0.4c-0.7,0.3-1.4,0.6-2.1,1.1c-0.6,0.4-1.2,1-1.7,1.6s-0.8,1.2-1,1.9v6.6
		c0.4,1,1,2,1.8,2.8c0.7,0.8,1.6,1.5,2.5,2C183.6,31.4,184.5,31.7,185.5,31.7z M212.1,36.2c-2.1,0-4.1-0.3-6-1s-3.5-1.7-4.8-3.1
		l2-3.6c1.4,1.3,2.9,2.2,4.3,2.8c1.5,0.6,2.9,0.9,4.4,0.9s2.7-0.3,3.6-0.8c0.9-0.6,1.4-1.4,1.4-2.5c0-0.8-0.2-1.4-0.7-1.8
		c-0.5-0.4-1.2-0.7-2.1-1c-0.9-0.3-2-0.6-3.3-1c-1.8-0.5-3.3-1.1-4.5-1.7c-1.2-0.6-2.1-1.3-2.7-2.2c-0.6-0.9-0.9-2-0.9-3.3
		c0-1.6,0.4-3,1.2-4.2s2-2,3.5-2.6s3.2-0.9,5.2-0.9c1.8,0,3.5,0.3,5,0.9c1.6,0.5,2.9,1.4,4.1,2.6l-2.3,3.5c-1.1-1-2.3-1.8-3.5-2.3
		s-2.4-0.7-3.7-0.7c-0.8,0-1.5,0.1-2.2,0.3s-1.3,0.5-1.8,1c-0.4,0.4-0.7,1.1-0.7,1.9c0,0.7,0.2,1.2,0.6,1.6c0.4,0.4,1,0.8,1.7,1.1
		c0.8,0.3,1.7,0.6,2.8,1c2,0.6,3.6,1.2,5,1.7s2.4,1.3,3.2,2.2s1.2,2.1,1.2,3.6c0,2.4-0.9,4.3-2.7,5.7
		C217.5,35.5,215.1,36.2,212.1,36.2z M226.5,25.9V10.5h5.3v14.3c0,2.2,0.4,3.9,1.2,5.1c0.8,1.1,2,1.7,3.6,1.7c1,0,2-0.2,2.9-0.6
		c1-0.4,1.8-1,2.6-1.8s1.4-1.8,1.9-3V10.6h5.3v19.2c0,0.6,0.1,1,0.3,1.3s0.6,0.4,1.1,0.4v4.2c-0.5,0.1-1,0.2-1.3,0.2
		c-0.4,0-0.7,0-1,0c-1,0-1.8-0.3-2.4-0.8c-0.6-0.5-1-1.2-1.1-2.1l-0.1-2.5c-1.1,1.8-2.6,3.2-4.4,4.2c-1.8,0.9-3.8,1.4-5.9,1.4
		c-2.6,0-4.6-0.9-6-2.6S226.5,29.3,226.5,25.9z M294.4,35.7h-5.3V21.6c0-2.3-0.4-4-1.2-5.1s-1.9-1.6-3.4-1.6s-2.8,0.6-4.1,1.7
		c-1.2,1.1-2.1,2.5-2.6,4.3v14.9h-5.3V21.7c0-2.3-0.4-4-1.2-5.1S269.4,15,268,15c-1.5,0-2.8,0.5-4.1,1.6c-1.2,1.1-2.1,2.5-2.7,4.3
		v14.9h-5.3V10.7h4.8v5c1-1.8,2.3-3.1,3.9-4c1.6-1,3.5-1.4,5.6-1.4s3.7,0.5,4.9,1.6s2,2.4,2.3,4.1c1.1-1.9,2.4-3.3,4-4.2
		c1.6-1,3.4-1.5,5.5-1.5c1.5,0,2.7,0.3,3.7,0.8s1.8,1.3,2.3,2.3c0.5,0.9,0.9,2,1.2,3.3c0.3,1.2,0.4,2.5,0.4,3.9v15.1H294.4z
		 M310.7,23.2c0-2.4,0.5-4.6,1.4-6.5c1-2,2.3-3.6,4-4.7c1.7-1.2,3.6-1.8,5.9-1.8c1.9,0,3.6,0.5,5.2,1.5c1.6,1,2.8,2.2,3.6,3.7V0.7
		h5.3v29.1c0,0.6,0.1,1,0.3,1.3s0.6,0.4,1.1,0.4v4.2c-1,0.2-1.8,0.2-2.3,0.2c-1,0-1.8-0.3-2.5-0.9s-1-1.3-1.1-2.1V31
		c-1,1.6-2.3,2.8-3.9,3.7c-1.6,0.9-3.3,1.3-5.1,1.3c-1.7,0-3.3-0.3-4.8-1c-1.4-0.7-2.7-1.6-3.8-2.8c-1.1-1.2-1.9-2.6-2.5-4.2
		C311,26.6,310.7,24.9,310.7,23.2z M330.9,26.7v-6.6c-0.4-1-0.9-1.9-1.7-2.7s-1.6-1.5-2.6-2s-1.9-0.7-2.9-0.7
		c-1.1,0-2.1,0.2-3.1,0.7c-0.9,0.5-1.7,1.1-2.4,1.9c-0.6,0.8-1.1,1.7-1.5,2.7s-0.5,2.1-0.5,3.2c0,1.2,0.2,2.2,0.6,3.3
		c0.4,1,0.9,1.9,1.6,2.7c0.7,0.8,1.6,1.4,2.5,1.8c1,0.4,2,0.6,3.1,0.6c0.7,0,1.4-0.1,2.1-0.4c0.7-0.3,1.4-0.6,2.1-1.1
		c0.7-0.4,1.2-1,1.7-1.6C330.4,28,330.7,27.4,330.9,26.7z M354.2,36.2c-2,0-3.8-0.3-5.3-1c-1.6-0.7-2.9-1.7-4.1-2.9
		c-1.1-1.2-2-2.6-2.6-4.1c-0.6-1.6-0.9-3.2-0.9-5s0.3-3.4,0.9-5c0.6-1.6,1.5-2.9,2.6-4.1c1.2-1.2,2.5-2.2,4.1-2.8
		c1.6-0.7,3.4-1.1,5.3-1.1c2,0,3.7,0.4,5.3,1.1c1.6,0.7,3,1.6,4.1,2.8c1.2,1.2,2,2.6,2.6,4.1c0.6,1.6,0.9,3.2,0.9,5s-0.3,3.4-0.9,5
		c-0.6,1.5-1.5,2.9-2.6,4.1s-2.5,2.2-4.1,2.9C357.9,35.8,356.1,36.2,354.2,36.2z M346.7,23.2c0,1.6,0.3,3,1,4.3
		c0.7,1.3,1.6,2.3,2.7,3s2.4,1.1,3.8,1.1c1.4,0,2.6-0.4,3.7-1.1c1.2-0.8,2.1-1.8,2.7-3.1c0.7-1.3,1-2.8,1-4.3c0-1.6-0.3-3-1-4.3
		s-1.6-2.3-2.7-3c-1.1-0.8-2.4-1.2-3.7-1.2c-1.4,0-2.7,0.4-3.8,1.2c-1.1,0.8-2,1.8-2.7,3.1C347,20.1,346.7,21.6,346.7,23.2z
		 M371.8,0.6h5.3v27.8c0,1.3,0.2,2.1,0.6,2.4s0.9,0.5,1.4,0.5c0.6,0,1.2-0.1,1.8-0.2s1.1-0.3,1.5-0.5l0.8,4.2
		c-0.8,0.3-1.7,0.6-2.7,0.8s-2,0.3-2.8,0.3c-1.8,0-3.2-0.5-4.2-1.5S372,32,372,30.2V0.6H371.8z M397.5,36.2c-2,0-3.8-0.3-5.3-1
		c-1.6-0.7-2.9-1.7-4.1-2.9c-1.1-1.2-2-2.6-2.6-4.1c-0.6-1.6-0.9-3.2-0.9-5s0.3-3.4,0.9-5c0.6-1.6,1.5-2.9,2.6-4.1
		c1.2-1.2,2.5-2.2,4.1-2.8c1.6-0.7,3.4-1.1,5.3-1.1c2,0,3.7,0.4,5.3,1.1c1.6,0.7,3,1.6,4.1,2.8c1.2,1.2,2,2.6,2.6,4.1
		c0.6,1.6,0.9,3.2,0.9,5s-0.3,3.4-0.9,5c-0.6,1.5-1.5,2.9-2.6,4.1s-2.5,2.2-4.1,2.9C401.2,35.8,399.4,36.2,397.5,36.2z M390,23.2
		c0,1.6,0.3,3,1,4.3c0.7,1.3,1.6,2.3,2.7,3s2.4,1.1,3.8,1.1c1.4,0,2.6-0.4,3.7-1.1c1.2-0.8,2.1-1.8,2.7-3.1c0.7-1.3,1-2.8,1-4.3
		c0-1.6-0.3-3-1-4.3s-1.6-2.3-2.7-3c-1.1-0.8-2.4-1.2-3.7-1.2c-1.4,0-2.7,0.4-3.8,1.2c-1.1,0.8-2,1.8-2.7,3.1
		C390.3,20.1,390,21.6,390,23.2z M429.2,15.1c-2,0-3.9,0.5-5.5,1.4c-1.6,0.9-2.7,2.2-3.4,3.8v15.4H415V10.6h4.9v5.6
		c0.9-1.7,2-3.1,3.4-4.1c1.4-1.1,2.9-1.6,4.5-1.7c0.3,0,0.6,0,0.8,0c0.2,0,0.4,0,0.6,0V15.1z M452.7,36.2c-2.1,0-4.1-0.3-6-1
		s-3.5-1.7-4.8-3.1l2-3.6c1.4,1.3,2.9,2.2,4.3,2.8c1.5,0.6,2.9,0.9,4.4,0.9s2.7-0.3,3.6-0.8c0.9-0.6,1.4-1.4,1.4-2.5
		c0-0.8-0.2-1.4-0.7-1.8c-0.5-0.4-1.2-0.7-2.1-1s-2-0.6-3.3-1c-1.8-0.5-3.3-1.1-4.5-1.7c-1.2-0.6-2.1-1.3-2.7-2.2s-0.9-2-0.9-3.3
		c0-1.6,0.4-3,1.2-4.2c0.8-1.2,2-2,3.5-2.6s3.2-0.9,5.2-0.9c1.8,0,3.5,0.3,5,0.9c1.6,0.5,2.9,1.4,4.1,2.6l-2.3,3.5
		c-1.1-1-2.3-1.8-3.5-2.3s-2.4-0.7-3.7-0.7c-0.8,0-1.5,0.1-2.2,0.3s-1.3,0.5-1.8,1c-0.4,0.4-0.7,1.1-0.7,1.9c0,0.7,0.2,1.2,0.6,1.6
		c0.4,0.4,1,0.8,1.7,1.1c0.8,0.3,1.7,0.6,2.8,1c2,0.6,3.6,1.2,5,1.7s2.4,1.3,3.2,2.2c0.8,0.9,1.2,2.1,1.2,3.6c0,2.4-0.9,4.3-2.7,5.7
		C458.1,35.5,455.7,36.2,452.7,36.2z M467.4,35.7V10.6h5.3v25.1H467.4z M467.4,6.5V0.7h5.3v5.8H467.4z M493,34.4
		c-0.4,0.2-1,0.5-1.7,0.7s-1.4,0.5-2.3,0.7c-0.8,0.2-1.7,0.3-2.6,0.3c-1.1,0-2.1-0.2-3-0.6s-1.7-1-2.3-1.8c-0.5-0.9-0.8-2-0.8-3.3
		V14.7H477v-4.1h3.3V2.3h5.3v8.3h5.5v4.1h-5.5v14c0.1,0.9,0.3,1.5,0.8,1.9s1.1,0.6,1.9,0.6s1.4-0.1,2.1-0.4s1.2-0.5,1.5-0.6
		L493,34.4z M0.6,78.3c0-1.6,0.4-3,1.3-4.2c0.9-1.2,2.2-2.1,3.8-2.8c1.6-0.7,3.5-1,5.6-1c1.1,0,2.3,0.1,3.4,0.2
		c1.2,0.2,2.2,0.4,3.1,0.8v-1.6c0-1.8-0.5-3.1-1.6-4.1s-2.6-1.5-4.6-1.5c-1.4,0-2.7,0.3-4,0.8c-1.2,0.5-2.6,1.2-4,2.1l-1.8-3.6
		c1.7-1.1,3.3-2,5-2.5s3.5-0.8,5.3-0.8c3.4,0,6,0.9,7.9,2.7c2,1.8,2.9,4.3,2.9,7.5v9.4c0,0.6,0.1,1,0.3,1.3s0.6,0.4,1.1,0.4v4.2
		c-0.5,0.1-0.9,0.2-1.3,0.2c-0.4,0-0.7,0-1,0c-1.1,0-2-0.3-2.5-0.8c-0.6-0.5-0.9-1.2-1-1.9l-0.1-1.4c-1.1,1.4-2.5,2.5-4.2,3.3
		s-3.4,1.2-5.1,1.2c-1.7,0-3.2-0.3-4.5-1s-2.3-1.6-3.1-2.8C0.9,81.1,0.6,79.8,0.6,78.3z M16.5,79.9c0.4-0.4,0.7-0.8,0.9-1.2
		c0.2-0.4,0.3-0.8,0.3-1.1v-2.9c-0.9-0.4-1.8-0.6-2.8-0.8c-1-0.2-2-0.3-2.9-0.3c-1.9,0-3.5,0.4-4.7,1.2c-1.2,0.8-1.8,1.8-1.8,3.2
		c0,0.7,0.2,1.4,0.6,2.1c0.4,0.7,1,1.2,1.7,1.6c0.8,0.4,1.7,0.6,2.8,0.6c1.2,0,2.3-0.2,3.3-0.7C15.1,81.2,15.9,80.6,16.5,79.9z
		 M67.9,85.7h-5.3V71.6c0-2.3-0.4-4-1.2-5.1s-1.9-1.6-3.4-1.6s-2.8,0.6-4.1,1.7c-1.2,1.1-2.1,2.5-2.6,4.3v14.9H46V71.7
		c0-2.3-0.4-4-1.2-5.1S42.9,65,41.5,65c-1.5,0-2.8,0.5-4.1,1.6c-1.2,1.1-2.1,2.5-2.7,4.3v14.9h-5.3V60.7h4.8v5c1-1.8,2.3-3.1,3.9-4
		c1.6-1,3.5-1.4,5.6-1.4s3.7,0.5,4.9,1.6s2,2.4,2.3,4.1c1.1-1.9,2.4-3.3,4-4.2c1.6-1,3.4-1.5,5.5-1.5c1.5,0,2.7,0.3,3.7,0.8
		s1.8,1.3,2.3,2.3c0.5,0.9,0.9,2,1.2,3.3c0.3,1.2,0.4,2.5,0.4,3.9v15.1H67.9z M85.3,86.2c-2,0-3.7-0.3-5.3-1s-2.9-1.6-4.1-2.8
		c-1.2-1.2-2-2.6-2.7-4.1c-0.6-1.6-0.9-3.2-0.9-5c0-2.4,0.5-4.5,1.6-6.5s2.6-3.6,4.6-4.8c2-1.2,4.2-1.8,6.9-1.8
		c2.6,0,4.9,0.6,6.8,1.8c1.9,1.2,3.4,2.8,4.5,4.7c1.1,2,1.6,4,1.6,6.3c0,0.4,0,0.8,0,1.1c0,0.3-0.1,0.6-0.1,0.8H78.1
		c0.1,1.5,0.5,2.8,1.2,3.9s1.7,2,2.8,2.6s2.3,0.9,3.6,0.9c1.4,0,2.7-0.4,4-1.1s2.1-1.6,2.6-2.8l4.5,1.3c-0.5,1.2-1.4,2.3-2.5,3.3
		s-2.4,1.7-3.9,2.3C88.7,85.9,87.1,86.2,85.3,86.2z M77.8,71.4H93c-0.1-1.4-0.5-2.7-1.2-3.8c-0.7-1.1-1.6-2-2.7-2.6
		c-1.1-0.6-2.3-1-3.6-1s-2.5,0.3-3.6,1c-1.1,0.6-2,1.5-2.7,2.6C78.3,68.7,77.9,69.9,77.8,71.4z M116.2,84.4c-0.4,0.2-1,0.5-1.7,0.7
		s-1.4,0.5-2.3,0.7c-0.8,0.2-1.7,0.3-2.6,0.3c-1.1,0-2.1-0.2-3-0.6s-1.7-1-2.3-1.8c-0.5-0.9-0.8-2-0.8-3.3V64.7h-3.3v-4.1h3.3v-8.3
		h5.3v8.3h5.5v4.1h-5.5v14c0.1,0.9,0.3,1.5,0.8,1.9s1.1,0.6,1.9,0.6c0.7,0,1.4-0.1,2.1-0.4c0.7-0.3,1.2-0.5,1.5-0.6L116.2,84.4z
		 M120.2,90.3l1.2-4.9h-1.7v-5.9h4.8v5.9l-1.7,4.9H120.2z M153.7,86.2c-2,0-3.7-0.3-5.3-1s-2.9-1.7-4.1-2.9c-1.2-1.2-2-2.6-2.7-4.2
		c-0.6-1.6-0.9-3.2-0.9-5c0-2.4,0.5-4.5,1.6-6.5s2.6-3.5,4.5-4.7c2-1.2,4.3-1.8,6.9-1.8c2.6,0,4.8,0.6,6.7,1.7s3.3,2.6,4.2,4.5
		l-5.1,1.6c-0.6-1.1-1.4-1.9-2.4-2.4c-1-0.6-2.2-0.9-3.4-0.9c-1.4,0-2.7,0.4-3.8,1.1s-2,1.7-2.7,3c-0.6,1.2-1,2.7-1,4.4
		c0,1.6,0.3,3.1,1,4.4s1.6,2.3,2.7,3.1c1.2,0.7,2.4,1.1,3.8,1.1c0.9,0,1.7-0.1,2.5-0.4s1.6-0.7,2.2-1.2c0.6-0.5,1-1.1,1.3-1.8
		l5.2,1.5c-0.5,1.2-1.4,2.4-2.4,3.3c-1.1,1-2.3,1.7-3.8,2.3C157.1,85.9,155.5,86.2,153.7,86.2z M180.2,86.2c-2,0-3.8-0.3-5.3-1
		c-1.6-0.7-2.9-1.7-4.1-2.9c-1.1-1.2-2-2.6-2.6-4.1c-0.6-1.6-0.9-3.2-0.9-5s0.3-3.4,0.9-5c0.6-1.6,1.5-2.9,2.6-4.1
		c1.2-1.2,2.5-2.2,4.1-2.8c1.6-0.7,3.4-1.1,5.3-1.1c2,0,3.7,0.4,5.3,1.1s3,1.6,4.1,2.8c1.2,1.2,2,2.6,2.6,4.1c0.6,1.6,0.9,3.2,0.9,5
		s-0.3,3.4-0.9,5c-0.6,1.5-1.5,2.9-2.6,4.1s-2.5,2.2-4.1,2.9C183.9,85.8,182.2,86.2,180.2,86.2z M172.7,73.2c0,1.6,0.3,3,1,4.3
		s1.6,2.3,2.7,3s2.4,1.1,3.8,1.1c1.4,0,2.6-0.4,3.7-1.1c1.2-0.8,2.1-1.8,2.7-3.1c0.7-1.3,1-2.8,1-4.3c0-1.6-0.3-3-1-4.3
		s-1.6-2.3-2.7-3c-1.1-0.8-2.4-1.2-3.7-1.2c-1.4,0-2.7,0.4-3.8,1.2s-2,1.8-2.7,3.1C173.1,70.1,172.7,71.6,172.7,73.2z M220.3,85.7
		H215V71.6c0-2.3-0.4-4-1.2-5.1c-0.7-1.1-1.8-1.6-3.3-1.6c-1,0-2,0.3-3.1,0.8c-1,0.5-1.9,1.2-2.7,2.1s-1.4,1.9-1.7,3v14.9h-5.3V60.6
		h4.8v5c0.6-1.1,1.5-2.1,2.5-2.9c1.1-0.8,2.2-1.5,3.6-1.9c1.3-0.4,2.7-0.7,4.2-0.7s2.7,0.3,3.7,0.8s1.8,1.3,2.3,2.3
		c0.6,0.9,1,2,1.2,3.3c0.2,1.2,0.3,2.5,0.3,3.9V85.7z M235.4,86.2c-2.1,0-4.1-0.3-6-1s-3.5-1.7-4.8-3.1l2-3.6
		c1.4,1.3,2.9,2.2,4.3,2.8c1.5,0.6,2.9,0.9,4.4,0.9s2.7-0.3,3.6-0.8c0.9-0.6,1.4-1.4,1.4-2.5c0-0.8-0.2-1.4-0.7-1.8s-1.2-0.7-2.1-1
		c-0.9-0.3-2-0.6-3.3-1c-1.8-0.5-3.3-1.1-4.5-1.7s-2.1-1.3-2.7-2.2c-0.6-0.9-0.9-2-0.9-3.3c0-1.6,0.4-3,1.2-4.2c0.8-1.2,2-2,3.5-2.6
		s3.2-0.9,5.2-0.9c1.8,0,3.5,0.3,5,0.9c1.6,0.5,2.9,1.4,4.1,2.6l-2.3,3.5c-1.1-1-2.3-1.8-3.5-2.3s-2.4-0.7-3.7-0.7
		c-0.8,0-1.5,0.1-2.2,0.3c-0.7,0.2-1.3,0.5-1.8,1c-0.4,0.4-0.7,1.1-0.7,1.9c0,0.7,0.2,1.2,0.6,1.6c0.4,0.4,1,0.8,1.7,1.1
		c0.8,0.3,1.7,0.6,2.8,1c2,0.6,3.6,1.2,5,1.7s2.4,1.3,3.2,2.2c0.8,0.9,1.2,2.1,1.2,3.6c0,2.4-0.9,4.3-2.7,5.7
		C240.8,85.5,238.4,86.2,235.4,86.2z M261.4,86.2c-2,0-3.7-0.3-5.3-1s-2.9-1.6-4.1-2.8c-1.2-1.2-2-2.6-2.7-4.1
		c-0.6-1.6-0.9-3.2-0.9-5c0-2.4,0.5-4.5,1.6-6.5s2.6-3.6,4.6-4.8c2-1.2,4.2-1.8,6.9-1.8s4.9,0.6,6.8,1.8c1.9,1.2,3.4,2.8,4.5,4.7
		s1.6,4,1.6,6.3c0,0.4,0,0.8,0,1.1c0,0.3-0.1,0.6-0.1,0.8h-20.1c0.1,1.5,0.5,2.8,1.2,3.9s1.7,2,2.8,2.6s2.3,0.9,3.6,0.9
		c1.4,0,2.7-0.4,4-1.1s2.1-1.6,2.6-2.8l4.5,1.3c-0.5,1.2-1.4,2.3-2.5,3.3s-2.4,1.7-3.9,2.3C264.8,85.9,263.2,86.2,261.4,86.2z
		 M253.9,71.4h15.2c-0.1-1.4-0.5-2.7-1.2-3.8c-0.7-1.1-1.6-2-2.7-2.6c-1.1-0.6-2.3-1-3.6-1s-2.5,0.3-3.6,1c-1.1,0.6-2,1.5-2.7,2.6
		C254.4,68.7,254,69.9,253.9,71.4z M289.9,86.2c-2,0-3.7-0.3-5.3-1s-2.9-1.7-4.1-2.9s-2-2.6-2.7-4.2c-0.6-1.6-0.9-3.2-0.9-5
		c0-2.4,0.5-4.5,1.6-6.5s2.6-3.5,4.5-4.7c2-1.2,4.3-1.8,6.9-1.8c2.6,0,4.8,0.6,6.7,1.7s3.3,2.6,4.2,4.5l-5.1,1.6
		c-0.6-1.1-1.4-1.9-2.4-2.4c-1-0.6-2.2-0.9-3.4-0.9c-1.4,0-2.7,0.4-3.8,1.1s-2,1.7-2.7,3c-0.6,1.2-1,2.7-1,4.4c0,1.6,0.3,3.1,1,4.4
		s1.6,2.3,2.7,3.1c1.2,0.7,2.4,1.1,3.8,1.1c0.9,0,1.7-0.1,2.5-0.4s1.6-0.7,2.2-1.2c0.6-0.5,1-1.1,1.3-1.8l5.2,1.5
		c-0.5,1.2-1.4,2.4-2.4,3.3c-1.1,1-2.3,1.7-3.8,2.3C293.4,85.9,291.7,86.2,289.9,86.2z M319.4,84.4c-0.4,0.2-1,0.5-1.7,0.7
		s-1.4,0.5-2.3,0.7c-0.8,0.2-1.7,0.3-2.6,0.3c-1.1,0-2.1-0.2-3-0.6s-1.7-1-2.3-1.8c-0.5-0.9-0.8-2-0.8-3.3V64.7h-3.3v-4.1h3.3v-8.3
		h5.3v8.3h5.5v4.1H312v14c0.1,0.9,0.3,1.5,0.8,1.9s1.1,0.6,1.9,0.6c0.7,0,1.4-0.1,2.1-0.4c0.7-0.3,1.2-0.5,1.5-0.6L319.4,84.4z
		 M334.1,86.2c-2,0-3.7-0.3-5.3-1s-2.9-1.6-4.1-2.8c-1.2-1.2-2-2.6-2.7-4.1c-0.6-1.6-0.9-3.2-0.9-5c0-2.4,0.5-4.5,1.6-6.5
		s2.6-3.6,4.6-4.8c2-1.2,4.2-1.8,6.9-1.8s4.9,0.6,6.8,1.8c1.9,1.2,3.4,2.8,4.5,4.7s1.6,4,1.6,6.3c0,0.4,0,0.8,0,1.1
		c0,0.3-0.1,0.6-0.1,0.8h-20.1c0.1,1.5,0.5,2.8,1.2,3.9s1.7,2,2.8,2.6s2.3,0.9,3.6,0.9c1.4,0,2.7-0.4,4-1.1s2.1-1.6,2.6-2.8l4.5,1.3
		c-0.5,1.2-1.4,2.3-2.5,3.3s-2.4,1.7-3.9,2.3C337.4,85.9,335.8,86.2,334.1,86.2z M326.5,71.4h15.2c-0.1-1.4-0.5-2.7-1.2-3.8
		c-0.7-1.1-1.6-2-2.7-2.6c-1.1-0.6-2.3-1-3.6-1s-2.5,0.3-3.6,1c-1.1,0.6-2,1.5-2.7,2.6C327,68.7,326.6,69.9,326.5,71.4z M365,84.4
		c-0.4,0.2-1,0.5-1.7,0.7s-1.4,0.5-2.3,0.7c-0.8,0.2-1.7,0.3-2.6,0.3c-1.1,0-2.1-0.2-3-0.6s-1.7-1-2.3-1.8c-0.5-0.9-0.8-2-0.8-3.3
		V64.7H349v-4.1h3.3v-8.3h5.3v8.3h5.5v4.1h-5.5v14c0.1,0.9,0.3,1.5,0.8,1.9s1.1,0.6,1.9,0.6c0.7,0,1.4-0.1,2.1-0.4
		c0.7-0.3,1.2-0.5,1.5-0.6L365,84.4z M368.4,75.9V60.5h5.3v14.3c0,2.2,0.4,3.9,1.2,5.1c0.8,1.1,2,1.7,3.6,1.7c1,0,2-0.2,2.9-0.6
		c1-0.4,1.8-1,2.6-1.8s1.4-1.8,1.9-3V60.6h5.3v19.2c0,0.6,0.1,1,0.3,1.3s0.6,0.4,1.1,0.4v4.2c-0.5,0.1-1,0.2-1.3,0.2
		c-0.4,0-0.7,0-1,0c-1,0-1.8-0.3-2.4-0.8c-0.6-0.5-1-1.2-1.1-2.1l-0.1-2.5c-1.1,1.8-2.6,3.2-4.4,4.2c-1.8,0.9-3.8,1.4-5.9,1.4
		c-2.6,0-4.6-0.9-6-2.6S368.4,79.3,368.4,75.9z M412,65.1c-2,0-3.9,0.5-5.5,1.4s-2.7,2.2-3.4,3.8v15.4h-5.3V60.6h4.9v5.6
		c0.9-1.7,2-3.1,3.4-4.1c1.4-1.1,2.9-1.6,4.5-1.7c0.3,0,0.6,0,0.8,0c0.2,0,0.4,0,0.6,0V65.1z M0.6,128.3c0-1.6,0.4-3,1.3-4.2
		c0.9-1.2,2.2-2.1,3.8-2.8c1.6-0.7,3.5-1,5.6-1c1.1,0,2.3,0.1,3.4,0.2c1.2,0.2,2.2,0.4,3.1,0.8v-1.6c0-1.8-0.5-3.1-1.6-4.1
		s-2.6-1.5-4.6-1.5c-1.4,0-2.7,0.3-4,0.8c-1.2,0.5-2.6,1.2-4,2.1l-1.8-3.6c1.7-1.1,3.3-2,5-2.5s3.5-0.8,5.3-0.8c3.4,0,6,0.9,7.9,2.7
		c2,1.8,2.9,4.3,2.9,7.5v9.4c0,0.6,0.1,1,0.3,1.3s0.6,0.4,1.1,0.4v4.2c-0.5,0.1-0.9,0.2-1.3,0.2c-0.4,0-0.7,0-1,0
		c-1.1,0-2-0.3-2.5-0.8c-0.6-0.5-0.9-1.2-1-1.9l-0.1-1.4c-1.1,1.4-2.5,2.5-4.2,3.3s-3.4,1.2-5.1,1.2c-1.7,0-3.2-0.3-4.5-1
		s-2.3-1.6-3.1-2.8C0.9,131.1,0.6,129.8,0.6,128.3z M16.5,129.9c0.4-0.4,0.7-0.8,0.9-1.2c0.2-0.4,0.3-0.8,0.3-1.1v-2.9
		c-0.9-0.4-1.8-0.6-2.8-0.8c-1-0.2-2-0.3-2.9-0.3c-1.9,0-3.5,0.4-4.7,1.2c-1.2,0.8-1.8,1.8-1.8,3.2c0,0.7,0.2,1.4,0.6,2.1
		c0.4,0.7,1,1.2,1.7,1.6c0.8,0.4,1.7,0.6,2.8,0.6c1.2,0,2.3-0.2,3.3-0.7C15.1,131.2,15.9,130.6,16.5,129.9z M27.9,123.2
		c0-2.4,0.5-4.6,1.4-6.5c1-2,2.3-3.6,4-4.7c1.7-1.2,3.6-1.8,5.9-1.8c1.9,0,3.6,0.5,5.2,1.5c1.6,1,2.8,2.2,3.6,3.7v-14.7h5.3v29.1
		c0,0.6,0.1,1,0.3,1.3s0.6,0.4,1.1,0.4v4.2c-1,0.2-1.8,0.2-2.3,0.2c-1,0-1.8-0.3-2.5-0.9s-1-1.3-1.1-2.1V131c-1,1.6-2.3,2.8-3.9,3.7
		c-1.6,0.9-3.3,1.3-5.1,1.3c-1.7,0-3.3-0.3-4.8-1c-1.4-0.7-2.7-1.6-3.8-2.8c-1.1-1.2-1.9-2.6-2.5-4.2
		C28.2,126.6,27.9,124.9,27.9,123.2z M48.1,126.7v-6.6c-0.4-1-0.9-1.9-1.7-2.7c-0.8-0.8-1.6-1.5-2.6-2s-1.9-0.7-2.9-0.7
		c-1.1,0-2.1,0.2-3.1,0.7c-0.9,0.5-1.7,1.1-2.4,1.9c-0.6,0.8-1.1,1.7-1.5,2.7s-0.5,2.1-0.5,3.2c0,1.2,0.2,2.2,0.6,3.3
		c0.4,1,0.9,1.9,1.6,2.7c0.7,0.8,1.6,1.4,2.5,1.8c1,0.4,2,0.6,3.1,0.6c0.7,0,1.4-0.1,2.1-0.4c0.7-0.3,1.4-0.6,2.1-1.1
		c0.7-0.4,1.2-1,1.7-1.6C47.5,128,47.9,127.4,48.1,126.7z M60,135.7v-25.1h5.3v25.1H60z M60,106.5v-5.8h5.3v5.8H60z M85.9,136.2
		c-2,0-3.8-0.5-5.3-1.4s-2.8-2.2-3.6-3.7V146h-5.3v-35.3h4.7v4.5c1-1.5,2.2-2.7,3.7-3.6s3.2-1.3,5.1-1.3c1.7,0,3.3,0.4,4.8,1.1
		c1.4,0.7,2.7,1.6,3.7,2.8c1.1,1.2,1.9,2.6,2.4,4.2c0.6,1.5,0.9,3.2,0.9,4.9c0,2.4-0.5,4.6-1.4,6.6s-2.2,3.6-3.9,4.8
		C90,135.6,88.1,136.2,85.9,136.2z M84.2,131.7c1.1,0,2.1-0.2,3-0.7s1.7-1.1,2.4-1.9s1.2-1.7,1.5-2.7s0.5-2.1,0.5-3.2
		c0-1.2-0.2-2.2-0.6-3.3c-0.4-1-0.9-1.9-1.7-2.7c-0.7-0.8-1.5-1.4-2.5-1.8c-0.9-0.4-2-0.7-3.1-0.7c-0.7,0-1.4,0.1-2.1,0.4
		c-0.7,0.3-1.4,0.6-2.1,1.1c-0.6,0.4-1.2,1-1.7,1.6s-0.8,1.2-1,1.9v6.6c0.4,1,1,2,1.8,2.8c0.7,0.8,1.6,1.5,2.5,2
		C82.2,131.4,83.2,131.7,84.2,131.7z M101.8,135.7v-25.1h5.3v25.1H101.8z M101.8,106.5v-5.8h5.3v5.8H101.8z M122.4,136.2
		c-2.1,0-4.1-0.3-6-1s-3.5-1.7-4.8-3.1l2-3.6c1.4,1.3,2.9,2.2,4.3,2.8c1.5,0.6,2.9,0.9,4.4,0.9s2.7-0.3,3.6-0.8
		c0.9-0.6,1.4-1.4,1.4-2.5c0-0.8-0.2-1.4-0.7-1.8s-1.2-0.7-2.1-1c-0.9-0.3-2-0.6-3.3-1c-1.8-0.5-3.3-1.1-4.5-1.7s-2.1-1.3-2.7-2.2
		c-0.6-0.9-0.9-2-0.9-3.3c0-1.6,0.4-3,1.2-4.2s2-2,3.5-2.6s3.2-0.9,5.2-0.9c1.8,0,3.5,0.3,5,0.9c1.6,0.5,2.9,1.4,4.1,2.6l-2.3,3.5
		c-1.1-1-2.3-1.8-3.5-2.3s-2.4-0.7-3.7-0.7c-0.8,0-1.5,0.1-2.2,0.3c-0.7,0.2-1.3,0.5-1.8,1c-0.4,0.4-0.7,1.1-0.7,1.9
		c0,0.7,0.2,1.2,0.6,1.6c0.4,0.4,1,0.8,1.7,1.1c0.8,0.3,1.7,0.6,2.8,1c2,0.6,3.6,1.2,5,1.7s2.4,1.3,3.2,2.2c0.8,0.9,1.2,2.1,1.2,3.6
		c0,2.4-0.9,4.3-2.7,5.7C127.8,135.5,125.4,136.2,122.4,136.2z M148.4,136.2c-2,0-3.7-0.3-5.3-1s-2.9-1.7-4.1-2.9
		c-1.2-1.2-2-2.6-2.7-4.2c-0.6-1.6-0.9-3.2-0.9-5c0-2.4,0.5-4.5,1.6-6.5s2.6-3.5,4.5-4.7c2-1.2,4.3-1.8,6.9-1.8
		c2.6,0,4.8,0.6,6.7,1.7s3.3,2.6,4.2,4.5l-5.1,1.6c-0.6-1.1-1.4-1.9-2.4-2.4c-1-0.6-2.2-0.9-3.4-0.9c-1.4,0-2.7,0.4-3.8,1.1
		s-2,1.7-2.7,3c-0.6,1.2-1,2.7-1,4.4c0,1.6,0.3,3.1,1,4.4s1.6,2.3,2.7,3.1c1.2,0.7,2.4,1.1,3.8,1.1c0.9,0,1.7-0.1,2.5-0.4
		s1.6-0.7,2.2-1.2c0.6-0.5,1-1.1,1.3-1.8l5.2,1.5c-0.5,1.2-1.4,2.4-2.4,3.3c-1.1,1-2.3,1.7-3.8,2.3
		C151.8,135.9,150.2,136.2,148.4,136.2z M163.8,135.7v-25.1h5.3v25.1H163.8z M163.8,106.5v-5.8h5.3v5.8H163.8z M198,135.7h-5.3
		v-14.1c0-2.3-0.4-4-1.2-5.1c-0.7-1.1-1.8-1.6-3.3-1.6c-1,0-2,0.3-3.1,0.8c-1,0.5-1.9,1.2-2.7,2.1s-1.4,1.9-1.7,3v14.9h-5.3v-25.1
		h4.8v5c0.6-1.1,1.5-2.1,2.5-2.9c1.1-0.8,2.2-1.5,3.6-1.9s2.7-0.7,4.2-0.7s2.7,0.3,3.7,0.8s1.8,1.3,2.3,2.3c0.6,0.9,1,2,1.2,3.3
		c0.2,1.2,0.3,2.5,0.3,3.9V135.7z M214,135.9c-1.7,0-3.2-0.3-4.7-1c-1.4-0.7-2.6-1.6-3.6-2.8c-1-1.2-1.8-2.5-2.4-4.1
		c-0.5-1.5-0.8-3.2-0.8-4.8c0-1.8,0.3-3.5,0.9-5s1.4-2.9,2.4-4.1c1.1-1.2,2.3-2.2,3.7-2.8c1.4-0.7,3-1,4.7-1c2,0,3.8,0.5,5.3,1.4
		c1.5,1,2.8,2.2,3.8,3.7v-4.8h4.7V135c0,2.4-0.6,4.5-1.8,6.2s-2.7,3-4.8,3.9s-4.3,1.3-6.8,1.3c-2.8,0-5.1-0.5-6.9-1.4
		c-1.8-1-3.4-2.3-4.7-3.9l3-2.8c1,1.3,2.2,2.4,3.7,3.1s3.2,1.1,4.9,1.1c1.4,0,2.8-0.3,4-0.8s2.2-1.3,3-2.4c0.7-1.1,1.1-2.5,1.1-4.1
		v-3.8c-0.9,1.5-2.1,2.7-3.7,3.6C217.4,135.5,215.8,135.9,214,135.9z M215.8,131.7c0.8,0,1.6-0.1,2.3-0.4s1.4-0.7,2-1.1
		c0.6-0.5,1.2-1,1.6-1.6c0.4-0.6,0.8-1.2,1-1.9v-6.6c-0.4-1.1-1-2-1.8-2.8s-1.6-1.5-2.6-1.9s-1.9-0.7-2.9-0.7
		c-1.2,0-2.2,0.3-3.1,0.8c-0.9,0.5-1.7,1.1-2.3,2c-0.6,0.8-1.1,1.7-1.5,2.7s-0.5,2.1-0.5,3.2c0,1.2,0.2,2.2,0.6,3.2
		c0.4,1,1,1.9,1.7,2.7c0.7,0.8,1.5,1.4,2.5,1.8C213.6,131.4,214.7,131.7,215.8,131.7z M257.5,136.2c-2,0-3.7-0.3-5.3-1
		s-2.9-1.6-4.1-2.8c-1.2-1.2-2-2.6-2.7-4.1c-0.6-1.6-0.9-3.2-0.9-5c0-2.4,0.5-4.5,1.6-6.5s2.6-3.6,4.6-4.8c2-1.2,4.2-1.8,6.9-1.8
		s4.9,0.6,6.8,1.8c1.9,1.2,3.4,2.8,4.5,4.7s1.6,4,1.6,6.3c0,0.4,0,0.8,0,1.1c0,0.3-0.1,0.6-0.1,0.8h-20.1c0.1,1.5,0.5,2.8,1.2,3.9
		s1.7,2,2.8,2.6s2.3,0.9,3.6,0.9c1.4,0,2.7-0.4,4-1.1s2.1-1.6,2.6-2.8l4.5,1.3c-0.5,1.2-1.4,2.3-2.5,3.3s-2.4,1.7-3.9,2.3
		C260.9,135.9,259.3,136.2,257.5,136.2z M250,121.4h15.2c-0.1-1.4-0.5-2.7-1.2-3.8c-0.7-1.1-1.6-2-2.7-2.6c-1.1-0.6-2.3-1-3.6-1
		s-2.5,0.3-3.6,1c-1.1,0.6-2,1.5-2.7,2.6C250.5,118.7,250.1,119.9,250,121.4z M274.7,100.6h5.3v27.8c0,1.3,0.2,2.1,0.6,2.4
		s0.9,0.5,1.4,0.5c0.6,0,1.2-0.1,1.8-0.2s1.1-0.3,1.5-0.5l0.8,4.2c-0.8,0.3-1.7,0.6-2.7,0.8s-2,0.3-2.8,0.3c-1.8,0-3.2-0.5-4.2-1.5
		s-1.5-2.4-1.5-4.2v-29.6H274.7z M289.1,135.7v-25.1h5.3v25.1H289.1z M289.1,106.5v-5.8h5.3v5.8H289.1z M314.7,134.4
		c-0.4,0.2-1,0.5-1.7,0.7c-0.7,0.3-1.4,0.5-2.3,0.7c-0.8,0.2-1.7,0.3-2.6,0.3c-1.1,0-2.1-0.2-3-0.6s-1.7-1-2.3-1.8
		c-0.5-0.9-0.8-2-0.8-3.3v-15.7h-3.3v-4.1h3.3v-8.3h5.3v8.3h5.5v4.1h-5.5v14c0.1,0.9,0.3,1.5,0.8,1.9s1.1,0.6,1.9,0.6
		c0.7,0,1.4-0.1,2.1-0.4c0.7-0.3,1.2-0.5,1.5-0.6L314.7,134.4z M318.7,140.3l1.2-4.9h-1.7v-5.9h4.8v5.9l-1.7,4.9H318.7z
		 M349.8,136.2c-2.1,0-4.1-0.3-6-1s-3.5-1.7-4.8-3.1l2-3.6c1.4,1.3,2.9,2.2,4.3,2.8c1.5,0.6,2.9,0.9,4.4,0.9s2.7-0.3,3.6-0.8
		c0.9-0.6,1.4-1.4,1.4-2.5c0-0.8-0.2-1.4-0.7-1.8s-1.2-0.7-2.1-1c-0.9-0.3-2-0.6-3.3-1c-1.8-0.5-3.3-1.1-4.5-1.7s-2.1-1.3-2.7-2.2
		c-0.6-0.9-0.9-2-0.9-3.3c0-1.6,0.4-3,1.2-4.2s2-2,3.5-2.6s3.2-0.9,5.2-0.9c1.8,0,3.5,0.3,5,0.9c1.6,0.5,2.9,1.4,4.1,2.6l-2.3,3.5
		c-1.1-1-2.3-1.8-3.5-2.3s-2.4-0.7-3.7-0.7c-0.8,0-1.5,0.1-2.2,0.3c-0.7,0.2-1.3,0.5-1.8,1c-0.4,0.4-0.7,1.1-0.7,1.9
		c0,0.7,0.2,1.2,0.6,1.6c0.4,0.4,1,0.8,1.7,1.1c0.8,0.3,1.7,0.6,2.8,1c2,0.6,3.6,1.2,5,1.7s2.4,1.3,3.2,2.2c0.8,0.9,1.2,2.1,1.2,3.6
		c0,2.4-0.9,4.3-2.7,5.7C355.2,135.5,352.8,136.2,349.8,136.2z M375.8,136.2c-2,0-3.7-0.3-5.3-1s-2.9-1.6-4.1-2.8
		c-1.2-1.2-2-2.6-2.7-4.1c-0.6-1.6-0.9-3.2-0.9-5c0-2.4,0.5-4.5,1.6-6.5s2.6-3.6,4.6-4.8c2-1.2,4.2-1.8,6.9-1.8s4.9,0.6,6.8,1.8
		c1.9,1.2,3.4,2.8,4.5,4.7s1.6,4,1.6,6.3c0,0.4,0,0.8,0,1.1c0,0.3-0.1,0.6-0.1,0.8h-20.1c0.1,1.5,0.5,2.8,1.2,3.9s1.7,2,2.8,2.6
		s2.3,0.9,3.6,0.9c1.4,0,2.7-0.4,4-1.1s2.1-1.6,2.6-2.8l4.5,1.3c-0.5,1.2-1.4,2.3-2.5,3.3s-2.4,1.7-3.9,2.3
		C379.2,135.9,377.5,136.2,375.8,136.2z M368.2,121.4h15.2c-0.1-1.4-0.5-2.7-1.2-3.8c-0.7-1.1-1.6-2-2.7-2.6c-1.1-0.6-2.3-1-3.6-1
		s-2.5,0.3-3.6,1c-1.1,0.6-2,1.5-2.7,2.6C368.7,118.7,368.3,119.9,368.2,121.4z M391.4,123.2c0-2.4,0.5-4.6,1.4-6.5
		c1-2,2.3-3.6,4-4.7c1.7-1.2,3.6-1.8,5.9-1.8c1.9,0,3.6,0.5,5.2,1.5s2.8,2.2,3.6,3.7v-14.7h5.3v29.1c0,0.6,0.1,1,0.3,1.3
		c0.2,0.3,0.6,0.4,1.1,0.4v4.2c-1,0.2-1.8,0.2-2.3,0.2c-1,0-1.8-0.3-2.5-0.9s-1-1.3-1.1-2.1V131c-1,1.6-2.3,2.8-3.9,3.7
		c-1.6,0.9-3.3,1.3-5.1,1.3c-1.7,0-3.3-0.3-4.8-1c-1.4-0.7-2.7-1.6-3.8-2.8c-1.1-1.2-1.9-2.6-2.5-4.2
		C391.7,126.6,391.4,124.9,391.4,123.2z M411.5,126.7v-6.6c-0.4-1-0.9-1.9-1.7-2.7c-0.8-0.8-1.6-1.5-2.6-2s-1.9-0.7-2.9-0.7
		c-1.1,0-2.1,0.2-3.1,0.7c-0.9,0.5-1.7,1.1-2.4,1.9c-0.6,0.8-1.1,1.7-1.5,2.7s-0.5,2.1-0.5,3.2c0,1.2,0.2,2.2,0.6,3.3
		c0.4,1,0.9,1.9,1.6,2.7c0.7,0.8,1.6,1.4,2.5,1.8c1,0.4,2,0.6,3.1,0.6c0.7,0,1.4-0.1,2.1-0.4s1.4-0.6,2.1-1.1c0.7-0.4,1.2-1,1.7-1.6
		C411,128,411.3,127.4,411.5,126.7z M433.8,123.2c0-2.4,0.5-4.6,1.4-6.5c1-2,2.3-3.6,4-4.7c1.7-1.2,3.6-1.8,5.9-1.8
		c1.9,0,3.6,0.5,5.2,1.5s2.8,2.2,3.6,3.7v-14.7h5.3v29.1c0,0.6,0.1,1,0.3,1.3c0.2,0.3,0.6,0.4,1.1,0.4v4.2c-1,0.2-1.8,0.2-2.3,0.2
		c-1,0-1.8-0.3-2.5-0.9s-1-1.3-1.1-2.1V131c-1,1.6-2.3,2.8-3.9,3.7c-1.6,0.9-3.3,1.3-5.1,1.3c-1.7,0-3.3-0.3-4.8-1
		c-1.4-0.7-2.7-1.6-3.8-2.8c-1.1-1.2-1.9-2.6-2.5-4.2C434.1,126.6,433.8,124.9,433.8,123.2z M453.9,126.7v-6.6
		c-0.4-1-0.9-1.9-1.7-2.7c-0.8-0.8-1.6-1.5-2.6-2s-1.9-0.7-2.9-0.7c-1.1,0-2.1,0.2-3.1,0.7c-0.9,0.5-1.7,1.1-2.4,1.9
		c-0.6,0.8-1.1,1.7-1.5,2.7s-0.5,2.1-0.5,3.2c0,1.2,0.2,2.2,0.6,3.3c0.4,1,0.9,1.9,1.6,2.7c0.7,0.8,1.6,1.4,2.5,1.8
		c1,0.4,2,0.6,3.1,0.6c0.7,0,1.4-0.1,2.1-0.4s1.4-0.6,2.1-1.1c0.7-0.4,1.2-1,1.7-1.6C453.4,128,453.8,127.4,453.9,126.7z
		 M477.2,136.2c-2,0-3.8-0.3-5.3-1c-1.6-0.7-2.9-1.7-4.1-2.9c-1.1-1.2-2-2.6-2.6-4.1c-0.6-1.6-0.9-3.2-0.9-5s0.3-3.4,0.9-5
		s1.5-2.9,2.6-4.1c1.2-1.2,2.5-2.2,4.1-2.8c1.6-0.7,3.4-1.1,5.3-1.1s3.7,0.4,5.3,1.1c1.6,0.7,3,1.6,4.1,2.8c1.2,1.2,2,2.6,2.6,4.1
		s0.9,3.2,0.9,5s-0.3,3.4-0.9,5c-0.6,1.5-1.5,2.9-2.6,4.1s-2.5,2.2-4.1,2.9C480.9,135.8,479.2,136.2,477.2,136.2z M469.7,123.2
		c0,1.6,0.3,3,1,4.3s1.6,2.3,2.7,3s2.4,1.1,3.8,1.1s2.6-0.4,3.7-1.1c1.2-0.8,2.1-1.8,2.7-3.1c0.7-1.3,1-2.8,1-4.3c0-1.6-0.3-3-1-4.3
		s-1.6-2.3-2.7-3c-1.1-0.8-2.4-1.2-3.7-1.2c-1.4,0-2.7,0.4-3.8,1.2s-2,1.8-2.7,3.1C470.1,120.1,469.7,121.6,469.7,123.2z
		 M13.8,186.2c-2,0-3.7-0.3-5.3-1s-2.9-1.6-4.1-2.8c-1.2-1.2-2-2.6-2.7-4.1c-0.6-1.6-0.9-3.2-0.9-5c0-2.4,0.5-4.5,1.6-6.5
		S5,163.2,7,162c2-1.2,4.2-1.8,6.9-1.8c2.6,0,4.9,0.6,6.8,1.8c1.9,1.2,3.4,2.8,4.5,4.7c1.1,2,1.6,4,1.6,6.3c0,0.4,0,0.8,0,1.1
		c0,0.3-0.1,0.6-0.1,0.8H6.6c0.1,1.5,0.5,2.8,1.2,3.9s1.7,2,2.8,2.6s2.3,0.9,3.6,0.9c1.4,0,2.7-0.4,4-1.1s2.1-1.6,2.6-2.8l4.5,1.3
		c-0.5,1.2-1.4,2.3-2.5,3.3s-2.4,1.7-3.9,2.3C17.2,185.9,15.5,186.2,13.8,186.2z M6.2,171.4h15.2c-0.1-1.4-0.5-2.7-1.2-3.8
		c-0.7-1.1-1.6-2-2.7-2.6c-1.1-0.6-2.3-1-3.6-1s-2.5,0.3-3.6,1c-1.1,0.6-2,1.5-2.7,2.6C6.7,168.7,6.3,169.9,6.2,171.4z M30.9,185.7
		v-25.1h5.3v25.1H30.9z M30.9,156.5v-5.8h5.3v5.8H30.9z M42.3,175.9v-15.4h5.3v14.3c0,2.2,0.4,3.9,1.2,5.1c0.8,1.1,2,1.7,3.6,1.7
		c1,0,2-0.2,2.9-0.6c1-0.4,1.8-1,2.6-1.8s1.4-1.8,1.9-3v-15.6h5.3v19.2c0,0.6,0.1,1,0.3,1.3s0.6,0.4,1.1,0.4v4.2
		c-0.5,0.1-1,0.2-1.3,0.2c-0.4,0-0.7,0-1,0c-1,0-1.8-0.3-2.4-0.8c-0.6-0.5-1-1.2-1.1-2.1l-0.1-2.5c-1.1,1.8-2.6,3.2-4.4,4.2
		c-1.8,0.9-3.8,1.4-5.9,1.4c-2.6,0-4.6-0.9-6-2.6C43,181.8,42.3,179.3,42.3,175.9z M80.7,186.2c-2.1,0-4.1-0.3-6-1s-3.5-1.7-4.8-3.1
		l2-3.6c1.4,1.3,2.9,2.2,4.3,2.8c1.5,0.6,2.9,0.9,4.4,0.9s2.7-0.3,3.6-0.8c0.9-0.6,1.4-1.4,1.4-2.5c0-0.8-0.2-1.4-0.7-1.8
		s-1.2-0.7-2.1-1c-0.9-0.3-2-0.6-3.3-1c-1.8-0.5-3.3-1.1-4.5-1.7s-2.1-1.3-2.7-2.2c-0.6-0.9-0.9-2-0.9-3.3c0-1.6,0.4-3,1.2-4.2
		s2-2,3.5-2.6s3.2-0.9,5.2-0.9c1.8,0,3.5,0.3,5,0.9c1.6,0.5,2.9,1.4,4.1,2.6l-2.3,3.5c-1.1-1-2.3-1.8-3.5-2.3s-2.4-0.7-3.7-0.7
		c-0.8,0-1.5,0.1-2.2,0.3c-0.7,0.2-1.3,0.5-1.8,1c-0.4,0.4-0.7,1.1-0.7,1.9c0,0.7,0.2,1.2,0.6,1.6c0.4,0.4,1,0.8,1.7,1.1
		s1.7,0.6,2.8,1c2,0.6,3.6,1.2,5,1.7s2.4,1.3,3.2,2.2c0.8,0.9,1.2,2.1,1.2,3.6c0,2.4-0.9,4.3-2.7,5.7
		C86.1,185.5,83.7,186.2,80.7,186.2z M133.8,185.7h-5.3v-14.1c0-2.3-0.4-4-1.2-5.1s-1.9-1.6-3.4-1.6s-2.8,0.6-4.1,1.7
		c-1.2,1.1-2.1,2.5-2.6,4.3v14.9h-5.3v-14.1c0-2.3-0.4-4-1.2-5.1s-1.9-1.6-3.3-1.6c-1.5,0-2.8,0.5-4.1,1.6c-1.2,1.1-2.1,2.5-2.7,4.3
		v14.9h-5.3v-25.1h4.8v5c1-1.8,2.3-3.1,3.9-4c1.6-1,3.5-1.4,5.6-1.4s3.7,0.5,4.9,1.6s2,2.4,2.3,4.1c1.1-1.9,2.4-3.3,4-4.2
		c1.6-1,3.4-1.5,5.5-1.5c1.5,0,2.7,0.3,3.7,0.8s1.8,1.3,2.3,2.3c0.5,0.9,0.9,2,1.2,3.3c0.3,1.2,0.4,2.5,0.4,3.9v15.1H133.8z
		 M151.1,186.2c-2,0-3.8-0.3-5.3-1c-1.6-0.7-2.9-1.7-4.1-2.9c-1.1-1.2-2-2.6-2.6-4.1c-0.6-1.6-0.9-3.2-0.9-5s0.3-3.4,0.9-5
		c0.6-1.6,1.5-2.9,2.6-4.1c1.2-1.2,2.5-2.2,4.1-2.8c1.6-0.7,3.4-1.1,5.3-1.1c2,0,3.7,0.4,5.3,1.1s3,1.6,4.1,2.8
		c1.2,1.2,2,2.6,2.6,4.1c0.6,1.6,0.9,3.2,0.9,5s-0.3,3.4-0.9,5c-0.6,1.5-1.5,2.9-2.6,4.1s-2.5,2.2-4.1,2.9
		C154.9,185.8,153.1,186.2,151.1,186.2z M143.7,173.2c0,1.6,0.3,3,1,4.3s1.6,2.3,2.7,3s2.4,1.1,3.8,1.1c1.4,0,2.6-0.4,3.7-1.1
		c1.2-0.8,2.1-1.8,2.7-3.1c0.7-1.3,1-2.8,1-4.3c0-1.6-0.3-3-1-4.3s-1.6-2.3-2.7-3c-1.1-0.8-2.4-1.2-3.7-1.2c-1.4,0-2.7,0.4-3.8,1.2
		c-1.1,0.8-2,1.8-2.7,3.1C144,170.1,143.7,171.6,143.7,173.2z M167.2,173.2c0-2.4,0.5-4.6,1.4-6.5c1-2,2.3-3.6,4-4.7
		c1.7-1.2,3.6-1.8,5.9-1.8c1.9,0,3.6,0.5,5.2,1.5c1.6,1,2.8,2.2,3.6,3.7v-14.7h5.3v29.1c0,0.6,0.1,1,0.3,1.3s0.6,0.4,1.1,0.4v4.2
		c-1,0.2-1.8,0.2-2.3,0.2c-1,0-1.8-0.3-2.5-0.9s-1-1.3-1.1-2.1V181c-1,1.6-2.3,2.8-3.9,3.7c-1.6,0.9-3.3,1.3-5.1,1.3
		c-1.7,0-3.3-0.3-4.8-1c-1.4-0.7-2.7-1.6-3.8-2.8c-1.1-1.2-1.9-2.6-2.5-4.2C167.4,176.6,167.2,174.9,167.2,173.2z M187.3,176.7v-6.6
		c-0.4-1-0.9-1.9-1.7-2.7c-0.8-0.8-1.6-1.5-2.6-2s-1.9-0.7-2.9-0.7c-1.1,0-2.1,0.2-3.1,0.7c-0.9,0.5-1.7,1.1-2.4,1.9
		c-0.6,0.8-1.1,1.7-1.5,2.7s-0.5,2.1-0.5,3.2c0,1.2,0.2,2.2,0.6,3.3c0.4,1,0.9,1.9,1.6,2.7c0.7,0.8,1.6,1.4,2.5,1.8
		c1,0.4,2,0.6,3.1,0.6c0.7,0,1.4-0.1,2.1-0.4c0.7-0.3,1.4-0.6,2.1-1.1c0.7-0.4,1.2-1,1.7-1.6C186.8,178,187.1,177.4,187.3,176.7z
		 M225.1,184.4c-0.4,0.2-1,0.5-1.7,0.7c-0.7,0.3-1.4,0.5-2.3,0.7c-0.8,0.2-1.7,0.3-2.6,0.3c-1.1,0-2.1-0.2-3-0.6s-1.7-1-2.3-1.8
		c-0.5-0.9-0.8-2-0.8-3.3v-15.7h-3.3v-4.1h3.3v-8.3h5.3v8.3h5.5v4.1h-5.5v14c0.1,0.9,0.3,1.5,0.8,1.9s1.1,0.6,1.9,0.6
		c0.7,0,1.4-0.1,2.1-0.4s1.2-0.5,1.5-0.6L225.1,184.4z M239.8,186.2c-2,0-3.7-0.3-5.3-1s-2.9-1.6-4.1-2.8c-1.2-1.2-2-2.6-2.7-4.1
		c-0.6-1.6-0.9-3.2-0.9-5c0-2.4,0.5-4.5,1.6-6.5s2.6-3.6,4.6-4.8c2-1.2,4.2-1.8,6.9-1.8s4.9,0.6,6.8,1.8c1.9,1.2,3.4,2.8,4.5,4.7
		c1.1,2,1.6,4,1.6,6.3c0,0.4,0,0.8,0,1.1c0,0.3-0.1,0.6-0.1,0.8h-20.1c0.1,1.5,0.5,2.8,1.2,3.9s1.7,2,2.8,2.6s2.3,0.9,3.6,0.9
		c1.4,0,2.7-0.4,4-1.1s2.1-1.6,2.6-2.8l4.5,1.3c-0.5,1.2-1.4,2.3-2.5,3.3s-2.4,1.7-3.9,2.3C243.2,185.9,241.6,186.2,239.8,186.2z
		 M232.3,171.4h15.2c-0.1-1.4-0.5-2.7-1.2-3.8c-0.7-1.1-1.6-2-2.7-2.6c-1.1-0.6-2.3-1-3.6-1s-2.5,0.3-3.6,1c-1.1,0.6-2,1.5-2.7,2.6
		C232.8,168.7,232.4,169.9,232.3,171.4z M295.4,185.7h-5.3v-14.1c0-2.3-0.4-4-1.2-5.1s-1.9-1.6-3.4-1.6s-2.8,0.6-4.1,1.7
		c-1.2,1.1-2.1,2.5-2.6,4.3v14.9h-5.2v-14.1c0-2.3-0.4-4-1.2-5.1s-1.9-1.6-3.3-1.6c-1.5,0-2.8,0.5-4.1,1.6c-1.2,1.1-2.1,2.5-2.7,4.3
		v14.9H257v-25.1h4.8v5c1-1.8,2.3-3.1,3.9-4c1.6-1,3.5-1.4,5.6-1.4s3.7,0.5,4.9,1.6s2,2.4,2.3,4.1c1.1-1.9,2.4-3.3,4-4.2
		c1.6-1,3.4-1.5,5.5-1.5c1.5,0,2.7,0.3,3.7,0.8s1.8,1.3,2.3,2.3c0.5,0.9,0.9,2,1.2,3.3c0.3,1.2,0.4,2.5,0.4,3.9v15.1H295.4z
		 M315.7,186.2c-2,0-3.8-0.5-5.3-1.4c-1.5-1-2.8-2.2-3.6-3.7V196h-5.3v-35.3h4.7v4.5c1-1.5,2.2-2.7,3.7-3.6s3.2-1.3,5.1-1.3
		c1.7,0,3.3,0.4,4.8,1.1c1.4,0.7,2.7,1.6,3.7,2.8c1.1,1.2,1.9,2.6,2.4,4.2c0.6,1.5,0.9,3.2,0.9,4.9c0,2.4-0.5,4.6-1.4,6.6
		s-2.2,3.6-3.9,4.8C319.8,185.6,317.9,186.2,315.7,186.2z M314,181.7c1.1,0,2.1-0.2,3-0.7s1.7-1.1,2.4-1.9s1.2-1.7,1.5-2.7
		c0.4-1,0.5-2.1,0.5-3.2c0-1.2-0.2-2.2-0.6-3.3c-0.4-1-0.9-1.9-1.7-2.7c-0.7-0.8-1.5-1.4-2.5-1.8c-0.9-0.4-2-0.7-3.1-0.7
		c-0.7,0-1.4,0.1-2.1,0.4c-0.7,0.3-1.4,0.6-2.1,1.1c-0.6,0.4-1.2,1-1.7,1.6s-0.8,1.2-1,1.9v6.6c0.4,1,1,2,1.8,2.8
		c0.7,0.8,1.6,1.5,2.5,2C312.1,181.4,313,181.7,314,181.7z M342.9,186.2c-2,0-3.8-0.3-5.3-1c-1.6-0.7-2.9-1.7-4.1-2.9
		c-1.1-1.2-2-2.6-2.6-4.1c-0.6-1.6-0.9-3.2-0.9-5s0.3-3.4,0.9-5c0.6-1.6,1.5-2.9,2.6-4.1c1.2-1.2,2.5-2.2,4.1-2.8
		c1.6-0.7,3.4-1.1,5.3-1.1c2,0,3.7,0.4,5.3,1.1s3,1.6,4.1,2.8c1.2,1.2,2,2.6,2.6,4.1c0.6,1.6,0.9,3.2,0.9,5s-0.3,3.4-0.9,5
		c-0.6,1.5-1.5,2.9-2.6,4.1s-2.5,2.2-4.1,2.9C346.6,185.8,344.9,186.2,342.9,186.2z M335.4,173.2c0,1.6,0.3,3,1,4.3s1.6,2.3,2.7,3
		s2.4,1.1,3.8,1.1c1.4,0,2.6-0.4,3.7-1.1c1.2-0.8,2.1-1.8,2.7-3.1c0.7-1.3,1-2.8,1-4.3c0-1.6-0.3-3-1-4.3s-1.6-2.3-2.7-3
		c-1.1-0.8-2.4-1.2-3.7-1.2c-1.4,0-2.7,0.4-3.8,1.2c-1.1,0.8-2,1.8-2.7,3.1C335.8,170.1,335.4,171.6,335.4,173.2z M374.6,165.1
		c-2,0-3.9,0.5-5.5,1.4s-2.7,2.2-3.4,3.8v15.4h-5.3v-25.1h4.9v5.6c0.9-1.7,2-3.1,3.4-4.1c1.4-1.1,2.9-1.6,4.5-1.7c0.3,0,0.6,0,0.8,0
		s0.4,0,0.6,0V165.1z M2.4,235.7v-25.1h5.3v25.1H2.4z M2.4,206.5v-5.8h5.3v5.8H2.4z M36.5,235.7h-5.3v-14.1c0-2.3-0.4-4-1.2-5.1
		c-0.7-1.1-1.8-1.6-3.3-1.6c-1,0-2,0.3-3.1,0.8c-1,0.5-1.9,1.2-2.7,2.1s-1.4,1.9-1.7,3v14.9h-5.3v-25.1h4.8v5
		c0.6-1.1,1.5-2.1,2.5-2.9c1.1-0.8,2.2-1.5,3.6-1.9c1.3-0.4,2.7-0.7,4.2-0.7s2.7,0.3,3.7,0.8s1.8,1.3,2.3,2.3c0.6,0.9,1,2,1.2,3.3
		c0.2,1.2,0.3,2.5,0.3,3.9V235.7z M54,236.2c-2,0-3.7-0.3-5.3-1s-2.9-1.7-4.1-2.9c-1.2-1.2-2-2.6-2.7-4.2c-0.6-1.6-0.9-3.2-0.9-5
		c0-2.4,0.5-4.5,1.6-6.5s2.6-3.5,4.5-4.7c2-1.2,4.3-1.8,6.9-1.8c2.6,0,4.8,0.6,6.7,1.7s3.3,2.6,4.2,4.5l-5.1,1.6
		c-0.6-1.1-1.4-1.9-2.4-2.4c-1-0.6-2.2-0.9-3.4-0.9c-1.4,0-2.7,0.4-3.8,1.1s-2,1.7-2.7,3c-0.6,1.2-1,2.7-1,4.4c0,1.6,0.3,3.1,1,4.4
		s1.6,2.3,2.7,3.1c1.2,0.7,2.4,1.1,3.8,1.1c0.9,0,1.7-0.1,2.5-0.4s1.6-0.7,2.2-1.2c0.6-0.5,1-1.1,1.3-1.8l5.2,1.5
		c-0.5,1.2-1.4,2.4-2.4,3.3c-1.1,1-2.3,1.7-3.8,2.3C57.4,235.9,55.8,236.2,54,236.2z M69.5,235.7v-25.1h5.3v25.1H69.5z M69.5,206.5
		v-5.8h5.3v5.8H69.5z M79.5,223.2c0-2.4,0.5-4.6,1.4-6.5c1-2,2.3-3.6,4-4.7c1.7-1.2,3.6-1.8,5.9-1.8c1.9,0,3.6,0.5,5.2,1.5
		c1.6,1,2.8,2.2,3.6,3.7v-14.7h5.3v29.1c0,0.6,0.1,1,0.3,1.3s0.6,0.4,1.1,0.4v4.2c-1,0.2-1.8,0.2-2.3,0.2c-1,0-1.8-0.3-2.5-0.9
		s-1-1.3-1.1-2.1V231c-1,1.6-2.3,2.8-3.9,3.7c-1.6,0.9-3.3,1.3-5.1,1.3c-1.7,0-3.3-0.3-4.8-1c-1.4-0.7-2.7-1.6-3.8-2.8
		c-1.1-1.2-1.9-2.6-2.5-4.2C79.8,226.6,79.5,224.9,79.5,223.2z M99.7,226.7v-6.6c-0.4-1-0.9-1.9-1.7-2.7c-0.8-0.8-1.6-1.5-2.6-2
		s-1.9-0.7-2.9-0.7c-1.1,0-2.1,0.2-3.1,0.7c-0.9,0.5-1.7,1.1-2.4,1.9c-0.6,0.8-1.1,1.7-1.5,2.7s-0.5,2.1-0.5,3.2
		c0,1.2,0.2,2.2,0.6,3.3c0.4,1,0.9,1.9,1.6,2.7c0.7,0.8,1.6,1.4,2.5,1.8c1,0.4,2,0.6,3.1,0.6c0.7,0,1.4-0.1,2.1-0.4
		c0.7-0.3,1.4-0.6,2.1-1.1c0.7-0.4,1.2-1,1.7-1.6C99.1,228,99.5,227.4,99.7,226.7z M111.6,235.7v-25.1h5.3v25.1H111.6z M111.6,206.5
		v-5.8h5.3v5.8H111.6z M121.7,223.2c0-2.4,0.5-4.6,1.4-6.5c1-2,2.3-3.6,4-4.7c1.7-1.2,3.6-1.8,5.9-1.8c1.9,0,3.6,0.5,5.2,1.5
		c1.6,1,2.8,2.2,3.6,3.7v-14.7h5.3v29.1c0,0.6,0.1,1,0.3,1.3s0.6,0.4,1.1,0.4v4.2c-1,0.2-1.8,0.2-2.3,0.2c-1,0-1.8-0.3-2.5-0.9
		s-1-1.3-1.1-2.1V231c-1,1.6-2.3,2.8-3.9,3.7c-1.6,0.9-3.3,1.3-5.1,1.3c-1.7,0-3.3-0.3-4.8-1c-1.4-0.7-2.7-1.6-3.8-2.8
		c-1.1-1.2-1.9-2.6-2.5-4.2C122,226.6,121.7,224.9,121.7,223.2z M141.9,226.7v-6.6c-0.4-1-0.9-1.9-1.7-2.7c-0.8-0.8-1.6-1.5-2.6-2
		s-1.9-0.7-2.9-0.7c-1.1,0-2.1,0.2-3.1,0.7c-0.9,0.5-1.7,1.1-2.4,1.9c-0.6,0.8-1.1,1.7-1.5,2.7s-0.5,2.1-0.5,3.2
		c0,1.2,0.2,2.2,0.6,3.3c0.4,1,0.9,1.9,1.6,2.7c0.7,0.8,1.6,1.4,2.5,1.8c1,0.4,2,0.6,3.1,0.6c0.7,0,1.4-0.1,2.1-0.4
		c0.7-0.3,1.4-0.6,2.1-1.1c0.7-0.4,1.2-1,1.7-1.6C141.3,228,141.7,227.4,141.9,226.7z M153.6,225.9v-15.4h5.3v14.3
		c0,2.2,0.4,3.9,1.2,5.1c0.8,1.1,2,1.7,3.6,1.7c1,0,2-0.2,2.9-0.6c1-0.4,1.8-1,2.6-1.8s1.4-1.8,1.9-3v-15.6h5.3v19.2
		c0,0.6,0.1,1,0.3,1.3s0.6,0.4,1.1,0.4v4.2c-0.5,0.1-1,0.2-1.3,0.2c-0.4,0-0.7,0-1,0c-1,0-1.8-0.3-2.4-0.8c-0.6-0.5-1-1.2-1.1-2.1
		l-0.1-2.5c-1.1,1.8-2.6,3.2-4.4,4.2c-1.8,0.9-3.8,1.4-5.9,1.4c-2.6,0-4.6-0.9-6-2.6S153.6,229.3,153.6,225.9z M205.6,235.7h-5.3
		v-14.1c0-2.3-0.4-4-1.2-5.1c-0.7-1.1-1.8-1.6-3.3-1.6c-1,0-2,0.3-3.1,0.8c-1,0.5-1.9,1.2-2.7,2.1s-1.4,1.9-1.7,3v14.9H183v-25.1
		h4.8v5c0.6-1.1,1.5-2.1,2.5-2.9c1.1-0.8,2.2-1.5,3.6-1.9c1.3-0.4,2.7-0.7,4.2-0.7s2.7,0.3,3.7,0.8s1.8,1.3,2.3,2.3
		c0.6,0.9,1,2,1.2,3.3c0.2,1.2,0.3,2.5,0.3,3.9V235.7z M225.5,234.4c-0.4,0.2-1,0.5-1.7,0.7c-0.7,0.3-1.4,0.5-2.3,0.7
		c-0.8,0.2-1.7,0.3-2.6,0.3c-1.1,0-2.1-0.2-3-0.6s-1.7-1-2.3-1.8c-0.5-0.9-0.8-2-0.8-3.3v-15.7h-3.3v-4.1h3.3v-8.3h5.3v8.3h5.5v4.1
		h-5.5v14c0.1,0.9,0.3,1.5,0.8,1.9s1.1,0.6,1.9,0.6c0.7,0,1.4-0.1,2.1-0.4s1.2-0.5,1.5-0.6L225.5,234.4z M240.8,225.9v-15.4h5.3
		v14.3c0,2.2,0.4,3.9,1.2,5.1c0.8,1.1,2,1.7,3.6,1.7c1,0,2-0.2,2.9-0.6c1-0.4,1.8-1,2.6-1.8s1.4-1.8,1.9-3v-15.6h5.3v19.2
		c0,0.6,0.1,1,0.3,1.3s0.6,0.4,1.1,0.4v4.2c-0.5,0.1-1,0.2-1.3,0.2c-0.4,0-0.7,0-1,0c-1,0-1.8-0.3-2.4-0.8c-0.6-0.5-1-1.2-1.1-2.1
		l-0.1-2.5c-1.1,1.8-2.6,3.2-4.4,4.2c-1.8,0.9-3.8,1.4-5.9,1.4c-2.6,0-4.6-0.9-6-2.6S240.8,229.3,240.8,225.9z M284.2,234.4
		c-0.4,0.2-1,0.5-1.7,0.7c-0.7,0.3-1.4,0.5-2.3,0.7c-0.8,0.2-1.7,0.3-2.6,0.3c-1.1,0-2.1-0.2-3-0.6s-1.7-1-2.3-1.8
		c-0.5-0.9-0.8-2-0.8-3.3v-15.7h-3.3v-4.1h3.3v-8.3h5.3v8.3h5.5v4.1h-5.5v14c0.1,0.9,0.3,1.5,0.8,1.9s1.1,0.6,1.9,0.6
		c0.7,0,1.4-0.1,2.1-0.4s1.2-0.5,1.5-0.6L284.2,234.4z M299.8,200.6h5.3v27.8c0,1.3,0.2,2.1,0.6,2.4s0.9,0.5,1.4,0.5
		c0.6,0,1.2-0.1,1.8-0.2s1.1-0.3,1.5-0.5l0.8,4.2c-0.8,0.3-1.7,0.6-2.7,0.8c-1.1,0.2-2,0.3-2.8,0.3c-1.8,0-3.2-0.5-4.2-1.5
		s-1.5-2.4-1.5-4.2v-29.6H299.8z M312.3,228.3c0-1.6,0.4-3,1.3-4.2c0.9-1.2,2.2-2.1,3.8-2.8c1.6-0.7,3.5-1,5.6-1
		c1.1,0,2.3,0.1,3.4,0.2c1.2,0.2,2.2,0.4,3.1,0.8v-1.6c0-1.8-0.5-3.1-1.6-4.1s-2.6-1.5-4.6-1.5c-1.4,0-2.7,0.3-4,0.8
		c-1.2,0.5-2.6,1.2-4,2.1l-1.8-3.6c1.7-1.1,3.3-2,5-2.5s3.5-0.8,5.3-0.8c3.4,0,6,0.9,7.9,2.7c2,1.8,2.9,4.3,2.9,7.5v9.4
		c0,0.6,0.1,1,0.3,1.3s0.6,0.4,1.1,0.4v4.2c-0.5,0.1-0.9,0.2-1.3,0.2c-0.4,0-0.7,0-1,0c-1.1,0-2-0.3-2.5-0.8c-0.6-0.5-0.9-1.2-1-1.9
		l-0.1-1.4c-1.1,1.4-2.5,2.5-4.2,3.3s-3.4,1.2-5.1,1.2c-1.7,0-3.2-0.3-4.5-1s-2.3-1.6-3.1-2.8C312.7,231.1,312.3,229.8,312.3,228.3z
		 M328.3,229.9c0.4-0.4,0.7-0.8,0.9-1.2c0.2-0.4,0.3-0.8,0.3-1.1v-2.9c-0.9-0.4-1.8-0.6-2.8-0.8c-1-0.2-2-0.3-2.9-0.3
		c-1.9,0-3.5,0.4-4.7,1.2c-1.2,0.8-1.8,1.8-1.8,3.2c0,0.7,0.2,1.4,0.6,2.1c0.4,0.7,1,1.2,1.7,1.6c0.8,0.4,1.7,0.6,2.8,0.6
		c1.2,0,2.3-0.2,3.3-0.7C326.8,231.2,327.7,230.6,328.3,229.9z M354.8,236.2c-1.9,0-3.7-0.4-5.2-1.3s-2.8-2.2-3.6-3.7v4.6h-4.7v-35
		h5.3v14.7c1-1.6,2.2-2.9,3.7-3.8s3.3-1.4,5.3-1.4c1.7,0,3.2,0.4,4.6,1.1c1.4,0.7,2.5,1.7,3.5,2.9c1,1.2,1.7,2.6,2.3,4.2
		c0.5,1.6,0.8,3.2,0.8,5s-0.3,3.4-0.9,5c-0.6,1.6-1.4,2.9-2.5,4.1s-2.4,2.1-3.8,2.8C358,235.8,356.5,236.2,354.8,236.2z
		 M353.4,231.7c1.2,0,2.2-0.2,3.2-0.7s1.8-1.1,2.5-1.9s1.2-1.7,1.6-2.7c0.4-1,0.6-2.1,0.6-3.2c0-1.5-0.3-2.9-1-4.2
		c-0.6-1.3-1.5-2.4-2.6-3.2c-1.1-0.8-2.4-1.2-3.9-1.2c-1.1,0-2,0.3-3,0.8c-0.9,0.5-1.8,1.1-2.5,2c-0.7,0.8-1.3,1.7-1.8,2.7v6.6
		c0.2,0.7,0.5,1.4,1,2s1,1.1,1.7,1.5c0.6,0.4,1.3,0.8,2.1,1C352,231.5,352.7,231.7,353.4,231.7z M382.7,236.2c-2,0-3.8-0.3-5.3-1
		c-1.6-0.7-2.9-1.7-4.1-2.9c-1.1-1.2-2-2.6-2.6-4.1c-0.6-1.6-0.9-3.2-0.9-5s0.3-3.4,0.9-5c0.6-1.6,1.5-2.9,2.6-4.1
		c1.2-1.2,2.5-2.2,4.1-2.8c1.6-0.7,3.4-1.1,5.3-1.1c2,0,3.7,0.4,5.3,1.1s3,1.6,4.1,2.8c1.2,1.2,2,2.6,2.6,4.1c0.6,1.6,0.9,3.2,0.9,5
		s-0.3,3.4-0.9,5c-0.6,1.5-1.5,2.9-2.6,4.1s-2.5,2.2-4.1,2.9C386.4,235.8,384.6,236.2,382.7,236.2z M375.2,223.2c0,1.6,0.3,3,1,4.3
		s1.6,2.3,2.7,3s2.4,1.1,3.8,1.1c1.4,0,2.6-0.4,3.7-1.1c1.2-0.8,2.1-1.8,2.7-3.1c0.7-1.3,1-2.8,1-4.3c0-1.6-0.3-3-1-4.3
		s-1.6-2.3-2.7-3c-1.1-0.8-2.4-1.2-3.7-1.2c-1.4,0-2.7,0.4-3.8,1.2c-1.1,0.8-2,1.8-2.7,3.1C375.5,220.1,375.2,221.6,375.2,223.2z
		 M414.4,215.1c-2,0-3.9,0.5-5.5,1.4s-2.7,2.2-3.4,3.8v15.4h-5.3v-25.1h4.9v5.6c0.9-1.7,2-3.1,3.4-4.1c1.4-1.1,2.9-1.6,4.5-1.7
		c0.3,0,0.6,0,0.8,0c0.2,0,0.4,0,0.6,0V215.1z M429.1,236.2c-2,0-3.7-0.3-5.3-1c-1.6-0.7-2.9-1.6-4.1-2.8c-1.2-1.2-2-2.6-2.7-4.1
		c-0.6-1.6-0.9-3.2-0.9-5c0-2.4,0.5-4.5,1.6-6.5s2.6-3.6,4.6-4.8c2-1.2,4.2-1.8,6.9-1.8s4.9,0.6,6.8,1.8c1.9,1.2,3.4,2.8,4.5,4.7
		c1.1,2,1.6,4,1.6,6.3c0,0.4,0,0.8,0,1.1c0,0.3-0.1,0.6-0.1,0.8h-20.1c0.1,1.5,0.5,2.8,1.2,3.9s1.7,2,2.8,2.6
		c1.1,0.6,2.3,0.9,3.6,0.9c1.4,0,2.7-0.4,4-1.1s2.1-1.6,2.6-2.8l4.5,1.3c-0.5,1.2-1.4,2.3-2.5,3.3s-2.4,1.7-3.9,2.3
		C432.5,235.9,430.9,236.2,429.1,236.2z M421.6,221.4h15.2c-0.1-1.4-0.5-2.7-1.2-3.8c-0.7-1.1-1.6-2-2.7-2.6s-2.3-1-3.6-1
		c-1.3,0-2.5,0.3-3.6,1c-1.1,0.6-2,1.5-2.7,2.6C422.1,218.7,421.7,219.9,421.6,221.4z M469.5,236.2c-2,0-3.7-0.3-5.3-1
		c-1.6-0.7-2.9-1.6-4.1-2.8c-1.2-1.2-2-2.6-2.7-4.1c-0.6-1.6-0.9-3.2-0.9-5c0-2.4,0.5-4.5,1.6-6.5s2.6-3.6,4.6-4.8
		c2-1.2,4.2-1.8,6.9-1.8s4.9,0.6,6.8,1.8c1.9,1.2,3.4,2.8,4.5,4.7c1.1,2,1.6,4,1.6,6.3c0,0.4,0,0.8,0,1.1c0,0.3-0.1,0.6-0.1,0.8
		h-20.1c0.1,1.5,0.5,2.8,1.2,3.9s1.7,2,2.8,2.6c1.1,0.6,2.3,0.9,3.6,0.9c1.4,0,2.7-0.4,4-1.1s2.1-1.6,2.6-2.8l4.5,1.3
		c-0.5,1.2-1.4,2.3-2.5,3.3s-2.4,1.7-3.9,2.3C472.9,235.9,471.3,236.2,469.5,236.2z M462,221.4h15.2c-0.1-1.4-0.5-2.7-1.2-3.8
		c-0.7-1.1-1.6-2-2.7-2.6s-2.3-1-3.6-1c-1.3,0-2.5,0.3-3.6,1c-1.1,0.6-2,1.5-2.7,2.6C462.5,218.7,462.1,219.9,462,221.4z
		 M500.4,234.4c-0.4,0.2-1,0.5-1.7,0.7c-0.7,0.3-1.4,0.5-2.3,0.7c-0.8,0.2-1.7,0.3-2.6,0.3c-1.1,0-2.1-0.2-3-0.6s-1.7-1-2.3-1.8
		c-0.5-0.9-0.8-2-0.8-3.3v-15.7h-3.3v-4.1h3.3v-8.3h5.3v8.3h5.5v4.1H493v14c0.1,0.9,0.3,1.5,0.8,1.9s1.1,0.6,1.9,0.6
		c0.7,0,1.4-0.1,2.1-0.4s1.2-0.5,1.5-0.6L500.4,234.4z M0.8,273.2c0-2.4,0.5-4.6,1.4-6.5c1-2,2.3-3.6,4-4.7c1.7-1.2,3.6-1.8,5.9-1.8
		c1.9,0,3.6,0.5,5.2,1.5c1.6,1,2.8,2.2,3.6,3.7v-14.7h5.3v29.1c0,0.6,0.1,1,0.3,1.3s0.6,0.4,1.1,0.4v4.2c-1,0.2-1.8,0.2-2.3,0.2
		c-1,0-1.8-0.3-2.5-0.9c-0.7-0.6-1-1.3-1.1-2.1V281c-1,1.6-2.3,2.8-3.9,3.7c-1.6,0.9-3.3,1.3-5.1,1.3c-1.7,0-3.3-0.3-4.8-1
		c-1.4-0.7-2.7-1.6-3.8-2.8C3,281,2.2,279.6,1.6,278C1.1,276.6,0.8,274.9,0.8,273.2z M21,276.7v-6.6c-0.4-1-0.9-1.9-1.7-2.7
		c-0.8-0.8-1.6-1.5-2.6-2s-1.9-0.7-2.9-0.7c-1.1,0-2.1,0.2-3.1,0.7c-0.9,0.5-1.7,1.1-2.4,1.9c-0.6,0.8-1.1,1.7-1.5,2.7
		s-0.5,2.1-0.5,3.2c0,1.2,0.2,2.2,0.6,3.3c0.4,1,0.9,1.9,1.6,2.7c0.7,0.8,1.6,1.4,2.5,1.8c1,0.4,2,0.6,3.1,0.6
		c0.7,0,1.4-0.1,2.1-0.4c0.7-0.3,1.4-0.6,2.1-1.1c0.7-0.4,1.2-1,1.7-1.6C20.4,278,20.8,277.4,21,276.7z M44.2,286.2
		c-2,0-3.8-0.3-5.3-1c-1.6-0.7-2.9-1.7-4.1-2.9c-1.1-1.2-2-2.6-2.6-4.1c-0.6-1.6-0.9-3.2-0.9-5s0.3-3.4,0.9-5
		c0.6-1.6,1.5-2.9,2.6-4.1c1.2-1.2,2.5-2.2,4.1-2.8c1.6-0.7,3.4-1.1,5.3-1.1c2,0,3.7,0.4,5.3,1.1s3,1.6,4.1,2.8
		c1.2,1.2,2,2.6,2.6,4.1c0.6,1.6,0.9,3.2,0.9,5s-0.3,3.4-0.9,5c-0.6,1.5-1.5,2.9-2.6,4.1s-2.5,2.2-4.1,2.9
		C47.9,285.8,46.2,286.2,44.2,286.2z M36.7,273.2c0,1.6,0.3,3,1,4.3s1.6,2.3,2.7,3c1.1,0.7,2.4,1.1,3.8,1.1c1.4,0,2.6-0.4,3.7-1.1
		c1.2-0.8,2.1-1.8,2.7-3.1c0.7-1.3,1-2.8,1-4.3c0-1.6-0.3-3-1-4.3s-1.6-2.3-2.7-3c-1.1-0.8-2.4-1.2-3.7-1.2c-1.4,0-2.7,0.4-3.8,1.2
		s-2,1.8-2.7,3.1C37.1,270.1,36.7,271.6,36.7,273.2z M61.9,250.6h5.3v27.8c0,1.3,0.2,2.1,0.6,2.4c0.4,0.4,0.9,0.5,1.4,0.5
		c0.6,0,1.2-0.1,1.8-0.2s1.1-0.3,1.5-0.5l0.8,4.2c-0.8,0.3-1.7,0.6-2.7,0.8c-1.1,0.2-2,0.3-2.8,0.3c-1.8,0-3.2-0.5-4.2-1.5
		s-1.5-2.4-1.5-4.2v-29.6H61.9z M87.5,286.2c-2,0-3.8-0.3-5.3-1c-1.6-0.7-2.9-1.7-4.1-2.9c-1.1-1.2-2-2.6-2.6-4.1
		c-0.6-1.6-0.9-3.2-0.9-5s0.3-3.4,0.9-5c0.6-1.6,1.5-2.9,2.6-4.1c1.2-1.2,2.5-2.2,4.1-2.8c1.6-0.7,3.4-1.1,5.3-1.1
		c2,0,3.7,0.4,5.3,1.1s3,1.6,4.1,2.8c1.2,1.2,2,2.6,2.6,4.1c0.6,1.6,0.9,3.2,0.9,5s-0.3,3.4-0.9,5c-0.6,1.5-1.5,2.9-2.6,4.1
		s-2.5,2.2-4.1,2.9C91.3,285.8,89.5,286.2,87.5,286.2z M80.1,273.2c0,1.6,0.3,3,1,4.3s1.6,2.3,2.7,3c1.1,0.7,2.4,1.1,3.8,1.1
		c1.4,0,2.6-0.4,3.7-1.1c1.2-0.8,2.1-1.8,2.7-3.1c0.7-1.3,1-2.8,1-4.3c0-1.6-0.3-3-1-4.3s-1.6-2.3-2.7-3c-1.1-0.8-2.4-1.2-3.7-1.2
		c-1.4,0-2.7,0.4-3.8,1.2s-2,1.8-2.7,3.1C80.4,270.1,80.1,271.6,80.1,273.2z M119.2,265.1c-2,0-3.9,0.5-5.5,1.4s-2.7,2.2-3.4,3.8
		v15.4H105v-25.1h4.9v5.6c0.9-1.7,2-3.1,3.4-4.1c1.4-1.1,2.9-1.6,4.5-1.7c0.3,0,0.6,0,0.8,0s0.4,0,0.6,0V265.1z M134,286.2
		c-2,0-3.7-0.3-5.3-1s-2.9-1.6-4.1-2.8c-1.2-1.2-2-2.6-2.7-4.1c-0.6-1.6-0.9-3.2-0.9-5c0-2.4,0.5-4.5,1.6-6.5s2.6-3.6,4.6-4.8
		c2-1.2,4.2-1.8,6.9-1.8c2.6,0,4.9,0.6,6.8,1.8c1.9,1.2,3.4,2.8,4.5,4.7c1.1,2,1.6,4,1.6,6.3c0,0.4,0,0.8,0,1.1
		c0,0.3-0.1,0.6-0.1,0.8h-20.3c0.1,1.5,0.5,2.8,1.2,3.9s1.7,2,2.8,2.6s2.3,0.9,3.6,0.9c1.4,0,2.7-0.4,4-1.1s2.1-1.6,2.6-2.8l4.5,1.3
		c-0.5,1.2-1.4,2.3-2.5,3.3s-2.4,1.7-3.9,2.3C137.4,285.9,135.8,286.2,134,286.2z M126.5,271.4h15.1c-0.1-1.4-0.5-2.7-1.2-3.8
		c-0.7-1.1-1.6-2-2.7-2.6c-1.1-0.6-2.3-1-3.6-1s-2.5,0.3-3.6,1c-1.1,0.6-2,1.5-2.7,2.6C127,268.7,126.6,269.9,126.5,271.4z
		 M201.4,285.7h-5.3v-14.1c0-2.3-0.4-4-1.2-5.1s-1.9-1.6-3.4-1.6s-2.8,0.6-4.1,1.7c-1.2,1.1-2.1,2.5-2.6,4.3v14.9h-5.2v-14.1
		c0-2.3-0.4-4-1.2-5.1s-1.9-1.6-3.3-1.6c-1.5,0-2.8,0.5-4.1,1.6c-1.2,1.1-2.1,2.5-2.7,4.3v14.9H163v-25.1h4.8v5c1-1.8,2.3-3.1,3.9-4
		c1.6-1,3.5-1.4,5.6-1.4s3.7,0.5,4.9,1.6s2,2.4,2.3,4.1c1.1-1.9,2.4-3.3,4-4.2c1.6-1,3.4-1.5,5.5-1.5c1.5,0,2.7,0.3,3.7,0.8
		s1.8,1.3,2.3,2.3c0.5,0.9,0.9,2,1.2,3.3c0.3,1.2,0.4,2.5,0.4,3.9v15.1H201.4z M205.7,278.3c0-1.6,0.4-3,1.3-4.2
		c0.9-1.2,2.2-2.1,3.8-2.8c1.6-0.7,3.5-1,5.6-1c1.1,0,2.3,0.1,3.4,0.2c1.2,0.2,2.2,0.4,3.1,0.8v-1.6c0-1.8-0.5-3.1-1.6-4.1
		s-2.6-1.5-4.6-1.5c-1.4,0-2.7,0.3-4,0.8c-1.2,0.5-2.6,1.2-4,2.1l-1.8-3.6c1.7-1.1,3.3-2,5-2.5s3.5-0.8,5.3-0.8c3.4,0,6,0.9,7.9,2.7
		c2,1.8,2.9,4.3,2.9,7.5v9.4c0,0.6,0.1,1,0.3,1.3s0.6,0.4,1.1,0.4v4.2c-0.5,0.1-0.9,0.2-1.3,0.2c-0.4,0-0.7,0-1,0
		c-1.1,0-2-0.3-2.5-0.8c-0.6-0.5-0.9-1.2-1-1.9l-0.1-1.4c-1.1,1.4-2.5,2.5-4.2,3.3s-3.4,1.2-5.1,1.2c-1.7,0-3.2-0.3-4.5-1
		s-2.3-1.6-3.1-2.8C206.1,281.1,205.7,279.8,205.7,278.3z M221.7,279.9c0.4-0.4,0.7-0.8,0.9-1.2s0.3-0.8,0.3-1.1v-2.9
		c-0.9-0.4-1.8-0.6-2.8-0.8c-1-0.2-2-0.3-2.9-0.3c-1.9,0-3.5,0.4-4.7,1.2c-1.2,0.8-1.8,1.8-1.8,3.2c0,0.7,0.2,1.4,0.6,2.1
		c0.4,0.7,1,1.2,1.7,1.6c0.8,0.4,1.7,0.6,2.8,0.6c1.2,0,2.3-0.2,3.3-0.7C220.2,281.2,221,280.6,221.7,279.9z M244.5,285.9
		c-1.7,0-3.2-0.3-4.7-1c-1.4-0.7-2.6-1.6-3.6-2.8c-1-1.2-1.8-2.5-2.4-4.1c-0.5-1.5-0.8-3.2-0.8-4.8c0-1.8,0.3-3.5,0.9-5
		s1.4-2.9,2.4-4.1c1.1-1.2,2.3-2.2,3.7-2.8c1.4-0.7,3-1,4.7-1c2,0,3.8,0.5,5.3,1.4c1.5,1,2.8,2.2,3.8,3.7v-4.8h4.7V285
		c0,2.4-0.6,4.5-1.8,6.2s-2.7,3-4.8,3.9s-4.3,1.3-6.8,1.3c-2.8,0-5.1-0.5-6.9-1.4c-1.8-1-3.4-2.3-4.7-3.9l3-2.8
		c1,1.3,2.2,2.4,3.7,3.1c1.5,0.7,3.2,1.1,4.9,1.1c1.4,0,2.8-0.3,4-0.8s2.2-1.3,3-2.4c0.7-1.1,1.1-2.5,1.1-4.1v-3.8
		c-0.9,1.5-2.1,2.7-3.7,3.6C247.9,285.5,246.3,285.9,244.5,285.9z M246.3,281.7c0.8,0,1.6-0.1,2.3-0.4s1.4-0.7,2-1.1
		c0.6-0.5,1.2-1,1.6-1.6c0.4-0.6,0.8-1.2,1-1.9v-6.6c-0.4-1.1-1-2-1.8-2.8s-1.6-1.5-2.6-1.9s-1.9-0.7-2.9-0.7
		c-1.2,0-2.2,0.3-3.1,0.8c-0.9,0.5-1.7,1.1-2.3,2c-0.6,0.8-1.1,1.7-1.5,2.7s-0.5,2.1-0.5,3.2c0,1.2,0.2,2.2,0.6,3.2
		c0.4,1,1,1.9,1.7,2.7c0.7,0.8,1.5,1.4,2.5,1.8C244.2,281.4,245.2,281.7,246.3,281.7z M287.3,285.7H282v-14.1c0-2.3-0.4-4-1.2-5.1
		c-0.7-1.1-1.8-1.6-3.3-1.6c-1,0-2,0.3-3.1,0.8c-1,0.5-1.9,1.2-2.7,2.1s-1.4,1.9-1.7,3v14.9h-5.3v-25.1h4.8v5
		c0.6-1.1,1.5-2.1,2.5-2.9c1.1-0.8,2.2-1.5,3.6-1.9c1.3-0.4,2.7-0.7,4.2-0.7s2.7,0.3,3.7,0.8s1.8,1.3,2.3,2.3c0.6,0.9,1,2,1.2,3.3
		c0.2,1.2,0.3,2.5,0.3,3.9V285.7z M291.6,278.3c0-1.6,0.4-3,1.3-4.2c0.9-1.2,2.2-2.1,3.8-2.8c1.6-0.7,3.5-1,5.6-1
		c1.1,0,2.3,0.1,3.4,0.2c1.2,0.2,2.2,0.4,3.1,0.8v-1.6c0-1.8-0.5-3.1-1.6-4.1s-2.6-1.5-4.6-1.5c-1.4,0-2.7,0.3-4,0.8
		c-1.2,0.5-2.6,1.2-4,2.1l-1.8-3.6c1.7-1.1,3.3-2,5-2.5s3.5-0.8,5.3-0.8c3.4,0,6,0.9,7.9,2.7c2,1.8,2.9,4.3,2.9,7.5v9.4
		c0,0.6,0.1,1,0.3,1.3s0.6,0.4,1.1,0.4v4.2c-0.5,0.1-0.9,0.2-1.3,0.2c-0.4,0-0.7,0-1,0c-1.1,0-2-0.3-2.5-0.8c-0.6-0.5-0.9-1.2-1-1.9
		l-0.1-1.4c-1.1,1.4-2.5,2.5-4.2,3.3s-3.4,1.2-5.1,1.2c-1.7,0-3.2-0.3-4.5-1s-2.3-1.6-3.1-2.8C292,281.1,291.6,279.8,291.6,278.3z
		 M307.6,279.9c0.4-0.4,0.7-0.8,0.9-1.2s0.3-0.8,0.3-1.1v-2.9c-0.9-0.4-1.8-0.6-2.8-0.8c-1-0.2-2-0.3-2.9-0.3
		c-1.9,0-3.5,0.4-4.7,1.2c-1.2,0.8-1.8,1.8-1.8,3.2c0,0.7,0.2,1.4,0.6,2.1c0.4,0.7,1,1.2,1.7,1.6c0.8,0.4,1.7,0.6,2.8,0.6
		c1.2,0,2.3-0.2,3.3-0.7C306.1,281.2,307,280.6,307.6,279.9z M330.6,278.3c0-1.6,0.4-3,1.3-4.2c0.9-1.2,2.2-2.1,3.8-2.8
		c1.6-0.7,3.5-1,5.6-1c1.1,0,2.3,0.1,3.4,0.2c1.2,0.2,2.2,0.4,3.1,0.8v-1.6c0-1.8-0.5-3.1-1.6-4.1s-2.6-1.5-4.6-1.5
		c-1.4,0-2.7,0.3-4,0.8c-1.2,0.5-2.6,1.2-4,2.1l-1.8-3.6c1.7-1.1,3.3-2,5-2.5s3.5-0.8,5.3-0.8c3.4,0,6,0.9,7.9,2.7
		c2,1.8,2.9,4.3,2.9,7.5v9.4c0,0.6,0.1,1,0.3,1.3s0.6,0.4,1.1,0.4v4.2c-0.5,0.1-0.9,0.2-1.3,0.2c-0.4,0-0.7,0-1,0
		c-1.1,0-2-0.3-2.5-0.8c-0.6-0.5-0.9-1.2-1-1.9l-0.1-1.4c-1.1,1.4-2.5,2.5-4.2,3.3s-3.4,1.2-5.1,1.2c-1.7,0-3.2-0.3-4.5-1
		s-2.3-1.6-3.1-2.8C330.9,281.1,330.6,279.8,330.6,278.3z M346.5,279.9c0.4-0.4,0.7-0.8,0.9-1.2s0.3-0.8,0.3-1.1v-2.9
		c-0.9-0.4-1.8-0.6-2.8-0.8c-1-0.2-2-0.3-2.9-0.3c-1.9,0-3.5,0.4-4.7,1.2c-1.2,0.8-1.8,1.8-1.8,3.2c0,0.7,0.2,1.4,0.6,2.1
		c0.4,0.7,1,1.2,1.7,1.6c0.8,0.4,1.7,0.6,2.8,0.6c1.2,0,2.3-0.2,3.3-0.7C345.1,281.2,345.9,280.6,346.5,279.9z M359.5,250.6h5.3
		v27.8c0,1.3,0.2,2.1,0.6,2.4c0.4,0.4,0.9,0.5,1.4,0.5c0.6,0,1.2-0.1,1.8-0.2s1.1-0.3,1.5-0.5l0.8,4.2c-0.8,0.3-1.7,0.6-2.7,0.8
		s-2,0.3-2.8,0.3c-1.8,0-3.2-0.5-4.2-1.5s-1.5-2.4-1.5-4.2v-29.6H359.5z M373.9,285.7v-25.1h5.3v25.1H373.9z M373.9,256.5v-5.8h5.3
		v5.8H373.9z M395.1,286.2c-1.6,0-3.1-0.3-4.5-1c-1.3-0.7-2.5-1.6-3.5-2.8c-1-1.2-1.8-2.6-2.3-4.2s-0.8-3.3-0.8-5
		c0-1.8,0.3-3.5,0.9-5c0.6-1.6,1.4-2.9,2.5-4.1s2.4-2.1,3.8-2.8c1.4-0.7,3-1,4.7-1c1.9,0,3.6,0.5,5.2,1.4s2.8,2.1,3.7,3.6v-4.6h4.7
		V296h-5.3v-14.9C402,284.4,399,286.2,395.1,286.2z M397,281.7c1.1,0,2-0.2,2.9-0.6s1.7-1,2.4-1.7c0.7-0.7,1.3-1.6,1.8-2.5v-6.6
		c-0.2-0.8-0.5-1.5-1-2.1c-0.4-0.7-1-1.3-1.7-1.8s-1.4-1-2.2-1.2c-0.8-0.3-1.5-0.4-2.3-0.4c-1.1,0-2.1,0.2-3.1,0.7
		c-0.9,0.5-1.7,1.1-2.4,2c-0.7,0.8-1.2,1.7-1.6,2.7c-0.4,1-0.5,2.1-0.5,3.2c0,1.5,0.3,2.9,1,4.2c0.7,1.2,1.6,2.3,2.7,3
		C394.2,281.3,395.5,281.7,397,281.7z M415.4,275.9v-15.4h5.3v14.3c0,2.2,0.4,3.9,1.2,5.1c0.8,1.1,2,1.7,3.6,1.7c1,0,2-0.2,2.9-0.6
		c1-0.4,1.8-1,2.6-1.8c0.8-0.8,1.4-1.8,1.9-3v-15.6h5.3v19.2c0,0.6,0.1,1,0.3,1.3c0.2,0.3,0.6,0.4,1.1,0.4v4.2
		c-0.5,0.1-1,0.2-1.3,0.2c-0.4,0-0.7,0-1,0c-1,0-1.8-0.3-2.4-0.8s-1-1.2-1.1-2.1l-0.1-2.5c-1.1,1.8-2.6,3.2-4.4,4.2
		c-1.8,0.9-3.8,1.4-5.9,1.4c-2.6,0-4.6-0.9-6-2.6S415.4,279.3,415.4,275.9z M443.1,278.3c0-1.6,0.4-3,1.3-4.2s2.2-2.1,3.8-2.8
		c1.6-0.7,3.5-1,5.6-1c1.1,0,2.3,0.1,3.4,0.2c1.2,0.2,2.2,0.4,3.1,0.8v-1.6c0-1.8-0.5-3.1-1.6-4.1s-2.6-1.5-4.6-1.5
		c-1.4,0-2.7,0.3-4,0.8c-1.2,0.5-2.6,1.2-4,2.1l-1.8-3.6c1.7-1.1,3.3-2,5-2.5s3.5-0.8,5.3-0.8c3.4,0,6,0.9,7.9,2.7
		c2,1.8,2.9,4.3,2.9,7.5v9.4c0,0.6,0.1,1,0.3,1.3c0.2,0.3,0.6,0.4,1.1,0.4v4.2c-0.5,0.1-0.9,0.2-1.3,0.2s-0.7,0-1,0
		c-1.1,0-2-0.3-2.5-0.8c-0.6-0.5-0.9-1.2-1-1.9l-0.1-1.4c-1.1,1.4-2.5,2.5-4.2,3.3s-3.4,1.2-5.1,1.2s-3.2-0.3-4.5-1
		s-2.3-1.6-3.1-2.8C443.5,281.1,443.1,279.8,443.1,278.3z M459.1,279.9c0.4-0.4,0.7-0.8,0.9-1.2s0.3-0.8,0.3-1.1v-2.9
		c-0.9-0.4-1.8-0.6-2.8-0.8c-1-0.2-2-0.3-2.9-0.3c-1.9,0-3.5,0.4-4.7,1.2c-1.2,0.8-1.8,1.8-1.8,3.2c0,0.7,0.2,1.4,0.6,2.1
		s1,1.2,1.7,1.6c0.8,0.4,1.7,0.6,2.8,0.6c1.2,0,2.3-0.2,3.3-0.7C457.6,281.2,458.5,280.6,459.1,279.9z M471.8,285.7v-6.1h4.4v6.1
		H471.8z"/>
</g>
</svg>
