<svg width="792" height="318" viewBox="0 0 792 318" fill="none" xmlns="http://www.w3.org/2000/svg">
<path d="M0 251.2H520V313.2H0V251.2Z" fill="#FF7A00" fill-opacity="0.5"/>
<path d="M0 12.2H747V74.2H0V12.2Z" fill="#FF7A00" fill-opacity="0.5"/>
<path d="M0 91.2H786V153.2H0V91.2Z" fill="#FF7A00" fill-opacity="0.5"/>
<path d="M0 171.2H786V233.2H0V171.2Z" fill="#FF7A00" fill-opacity="0.5"/>
<path d="M45.92 59.2V2.4H56.96V59.2H45.92Z" fill="#0022D5"/>
<path d="M86.9094 0.799999H97.6294V45.76C97.6294 47.68 97.9494 48.9867 98.5894 49.68C99.2294 50.32 100.109 50.64 101.229 50.64C102.083 50.64 102.963 50.5333 103.869 50.32C104.776 50.1067 105.576 49.84 106.269 49.52L107.709 57.68C106.269 58.3733 104.589 58.9067 102.669 59.28C100.749 59.6533 99.016 59.84 97.4694 59.84C94.1094 59.84 91.496 58.96 89.6294 57.2C87.816 55.3867 86.9094 52.8267 86.9094 49.52V0.799999Z" fill="#0022D5"/>
<path d="M112.38 59.2V17.28H123.1V59.2H112.38ZM112.38 11.44V0.799999H123.1V11.44H112.38Z" fill="#0022D5"/>
<path d="M161.411 59.2L149.171 41.12L143.491 46.72V59.2H132.771V0.799999H143.491V36.16L160.371 17.36H171.731L156.131 35.12L172.851 59.2H161.411Z" fill="#0022D5"/>
<path d="M194.633 60C191.273 60 188.232 59.44 185.512 58.32C182.792 57.1467 180.473 55.5733 178.553 53.6C176.633 51.5733 175.139 49.28 174.072 46.72C173.059 44.1067 172.553 41.36 172.553 38.48C172.553 34.48 173.433 30.8267 175.193 27.52C177.006 24.2133 179.566 21.5733 182.872 19.6C186.232 17.5733 190.179 16.56 194.712 16.56C199.299 16.56 203.219 17.5733 206.473 19.6C209.726 21.5733 212.206 24.2133 213.913 27.52C215.673 30.7733 216.553 34.2933 216.553 38.08C216.553 38.72 216.526 39.3867 216.473 40.08C216.419 40.72 216.366 41.2533 216.312 41.68H183.913C184.126 43.8133 184.739 45.68 185.753 47.28C186.819 48.88 188.153 50.1067 189.753 50.96C191.406 51.76 193.166 52.16 195.033 52.16C197.166 52.16 199.166 51.6533 201.033 50.64C202.953 49.5733 204.259 48.1867 204.952 46.48L214.152 49.04C213.139 51.1733 211.673 53.0667 209.753 54.72C207.886 56.3733 205.673 57.68 203.113 58.64C200.553 59.5467 197.726 60 194.633 60ZM183.673 34.88H205.592C205.379 32.7467 204.766 30.9067 203.753 29.36C202.793 27.76 201.513 26.5333 199.913 25.68C198.313 24.7733 196.526 24.32 194.553 24.32C192.633 24.32 190.873 24.7733 189.273 25.68C187.726 26.5333 186.446 27.76 185.432 29.36C184.472 30.9067 183.886 32.7467 183.673 34.88Z" fill="#0022D5"/>
<path d="M267.422 57.04C266.515 57.4133 265.422 57.84 264.142 58.32C262.862 58.8 261.475 59.1733 259.982 59.44C258.542 59.76 257.075 59.92 255.582 59.92C253.609 59.92 251.795 59.5733 250.142 58.88C248.489 58.1867 247.155 57.0933 246.142 55.6C245.182 54.0533 244.702 52.0533 244.702 49.6V25.52H239.182V17.28H244.702V3.68H255.422V17.28H264.222V25.52H255.422V46C255.475 47.44 255.875 48.48 256.622 49.12C257.369 49.76 258.302 50.08 259.422 50.08C260.542 50.08 261.635 49.8933 262.702 49.52C263.769 49.1467 264.622 48.8267 265.262 48.56L267.422 57.04Z" fill="#0022D5"/>
<path d="M291.896 60C288.483 60 285.416 59.44 282.696 58.32C279.976 57.1467 277.656 55.5467 275.736 53.52C273.87 51.4933 272.43 49.1733 271.416 46.56C270.403 43.9467 269.896 41.2 269.896 38.32C269.896 35.3867 270.403 32.6133 271.416 30C272.43 27.3867 273.87 25.0667 275.736 23.04C277.656 21.0133 279.976 19.44 282.696 18.32C285.416 17.1467 288.483 16.56 291.896 16.56C295.31 16.56 298.35 17.1467 301.016 18.32C303.736 19.44 306.056 21.0133 307.976 23.04C309.896 25.0667 311.336 27.3867 312.296 30C313.31 32.6133 313.816 35.3867 313.816 38.32C313.816 41.2 313.31 43.9467 312.296 46.56C311.336 49.1733 309.896 51.4933 307.976 53.52C306.11 55.5467 303.816 57.1467 301.096 58.32C298.376 59.44 295.31 60 291.896 60ZM280.936 38.32C280.936 40.7733 281.416 42.96 282.376 44.88C283.336 46.7467 284.643 48.2133 286.296 49.28C287.95 50.3467 289.816 50.88 291.896 50.88C293.923 50.88 295.763 50.3467 297.416 49.28C299.07 48.16 300.376 46.6667 301.336 44.8C302.35 42.88 302.856 40.6933 302.856 38.24C302.856 35.84 302.35 33.68 301.336 31.76C300.376 29.84 299.07 28.3467 297.416 27.28C295.763 26.2133 293.923 25.68 291.896 25.68C289.816 25.68 287.95 26.24 286.296 27.36C284.643 28.4267 283.336 29.92 282.376 31.84C281.416 33.7067 280.936 35.8667 280.936 38.32Z" fill="#0022D5"/>
<path d="M359.791 60C356.377 60 353.311 59.44 350.591 58.32C347.871 57.1467 345.551 55.5467 343.631 53.52C341.711 51.44 340.217 49.0933 339.151 46.48C338.137 43.8667 337.631 41.12 337.631 38.24C337.631 34.2933 338.511 30.6933 340.271 27.44C342.084 24.1333 344.644 21.4933 347.951 19.52C351.257 17.5467 355.177 16.56 359.711 16.56C364.244 16.56 368.137 17.5467 371.391 19.52C374.644 21.4933 377.071 24.08 378.671 27.28L368.191 30.48C367.284 28.9333 366.084 27.76 364.591 26.96C363.097 26.1067 361.444 25.68 359.631 25.68C357.604 25.68 355.737 26.2133 354.031 27.28C352.377 28.2933 351.071 29.76 350.111 31.68C349.151 33.5467 348.671 35.7333 348.671 38.24C348.671 40.6933 349.151 42.88 350.111 44.8C351.124 46.6667 352.457 48.16 354.111 49.28C355.764 50.3467 357.604 50.88 359.631 50.88C360.911 50.88 362.111 50.6667 363.231 50.24C364.404 49.8133 365.444 49.2267 366.351 48.48C367.257 47.7333 367.924 46.88 368.351 45.92L378.831 49.12C377.871 51.2 376.457 53.0667 374.591 54.72C372.777 56.3733 370.617 57.68 368.111 58.64C365.657 59.5467 362.884 60 359.791 60Z" fill="#0022D5"/>
<path d="M382.547 46.8C382.547 44.08 383.294 41.7067 384.787 39.68C386.334 37.6 388.467 36 391.187 34.88C393.907 33.76 397.027 33.2 400.547 33.2C402.307 33.2 404.094 33.3333 405.907 33.6C407.72 33.8667 409.294 34.2933 410.627 34.88V32.64C410.627 29.9733 409.827 27.92 408.227 26.48C406.68 25.04 404.36 24.32 401.267 24.32C398.974 24.32 396.787 24.72 394.707 25.52C392.627 26.32 390.44 27.4933 388.147 29.04L384.707 22C387.48 20.1867 390.307 18.8267 393.187 17.92C396.12 17.0133 399.187 16.56 402.387 16.56C408.36 16.56 413 18.0533 416.307 21.04C419.667 24.0267 421.347 28.2933 421.347 33.84V47.2C421.347 48.32 421.534 49.12 421.907 49.6C422.334 50.08 423 50.3733 423.907 50.48V59.2C422.947 59.36 422.067 59.4933 421.267 59.6C420.52 59.7067 419.88 59.76 419.347 59.76C417.214 59.76 415.587 59.28 414.467 58.32C413.4 57.36 412.734 56.1867 412.467 54.8L412.227 52.64C410.414 54.9867 408.147 56.8 405.427 58.08C402.707 59.36 399.934 60 397.107 60C394.334 60 391.827 59.44 389.587 58.32C387.4 57.1467 385.667 55.5733 384.387 53.6C383.16 51.5733 382.547 49.3067 382.547 46.8ZM408.627 48.96C409.214 48.32 409.694 47.68 410.067 47.04C410.44 46.4 410.627 45.8133 410.627 45.28V41.04C409.347 40.5067 407.96 40.1067 406.467 39.84C404.974 39.52 403.56 39.36 402.227 39.36C399.454 39.36 397.16 39.9733 395.347 41.2C393.587 42.3733 392.707 43.9467 392.707 45.92C392.707 46.9867 393 48 393.587 48.96C394.174 49.92 395.027 50.6933 396.147 51.28C397.267 51.8667 398.6 52.16 400.147 52.16C401.747 52.16 403.32 51.8667 404.867 51.28C406.414 50.64 407.667 49.8667 408.627 48.96Z" fill="#0022D5"/>
<path d="M431.284 0.799999H442.004V45.76C442.004 47.68 442.324 48.9867 442.964 49.68C443.604 50.32 444.484 50.64 445.604 50.64C446.458 50.64 447.338 50.5333 448.244 50.32C449.151 50.1067 449.951 49.84 450.644 49.52L452.084 57.68C450.644 58.3733 448.964 58.9067 447.044 59.28C445.124 59.6533 443.391 59.84 441.844 59.84C438.484 59.84 435.871 58.96 434.004 57.2C432.191 55.3867 431.284 52.8267 431.284 49.52V0.799999Z" fill="#0022D5"/>
<path d="M456.675 0.799999H467.395V45.76C467.395 47.68 467.715 48.9867 468.355 49.68C468.995 50.32 469.875 50.64 470.995 50.64C471.848 50.64 472.728 50.5333 473.635 50.32C474.542 50.1067 475.342 49.84 476.035 49.52L477.475 57.68C476.035 58.3733 474.355 58.9067 472.435 59.28C470.515 59.6533 468.782 59.84 467.235 59.84C463.875 59.84 461.262 58.96 459.395 57.2C457.582 55.3867 456.675 52.8267 456.675 49.52V0.799999Z" fill="#0022D5"/>
<path d="M564.297 59.2H553.577V35.68C553.577 32.3733 552.99 29.9467 551.817 28.4C550.697 26.8 549.124 26 547.097 26C545.017 26 543.017 26.8267 541.097 28.48C539.23 30.08 537.897 32.1867 537.097 34.8V59.2H526.377V35.68C526.377 32.32 525.79 29.8667 524.617 28.32C523.497 26.7733 521.924 26 519.897 26C517.817 26 515.817 26.8 513.897 28.4C512.03 30 510.697 32.1067 509.897 34.72V59.2H499.177V17.28H508.857V25.04C510.457 22.32 512.59 20.24 515.257 18.8C517.924 17.3067 520.99 16.56 524.457 16.56C527.924 16.56 530.617 17.4133 532.537 19.12C534.51 20.8267 535.764 22.9333 536.297 25.44C538.004 22.56 540.164 20.3733 542.777 18.88C545.444 17.3333 548.43 16.56 551.737 16.56C554.35 16.56 556.457 17.04 558.057 18C559.71 18.9067 560.99 20.16 561.897 21.76C562.804 23.3067 563.417 25.0667 563.737 27.04C564.11 29.0133 564.297 31.0133 564.297 33.04V59.2Z" fill="#0022D5"/>
<path d="M573.807 67.36C574.767 67.5733 575.647 67.76 576.447 67.92C577.3 68.08 578.02 68.16 578.607 68.16C579.62 68.16 580.447 67.8933 581.087 67.36C581.78 66.88 582.447 65.9733 583.087 64.64C583.727 63.36 584.394 61.5467 585.087 59.2L568.527 17.28H579.647L590.927 48.24L600.847 17.28H611.087L593.487 67.52C592.847 69.3867 591.86 71.0667 590.527 72.56C589.247 74.1067 587.62 75.3067 585.647 76.16C583.727 77.0667 581.567 77.52 579.167 77.52C578.314 77.52 577.46 77.44 576.607 77.28C575.754 77.1733 574.82 76.96 573.807 76.64V67.36Z" fill="#0022D5"/>
<path d="M631.336 60C627.762 60 624.349 59.4133 621.096 58.24C617.842 57.0667 615.042 55.3333 612.696 53.04L616.536 46.08C619.042 48.1067 621.496 49.6 623.896 50.56C626.349 51.52 628.696 52 630.936 52C633.016 52 634.669 51.6267 635.896 50.88C637.176 50.1333 637.816 49.0133 637.816 47.52C637.816 46.5067 637.469 45.7333 636.776 45.2C636.082 44.6133 635.069 44.1067 633.736 43.68C632.456 43.2533 630.882 42.7733 629.016 42.24C625.922 41.2267 623.336 40.24 621.256 39.28C619.176 38.32 617.602 37.12 616.536 35.68C615.522 34.1867 615.016 32.2933 615.016 30C615.016 27.2267 615.709 24.8533 617.096 22.88C618.536 20.8533 620.509 19.28 623.016 18.16C625.576 17.04 628.562 16.48 631.976 16.48C634.962 16.48 637.789 16.96 640.456 17.92C643.122 18.8267 645.549 20.32 647.736 22.4L643.416 29.2C641.282 27.5467 639.256 26.3467 637.336 25.6C635.416 24.8 633.469 24.4 631.496 24.4C630.376 24.4 629.309 24.5333 628.296 24.8C627.336 25.0667 626.536 25.52 625.896 26.16C625.309 26.7467 625.016 27.6 625.016 28.72C625.016 29.7333 625.282 30.5333 625.816 31.12C626.402 31.6533 627.256 32.1333 628.376 32.56C629.549 32.9867 630.962 33.4667 632.616 34C635.976 34.96 638.802 35.9467 641.096 36.96C643.442 37.9733 645.202 39.2267 646.376 40.72C647.549 42.16 648.136 44.16 648.136 46.72C648.136 50.88 646.616 54.1333 643.576 56.48C640.536 58.8267 636.456 60 631.336 60Z" fill="#0022D5"/>
<path d="M674.867 60C671.507 60 668.467 59.44 665.747 58.32C663.027 57.1467 660.707 55.5733 658.787 53.6C656.867 51.5733 655.374 49.28 654.307 46.72C653.294 44.1067 652.787 41.36 652.787 38.48C652.787 34.48 653.667 30.8267 655.427 27.52C657.24 24.2133 659.8 21.5733 663.107 19.6C666.467 17.5733 670.414 16.56 674.947 16.56C679.534 16.56 683.454 17.5733 686.707 19.6C689.96 21.5733 692.44 24.2133 694.147 27.52C695.907 30.7733 696.787 34.2933 696.787 38.08C696.787 38.72 696.76 39.3867 696.707 40.08C696.654 40.72 696.6 41.2533 696.547 41.68H664.147C664.36 43.8133 664.974 45.68 665.987 47.28C667.054 48.88 668.387 50.1067 669.987 50.96C671.64 51.76 673.4 52.16 675.267 52.16C677.4 52.16 679.4 51.6533 681.267 50.64C683.187 49.5733 684.494 48.1867 685.187 46.48L694.387 49.04C693.374 51.1733 691.907 53.0667 689.987 54.72C688.12 56.3733 685.907 57.68 683.347 58.64C680.787 59.5467 677.96 60 674.867 60ZM663.907 34.88H685.827C685.614 32.7467 685 30.9067 683.987 29.36C683.027 27.76 681.747 26.5333 680.147 25.68C678.547 24.7733 676.76 24.32 674.787 24.32C672.867 24.32 671.107 24.7733 669.507 25.68C667.96 26.5333 666.68 27.76 665.667 29.36C664.707 30.9067 664.12 32.7467 663.907 34.88Z" fill="#0022D5"/>
<path d="M703.237 0.799999H713.958V45.76C713.958 47.68 714.277 48.9867 714.917 49.68C715.557 50.32 716.437 50.64 717.557 50.64C718.411 50.64 719.291 50.5333 720.198 50.32C721.104 50.1067 721.904 49.84 722.597 49.52L724.037 57.68C722.597 58.3733 720.917 58.9067 718.997 59.28C717.077 59.6533 715.344 59.84 713.797 59.84C710.437 59.84 707.824 58.96 705.958 57.2C704.144 55.3867 703.237 52.8267 703.237 49.52V0.799999Z" fill="#0022D5"/>
<path d="M730.956 59.2V27.68H725.436V19.52H730.956V16.96C730.956 13.4933 731.516 10.5067 732.636 8C733.809 5.44 735.436 3.46666 737.516 2.08C739.649 0.693332 742.129 0 744.956 0C746.662 0 748.369 0.213332 750.076 0.639997C751.836 1.06666 753.569 1.68 755.276 2.48L753.116 10.56C752.316 10.1333 751.382 9.78666 750.316 9.52C749.249 9.2 748.236 9.04 747.276 9.04C745.462 9.04 744.076 9.68 743.116 10.96C742.156 12.24 741.676 14.1067 741.676 16.56V19.52H751.916V27.68H741.676V59.2H730.956Z" fill="#0022D5"/>
<path d="M64.4 140C60.9867 140 57.92 139.44 55.2 138.32C52.48 137.147 50.16 135.547 48.24 133.52C46.32 131.44 44.8267 129.093 43.76 126.48C42.7467 123.867 42.24 121.12 42.24 118.24C42.24 114.293 43.12 110.693 44.88 107.44C46.6933 104.133 49.2533 101.493 52.56 99.52C55.8667 97.5467 59.7867 96.56 64.32 96.56C68.8533 96.56 72.7467 97.5467 76 99.52C79.2533 101.493 81.68 104.08 83.28 107.28L72.8 110.48C71.8933 108.933 70.6933 107.76 69.2 106.96C67.7067 106.107 66.0533 105.68 64.24 105.68C62.2133 105.68 60.3467 106.213 58.64 107.28C56.9867 108.293 55.68 109.76 54.72 111.68C53.76 113.547 53.28 115.733 53.28 118.24C53.28 120.693 53.76 122.88 54.72 124.8C55.7333 126.667 57.0667 128.16 58.72 129.28C60.3733 130.347 62.2133 130.88 64.24 130.88C65.52 130.88 66.72 130.667 67.84 130.24C69.0133 129.813 70.0533 129.227 70.96 128.48C71.8667 127.733 72.5333 126.88 72.96 125.92L83.44 129.12C82.48 131.2 81.0667 133.067 79.2 134.72C77.3867 136.373 75.2267 137.68 72.72 138.64C70.2667 139.547 67.4933 140 64.4 140Z" fill="#0022D5"/>
<path d="M109.006 140C105.592 140 102.526 139.44 99.8056 138.32C97.0856 137.147 94.7656 135.547 92.8456 133.52C90.979 131.493 89.539 129.173 88.5256 126.56C87.5123 123.947 87.0056 121.2 87.0056 118.32C87.0056 115.387 87.5123 112.613 88.5256 110C89.539 107.387 90.979 105.067 92.8456 103.04C94.7656 101.013 97.0856 99.44 99.8056 98.32C102.526 97.1467 105.592 96.56 109.006 96.56C112.419 96.56 115.459 97.1467 118.126 98.32C120.846 99.44 123.166 101.013 125.086 103.04C127.006 105.067 128.446 107.387 129.406 110C130.419 112.613 130.926 115.387 130.926 118.32C130.926 121.2 130.419 123.947 129.406 126.56C128.446 129.173 127.006 131.493 125.086 133.52C123.219 135.547 120.926 137.147 118.206 138.32C115.486 139.44 112.419 140 109.006 140ZM98.0456 118.32C98.0456 120.773 98.5256 122.96 99.4856 124.88C100.446 126.747 101.752 128.213 103.406 129.28C105.059 130.347 106.926 130.88 109.006 130.88C111.032 130.88 112.872 130.347 114.526 129.28C116.179 128.16 117.486 126.667 118.446 124.8C119.459 122.88 119.966 120.693 119.966 118.24C119.966 115.84 119.459 113.68 118.446 111.76C117.486 109.84 116.179 108.347 114.526 107.28C112.872 106.213 111.032 105.68 109.006 105.68C106.926 105.68 105.059 106.24 103.406 107.36C101.752 108.427 100.446 109.92 99.4856 111.84C98.5256 113.707 98.0456 115.867 98.0456 118.32Z" fill="#0022D5"/>
<path d="M177.121 139.2H166.401V115.68C166.401 112.32 165.815 109.867 164.641 108.32C163.468 106.773 161.841 106 159.761 106C158.321 106 156.855 106.373 155.361 107.12C153.921 107.867 152.615 108.907 151.441 110.24C150.268 111.52 149.415 113.013 148.881 114.72V139.2H138.161V97.28H147.841V105.04C148.908 103.227 150.268 101.707 151.921 100.48C153.575 99.2 155.468 98.24 157.601 97.6C159.788 96.9067 162.081 96.56 164.481 96.56C167.095 96.56 169.228 97.04 170.881 98C172.588 98.9067 173.868 100.16 174.721 101.76C175.628 103.307 176.241 105.067 176.561 107.04C176.935 109.013 177.121 111.013 177.121 113.04V139.2Z" fill="#0022D5"/>
<path d="M225.402 139.2H214.682V115.68C214.682 112.32 214.096 109.867 212.923 108.32C211.749 106.773 210.122 106 208.042 106C206.602 106 205.136 106.373 203.643 107.12C202.203 107.867 200.896 108.907 199.723 110.24C198.549 111.52 197.696 113.013 197.163 114.72V139.2H186.443V97.28H196.122V105.04C197.189 103.227 198.549 101.707 200.202 100.48C201.856 99.2 203.749 98.24 205.883 97.6C208.069 96.9067 210.362 96.56 212.762 96.56C215.376 96.56 217.509 97.04 219.163 98C220.869 98.9067 222.149 100.16 223.003 101.76C223.909 103.307 224.522 105.067 224.842 107.04C225.216 109.013 225.402 111.013 225.402 113.04V139.2Z" fill="#0022D5"/>
<path d="M254.164 140C250.804 140 247.764 139.44 245.044 138.32C242.324 137.147 240.004 135.573 238.084 133.6C236.164 131.573 234.67 129.28 233.604 126.72C232.59 124.107 232.084 121.36 232.084 118.48C232.084 114.48 232.964 110.827 234.724 107.52C236.537 104.213 239.097 101.573 242.404 99.6C245.764 97.5733 249.71 96.56 254.244 96.56C258.83 96.56 262.75 97.5733 266.004 99.6C269.257 101.573 271.737 104.213 273.444 107.52C275.204 110.773 276.084 114.293 276.084 118.08C276.084 118.72 276.057 119.387 276.004 120.08C275.95 120.72 275.897 121.253 275.844 121.68H243.444C243.657 123.813 244.27 125.68 245.284 127.28C246.35 128.88 247.684 130.107 249.284 130.96C250.937 131.76 252.697 132.16 254.564 132.16C256.697 132.16 258.697 131.653 260.564 130.64C262.484 129.573 263.79 128.187 264.484 126.48L273.684 129.04C272.67 131.173 271.204 133.067 269.284 134.72C267.417 136.373 265.204 137.68 262.644 138.64C260.084 139.547 257.257 140 254.164 140ZM243.204 114.88H265.124C264.91 112.747 264.297 110.907 263.284 109.36C262.324 107.76 261.044 106.533 259.444 105.68C257.844 104.773 256.057 104.32 254.084 104.32C252.164 104.32 250.404 104.773 248.804 105.68C247.257 106.533 245.977 107.76 244.964 109.36C244.004 110.907 243.417 112.747 243.204 114.88Z" fill="#0022D5"/>
<path d="M302.134 140C298.721 140 295.654 139.44 292.934 138.32C290.214 137.147 287.894 135.547 285.974 133.52C284.054 131.44 282.561 129.093 281.494 126.48C280.481 123.867 279.974 121.12 279.974 118.24C279.974 114.293 280.854 110.693 282.614 107.44C284.428 104.133 286.988 101.493 290.294 99.52C293.601 97.5467 297.521 96.56 302.054 96.56C306.588 96.56 310.481 97.5467 313.734 99.52C316.988 101.493 319.414 104.08 321.014 107.28L310.534 110.48C309.628 108.933 308.428 107.76 306.934 106.96C305.441 106.107 303.788 105.68 301.974 105.68C299.948 105.68 298.081 106.213 296.374 107.28C294.721 108.293 293.414 109.76 292.454 111.68C291.494 113.547 291.014 115.733 291.014 118.24C291.014 120.693 291.494 122.88 292.454 124.8C293.468 126.667 294.801 128.16 296.454 129.28C298.108 130.347 299.948 130.88 301.974 130.88C303.254 130.88 304.454 130.667 305.574 130.24C306.748 129.813 307.788 129.227 308.694 128.48C309.601 127.733 310.268 126.88 310.694 125.92L321.174 129.12C320.214 131.2 318.801 133.067 316.934 134.72C315.121 136.373 312.961 137.68 310.454 138.64C308.001 139.547 305.228 140 302.134 140Z" fill="#0022D5"/>
<path d="M352.891 137.04C351.984 137.413 350.891 137.84 349.611 138.32C348.331 138.8 346.944 139.173 345.451 139.44C344.011 139.76 342.544 139.92 341.051 139.92C339.077 139.92 337.264 139.573 335.611 138.88C333.957 138.187 332.624 137.093 331.611 135.6C330.651 134.053 330.171 132.053 330.171 129.6V105.52H324.651V97.28H330.171V83.68H340.891V97.28H349.691V105.52H340.891V126C340.944 127.44 341.344 128.48 342.091 129.12C342.837 129.76 343.771 130.08 344.891 130.08C346.011 130.08 347.104 129.893 348.171 129.52C349.237 129.147 350.091 128.827 350.731 128.56L352.891 137.04Z" fill="#0022D5"/>
<path d="M358.474 139.2V97.28H369.194V139.2H358.474ZM358.474 91.44V80.8H369.194V91.44H358.474Z" fill="#0022D5"/>
<path d="M398.224 140C394.811 140 391.744 139.44 389.024 138.32C386.304 137.147 383.984 135.547 382.064 133.52C380.198 131.493 378.758 129.173 377.744 126.56C376.731 123.947 376.224 121.2 376.224 118.32C376.224 115.387 376.731 112.613 377.744 110C378.758 107.387 380.198 105.067 382.064 103.04C383.984 101.013 386.304 99.44 389.024 98.32C391.744 97.1467 394.811 96.56 398.224 96.56C401.638 96.56 404.678 97.1467 407.344 98.32C410.064 99.44 412.384 101.013 414.304 103.04C416.224 105.067 417.664 107.387 418.624 110C419.638 112.613 420.144 115.387 420.144 118.32C420.144 121.2 419.638 123.947 418.624 126.56C417.664 129.173 416.224 131.493 414.304 133.52C412.438 135.547 410.144 137.147 407.424 138.32C404.704 139.44 401.638 140 398.224 140ZM387.264 118.32C387.264 120.773 387.744 122.96 388.704 124.88C389.664 126.747 390.971 128.213 392.624 129.28C394.278 130.347 396.144 130.88 398.224 130.88C400.251 130.88 402.091 130.347 403.744 129.28C405.398 128.16 406.704 126.667 407.664 124.8C408.678 122.88 409.184 120.693 409.184 118.24C409.184 115.84 408.678 113.68 407.664 111.76C406.704 109.84 405.398 108.347 403.744 107.28C402.091 106.213 400.251 105.68 398.224 105.68C396.144 105.68 394.278 106.24 392.624 107.36C390.971 108.427 389.664 109.92 388.704 111.84C387.744 113.707 387.264 115.867 387.264 118.32Z" fill="#0022D5"/>
<path d="M466.34 139.2H455.62V115.68C455.62 112.32 455.033 109.867 453.86 108.32C452.687 106.773 451.06 106 448.98 106C447.54 106 446.073 106.373 444.58 107.12C443.14 107.867 441.833 108.907 440.66 110.24C439.487 111.52 438.633 113.013 438.1 114.72V139.2H427.38V97.28H437.06V105.04C438.127 103.227 439.487 101.707 441.14 100.48C442.793 99.2 444.687 98.24 446.82 97.6C449.007 96.9067 451.3 96.56 453.7 96.56C456.313 96.56 458.447 97.04 460.1 98C461.807 98.9067 463.087 100.16 463.94 101.76C464.847 103.307 465.46 105.067 465.78 107.04C466.153 109.013 466.34 111.013 466.34 113.04V139.2Z" fill="#0022D5"/>
<path d="M491.101 140C487.528 140 484.115 139.413 480.861 138.24C477.608 137.067 474.808 135.333 472.461 133.04L476.301 126.08C478.808 128.107 481.261 129.6 483.661 130.56C486.115 131.52 488.461 132 490.701 132C492.781 132 494.435 131.627 495.661 130.88C496.941 130.133 497.581 129.013 497.581 127.52C497.581 126.507 497.235 125.733 496.541 125.2C495.848 124.613 494.835 124.107 493.501 123.68C492.221 123.253 490.648 122.773 488.781 122.24C485.688 121.227 483.101 120.24 481.021 119.28C478.941 118.32 477.368 117.12 476.301 115.68C475.288 114.187 474.781 112.293 474.781 110C474.781 107.227 475.475 104.853 476.861 102.88C478.301 100.853 480.275 99.28 482.781 98.16C485.341 97.04 488.328 96.48 491.741 96.48C494.728 96.48 497.555 96.96 500.221 97.92C502.888 98.8267 505.315 100.32 507.501 102.4L503.181 109.2C501.048 107.547 499.021 106.347 497.101 105.6C495.181 104.8 493.235 104.4 491.261 104.4C490.141 104.4 489.075 104.533 488.061 104.8C487.101 105.067 486.301 105.52 485.661 106.16C485.075 106.747 484.781 107.6 484.781 108.72C484.781 109.733 485.048 110.533 485.581 111.12C486.168 111.653 487.021 112.133 488.141 112.56C489.315 112.987 490.728 113.467 492.381 114C495.741 114.96 498.568 115.947 500.861 116.96C503.208 117.973 504.968 119.227 506.141 120.72C507.315 122.16 507.901 124.16 507.901 126.72C507.901 130.88 506.381 134.133 503.341 136.48C500.301 138.827 496.221 140 491.101 140Z" fill="#0022D5"/>
<path d="M514.953 122.08V112.4H539.193V122.08H514.953Z" fill="#0022D5"/>
<path d="M613.75 139.2H603.03V115.68C603.03 112.373 602.443 109.947 601.27 108.4C600.15 106.8 598.577 106 596.55 106C594.47 106 592.47 106.827 590.55 108.48C588.683 110.08 587.35 112.187 586.55 114.8V139.2H575.83V115.68C575.83 112.32 575.243 109.867 574.07 108.32C572.95 106.773 571.377 106 569.35 106C567.27 106 565.27 106.8 563.35 108.4C561.483 110 560.15 112.107 559.35 114.72V139.2H548.63V97.28H558.31V105.04C559.91 102.32 562.043 100.24 564.71 98.8C567.377 97.3067 570.443 96.56 573.91 96.56C577.377 96.56 580.07 97.4133 581.99 99.12C583.963 100.827 585.217 102.933 585.75 105.44C587.457 102.56 589.617 100.373 592.23 98.88C594.897 97.3333 597.883 96.56 601.19 96.56C603.803 96.56 605.91 97.04 607.51 98C609.163 98.9067 610.443 100.16 611.35 101.76C612.257 103.307 612.87 105.067 613.19 107.04C613.563 109.013 613.75 111.013 613.75 113.04V139.2Z" fill="#0022D5"/>
<path d="M620.203 126.8C620.203 124.08 620.95 121.707 622.443 119.68C623.99 117.6 626.123 116 628.843 114.88C631.563 113.76 634.683 113.2 638.203 113.2C639.963 113.2 641.75 113.333 643.563 113.6C645.376 113.867 646.95 114.293 648.283 114.88V112.64C648.283 109.973 647.483 107.92 645.883 106.48C644.336 105.04 642.016 104.32 638.923 104.32C636.63 104.32 634.443 104.72 632.363 105.52C630.283 106.32 628.096 107.493 625.803 109.04L622.363 102C625.136 100.187 627.963 98.8267 630.843 97.92C633.776 97.0133 636.843 96.56 640.043 96.56C646.016 96.56 650.656 98.0533 653.963 101.04C657.323 104.027 659.003 108.293 659.003 113.84V127.2C659.003 128.32 659.19 129.12 659.563 129.6C659.99 130.08 660.656 130.373 661.563 130.48V139.2C660.603 139.36 659.723 139.493 658.923 139.6C658.176 139.707 657.536 139.76 657.003 139.76C654.87 139.76 653.243 139.28 652.123 138.32C651.056 137.36 650.39 136.187 650.123 134.8L649.883 132.64C648.07 134.987 645.803 136.8 643.083 138.08C640.363 139.36 637.59 140 634.763 140C631.99 140 629.483 139.44 627.243 138.32C625.056 137.147 623.323 135.573 622.043 133.6C620.816 131.573 620.203 129.307 620.203 126.8ZM646.283 128.96C646.87 128.32 647.35 127.68 647.723 127.04C648.096 126.4 648.283 125.813 648.283 125.28V121.04C647.003 120.507 645.616 120.107 644.123 119.84C642.63 119.52 641.216 119.36 639.883 119.36C637.11 119.36 634.816 119.973 633.003 121.2C631.243 122.373 630.363 123.947 630.363 125.92C630.363 126.987 630.656 128 631.243 128.96C631.83 129.92 632.683 130.693 633.803 131.28C634.923 131.867 636.256 132.16 637.803 132.16C639.403 132.16 640.976 131.867 642.523 131.28C644.07 130.64 645.323 129.867 646.283 128.96Z" fill="#0022D5"/>
<path d="M697.661 139.2L685.421 121.12L679.741 126.72V139.2H669.021V80.8H679.741V116.16L696.621 97.36H707.981L692.381 115.12L709.101 139.2H697.661Z" fill="#0022D5"/>
<path d="M730.883 140C727.523 140 724.483 139.44 721.763 138.32C719.043 137.147 716.722 135.573 714.802 133.6C712.882 131.573 711.389 129.28 710.323 126.72C709.309 124.107 708.802 121.36 708.802 118.48C708.802 114.48 709.683 110.827 711.443 107.52C713.256 104.213 715.816 101.573 719.122 99.6C722.482 97.5733 726.429 96.56 730.963 96.56C735.549 96.56 739.469 97.5733 742.722 99.6C745.976 101.573 748.456 104.213 750.162 107.52C751.922 110.773 752.802 114.293 752.802 118.08C752.802 118.72 752.776 119.387 752.722 120.08C752.669 120.72 752.616 121.253 752.562 121.68H720.162C720.376 123.813 720.989 125.68 722.003 127.28C723.069 128.88 724.403 130.107 726.003 130.96C727.656 131.76 729.416 132.16 731.282 132.16C733.416 132.16 735.416 131.653 737.282 130.64C739.202 129.573 740.509 128.187 741.203 126.48L750.403 129.04C749.389 131.173 747.923 133.067 746.003 134.72C744.136 136.373 741.922 137.68 739.362 138.64C736.802 139.547 733.976 140 730.883 140ZM719.922 114.88H741.843C741.629 112.747 741.016 110.907 740.003 109.36C739.043 107.76 737.762 106.533 736.162 105.68C734.562 104.773 732.776 104.32 730.802 104.32C728.882 104.32 727.123 104.773 725.523 105.68C723.976 106.533 722.696 107.76 721.682 109.36C720.722 110.907 720.136 112.747 719.922 114.88Z" fill="#0022D5"/>
<path d="M784.293 106.56C781.04 106.56 778.133 107.2 775.573 108.48C773.013 109.707 771.173 111.493 770.053 113.84V139.2H759.333V97.28H769.173V106.24C770.666 103.36 772.56 101.093 774.853 99.44C777.146 97.7867 779.573 96.88 782.133 96.72C782.72 96.72 783.173 96.72 783.493 96.72C783.813 96.72 784.08 96.7467 784.293 96.8V106.56Z" fill="#0022D5"/>
<path d="M783.262 148.4L785.422 138.88H782.062V127.68H791.342V138.88L788.062 148.4H783.262Z" fill="#0022D5"/>
<path d="M42.32 198.24C42.32 194.187 43.12 190.533 44.72 187.28C46.32 183.973 48.5333 181.36 51.36 179.44C54.1867 177.52 57.4133 176.56 61.04 176.56C64.1333 176.56 66.9067 177.333 69.36 178.88C71.8667 180.373 73.8133 182.293 75.2 184.64V160.8H85.92V207.2C85.92 208.32 86.1067 209.12 86.48 209.6C86.8533 210.08 87.4933 210.373 88.4 210.48V219.2C86.5333 219.573 85.0133 219.76 83.84 219.76C81.92 219.76 80.32 219.28 79.04 218.32C77.8133 217.36 77.12 216.107 76.96 214.56L76.8 211.92C75.2533 214.533 73.1467 216.533 70.48 217.92C67.8667 219.307 65.12 220 62.24 220C59.36 220 56.6933 219.44 54.24 218.32C51.84 217.2 49.7333 215.653 47.92 213.68C46.16 211.707 44.7733 209.413 43.76 206.8C42.8 204.133 42.32 201.28 42.32 198.24ZM75.2 203.84V193.84C74.6667 192.293 73.8133 190.907 72.64 189.68C71.4667 188.453 70.16 187.493 68.72 186.8C67.28 186.053 65.84 185.68 64.4 185.68C62.7467 185.68 61.2533 186.027 59.92 186.72C58.5867 187.413 57.4133 188.347 56.4 189.52C55.44 190.693 54.6933 192.053 54.16 193.6C53.68 195.147 53.44 196.773 53.44 198.48C53.44 200.187 53.7067 201.813 54.24 203.36C54.8267 204.853 55.6533 206.16 56.72 207.28C57.7867 208.4 59.0133 209.28 60.4 209.92C61.84 210.56 63.3867 210.88 65.04 210.88C66.0533 210.88 67.0667 210.72 68.08 210.4C69.1467 210.027 70.1333 209.547 71.04 208.96C72 208.32 72.8267 207.573 73.52 206.72C74.2667 205.813 74.8267 204.853 75.2 203.84Z" fill="#0022D5"/>
<path d="M115.802 220C112.389 220 109.323 219.44 106.603 218.32C103.883 217.147 101.563 215.547 99.6425 213.52C97.7758 211.493 96.3358 209.173 95.3225 206.56C94.3092 203.947 93.8025 201.2 93.8025 198.32C93.8025 195.387 94.3092 192.613 95.3225 190C96.3358 187.387 97.7758 185.067 99.6425 183.04C101.563 181.013 103.883 179.44 106.603 178.32C109.323 177.147 112.389 176.56 115.802 176.56C119.216 176.56 122.256 177.147 124.923 178.32C127.643 179.44 129.963 181.013 131.883 183.04C133.803 185.067 135.242 187.387 136.202 190C137.216 192.613 137.723 195.387 137.723 198.32C137.723 201.2 137.216 203.947 136.202 206.56C135.242 209.173 133.803 211.493 131.883 213.52C130.016 215.547 127.723 217.147 125.003 218.32C122.283 219.44 119.216 220 115.802 220ZM104.842 198.32C104.842 200.773 105.323 202.96 106.283 204.88C107.243 206.747 108.549 208.213 110.202 209.28C111.856 210.347 113.722 210.88 115.802 210.88C117.829 210.88 119.669 210.347 121.323 209.28C122.976 208.16 124.282 206.667 125.243 204.8C126.256 202.88 126.763 200.693 126.763 198.24C126.763 195.84 126.256 193.68 125.243 191.76C124.282 189.84 122.976 188.347 121.323 187.28C119.669 186.213 117.829 185.68 115.802 185.68C113.722 185.68 111.856 186.24 110.202 187.36C108.549 188.427 107.243 189.92 106.283 191.84C105.323 193.707 104.842 195.867 104.842 198.32Z" fill="#0022D5"/>
<path d="M162.869 227.36C163.829 227.573 164.709 227.76 165.509 227.92C166.363 228.08 167.083 228.16 167.669 228.16C168.683 228.16 169.509 227.893 170.149 227.36C170.843 226.88 171.509 225.973 172.149 224.64C172.789 223.36 173.456 221.547 174.149 219.2L157.589 177.28H168.709L179.989 208.24L189.909 177.28H200.149L182.549 227.52C181.909 229.387 180.923 231.067 179.589 232.56C178.309 234.107 176.683 235.307 174.709 236.16C172.789 237.067 170.629 237.52 168.229 237.52C167.376 237.52 166.523 237.44 165.669 237.28C164.816 237.173 163.883 236.96 162.869 236.64V227.36Z" fill="#0022D5"/>
<path d="M223.928 220C220.514 220 217.447 219.44 214.727 218.32C212.007 217.147 209.688 215.547 207.768 213.52C205.901 211.493 204.461 209.173 203.447 206.56C202.434 203.947 201.928 201.2 201.928 198.32C201.928 195.387 202.434 192.613 203.447 190C204.461 187.387 205.901 185.067 207.768 183.04C209.688 181.013 212.007 179.44 214.727 178.32C217.447 177.147 220.514 176.56 223.928 176.56C227.341 176.56 230.381 177.147 233.048 178.32C235.768 179.44 238.088 181.013 240.008 183.04C241.928 185.067 243.367 187.387 244.327 190C245.341 192.613 245.848 195.387 245.848 198.32C245.848 201.2 245.341 203.947 244.327 206.56C243.367 209.173 241.928 211.493 240.008 213.52C238.141 215.547 235.848 217.147 233.128 218.32C230.408 219.44 227.341 220 223.928 220ZM212.967 198.32C212.967 200.773 213.448 202.96 214.408 204.88C215.368 206.747 216.674 208.213 218.327 209.28C219.981 210.347 221.848 210.88 223.928 210.88C225.954 210.88 227.794 210.347 229.447 209.28C231.101 208.16 232.408 206.667 233.368 204.8C234.381 202.88 234.887 200.693 234.887 198.24C234.887 195.84 234.381 193.68 233.368 191.76C232.408 189.84 231.101 188.347 229.447 187.28C227.794 186.213 225.954 185.68 223.928 185.68C221.848 185.68 219.981 186.24 218.327 187.36C216.674 188.427 215.368 189.92 214.408 191.84C213.448 193.707 212.967 195.867 212.967 198.32Z" fill="#0022D5"/>
<path d="M252.683 203.52V177.28H263.403V201.2C263.403 204.4 263.99 206.827 265.163 208.48C266.336 210.08 268.07 210.88 270.363 210.88C271.75 210.88 273.11 210.613 274.443 210.08C275.83 209.493 277.083 208.64 278.203 207.52C279.376 206.4 280.363 204.987 281.163 203.28V177.28H291.883V207.2C291.883 208.32 292.07 209.12 292.443 209.6C292.87 210.08 293.536 210.373 294.443 210.48V219.2C293.376 219.36 292.47 219.467 291.723 219.52C291.03 219.627 290.39 219.68 289.803 219.68C287.883 219.68 286.31 219.253 285.083 218.4C283.91 217.493 283.216 216.267 283.003 214.72L282.763 211.36C280.896 214.187 278.496 216.347 275.563 217.84C272.63 219.28 269.403 220 265.883 220C261.563 220 258.283 218.613 256.043 215.84C253.803 213.013 252.683 208.907 252.683 203.52Z" fill="#0022D5"/>
<path d="M371.489 177.28H381.649L364.129 219.2H355.169L348.129 201.2L341.249 219.2H332.209L314.769 177.28H324.849L337.329 208.96L342.209 195.28L334.929 177.36H343.809L348.129 190.16L352.529 177.36H361.409L354.129 195.28L359.089 208.96L371.489 177.28Z" fill="#0022D5"/>
<path d="M382.703 206.8C382.703 204.08 383.45 201.707 384.943 199.68C386.49 197.6 388.623 196 391.343 194.88C394.063 193.76 397.183 193.2 400.703 193.2C402.463 193.2 404.25 193.333 406.063 193.6C407.876 193.867 409.45 194.293 410.783 194.88V192.64C410.783 189.973 409.983 187.92 408.383 186.48C406.836 185.04 404.516 184.32 401.423 184.32C399.13 184.32 396.943 184.72 394.863 185.52C392.783 186.32 390.596 187.493 388.303 189.04L384.863 182C387.636 180.187 390.463 178.827 393.343 177.92C396.276 177.013 399.343 176.56 402.543 176.56C408.516 176.56 413.156 178.053 416.463 181.04C419.823 184.027 421.503 188.293 421.503 193.84V207.2C421.503 208.32 421.69 209.12 422.063 209.6C422.49 210.08 423.156 210.373 424.063 210.48V219.2C423.103 219.36 422.223 219.493 421.423 219.6C420.676 219.707 420.036 219.76 419.503 219.76C417.37 219.76 415.743 219.28 414.623 218.32C413.556 217.36 412.89 216.187 412.623 214.8L412.383 212.64C410.57 214.987 408.303 216.8 405.583 218.08C402.863 219.36 400.09 220 397.263 220C394.49 220 391.983 219.44 389.743 218.32C387.556 217.147 385.823 215.573 384.543 213.6C383.316 211.573 382.703 209.307 382.703 206.8ZM408.783 208.96C409.37 208.32 409.85 207.68 410.223 207.04C410.596 206.4 410.783 205.813 410.783 205.28V201.04C409.503 200.507 408.116 200.107 406.623 199.84C405.13 199.52 403.716 199.36 402.383 199.36C399.61 199.36 397.316 199.973 395.503 201.2C393.743 202.373 392.863 203.947 392.863 205.92C392.863 206.987 393.156 208 393.743 208.96C394.33 209.92 395.183 210.693 396.303 211.28C397.423 211.867 398.756 212.16 400.303 212.16C401.903 212.16 403.476 211.867 405.023 211.28C406.57 210.64 407.823 209.867 408.783 208.96Z" fill="#0022D5"/>
<path d="M470.481 219.2H459.761V195.68C459.761 192.32 459.174 189.867 458.001 188.32C456.827 186.773 455.201 186 453.121 186C451.681 186 450.214 186.373 448.721 187.12C447.281 187.867 445.974 188.907 444.801 190.24C443.627 191.52 442.774 193.013 442.241 194.72V219.2H431.521V177.28H441.201V185.04C442.267 183.227 443.627 181.707 445.281 180.48C446.934 179.2 448.827 178.24 450.961 177.6C453.147 176.907 455.441 176.56 457.841 176.56C460.454 176.56 462.587 177.04 464.241 178C465.947 178.907 467.227 180.16 468.081 181.76C468.987 183.307 469.601 185.067 469.921 187.04C470.294 189.013 470.481 191.013 470.481 193.04V219.2Z" fill="#0022D5"/>
<path d="M504.688 217.04C503.781 217.413 502.688 217.84 501.408 218.32C500.128 218.8 498.741 219.173 497.247 219.44C495.807 219.76 494.341 219.92 492.848 219.92C490.874 219.92 489.061 219.573 487.408 218.88C485.754 218.187 484.421 217.093 483.408 215.6C482.448 214.053 481.967 212.053 481.967 209.6V185.52H476.448V177.28H481.967V163.68H492.688V177.28H501.487V185.52H492.688V206C492.741 207.44 493.141 208.48 493.888 209.12C494.634 209.76 495.568 210.08 496.688 210.08C497.807 210.08 498.901 209.893 499.967 209.52C501.034 209.147 501.887 208.827 502.527 208.56L504.688 217.04Z" fill="#0022D5"/>
<path d="M554.609 217.04C553.703 217.413 552.609 217.84 551.329 218.32C550.049 218.8 548.663 219.173 547.169 219.44C545.729 219.76 544.263 219.92 542.769 219.92C540.796 219.92 538.983 219.573 537.329 218.88C535.676 218.187 534.343 217.093 533.329 215.6C532.369 214.053 531.889 212.053 531.889 209.6V185.52H526.369V177.28H531.889V163.68H542.609V177.28H551.409V185.52H542.609V206C542.663 207.44 543.063 208.48 543.809 209.12C544.556 209.76 545.489 210.08 546.609 210.08C547.729 210.08 548.823 209.893 549.889 209.52C550.956 209.147 551.809 208.827 552.449 208.56L554.609 217.04Z" fill="#0022D5"/>
<path d="M579.084 220C575.67 220 572.604 219.44 569.884 218.32C567.164 217.147 564.844 215.547 562.924 213.52C561.057 211.493 559.617 209.173 558.604 206.56C557.59 203.947 557.084 201.2 557.084 198.32C557.084 195.387 557.59 192.613 558.604 190C559.617 187.387 561.057 185.067 562.924 183.04C564.844 181.013 567.164 179.44 569.884 178.32C572.604 177.147 575.67 176.56 579.084 176.56C582.497 176.56 585.537 177.147 588.204 178.32C590.924 179.44 593.244 181.013 595.164 183.04C597.084 185.067 598.524 187.387 599.484 190C600.497 192.613 601.004 195.387 601.004 198.32C601.004 201.2 600.497 203.947 599.484 206.56C598.524 209.173 597.084 211.493 595.164 213.52C593.297 215.547 591.004 217.147 588.284 218.32C585.564 219.44 582.497 220 579.084 220ZM568.124 198.32C568.124 200.773 568.604 202.96 569.564 204.88C570.524 206.747 571.83 208.213 573.484 209.28C575.137 210.347 577.004 210.88 579.084 210.88C581.11 210.88 582.95 210.347 584.604 209.28C586.257 208.16 587.564 206.667 588.524 204.8C589.537 202.88 590.044 200.693 590.044 198.24C590.044 195.84 589.537 193.68 588.524 191.76C587.564 189.84 586.257 188.347 584.604 187.28C582.95 186.213 581.11 185.68 579.084 185.68C577.004 185.68 575.137 186.24 573.484 187.36C571.83 188.427 570.524 189.92 569.564 191.84C568.604 193.707 568.124 195.867 568.124 198.32Z" fill="#0022D5"/>
<path d="M624.018 234.88C622.045 234.88 620.151 234.56 618.338 233.92C616.525 233.333 614.871 232.4 613.378 231.12L618.018 223.84C618.605 224.48 619.325 224.933 620.178 225.2C621.031 225.467 621.885 225.6 622.738 225.6C623.698 225.6 624.551 225.36 625.298 224.88C626.098 224.453 626.711 223.84 627.138 223.04C627.618 222.24 627.858 221.333 627.858 220.32V177.28H638.578V219.52C638.578 222.507 637.911 225.173 636.578 227.52C635.298 229.867 633.565 231.68 631.378 232.96C629.245 234.24 626.791 234.88 624.018 234.88ZM627.858 171.44V160.8H638.578V171.44H627.858Z" fill="#0022D5"/>
<path d="M667.677 220C664.264 220 661.197 219.44 658.477 218.32C655.757 217.147 653.438 215.547 651.518 213.52C649.651 211.493 648.211 209.173 647.198 206.56C646.184 203.947 645.677 201.2 645.677 198.32C645.677 195.387 646.184 192.613 647.198 190C648.211 187.387 649.651 185.067 651.518 183.04C653.438 181.013 655.757 179.44 658.477 178.32C661.197 177.147 664.264 176.56 667.677 176.56C671.091 176.56 674.131 177.147 676.797 178.32C679.517 179.44 681.838 181.013 683.758 183.04C685.678 185.067 687.118 187.387 688.078 190C689.091 192.613 689.597 195.387 689.597 198.32C689.597 201.2 689.091 203.947 688.078 206.56C687.118 209.173 685.678 211.493 683.758 213.52C681.891 215.547 679.598 217.147 676.878 218.32C674.158 219.44 671.091 220 667.677 220ZM656.718 198.32C656.718 200.773 657.197 202.96 658.157 204.88C659.117 206.747 660.424 208.213 662.078 209.28C663.731 210.347 665.597 210.88 667.677 210.88C669.704 210.88 671.544 210.347 673.198 209.28C674.851 208.16 676.157 206.667 677.117 204.8C678.131 202.88 678.638 200.693 678.638 198.24C678.638 195.84 678.131 193.68 677.117 191.76C676.157 189.84 674.851 188.347 673.198 187.28C671.544 186.213 669.704 185.68 667.677 185.68C665.597 185.68 663.731 186.24 662.078 187.36C660.424 188.427 659.117 189.92 658.157 191.84C657.197 193.707 656.718 195.867 656.718 198.32Z" fill="#0022D5"/>
<path d="M696.833 219.2V177.28H707.553V219.2H696.833ZM696.833 171.44V160.8H707.553V171.44H696.833Z" fill="#0022D5"/>
<path d="M756.184 219.2H745.464V195.68C745.464 192.32 744.877 189.867 743.704 188.32C742.53 186.773 740.904 186 738.824 186C737.384 186 735.917 186.373 734.424 187.12C732.984 187.867 731.677 188.907 730.504 190.24C729.33 191.52 728.477 193.013 727.944 194.72V219.2H717.224V177.28H726.904V185.04C727.97 183.227 729.33 181.707 730.984 180.48C732.637 179.2 734.53 178.24 736.664 177.6C738.85 176.907 741.144 176.56 743.544 176.56C746.157 176.56 748.29 177.04 749.944 178C751.65 178.907 752.93 180.16 753.784 181.76C754.69 183.307 755.304 185.067 755.624 187.04C755.997 189.013 756.184 191.013 756.184 193.04V219.2Z" fill="#0022D5"/>
<path d="M110 299.2H99.28V275.68C99.28 272.373 98.6933 269.947 97.52 268.4C96.4 266.8 94.8267 266 92.8 266C90.72 266 88.72 266.827 86.8 268.48C84.9333 270.08 83.6 272.187 82.8 274.8V299.2H72.08V275.68C72.08 272.32 71.4933 269.867 70.32 268.32C69.2 266.773 67.6267 266 65.6 266C63.52 266 61.52 266.8 59.6 268.4C57.7333 270 56.4 272.107 55.6 274.72V299.2H44.88V257.28H54.56V265.04C56.16 262.32 58.2933 260.24 60.96 258.8C63.6267 257.307 66.6933 256.56 70.16 256.56C73.6267 256.56 76.32 257.413 78.24 259.12C80.2133 260.827 81.4667 262.933 82 265.44C83.7067 262.56 85.8667 260.373 88.48 258.88C91.1467 257.333 94.1333 256.56 97.44 256.56C100.053 256.56 102.16 257.04 103.76 258C105.413 258.907 106.693 260.16 107.6 261.76C108.507 263.307 109.12 265.067 109.44 267.04C109.813 269.013 110 271.013 110 273.04V299.2Z" fill="#0022D5"/>
<path d="M119.51 307.36C120.47 307.573 121.35 307.76 122.15 307.92C123.003 308.08 123.723 308.16 124.31 308.16C125.323 308.16 126.15 307.893 126.79 307.36C127.483 306.88 128.15 305.973 128.79 304.64C129.43 303.36 130.097 301.547 130.79 299.2L114.23 257.28H125.35L136.63 288.24L146.55 257.28H156.79L139.19 307.52C138.55 309.387 137.563 311.067 136.23 312.56C134.95 314.107 133.323 315.307 131.35 316.16C129.43 317.067 127.27 317.52 124.87 317.52C124.017 317.52 123.163 317.44 122.31 317.28C121.457 317.173 120.523 316.96 119.51 316.64V307.36Z" fill="#0022D5"/>
<path d="M218.762 299.2H208.042V275.68C208.042 272.32 207.455 269.867 206.282 268.32C205.109 266.773 203.482 266 201.402 266C199.962 266 198.495 266.373 197.002 267.12C195.562 267.867 194.255 268.907 193.082 270.24C191.909 271.52 191.055 273.013 190.522 274.72V299.2H179.802V257.28H189.482V265.04C190.549 263.227 191.909 261.707 193.562 260.48C195.215 259.2 197.109 258.24 199.242 257.6C201.429 256.907 203.722 256.56 206.122 256.56C208.735 256.56 210.869 257.04 212.522 258C214.229 258.907 215.509 260.16 216.362 261.76C217.269 263.307 217.882 265.067 218.202 267.04C218.575 269.013 218.762 271.013 218.762 273.04V299.2Z" fill="#0022D5"/>
<path d="M247.523 300C244.163 300 241.123 299.44 238.403 298.32C235.683 297.147 233.363 295.573 231.443 293.6C229.523 291.573 228.03 289.28 226.963 286.72C225.95 284.107 225.443 281.36 225.443 278.48C225.443 274.48 226.323 270.827 228.083 267.52C229.896 264.213 232.456 261.573 235.763 259.6C239.123 257.573 243.07 256.56 247.603 256.56C252.19 256.56 256.11 257.573 259.363 259.6C262.616 261.573 265.096 264.213 266.803 267.52C268.563 270.773 269.443 274.293 269.443 278.08C269.443 278.72 269.416 279.387 269.363 280.08C269.31 280.72 269.256 281.253 269.203 281.68H236.803C237.016 283.813 237.63 285.68 238.643 287.28C239.71 288.88 241.043 290.107 242.643 290.96C244.296 291.76 246.056 292.16 247.923 292.16C250.056 292.16 252.056 291.653 253.923 290.64C255.843 289.573 257.15 288.187 257.843 286.48L267.043 289.04C266.03 291.173 264.563 293.067 262.643 294.72C260.776 296.373 258.563 297.68 256.003 298.64C253.443 299.547 250.616 300 247.523 300ZM236.563 274.88H258.483C258.27 272.747 257.656 270.907 256.643 269.36C255.683 267.76 254.403 266.533 252.803 265.68C251.203 264.773 249.416 264.32 247.443 264.32C245.523 264.32 243.763 264.773 242.163 265.68C240.616 266.533 239.336 267.76 238.323 269.36C237.363 270.907 236.776 272.747 236.563 274.88Z" fill="#0022D5"/>
<path d="M300.703 297.04C299.796 297.413 298.703 297.84 297.423 298.32C296.143 298.8 294.756 299.173 293.263 299.44C291.823 299.76 290.356 299.92 288.863 299.92C286.89 299.92 285.076 299.573 283.423 298.88C281.77 298.187 280.436 297.093 279.423 295.6C278.463 294.053 277.983 292.053 277.983 289.6V265.52H272.463V257.28H277.983V243.68H288.703V257.28H297.503V265.52H288.703V286C288.756 287.44 289.156 288.48 289.903 289.12C290.65 289.76 291.583 290.08 292.703 290.08C293.823 290.08 294.916 289.893 295.983 289.52C297.05 289.147 297.903 288.827 298.543 288.56L300.703 297.04Z" fill="#0022D5"/>
<path d="M358.13 257.28H368.29L350.77 299.2H341.81L334.77 281.2L327.89 299.2H318.85L301.41 257.28H311.49L323.97 288.96L328.85 275.28L321.57 257.36H330.45L334.77 270.16L339.17 257.36H348.05L340.77 275.28L345.73 288.96L358.13 257.28Z" fill="#0022D5"/>
<path d="M391.193 300C387.78 300 384.713 299.44 381.993 298.32C379.273 297.147 376.953 295.547 375.033 293.52C373.166 291.493 371.726 289.173 370.713 286.56C369.7 283.947 369.193 281.2 369.193 278.32C369.193 275.387 369.7 272.613 370.713 270C371.726 267.387 373.166 265.067 375.033 263.04C376.953 261.013 379.273 259.44 381.993 258.32C384.713 257.147 387.78 256.56 391.193 256.56C394.606 256.56 397.646 257.147 400.313 258.32C403.033 259.44 405.353 261.013 407.273 263.04C409.193 265.067 410.633 267.387 411.593 270C412.606 272.613 413.113 275.387 413.113 278.32C413.113 281.2 412.606 283.947 411.593 286.56C410.633 289.173 409.193 291.493 407.273 293.52C405.406 295.547 403.113 297.147 400.393 298.32C397.673 299.44 394.606 300 391.193 300ZM380.233 278.32C380.233 280.773 380.713 282.96 381.673 284.88C382.633 286.747 383.94 288.213 385.593 289.28C387.246 290.347 389.113 290.88 391.193 290.88C393.22 290.88 395.06 290.347 396.713 289.28C398.366 288.16 399.673 286.667 400.633 284.8C401.646 282.88 402.153 280.693 402.153 278.24C402.153 275.84 401.646 273.68 400.633 271.76C399.673 269.84 398.366 268.347 396.713 267.28C395.06 266.213 393.22 265.68 391.193 265.68C389.113 265.68 387.246 266.24 385.593 267.36C383.94 268.427 382.633 269.92 381.673 271.84C380.713 273.707 380.233 275.867 380.233 278.32Z" fill="#0022D5"/>
<path d="M445.309 266.56C442.055 266.56 439.149 267.2 436.589 268.48C434.029 269.707 432.189 271.493 431.069 273.84V299.2H420.349V257.28H430.189V266.24C431.682 263.36 433.575 261.093 435.869 259.44C438.162 257.787 440.589 256.88 443.149 256.72C443.735 256.72 444.189 256.72 444.509 256.72C444.829 256.72 445.095 256.747 445.309 256.8V266.56Z" fill="#0022D5"/>
<path d="M479.926 299.2L467.686 281.12L462.006 286.72V299.2H451.286V240.8H462.006V276.16L478.886 257.36H490.246L474.646 275.12L491.366 299.2H479.926Z" fill="#0022D5"/>
<path d="M500.776 280.56C500.776 278.853 500.936 277.253 501.256 275.76C501.629 274.213 502.296 272.8 503.256 271.52C504.216 270.24 505.576 269.093 507.336 268.08C508.082 267.6 509.042 267.04 510.216 266.4C511.442 265.76 512.616 265.04 513.736 264.24C514.856 263.387 515.789 262.4 516.536 261.28C517.336 260.107 517.736 258.773 517.736 257.28C517.736 255.787 517.362 254.533 516.616 253.52C515.922 252.507 514.989 251.733 513.816 251.2C512.696 250.667 511.469 250.4 510.136 250.4C508.589 250.4 507.202 250.747 505.976 251.44C504.749 252.08 503.709 252.88 502.856 253.84C502.002 254.8 501.282 255.787 500.696 256.8L493.736 252C494.696 249.813 496.002 247.947 497.656 246.4C499.362 244.853 501.309 243.68 503.496 242.88C505.736 242.08 508.056 241.68 510.456 241.68C512.482 241.68 514.482 242 516.456 242.64C518.429 243.227 520.216 244.16 521.816 245.44C523.416 246.72 524.696 248.347 525.656 250.32C526.616 252.293 527.096 254.667 527.096 257.44C527.096 259.147 526.882 260.667 526.456 262C526.082 263.333 525.522 264.533 524.776 265.6C524.082 266.613 523.202 267.547 522.136 268.4C521.069 269.253 519.922 270.08 518.696 270.88C517.309 271.733 515.896 272.56 514.456 273.36C513.069 274.16 511.896 275.12 510.936 276.24C510.029 277.307 509.576 278.747 509.576 280.56H500.776ZM500.936 299.2V288.16H509.816V299.2H500.936Z" fill="#0022D5"/>
</svg>
