<svg width="864" height="327" viewBox="0 0 864 327" fill="none" xmlns="http://www.w3.org/2000/svg">
<rect y="260" width="520" height="62" fill="#FF7A00" fill-opacity="0.5"/>
<rect y="21" width="747" height="62" fill="#FF7A00" fill-opacity="0.5"/>
<rect y="100" width="854" height="62" fill="#FF7A00" fill-opacity="0.5"/>
<rect y="180" width="786" height="62" fill="#FF7A00" fill-opacity="0.5"/>
<path d="M45.92 68V11.2H56.96V68H45.92ZM86.9094 9.6H97.6294V54.56C97.6294 56.48 97.9494 57.7867 98.5894 58.48C99.2294 59.12 100.109 59.44 101.229 59.44C102.083 59.44 102.963 59.3333 103.869 59.12C104.776 58.9067 105.576 58.64 106.269 58.32L107.709 66.48C106.269 67.1733 104.589 67.7067 102.669 68.08C100.749 68.4533 99.016 68.64 97.4694 68.64C94.1094 68.64 91.496 67.76 89.6294 66C87.816 64.1867 86.9094 61.6267 86.9094 58.32V9.6ZM112.38 68V26.08H123.1V68H112.38ZM112.38 20.24V9.6H123.1V20.24H112.38ZM161.411 68L149.171 49.92L143.491 55.52V68H132.771V9.6H143.491V44.96L160.371 26.16H171.731L156.131 43.92L172.851 68H161.411ZM194.633 68.8C191.273 68.8 188.233 68.24 185.513 67.12C182.793 65.9467 180.473 64.3733 178.553 62.4C176.633 60.3733 175.139 58.08 174.073 55.52C173.059 52.9067 172.553 50.16 172.553 47.28C172.553 43.28 173.433 39.6267 175.193 36.32C177.006 33.0133 179.566 30.3733 182.873 28.4C186.233 26.3733 190.179 25.36 194.713 25.36C199.299 25.36 203.219 26.3733 206.473 28.4C209.726 30.3733 212.206 33.0133 213.913 36.32C215.673 39.5733 216.553 43.0933 216.553 46.88C216.553 47.52 216.526 48.1867 216.473 48.88C216.419 49.52 216.366 50.0533 216.313 50.48H183.913C184.126 52.6133 184.739 54.48 185.753 56.08C186.819 57.68 188.153 58.9067 189.753 59.76C191.406 60.56 193.166 60.96 195.033 60.96C197.166 60.96 199.166 60.4533 201.033 59.44C202.953 58.3733 204.259 56.9867 204.953 55.28L214.153 57.84C213.139 59.9733 211.673 61.8667 209.753 63.52C207.886 65.1733 205.673 66.48 203.113 67.44C200.553 68.3467 197.726 68.8 194.633 68.8ZM183.673 43.68H205.593C205.379 41.5467 204.766 39.7067 203.753 38.16C202.793 36.56 201.513 35.3333 199.913 34.48C198.313 33.5733 196.526 33.12 194.553 33.12C192.633 33.12 190.873 33.5733 189.273 34.48C187.726 35.3333 186.446 36.56 185.433 38.16C184.473 39.7067 183.886 41.5467 183.673 43.68ZM267.422 65.84C266.515 66.2133 265.422 66.64 264.142 67.12C262.862 67.6 261.475 67.9733 259.982 68.24C258.542 68.56 257.075 68.72 255.582 68.72C253.609 68.72 251.795 68.3733 250.142 67.68C248.489 66.9867 247.155 65.8933 246.142 64.4C245.182 62.8533 244.702 60.8533 244.702 58.4V34.32H239.182V26.08H244.702V12.48H255.422V26.08H264.222V34.32H255.422V54.8C255.475 56.24 255.875 57.28 256.622 57.92C257.369 58.56 258.302 58.88 259.422 58.88C260.542 58.88 261.635 58.6933 262.702 58.32C263.769 57.9467 264.622 57.6267 265.262 57.36L267.422 65.84ZM291.896 68.8C288.483 68.8 285.416 68.24 282.696 67.12C279.976 65.9467 277.656 64.3467 275.736 62.32C273.87 60.2933 272.43 57.9733 271.416 55.36C270.403 52.7467 269.896 50 269.896 47.12C269.896 44.1867 270.403 41.4133 271.416 38.8C272.43 36.1867 273.87 33.8667 275.736 31.84C277.656 29.8133 279.976 28.24 282.696 27.12C285.416 25.9467 288.483 25.36 291.896 25.36C295.31 25.36 298.35 25.9467 301.016 27.12C303.736 28.24 306.056 29.8133 307.976 31.84C309.896 33.8667 311.336 36.1867 312.296 38.8C313.31 41.4133 313.816 44.1867 313.816 47.12C313.816 50 313.31 52.7467 312.296 55.36C311.336 57.9733 309.896 60.2933 307.976 62.32C306.11 64.3467 303.816 65.9467 301.096 67.12C298.376 68.24 295.31 68.8 291.896 68.8ZM280.936 47.12C280.936 49.5733 281.416 51.76 282.376 53.68C283.336 55.5467 284.643 57.0133 286.296 58.08C287.95 59.1467 289.816 59.68 291.896 59.68C293.923 59.68 295.763 59.1467 297.416 58.08C299.07 56.96 300.376 55.4667 301.336 53.6C302.35 51.68 302.856 49.4933 302.856 47.04C302.856 44.64 302.35 42.48 301.336 40.56C300.376 38.64 299.07 37.1467 297.416 36.08C295.763 35.0133 293.923 34.48 291.896 34.48C289.816 34.48 287.95 35.04 286.296 36.16C284.643 37.2267 283.336 38.72 282.376 40.64C281.416 42.5067 280.936 44.6667 280.936 47.12ZM359.791 68.8C356.377 68.8 353.311 68.24 350.591 67.12C347.871 65.9467 345.551 64.3467 343.631 62.32C341.711 60.24 340.217 57.8933 339.151 55.28C338.137 52.6667 337.631 49.92 337.631 47.04C337.631 43.0933 338.511 39.4933 340.271 36.24C342.084 32.9333 344.644 30.2933 347.951 28.32C351.257 26.3467 355.177 25.36 359.711 25.36C364.244 25.36 368.137 26.3467 371.391 28.32C374.644 30.2933 377.071 32.88 378.671 36.08L368.191 39.28C367.284 37.7333 366.084 36.56 364.591 35.76C363.097 34.9067 361.444 34.48 359.631 34.48C357.604 34.48 355.737 35.0133 354.031 36.08C352.377 37.0933 351.071 38.56 350.111 40.48C349.151 42.3467 348.671 44.5333 348.671 47.04C348.671 49.4933 349.151 51.68 350.111 53.6C351.124 55.4667 352.457 56.96 354.111 58.08C355.764 59.1467 357.604 59.68 359.631 59.68C360.911 59.68 362.111 59.4667 363.231 59.04C364.404 58.6133 365.444 58.0267 366.351 57.28C367.257 56.5333 367.924 55.68 368.351 54.72L378.831 57.92C377.871 60 376.457 61.8667 374.591 63.52C372.777 65.1733 370.617 66.48 368.111 67.44C365.657 68.3467 362.884 68.8 359.791 68.8ZM382.547 55.6C382.547 52.88 383.294 50.5067 384.787 48.48C386.334 46.4 388.467 44.8 391.187 43.68C393.907 42.56 397.027 42 400.547 42C402.307 42 404.094 42.1333 405.907 42.4C407.72 42.6667 409.294 43.0933 410.627 43.68V41.44C410.627 38.7733 409.827 36.72 408.227 35.28C406.68 33.84 404.36 33.12 401.267 33.12C398.974 33.12 396.787 33.52 394.707 34.32C392.627 35.12 390.44 36.2933 388.147 37.84L384.707 30.8C387.48 28.9867 390.307 27.6267 393.187 26.72C396.12 25.8133 399.187 25.36 402.387 25.36C408.36 25.36 413 26.8533 416.307 29.84C419.667 32.8267 421.347 37.0933 421.347 42.64V56C421.347 57.12 421.534 57.92 421.907 58.4C422.334 58.88 423 59.1733 423.907 59.28V68C422.947 68.16 422.067 68.2933 421.267 68.4C420.52 68.5067 419.88 68.56 419.347 68.56C417.214 68.56 415.587 68.08 414.467 67.12C413.4 66.16 412.734 64.9867 412.467 63.6L412.227 61.44C410.414 63.7867 408.147 65.6 405.427 66.88C402.707 68.16 399.934 68.8 397.107 68.8C394.334 68.8 391.827 68.24 389.587 67.12C387.4 65.9467 385.667 64.3733 384.387 62.4C383.16 60.3733 382.547 58.1067 382.547 55.6ZM408.627 57.76C409.214 57.12 409.694 56.48 410.067 55.84C410.44 55.2 410.627 54.6133 410.627 54.08V49.84C409.347 49.3067 407.96 48.9067 406.467 48.64C404.974 48.32 403.56 48.16 402.227 48.16C399.454 48.16 397.16 48.7733 395.347 50C393.587 51.1733 392.707 52.7467 392.707 54.72C392.707 55.7867 393 56.8 393.587 57.76C394.174 58.72 395.027 59.4933 396.147 60.08C397.267 60.6667 398.6 60.96 400.147 60.96C401.747 60.96 403.32 60.6667 404.867 60.08C406.414 59.44 407.667 58.6667 408.627 57.76ZM431.284 9.6H442.004V54.56C442.004 56.48 442.324 57.7867 442.964 58.48C443.604 59.12 444.484 59.44 445.604 59.44C446.458 59.44 447.338 59.3333 448.244 59.12C449.151 58.9067 449.951 58.64 450.644 58.32L452.084 66.48C450.644 67.1733 448.964 67.7067 447.044 68.08C445.124 68.4533 443.391 68.64 441.844 68.64C438.484 68.64 435.871 67.76 434.004 66C432.191 64.1867 431.284 61.6267 431.284 58.32V9.6ZM456.675 9.6H467.395V54.56C467.395 56.48 467.715 57.7867 468.355 58.48C468.995 59.12 469.875 59.44 470.995 59.44C471.848 59.44 472.728 59.3333 473.635 59.12C474.542 58.9067 475.342 58.64 476.035 58.32L477.475 66.48C476.035 67.1733 474.355 67.7067 472.435 68.08C470.515 68.4533 468.782 68.64 467.235 68.64C463.875 68.64 461.262 67.76 459.395 66C457.582 64.1867 456.675 61.6267 456.675 58.32V9.6ZM564.297 68H553.577V44.48C553.577 41.1733 552.99 38.7467 551.817 37.2C550.697 35.6 549.124 34.8 547.097 34.8C545.017 34.8 543.017 35.6267 541.097 37.28C539.23 38.88 537.897 40.9867 537.097 43.6V68H526.377V44.48C526.377 41.12 525.79 38.6667 524.617 37.12C523.497 35.5733 521.924 34.8 519.897 34.8C517.817 34.8 515.817 35.6 513.897 37.2C512.03 38.8 510.697 40.9067 509.897 43.52V68H499.177V26.08H508.857V33.84C510.457 31.12 512.59 29.04 515.257 27.6C517.924 26.1067 520.99 25.36 524.457 25.36C527.924 25.36 530.617 26.2133 532.537 27.92C534.51 29.6267 535.764 31.7333 536.297 34.24C538.004 31.36 540.164 29.1733 542.777 27.68C545.444 26.1333 548.43 25.36 551.737 25.36C554.35 25.36 556.457 25.84 558.057 26.8C559.71 27.7067 560.99 28.96 561.897 30.56C562.804 32.1067 563.417 33.8667 563.737 35.84C564.11 37.8133 564.297 39.8133 564.297 41.84V68ZM573.807 76.16C574.767 76.3733 575.647 76.56 576.447 76.72C577.3 76.88 578.02 76.96 578.607 76.96C579.62 76.96 580.447 76.6933 581.087 76.16C581.78 75.68 582.447 74.7733 583.087 73.44C583.727 72.16 584.394 70.3467 585.087 68L568.527 26.08H579.647L590.927 57.04L600.847 26.08H611.087L593.487 76.32C592.847 78.1867 591.86 79.8667 590.527 81.36C589.247 82.9067 587.62 84.1067 585.647 84.96C583.727 85.8667 581.567 86.32 579.167 86.32C578.314 86.32 577.46 86.24 576.607 86.08C575.754 85.9733 574.82 85.76 573.807 85.44V76.16ZM631.336 68.8C627.762 68.8 624.349 68.2133 621.096 67.04C617.842 65.8667 615.042 64.1333 612.696 61.84L616.536 54.88C619.042 56.9067 621.496 58.4 623.896 59.36C626.349 60.32 628.696 60.8 630.936 60.8C633.016 60.8 634.669 60.4267 635.896 59.68C637.176 58.9333 637.816 57.8133 637.816 56.32C637.816 55.3067 637.469 54.5333 636.776 54C636.082 53.4133 635.069 52.9067 633.736 52.48C632.456 52.0533 630.882 51.5733 629.016 51.04C625.922 50.0267 623.336 49.04 621.256 48.08C619.176 47.12 617.602 45.92 616.536 44.48C615.522 42.9867 615.016 41.0933 615.016 38.8C615.016 36.0267 615.709 33.6533 617.096 31.68C618.536 29.6533 620.509 28.08 623.016 26.96C625.576 25.84 628.562 25.28 631.976 25.28C634.962 25.28 637.789 25.76 640.456 26.72C643.122 27.6267 645.549 29.12 647.736 31.2L643.416 38C641.282 36.3467 639.256 35.1467 637.336 34.4C635.416 33.6 633.469 33.2 631.496 33.2C630.376 33.2 629.309 33.3333 628.296 33.6C627.336 33.8667 626.536 34.32 625.896 34.96C625.309 35.5467 625.016 36.4 625.016 37.52C625.016 38.5333 625.282 39.3333 625.816 39.92C626.402 40.4533 627.256 40.9333 628.376 41.36C629.549 41.7867 630.962 42.2667 632.616 42.8C635.976 43.76 638.802 44.7467 641.096 45.76C643.442 46.7733 645.202 48.0267 646.376 49.52C647.549 50.96 648.136 52.96 648.136 55.52C648.136 59.68 646.616 62.9333 643.576 65.28C640.536 67.6267 636.456 68.8 631.336 68.8ZM674.867 68.8C671.507 68.8 668.467 68.24 665.747 67.12C663.027 65.9467 660.707 64.3733 658.787 62.4C656.867 60.3733 655.374 58.08 654.307 55.52C653.294 52.9067 652.787 50.16 652.787 47.28C652.787 43.28 653.667 39.6267 655.427 36.32C657.24 33.0133 659.8 30.3733 663.107 28.4C666.467 26.3733 670.414 25.36 674.947 25.36C679.534 25.36 683.454 26.3733 686.707 28.4C689.96 30.3733 692.44 33.0133 694.147 36.32C695.907 39.5733 696.787 43.0933 696.787 46.88C696.787 47.52 696.76 48.1867 696.707 48.88C696.654 49.52 696.6 50.0533 696.547 50.48H664.147C664.36 52.6133 664.974 54.48 665.987 56.08C667.054 57.68 668.387 58.9067 669.987 59.76C671.64 60.56 673.4 60.96 675.267 60.96C677.4 60.96 679.4 60.4533 681.267 59.44C683.187 58.3733 684.494 56.9867 685.187 55.28L694.387 57.84C693.374 59.9733 691.907 61.8667 689.987 63.52C688.12 65.1733 685.907 66.48 683.347 67.44C680.787 68.3467 677.96 68.8 674.867 68.8ZM663.907 43.68H685.827C685.614 41.5467 685 39.7067 683.987 38.16C683.027 36.56 681.747 35.3333 680.147 34.48C678.547 33.5733 676.76 33.12 674.787 33.12C672.867 33.12 671.107 33.5733 669.507 34.48C667.96 35.3333 666.68 36.56 665.667 38.16C664.707 39.7067 664.12 41.5467 663.907 43.68ZM703.238 9.6H713.958V54.56C713.958 56.48 714.278 57.7867 714.918 58.48C715.558 59.12 716.438 59.44 717.558 59.44C718.411 59.44 719.291 59.3333 720.198 59.12C721.104 58.9067 721.904 58.64 722.598 58.32L724.038 66.48C722.598 67.1733 720.918 67.7067 718.997 68.08C717.078 68.4533 715.344 68.64 713.798 68.64C710.438 68.64 707.824 67.76 705.958 66C704.144 64.1867 703.238 61.6267 703.238 58.32V9.6ZM730.956 68V36.48H725.436V28.32H730.956V25.76C730.956 22.2933 731.516 19.3067 732.636 16.8C733.809 14.24 735.436 12.2667 737.516 10.88C739.649 9.49333 742.129 8.8 744.956 8.8C746.662 8.8 748.369 9.01333 750.076 9.44C751.836 9.86666 753.569 10.48 755.276 11.28L753.116 19.36C752.316 18.9333 751.382 18.5867 750.316 18.32C749.249 18 748.236 17.84 747.276 17.84C745.462 17.84 744.076 18.48 743.116 19.76C742.156 21.04 741.676 22.9067 741.676 25.36V28.32H751.916V36.48H741.676V68H730.956ZM53.84 89.6L52.08 99.36H55.28V110.16H44.48V99.2L47.36 89.6H53.84ZM68.88 89.6L67.12 99.36H70.32V110.16H59.52V99.2L62.4 89.6H68.88ZM98.0719 148.8C94.6585 148.8 91.5919 148.24 88.8719 147.12C86.1519 145.947 83.8319 144.347 81.9119 142.32C79.9919 140.24 78.4985 137.893 77.4319 135.28C76.4185 132.667 75.9119 129.92 75.9119 127.04C75.9119 123.093 76.7919 119.493 78.5519 116.24C80.3652 112.933 82.9252 110.293 86.2319 108.32C89.5385 106.347 93.4585 105.36 97.9919 105.36C102.525 105.36 106.419 106.347 109.672 108.32C112.925 110.293 115.352 112.88 116.952 116.08L106.472 119.28C105.565 117.733 104.365 116.56 102.872 115.76C101.379 114.907 99.7252 114.48 97.9119 114.48C95.8852 114.48 94.0185 115.013 92.3119 116.08C90.6585 117.093 89.3519 118.56 88.3919 120.48C87.4319 122.347 86.9519 124.533 86.9519 127.04C86.9519 129.493 87.4319 131.68 88.3919 133.6C89.4052 135.467 90.7385 136.96 92.3919 138.08C94.0452 139.147 95.8852 139.68 97.9119 139.68C99.1919 139.68 100.392 139.467 101.512 139.04C102.685 138.613 103.725 138.027 104.632 137.28C105.539 136.533 106.205 135.68 106.632 134.72L117.112 137.92C116.152 140 114.739 141.867 112.872 143.52C111.059 145.173 108.899 146.48 106.392 147.44C103.939 148.347 101.165 148.8 98.0719 148.8ZM142.678 148.8C139.264 148.8 136.198 148.24 133.478 147.12C130.758 145.947 128.438 144.347 126.518 142.32C124.651 140.293 123.211 137.973 122.198 135.36C121.184 132.747 120.678 130 120.678 127.12C120.678 124.187 121.184 121.413 122.198 118.8C123.211 116.187 124.651 113.867 126.518 111.84C128.438 109.813 130.758 108.24 133.478 107.12C136.198 105.947 139.264 105.36 142.678 105.36C146.091 105.36 149.131 105.947 151.798 107.12C154.518 108.24 156.838 109.813 158.758 111.84C160.678 113.867 162.118 116.187 163.078 118.8C164.091 121.413 164.598 124.187 164.598 127.12C164.598 130 164.091 132.747 163.078 135.36C162.118 137.973 160.678 140.293 158.758 142.32C156.891 144.347 154.598 145.947 151.878 147.12C149.158 148.24 146.091 148.8 142.678 148.8ZM131.718 127.12C131.718 129.573 132.198 131.76 133.158 133.68C134.118 135.547 135.424 137.013 137.078 138.08C138.731 139.147 140.598 139.68 142.678 139.68C144.704 139.68 146.544 139.147 148.198 138.08C149.851 136.96 151.158 135.467 152.118 133.6C153.131 131.68 153.638 129.493 153.638 127.04C153.638 124.64 153.131 122.48 152.118 120.56C151.158 118.64 149.851 117.147 148.198 116.08C146.544 115.013 144.704 114.48 142.678 114.48C140.598 114.48 138.731 115.04 137.078 116.16C135.424 117.227 134.118 118.72 133.158 120.64C132.198 122.507 131.718 124.667 131.718 127.12ZM210.793 148H200.073V124.48C200.073 121.12 199.486 118.667 198.313 117.12C197.14 115.573 195.513 114.8 193.433 114.8C191.993 114.8 190.526 115.173 189.033 115.92C187.593 116.667 186.286 117.707 185.113 119.04C183.94 120.32 183.086 121.813 182.553 123.52V148H171.833V106.08H181.513V113.84C182.58 112.027 183.94 110.507 185.593 109.28C187.246 108 189.14 107.04 191.273 106.4C193.46 105.707 195.753 105.36 198.153 105.36C200.766 105.36 202.9 105.84 204.553 106.8C206.26 107.707 207.54 108.96 208.393 110.56C209.3 112.107 209.913 113.867 210.233 115.84C210.606 117.813 210.793 119.813 210.793 121.84V148ZM259.074 148H248.354V124.48C248.354 121.12 247.768 118.667 246.594 117.12C245.421 115.573 243.794 114.8 241.714 114.8C240.274 114.8 238.808 115.173 237.314 115.92C235.874 116.667 234.568 117.707 233.394 119.04C232.221 120.32 231.368 121.813 230.834 123.52V148H220.114V106.08H229.794V113.84C230.861 112.027 232.221 110.507 233.874 109.28C235.528 108 237.421 107.04 239.554 106.4C241.741 105.707 244.034 105.36 246.434 105.36C249.048 105.36 251.181 105.84 252.834 106.8C254.541 107.707 255.821 108.96 256.674 110.56C257.581 112.107 258.194 113.867 258.514 115.84C258.888 117.813 259.074 119.813 259.074 121.84V148ZM287.836 148.8C284.476 148.8 281.436 148.24 278.716 147.12C275.996 145.947 273.676 144.373 271.756 142.4C269.836 140.373 268.342 138.08 267.276 135.52C266.262 132.907 265.756 130.16 265.756 127.28C265.756 123.28 266.636 119.627 268.396 116.32C270.209 113.013 272.769 110.373 276.076 108.4C279.436 106.373 283.382 105.36 287.916 105.36C292.502 105.36 296.422 106.373 299.676 108.4C302.929 110.373 305.409 113.013 307.116 116.32C308.876 119.573 309.756 123.093 309.756 126.88C309.756 127.52 309.729 128.187 309.676 128.88C309.622 129.52 309.569 130.053 309.516 130.48H277.116C277.329 132.613 277.942 134.48 278.956 136.08C280.022 137.68 281.356 138.907 282.956 139.76C284.609 140.56 286.369 140.96 288.236 140.96C290.369 140.96 292.369 140.453 294.236 139.44C296.156 138.373 297.462 136.987 298.156 135.28L307.356 137.84C306.342 139.973 304.876 141.867 302.956 143.52C301.089 145.173 298.876 146.48 296.316 147.44C293.756 148.347 290.929 148.8 287.836 148.8ZM276.876 123.68H298.796C298.582 121.547 297.969 119.707 296.956 118.16C295.996 116.56 294.716 115.333 293.116 114.48C291.516 113.573 289.729 113.12 287.756 113.12C285.836 113.12 284.076 113.573 282.476 114.48C280.929 115.333 279.649 116.56 278.636 118.16C277.676 119.707 277.089 121.547 276.876 123.68ZM335.806 148.8C332.393 148.8 329.326 148.24 326.606 147.12C323.886 145.947 321.566 144.347 319.646 142.32C317.726 140.24 316.233 137.893 315.166 135.28C314.153 132.667 313.646 129.92 313.646 127.04C313.646 123.093 314.526 119.493 316.286 116.24C318.1 112.933 320.66 110.293 323.966 108.32C327.273 106.347 331.193 105.36 335.726 105.36C340.26 105.36 344.153 106.347 347.406 108.32C350.66 110.293 353.086 112.88 354.686 116.08L344.206 119.28C343.3 117.733 342.1 116.56 340.606 115.76C339.113 114.907 337.46 114.48 335.646 114.48C333.62 114.48 331.753 115.013 330.046 116.08C328.393 117.093 327.086 118.56 326.126 120.48C325.166 122.347 324.686 124.533 324.686 127.04C324.686 129.493 325.166 131.68 326.126 133.6C327.14 135.467 328.473 136.96 330.126 138.08C331.78 139.147 333.62 139.68 335.646 139.68C336.926 139.68 338.126 139.467 339.246 139.04C340.42 138.613 341.46 138.027 342.366 137.28C343.273 136.533 343.94 135.68 344.366 134.72L354.846 137.92C353.886 140 352.473 141.867 350.606 143.52C348.793 145.173 346.633 146.48 344.126 147.44C341.673 148.347 338.9 148.8 335.806 148.8ZM386.563 145.84C385.656 146.213 384.563 146.64 383.283 147.12C382.003 147.6 380.616 147.973 379.123 148.24C377.683 148.56 376.216 148.72 374.723 148.72C372.749 148.72 370.936 148.373 369.283 147.68C367.629 146.987 366.296 145.893 365.283 144.4C364.323 142.853 363.843 140.853 363.843 138.4V114.32H358.323V106.08H363.843V92.48H374.563V106.08H383.363V114.32H374.563V134.8C374.616 136.24 375.016 137.28 375.763 137.92C376.509 138.56 377.443 138.88 378.563 138.88C379.683 138.88 380.776 138.693 381.843 138.32C382.909 137.947 383.763 137.627 384.403 137.36L386.563 145.84ZM392.146 148V106.08H402.866V148H392.146ZM392.146 100.24V89.6H402.866V100.24H392.146ZM431.896 148.8C428.483 148.8 425.416 148.24 422.696 147.12C419.976 145.947 417.656 144.347 415.736 142.32C413.87 140.293 412.43 137.973 411.416 135.36C410.403 132.747 409.896 130 409.896 127.12C409.896 124.187 410.403 121.413 411.416 118.8C412.43 116.187 413.87 113.867 415.736 111.84C417.656 109.813 419.976 108.24 422.696 107.12C425.416 105.947 428.483 105.36 431.896 105.36C435.31 105.36 438.35 105.947 441.016 107.12C443.736 108.24 446.056 109.813 447.976 111.84C449.896 113.867 451.336 116.187 452.296 118.8C453.31 121.413 453.816 124.187 453.816 127.12C453.816 130 453.31 132.747 452.296 135.36C451.336 137.973 449.896 140.293 447.976 142.32C446.11 144.347 443.816 145.947 441.096 147.12C438.376 148.24 435.31 148.8 431.896 148.8ZM420.936 127.12C420.936 129.573 421.416 131.76 422.376 133.68C423.336 135.547 424.643 137.013 426.296 138.08C427.95 139.147 429.816 139.68 431.896 139.68C433.923 139.68 435.763 139.147 437.416 138.08C439.07 136.96 440.376 135.467 441.336 133.6C442.35 131.68 442.856 129.493 442.856 127.04C442.856 124.64 442.35 122.48 441.336 120.56C440.376 118.64 439.07 117.147 437.416 116.08C435.763 115.013 433.923 114.48 431.896 114.48C429.816 114.48 427.95 115.04 426.296 116.16C424.643 117.227 423.336 118.72 422.376 120.64C421.416 122.507 420.936 124.667 420.936 127.12ZM500.012 148H489.292V124.48C489.292 121.12 488.705 118.667 487.532 117.12C486.359 115.573 484.732 114.8 482.652 114.8C481.212 114.8 479.745 115.173 478.252 115.92C476.812 116.667 475.505 117.707 474.332 119.04C473.159 120.32 472.305 121.813 471.772 123.52V148H461.052V106.08H470.732V113.84C471.799 112.027 473.159 110.507 474.812 109.28C476.465 108 478.359 107.04 480.492 106.4C482.679 105.707 484.972 105.36 487.372 105.36C489.985 105.36 492.119 105.84 493.772 106.8C495.479 107.707 496.759 108.96 497.612 110.56C498.519 112.107 499.132 113.867 499.452 115.84C499.825 117.813 500.012 119.813 500.012 121.84V148ZM524.773 148.8C521.2 148.8 517.786 148.213 514.533 147.04C511.28 145.867 508.48 144.133 506.133 141.84L509.973 134.88C512.48 136.907 514.933 138.4 517.333 139.36C519.786 140.32 522.133 140.8 524.373 140.8C526.453 140.8 528.106 140.427 529.333 139.68C530.613 138.933 531.253 137.813 531.253 136.32C531.253 135.307 530.906 134.533 530.213 134C529.52 133.413 528.506 132.907 527.173 132.48C525.893 132.053 524.32 131.573 522.453 131.04C519.36 130.027 516.773 129.04 514.693 128.08C512.613 127.12 511.04 125.92 509.973 124.48C508.96 122.987 508.453 121.093 508.453 118.8C508.453 116.027 509.146 113.653 510.533 111.68C511.973 109.653 513.946 108.08 516.453 106.96C519.013 105.84 522 105.28 525.413 105.28C528.4 105.28 531.226 105.76 533.893 106.72C536.56 107.627 538.986 109.12 541.173 111.2L536.853 118C534.72 116.347 532.693 115.147 530.773 114.4C528.853 113.6 526.906 113.2 524.933 113.2C523.813 113.2 522.746 113.333 521.733 113.6C520.773 113.867 519.973 114.32 519.333 114.96C518.746 115.547 518.453 116.4 518.453 117.52C518.453 118.533 518.72 119.333 519.253 119.92C519.84 120.453 520.693 120.933 521.813 121.36C522.986 121.787 524.4 122.267 526.053 122.8C529.413 123.76 532.24 124.747 534.533 125.76C536.88 126.773 538.64 128.027 539.813 129.52C540.986 130.96 541.573 132.96 541.573 135.52C541.573 139.68 540.053 142.933 537.013 145.28C533.973 147.627 529.893 148.8 524.773 148.8ZM548.624 130.88V121.2H572.864V130.88H548.624ZM647.422 148H636.702V124.48C636.702 121.173 636.115 118.747 634.942 117.2C633.822 115.6 632.249 114.8 630.222 114.8C628.142 114.8 626.142 115.627 624.222 117.28C622.355 118.88 621.022 120.987 620.222 123.6V148H609.502V124.48C609.502 121.12 608.915 118.667 607.742 117.12C606.622 115.573 605.049 114.8 603.022 114.8C600.942 114.8 598.942 115.6 597.022 117.2C595.155 118.8 593.822 120.907 593.022 123.52V148H582.302V106.08H591.982V113.84C593.582 111.12 595.715 109.04 598.382 107.6C601.049 106.107 604.115 105.36 607.582 105.36C611.049 105.36 613.742 106.213 615.662 107.92C617.635 109.627 618.889 111.733 619.422 114.24C621.129 111.36 623.289 109.173 625.902 107.68C628.569 106.133 631.555 105.36 634.862 105.36C637.475 105.36 639.582 105.84 641.182 106.8C642.835 107.707 644.115 108.96 645.022 110.56C645.929 112.107 646.542 113.867 646.862 115.84C647.235 117.813 647.422 119.813 647.422 121.84V148ZM653.875 135.6C653.875 132.88 654.622 130.507 656.115 128.48C657.662 126.4 659.795 124.8 662.515 123.68C665.235 122.56 668.355 122 671.875 122C673.635 122 675.422 122.133 677.235 122.4C679.048 122.667 680.622 123.093 681.955 123.68V121.44C681.955 118.773 681.155 116.72 679.555 115.28C678.008 113.84 675.688 113.12 672.595 113.12C670.302 113.12 668.115 113.52 666.035 114.32C663.955 115.12 661.768 116.293 659.475 117.84L656.035 110.8C658.808 108.987 661.635 107.627 664.515 106.72C667.448 105.813 670.515 105.36 673.715 105.36C679.688 105.36 684.328 106.853 687.635 109.84C690.995 112.827 692.675 117.093 692.675 122.64V136C692.675 137.12 692.862 137.92 693.235 138.4C693.662 138.88 694.328 139.173 695.235 139.28V148C694.275 148.16 693.395 148.293 692.595 148.4C691.848 148.507 691.208 148.56 690.675 148.56C688.542 148.56 686.915 148.08 685.795 147.12C684.728 146.16 684.062 144.987 683.795 143.6L683.555 141.44C681.742 143.787 679.475 145.6 676.755 146.88C674.035 148.16 671.262 148.8 668.435 148.8C665.662 148.8 663.155 148.24 660.915 147.12C658.728 145.947 656.995 144.373 655.715 142.4C654.488 140.373 653.875 138.107 653.875 135.6ZM679.955 137.76C680.542 137.12 681.022 136.48 681.395 135.84C681.768 135.2 681.955 134.613 681.955 134.08V129.84C680.675 129.307 679.288 128.907 677.795 128.64C676.302 128.32 674.888 128.16 673.555 128.16C670.782 128.16 668.488 128.773 666.675 130C664.915 131.173 664.035 132.747 664.035 134.72C664.035 135.787 664.328 136.8 664.915 137.76C665.502 138.72 666.355 139.493 667.475 140.08C668.595 140.667 669.928 140.96 671.475 140.96C673.075 140.96 674.648 140.667 676.195 140.08C677.742 139.44 678.995 138.667 679.955 137.76ZM731.333 148L719.093 129.92L713.413 135.52V148H702.693V89.6H713.413V124.96L730.293 106.16H741.653L726.053 123.92L742.773 148H731.333ZM764.554 148.8C761.194 148.8 758.154 148.24 755.434 147.12C752.714 145.947 750.394 144.373 748.474 142.4C746.554 140.373 745.061 138.08 743.994 135.52C742.981 132.907 742.474 130.16 742.474 127.28C742.474 123.28 743.354 119.627 745.114 116.32C746.928 113.013 749.488 110.373 752.794 108.4C756.154 106.373 760.101 105.36 764.634 105.36C769.221 105.36 773.141 106.373 776.394 108.4C779.648 110.373 782.128 113.013 783.834 116.32C785.594 119.573 786.474 123.093 786.474 126.88C786.474 127.52 786.448 128.187 786.394 128.88C786.341 129.52 786.288 130.053 786.234 130.48H753.834C754.048 132.613 754.661 134.48 755.674 136.08C756.741 137.68 758.074 138.907 759.674 139.76C761.328 140.56 763.088 140.96 764.954 140.96C767.088 140.96 769.088 140.453 770.954 139.44C772.874 138.373 774.181 136.987 774.874 135.28L784.074 137.84C783.061 139.973 781.594 141.867 779.674 143.52C777.808 145.173 775.594 146.48 773.034 147.44C770.474 148.347 767.648 148.8 764.554 148.8ZM753.594 123.68H775.514C775.301 121.547 774.688 119.707 773.674 118.16C772.714 116.56 771.434 115.333 769.834 114.48C768.234 113.573 766.448 113.12 764.474 113.12C762.554 113.12 760.794 113.573 759.194 114.48C757.648 115.333 756.368 116.56 755.354 118.16C754.394 119.707 753.808 121.547 753.594 123.68ZM817.965 115.36C814.712 115.36 811.805 116 809.245 117.28C806.685 118.507 804.845 120.293 803.725 122.64V148H793.005V106.08H802.845V115.04C804.338 112.16 806.232 109.893 808.525 108.24C810.818 106.587 813.245 105.68 815.805 105.52C816.392 105.52 816.845 105.52 817.165 105.52C817.485 105.52 817.752 105.547 817.965 105.6V115.36ZM824.663 109.68L826.503 99.84H823.303V89.12H834.023V100.08L831.223 109.68H824.663ZM839.703 109.68L841.543 99.84H838.343V89.12H849.063V100.08L846.263 109.68H839.703ZM850.293 157.2L852.453 147.68H849.093V136.48H858.373V147.68L855.093 157.2H850.293ZM42.32 207.04C42.32 202.987 43.12 199.333 44.72 196.08C46.32 192.773 48.5333 190.16 51.36 188.24C54.1867 186.32 57.4133 185.36 61.04 185.36C64.1333 185.36 66.9067 186.133 69.36 187.68C71.8667 189.173 73.8133 191.093 75.2 193.44V169.6H85.92V216C85.92 217.12 86.1067 217.92 86.48 218.4C86.8533 218.88 87.4933 219.173 88.4 219.28V228C86.5333 228.373 85.0133 228.56 83.84 228.56C81.92 228.56 80.32 228.08 79.04 227.12C77.8133 226.16 77.12 224.907 76.96 223.36L76.8 220.72C75.2533 223.333 73.1467 225.333 70.48 226.72C67.8667 228.107 65.12 228.8 62.24 228.8C59.36 228.8 56.6933 228.24 54.24 227.12C51.84 226 49.7333 224.453 47.92 222.48C46.16 220.507 44.7733 218.213 43.76 215.6C42.8 212.933 42.32 210.08 42.32 207.04ZM75.2 212.64V202.64C74.6667 201.093 73.8133 199.707 72.64 198.48C71.4667 197.253 70.16 196.293 68.72 195.6C67.28 194.853 65.84 194.48 64.4 194.48C62.7467 194.48 61.2533 194.827 59.92 195.52C58.5867 196.213 57.4133 197.147 56.4 198.32C55.44 199.493 54.6933 200.853 54.16 202.4C53.68 203.947 53.44 205.573 53.44 207.28C53.44 208.987 53.7067 210.613 54.24 212.16C54.8267 213.653 55.6533 214.96 56.72 216.08C57.7867 217.2 59.0133 218.08 60.4 218.72C61.84 219.36 63.3867 219.68 65.04 219.68C66.0533 219.68 67.0667 219.52 68.08 219.2C69.1467 218.827 70.1333 218.347 71.04 217.76C72 217.12 72.8267 216.373 73.52 215.52C74.2667 214.613 74.8267 213.653 75.2 212.64ZM115.803 228.8C112.389 228.8 109.323 228.24 106.603 227.12C103.883 225.947 101.563 224.347 99.6425 222.32C97.7758 220.293 96.3358 217.973 95.3225 215.36C94.3092 212.747 93.8025 210 93.8025 207.12C93.8025 204.187 94.3092 201.413 95.3225 198.8C96.3358 196.187 97.7758 193.867 99.6425 191.84C101.563 189.813 103.883 188.24 106.603 187.12C109.323 185.947 112.389 185.36 115.803 185.36C119.216 185.36 122.256 185.947 124.923 187.12C127.643 188.24 129.963 189.813 131.883 191.84C133.803 193.867 135.243 196.187 136.203 198.8C137.216 201.413 137.723 204.187 137.723 207.12C137.723 210 137.216 212.747 136.203 215.36C135.243 217.973 133.803 220.293 131.883 222.32C130.016 224.347 127.723 225.947 125.003 227.12C122.283 228.24 119.216 228.8 115.803 228.8ZM104.843 207.12C104.843 209.573 105.323 211.76 106.283 213.68C107.243 215.547 108.549 217.013 110.203 218.08C111.856 219.147 113.723 219.68 115.803 219.68C117.829 219.68 119.669 219.147 121.323 218.08C122.976 216.96 124.283 215.467 125.243 213.6C126.256 211.68 126.763 209.493 126.763 207.04C126.763 204.64 126.256 202.48 125.243 200.56C124.283 198.64 122.976 197.147 121.323 196.08C119.669 195.013 117.829 194.48 115.803 194.48C113.723 194.48 111.856 195.04 110.203 196.16C108.549 197.227 107.243 198.72 106.283 200.64C105.323 202.507 104.843 204.667 104.843 207.12ZM162.869 236.16C163.829 236.373 164.709 236.56 165.509 236.72C166.363 236.88 167.083 236.96 167.669 236.96C168.683 236.96 169.509 236.693 170.149 236.16C170.843 235.68 171.509 234.773 172.149 233.44C172.789 232.16 173.456 230.347 174.149 228L157.589 186.08H168.709L179.989 217.04L189.909 186.08H200.149L182.549 236.32C181.909 238.187 180.923 239.867 179.589 241.36C178.309 242.907 176.683 244.107 174.709 244.96C172.789 245.867 170.629 246.32 168.229 246.32C167.376 246.32 166.523 246.24 165.669 246.08C164.816 245.973 163.883 245.76 162.869 245.44V236.16ZM223.928 228.8C220.514 228.8 217.448 228.24 214.728 227.12C212.008 225.947 209.688 224.347 207.768 222.32C205.901 220.293 204.461 217.973 203.448 215.36C202.434 212.747 201.928 210 201.928 207.12C201.928 204.187 202.434 201.413 203.448 198.8C204.461 196.187 205.901 193.867 207.768 191.84C209.688 189.813 212.008 188.24 214.728 187.12C217.448 185.947 220.514 185.36 223.928 185.36C227.341 185.36 230.381 185.947 233.048 187.12C235.768 188.24 238.088 189.813 240.008 191.84C241.928 193.867 243.368 196.187 244.328 198.8C245.341 201.413 245.848 204.187 245.848 207.12C245.848 210 245.341 212.747 244.328 215.36C243.368 217.973 241.928 220.293 240.008 222.32C238.141 224.347 235.848 225.947 233.128 227.12C230.408 228.24 227.341 228.8 223.928 228.8ZM212.968 207.12C212.968 209.573 213.448 211.76 214.408 213.68C215.368 215.547 216.674 217.013 218.328 218.08C219.981 219.147 221.848 219.68 223.928 219.68C225.954 219.68 227.794 219.147 229.448 218.08C231.101 216.96 232.408 215.467 233.368 213.6C234.381 211.68 234.888 209.493 234.888 207.04C234.888 204.64 234.381 202.48 233.368 200.56C232.408 198.64 231.101 197.147 229.448 196.08C227.794 195.013 225.954 194.48 223.928 194.48C221.848 194.48 219.981 195.04 218.328 196.16C216.674 197.227 215.368 198.72 214.408 200.64C213.448 202.507 212.968 204.667 212.968 207.12ZM252.683 212.32V186.08H263.403V210C263.403 213.2 263.99 215.627 265.163 217.28C266.336 218.88 268.07 219.68 270.363 219.68C271.75 219.68 273.11 219.413 274.443 218.88C275.83 218.293 277.083 217.44 278.203 216.32C279.376 215.2 280.363 213.787 281.163 212.08V186.08H291.883V216C291.883 217.12 292.07 217.92 292.443 218.4C292.87 218.88 293.536 219.173 294.443 219.28V228C293.376 228.16 292.47 228.267 291.723 228.32C291.03 228.427 290.39 228.48 289.803 228.48C287.883 228.48 286.31 228.053 285.083 227.2C283.91 226.293 283.216 225.067 283.003 223.52L282.763 220.16C280.896 222.987 278.496 225.147 275.563 226.64C272.63 228.08 269.403 228.8 265.883 228.8C261.563 228.8 258.283 227.413 256.043 224.64C253.803 221.813 252.683 217.707 252.683 212.32ZM371.489 186.08H381.649L364.129 228H355.169L348.129 210L341.249 228H332.209L314.769 186.08H324.849L337.329 217.76L342.209 204.08L334.929 186.16H343.809L348.129 198.96L352.529 186.16H361.409L354.129 204.08L359.089 217.76L371.489 186.08ZM382.703 215.6C382.703 212.88 383.45 210.507 384.943 208.48C386.49 206.4 388.623 204.8 391.343 203.68C394.063 202.56 397.183 202 400.703 202C402.463 202 404.25 202.133 406.063 202.4C407.876 202.667 409.45 203.093 410.783 203.68V201.44C410.783 198.773 409.983 196.72 408.383 195.28C406.836 193.84 404.516 193.12 401.423 193.12C399.13 193.12 396.943 193.52 394.863 194.32C392.783 195.12 390.596 196.293 388.303 197.84L384.863 190.8C387.636 188.987 390.463 187.627 393.343 186.72C396.276 185.813 399.343 185.36 402.543 185.36C408.516 185.36 413.156 186.853 416.463 189.84C419.823 192.827 421.503 197.093 421.503 202.64V216C421.503 217.12 421.69 217.92 422.063 218.4C422.49 218.88 423.156 219.173 424.063 219.28V228C423.103 228.16 422.223 228.293 421.423 228.4C420.676 228.507 420.036 228.56 419.503 228.56C417.37 228.56 415.743 228.08 414.623 227.12C413.556 226.16 412.89 224.987 412.623 223.6L412.383 221.44C410.57 223.787 408.303 225.6 405.583 226.88C402.863 228.16 400.09 228.8 397.263 228.8C394.49 228.8 391.983 228.24 389.743 227.12C387.556 225.947 385.823 224.373 384.543 222.4C383.316 220.373 382.703 218.107 382.703 215.6ZM408.783 217.76C409.37 217.12 409.85 216.48 410.223 215.84C410.596 215.2 410.783 214.613 410.783 214.08V209.84C409.503 209.307 408.116 208.907 406.623 208.64C405.13 208.32 403.716 208.16 402.383 208.16C399.61 208.16 397.316 208.773 395.503 210C393.743 211.173 392.863 212.747 392.863 214.72C392.863 215.787 393.156 216.8 393.743 217.76C394.33 218.72 395.183 219.493 396.303 220.08C397.423 220.667 398.756 220.96 400.303 220.96C401.903 220.96 403.476 220.667 405.023 220.08C406.57 219.44 407.823 218.667 408.783 217.76ZM470.481 228H459.761V204.48C459.761 201.12 459.174 198.667 458.001 197.12C456.827 195.573 455.201 194.8 453.121 194.8C451.681 194.8 450.214 195.173 448.721 195.92C447.281 196.667 445.974 197.707 444.801 199.04C443.627 200.32 442.774 201.813 442.241 203.52V228H431.521V186.08H441.201V193.84C442.267 192.027 443.627 190.507 445.281 189.28C446.934 188 448.827 187.04 450.961 186.4C453.147 185.707 455.441 185.36 457.841 185.36C460.454 185.36 462.587 185.84 464.241 186.8C465.947 187.707 467.227 188.96 468.081 190.56C468.987 192.107 469.601 193.867 469.921 195.84C470.294 197.813 470.481 199.813 470.481 201.84V228ZM504.688 225.84C503.781 226.213 502.688 226.64 501.408 227.12C500.128 227.6 498.741 227.973 497.248 228.24C495.808 228.56 494.341 228.72 492.848 228.72C490.874 228.72 489.061 228.373 487.408 227.68C485.754 226.987 484.421 225.893 483.408 224.4C482.448 222.853 481.968 220.853 481.968 218.4V194.32H476.448V186.08H481.968V172.48H492.688V186.08H501.488V194.32H492.688V214.8C492.741 216.24 493.141 217.28 493.888 217.92C494.634 218.56 495.568 218.88 496.688 218.88C497.808 218.88 498.901 218.693 499.968 218.32C501.034 217.947 501.888 217.627 502.528 217.36L504.688 225.84ZM554.609 225.84C553.703 226.213 552.609 226.64 551.329 227.12C550.049 227.6 548.663 227.973 547.169 228.24C545.729 228.56 544.263 228.72 542.769 228.72C540.796 228.72 538.983 228.373 537.329 227.68C535.676 226.987 534.343 225.893 533.329 224.4C532.369 222.853 531.889 220.853 531.889 218.4V194.32H526.369V186.08H531.889V172.48H542.609V186.08H551.409V194.32H542.609V214.8C542.663 216.24 543.063 217.28 543.809 217.92C544.556 218.56 545.489 218.88 546.609 218.88C547.729 218.88 548.823 218.693 549.889 218.32C550.956 217.947 551.809 217.627 552.449 217.36L554.609 225.84ZM579.084 228.8C575.67 228.8 572.604 228.24 569.884 227.12C567.164 225.947 564.844 224.347 562.924 222.32C561.057 220.293 559.617 217.973 558.604 215.36C557.59 212.747 557.084 210 557.084 207.12C557.084 204.187 557.59 201.413 558.604 198.8C559.617 196.187 561.057 193.867 562.924 191.84C564.844 189.813 567.164 188.24 569.884 187.12C572.604 185.947 575.67 185.36 579.084 185.36C582.497 185.36 585.537 185.947 588.204 187.12C590.924 188.24 593.244 189.813 595.164 191.84C597.084 193.867 598.524 196.187 599.484 198.8C600.497 201.413 601.004 204.187 601.004 207.12C601.004 210 600.497 212.747 599.484 215.36C598.524 217.973 597.084 220.293 595.164 222.32C593.297 224.347 591.004 225.947 588.284 227.12C585.564 228.24 582.497 228.8 579.084 228.8ZM568.124 207.12C568.124 209.573 568.604 211.76 569.564 213.68C570.524 215.547 571.83 217.013 573.484 218.08C575.137 219.147 577.004 219.68 579.084 219.68C581.11 219.68 582.95 219.147 584.604 218.08C586.257 216.96 587.564 215.467 588.524 213.6C589.537 211.68 590.044 209.493 590.044 207.04C590.044 204.64 589.537 202.48 588.524 200.56C587.564 198.64 586.257 197.147 584.604 196.08C582.95 195.013 581.11 194.48 579.084 194.48C577.004 194.48 575.137 195.04 573.484 196.16C571.83 197.227 570.524 198.72 569.564 200.64C568.604 202.507 568.124 204.667 568.124 207.12ZM624.018 243.68C622.045 243.68 620.151 243.36 618.338 242.72C616.525 242.133 614.871 241.2 613.378 239.92L618.018 232.64C618.605 233.28 619.325 233.733 620.178 234C621.031 234.267 621.885 234.4 622.738 234.4C623.698 234.4 624.551 234.16 625.298 233.68C626.098 233.253 626.711 232.64 627.138 231.84C627.618 231.04 627.858 230.133 627.858 229.12V186.08H638.578V228.32C638.578 231.307 637.911 233.973 636.578 236.32C635.298 238.667 633.565 240.48 631.378 241.76C629.245 243.04 626.791 243.68 624.018 243.68ZM627.858 180.24V169.6H638.578V180.24H627.858ZM667.678 228.8C664.264 228.8 661.198 228.24 658.478 227.12C655.758 225.947 653.438 224.347 651.518 222.32C649.651 220.293 648.211 217.973 647.198 215.36C646.184 212.747 645.678 210 645.678 207.12C645.678 204.187 646.184 201.413 647.198 198.8C648.211 196.187 649.651 193.867 651.518 191.84C653.438 189.813 655.758 188.24 658.478 187.12C661.198 185.947 664.264 185.36 667.678 185.36C671.091 185.36 674.131 185.947 676.798 187.12C679.518 188.24 681.838 189.813 683.758 191.84C685.678 193.867 687.118 196.187 688.078 198.8C689.091 201.413 689.598 204.187 689.598 207.12C689.598 210 689.091 212.747 688.078 215.36C687.118 217.973 685.678 220.293 683.758 222.32C681.891 224.347 679.598 225.947 676.878 227.12C674.158 228.24 671.091 228.8 667.678 228.8ZM656.718 207.12C656.718 209.573 657.198 211.76 658.158 213.68C659.118 215.547 660.424 217.013 662.078 218.08C663.731 219.147 665.598 219.68 667.678 219.68C669.704 219.68 671.544 219.147 673.198 218.08C674.851 216.96 676.158 215.467 677.118 213.6C678.131 211.68 678.638 209.493 678.638 207.04C678.638 204.64 678.131 202.48 677.118 200.56C676.158 198.64 674.851 197.147 673.198 196.08C671.544 195.013 669.704 194.48 667.678 194.48C665.598 194.48 663.731 195.04 662.078 196.16C660.424 197.227 659.118 198.72 658.158 200.64C657.198 202.507 656.718 204.667 656.718 207.12ZM696.833 228V186.08H707.553V228H696.833ZM696.833 180.24V169.6H707.553V180.24H696.833ZM756.184 228H745.464V204.48C745.464 201.12 744.877 198.667 743.704 197.12C742.53 195.573 740.904 194.8 738.824 194.8C737.384 194.8 735.917 195.173 734.424 195.92C732.984 196.667 731.677 197.707 730.504 199.04C729.33 200.32 728.477 201.813 727.944 203.52V228H717.224V186.08H726.904V193.84C727.97 192.027 729.33 190.507 730.984 189.28C732.637 188 734.53 187.04 736.664 186.4C738.85 185.707 741.144 185.36 743.544 185.36C746.157 185.36 748.29 185.84 749.944 186.8C751.65 187.707 752.93 188.96 753.784 190.56C754.69 192.107 755.304 193.867 755.624 195.84C755.997 197.813 756.184 199.813 756.184 201.84V228ZM110 308H99.28V284.48C99.28 281.173 98.6933 278.747 97.52 277.2C96.4 275.6 94.8267 274.8 92.8 274.8C90.72 274.8 88.72 275.627 86.8 277.28C84.9333 278.88 83.6 280.987 82.8 283.6V308H72.08V284.48C72.08 281.12 71.4933 278.667 70.32 277.12C69.2 275.573 67.6267 274.8 65.6 274.8C63.52 274.8 61.52 275.6 59.6 277.2C57.7333 278.8 56.4 280.907 55.6 283.52V308H44.88V266.08H54.56V273.84C56.16 271.12 58.2933 269.04 60.96 267.6C63.6267 266.107 66.6933 265.36 70.16 265.36C73.6267 265.36 76.32 266.213 78.24 267.92C80.2133 269.627 81.4667 271.733 82 274.24C83.7067 271.36 85.8667 269.173 88.48 267.68C91.1467 266.133 94.1333 265.36 97.44 265.36C100.053 265.36 102.16 265.84 103.76 266.8C105.413 267.707 106.693 268.96 107.6 270.56C108.507 272.107 109.12 273.867 109.44 275.84C109.813 277.813 110 279.813 110 281.84V308ZM119.51 316.16C120.47 316.373 121.35 316.56 122.15 316.72C123.003 316.88 123.723 316.96 124.31 316.96C125.323 316.96 126.15 316.693 126.79 316.16C127.483 315.68 128.15 314.773 128.79 313.44C129.43 312.16 130.097 310.347 130.79 308L114.23 266.08H125.35L136.63 297.04L146.55 266.08H156.79L139.19 316.32C138.55 318.187 137.563 319.867 136.23 321.36C134.95 322.907 133.323 324.107 131.35 324.96C129.43 325.867 127.27 326.32 124.87 326.32C124.017 326.32 123.163 326.24 122.31 326.08C121.457 325.973 120.523 325.76 119.51 325.44V316.16ZM218.762 308H208.042V284.48C208.042 281.12 207.455 278.667 206.282 277.12C205.109 275.573 203.482 274.8 201.402 274.8C199.962 274.8 198.495 275.173 197.002 275.92C195.562 276.667 194.255 277.707 193.082 279.04C191.909 280.32 191.055 281.813 190.522 283.52V308H179.802V266.08H189.482V273.84C190.549 272.027 191.909 270.507 193.562 269.28C195.215 268 197.109 267.04 199.242 266.4C201.429 265.707 203.722 265.36 206.122 265.36C208.735 265.36 210.869 265.84 212.522 266.8C214.229 267.707 215.509 268.96 216.362 270.56C217.269 272.107 217.882 273.867 218.202 275.84C218.575 277.813 218.762 279.813 218.762 281.84V308ZM247.523 308.8C244.163 308.8 241.123 308.24 238.403 307.12C235.683 305.947 233.363 304.373 231.443 302.4C229.523 300.373 228.03 298.08 226.963 295.52C225.95 292.907 225.443 290.16 225.443 287.28C225.443 283.28 226.323 279.627 228.083 276.32C229.896 273.013 232.456 270.373 235.763 268.4C239.123 266.373 243.07 265.36 247.603 265.36C252.19 265.36 256.11 266.373 259.363 268.4C262.616 270.373 265.096 273.013 266.803 276.32C268.563 279.573 269.443 283.093 269.443 286.88C269.443 287.52 269.416 288.187 269.363 288.88C269.31 289.52 269.256 290.053 269.203 290.48H236.803C237.016 292.613 237.63 294.48 238.643 296.08C239.71 297.68 241.043 298.907 242.643 299.76C244.296 300.56 246.056 300.96 247.923 300.96C250.056 300.96 252.056 300.453 253.923 299.44C255.843 298.373 257.15 296.987 257.843 295.28L267.043 297.84C266.03 299.973 264.563 301.867 262.643 303.52C260.776 305.173 258.563 306.48 256.003 307.44C253.443 308.347 250.616 308.8 247.523 308.8ZM236.563 283.68H258.483C258.27 281.547 257.656 279.707 256.643 278.16C255.683 276.56 254.403 275.333 252.803 274.48C251.203 273.573 249.416 273.12 247.443 273.12C245.523 273.12 243.763 273.573 242.163 274.48C240.616 275.333 239.336 276.56 238.323 278.16C237.363 279.707 236.776 281.547 236.563 283.68ZM300.703 305.84C299.796 306.213 298.703 306.64 297.423 307.12C296.143 307.6 294.756 307.973 293.263 308.24C291.823 308.56 290.356 308.72 288.863 308.72C286.89 308.72 285.076 308.373 283.423 307.68C281.77 306.987 280.436 305.893 279.423 304.4C278.463 302.853 277.983 300.853 277.983 298.4V274.32H272.463V266.08H277.983V252.48H288.703V266.08H297.503V274.32H288.703V294.8C288.756 296.24 289.156 297.28 289.903 297.92C290.65 298.56 291.583 298.88 292.703 298.88C293.823 298.88 294.916 298.693 295.983 298.32C297.05 297.947 297.903 297.627 298.543 297.36L300.703 305.84ZM358.13 266.08H368.29L350.77 308H341.81L334.77 290L327.89 308H318.85L301.41 266.08H311.49L323.97 297.76L328.85 284.08L321.57 266.16H330.45L334.77 278.96L339.17 266.16H348.05L340.77 284.08L345.73 297.76L358.13 266.08ZM391.193 308.8C387.78 308.8 384.713 308.24 381.993 307.12C379.273 305.947 376.953 304.347 375.033 302.32C373.166 300.293 371.726 297.973 370.713 295.36C369.7 292.747 369.193 290 369.193 287.12C369.193 284.187 369.7 281.413 370.713 278.8C371.726 276.187 373.166 273.867 375.033 271.84C376.953 269.813 379.273 268.24 381.993 267.12C384.713 265.947 387.78 265.36 391.193 265.36C394.606 265.36 397.646 265.947 400.313 267.12C403.033 268.24 405.353 269.813 407.273 271.84C409.193 273.867 410.633 276.187 411.593 278.8C412.606 281.413 413.113 284.187 413.113 287.12C413.113 290 412.606 292.747 411.593 295.36C410.633 297.973 409.193 300.293 407.273 302.32C405.406 304.347 403.113 305.947 400.393 307.12C397.673 308.24 394.606 308.8 391.193 308.8ZM380.233 287.12C380.233 289.573 380.713 291.76 381.673 293.68C382.633 295.547 383.94 297.013 385.593 298.08C387.246 299.147 389.113 299.68 391.193 299.68C393.22 299.68 395.06 299.147 396.713 298.08C398.366 296.96 399.673 295.467 400.633 293.6C401.646 291.68 402.153 289.493 402.153 287.04C402.153 284.64 401.646 282.48 400.633 280.56C399.673 278.64 398.366 277.147 396.713 276.08C395.06 275.013 393.22 274.48 391.193 274.48C389.113 274.48 387.246 275.04 385.593 276.16C383.94 277.227 382.633 278.72 381.673 280.64C380.713 282.507 380.233 284.667 380.233 287.12ZM445.309 275.36C442.055 275.36 439.149 276 436.589 277.28C434.029 278.507 432.189 280.293 431.069 282.64V308H420.349V266.08H430.189V275.04C431.682 272.16 433.575 269.893 435.869 268.24C438.162 266.587 440.589 265.68 443.149 265.52C443.735 265.52 444.189 265.52 444.509 265.52C444.829 265.52 445.095 265.547 445.309 265.6V275.36ZM479.926 308L467.686 289.92L462.006 295.52V308H451.286V249.6H462.006V284.96L478.886 266.16H490.246L474.646 283.92L491.366 308H479.926ZM500.776 289.36C500.776 287.653 500.936 286.053 501.256 284.56C501.629 283.013 502.296 281.6 503.256 280.32C504.216 279.04 505.576 277.893 507.336 276.88C508.082 276.4 509.042 275.84 510.216 275.2C511.442 274.56 512.616 273.84 513.736 273.04C514.856 272.187 515.789 271.2 516.536 270.08C517.336 268.907 517.736 267.573 517.736 266.08C517.736 264.587 517.362 263.333 516.616 262.32C515.922 261.307 514.989 260.533 513.816 260C512.696 259.467 511.469 259.2 510.136 259.2C508.589 259.2 507.202 259.547 505.976 260.24C504.749 260.88 503.709 261.68 502.856 262.64C502.002 263.6 501.282 264.587 500.696 265.6L493.736 260.8C494.696 258.613 496.002 256.747 497.656 255.2C499.362 253.653 501.309 252.48 503.496 251.68C505.736 250.88 508.056 250.48 510.456 250.48C512.482 250.48 514.482 250.8 516.456 251.44C518.429 252.027 520.216 252.96 521.816 254.24C523.416 255.52 524.696 257.147 525.656 259.12C526.616 261.093 527.096 263.467 527.096 266.24C527.096 267.947 526.882 269.467 526.456 270.8C526.082 272.133 525.522 273.333 524.776 274.4C524.082 275.413 523.202 276.347 522.136 277.2C521.069 278.053 519.922 278.88 518.696 279.68C517.309 280.533 515.896 281.36 514.456 282.16C513.069 282.96 511.896 283.92 510.936 285.04C510.029 286.107 509.576 287.547 509.576 289.36H500.776ZM500.936 308V296.96H509.816V308H500.936Z" fill="#0022D5"/>
</svg>
