<svg width="561" height="239" viewBox="0 0 561 239" fill="none" xmlns="http://www.w3.org/2000/svg">
<path d="M3.8 45V2.4H10.52V45H3.8ZM34.1919 1.2H40.7919V35.94C40.7919 37.54 41.0319 38.56 41.5119 39C41.9919 39.44 42.5919 39.66 43.3119 39.66C44.1119 39.66 44.8519 39.58 45.5319 39.42C46.2519 39.26 46.8719 39.06 47.3919 38.82L48.3519 44.04C47.3919 44.44 46.2519 44.78 44.9319 45.06C43.6119 45.34 42.4319 45.48 41.3919 45.48C39.1519 45.48 37.3919 44.86 36.1119 43.62C34.8319 42.34 34.1919 40.58 34.1919 38.34V1.2ZM52.1787 45V13.62H58.7788V45H52.1787ZM52.1787 8.46V1.2H58.7788V8.46H52.1787ZM88.55 45L78.47 30.54L73.31 35.46V45H66.71V1.2H73.31V28.8L87.83 13.68H94.91L82.73 26.82L95.57 45H88.55ZM112.16 45.6C109.72 45.6 107.5 45.18 105.5 44.34C103.54 43.46 101.84 42.28 100.4 40.8C98.9605 39.28 97.8405 37.56 97.0405 35.64C96.2805 33.68 95.9005 31.6 95.9005 29.4C95.9005 26.44 96.5805 23.74 97.9405 21.3C99.3005 18.82 101.2 16.84 103.64 15.36C106.08 13.84 108.94 13.08 112.22 13.08C115.5 13.08 118.32 13.84 120.68 15.36C123.08 16.84 124.94 18.8 126.26 21.24C127.58 23.68 128.24 26.3 128.24 29.1C128.24 29.58 128.22 30.04 128.18 30.48C128.14 30.88 128.1 31.22 128.06 31.5H102.92C103.04 33.34 103.54 34.96 104.42 36.36C105.34 37.72 106.5 38.8 107.9 39.6C109.3 40.36 110.8 40.74 112.4 40.74C114.16 40.74 115.82 40.3 117.38 39.42C118.98 38.54 120.06 37.38 120.62 35.94L126.26 37.56C125.58 39.08 124.54 40.46 123.14 41.7C121.78 42.9 120.16 43.86 118.28 44.58C116.4 45.26 114.36 45.6 112.16 45.6ZM102.74 27.12H121.7C121.58 25.32 121.06 23.74 120.14 22.38C119.26 20.98 118.12 19.9 116.72 19.14C115.36 18.34 113.84 17.94 112.16 17.94C110.52 17.94 109 18.34 107.6 19.14C106.24 19.9 105.12 20.98 104.24 22.38C103.36 23.74 102.86 25.32 102.74 27.12ZM165.908 43.38C165.348 43.66 164.648 43.96 163.808 44.28C162.968 44.6 162.008 44.88 160.928 45.12C159.888 45.36 158.808 45.48 157.688 45.48C156.328 45.48 155.068 45.24 153.908 44.76C152.748 44.28 151.808 43.52 151.088 42.48C150.408 41.4 150.068 40.02 150.068 38.34V18.72H145.928V13.62H150.068V3.3H156.668V13.62H163.508V18.72H156.668V36.24C156.748 37.32 157.088 38.12 157.688 38.64C158.328 39.16 159.108 39.42 160.028 39.42C160.948 39.42 161.828 39.26 162.668 38.94C163.508 38.62 164.128 38.36 164.528 38.16L165.908 43.38ZM184.169 45.6C181.689 45.6 179.469 45.18 177.509 44.34C175.549 43.46 173.849 42.26 172.409 40.74C171.009 39.22 169.929 37.5 169.169 35.58C168.409 33.62 168.029 31.54 168.029 29.34C168.029 27.14 168.409 25.06 169.169 23.1C169.929 21.14 171.009 19.42 172.409 17.94C173.849 16.42 175.549 15.24 177.509 14.4C179.509 13.52 181.729 13.08 184.169 13.08C186.609 13.08 188.809 13.52 190.769 14.4C192.769 15.24 194.469 16.42 195.869 17.94C197.309 19.42 198.409 21.14 199.169 23.1C199.929 25.06 200.309 27.14 200.309 29.34C200.309 31.54 199.929 33.62 199.169 35.58C198.409 37.5 197.309 39.22 195.869 40.74C194.469 42.26 192.769 43.46 190.769 44.34C188.809 45.18 186.609 45.6 184.169 45.6ZM174.809 29.4C174.809 31.4 175.229 33.2 176.069 34.8C176.909 36.4 178.029 37.66 179.429 38.58C180.829 39.5 182.409 39.96 184.169 39.96C185.889 39.96 187.449 39.5 188.849 38.58C190.289 37.62 191.429 36.34 192.269 34.74C193.109 33.1 193.529 31.3 193.529 29.34C193.529 27.34 193.109 25.54 192.269 23.94C191.429 22.34 190.289 21.08 188.849 20.16C187.449 19.2 185.889 18.72 184.169 18.72C182.409 18.72 180.829 19.2 179.429 20.16C178.029 21.12 176.909 22.4 176.069 24C175.229 25.56 174.809 27.36 174.809 29.4ZM235.207 45.6C232.767 45.6 230.547 45.18 228.547 44.34C226.587 43.46 224.887 42.26 223.447 40.74C222.007 39.22 220.887 37.48 220.087 35.52C219.327 33.56 218.947 31.48 218.947 29.28C218.947 26.32 219.607 23.62 220.927 21.18C222.287 18.74 224.167 16.78 226.567 15.3C229.007 13.82 231.887 13.08 235.207 13.08C238.407 13.08 241.187 13.8 243.547 15.24C245.947 16.64 247.707 18.52 248.827 20.88L242.407 22.92C241.687 21.6 240.667 20.58 239.347 19.86C238.067 19.1 236.647 18.72 235.087 18.72C233.327 18.72 231.727 19.18 230.287 20.1C228.887 20.98 227.767 22.22 226.927 23.82C226.127 25.38 225.727 27.2 225.727 29.28C225.727 31.28 226.147 33.1 226.987 34.74C227.827 36.34 228.947 37.62 230.347 38.58C231.787 39.5 233.387 39.96 235.147 39.96C236.227 39.96 237.267 39.78 238.267 39.42C239.307 39.02 240.207 38.5 240.967 37.86C241.727 37.18 242.267 36.44 242.587 35.64L249.067 37.56C248.387 39.12 247.367 40.5 246.007 41.7C244.687 42.9 243.107 43.86 241.267 44.58C239.467 45.26 237.447 45.6 235.207 45.6ZM252.223 35.82C252.223 33.82 252.783 32.08 253.903 30.6C255.063 29.08 256.643 27.92 258.643 27.12C260.643 26.28 262.963 25.86 265.603 25.86C267.003 25.86 268.423 25.96 269.863 26.16C271.343 26.36 272.643 26.68 273.763 27.12V25.14C273.763 22.94 273.103 21.22 271.783 19.98C270.463 18.74 268.563 18.12 266.083 18.12C264.323 18.12 262.663 18.44 261.103 19.08C259.543 19.68 257.883 20.54 256.123 21.66L253.903 17.22C255.983 15.82 258.063 14.78 260.143 14.1C262.263 13.42 264.483 13.08 266.803 13.08C271.003 13.08 274.303 14.2 276.703 16.44C279.143 18.64 280.363 21.78 280.363 25.86V37.56C280.363 38.32 280.483 38.86 280.723 39.18C281.003 39.5 281.463 39.68 282.103 39.72V45C281.503 45.12 280.963 45.2 280.483 45.24C280.003 45.28 279.603 45.3 279.283 45.3C277.883 45.3 276.823 44.96 276.103 44.28C275.383 43.6 274.963 42.8 274.843 41.88L274.663 40.08C273.303 41.84 271.563 43.2 269.443 44.16C267.323 45.12 265.183 45.6 263.023 45.6C260.943 45.6 259.083 45.18 257.443 44.34C255.803 43.46 254.523 42.28 253.603 40.8C252.683 39.32 252.223 37.66 252.223 35.82ZM272.203 37.74C272.683 37.22 273.063 36.7 273.343 36.18C273.623 35.66 273.763 35.2 273.763 34.8V31.2C272.643 30.76 271.463 30.44 270.223 30.24C268.983 30 267.763 29.88 266.563 29.88C264.163 29.88 262.203 30.36 260.683 31.32C259.203 32.28 258.463 33.6 258.463 35.28C258.463 36.2 258.703 37.08 259.183 37.92C259.703 38.76 260.423 39.44 261.343 39.96C262.303 40.48 263.483 40.74 264.883 40.74C266.323 40.74 267.703 40.46 269.023 39.9C270.343 39.34 271.403 38.62 272.203 37.74ZM288.43 1.2H295.03V35.94C295.03 37.54 295.27 38.56 295.75 39C296.23 39.44 296.83 39.66 297.55 39.66C298.35 39.66 299.09 39.58 299.77 39.42C300.49 39.26 301.11 39.06 301.63 38.82L302.59 44.04C301.63 44.44 300.49 44.78 299.17 45.06C297.85 45.34 296.67 45.48 295.63 45.48C293.39 45.48 291.63 44.86 290.35 43.62C289.07 42.34 288.43 40.58 288.43 38.34V1.2ZM306.477 1.2H313.077V35.94C313.077 37.54 313.317 38.56 313.797 39C314.277 39.44 314.877 39.66 315.597 39.66C316.397 39.66 317.137 39.58 317.817 39.42C318.537 39.26 319.157 39.06 319.677 38.82L320.637 44.04C319.677 44.44 318.537 44.78 317.217 45.06C315.897 45.34 314.717 45.48 313.677 45.48C311.437 45.48 309.677 44.86 308.397 43.62C307.117 42.34 306.477 40.58 306.477 38.34V1.2ZM385.589 45H378.989V27.42C378.989 24.5 378.509 22.36 377.549 21C376.589 19.64 375.189 18.96 373.349 18.96C371.509 18.96 369.789 19.66 368.189 21.06C366.629 22.42 365.529 24.2 364.889 26.4V45H358.289V27.42C358.289 24.5 357.809 22.36 356.849 21C355.889 19.64 354.509 18.96 352.709 18.96C350.869 18.96 349.149 19.64 347.549 21C345.989 22.36 344.869 24.14 344.189 26.34V45H337.589V13.62H343.589V19.92C344.829 17.72 346.449 16.04 348.449 14.88C350.489 13.68 352.809 13.08 355.409 13.08C358.009 13.08 360.049 13.76 361.529 15.12C363.049 16.48 363.989 18.18 364.349 20.22C365.709 17.9 367.369 16.14 369.329 14.94C371.329 13.7 373.609 13.08 376.169 13.08C378.009 13.08 379.549 13.42 380.789 14.1C382.029 14.78 382.989 15.72 383.669 16.92C384.349 18.08 384.829 19.44 385.109 21C385.429 22.52 385.589 24.14 385.589 25.86V45ZM393.688 52.38C394.288 52.46 394.868 52.54 395.428 52.62C396.028 52.74 396.508 52.8 396.868 52.8C397.548 52.8 398.128 52.58 398.608 52.14C399.128 51.74 399.648 50.98 400.168 49.86C400.688 48.74 401.328 47.12 402.088 45L389.188 13.62H396.088L405.688 38.28L414.208 13.62H420.568L406.348 52.26C405.908 53.42 405.268 54.48 404.428 55.44C403.588 56.44 402.548 57.22 401.308 57.78C400.068 58.34 398.608 58.62 396.928 58.62C396.448 58.62 395.948 58.58 395.428 58.5C394.908 58.42 394.328 58.3 393.688 58.14V52.38ZM435.761 45.6C433.121 45.6 430.621 45.18 428.261 44.34C425.901 43.46 423.881 42.16 422.201 40.44L424.661 36C426.461 37.6 428.261 38.76 430.061 39.48C431.901 40.2 433.721 40.56 435.521 40.56C437.361 40.56 438.861 40.22 440.021 39.54C441.181 38.82 441.761 37.78 441.761 36.42C441.761 35.42 441.461 34.68 440.861 34.2C440.261 33.72 439.381 33.3 438.221 32.94C437.101 32.58 435.741 32.18 434.141 31.74C431.901 31.06 430.021 30.36 428.501 29.64C426.981 28.88 425.841 27.96 425.081 26.88C424.321 25.8 423.941 24.42 423.941 22.74C423.941 20.7 424.461 18.96 425.501 17.52C426.541 16.08 427.981 14.98 429.821 14.22C431.701 13.46 433.861 13.08 436.301 13.08C438.581 13.08 440.681 13.44 442.601 14.16C444.561 14.84 446.281 15.92 447.761 17.4L444.941 21.78C443.541 20.5 442.101 19.56 440.621 18.96C439.181 18.36 437.621 18.06 435.941 18.06C434.981 18.06 434.061 18.18 433.181 18.42C432.301 18.62 431.561 19.02 430.961 19.62C430.401 20.18 430.121 20.98 430.121 22.02C430.121 22.86 430.361 23.54 430.841 24.06C431.321 24.58 432.041 25.02 433.001 25.38C433.961 25.74 435.141 26.14 436.541 26.58C438.981 27.3 441.061 28.02 442.781 28.74C444.501 29.42 445.821 30.32 446.741 31.44C447.701 32.52 448.181 34.02 448.181 35.94C448.181 38.98 447.041 41.36 444.761 43.08C442.521 44.76 439.521 45.6 435.761 45.6ZM468.293 45.6C465.853 45.6 463.633 45.18 461.633 44.34C459.673 43.46 457.973 42.28 456.533 40.8C455.093 39.28 453.973 37.56 453.173 35.64C452.413 33.68 452.033 31.6 452.033 29.4C452.033 26.44 452.713 23.74 454.073 21.3C455.433 18.82 457.333 16.84 459.773 15.36C462.213 13.84 465.073 13.08 468.353 13.08C471.633 13.08 474.453 13.84 476.813 15.36C479.213 16.84 481.073 18.8 482.393 21.24C483.713 23.68 484.373 26.3 484.373 29.1C484.373 29.58 484.353 30.04 484.313 30.48C484.273 30.88 484.233 31.22 484.193 31.5H459.053C459.173 33.34 459.673 34.96 460.553 36.36C461.473 37.72 462.633 38.8 464.033 39.6C465.433 40.36 466.933 40.74 468.533 40.74C470.293 40.74 471.953 40.3 473.513 39.42C475.113 38.54 476.193 37.38 476.753 35.94L482.393 37.56C481.713 39.08 480.673 40.46 479.273 41.7C477.913 42.9 476.293 43.86 474.413 44.58C472.533 45.26 470.493 45.6 468.293 45.6ZM458.873 27.12H477.833C477.713 25.32 477.193 23.74 476.273 22.38C475.393 20.98 474.253 19.9 472.853 19.14C471.493 18.34 469.973 17.94 468.293 17.94C466.653 17.94 465.133 18.34 463.733 19.14C462.373 19.9 461.253 20.98 460.373 22.38C459.493 23.74 458.993 25.32 458.873 27.12ZM489.817 1.2H496.417V35.94C496.417 37.54 496.657 38.56 497.137 39C497.617 39.44 498.217 39.66 498.937 39.66C499.737 39.66 500.477 39.58 501.157 39.42C501.877 39.26 502.497 39.06 503.017 38.82L503.977 44.04C503.017 44.44 501.877 44.78 500.557 45.06C499.237 45.34 498.057 45.48 497.017 45.48C494.777 45.48 493.017 44.86 491.737 43.62C490.457 42.34 489.817 40.58 489.817 38.34V1.2ZM509.487 45V19.5H505.287V14.4H509.487V13.14C509.487 10.58 509.887 8.36 510.687 6.48C511.527 4.6 512.687 3.16 514.167 2.16C515.687 1.12 517.467 0.599999 519.507 0.599999C520.787 0.599999 522.047 0.779999 523.287 1.14C524.527 1.46 525.707 1.92 526.827 2.52L525.387 7.44C524.787 7.04 524.067 6.74 523.227 6.54C522.427 6.3 521.647 6.18 520.887 6.18C519.367 6.18 518.187 6.76 517.347 7.92C516.507 9.08 516.087 10.76 516.087 12.96V14.4H524.127V19.5H516.087V45H509.487ZM0.98 149.34C0.98 146.34 1.58 143.62 2.78 141.18C4.02 138.7 5.7 136.74 7.82 135.3C9.94 133.82 12.38 133.08 15.14 133.08C17.54 133.08 19.7 133.7 21.62 134.94C23.58 136.18 25.1 137.72 26.18 139.56V121.2H32.78V157.56C32.78 158.32 32.92 158.86 33.2 159.18C33.48 159.5 33.94 159.68 34.58 159.72V165C33.34 165.2 32.38 165.3 31.7 165.3C30.46 165.3 29.4 164.94 28.52 164.22C27.68 163.5 27.24 162.64 27.2 161.64L27.14 159.3C25.94 161.3 24.32 162.86 22.28 163.98C20.24 165.06 18.12 165.6 15.92 165.6C13.76 165.6 11.76 165.18 9.92 164.34C8.12 163.5 6.54 162.32 5.18 160.8C3.86 159.28 2.82 157.54 2.06 155.58C1.34 153.62 0.98 151.54 0.98 149.34ZM26.18 153.72V145.5C25.74 144.22 25.02 143.08 24.02 142.08C23.06 141.04 21.96 140.22 20.72 139.62C19.52 139.02 18.32 138.72 17.12 138.72C15.72 138.72 14.44 139.02 13.28 139.62C12.16 140.22 11.18 141.02 10.34 142.02C9.54 143.02 8.92 144.16 8.48 145.44C8.04 146.72 7.82 148.06 7.82 149.46C7.82 150.9 8.06 152.26 8.54 153.54C9.02 154.78 9.7 155.9 10.58 156.9C11.5 157.86 12.54 158.62 13.7 159.18C14.9 159.7 16.2 159.96 17.6 159.96C18.48 159.96 19.36 159.8 20.24 159.48C21.16 159.16 22.02 158.72 22.82 158.16C23.66 157.6 24.36 156.94 24.92 156.18C25.52 155.42 25.94 154.6 26.18 153.72ZM55.2631 165.6C52.7831 165.6 50.5631 165.18 48.6031 164.34C46.6431 163.46 44.9431 162.26 43.5031 160.74C42.1031 159.22 41.0231 157.5 40.2631 155.58C39.5031 153.62 39.1231 151.54 39.1231 149.34C39.1231 147.14 39.5031 145.06 40.2631 143.1C41.0231 141.14 42.1031 139.42 43.5031 137.94C44.9431 136.42 46.6431 135.24 48.6031 134.4C50.6031 133.52 52.8231 133.08 55.2631 133.08C57.7031 133.08 59.9031 133.52 61.8631 134.4C63.8631 135.24 65.5631 136.42 66.9631 137.94C68.4031 139.42 69.5031 141.14 70.2631 143.1C71.0231 145.06 71.4031 147.14 71.4031 149.34C71.4031 151.54 71.0231 153.62 70.2631 155.58C69.5031 157.5 68.4031 159.22 66.9631 160.74C65.5631 162.26 63.8631 163.46 61.8631 164.34C59.9031 165.18 57.7031 165.6 55.2631 165.6ZM45.9031 149.4C45.9031 151.4 46.3231 153.2 47.1631 154.8C48.0031 156.4 49.1231 157.66 50.5231 158.58C51.9231 159.5 53.5031 159.96 55.2631 159.96C56.9831 159.96 58.5431 159.5 59.9431 158.58C61.3831 157.62 62.5231 156.34 63.3631 154.74C64.2031 153.1 64.6231 151.3 64.6231 149.34C64.6231 147.34 64.2031 145.54 63.3631 143.94C62.5231 142.34 61.3831 141.08 59.9431 140.16C58.5431 139.2 56.9831 138.72 55.2631 138.72C53.5031 138.72 51.9231 139.2 50.5231 140.16C49.1231 141.12 48.0031 142.4 47.1631 144C46.3231 145.56 45.9031 147.36 45.9031 149.4ZM91.5205 172.38C92.1205 172.46 92.7005 172.54 93.2605 172.62C93.8605 172.74 94.3405 172.8 94.7005 172.8C95.3805 172.8 95.9605 172.58 96.4405 172.14C96.9605 171.74 97.4805 170.98 98.0005 169.86C98.5205 168.74 99.1605 167.12 99.9205 165L87.0205 133.62H93.9205L103.52 158.28L112.04 133.62H118.4L104.18 172.26C103.74 173.42 103.1 174.48 102.26 175.44C101.42 176.44 100.38 177.22 99.1405 177.78C97.9005 178.34 96.4405 178.62 94.7605 178.62C94.2805 178.62 93.7805 178.58 93.2605 178.5C92.7405 178.42 92.1605 178.3 91.5205 178.14V172.38ZM136.298 165.6C133.818 165.6 131.598 165.18 129.638 164.34C127.678 163.46 125.978 162.26 124.538 160.74C123.138 159.22 122.058 157.5 121.298 155.58C120.538 153.62 120.158 151.54 120.158 149.34C120.158 147.14 120.538 145.06 121.298 143.1C122.058 141.14 123.138 139.42 124.538 137.94C125.978 136.42 127.678 135.24 129.638 134.4C131.638 133.52 133.858 133.08 136.298 133.08C138.738 133.08 140.938 133.52 142.898 134.4C144.898 135.24 146.598 136.42 147.998 137.94C149.438 139.42 150.538 141.14 151.298 143.1C152.058 145.06 152.438 147.14 152.438 149.34C152.438 151.54 152.058 153.62 151.298 155.58C150.538 157.5 149.438 159.22 147.998 160.74C146.598 162.26 144.898 163.46 142.898 164.34C140.938 165.18 138.738 165.6 136.298 165.6ZM126.938 149.4C126.938 151.4 127.358 153.2 128.198 154.8C129.038 156.4 130.158 157.66 131.558 158.58C132.958 159.5 134.538 159.96 136.298 159.96C138.018 159.96 139.578 159.5 140.978 158.58C142.418 157.62 143.558 156.34 144.398 154.74C145.238 153.1 145.658 151.3 145.658 149.34C145.658 147.34 145.238 145.54 144.398 143.94C143.558 142.34 142.418 141.08 140.978 140.16C139.578 139.2 138.018 138.72 136.298 138.72C134.538 138.72 132.958 139.2 131.558 140.16C130.158 141.12 129.038 142.4 128.198 144C127.358 145.56 126.938 147.36 126.938 149.4ZM157.992 152.82V133.62H164.592V151.5C164.592 154.3 165.092 156.42 166.092 157.86C167.132 159.26 168.632 159.96 170.592 159.96C171.832 159.96 173.032 159.7 174.192 159.18C175.392 158.66 176.472 157.9 177.432 156.9C178.432 155.86 179.232 154.62 179.832 153.18V133.62H186.432V157.56C186.432 158.32 186.572 158.86 186.852 159.18C187.132 159.5 187.592 159.68 188.232 159.72V165C187.552 165.12 186.992 165.2 186.552 165.24C186.112 165.28 185.692 165.3 185.292 165.3C184.092 165.3 183.092 164.98 182.292 164.34C181.492 163.66 181.032 162.8 180.912 161.76L180.792 158.64C179.392 160.92 177.572 162.66 175.332 163.86C173.092 165.02 170.632 165.6 167.952 165.6C164.672 165.6 162.192 164.52 160.512 162.36C158.832 160.2 157.992 157.02 157.992 152.82ZM247.1 133.62H253.4L240.2 165H234.56L228.92 150.84L223.28 165H217.64L204.38 133.62H210.68L220.76 158.58L225.2 147L219.8 133.68H225.38L228.92 143.46L232.4 133.68H237.98L232.64 147L237.08 158.58L247.1 133.62ZM254.743 155.82C254.743 153.82 255.303 152.08 256.423 150.6C257.583 149.08 259.163 147.92 261.163 147.12C263.163 146.28 265.483 145.86 268.123 145.86C269.523 145.86 270.943 145.96 272.383 146.16C273.863 146.36 275.163 146.68 276.283 147.12V145.14C276.283 142.94 275.623 141.22 274.303 139.98C272.983 138.74 271.083 138.12 268.603 138.12C266.843 138.12 265.183 138.44 263.623 139.08C262.063 139.68 260.403 140.54 258.643 141.66L256.423 137.22C258.503 135.82 260.583 134.78 262.663 134.1C264.783 133.42 267.003 133.08 269.323 133.08C273.523 133.08 276.823 134.2 279.223 136.44C281.663 138.64 282.883 141.78 282.883 145.86V157.56C282.883 158.32 283.003 158.86 283.243 159.18C283.523 159.5 283.983 159.68 284.623 159.72V165C284.023 165.12 283.483 165.2 283.003 165.24C282.523 165.28 282.123 165.3 281.803 165.3C280.403 165.3 279.343 164.96 278.623 164.28C277.903 163.6 277.483 162.8 277.363 161.88L277.183 160.08C275.823 161.84 274.083 163.2 271.963 164.16C269.843 165.12 267.703 165.6 265.543 165.6C263.463 165.6 261.603 165.18 259.963 164.34C258.323 163.46 257.043 162.28 256.123 160.8C255.203 159.32 254.743 157.66 254.743 155.82ZM274.723 157.74C275.203 157.22 275.583 156.7 275.863 156.18C276.143 155.66 276.283 155.2 276.283 154.8V151.2C275.163 150.76 273.983 150.44 272.743 150.24C271.503 150 270.283 149.88 269.083 149.88C266.683 149.88 264.723 150.36 263.203 151.32C261.723 152.28 260.982 153.6 260.982 155.28C260.982 156.2 261.223 157.08 261.703 157.92C262.223 158.76 262.943 159.44 263.863 159.96C264.823 160.48 266.003 160.74 267.403 160.74C268.843 160.74 270.223 160.46 271.543 159.9C272.863 159.34 273.923 158.62 274.723 157.74ZM319.03 165H312.43V147.42C312.43 144.5 311.95 142.36 310.99 141C310.07 139.64 308.69 138.96 306.85 138.96C305.57 138.96 304.29 139.28 303.01 139.92C301.77 140.56 300.65 141.44 299.65 142.56C298.65 143.64 297.93 144.9 297.49 146.34V165H290.89V133.62H296.89V139.92C297.69 138.52 298.73 137.32 300.01 136.32C301.33 135.28 302.81 134.48 304.45 133.92C306.09 133.36 307.83 133.08 309.67 133.08C311.55 133.08 313.09 133.42 314.29 134.1C315.53 134.78 316.49 135.72 317.17 136.92C317.89 138.08 318.37 139.44 318.61 141C318.89 142.52 319.03 144.14 319.03 145.86V165ZM343.916 163.38C343.356 163.66 342.656 163.96 341.816 164.28C340.976 164.6 340.016 164.88 338.936 165.12C337.896 165.36 336.816 165.48 335.696 165.48C334.336 165.48 333.076 165.24 331.916 164.76C330.756 164.28 329.816 163.52 329.096 162.48C328.416 161.4 328.076 160.02 328.076 158.34V138.72H323.936V133.62H328.076V123.3H334.676V133.62H341.516V138.72H334.676V156.24C334.756 157.32 335.096 158.12 335.696 158.64C336.336 159.16 337.116 159.42 338.036 159.42C338.956 159.42 339.836 159.26 340.676 158.94C341.516 158.62 342.136 158.36 342.536 158.16L343.916 163.38ZM380.772 163.38C380.212 163.66 379.512 163.96 378.672 164.28C377.832 164.6 376.872 164.88 375.792 165.12C374.752 165.36 373.672 165.48 372.552 165.48C371.192 165.48 369.932 165.24 368.772 164.76C367.612 164.28 366.672 163.52 365.952 162.48C365.272 161.4 364.932 160.02 364.932 158.34V138.72H360.792V133.62H364.932V123.3H371.532V133.62H378.372V138.72H371.532V156.24C371.612 157.32 371.952 158.12 372.552 158.64C373.192 159.16 373.972 159.42 374.892 159.42C375.812 159.42 376.692 159.26 377.532 158.94C378.372 158.62 378.992 158.36 379.392 158.16L380.772 163.38ZM399.033 165.6C396.553 165.6 394.333 165.18 392.373 164.34C390.413 163.46 388.713 162.26 387.273 160.74C385.873 159.22 384.793 157.5 384.033 155.58C383.273 153.62 382.893 151.54 382.893 149.34C382.893 147.14 383.273 145.06 384.033 143.1C384.793 141.14 385.873 139.42 387.273 137.94C388.713 136.42 390.413 135.24 392.373 134.4C394.373 133.52 396.593 133.08 399.033 133.08C401.473 133.08 403.673 133.52 405.633 134.4C407.633 135.24 409.333 136.42 410.733 137.94C412.173 139.42 413.273 141.14 414.033 143.1C414.793 145.06 415.173 147.14 415.173 149.34C415.173 151.54 414.793 153.62 414.033 155.58C413.273 157.5 412.173 159.22 410.733 160.74C409.333 162.26 407.633 163.46 405.633 164.34C403.673 165.18 401.473 165.6 399.033 165.6ZM389.673 149.4C389.673 151.4 390.093 153.2 390.933 154.8C391.773 156.4 392.893 157.66 394.293 158.58C395.693 159.5 397.273 159.96 399.033 159.96C400.753 159.96 402.313 159.5 403.713 158.58C405.153 157.62 406.293 156.34 407.133 154.74C407.973 153.1 408.393 151.3 408.393 149.34C408.393 147.34 407.973 145.54 407.133 143.94C406.293 142.34 405.153 141.08 403.713 140.16C402.313 139.2 400.753 138.72 399.033 138.72C397.273 138.72 395.693 139.2 394.293 140.16C392.893 141.12 391.773 142.4 390.933 144C390.093 145.56 389.673 147.36 389.673 149.4ZM432.551 176.46C431.111 176.46 429.751 176.24 428.471 175.8C427.151 175.36 425.991 174.68 424.991 173.76L427.931 169.32C428.411 169.8 429.011 170.14 429.731 170.34C430.411 170.58 431.091 170.7 431.771 170.7C432.571 170.7 433.291 170.5 433.931 170.1C434.611 169.7 435.151 169.14 435.551 168.42C435.991 167.74 436.211 166.98 436.211 166.14V133.62H442.811V165.66C442.811 167.74 442.331 169.6 441.371 171.24C440.451 172.88 439.211 174.16 437.651 175.08C436.131 176 434.431 176.46 432.551 176.46ZM436.211 128.46V121.2H442.811V128.46H436.211ZM464.833 165.6C462.353 165.6 460.133 165.18 458.173 164.34C456.213 163.46 454.513 162.26 453.073 160.74C451.673 159.22 450.593 157.5 449.833 155.58C449.073 153.62 448.693 151.54 448.693 149.34C448.693 147.14 449.073 145.06 449.833 143.1C450.593 141.14 451.673 139.42 453.073 137.94C454.513 136.42 456.213 135.24 458.173 134.4C460.173 133.52 462.393 133.08 464.833 133.08C467.273 133.08 469.473 133.52 471.433 134.4C473.433 135.24 475.133 136.42 476.533 137.94C477.973 139.42 479.073 141.14 479.833 143.1C480.593 145.06 480.973 147.14 480.973 149.34C480.973 151.54 480.593 153.62 479.833 155.58C479.073 157.5 477.973 159.22 476.533 160.74C475.133 162.26 473.433 163.46 471.433 164.34C469.473 165.18 467.273 165.6 464.833 165.6ZM455.473 149.4C455.473 151.4 455.893 153.2 456.733 154.8C457.573 156.4 458.693 157.66 460.093 158.58C461.493 159.5 463.073 159.96 464.833 159.96C466.553 159.96 468.113 159.5 469.513 158.58C470.953 157.62 472.093 156.34 472.933 154.74C473.773 153.1 474.193 151.3 474.193 149.34C474.193 147.34 473.773 145.54 472.933 143.94C472.093 142.34 470.953 141.08 469.513 140.16C468.113 139.2 466.553 138.72 464.833 138.72C463.073 138.72 461.493 139.2 460.093 140.16C458.693 141.12 457.573 142.4 456.733 144C455.893 145.56 455.473 147.36 455.473 149.4ZM486.827 165V133.62H493.427V165H486.827ZM486.827 128.46V121.2H493.427V128.46H486.827ZM529.498 165H522.898V147.42C522.898 144.5 522.418 142.36 521.458 141C520.538 139.64 519.158 138.96 517.318 138.96C516.038 138.96 514.758 139.28 513.478 139.92C512.238 140.56 511.118 141.44 510.118 142.56C509.118 143.64 508.398 144.9 507.958 146.34V165H501.358V133.62H507.358V139.92C508.158 138.52 509.198 137.32 510.478 136.32C511.798 135.28 513.278 134.48 514.918 133.92C516.558 133.36 518.298 133.08 520.138 133.08C522.018 133.08 523.558 133.42 524.758 134.1C525.998 134.78 526.958 135.72 527.638 136.92C528.358 138.08 528.838 139.44 529.078 141C529.358 142.52 529.498 144.14 529.498 145.86V165ZM50.96 225H44.36V207.42C44.36 204.5 43.88 202.36 42.92 201C41.96 199.64 40.56 198.96 38.72 198.96C36.88 198.96 35.16 199.66 33.56 201.06C32 202.42 30.9 204.2 30.26 206.4V225H23.66V207.42C23.66 204.5 23.18 202.36 22.22 201C21.26 199.64 19.88 198.96 18.08 198.96C16.24 198.96 14.52 199.64 12.92 201C11.36 202.36 10.24 204.14 9.56 206.34V225H2.96V193.62H8.96V199.92C10.2 197.72 11.82 196.04 13.82 194.88C15.86 193.68 18.18 193.08 20.78 193.08C23.38 193.08 25.42 193.76 26.9 195.12C28.42 196.48 29.36 198.18 29.72 200.22C31.08 197.9 32.74 196.14 34.7 194.94C36.7 193.7 38.98 193.08 41.54 193.08C43.38 193.08 44.92 193.42 46.16 194.1C47.4 194.78 48.36 195.72 49.04 196.92C49.72 198.08 50.2 199.44 50.48 201C50.8 202.52 50.96 204.14 50.96 205.86V225ZM59.0595 232.38C59.6595 232.46 60.2395 232.54 60.7995 232.62C61.3995 232.74 61.8795 232.8 62.2395 232.8C62.9195 232.8 63.4995 232.58 63.9795 232.14C64.4995 231.74 65.0195 230.98 65.5395 229.86C66.0595 228.74 66.6995 227.12 67.4595 225L54.5595 193.62H61.4595L71.0595 218.28L79.5795 193.62H85.9395L71.7195 232.26C71.2795 233.42 70.6395 234.48 69.7995 235.44C68.9595 236.44 67.9195 237.22 66.6795 237.78C65.4395 238.34 63.9795 238.62 62.2995 238.62C61.8195 238.62 61.3195 238.58 60.7995 238.5C60.2795 238.42 59.6995 238.3 59.0595 238.14V232.38Z" fill="#0022D5"/>
<path d="M17.18 105.6C14.74 105.6 12.52 105.18 10.52 104.34C8.56 103.46 6.86 102.26 5.42 100.74C3.98 99.22 2.86 97.48 2.06 95.52C1.3 93.56 0.92 91.48 0.92 89.28C0.92 86.32 1.58 83.62 2.9 81.18C4.26 78.74 6.14 76.78 8.54 75.3C10.98 73.82 13.86 73.08 17.18 73.08C20.38 73.08 23.16 73.8 25.52 75.24C27.92 76.64 29.68 78.52 30.8 80.88L24.38 82.92C23.66 81.6 22.64 80.58 21.32 79.86C20.04 79.1 18.62 78.72 17.06 78.72C15.3 78.72 13.7 79.18 12.26 80.1C10.86 80.98 9.74 82.22 8.9 83.82C8.1 85.38 7.7 87.2 7.7 89.28C7.7 91.28 8.12 93.1 8.96 94.74C9.8 96.34 10.92 97.62 12.32 98.58C13.76 99.5 15.36 99.96 17.12 99.96C18.2 99.96 19.24 99.78 20.24 99.42C21.28 99.02 22.18 98.5 22.94 97.86C23.7 97.18 24.24 96.44 24.56 95.64L31.04 97.56C30.36 99.12 29.34 100.5 27.98 101.7C26.66 102.9 25.08 103.86 23.24 104.58C21.44 105.26 19.42 105.6 17.18 105.6ZM50.2827 105.6C47.8027 105.6 45.5827 105.18 43.6227 104.34C41.6627 103.46 39.9627 102.26 38.5227 100.74C37.1227 99.22 36.0427 97.5 35.2827 95.58C34.5227 93.62 34.1427 91.54 34.1427 89.34C34.1427 87.14 34.5227 85.06 35.2827 83.1C36.0427 81.14 37.1227 79.42 38.5227 77.94C39.9627 76.42 41.6627 75.24 43.6227 74.4C45.6227 73.52 47.8427 73.08 50.2827 73.08C52.7227 73.08 54.9227 73.52 56.8827 74.4C58.8827 75.24 60.5827 76.42 61.9827 77.94C63.4227 79.42 64.5227 81.14 65.2827 83.1C66.0427 85.06 66.4227 87.14 66.4227 89.34C66.4227 91.54 66.0427 93.62 65.2827 95.58C64.5227 97.5 63.4227 99.22 61.9827 100.74C60.5827 102.26 58.8827 103.46 56.8827 104.34C54.9227 105.18 52.7227 105.6 50.2827 105.6ZM40.9227 89.4C40.9227 91.4 41.3427 93.2 42.1827 94.8C43.0227 96.4 44.1427 97.66 45.5427 98.58C46.9427 99.5 48.5227 99.96 50.2827 99.96C52.0027 99.96 53.5627 99.5 54.9627 98.58C56.4027 97.62 57.5427 96.34 58.3827 94.74C59.2227 93.1 59.6427 91.3 59.6427 89.34C59.6427 87.34 59.2227 85.54 58.3827 83.94C57.5427 82.34 56.4027 81.08 54.9627 80.16C53.5627 79.2 52.0027 78.72 50.2827 78.72C48.5227 78.72 46.9427 79.2 45.5427 80.16C44.1427 81.12 43.0227 82.4 42.1827 84C41.3427 85.56 40.9227 87.36 40.9227 89.4ZM100.416 105H93.8164V87.42C93.8164 84.5 93.3364 82.36 92.3764 81C91.4564 79.64 90.0764 78.96 88.2364 78.96C86.9564 78.96 85.6764 79.28 84.3964 79.92C83.1564 80.56 82.0364 81.44 81.0364 82.56C80.0364 83.64 79.3164 84.9 78.8764 86.34V105H72.2764V73.62H78.2764V79.92C79.0764 78.52 80.1164 77.32 81.3964 76.32C82.7164 75.28 84.1964 74.48 85.8364 73.92C87.4764 73.36 89.2164 73.08 91.0564 73.08C92.9364 73.08 94.4764 73.42 95.6764 74.1C96.9164 74.78 97.8764 75.72 98.5564 76.92C99.2764 78.08 99.7564 79.44 99.9964 81C100.276 82.52 100.416 84.14 100.416 85.86V105ZM136.217 105H129.617V87.42C129.617 84.5 129.137 82.36 128.177 81C127.257 79.64 125.877 78.96 124.037 78.96C122.757 78.96 121.477 79.28 120.197 79.92C118.957 80.56 117.837 81.44 116.837 82.56C115.837 83.64 115.117 84.9 114.677 86.34V105H108.077V73.62H114.077V79.92C114.877 78.52 115.917 77.32 117.197 76.32C118.517 75.28 119.997 74.48 121.637 73.92C123.277 73.36 125.017 73.08 126.857 73.08C128.737 73.08 130.277 73.42 131.477 74.1C132.717 74.78 133.677 75.72 134.357 76.92C135.077 78.08 135.557 79.44 135.797 81C136.077 82.52 136.217 84.14 136.217 85.86V105ZM158.098 105.6C155.658 105.6 153.438 105.18 151.438 104.34C149.478 103.46 147.778 102.28 146.338 100.8C144.898 99.28 143.778 97.56 142.978 95.64C142.218 93.68 141.838 91.6 141.838 89.4C141.838 86.44 142.518 83.74 143.878 81.3C145.238 78.82 147.138 76.84 149.578 75.36C152.018 73.84 154.878 73.08 158.158 73.08C161.438 73.08 164.258 73.84 166.618 75.36C169.018 76.84 170.878 78.8 172.198 81.24C173.518 83.68 174.178 86.3 174.178 89.1C174.178 89.58 174.158 90.04 174.118 90.48C174.078 90.88 174.038 91.22 173.998 91.5H148.858C148.978 93.34 149.478 94.96 150.358 96.36C151.278 97.72 152.438 98.8 153.838 99.6C155.238 100.36 156.738 100.74 158.338 100.74C160.098 100.74 161.758 100.3 163.318 99.42C164.918 98.54 165.998 97.38 166.558 95.94L172.198 97.56C171.518 99.08 170.478 100.46 169.078 101.7C167.718 102.9 166.098 103.86 164.218 104.58C162.338 105.26 160.298 105.6 158.098 105.6ZM148.678 87.12H167.638C167.518 85.32 166.998 83.74 166.078 82.38C165.198 80.98 164.058 79.9 162.658 79.14C161.298 78.34 159.778 77.94 158.098 77.94C156.458 77.94 154.938 78.34 153.538 79.14C152.178 79.9 151.058 80.98 150.178 82.38C149.298 83.74 148.798 85.32 148.678 87.12ZM193.782 105.6C191.342 105.6 189.122 105.18 187.122 104.34C185.162 103.46 183.462 102.26 182.022 100.74C180.582 99.22 179.462 97.48 178.662 95.52C177.902 93.56 177.522 91.48 177.522 89.28C177.522 86.32 178.182 83.62 179.502 81.18C180.862 78.74 182.742 76.78 185.142 75.3C187.582 73.82 190.462 73.08 193.782 73.08C196.982 73.08 199.762 73.8 202.122 75.24C204.522 76.64 206.282 78.52 207.402 80.88L200.982 82.92C200.262 81.6 199.242 80.58 197.922 79.86C196.642 79.1 195.222 78.72 193.662 78.72C191.902 78.72 190.302 79.18 188.862 80.1C187.462 80.98 186.342 82.22 185.502 83.82C184.702 85.38 184.302 87.2 184.302 89.28C184.302 91.28 184.722 93.1 185.562 94.74C186.402 96.34 187.522 97.62 188.922 98.58C190.362 99.5 191.962 99.96 193.722 99.96C194.802 99.96 195.842 99.78 196.842 99.42C197.882 99.02 198.782 98.5 199.542 97.86C200.302 97.18 200.842 96.44 201.162 95.64L207.642 97.56C206.962 99.12 205.942 100.5 204.582 101.7C203.262 102.9 201.682 103.86 199.842 104.58C198.042 105.26 196.022 105.6 193.782 105.6ZM230.537 103.38C229.977 103.66 229.277 103.96 228.437 104.28C227.597 104.6 226.637 104.88 225.557 105.12C224.517 105.36 223.437 105.48 222.317 105.48C220.957 105.48 219.697 105.24 218.537 104.76C217.377 104.28 216.437 103.52 215.717 102.48C215.037 101.4 214.697 100.02 214.697 98.34V78.72H210.557V73.62H214.697V63.3H221.297V73.62H228.137V78.72H221.297V96.24C221.377 97.32 221.717 98.12 222.317 98.64C222.957 99.16 223.737 99.42 224.657 99.42C225.577 99.42 226.457 99.26 227.297 98.94C228.137 98.62 228.757 98.36 229.157 98.16L230.537 103.38ZM235.108 105V73.62H241.708V105H235.108ZM235.108 68.46V61.2H241.708V68.46H235.108ZM263.74 105.6C261.26 105.6 259.04 105.18 257.08 104.34C255.12 103.46 253.42 102.26 251.98 100.74C250.58 99.22 249.5 97.5 248.74 95.58C247.98 93.62 247.6 91.54 247.6 89.34C247.6 87.14 247.98 85.06 248.74 83.1C249.5 81.14 250.58 79.42 251.98 77.94C253.42 76.42 255.12 75.24 257.08 74.4C259.08 73.52 261.3 73.08 263.74 73.08C266.18 73.08 268.38 73.52 270.34 74.4C272.34 75.24 274.04 76.42 275.44 77.94C276.88 79.42 277.98 81.14 278.74 83.1C279.5 85.06 279.88 87.14 279.88 89.34C279.88 91.54 279.5 93.62 278.74 95.58C277.98 97.5 276.88 99.22 275.44 100.74C274.04 102.26 272.34 103.46 270.34 104.34C268.38 105.18 266.18 105.6 263.74 105.6ZM254.38 89.4C254.38 91.4 254.8 93.2 255.64 94.8C256.48 96.4 257.6 97.66 259 98.58C260.4 99.5 261.98 99.96 263.74 99.96C265.46 99.96 267.02 99.5 268.42 98.58C269.86 97.62 271 96.34 271.84 94.74C272.68 93.1 273.1 91.3 273.1 89.34C273.1 87.34 272.68 85.54 271.84 83.94C271 82.34 269.86 81.08 268.42 80.16C267.02 79.2 265.46 78.72 263.74 78.72C261.98 78.72 260.4 79.2 259 80.16C257.6 81.12 256.48 82.4 255.64 84C254.8 85.56 254.38 87.36 254.38 89.4ZM313.873 105H307.273V87.42C307.273 84.5 306.793 82.36 305.833 81C304.913 79.64 303.533 78.96 301.693 78.96C300.413 78.96 299.133 79.28 297.853 79.92C296.613 80.56 295.493 81.44 294.493 82.56C293.493 83.64 292.773 84.9 292.333 86.34V105H285.733V73.62H291.733V79.92C292.533 78.52 293.573 77.32 294.853 76.32C296.173 75.28 297.653 74.48 299.293 73.92C300.933 73.36 302.673 73.08 304.513 73.08C306.393 73.08 307.933 73.42 309.133 74.1C310.373 74.78 311.333 75.72 312.013 76.92C312.733 78.08 313.213 79.44 313.453 81C313.733 82.52 313.873 84.14 313.873 85.86V105ZM332.694 105.6C330.054 105.6 327.554 105.18 325.194 104.34C322.834 103.46 320.814 102.16 319.134 100.44L321.594 96C323.394 97.6 325.194 98.76 326.994 99.48C328.834 100.2 330.654 100.56 332.454 100.56C334.294 100.56 335.794 100.22 336.954 99.54C338.114 98.82 338.694 97.78 338.694 96.42C338.694 95.42 338.394 94.68 337.794 94.2C337.194 93.72 336.314 93.3 335.154 92.94C334.034 92.58 332.674 92.18 331.074 91.74C328.834 91.06 326.954 90.36 325.434 89.64C323.914 88.88 322.774 87.96 322.014 86.88C321.254 85.8 320.874 84.42 320.874 82.74C320.874 80.7 321.394 78.96 322.434 77.52C323.474 76.08 324.914 74.98 326.754 74.22C328.634 73.46 330.794 73.08 333.234 73.08C335.514 73.08 337.614 73.44 339.534 74.16C341.494 74.84 343.214 75.92 344.694 77.4L341.874 81.78C340.474 80.5 339.034 79.56 337.554 78.96C336.114 78.36 334.554 78.06 332.874 78.06C331.914 78.06 330.994 78.18 330.114 78.42C329.234 78.62 328.494 79.02 327.894 79.62C327.334 80.18 327.054 80.98 327.054 82.02C327.054 82.86 327.294 83.54 327.774 84.06C328.254 84.58 328.974 85.02 329.934 85.38C330.894 85.74 332.074 86.14 333.474 86.58C335.914 87.3 337.994 88.02 339.714 88.74C341.434 89.42 342.754 90.32 343.674 91.44C344.634 92.52 345.114 94.02 345.114 95.94C345.114 98.98 343.974 101.36 341.694 103.08C339.454 104.76 336.454 105.6 332.694 105.6ZM350.707 91.56V85.62H368.647V91.56H350.707ZM424.261 105H417.661V87.42C417.661 84.5 417.181 82.36 416.221 81C415.261 79.64 413.861 78.96 412.021 78.96C410.181 78.96 408.461 79.66 406.861 81.06C405.301 82.42 404.201 84.2 403.561 86.4V105H396.961V87.42C396.961 84.5 396.481 82.36 395.521 81C394.561 79.64 393.181 78.96 391.381 78.96C389.541 78.96 387.821 79.64 386.221 81C384.661 82.36 383.541 84.14 382.861 86.34V105H376.261V73.62H382.261V79.92C383.501 77.72 385.121 76.04 387.121 74.88C389.161 73.68 391.481 73.08 394.081 73.08C396.681 73.08 398.721 73.76 400.201 75.12C401.721 76.48 402.661 78.18 403.021 80.22C404.381 77.9 406.041 76.14 408.001 74.94C410.001 73.7 412.281 73.08 414.841 73.08C416.681 73.08 418.221 73.42 419.461 74.1C420.701 74.78 421.661 75.72 422.341 76.92C423.021 78.08 423.501 79.44 423.781 81C424.101 82.52 424.261 84.14 424.261 85.86V105ZM429.586 95.82C429.586 93.82 430.146 92.08 431.266 90.6C432.426 89.08 434.006 87.92 436.006 87.12C438.006 86.28 440.326 85.86 442.966 85.86C444.366 85.86 445.786 85.96 447.226 86.16C448.706 86.36 450.006 86.68 451.126 87.12V85.14C451.126 82.94 450.466 81.22 449.146 79.98C447.826 78.74 445.926 78.12 443.446 78.12C441.686 78.12 440.026 78.44 438.466 79.08C436.906 79.68 435.246 80.54 433.486 81.66L431.266 77.22C433.346 75.82 435.426 74.78 437.506 74.1C439.626 73.42 441.846 73.08 444.166 73.08C448.366 73.08 451.666 74.2 454.066 76.44C456.506 78.64 457.726 81.78 457.726 85.86V97.56C457.726 98.32 457.846 98.86 458.086 99.18C458.366 99.5 458.826 99.68 459.466 99.72V105C458.866 105.12 458.326 105.2 457.846 105.24C457.366 105.28 456.966 105.3 456.646 105.3C455.246 105.3 454.186 104.96 453.466 104.28C452.746 103.6 452.326 102.8 452.206 101.88L452.026 100.08C450.666 101.84 448.926 103.2 446.806 104.16C444.686 105.12 442.546 105.6 440.386 105.6C438.306 105.6 436.446 105.18 434.806 104.34C433.166 103.46 431.886 102.28 430.966 100.8C430.046 99.32 429.586 97.66 429.586 95.82ZM449.566 97.74C450.046 97.22 450.426 96.7 450.706 96.18C450.986 95.66 451.126 95.2 451.126 94.8V91.2C450.006 90.76 448.826 90.44 447.586 90.24C446.346 90 445.126 89.88 443.926 89.88C441.526 89.88 439.566 90.36 438.046 91.32C436.566 92.28 435.826 93.6 435.826 95.28C435.826 96.2 436.066 97.08 436.546 97.92C437.066 98.76 437.786 99.44 438.706 99.96C439.666 100.48 440.846 100.74 442.246 100.74C443.686 100.74 445.066 100.46 446.386 99.9C447.706 99.34 448.766 98.62 449.566 97.74ZM487.573 105L477.493 90.54L472.333 95.46V105H465.733V61.2H472.333V88.8L486.853 73.68H493.933L481.753 86.82L494.593 105H487.573ZM511.184 105.6C508.744 105.6 506.524 105.18 504.524 104.34C502.564 103.46 500.864 102.28 499.424 100.8C497.984 99.28 496.864 97.56 496.064 95.64C495.304 93.68 494.924 91.6 494.924 89.4C494.924 86.44 495.604 83.74 496.964 81.3C498.324 78.82 500.224 76.84 502.664 75.36C505.104 73.84 507.964 73.08 511.244 73.08C514.524 73.08 517.344 73.84 519.704 75.36C522.104 76.84 523.964 78.8 525.284 81.24C526.604 83.68 527.264 86.3 527.264 89.1C527.264 89.58 527.244 90.04 527.204 90.48C527.164 90.88 527.124 91.22 527.084 91.5H501.944C502.064 93.34 502.564 94.96 503.444 96.36C504.364 97.72 505.524 98.8 506.924 99.6C508.324 100.36 509.824 100.74 511.424 100.74C513.184 100.74 514.844 100.3 516.404 99.42C518.004 98.54 519.084 97.38 519.644 95.94L525.284 97.56C524.604 99.08 523.564 100.46 522.164 101.7C520.804 102.9 519.184 103.86 517.304 104.58C515.424 105.26 513.384 105.6 511.184 105.6ZM501.764 87.12H520.724C520.604 85.32 520.084 83.74 519.164 82.38C518.284 80.98 517.144 79.9 515.744 79.14C514.384 78.34 512.864 77.94 511.184 77.94C509.544 77.94 508.024 78.34 506.624 79.14C505.264 79.9 504.144 80.98 503.264 82.38C502.384 83.74 501.884 85.32 501.764 87.12ZM550.288 79.32C547.728 79.36 545.448 79.94 543.448 81.06C541.488 82.18 540.088 83.76 539.248 85.8V105H532.647V73.62H538.768V80.64C539.848 78.48 541.268 76.76 543.028 75.48C544.788 74.16 546.648 73.44 548.608 73.32C549.008 73.32 549.328 73.32 549.568 73.32C549.848 73.32 550.088 73.34 550.288 73.38V79.32ZM555.509 110.82L556.949 104.64H554.789V97.32H560.729V104.64L558.629 110.82H555.509ZM132.174 225H125.574V207.42C125.574 204.5 125.094 202.36 124.134 201C123.214 199.64 121.834 198.96 119.994 198.96C118.714 198.96 117.434 199.28 116.154 199.92C114.914 200.56 113.794 201.44 112.794 202.56C111.794 203.64 111.074 204.9 110.634 206.34V225H104.034V193.62H110.034V199.92C110.834 198.52 111.874 197.32 113.154 196.32C114.474 195.28 115.954 194.48 117.594 193.92C119.234 193.36 120.974 193.08 122.814 193.08C124.694 193.08 126.234 193.42 127.434 194.1C128.674 194.78 129.634 195.72 130.314 196.92C131.034 198.08 131.514 199.44 131.754 201C132.034 202.52 132.174 204.14 132.174 205.86V225ZM154.055 225.6C151.615 225.6 149.395 225.18 147.395 224.34C145.435 223.46 143.735 222.28 142.295 220.8C140.855 219.28 139.735 217.56 138.935 215.64C138.175 213.68 137.795 211.6 137.795 209.4C137.795 206.44 138.475 203.74 139.835 201.3C141.195 198.82 143.095 196.84 145.535 195.36C147.975 193.84 150.835 193.08 154.115 193.08C157.395 193.08 160.215 193.84 162.575 195.36C164.975 196.84 166.835 198.8 168.155 201.24C169.475 203.68 170.135 206.3 170.135 209.1C170.135 209.58 170.115 210.04 170.075 210.48C170.035 210.88 169.995 211.22 169.955 211.5H144.815C144.935 213.34 145.435 214.96 146.315 216.36C147.235 217.72 148.395 218.8 149.795 219.6C151.195 220.36 152.695 220.74 154.295 220.74C156.055 220.74 157.715 220.3 159.275 219.42C160.875 218.54 161.955 217.38 162.515 215.94L168.155 217.56C167.475 219.08 166.435 220.46 165.035 221.7C163.675 222.9 162.055 223.86 160.175 224.58C158.295 225.26 156.255 225.6 154.055 225.6ZM144.635 207.12H163.595C163.475 205.32 162.955 203.74 162.035 202.38C161.155 200.98 160.015 199.9 158.615 199.14C157.255 198.34 155.735 197.94 154.055 197.94C152.415 197.94 150.895 198.34 149.495 199.14C148.135 199.9 147.015 200.98 146.135 202.38C145.255 203.74 144.755 205.32 144.635 207.12ZM192.686 223.38C192.126 223.66 191.426 223.96 190.586 224.28C189.746 224.6 188.786 224.88 187.706 225.12C186.666 225.36 185.586 225.48 184.466 225.48C183.106 225.48 181.846 225.24 180.686 224.76C179.526 224.28 178.586 223.52 177.866 222.48C177.186 221.4 176.846 220.02 176.846 218.34V198.72H172.706V193.62H176.846V183.3H183.446V193.62H190.286V198.72H183.446V216.24C183.526 217.32 183.866 218.12 184.466 218.64C185.106 219.16 185.886 219.42 186.806 219.42C187.726 219.42 188.606 219.26 189.446 218.94C190.286 218.62 190.906 218.36 191.306 218.16L192.686 223.38ZM236.318 193.62H242.618L229.418 225H223.778L218.138 210.84L212.498 225H206.858L193.598 193.62H199.898L209.978 218.58L214.418 207L209.018 193.68H214.598L218.138 203.46L221.618 193.68H227.198L221.858 207L226.298 218.58L236.318 193.62ZM260.048 225.6C257.568 225.6 255.348 225.18 253.388 224.34C251.428 223.46 249.728 222.26 248.288 220.74C246.888 219.22 245.808 217.5 245.048 215.58C244.288 213.62 243.908 211.54 243.908 209.34C243.908 207.14 244.288 205.06 245.048 203.1C245.808 201.14 246.888 199.42 248.288 197.94C249.728 196.42 251.428 195.24 253.388 194.4C255.388 193.52 257.608 193.08 260.048 193.08C262.488 193.08 264.688 193.52 266.648 194.4C268.648 195.24 270.348 196.42 271.748 197.94C273.188 199.42 274.288 201.14 275.048 203.1C275.808 205.06 276.188 207.14 276.188 209.34C276.188 211.54 275.808 213.62 275.048 215.58C274.288 217.5 273.188 219.22 271.748 220.74C270.348 222.26 268.648 223.46 266.648 224.34C264.688 225.18 262.488 225.6 260.048 225.6ZM250.688 209.4C250.688 211.4 251.108 213.2 251.948 214.8C252.788 216.4 253.908 217.66 255.308 218.58C256.708 219.5 258.288 219.96 260.048 219.96C261.768 219.96 263.328 219.5 264.728 218.58C266.168 217.62 267.308 216.34 268.148 214.74C268.988 213.1 269.408 211.3 269.408 209.34C269.408 207.34 268.988 205.54 268.148 203.94C267.308 202.34 266.168 201.08 264.728 200.16C263.328 199.2 261.768 198.72 260.048 198.72C258.288 198.72 256.708 199.2 255.308 200.16C253.908 201.12 252.788 202.4 251.948 204C251.108 205.56 250.688 207.36 250.688 209.4ZM299.682 199.32C297.122 199.36 294.842 199.94 292.842 201.06C290.882 202.18 289.482 203.76 288.642 205.8V225H282.042V193.62H288.162V200.64C289.242 198.48 290.662 196.76 292.422 195.48C294.182 194.16 296.042 193.44 298.002 193.32C298.402 193.32 298.722 193.32 298.962 193.32C299.242 193.32 299.482 193.34 299.682 193.38V199.32ZM326.323 225L316.243 210.54L311.083 215.46V225H304.483V181.2H311.083V208.8L325.603 193.68H332.683L320.503 206.82L333.343 225H326.323ZM341.375 211.74C341.375 210.34 341.535 209.06 341.855 207.9C342.175 206.74 342.695 205.68 343.415 204.72C344.135 203.72 345.115 202.84 346.355 202.08C347.035 201.68 347.835 201.24 348.755 200.76C349.675 200.24 350.555 199.64 351.395 198.96C352.235 198.28 352.935 197.48 353.495 196.56C354.095 195.64 354.395 194.56 354.395 193.32C354.395 192 354.075 190.9 353.435 190.02C352.795 189.1 351.975 188.42 350.975 187.98C350.015 187.5 348.955 187.26 347.795 187.26C346.555 187.26 345.415 187.52 344.375 188.04C343.335 188.56 342.435 189.22 341.675 190.02C340.915 190.82 340.275 191.66 339.755 192.54L335.435 189.6C336.155 187.96 337.155 186.56 338.435 185.4C339.715 184.24 341.175 183.36 342.815 182.76C344.455 182.16 346.175 181.86 347.975 181.86C349.455 181.86 350.915 182.1 352.355 182.58C353.835 183.02 355.155 183.72 356.315 184.68C357.475 185.64 358.395 186.86 359.075 188.34C359.795 189.78 360.155 191.52 360.155 193.56C360.155 194.96 359.975 196.18 359.615 197.22C359.295 198.22 358.815 199.12 358.175 199.92C357.535 200.72 356.795 201.44 355.955 202.08C355.115 202.68 354.195 203.26 353.195 203.82C352.195 204.42 351.215 205.04 350.255 205.68C349.295 206.28 348.495 207.04 347.855 207.96C347.215 208.88 346.895 210.14 346.895 211.74H341.375ZM341.555 225V217.44H347.015V225H341.555Z" fill="#FF7A00"/>
<path d="M-1 112.5H551.128V115.5H-1V112.5ZM100.074 232.5H333.403V235.5H100.074V232.5Z" fill="#FF7A00"/>
</svg>
