<svg width="820" height="390" viewBox="0 0 820 390" fill="none" xmlns="http://www.w3.org/2000/svg">
<rect y="18" width="550" height="62" fill="white"/>
<rect x="25" y="98" width="553" height="62" fill="white"/>
<rect x="25" y="178" width="636" height="62" fill="white"/>
<path d="M90.68 11.2V68H79.72V43.76H53.96V68H42.92V11.2H53.96V34.16H79.72V11.2H90.68ZM120.146 68.8C116.733 68.8 113.666 68.24 110.946 67.12C108.226 65.9467 105.906 64.3467 103.986 62.32C102.12 60.2933 100.68 57.9733 99.6663 55.36C98.6529 52.7467 98.1463 50 98.1463 47.12C98.1463 44.1867 98.6529 41.4133 99.6663 38.8C100.68 36.1867 102.12 33.8667 103.986 31.84C105.906 29.8133 108.226 28.24 110.946 27.12C113.666 25.9467 116.733 25.36 120.146 25.36C123.56 25.36 126.6 25.9467 129.266 27.12C131.986 28.24 134.306 29.8133 136.226 31.84C138.146 33.8667 139.586 36.1867 140.546 38.8C141.56 41.4133 142.066 44.1867 142.066 47.12C142.066 50 141.56 52.7467 140.546 55.36C139.586 57.9733 138.146 60.2933 136.226 62.32C134.36 64.3467 132.066 65.9467 129.346 67.12C126.626 68.24 123.56 68.8 120.146 68.8ZM109.186 47.12C109.186 49.5733 109.666 51.76 110.626 53.68C111.586 55.5467 112.893 57.0133 114.546 58.08C116.2 59.1467 118.066 59.68 120.146 59.68C122.173 59.68 124.013 59.1467 125.666 58.08C127.32 56.96 128.626 55.4667 129.586 53.6C130.6 51.68 131.106 49.4933 131.106 47.04C131.106 44.64 130.6 42.48 129.586 40.56C128.626 38.64 127.32 37.1467 125.666 36.08C124.013 35.0133 122.173 34.48 120.146 34.48C118.066 34.48 116.2 35.04 114.546 36.16C112.893 37.2267 111.586 38.72 110.626 40.64C109.666 42.5067 109.186 44.6667 109.186 47.12ZM171.081 68V36.48H165.561V28.32H171.081V25.76C171.081 22.2933 171.641 19.3067 172.761 16.8C173.934 14.24 175.561 12.2667 177.641 10.88C179.774 9.49333 182.254 8.8 185.081 8.8C186.787 8.8 188.494 9.01333 190.201 9.44C191.961 9.86666 193.694 10.48 195.401 11.28L193.241 19.36C192.441 18.9333 191.507 18.5867 190.441 18.32C189.374 18 188.361 17.84 187.401 17.84C185.587 17.84 184.201 18.48 183.241 19.76C182.281 21.04 181.801 22.9067 181.801 25.36V28.32H192.041V36.48H181.801V68H171.081ZM195.016 55.6C195.016 52.88 195.762 50.5067 197.256 48.48C198.802 46.4 200.936 44.8 203.656 43.68C206.376 42.56 209.496 42 213.016 42C214.776 42 216.562 42.1333 218.376 42.4C220.189 42.6667 221.762 43.0933 223.096 43.68V41.44C223.096 38.7733 222.296 36.72 220.696 35.28C219.149 33.84 216.829 33.12 213.736 33.12C211.442 33.12 209.256 33.52 207.176 34.32C205.096 35.12 202.909 36.2933 200.616 37.84L197.176 30.8C199.949 28.9867 202.776 27.6267 205.656 26.72C208.589 25.8133 211.656 25.36 214.856 25.36C220.829 25.36 225.469 26.8533 228.776 29.84C232.136 32.8267 233.816 37.0933 233.816 42.64V56C233.816 57.12 234.002 57.92 234.376 58.4C234.802 58.88 235.469 59.1733 236.376 59.28V68C235.416 68.16 234.536 68.2933 233.736 68.4C232.989 68.5067 232.349 68.56 231.816 68.56C229.682 68.56 228.056 68.08 226.936 67.12C225.869 66.16 225.202 64.9867 224.936 63.6L224.696 61.44C222.882 63.7867 220.616 65.6 217.896 66.88C215.176 68.16 212.402 68.8 209.576 68.8C206.802 68.8 204.296 68.24 202.056 67.12C199.869 65.9467 198.136 64.3733 196.856 62.4C195.629 60.3733 195.016 58.1067 195.016 55.6ZM221.096 57.76C221.682 57.12 222.162 56.48 222.536 55.84C222.909 55.2 223.096 54.6133 223.096 54.08V49.84C221.816 49.3067 220.429 48.9067 218.936 48.64C217.442 48.32 216.029 48.16 214.696 48.16C211.922 48.16 209.629 48.7733 207.816 50C206.056 51.1733 205.176 52.7467 205.176 54.72C205.176 55.7867 205.469 56.8 206.056 57.76C206.642 58.72 207.496 59.4933 208.616 60.08C209.736 60.6667 211.069 60.96 212.616 60.96C214.216 60.96 215.789 60.6667 217.336 60.08C218.882 59.44 220.136 58.6667 221.096 57.76ZM268.563 65.84C267.656 66.2133 266.563 66.64 265.283 67.12C264.003 67.6 262.616 67.9733 261.123 68.24C259.683 68.56 258.216 68.72 256.723 68.72C254.749 68.72 252.936 68.3733 251.283 67.68C249.629 66.9867 248.296 65.8933 247.283 64.4C246.323 62.8533 245.843 60.8533 245.843 58.4V34.32H240.323V26.08H245.843V12.48H256.563V26.08H265.363V34.32H256.563V54.8C256.616 56.24 257.016 57.28 257.763 57.92C258.509 58.56 259.443 58.88 260.563 58.88C261.683 58.88 262.776 58.6933 263.843 58.32C264.909 57.9467 265.763 57.6267 266.403 57.36L268.563 65.84ZM299.109 65.84C298.203 66.2133 297.109 66.64 295.829 67.12C294.549 67.6 293.163 67.9733 291.669 68.24C290.229 68.56 288.763 68.72 287.269 68.72C285.296 68.72 283.483 68.3733 281.829 67.68C280.176 66.9867 278.843 65.8933 277.829 64.4C276.869 62.8533 276.389 60.8533 276.389 58.4V34.32H270.869V26.08H276.389V12.48H287.109V26.08H295.909V34.32H287.109V54.8C287.163 56.24 287.563 57.28 288.309 57.92C289.056 58.56 289.989 58.88 291.109 58.88C292.229 58.88 293.323 58.6933 294.389 58.32C295.456 57.9467 296.309 57.6267 296.949 57.36L299.109 65.84ZM323.584 68.8C320.17 68.8 317.104 68.24 314.384 67.12C311.664 65.9467 309.344 64.3467 307.424 62.32C305.557 60.2933 304.117 57.9733 303.104 55.36C302.09 52.7467 301.584 50 301.584 47.12C301.584 44.1867 302.09 41.4133 303.104 38.8C304.117 36.1867 305.557 33.8667 307.424 31.84C309.344 29.8133 311.664 28.24 314.384 27.12C317.104 25.9467 320.17 25.36 323.584 25.36C326.997 25.36 330.037 25.9467 332.704 27.12C335.424 28.24 337.744 29.8133 339.664 31.84C341.584 33.8667 343.024 36.1867 343.984 38.8C344.997 41.4133 345.504 44.1867 345.504 47.12C345.504 50 344.997 52.7467 343.984 55.36C343.024 57.9733 341.584 60.2933 339.664 62.32C337.797 64.3467 335.504 65.9467 332.784 67.12C330.064 68.24 326.997 68.8 323.584 68.8ZM312.624 47.12C312.624 49.5733 313.104 51.76 314.064 53.68C315.024 55.5467 316.33 57.0133 317.984 58.08C319.637 59.1467 321.504 59.68 323.584 59.68C325.61 59.68 327.45 59.1467 329.104 58.08C330.757 56.96 332.064 55.4667 333.024 53.6C334.037 51.68 334.544 49.4933 334.544 47.04C334.544 44.64 334.037 42.48 333.024 40.56C332.064 38.64 330.757 37.1467 329.104 36.08C327.45 35.0133 325.61 34.48 323.584 34.48C321.504 34.48 319.637 35.04 317.984 36.16C316.33 37.2267 315.024 38.72 314.064 40.64C313.104 42.5067 312.624 44.6667 312.624 47.12ZM391.478 68.8C388.065 68.8 384.998 68.24 382.278 67.12C379.558 65.9467 377.238 64.3467 375.318 62.32C373.398 60.24 371.905 57.8933 370.838 55.28C369.825 52.6667 369.318 49.92 369.318 47.04C369.318 43.0933 370.198 39.4933 371.958 36.24C373.771 32.9333 376.331 30.2933 379.638 28.32C382.945 26.3467 386.865 25.36 391.398 25.36C395.931 25.36 399.825 26.3467 403.078 28.32C406.331 30.2933 408.758 32.88 410.358 36.08L399.878 39.28C398.971 37.7333 397.771 36.56 396.278 35.76C394.785 34.9067 393.131 34.48 391.318 34.48C389.291 34.48 387.425 35.0133 385.718 36.08C384.065 37.0933 382.758 38.56 381.798 40.48C380.838 42.3467 380.358 44.5333 380.358 47.04C380.358 49.4933 380.838 51.68 381.798 53.6C382.811 55.4667 384.145 56.96 385.798 58.08C387.451 59.1467 389.291 59.68 391.318 59.68C392.598 59.68 393.798 59.4667 394.918 59.04C396.091 58.6133 397.131 58.0267 398.038 57.28C398.945 56.5333 399.611 55.68 400.038 54.72L410.518 57.92C409.558 60 408.145 61.8667 406.278 63.52C404.465 65.1733 402.305 66.48 399.798 67.44C397.345 68.3467 394.571 68.8 391.478 68.8ZM436.084 68.8C432.67 68.8 429.604 68.24 426.884 67.12C424.164 65.9467 421.844 64.3467 419.924 62.32C418.057 60.2933 416.617 57.9733 415.604 55.36C414.59 52.7467 414.084 50 414.084 47.12C414.084 44.1867 414.59 41.4133 415.604 38.8C416.617 36.1867 418.057 33.8667 419.924 31.84C421.844 29.8133 424.164 28.24 426.884 27.12C429.604 25.9467 432.67 25.36 436.084 25.36C439.497 25.36 442.537 25.9467 445.204 27.12C447.924 28.24 450.244 29.8133 452.164 31.84C454.084 33.8667 455.524 36.1867 456.484 38.8C457.497 41.4133 458.004 44.1867 458.004 47.12C458.004 50 457.497 52.7467 456.484 55.36C455.524 57.9733 454.084 60.2933 452.164 62.32C450.297 64.3467 448.004 65.9467 445.284 67.12C442.564 68.24 439.497 68.8 436.084 68.8ZM425.124 47.12C425.124 49.5733 425.604 51.76 426.564 53.68C427.524 55.5467 428.83 57.0133 430.484 58.08C432.137 59.1467 434.004 59.68 436.084 59.68C438.11 59.68 439.95 59.1467 441.604 58.08C443.257 56.96 444.564 55.4667 445.524 53.6C446.537 51.68 447.044 49.4933 447.044 47.04C447.044 44.64 446.537 42.48 445.524 40.56C444.564 38.64 443.257 37.1467 441.604 36.08C439.95 35.0133 438.11 34.48 436.084 34.48C434.004 34.48 432.137 35.04 430.484 36.16C428.83 37.2267 427.524 38.72 426.564 40.64C425.604 42.5067 425.124 44.6667 425.124 47.12ZM480.679 68.8C477.106 68.8 473.693 68.2133 470.439 67.04C467.186 65.8667 464.386 64.1333 462.039 61.84L465.879 54.88C468.386 56.9067 470.839 58.4 473.239 59.36C475.693 60.32 478.039 60.8 480.279 60.8C482.359 60.8 484.013 60.4267 485.239 59.68C486.519 58.9333 487.159 57.8133 487.159 56.32C487.159 55.3067 486.813 54.5333 486.119 54C485.426 53.4133 484.413 52.9067 483.079 52.48C481.799 52.0533 480.226 51.5733 478.359 51.04C475.266 50.0267 472.679 49.04 470.599 48.08C468.519 47.12 466.946 45.92 465.879 44.48C464.866 42.9867 464.359 41.0933 464.359 38.8C464.359 36.0267 465.053 33.6533 466.439 31.68C467.879 29.6533 469.853 28.08 472.359 26.96C474.919 25.84 477.906 25.28 481.319 25.28C484.306 25.28 487.133 25.76 489.799 26.72C492.466 27.6267 494.893 29.12 497.079 31.2L492.759 38C490.626 36.3467 488.599 35.1467 486.679 34.4C484.759 33.6 482.813 33.2 480.839 33.2C479.719 33.2 478.653 33.3333 477.639 33.6C476.679 33.8667 475.879 34.32 475.239 34.96C474.653 35.5467 474.359 36.4 474.359 37.52C474.359 38.5333 474.626 39.3333 475.159 39.92C475.746 40.4533 476.599 40.9333 477.719 41.36C478.893 41.7867 480.306 42.2667 481.959 42.8C485.319 43.76 488.146 44.7467 490.439 45.76C492.786 46.7733 494.546 48.0267 495.719 49.52C496.893 50.96 497.479 52.96 497.479 55.52C497.479 59.68 495.959 62.9333 492.919 65.28C489.879 67.6267 485.799 68.8 480.679 68.8ZM524.211 68.8C520.851 68.8 517.811 68.24 515.091 67.12C512.371 65.9467 510.051 64.3733 508.131 62.4C506.211 60.3733 504.717 58.08 503.651 55.52C502.637 52.9067 502.131 50.16 502.131 47.28C502.131 43.28 503.011 39.6267 504.771 36.32C506.584 33.0133 509.144 30.3733 512.451 28.4C515.811 26.3733 519.757 25.36 524.291 25.36C528.877 25.36 532.797 26.3733 536.051 28.4C539.304 30.3733 541.784 33.0133 543.491 36.32C545.251 39.5733 546.131 43.0933 546.131 46.88C546.131 47.52 546.104 48.1867 546.051 48.88C545.997 49.52 545.944 50.0533 545.891 50.48H513.491C513.704 52.6133 514.317 54.48 515.331 56.08C516.397 57.68 517.731 58.9067 519.331 59.76C520.984 60.56 522.744 60.96 524.611 60.96C526.744 60.96 528.744 60.4533 530.611 59.44C532.531 58.3733 533.837 56.9867 534.531 55.28L543.731 57.84C542.717 59.9733 541.251 61.8667 539.331 63.52C537.464 65.1733 535.251 66.48 532.691 67.44C530.131 68.3467 527.304 68.8 524.211 68.8ZM513.251 43.68H535.171C534.957 41.5467 534.344 39.7067 533.331 38.16C532.371 36.56 531.091 35.3333 529.491 34.48C527.891 33.5733 526.104 33.12 524.131 33.12C522.211 33.12 520.451 33.5733 518.851 34.48C517.304 35.3333 516.024 36.56 515.011 38.16C514.051 39.7067 513.464 41.5467 513.251 43.68ZM553.621 77.2L555.781 67.68H552.421V56.48H561.701V67.68L558.421 77.2H553.621ZM80.84 148H70.12V124.48C70.12 121.227 69.48 118.8 68.2 117.2C66.9733 115.6 65.2667 114.8 63.08 114.8C61.8 114.8 60.44 115.173 59 115.92C57.56 116.667 56.2533 117.707 55.08 119.04C53.96 120.32 53.1333 121.813 52.6 123.52V148H41.88V89.6H52.6V113.84C54.1467 111.173 56.2533 109.093 58.92 107.6C61.5867 106.107 64.4933 105.36 67.64 105.36C70.36 105.36 72.5733 105.84 74.28 106.8C75.9867 107.707 77.32 108.96 78.28 110.56C79.24 112.107 79.9067 113.867 80.28 115.84C80.6533 117.76 80.84 119.76 80.84 121.84V148ZM109.521 148.8C106.108 148.8 103.041 148.24 100.321 147.12C97.6013 145.947 95.2813 144.347 93.3613 142.32C91.4946 140.293 90.0546 137.973 89.0413 135.36C88.0279 132.747 87.5213 130 87.5213 127.12C87.5213 124.187 88.0279 121.413 89.0413 118.8C90.0546 116.187 91.4946 113.867 93.3613 111.84C95.2813 109.813 97.6013 108.24 100.321 107.12C103.041 105.947 106.108 105.36 109.521 105.36C112.935 105.36 115.975 105.947 118.641 107.12C121.361 108.24 123.681 109.813 125.601 111.84C127.521 113.867 128.961 116.187 129.921 118.8C130.935 121.413 131.441 124.187 131.441 127.12C131.441 130 130.935 132.747 129.921 135.36C128.961 137.973 127.521 140.293 125.601 142.32C123.735 144.347 121.441 145.947 118.721 147.12C116.001 148.24 112.935 148.8 109.521 148.8ZM98.5613 127.12C98.5613 129.573 99.0413 131.76 100.001 133.68C100.961 135.547 102.268 137.013 103.921 138.08C105.575 139.147 107.441 139.68 109.521 139.68C111.548 139.68 113.388 139.147 115.041 138.08C116.695 136.96 118.001 135.467 118.961 133.6C119.975 131.68 120.481 129.493 120.481 127.04C120.481 124.64 119.975 122.48 118.961 120.56C118.001 118.64 116.695 117.147 115.041 116.08C113.388 115.013 111.548 114.48 109.521 114.48C107.441 114.48 105.575 115.04 103.921 116.16C102.268 117.227 100.961 118.72 100.001 120.64C99.0413 122.507 98.5613 124.667 98.5613 127.12ZM166.988 148L151.548 106.08H162.668L173.228 138.24L183.868 106.08H194.028L178.668 148H166.988ZM199.693 148V106.08H210.413V148H199.693ZM199.693 100.24V89.6H210.413V100.24H199.693ZM235.523 148.8C231.95 148.8 228.536 148.213 225.283 147.04C222.03 145.867 219.23 144.133 216.883 141.84L220.723 134.88C223.23 136.907 225.683 138.4 228.083 139.36C230.536 140.32 232.883 140.8 235.123 140.8C237.203 140.8 238.856 140.427 240.083 139.68C241.363 138.933 242.003 137.813 242.003 136.32C242.003 135.307 241.656 134.533 240.963 134C240.27 133.413 239.256 132.907 237.923 132.48C236.643 132.053 235.07 131.573 233.203 131.04C230.11 130.027 227.523 129.04 225.443 128.08C223.363 127.12 221.79 125.92 220.723 124.48C219.71 122.987 219.203 121.093 219.203 118.8C219.203 116.027 219.896 113.653 221.283 111.68C222.723 109.653 224.696 108.08 227.203 106.96C229.763 105.84 232.75 105.28 236.163 105.28C239.15 105.28 241.976 105.76 244.643 106.72C247.31 107.627 249.736 109.12 251.923 111.2L247.603 118C245.47 116.347 243.443 115.147 241.523 114.4C239.603 113.6 237.656 113.2 235.683 113.2C234.563 113.2 233.496 113.333 232.483 113.6C231.523 113.867 230.723 114.32 230.083 114.96C229.496 115.547 229.203 116.4 229.203 117.52C229.203 118.533 229.47 119.333 230.003 119.92C230.59 120.453 231.443 120.933 232.563 121.36C233.736 121.787 235.15 122.267 236.803 122.8C240.163 123.76 242.99 124.747 245.283 125.76C247.63 126.773 249.39 128.027 250.563 129.52C251.736 130.96 252.323 132.96 252.323 135.52C252.323 139.68 250.803 142.933 247.763 145.28C244.723 147.627 240.643 148.8 235.523 148.8ZM284.5 145.84C283.593 146.213 282.5 146.64 281.22 147.12C279.94 147.6 278.553 147.973 277.06 148.24C275.62 148.56 274.153 148.72 272.66 148.72C270.687 148.72 268.873 148.373 267.22 147.68C265.567 146.987 264.233 145.893 263.22 144.4C262.26 142.853 261.78 140.853 261.78 138.4V114.32H256.26V106.08H261.78V92.48H272.5V106.08H281.3V114.32H272.5V134.8C272.553 136.24 272.953 137.28 273.7 137.92C274.447 138.56 275.38 138.88 276.5 138.88C277.62 138.88 278.713 138.693 279.78 138.32C280.847 137.947 281.7 137.627 282.34 137.36L284.5 145.84ZM308.974 148.8C305.561 148.8 302.494 148.24 299.774 147.12C297.054 145.947 294.734 144.347 292.814 142.32C290.948 140.293 289.508 137.973 288.494 135.36C287.481 132.747 286.974 130 286.974 127.12C286.974 124.187 287.481 121.413 288.494 118.8C289.508 116.187 290.948 113.867 292.814 111.84C294.734 109.813 297.054 108.24 299.774 107.12C302.494 105.947 305.561 105.36 308.974 105.36C312.388 105.36 315.428 105.947 318.094 107.12C320.814 108.24 323.134 109.813 325.054 111.84C326.974 113.867 328.414 116.187 329.374 118.8C330.388 121.413 330.894 124.187 330.894 127.12C330.894 130 330.388 132.747 329.374 135.36C328.414 137.973 326.974 140.293 325.054 142.32C323.188 144.347 320.894 145.947 318.174 147.12C315.454 148.24 312.388 148.8 308.974 148.8ZM298.014 127.12C298.014 129.573 298.494 131.76 299.454 133.68C300.414 135.547 301.721 137.013 303.374 138.08C305.028 139.147 306.894 139.68 308.974 139.68C311.001 139.68 312.841 139.147 314.494 138.08C316.148 136.96 317.454 135.467 318.414 133.6C319.428 131.68 319.934 129.493 319.934 127.04C319.934 124.64 319.428 122.48 318.414 120.56C317.454 118.64 316.148 117.147 314.494 116.08C312.841 115.013 311.001 114.48 308.974 114.48C306.894 114.48 305.028 115.04 303.374 116.16C301.721 117.227 300.414 118.72 299.454 120.64C298.494 122.507 298.014 124.667 298.014 127.12ZM373.749 148.24C370.975 148.24 368.415 147.707 366.069 146.64C363.775 145.52 361.775 143.973 360.069 142C358.415 140.027 357.135 137.76 356.229 135.2C355.322 132.64 354.869 129.92 354.869 127.04C354.869 124 355.349 121.173 356.309 118.56C357.269 115.947 358.602 113.653 360.309 111.68C362.069 109.653 364.122 108.107 366.469 107.04C368.869 105.92 371.509 105.36 374.389 105.36C377.642 105.36 380.495 106.107 382.949 107.6C385.402 109.04 387.429 110.987 389.029 113.44V106.08H398.389V146C398.389 150.16 397.375 153.707 395.349 156.64C393.375 159.627 390.629 161.893 387.109 163.44C383.589 165.04 379.589 165.84 375.109 165.84C370.575 165.84 366.735 165.067 363.589 163.52C360.442 162.027 357.749 159.893 355.509 157.12L361.349 151.44C362.949 153.413 364.949 154.96 367.349 156.08C369.802 157.2 372.389 157.76 375.109 157.76C377.402 157.76 379.482 157.333 381.349 156.48C383.269 155.68 384.789 154.4 385.909 152.64C387.082 150.933 387.669 148.72 387.669 146V140.72C386.282 143.12 384.309 144.987 381.749 146.32C379.242 147.6 376.575 148.24 373.749 148.24ZM377.349 139.68C378.522 139.68 379.642 139.493 380.709 139.12C381.775 138.747 382.762 138.24 383.669 137.6C384.575 136.96 385.375 136.213 386.069 135.36C386.762 134.453 387.295 133.547 387.669 132.64V122.64C387.029 120.987 386.122 119.547 384.949 118.32C383.829 117.093 382.549 116.16 381.109 115.52C379.722 114.827 378.255 114.48 376.709 114.48C375.055 114.48 373.562 114.827 372.229 115.52C370.895 116.213 369.749 117.2 368.789 118.48C367.829 119.707 367.082 121.093 366.549 122.64C366.069 124.133 365.829 125.707 365.829 127.36C365.829 129.067 366.122 130.667 366.709 132.16C367.295 133.653 368.095 134.96 369.109 136.08C370.175 137.2 371.402 138.08 372.789 138.72C374.229 139.36 375.749 139.68 377.349 139.68ZM427.492 148.8C424.132 148.8 421.092 148.24 418.372 147.12C415.652 145.947 413.332 144.373 411.412 142.4C409.492 140.373 407.999 138.08 406.932 135.52C405.919 132.907 405.412 130.16 405.412 127.28C405.412 123.28 406.292 119.627 408.052 116.32C409.865 113.013 412.425 110.373 415.732 108.4C419.092 106.373 423.039 105.36 427.572 105.36C432.159 105.36 436.079 106.373 439.332 108.4C442.585 110.373 445.065 113.013 446.772 116.32C448.532 119.573 449.412 123.093 449.412 126.88C449.412 127.52 449.385 128.187 449.332 128.88C449.279 129.52 449.225 130.053 449.172 130.48H416.772C416.985 132.613 417.599 134.48 418.612 136.08C419.679 137.68 421.012 138.907 422.612 139.76C424.265 140.56 426.025 140.96 427.892 140.96C430.025 140.96 432.025 140.453 433.892 139.44C435.812 138.373 437.119 136.987 437.812 135.28L447.012 137.84C445.999 139.973 444.532 141.867 442.612 143.52C440.745 145.173 438.532 146.48 435.972 147.44C433.412 148.347 430.585 148.8 427.492 148.8ZM416.532 123.68H438.452C438.239 121.547 437.625 119.707 436.612 118.16C435.652 116.56 434.372 115.333 432.772 114.48C431.172 113.573 429.385 113.12 427.412 113.12C425.492 113.12 423.732 113.573 422.132 114.48C420.585 115.333 419.305 116.56 418.292 118.16C417.332 119.707 416.745 121.547 416.532 123.68ZM494.903 148H484.183V124.48C484.183 121.12 483.596 118.667 482.423 117.12C481.249 115.573 479.623 114.8 477.543 114.8C476.103 114.8 474.636 115.173 473.143 115.92C471.703 116.667 470.396 117.707 469.223 119.04C468.049 120.32 467.196 121.813 466.663 123.52V148H455.943V106.08H465.623V113.84C466.689 112.027 468.049 110.507 469.703 109.28C471.356 108 473.249 107.04 475.383 106.4C477.569 105.707 479.863 105.36 482.263 105.36C484.876 105.36 487.009 105.84 488.663 106.8C490.369 107.707 491.649 108.96 492.503 110.56C493.409 112.107 494.023 113.867 494.343 115.84C494.716 117.813 494.903 119.813 494.903 121.84V148ZM529.109 145.84C528.203 146.213 527.109 146.64 525.829 147.12C524.549 147.6 523.163 147.973 521.669 148.24C520.229 148.56 518.763 148.72 517.269 148.72C515.296 148.72 513.483 148.373 511.829 147.68C510.176 146.987 508.843 145.893 507.829 144.4C506.869 142.853 506.389 140.853 506.389 138.4V114.32H500.869V106.08H506.389V92.48H517.109V106.08H525.909V114.32H517.109V134.8C517.163 136.24 517.563 137.28 518.309 137.92C519.056 138.56 519.989 138.88 521.109 138.88C522.229 138.88 523.323 138.693 524.389 138.32C525.456 137.947 526.309 137.627 526.949 137.36L529.109 145.84ZM553.664 148.8C550.304 148.8 547.264 148.24 544.544 147.12C541.824 145.947 539.504 144.373 537.584 142.4C535.664 140.373 534.17 138.08 533.104 135.52C532.09 132.907 531.584 130.16 531.584 127.28C531.584 123.28 532.464 119.627 534.224 116.32C536.037 113.013 538.597 110.373 541.904 108.4C545.264 106.373 549.21 105.36 553.744 105.36C558.33 105.36 562.25 106.373 565.504 108.4C568.757 110.373 571.237 113.013 572.944 116.32C574.704 119.573 575.584 123.093 575.584 126.88C575.584 127.52 575.557 128.187 575.504 128.88C575.45 129.52 575.397 130.053 575.344 130.48H542.944C543.157 132.613 543.77 134.48 544.784 136.08C545.85 137.68 547.184 138.907 548.784 139.76C550.437 140.56 552.197 140.96 554.064 140.96C556.197 140.96 558.197 140.453 560.064 139.44C561.984 138.373 563.29 136.987 563.984 135.28L573.184 137.84C572.17 139.973 570.704 141.867 568.784 143.52C566.917 145.173 564.704 146.48 562.144 147.44C559.584 148.347 556.757 148.8 553.664 148.8ZM542.704 123.68H564.624C564.41 121.547 563.797 119.707 562.784 118.16C561.824 116.56 560.544 115.333 558.944 114.48C557.344 113.573 555.557 113.12 553.584 113.12C551.664 113.12 549.904 113.573 548.304 114.48C546.757 115.333 545.477 116.56 544.464 118.16C543.504 119.707 542.917 121.547 542.704 123.68ZM583.074 157.2L585.234 147.68H581.874V136.48H591.154V147.68L587.874 157.2H583.074ZM61.4 228.8C57.9867 228.8 54.92 228.24 52.2 227.12C49.48 225.947 47.16 224.347 45.24 222.32C43.32 220.24 41.8267 217.893 40.76 215.28C39.7467 212.667 39.24 209.92 39.24 207.04C39.24 203.093 40.12 199.493 41.88 196.24C43.6933 192.933 46.2533 190.293 49.56 188.32C52.8667 186.347 56.7867 185.36 61.32 185.36C65.8533 185.36 69.7467 186.347 73 188.32C76.2533 190.293 78.68 192.88 80.28 196.08L69.8 199.28C68.8933 197.733 67.6933 196.56 66.2 195.76C64.7067 194.907 63.0533 194.48 61.24 194.48C59.2133 194.48 57.3467 195.013 55.64 196.08C53.9867 197.093 52.68 198.56 51.72 200.48C50.76 202.347 50.28 204.533 50.28 207.04C50.28 209.493 50.76 211.68 51.72 213.6C52.7333 215.467 54.0667 216.96 55.72 218.08C57.3733 219.147 59.2133 219.68 61.24 219.68C62.52 219.68 63.72 219.467 64.84 219.04C66.0133 218.613 67.0533 218.027 67.96 217.28C68.8667 216.533 69.5333 215.68 69.96 214.72L80.44 217.92C79.48 220 78.0667 221.867 76.2 223.52C74.3867 225.173 72.2267 226.48 69.72 227.44C67.2667 228.347 64.4933 228.8 61.4 228.8ZM106.006 228.8C102.592 228.8 99.5256 228.24 96.8056 227.12C94.0856 225.947 91.7656 224.347 89.8456 222.32C87.979 220.293 86.539 217.973 85.5256 215.36C84.5123 212.747 84.0056 210 84.0056 207.12C84.0056 204.187 84.5123 201.413 85.5256 198.8C86.539 196.187 87.979 193.867 89.8456 191.84C91.7656 189.813 94.0856 188.24 96.8056 187.12C99.5256 185.947 102.592 185.36 106.006 185.36C109.419 185.36 112.459 185.947 115.126 187.12C117.846 188.24 120.166 189.813 122.086 191.84C124.006 193.867 125.446 196.187 126.406 198.8C127.419 201.413 127.926 204.187 127.926 207.12C127.926 210 127.419 212.747 126.406 215.36C125.446 217.973 124.006 220.293 122.086 222.32C120.219 224.347 117.926 225.947 115.206 227.12C112.486 228.24 109.419 228.8 106.006 228.8ZM95.0456 207.12C95.0456 209.573 95.5256 211.76 96.4856 213.68C97.4456 215.547 98.7523 217.013 100.406 218.08C102.059 219.147 103.926 219.68 106.006 219.68C108.032 219.68 109.872 219.147 111.526 218.08C113.179 216.96 114.486 215.467 115.446 213.6C116.459 211.68 116.966 209.493 116.966 207.04C116.966 204.64 116.459 202.48 115.446 200.56C114.486 198.64 113.179 197.147 111.526 196.08C109.872 195.013 108.032 194.48 106.006 194.48C103.926 194.48 102.059 195.04 100.406 196.16C98.7523 197.227 97.4456 198.72 96.4856 200.64C95.5256 202.507 95.0456 204.667 95.0456 207.12ZM174.121 228H163.401V204.48C163.401 201.12 162.815 198.667 161.641 197.12C160.468 195.573 158.841 194.8 156.761 194.8C155.321 194.8 153.855 195.173 152.361 195.92C150.921 196.667 149.615 197.707 148.441 199.04C147.268 200.32 146.415 201.813 145.881 203.52V228H135.161V186.08H144.841V193.84C145.908 192.027 147.268 190.507 148.921 189.28C150.575 188 152.468 187.04 154.601 186.4C156.788 185.707 159.081 185.36 161.481 185.36C164.095 185.36 166.228 185.84 167.881 186.8C169.588 187.707 170.868 188.96 171.721 190.56C172.628 192.107 173.241 193.867 173.561 195.84C173.935 197.813 174.121 199.813 174.121 201.84V228ZM208.328 225.84C207.421 226.213 206.328 226.64 205.048 227.12C203.768 227.6 202.381 227.973 200.888 228.24C199.448 228.56 197.981 228.72 196.488 228.72C194.515 228.72 192.701 228.373 191.048 227.68C189.395 226.987 188.061 225.893 187.048 224.4C186.088 222.853 185.608 220.853 185.608 218.4V194.32H180.088V186.08H185.608V172.48H196.328V186.08H205.128V194.32H196.328V214.8C196.381 216.24 196.781 217.28 197.528 217.92C198.275 218.56 199.208 218.88 200.328 218.88C201.448 218.88 202.541 218.693 203.608 218.32C204.675 217.947 205.528 217.627 206.168 217.36L208.328 225.84ZM213.911 228V186.08H224.631V228H213.911ZM213.911 180.24V169.6H224.631V180.24H213.911ZM273.262 228H262.542V204.48C262.542 201.12 261.955 198.667 260.782 197.12C259.609 195.573 257.982 194.8 255.902 194.8C254.462 194.8 252.995 195.173 251.502 195.92C250.062 196.667 248.755 197.707 247.582 199.04C246.409 200.32 245.555 201.813 245.022 203.52V228H234.302V186.08H243.982V193.84C245.049 192.027 246.409 190.507 248.062 189.28C249.715 188 251.609 187.04 253.742 186.4C255.929 185.707 258.222 185.36 260.622 185.36C263.235 185.36 265.369 185.84 267.022 186.8C268.729 187.707 270.009 188.96 270.862 190.56C271.769 192.107 272.382 193.867 272.702 195.84C273.075 197.813 273.262 199.813 273.262 201.84V228ZM282.183 212.32V186.08H292.903V210C292.903 213.2 293.49 215.627 294.663 217.28C295.836 218.88 297.57 219.68 299.863 219.68C301.25 219.68 302.61 219.413 303.943 218.88C305.33 218.293 306.583 217.44 307.703 216.32C308.876 215.2 309.863 213.787 310.663 212.08V186.08H321.383V216C321.383 217.12 321.57 217.92 321.943 218.4C322.37 218.88 323.036 219.173 323.943 219.28V228C322.876 228.16 321.97 228.267 321.223 228.32C320.53 228.427 319.89 228.48 319.303 228.48C317.383 228.48 315.81 228.053 314.583 227.2C313.41 226.293 312.716 225.067 312.503 223.52L312.263 220.16C310.396 222.987 307.996 225.147 305.063 226.64C302.13 228.08 298.903 228.8 295.383 228.8C291.063 228.8 287.783 227.413 285.543 224.64C283.303 221.813 282.183 217.707 282.183 212.32ZM351.396 228.8C347.983 228.8 344.916 228.24 342.196 227.12C339.476 225.947 337.156 224.347 335.236 222.32C333.37 220.293 331.93 217.973 330.916 215.36C329.903 212.747 329.396 210 329.396 207.12C329.396 204.187 329.903 201.413 330.916 198.8C331.93 196.187 333.37 193.867 335.236 191.84C337.156 189.813 339.476 188.24 342.196 187.12C344.916 185.947 347.983 185.36 351.396 185.36C354.81 185.36 357.85 185.947 360.516 187.12C363.236 188.24 365.556 189.813 367.476 191.84C369.396 193.867 370.836 196.187 371.796 198.8C372.81 201.413 373.316 204.187 373.316 207.12C373.316 210 372.81 212.747 371.796 215.36C370.836 217.973 369.396 220.293 367.476 222.32C365.61 224.347 363.316 225.947 360.596 227.12C357.876 228.24 354.81 228.8 351.396 228.8ZM340.436 207.12C340.436 209.573 340.916 211.76 341.876 213.68C342.836 215.547 344.143 217.013 345.796 218.08C347.45 219.147 349.316 219.68 351.396 219.68C353.423 219.68 355.263 219.147 356.916 218.08C358.57 216.96 359.876 215.467 360.836 213.6C361.85 211.68 362.356 209.493 362.356 207.04C362.356 204.64 361.85 202.48 360.836 200.56C359.876 198.64 358.57 197.147 356.916 196.08C355.263 195.013 353.423 194.48 351.396 194.48C349.316 194.48 347.45 195.04 345.796 196.16C344.143 197.227 342.836 198.72 341.876 200.64C340.916 202.507 340.436 204.667 340.436 207.12ZM396.891 215.6C396.891 212.88 397.637 210.507 399.131 208.48C400.677 206.4 402.811 204.8 405.531 203.68C408.251 202.56 411.371 202 414.891 202C416.651 202 418.437 202.133 420.251 202.4C422.064 202.667 423.637 203.093 424.971 203.68V201.44C424.971 198.773 424.171 196.72 422.571 195.28C421.024 193.84 418.704 193.12 415.611 193.12C413.317 193.12 411.131 193.52 409.051 194.32C406.971 195.12 404.784 196.293 402.491 197.84L399.051 190.8C401.824 188.987 404.651 187.627 407.531 186.72C410.464 185.813 413.531 185.36 416.731 185.36C422.704 185.36 427.344 186.853 430.651 189.84C434.011 192.827 435.691 197.093 435.691 202.64V216C435.691 217.12 435.877 217.92 436.251 218.4C436.677 218.88 437.344 219.173 438.251 219.28V228C437.291 228.16 436.411 228.293 435.611 228.4C434.864 228.507 434.224 228.56 433.691 228.56C431.557 228.56 429.931 228.08 428.811 227.12C427.744 226.16 427.077 224.987 426.811 223.6L426.571 221.44C424.757 223.787 422.491 225.6 419.771 226.88C417.051 228.16 414.277 228.8 411.451 228.8C408.677 228.8 406.171 228.24 403.931 227.12C401.744 225.947 400.011 224.373 398.731 222.4C397.504 220.373 396.891 218.107 396.891 215.6ZM422.971 217.76C423.557 217.12 424.037 216.48 424.411 215.84C424.784 215.2 424.971 214.613 424.971 214.08V209.84C423.691 209.307 422.304 208.907 420.811 208.64C419.317 208.32 417.904 208.16 416.571 208.16C413.797 208.16 411.504 208.773 409.691 210C407.931 211.173 407.051 212.747 407.051 214.72C407.051 215.787 407.344 216.8 407.931 217.76C408.517 218.72 409.371 219.493 410.491 220.08C411.611 220.667 412.944 220.96 414.491 220.96C416.091 220.96 417.664 220.667 419.211 220.08C420.757 219.44 422.011 218.667 422.971 217.76ZM467.487 228V196.48H461.967V188.32H467.487V185.76C467.487 182.293 468.047 179.307 469.167 176.8C470.34 174.24 471.967 172.267 474.047 170.88C476.18 169.493 478.66 168.8 481.487 168.8C483.194 168.8 484.9 169.013 486.607 169.44C488.367 169.867 490.1 170.48 491.807 171.28L489.647 179.36C488.847 178.933 487.914 178.587 486.847 178.32C485.78 178 484.767 177.84 483.807 177.84C481.994 177.84 480.607 178.48 479.647 179.76C478.687 181.04 478.207 182.907 478.207 185.36V188.32H488.447V196.48H478.207V228H467.487ZM491.422 215.6C491.422 212.88 492.169 210.507 493.662 208.48C495.209 206.4 497.342 204.8 500.062 203.68C502.782 202.56 505.902 202 509.422 202C511.182 202 512.969 202.133 514.782 202.4C516.595 202.667 518.169 203.093 519.502 203.68V201.44C519.502 198.773 518.702 196.72 517.102 195.28C515.555 193.84 513.235 193.12 510.142 193.12C507.849 193.12 505.662 193.52 503.582 194.32C501.502 195.12 499.315 196.293 497.022 197.84L493.582 190.8C496.355 188.987 499.182 187.627 502.062 186.72C504.995 185.813 508.062 185.36 511.262 185.36C517.235 185.36 521.875 186.853 525.182 189.84C528.542 192.827 530.222 197.093 530.222 202.64V216C530.222 217.12 530.409 217.92 530.782 218.4C531.209 218.88 531.875 219.173 532.782 219.28V228C531.822 228.16 530.942 228.293 530.142 228.4C529.395 228.507 528.755 228.56 528.222 228.56C526.089 228.56 524.462 228.08 523.342 227.12C522.275 226.16 521.609 224.987 521.342 223.6L521.102 221.44C519.289 223.787 517.022 225.6 514.302 226.88C511.582 228.16 508.809 228.8 505.982 228.8C503.209 228.8 500.702 228.24 498.462 227.12C496.275 225.947 494.542 224.373 493.262 222.4C492.035 220.373 491.422 218.107 491.422 215.6ZM517.502 217.76C518.089 217.12 518.569 216.48 518.942 215.84C519.315 215.2 519.502 214.613 519.502 214.08V209.84C518.222 209.307 516.835 208.907 515.342 208.64C513.849 208.32 512.435 208.16 511.102 208.16C508.329 208.16 506.035 208.773 504.222 210C502.462 211.173 501.582 212.747 501.582 214.72C501.582 215.787 501.875 216.8 502.462 217.76C503.049 218.72 503.902 219.493 505.022 220.08C506.142 220.667 507.475 220.96 509.022 220.96C510.622 220.96 512.195 220.667 513.742 220.08C515.289 219.44 516.542 218.667 517.502 217.76ZM565.199 195.36C561.946 195.36 559.039 196 556.479 197.28C553.919 198.507 552.079 200.293 550.959 202.64V228H540.239V186.08H550.079V195.04C551.573 192.16 553.466 189.893 555.759 188.24C558.053 186.587 560.479 185.68 563.039 185.52C563.626 185.52 564.079 185.52 564.399 185.52C564.719 185.52 564.986 185.547 565.199 185.6V195.36ZM571.097 169.6H581.817V214.56C581.817 216.48 582.137 217.787 582.777 218.48C583.417 219.12 584.297 219.44 585.417 219.44C586.27 219.44 587.15 219.333 588.057 219.12C588.964 218.907 589.764 218.64 590.457 218.32L591.897 226.48C590.457 227.173 588.777 227.707 586.857 228.08C584.937 228.453 583.204 228.64 581.657 228.64C578.297 228.64 575.684 227.76 573.817 226C572.004 224.187 571.097 221.627 571.097 218.32V169.6ZM615.928 228.8C612.514 228.8 609.448 228.24 606.728 227.12C604.008 225.947 601.688 224.347 599.768 222.32C597.901 220.293 596.461 217.973 595.448 215.36C594.434 212.747 593.928 210 593.928 207.12C593.928 204.187 594.434 201.413 595.448 198.8C596.461 196.187 597.901 193.867 599.768 191.84C601.688 189.813 604.008 188.24 606.728 187.12C609.448 185.947 612.514 185.36 615.928 185.36C619.341 185.36 622.381 185.947 625.048 187.12C627.768 188.24 630.088 189.813 632.008 191.84C633.928 193.867 635.368 196.187 636.328 198.8C637.341 201.413 637.848 204.187 637.848 207.12C637.848 210 637.341 212.747 636.328 215.36C635.368 217.973 633.928 220.293 632.008 222.32C630.141 224.347 627.848 225.947 625.128 227.12C622.408 228.24 619.341 228.8 615.928 228.8ZM604.968 207.12C604.968 209.573 605.448 211.76 606.408 213.68C607.368 215.547 608.674 217.013 610.328 218.08C611.981 219.147 613.848 219.68 615.928 219.68C617.954 219.68 619.794 219.147 621.448 218.08C623.101 216.96 624.408 215.467 625.368 213.6C626.381 211.68 626.888 209.493 626.888 207.04C626.888 204.64 626.381 202.48 625.368 200.56C624.408 198.64 623.101 197.147 621.448 196.08C619.794 195.013 617.954 194.48 615.928 194.48C613.848 194.48 611.981 195.04 610.328 196.16C608.674 197.227 607.368 198.72 606.408 200.64C605.448 202.507 604.968 204.667 604.968 207.12ZM643.984 228V216.48H652.784V228H643.984ZM663.313 186.4L667.073 180.72L661.393 178.96L662.833 174.32L668.673 176.8L668.273 170.64H673.953L673.553 176.8L679.313 174.32L680.753 178.96L675.153 180.72L678.913 186.4L674.753 189.12L671.153 183.12L667.473 189.12L663.313 186.4Z" fill="#0022D5"/>
<rect x="159" y="328" width="483" height="31" fill="white"/>
<rect x="159" y="359" width="348" height="31" fill="white"/>
<path d="M165.96 336.32L169.4 331.36L163.96 329.6L164.84 326.72L170.36 328.8L170.2 322.96H173.48L173.32 328.8L178.84 326.72L179.72 329.6L174.28 331.36L177.8 336.32L175.24 338.08L171.88 332.88L168.44 338.08L165.96 336.32Z" fill="#FF7A00"/>
<path d="M187.4 346V324.7H190.76V346H187.4ZM193.605 331.36L194.235 327.82H193.215V324.1H196.425V327.85L195.465 331.36H193.605ZM202.962 346L196.992 330.31H200.412L204.882 342.94L209.352 330.31H212.532L206.562 346H202.962ZM221.483 346.3C220.263 346.3 219.153 346.09 218.153 345.67C217.173 345.23 216.323 344.64 215.603 343.9C214.883 343.14 214.323 342.28 213.923 341.32C213.543 340.34 213.353 339.3 213.353 338.2C213.353 336.72 213.693 335.37 214.373 334.15C215.053 332.91 216.003 331.92 217.223 331.18C218.443 330.42 219.873 330.04 221.513 330.04C223.153 330.04 224.563 330.42 225.743 331.18C226.943 331.92 227.873 332.9 228.533 334.12C229.193 335.34 229.523 336.65 229.523 338.05C229.523 338.29 229.513 338.52 229.493 338.74C229.473 338.94 229.453 339.11 229.433 339.25H216.863C216.923 340.17 217.173 340.98 217.613 341.68C218.073 342.36 218.653 342.9 219.353 343.3C220.053 343.68 220.803 343.87 221.603 343.87C222.483 343.87 223.313 343.65 224.093 343.21C224.893 342.77 225.433 342.19 225.713 341.47L228.533 342.28C228.193 343.04 227.673 343.73 226.973 344.35C226.293 344.95 225.483 345.43 224.543 345.79C223.603 346.13 222.583 346.3 221.483 346.3ZM216.773 337.06H226.253C226.193 336.16 225.933 335.37 225.473 334.69C225.033 333.99 224.463 333.45 223.763 333.07C223.083 332.67 222.323 332.47 221.483 332.47C220.663 332.47 219.903 332.67 219.203 333.07C218.523 333.45 217.963 333.99 217.523 334.69C217.083 335.37 216.833 336.16 216.773 337.06ZM238.636 338.17C238.636 336.67 238.936 335.31 239.536 334.09C240.156 332.85 240.996 331.87 242.056 331.15C243.116 330.41 244.336 330.04 245.716 330.04C246.916 330.04 247.996 330.35 248.956 330.97C249.936 331.59 250.696 332.36 251.236 333.28V324.1H254.536V342.28C254.536 342.66 254.606 342.93 254.746 343.09C254.886 343.25 255.116 343.34 255.436 343.36V346C254.816 346.1 254.336 346.15 253.996 346.15C253.376 346.15 252.846 345.97 252.406 345.61C251.986 345.25 251.766 344.82 251.746 344.32L251.716 343.15C251.116 344.15 250.306 344.93 249.286 345.49C248.266 346.03 247.206 346.3 246.106 346.3C245.026 346.3 244.026 346.09 243.106 345.67C242.206 345.25 241.416 344.66 240.736 343.9C240.076 343.14 239.556 342.27 239.176 341.29C238.816 340.31 238.636 339.27 238.636 338.17ZM251.236 340.36V336.25C251.016 335.61 250.656 335.04 250.156 334.54C249.676 334.02 249.126 333.61 248.506 333.31C247.906 333.01 247.306 332.86 246.706 332.86C246.006 332.86 245.366 333.01 244.786 333.31C244.226 333.61 243.736 334.01 243.316 334.51C242.916 335.01 242.606 335.58 242.386 336.22C242.166 336.86 242.056 337.53 242.056 338.23C242.056 338.95 242.176 339.63 242.416 340.27C242.656 340.89 242.996 341.45 243.436 341.95C243.896 342.43 244.416 342.81 244.996 343.09C245.596 343.35 246.246 343.48 246.946 343.48C247.386 343.48 247.826 343.4 248.266 343.24C248.726 343.08 249.156 342.86 249.556 342.58C249.976 342.3 250.326 341.97 250.606 341.59C250.906 341.21 251.116 340.8 251.236 340.36ZM265.778 346.3C264.538 346.3 263.428 346.09 262.448 345.67C261.468 345.23 260.618 344.63 259.898 343.87C259.198 343.11 258.658 342.25 258.278 341.29C257.898 340.31 257.708 339.27 257.708 338.17C257.708 337.07 257.898 336.03 258.278 335.05C258.658 334.07 259.198 333.21 259.898 332.47C260.618 331.71 261.468 331.12 262.448 330.7C263.448 330.26 264.558 330.04 265.778 330.04C266.998 330.04 268.098 330.26 269.078 330.7C270.078 331.12 270.928 331.71 271.628 332.47C272.348 333.21 272.898 334.07 273.278 335.05C273.658 336.03 273.848 337.07 273.848 338.17C273.848 339.27 273.658 340.31 273.278 341.29C272.898 342.25 272.348 343.11 271.628 343.87C270.928 344.63 270.078 345.23 269.078 345.67C268.098 346.09 266.998 346.3 265.778 346.3ZM261.098 338.2C261.098 339.2 261.308 340.1 261.728 340.9C262.148 341.7 262.708 342.33 263.408 342.79C264.108 343.25 264.898 343.48 265.778 343.48C266.638 343.48 267.418 343.25 268.118 342.79C268.838 342.31 269.408 341.67 269.828 340.87C270.248 340.05 270.458 339.15 270.458 338.17C270.458 337.17 270.248 336.27 269.828 335.47C269.408 334.67 268.838 334.04 268.118 333.58C267.418 333.1 266.638 332.86 265.778 332.86C264.898 332.86 264.108 333.1 263.408 333.58C262.708 334.06 262.148 334.7 261.728 335.5C261.308 336.28 261.098 337.18 261.098 338.2ZM290.845 346H287.545V337.21C287.545 335.75 287.305 334.68 286.825 334C286.365 333.32 285.675 332.98 284.755 332.98C284.115 332.98 283.475 333.14 282.835 333.46C282.215 333.78 281.655 334.22 281.155 334.78C280.655 335.32 280.295 335.95 280.075 336.67V346H276.775V330.31H279.775V333.46C280.175 332.76 280.695 332.16 281.335 331.66C281.995 331.14 282.735 330.74 283.555 330.46C284.375 330.18 285.245 330.04 286.165 330.04C287.105 330.04 287.875 330.21 288.475 330.55C289.095 330.89 289.575 331.36 289.915 331.96C290.275 332.54 290.515 333.22 290.635 334C290.775 334.76 290.845 335.57 290.845 336.43V346ZM301.785 346.3C300.565 346.3 299.455 346.09 298.455 345.67C297.475 345.23 296.625 344.64 295.905 343.9C295.185 343.14 294.625 342.28 294.225 341.32C293.845 340.34 293.655 339.3 293.655 338.2C293.655 336.72 293.995 335.37 294.675 334.15C295.355 332.91 296.305 331.92 297.525 331.18C298.745 330.42 300.175 330.04 301.815 330.04C303.455 330.04 304.865 330.42 306.045 331.18C307.245 331.92 308.175 332.9 308.835 334.12C309.495 335.34 309.825 336.65 309.825 338.05C309.825 338.29 309.815 338.52 309.795 338.74C309.775 338.94 309.755 339.11 309.735 339.25H297.165C297.225 340.17 297.475 340.98 297.915 341.68C298.375 342.36 298.955 342.9 299.655 343.3C300.355 343.68 301.105 343.87 301.905 343.87C302.785 343.87 303.615 343.65 304.395 343.21C305.195 342.77 305.735 342.19 306.015 341.47L308.835 342.28C308.495 343.04 307.975 343.73 307.275 344.35C306.595 344.95 305.785 345.43 304.845 345.79C303.905 346.13 302.885 346.3 301.785 346.3ZM297.075 337.06H306.555C306.495 336.16 306.235 335.37 305.775 334.69C305.335 333.99 304.765 333.45 304.065 333.07C303.385 332.67 302.625 332.47 301.785 332.47C300.965 332.47 300.205 332.67 299.505 333.07C298.825 333.45 298.265 333.99 297.825 334.69C297.385 335.37 297.135 336.16 297.075 337.06ZM328.659 345.19C328.379 345.33 328.029 345.48 327.609 345.64C327.189 345.8 326.709 345.94 326.169 346.06C325.649 346.18 325.109 346.24 324.549 346.24C323.869 346.24 323.239 346.12 322.659 345.88C322.079 345.64 321.609 345.26 321.249 344.74C320.909 344.2 320.739 343.51 320.739 342.67V332.86H318.669V330.31H320.739V325.15H324.039V330.31H327.459V332.86H324.039V341.62C324.079 342.16 324.249 342.56 324.549 342.82C324.869 343.08 325.259 343.21 325.719 343.21C326.179 343.21 326.619 343.13 327.039 342.97C327.459 342.81 327.769 342.68 327.969 342.58L328.659 345.19ZM345.015 346H341.715V337.21C341.715 335.79 341.455 334.73 340.935 334.03C340.415 333.33 339.685 332.98 338.745 332.98C338.165 332.98 337.565 333.14 336.945 333.46C336.325 333.78 335.775 334.22 335.295 334.78C334.815 335.32 334.465 335.95 334.245 336.67V346H330.945V324.1H334.245V333.46C334.845 332.4 335.665 331.57 336.705 330.97C337.745 330.35 338.865 330.04 340.065 330.04C341.045 330.04 341.855 330.21 342.495 330.55C343.135 330.89 343.635 331.36 343.995 331.96C344.375 332.54 344.635 333.22 344.775 334C344.935 334.76 345.015 335.57 345.015 336.43V346ZM348.845 346V330.31H352.145V346H348.845ZM348.845 327.73V324.1H352.145V327.73H348.845ZM370.181 346H366.881V337.21C366.881 335.75 366.641 334.68 366.161 334C365.701 333.32 365.011 332.98 364.091 332.98C363.451 332.98 362.811 333.14 362.171 333.46C361.551 333.78 360.991 334.22 360.491 334.78C359.991 335.32 359.631 335.95 359.411 336.67V346H356.111V330.31H359.111V333.46C359.511 332.76 360.031 332.16 360.671 331.66C361.331 331.14 362.071 330.74 362.891 330.46C363.711 330.18 364.581 330.04 365.501 330.04C366.441 330.04 367.211 330.21 367.811 330.55C368.431 330.89 368.911 331.36 369.251 331.96C369.611 332.54 369.851 333.22 369.971 334C370.111 334.76 370.181 335.57 370.181 336.43V346ZM380.221 346.15C379.161 346.15 378.191 345.94 377.311 345.52C376.431 345.08 375.671 344.49 375.031 343.75C374.411 343.01 373.921 342.16 373.561 341.2C373.221 340.24 373.051 339.23 373.051 338.17C373.051 337.05 373.231 336 373.591 335.02C373.951 334.04 374.451 333.18 375.091 332.44C375.751 331.68 376.521 331.09 377.401 330.67C378.281 330.25 379.261 330.04 380.341 330.04C381.601 330.04 382.701 330.34 383.641 330.94C384.601 331.54 385.391 332.32 386.011 333.28V330.31H388.921V345.55C388.921 347.07 388.551 348.36 387.811 349.42C387.091 350.48 386.101 351.29 384.841 351.85C383.581 352.41 382.161 352.69 380.581 352.69C378.841 352.69 377.401 352.39 376.261 351.79C375.121 351.19 374.151 350.37 373.351 349.33L375.211 347.59C375.811 348.43 376.581 349.07 377.521 349.51C378.481 349.95 379.501 350.17 380.581 350.17C381.481 350.17 382.311 350 383.071 349.66C383.851 349.34 384.471 348.83 384.931 348.13C385.391 347.45 385.621 346.59 385.621 345.55V343.15C385.061 344.09 384.291 344.83 383.311 345.37C382.331 345.89 381.301 346.15 380.221 346.15ZM381.301 343.48C381.801 343.48 382.281 343.4 382.741 343.24C383.201 343.06 383.621 342.83 384.001 342.55C384.401 342.25 384.741 341.92 385.021 341.56C385.301 341.18 385.501 340.78 385.621 340.36V336.25C385.361 335.57 384.991 334.98 384.511 334.48C384.031 333.96 383.491 333.56 382.891 333.28C382.291 333 381.681 332.86 381.061 332.86C380.341 332.86 379.691 333.02 379.111 333.34C378.551 333.64 378.071 334.05 377.671 334.57C377.271 335.07 376.961 335.64 376.741 336.28C376.521 336.92 376.411 337.58 376.411 338.26C376.411 338.98 376.531 339.65 376.771 340.27C377.031 340.89 377.381 341.45 377.821 341.95C378.261 342.43 378.781 342.81 379.381 343.09C379.981 343.35 380.621 343.48 381.301 343.48ZM398.458 346.3C397.138 346.3 395.888 346.09 394.708 345.67C393.528 345.23 392.518 344.58 391.678 343.72L392.908 341.5C393.808 342.3 394.708 342.88 395.608 343.24C396.528 343.6 397.438 343.78 398.338 343.78C399.258 343.78 400.008 343.61 400.588 343.27C401.168 342.91 401.458 342.39 401.458 341.71C401.458 341.21 401.308 340.84 401.008 340.6C400.708 340.36 400.268 340.15 399.688 339.97C399.128 339.79 398.448 339.59 397.648 339.37C396.528 339.03 395.588 338.68 394.828 338.32C394.068 337.94 393.498 337.48 393.118 336.94C392.738 336.4 392.548 335.71 392.548 334.87C392.548 333.85 392.808 332.98 393.328 332.26C393.848 331.54 394.568 330.99 395.488 330.61C396.428 330.23 397.508 330.04 398.728 330.04C399.868 330.04 400.918 330.22 401.878 330.58C402.858 330.92 403.718 331.46 404.458 332.2L403.048 334.39C402.348 333.75 401.628 333.28 400.888 332.98C400.168 332.68 399.388 332.53 398.548 332.53C398.068 332.53 397.608 332.59 397.168 332.71C396.728 332.81 396.358 333.01 396.058 333.31C395.778 333.59 395.638 333.99 395.638 334.51C395.638 334.93 395.758 335.27 395.998 335.53C396.238 335.79 396.598 336.01 397.078 336.19C397.558 336.37 398.148 336.57 398.848 336.79C400.068 337.15 401.108 337.51 401.968 337.87C402.828 338.21 403.488 338.66 403.948 339.22C404.428 339.76 404.668 340.51 404.668 341.47C404.668 342.99 404.098 344.18 402.958 345.04C401.838 345.88 400.338 346.3 398.458 346.3ZM407.825 348.91L408.545 345.82H407.465V342.16H410.435V345.82L409.385 348.91H407.825ZM422.068 346V324.7H425.428V346H422.068ZM428.273 331.36L428.903 327.82H427.883V324.1H431.093V327.85L430.133 331.36H428.273ZM437.63 346L431.66 330.31H435.08L439.55 342.94L444.02 330.31H447.2L441.23 346H437.63ZM456.151 346.3C454.931 346.3 453.821 346.09 452.821 345.67C451.841 345.23 450.991 344.64 450.271 343.9C449.551 343.14 448.991 342.28 448.591 341.32C448.211 340.34 448.021 339.3 448.021 338.2C448.021 336.72 448.361 335.37 449.041 334.15C449.721 332.91 450.671 331.92 451.891 331.18C453.111 330.42 454.541 330.04 456.181 330.04C457.821 330.04 459.231 330.42 460.411 331.18C461.611 331.92 462.541 332.9 463.201 334.12C463.861 335.34 464.191 336.65 464.191 338.05C464.191 338.29 464.181 338.52 464.161 338.74C464.141 338.94 464.121 339.11 464.101 339.25H451.531C451.591 340.17 451.841 340.98 452.281 341.68C452.741 342.36 453.321 342.9 454.021 343.3C454.721 343.68 455.471 343.87 456.271 343.87C457.151 343.87 457.981 343.65 458.761 343.21C459.561 342.77 460.101 342.19 460.381 341.47L463.201 342.28C462.861 343.04 462.341 343.73 461.641 344.35C460.961 344.95 460.151 345.43 459.211 345.79C458.271 346.13 457.251 346.3 456.151 346.3ZM451.441 337.06H460.921C460.861 336.16 460.601 335.37 460.141 334.69C459.701 333.99 459.131 333.45 458.431 333.07C457.751 332.67 456.991 332.47 456.151 332.47C455.331 332.47 454.571 332.67 453.871 333.07C453.191 333.45 452.631 333.99 452.191 334.69C451.751 335.37 451.501 336.16 451.441 337.06ZM479.874 346.3C478.554 346.3 477.304 346.09 476.124 345.67C474.944 345.23 473.934 344.58 473.094 343.72L474.324 341.5C475.224 342.3 476.124 342.88 477.024 343.24C477.944 343.6 478.854 343.78 479.754 343.78C480.674 343.78 481.424 343.61 482.004 343.27C482.584 342.91 482.874 342.39 482.874 341.71C482.874 341.21 482.724 340.84 482.424 340.6C482.124 340.36 481.684 340.15 481.104 339.97C480.544 339.79 479.864 339.59 479.064 339.37C477.944 339.03 477.004 338.68 476.244 338.32C475.484 337.94 474.914 337.48 474.534 336.94C474.154 336.4 473.964 335.71 473.964 334.87C473.964 333.85 474.224 332.98 474.744 332.26C475.264 331.54 475.984 330.99 476.904 330.61C477.844 330.23 478.924 330.04 480.144 330.04C481.284 330.04 482.334 330.22 483.294 330.58C484.274 330.92 485.134 331.46 485.874 332.2L484.464 334.39C483.764 333.75 483.044 333.28 482.304 332.98C481.584 332.68 480.804 332.53 479.964 332.53C479.484 332.53 479.024 332.59 478.584 332.71C478.144 332.81 477.774 333.01 477.474 333.31C477.194 333.59 477.054 333.99 477.054 334.51C477.054 334.93 477.174 335.27 477.414 335.53C477.654 335.79 478.014 336.01 478.494 336.19C478.974 336.37 479.564 336.57 480.264 336.79C481.484 337.15 482.524 337.51 483.384 337.87C484.244 338.21 484.904 338.66 485.364 339.22C485.844 339.76 486.084 340.51 486.084 341.47C486.084 342.99 485.514 344.18 484.374 345.04C483.254 345.88 481.754 346.3 479.874 346.3ZM496.141 346.3C494.921 346.3 493.811 346.09 492.811 345.67C491.831 345.23 490.981 344.64 490.261 343.9C489.541 343.14 488.981 342.28 488.581 341.32C488.201 340.34 488.011 339.3 488.011 338.2C488.011 336.72 488.351 335.37 489.031 334.15C489.711 332.91 490.661 331.92 491.881 331.18C493.101 330.42 494.531 330.04 496.171 330.04C497.811 330.04 499.221 330.42 500.401 331.18C501.601 331.92 502.531 332.9 503.191 334.12C503.851 335.34 504.181 336.65 504.181 338.05C504.181 338.29 504.171 338.52 504.151 338.74C504.131 338.94 504.111 339.11 504.091 339.25H491.521C491.581 340.17 491.831 340.98 492.271 341.68C492.731 342.36 493.311 342.9 494.011 343.3C494.711 343.68 495.461 343.87 496.261 343.87C497.141 343.87 497.971 343.65 498.751 343.21C499.551 342.77 500.091 342.19 500.371 341.47L503.191 342.28C502.851 343.04 502.331 343.73 501.631 344.35C500.951 344.95 500.141 345.43 499.201 345.79C498.261 346.13 497.241 346.3 496.141 346.3ZM491.431 337.06H500.911C500.851 336.16 500.591 335.37 500.131 334.69C499.691 333.99 499.121 333.45 498.421 333.07C497.741 332.67 496.981 332.47 496.141 332.47C495.321 332.47 494.561 332.67 493.861 333.07C493.181 333.45 492.621 333.99 492.181 334.69C491.741 335.37 491.491 336.16 491.431 337.06ZM513.983 346.3C512.763 346.3 511.653 346.09 510.653 345.67C509.673 345.23 508.823 344.64 508.103 343.9C507.383 343.14 506.823 342.28 506.423 341.32C506.043 340.34 505.853 339.3 505.853 338.2C505.853 336.72 506.193 335.37 506.873 334.15C507.553 332.91 508.503 331.92 509.723 331.18C510.943 330.42 512.373 330.04 514.013 330.04C515.653 330.04 517.063 330.42 518.243 331.18C519.443 331.92 520.373 332.9 521.033 334.12C521.693 335.34 522.023 336.65 522.023 338.05C522.023 338.29 522.013 338.52 521.993 338.74C521.973 338.94 521.953 339.11 521.933 339.25H509.363C509.423 340.17 509.673 340.98 510.113 341.68C510.573 342.36 511.153 342.9 511.853 343.3C512.553 343.68 513.303 343.87 514.103 343.87C514.983 343.87 515.813 343.65 516.593 343.21C517.393 342.77 517.933 342.19 518.213 341.47L521.033 342.28C520.693 343.04 520.173 343.73 519.473 344.35C518.793 344.95 517.983 345.43 517.043 345.79C516.103 346.13 515.083 346.3 513.983 346.3ZM509.273 337.06H518.753C518.693 336.16 518.433 335.37 517.973 334.69C517.533 333.99 516.963 333.45 516.263 333.07C515.583 332.67 514.823 332.47 513.983 332.47C513.163 332.47 512.403 332.67 511.703 333.07C511.023 333.45 510.463 333.99 510.023 334.69C509.583 335.37 509.333 336.16 509.273 337.06ZM538.784 346H535.484V337.21C535.484 335.75 535.244 334.68 534.764 334C534.304 333.32 533.614 332.98 532.694 332.98C532.054 332.98 531.414 333.14 530.774 333.46C530.154 333.78 529.594 334.22 529.094 334.78C528.594 335.32 528.234 335.95 528.014 336.67V346H524.714V330.31H527.714V333.46C528.114 332.76 528.634 332.16 529.274 331.66C529.934 331.14 530.674 330.74 531.494 330.46C532.314 330.18 533.184 330.04 534.104 330.04C535.044 330.04 535.814 330.21 536.414 330.55C537.034 330.89 537.514 331.36 537.854 331.96C538.214 332.54 538.454 333.22 538.574 334C538.714 334.76 538.784 335.57 538.784 336.43V346ZM558.937 346.3C557.677 346.3 556.567 346 555.607 345.4C554.647 344.8 553.887 344.02 553.327 343.06V352.39H550.027V330.31H552.937V333.13C553.537 332.19 554.317 331.44 555.277 330.88C556.237 330.32 557.307 330.04 558.487 330.04C559.567 330.04 560.557 330.26 561.457 330.7C562.357 331.12 563.137 331.71 563.797 332.47C564.457 333.23 564.967 334.1 565.327 335.08C565.707 336.04 565.897 337.06 565.897 338.14C565.897 339.64 565.597 341.01 564.997 342.25C564.417 343.49 563.597 344.48 562.537 345.22C561.497 345.94 560.297 346.3 558.937 346.3ZM557.857 343.48C558.557 343.48 559.187 343.33 559.747 343.03C560.327 342.73 560.817 342.33 561.217 341.83C561.637 341.33 561.957 340.76 562.177 340.12C562.397 339.48 562.507 338.82 562.507 338.14C562.507 337.42 562.387 336.74 562.147 336.1C561.907 335.46 561.557 334.9 561.097 334.42C560.657 333.94 560.137 333.56 559.537 333.28C558.957 333 558.317 332.86 557.617 332.86C557.197 332.86 556.757 332.94 556.297 333.1C555.837 333.26 555.407 333.48 555.007 333.76C554.607 334.04 554.257 334.37 553.957 334.75C553.657 335.13 553.447 335.53 553.327 335.95V340.06C553.607 340.7 553.977 341.28 554.437 341.8C554.897 342.3 555.427 342.71 556.027 343.03C556.627 343.33 557.237 343.48 557.857 343.48ZM575.975 346.3C574.755 346.3 573.645 346.09 572.645 345.67C571.665 345.23 570.815 344.64 570.095 343.9C569.375 343.14 568.815 342.28 568.415 341.32C568.035 340.34 567.845 339.3 567.845 338.2C567.845 336.72 568.185 335.37 568.865 334.15C569.545 332.91 570.495 331.92 571.715 331.18C572.935 330.42 574.365 330.04 576.005 330.04C577.645 330.04 579.055 330.42 580.235 331.18C581.435 331.92 582.365 332.9 583.025 334.12C583.685 335.34 584.015 336.65 584.015 338.05C584.015 338.29 584.005 338.52 583.985 338.74C583.965 338.94 583.945 339.11 583.925 339.25H571.355C571.415 340.17 571.665 340.98 572.105 341.68C572.565 342.36 573.145 342.9 573.845 343.3C574.545 343.68 575.295 343.87 576.095 343.87C576.975 343.87 577.805 343.65 578.585 343.21C579.385 342.77 579.925 342.19 580.205 341.47L583.025 342.28C582.685 343.04 582.165 343.73 581.465 344.35C580.785 344.95 579.975 345.43 579.035 345.79C578.095 346.13 577.075 346.3 575.975 346.3ZM571.265 337.06H580.745C580.685 336.16 580.425 335.37 579.965 334.69C579.525 333.99 578.955 333.45 578.255 333.07C577.575 332.67 576.815 332.47 575.975 332.47C575.155 332.47 574.395 332.67 573.695 333.07C573.015 333.45 572.455 333.99 572.015 334.69C571.575 335.37 571.325 336.16 571.265 337.06ZM593.757 346.3C592.517 346.3 591.407 346.09 590.427 345.67C589.447 345.23 588.597 344.63 587.877 343.87C587.177 343.11 586.637 342.25 586.257 341.29C585.877 340.31 585.687 339.27 585.687 338.17C585.687 337.07 585.877 336.03 586.257 335.05C586.637 334.07 587.177 333.21 587.877 332.47C588.597 331.71 589.447 331.12 590.427 330.7C591.427 330.26 592.537 330.04 593.757 330.04C594.977 330.04 596.077 330.26 597.057 330.7C598.057 331.12 598.907 331.71 599.607 332.47C600.327 333.21 600.877 334.07 601.257 335.05C601.637 336.03 601.827 337.07 601.827 338.17C601.827 339.27 601.637 340.31 601.257 341.29C600.877 342.25 600.327 343.11 599.607 343.87C598.907 344.63 598.057 345.23 597.057 345.67C596.077 346.09 594.977 346.3 593.757 346.3ZM589.077 338.2C589.077 339.2 589.287 340.1 589.707 340.9C590.127 341.7 590.687 342.33 591.387 342.79C592.087 343.25 592.877 343.48 593.757 343.48C594.617 343.48 595.397 343.25 596.097 342.79C596.817 342.31 597.387 341.67 597.807 340.87C598.227 340.05 598.437 339.15 598.437 338.17C598.437 337.17 598.227 336.27 597.807 335.47C597.387 334.67 596.817 334.04 596.097 333.58C595.397 333.1 594.617 332.86 593.757 332.86C592.877 332.86 592.087 333.1 591.387 333.58C590.687 334.06 590.127 334.7 589.707 335.5C589.287 336.28 589.077 337.18 589.077 338.2ZM613.663 346.3C612.403 346.3 611.293 346 610.333 345.4C609.373 344.8 608.613 344.02 608.053 343.06V352.39H604.753V330.31H607.663V333.13C608.263 332.19 609.043 331.44 610.003 330.88C610.963 330.32 612.033 330.04 613.213 330.04C614.293 330.04 615.283 330.26 616.183 330.7C617.083 331.12 617.863 331.71 618.523 332.47C619.183 333.23 619.693 334.1 620.053 335.08C620.433 336.04 620.623 337.06 620.623 338.14C620.623 339.64 620.323 341.01 619.723 342.25C619.143 343.49 618.323 344.48 617.263 345.22C616.223 345.94 615.023 346.3 613.663 346.3ZM612.583 343.48C613.283 343.48 613.913 343.33 614.473 343.03C615.053 342.73 615.543 342.33 615.943 341.83C616.363 341.33 616.683 340.76 616.903 340.12C617.123 339.48 617.233 338.82 617.233 338.14C617.233 337.42 617.113 336.74 616.873 336.1C616.633 335.46 616.283 334.9 615.823 334.42C615.383 333.94 614.863 333.56 614.263 333.28C613.683 333 613.043 332.86 612.343 332.86C611.923 332.86 611.483 332.94 611.023 333.1C610.563 333.26 610.133 333.48 609.733 333.76C609.333 334.04 608.983 334.37 608.683 334.75C608.383 335.13 608.173 335.53 608.053 335.95V340.06C608.333 340.7 608.703 341.28 609.163 341.8C609.623 342.3 610.153 342.71 610.753 343.03C611.353 343.33 611.963 343.48 612.583 343.48ZM623.621 324.1H626.921V341.47C626.921 342.27 627.041 342.78 627.281 343C627.521 343.22 627.821 343.33 628.181 343.33C628.581 343.33 628.951 343.29 629.291 343.21C629.651 343.13 629.961 343.03 630.221 342.91L630.701 345.52C630.221 345.72 629.651 345.89 628.991 346.03C628.331 346.17 627.741 346.24 627.221 346.24C626.101 346.24 625.221 345.93 624.581 345.31C623.941 344.67 623.621 343.79 623.621 342.67V324.1ZM639.725 346.3C638.505 346.3 637.395 346.09 636.395 345.67C635.415 345.23 634.565 344.64 633.845 343.9C633.125 343.14 632.565 342.28 632.165 341.32C631.785 340.34 631.595 339.3 631.595 338.2C631.595 336.72 631.935 335.37 632.615 334.15C633.295 332.91 634.245 331.92 635.465 331.18C636.685 330.42 638.115 330.04 639.755 330.04C641.395 330.04 642.805 330.42 643.985 331.18C645.185 331.92 646.115 332.9 646.775 334.12C647.435 335.34 647.765 336.65 647.765 338.05C647.765 338.29 647.755 338.52 647.735 338.74C647.715 338.94 647.695 339.11 647.675 339.25H635.105C635.165 340.17 635.415 340.98 635.855 341.68C636.315 342.36 636.895 342.9 637.595 343.3C638.295 343.68 639.045 343.87 639.845 343.87C640.725 343.87 641.555 343.65 642.335 343.21C643.135 342.77 643.675 342.19 643.955 341.47L646.775 342.28C646.435 343.04 645.915 343.73 645.215 344.35C644.535 344.95 643.725 345.43 642.785 345.79C641.845 346.13 640.825 346.3 639.725 346.3ZM635.015 337.06H644.495C644.435 336.16 644.175 335.37 643.715 334.69C643.275 333.99 642.705 333.45 642.005 333.07C641.325 332.67 640.565 332.47 639.725 332.47C638.905 332.47 638.145 332.67 637.445 333.07C636.765 333.45 636.205 333.99 635.765 334.69C635.325 335.37 635.075 336.16 635.015 337.06ZM650.667 348.91L651.387 345.82H650.307V342.16H653.277V345.82L652.227 348.91H650.667ZM187.4 376V354.7H190.76V376H187.4ZM193.605 361.36L194.235 357.82H193.215V354.1H196.425V357.85L195.465 361.36H193.605ZM222.259 376H218.959V367.21C218.959 365.75 218.719 364.68 218.239 364C217.759 363.32 217.059 362.98 216.139 362.98C215.219 362.98 214.359 363.33 213.559 364.03C212.779 364.71 212.229 365.6 211.909 366.7V376H208.609V367.21C208.609 365.75 208.369 364.68 207.889 364C207.409 363.32 206.719 362.98 205.819 362.98C204.899 362.98 204.039 363.32 203.239 364C202.459 364.68 201.899 365.57 201.559 366.67V376H198.259V360.31H201.259V363.46C201.879 362.36 202.689 361.52 203.689 360.94C204.709 360.34 205.869 360.04 207.169 360.04C208.469 360.04 209.489 360.38 210.229 361.06C210.989 361.74 211.459 362.59 211.639 363.61C212.319 362.45 213.149 361.57 214.129 360.97C215.129 360.35 216.269 360.04 217.549 360.04C218.469 360.04 219.239 360.21 219.859 360.55C220.479 360.89 220.959 361.36 221.299 361.96C221.639 362.54 221.879 363.22 222.019 364C222.179 364.76 222.259 365.57 222.259 366.43V376ZM244.394 376L239.354 368.77L236.774 371.23V376H233.474V354.1H236.774V367.9L244.034 360.34H247.574L241.484 366.91L247.904 376H244.394ZM256.199 376.3C254.979 376.3 253.869 376.09 252.869 375.67C251.889 375.23 251.039 374.64 250.319 373.9C249.599 373.14 249.039 372.28 248.639 371.32C248.259 370.34 248.069 369.3 248.069 368.2C248.069 366.72 248.409 365.37 249.089 364.15C249.769 362.91 250.719 361.92 251.939 361.18C253.159 360.42 254.589 360.04 256.229 360.04C257.869 360.04 259.279 360.42 260.459 361.18C261.659 361.92 262.589 362.9 263.249 364.12C263.909 365.34 264.239 366.65 264.239 368.05C264.239 368.29 264.229 368.52 264.209 368.74C264.189 368.94 264.169 369.11 264.149 369.25H251.579C251.639 370.17 251.889 370.98 252.329 371.68C252.789 372.36 253.369 372.9 254.069 373.3C254.769 373.68 255.519 373.87 256.319 373.87C257.199 373.87 258.029 373.65 258.809 373.21C259.609 372.77 260.149 372.19 260.429 371.47L263.249 372.28C262.909 373.04 262.389 373.73 261.689 374.35C261.009 374.95 260.199 375.43 259.259 375.79C258.319 376.13 257.299 376.3 256.199 376.3ZM251.489 367.06H260.969C260.909 366.16 260.649 365.37 260.189 364.69C259.749 363.99 259.179 363.45 258.479 363.07C257.799 362.67 257.039 362.47 256.199 362.47C255.379 362.47 254.619 362.67 253.919 363.07C253.239 363.45 252.679 363.99 252.239 364.69C251.799 365.37 251.549 366.16 251.489 367.06ZM274.041 376.3C272.821 376.3 271.711 376.09 270.711 375.67C269.731 375.23 268.881 374.64 268.161 373.9C267.441 373.14 266.881 372.28 266.481 371.32C266.101 370.34 265.911 369.3 265.911 368.2C265.911 366.72 266.251 365.37 266.931 364.15C267.611 362.91 268.561 361.92 269.781 361.18C271.001 360.42 272.431 360.04 274.071 360.04C275.711 360.04 277.121 360.42 278.301 361.18C279.501 361.92 280.431 362.9 281.091 364.12C281.751 365.34 282.081 366.65 282.081 368.05C282.081 368.29 282.071 368.52 282.051 368.74C282.031 368.94 282.011 369.11 281.991 369.25H269.421C269.481 370.17 269.731 370.98 270.171 371.68C270.631 372.36 271.211 372.9 271.911 373.3C272.611 373.68 273.361 373.87 274.161 373.87C275.041 373.87 275.871 373.65 276.651 373.21C277.451 372.77 277.991 372.19 278.271 371.47L281.091 372.28C280.751 373.04 280.231 373.73 279.531 374.35C278.851 374.95 278.041 375.43 277.101 375.79C276.161 376.13 275.141 376.3 274.041 376.3ZM269.331 367.06H278.811C278.751 366.16 278.491 365.37 278.031 364.69C277.591 363.99 277.021 363.45 276.321 363.07C275.641 362.67 274.881 362.47 274.041 362.47C273.221 362.47 272.461 362.67 271.761 363.07C271.081 363.45 270.521 363.99 270.081 364.69C269.641 365.37 269.391 366.16 269.331 367.06ZM293.683 376.3C292.423 376.3 291.313 376 290.353 375.4C289.393 374.8 288.633 374.02 288.073 373.06V382.39H284.773V360.31H287.683V363.13C288.283 362.19 289.063 361.44 290.023 360.88C290.983 360.32 292.053 360.04 293.233 360.04C294.313 360.04 295.303 360.26 296.203 360.7C297.103 361.12 297.883 361.71 298.543 362.47C299.203 363.23 299.713 364.1 300.073 365.08C300.453 366.04 300.643 367.06 300.643 368.14C300.643 369.64 300.343 371.01 299.743 372.25C299.163 373.49 298.343 374.48 297.283 375.22C296.243 375.94 295.043 376.3 293.683 376.3ZM292.603 373.48C293.303 373.48 293.933 373.33 294.493 373.03C295.073 372.73 295.563 372.33 295.963 371.83C296.383 371.33 296.703 370.76 296.923 370.12C297.143 369.48 297.253 368.82 297.253 368.14C297.253 367.42 297.133 366.74 296.893 366.1C296.653 365.46 296.303 364.9 295.843 364.42C295.403 363.94 294.883 363.56 294.283 363.28C293.703 363 293.063 362.86 292.363 362.86C291.943 362.86 291.503 362.94 291.043 363.1C290.583 363.26 290.153 363.48 289.753 363.76C289.353 364.04 289.003 364.37 288.703 364.75C288.403 365.13 288.193 365.53 288.073 365.95V370.06C288.353 370.7 288.723 371.28 289.183 371.8C289.643 372.3 290.173 372.71 290.773 373.03C291.373 373.33 291.983 373.48 292.603 373.48ZM303.611 376V360.31H306.911V376H303.611ZM303.611 357.73V354.1H306.911V357.73H303.611ZM324.946 376H321.646V367.21C321.646 365.75 321.406 364.68 320.926 364C320.466 363.32 319.776 362.98 318.856 362.98C318.216 362.98 317.576 363.14 316.936 363.46C316.316 363.78 315.756 364.22 315.256 364.78C314.756 365.32 314.396 365.95 314.176 366.67V376H310.876V360.31H313.876V363.46C314.276 362.76 314.796 362.16 315.436 361.66C316.096 361.14 316.836 360.74 317.656 360.46C318.476 360.18 319.346 360.04 320.266 360.04C321.206 360.04 321.976 360.21 322.576 360.55C323.196 360.89 323.676 361.36 324.016 361.96C324.376 362.54 324.616 363.22 324.736 364C324.876 364.76 324.946 365.57 324.946 366.43V376ZM334.987 376.15C333.927 376.15 332.957 375.94 332.077 375.52C331.197 375.08 330.437 374.49 329.797 373.75C329.177 373.01 328.687 372.16 328.327 371.2C327.987 370.24 327.817 369.23 327.817 368.17C327.817 367.05 327.997 366 328.357 365.02C328.717 364.04 329.217 363.18 329.857 362.44C330.517 361.68 331.287 361.09 332.167 360.67C333.047 360.25 334.027 360.04 335.107 360.04C336.367 360.04 337.467 360.34 338.407 360.94C339.367 361.54 340.157 362.32 340.777 363.28V360.31H343.687V375.55C343.687 377.07 343.317 378.36 342.577 379.42C341.857 380.48 340.867 381.29 339.607 381.85C338.347 382.41 336.927 382.69 335.347 382.69C333.607 382.69 332.167 382.39 331.027 381.79C329.887 381.19 328.917 380.37 328.117 379.33L329.977 377.59C330.577 378.43 331.347 379.07 332.287 379.51C333.247 379.95 334.267 380.17 335.347 380.17C336.247 380.17 337.077 380 337.837 379.66C338.617 379.34 339.237 378.83 339.697 378.13C340.157 377.45 340.387 376.59 340.387 375.55V373.15C339.827 374.09 339.057 374.83 338.077 375.37C337.097 375.89 336.067 376.15 334.987 376.15ZM336.067 373.48C336.567 373.48 337.047 373.4 337.507 373.24C337.967 373.06 338.387 372.83 338.767 372.55C339.167 372.25 339.507 371.92 339.787 371.56C340.067 371.18 340.267 370.78 340.387 370.36V366.25C340.127 365.57 339.757 364.98 339.277 364.48C338.797 363.96 338.257 363.56 337.657 363.28C337.057 363 336.447 362.86 335.827 362.86C335.107 362.86 334.457 363.02 333.877 363.34C333.317 363.64 332.837 364.05 332.437 364.57C332.037 365.07 331.727 365.64 331.507 366.28C331.287 366.92 331.177 367.58 331.177 368.26C331.177 368.98 331.297 369.65 331.537 370.27C331.797 370.89 332.147 371.45 332.587 371.95C333.027 372.43 333.547 372.81 334.147 373.09C334.747 373.35 335.387 373.48 336.067 373.48ZM362.106 376.3C360.866 376.3 359.756 376.09 358.776 375.67C357.796 375.23 356.946 374.63 356.226 373.87C355.526 373.11 354.986 372.25 354.606 371.29C354.226 370.31 354.036 369.27 354.036 368.17C354.036 367.07 354.226 366.03 354.606 365.05C354.986 364.07 355.526 363.21 356.226 362.47C356.946 361.71 357.796 361.12 358.776 360.7C359.776 360.26 360.886 360.04 362.106 360.04C363.326 360.04 364.426 360.26 365.406 360.7C366.406 361.12 367.256 361.71 367.956 362.47C368.676 363.21 369.226 364.07 369.606 365.05C369.986 366.03 370.176 367.07 370.176 368.17C370.176 369.27 369.986 370.31 369.606 371.29C369.226 372.25 368.676 373.11 367.956 373.87C367.256 374.63 366.406 375.23 365.406 375.67C364.426 376.09 363.326 376.3 362.106 376.3ZM357.426 368.2C357.426 369.2 357.636 370.1 358.056 370.9C358.476 371.7 359.036 372.33 359.736 372.79C360.436 373.25 361.226 373.48 362.106 373.48C362.966 373.48 363.746 373.25 364.446 372.79C365.166 372.31 365.736 371.67 366.156 370.87C366.576 370.05 366.786 369.15 366.786 368.17C366.786 367.17 366.576 366.27 366.156 365.47C365.736 364.67 365.166 364.04 364.446 363.58C363.746 363.1 362.966 362.86 362.106 362.86C361.226 362.86 360.436 363.1 359.736 363.58C359.036 364.06 358.476 364.7 358.056 365.5C357.636 366.28 357.426 367.18 357.426 368.2ZM387.173 376H383.873V367.21C383.873 365.75 383.633 364.68 383.153 364C382.693 363.32 382.003 362.98 381.083 362.98C380.443 362.98 379.803 363.14 379.163 363.46C378.543 363.78 377.983 364.22 377.483 364.78C376.983 365.32 376.623 365.95 376.403 366.67V376H373.103V360.31H376.103V363.46C376.503 362.76 377.023 362.16 377.663 361.66C378.323 361.14 379.063 360.74 379.883 360.46C380.703 360.18 381.573 360.04 382.493 360.04C383.433 360.04 384.203 360.21 384.803 360.55C385.423 360.89 385.903 361.36 386.243 361.96C386.603 362.54 386.843 363.22 386.963 364C387.103 364.76 387.173 365.57 387.173 366.43V376ZM407.146 375.19C406.866 375.33 406.516 375.48 406.096 375.64C405.676 375.8 405.196 375.94 404.656 376.06C404.136 376.18 403.596 376.24 403.036 376.24C402.356 376.24 401.726 376.12 401.146 375.88C400.566 375.64 400.096 375.26 399.736 374.74C399.396 374.2 399.226 373.51 399.226 372.67V362.86H397.156V360.31H399.226V355.15H402.526V360.31H405.946V362.86H402.526V371.62C402.566 372.16 402.736 372.56 403.036 372.82C403.356 373.08 403.746 373.21 404.206 373.21C404.666 373.21 405.106 373.13 405.526 372.97C405.946 372.81 406.256 372.68 406.456 372.58L407.146 375.19ZM423.501 376H420.201V367.21C420.201 365.79 419.941 364.73 419.421 364.03C418.901 363.33 418.171 362.98 417.231 362.98C416.651 362.98 416.051 363.14 415.431 363.46C414.811 363.78 414.261 364.22 413.781 364.78C413.301 365.32 412.951 365.95 412.731 366.67V376H409.431V354.1H412.731V363.46C413.331 362.4 414.151 361.57 415.191 360.97C416.231 360.35 417.351 360.04 418.551 360.04C419.531 360.04 420.341 360.21 420.981 360.55C421.621 360.89 422.121 361.36 422.481 361.96C422.861 362.54 423.121 363.22 423.261 364C423.421 364.76 423.501 365.57 423.501 366.43V376ZM427.332 376V360.31H430.632V376H427.332ZM427.332 357.73V354.1H430.632V357.73H427.332ZM440.177 376.3C438.857 376.3 437.607 376.09 436.427 375.67C435.247 375.23 434.237 374.58 433.397 373.72L434.627 371.5C435.527 372.3 436.427 372.88 437.327 373.24C438.247 373.6 439.157 373.78 440.057 373.78C440.977 373.78 441.727 373.61 442.307 373.27C442.887 372.91 443.177 372.39 443.177 371.71C443.177 371.21 443.027 370.84 442.727 370.6C442.427 370.36 441.987 370.15 441.407 369.97C440.847 369.79 440.167 369.59 439.367 369.37C438.247 369.03 437.307 368.68 436.547 368.32C435.787 367.94 435.217 367.48 434.837 366.94C434.457 366.4 434.267 365.71 434.267 364.87C434.267 363.85 434.527 362.98 435.047 362.26C435.567 361.54 436.287 360.99 437.207 360.61C438.147 360.23 439.227 360.04 440.447 360.04C441.587 360.04 442.637 360.22 443.597 360.58C444.577 360.92 445.437 361.46 446.177 362.2L444.767 364.39C444.067 363.75 443.347 363.28 442.607 362.98C441.887 362.68 441.107 362.53 440.267 362.53C439.787 362.53 439.327 362.59 438.887 362.71C438.447 362.81 438.077 363.01 437.777 363.31C437.497 363.59 437.357 363.99 437.357 364.51C437.357 364.93 437.477 365.27 437.717 365.53C437.957 365.79 438.317 366.01 438.797 366.19C439.277 366.37 439.867 366.57 440.567 366.79C441.787 367.15 442.827 367.51 443.687 367.87C444.547 368.21 445.207 368.66 445.667 369.22C446.147 369.76 446.387 370.51 446.387 371.47C446.387 372.99 445.817 374.18 444.677 375.04C443.557 375.88 442.057 376.3 440.177 376.3ZM475.456 360.31H478.606L472.006 376H469.186L466.366 368.92L463.546 376H460.726L454.096 360.31H457.246L462.286 372.79L464.506 367L461.806 360.34H464.596L466.366 365.23L468.106 360.34H470.896L468.226 367L470.446 372.79L475.456 360.31ZM479.278 371.41C479.278 370.41 479.558 369.54 480.118 368.8C480.698 368.04 481.488 367.46 482.488 367.06C483.488 366.64 484.648 366.43 485.968 366.43C486.668 366.43 487.378 366.48 488.098 366.58C488.838 366.68 489.488 366.84 490.048 367.06V366.07C490.048 364.97 489.718 364.11 489.058 363.49C488.398 362.87 487.448 362.56 486.208 362.56C485.328 362.56 484.498 362.72 483.718 363.04C482.938 363.34 482.108 363.77 481.228 364.33L480.118 362.11C481.158 361.41 482.198 360.89 483.238 360.55C484.298 360.21 485.408 360.04 486.568 360.04C488.668 360.04 490.318 360.6 491.518 361.72C492.738 362.82 493.348 364.39 493.348 366.43V372.28C493.348 372.66 493.408 372.93 493.528 373.09C493.668 373.25 493.898 373.34 494.218 373.36V376C493.918 376.06 493.648 376.1 493.408 376.12C493.168 376.14 492.968 376.15 492.808 376.15C492.108 376.15 491.578 375.98 491.218 375.64C490.858 375.3 490.648 374.9 490.588 374.44L490.498 373.54C489.818 374.42 488.948 375.1 487.888 375.58C486.828 376.06 485.758 376.3 484.678 376.3C483.638 376.3 482.708 376.09 481.888 375.67C481.068 375.23 480.428 374.64 479.968 373.9C479.508 373.16 479.278 372.33 479.278 371.41ZM489.268 372.37C489.508 372.11 489.698 371.85 489.838 371.59C489.978 371.33 490.048 371.1 490.048 370.9V369.1C489.488 368.88 488.898 368.72 488.278 368.62C487.658 368.5 487.048 368.44 486.448 368.44C485.248 368.44 484.268 368.68 483.508 369.16C482.768 369.64 482.397 370.3 482.397 371.14C482.397 371.6 482.518 372.04 482.758 372.46C483.018 372.88 483.378 373.22 483.838 373.48C484.318 373.74 484.908 373.87 485.608 373.87C486.328 373.87 487.018 373.73 487.678 373.45C488.338 373.17 488.868 372.81 489.268 372.37ZM497.334 379.69C497.634 379.73 497.924 379.77 498.204 379.81C498.504 379.87 498.744 379.9 498.924 379.9C499.264 379.9 499.554 379.79 499.794 379.57C500.054 379.37 500.314 378.99 500.574 378.43C500.834 377.87 501.154 377.06 501.534 376L495.084 360.31H498.534L503.334 372.64L507.594 360.31H510.774L503.664 379.63C503.444 380.21 503.124 380.74 502.704 381.22C502.284 381.72 501.764 382.11 501.144 382.39C500.524 382.67 499.794 382.81 498.954 382.81C498.714 382.81 498.464 382.79 498.204 382.75C497.944 382.71 497.654 382.65 497.334 382.57V379.69ZM511.029 376V372.16H513.759V376H511.029Z" fill="#FF7A00"/>
</svg>
