<svg width="1389" height="237" viewBox="0 0 1389 237" fill="none" xmlns="http://www.w3.org/2000/svg">
<path d="M5.92 59V2.2H16.96V59H5.92ZM44.1094 46.6C44.1094 43.88 44.856 41.5067 46.3494 39.48C47.896 37.4 50.0294 35.8 52.7494 34.68C55.4694 33.56 58.5894 33 62.1094 33C63.8694 33 65.656 33.1333 67.4694 33.4C69.2827 33.6667 70.856 34.0933 72.1894 34.68V32.44C72.1894 29.7733 71.3894 27.72 69.7894 26.28C68.2427 24.84 65.9227 24.12 62.8294 24.12C60.536 24.12 58.3494 24.52 56.2694 25.32C54.1894 26.12 52.0027 27.2933 49.7094 28.84L46.2694 21.8C49.0427 19.9867 51.8694 18.6267 54.7494 17.72C57.6827 16.8133 60.7494 16.36 63.9494 16.36C69.9227 16.36 74.5627 17.8533 77.8694 20.84C81.2294 23.8267 82.9094 28.0933 82.9094 33.64V47C82.9094 48.12 83.096 48.92 83.4694 49.4C83.896 49.88 84.5627 50.1733 85.4694 50.28V59C84.5094 59.16 83.6294 59.2933 82.8294 59.4C82.0827 59.5067 81.4427 59.56 80.9094 59.56C78.776 59.56 77.1494 59.08 76.0294 58.12C74.9627 57.16 74.296 55.9867 74.0294 54.6L73.7894 52.44C71.976 54.7867 69.7094 56.6 66.9894 57.88C64.2694 59.16 61.496 59.8 58.6694 59.8C55.896 59.8 53.3894 59.24 51.1494 58.12C48.9627 56.9467 47.2294 55.3733 45.9494 53.4C44.7227 51.3733 44.1094 49.1067 44.1094 46.6ZM70.1894 48.76C70.776 48.12 71.256 47.48 71.6294 46.84C72.0027 46.2 72.1894 45.6133 72.1894 45.08V40.84C70.9094 40.3067 69.5227 39.9067 68.0294 39.64C66.536 39.32 65.1227 39.16 63.7894 39.16C61.016 39.16 58.7227 39.7733 56.9094 41C55.1494 42.1733 54.2694 43.7467 54.2694 45.72C54.2694 46.7867 54.5627 47.8 55.1494 48.76C55.736 49.72 56.5894 50.4933 57.7094 51.08C58.8294 51.6667 60.1627 51.96 61.7094 51.96C63.3094 51.96 64.8827 51.6667 66.4294 51.08C67.976 50.44 69.2294 49.6667 70.1894 48.76ZM92.8469 0.599998H103.567V45.56C103.567 47.48 103.887 48.7867 104.527 49.48C105.167 50.12 106.047 50.44 107.167 50.44C108.02 50.44 108.9 50.3333 109.807 50.12C110.714 49.9067 111.514 49.64 112.207 49.32L113.647 57.48C112.207 58.1733 110.527 58.7067 108.607 59.08C106.687 59.4533 104.954 59.64 103.407 59.64C100.047 59.64 97.4335 58.76 95.5669 57C93.7535 55.1867 92.8469 52.6267 92.8469 49.32V0.599998ZM168.208 17.08H178.368L160.848 59H151.888L144.848 41L137.968 59H128.928L111.488 17.08H121.568L134.048 48.76L138.928 35.08L131.648 17.16H140.528L144.848 29.96L149.248 17.16H158.128L150.848 35.08L155.808 48.76L168.208 17.08ZM179.422 46.6C179.422 43.88 180.169 41.5067 181.662 39.48C183.209 37.4 185.342 35.8 188.062 34.68C190.782 33.56 193.902 33 197.422 33C199.182 33 200.969 33.1333 202.782 33.4C204.595 33.6667 206.169 34.0933 207.502 34.68V32.44C207.502 29.7733 206.702 27.72 205.102 26.28C203.555 24.84 201.235 24.12 198.142 24.12C195.849 24.12 193.662 24.52 191.582 25.32C189.502 26.12 187.315 27.2933 185.022 28.84L181.582 21.8C184.355 19.9867 187.182 18.6267 190.062 17.72C192.995 16.8133 196.062 16.36 199.262 16.36C205.235 16.36 209.875 17.8533 213.182 20.84C216.542 23.8267 218.222 28.0933 218.222 33.64V47C218.222 48.12 218.409 48.92 218.782 49.4C219.209 49.88 219.875 50.1733 220.782 50.28V59C219.822 59.16 218.942 59.2933 218.142 59.4C217.395 59.5067 216.755 59.56 216.222 59.56C214.089 59.56 212.462 59.08 211.342 58.12C210.275 57.16 209.609 55.9867 209.342 54.6L209.102 52.44C207.289 54.7867 205.022 56.6 202.302 57.88C199.582 59.16 196.809 59.8 193.982 59.8C191.209 59.8 188.702 59.24 186.462 58.12C184.275 56.9467 182.542 55.3733 181.262 53.4C180.035 51.3733 179.422 49.1067 179.422 46.6ZM205.502 48.76C206.089 48.12 206.569 47.48 206.942 46.84C207.315 46.2 207.502 45.6133 207.502 45.08V40.84C206.222 40.3067 204.835 39.9067 203.342 39.64C201.849 39.32 200.435 39.16 199.102 39.16C196.329 39.16 194.035 39.7733 192.222 41C190.462 42.1733 189.582 43.7467 189.582 45.72C189.582 46.7867 189.875 47.8 190.462 48.76C191.049 49.72 191.902 50.4933 193.022 51.08C194.142 51.6667 195.475 51.96 197.022 51.96C198.622 51.96 200.195 51.6667 201.742 51.08C203.289 50.44 204.542 49.6667 205.502 48.76ZM227.557 67.16C228.517 67.3733 229.397 67.56 230.197 67.72C231.05 67.88 231.77 67.96 232.357 67.96C233.37 67.96 234.197 67.6933 234.837 67.16C235.53 66.68 236.197 65.7733 236.837 64.44C237.477 63.16 238.144 61.3467 238.837 59L222.277 17.08H233.397L244.677 48.04L254.597 17.08H264.837L247.237 67.32C246.597 69.1867 245.61 70.8667 244.277 72.36C242.997 73.9067 241.37 75.1067 239.397 75.96C237.477 76.8667 235.317 77.32 232.917 77.32C232.064 77.32 231.21 77.24 230.357 77.08C229.504 76.9733 228.57 76.76 227.557 76.44V67.16ZM285.086 59.8C281.512 59.8 278.099 59.2133 274.846 58.04C271.592 56.8667 268.792 55.1333 266.446 52.84L270.286 45.88C272.792 47.9067 275.246 49.4 277.646 50.36C280.099 51.32 282.446 51.8 284.686 51.8C286.766 51.8 288.419 51.4267 289.646 50.68C290.926 49.9333 291.566 48.8133 291.566 47.32C291.566 46.3067 291.219 45.5333 290.526 45C289.832 44.4133 288.819 43.9067 287.486 43.48C286.206 43.0533 284.632 42.5733 282.766 42.04C279.672 41.0267 277.086 40.04 275.006 39.08C272.926 38.12 271.352 36.92 270.286 35.48C269.272 33.9867 268.766 32.0933 268.766 29.8C268.766 27.0267 269.459 24.6533 270.846 22.68C272.286 20.6533 274.259 19.08 276.766 17.96C279.326 16.84 282.312 16.28 285.726 16.28C288.712 16.28 291.539 16.76 294.206 17.72C296.872 18.6267 299.299 20.12 301.486 22.2L297.166 29C295.032 27.3467 293.006 26.1467 291.086 25.4C289.166 24.6 287.219 24.2 285.246 24.2C284.126 24.2 283.059 24.3333 282.046 24.6C281.086 24.8667 280.286 25.32 279.646 25.96C279.059 26.5467 278.766 27.4 278.766 28.52C278.766 29.5333 279.032 30.3333 279.566 30.92C280.152 31.4533 281.006 31.9333 282.126 32.36C283.299 32.7867 284.712 33.2667 286.366 33.8C289.726 34.76 292.552 35.7467 294.846 36.76C297.192 37.7733 298.952 39.0267 300.126 40.52C301.299 41.96 301.886 43.96 301.886 46.52C301.886 50.68 300.366 53.9333 297.326 56.28C294.286 58.6267 290.206 59.8 285.086 59.8ZM325.836 38.04C325.836 33.9867 326.636 30.3333 328.236 27.08C329.836 23.7733 332.049 21.16 334.876 19.24C337.702 17.32 340.929 16.36 344.556 16.36C347.649 16.36 350.422 17.1333 352.876 18.68C355.382 20.1733 357.329 22.0933 358.716 24.44V0.599998H369.436V47C369.436 48.12 369.622 48.92 369.996 49.4C370.369 49.88 371.009 50.1733 371.916 50.28V59C370.049 59.3733 368.529 59.56 367.356 59.56C365.436 59.56 363.836 59.08 362.556 58.12C361.329 57.16 360.636 55.9067 360.476 54.36L360.316 51.72C358.769 54.3333 356.662 56.3333 353.996 57.72C351.382 59.1067 348.636 59.8 345.756 59.8C342.876 59.8 340.209 59.24 337.756 58.12C335.356 57 333.249 55.4533 331.436 53.48C329.676 51.5067 328.289 49.2133 327.276 46.6C326.316 43.9333 325.836 41.08 325.836 38.04ZM358.716 43.64V33.64C358.182 32.0933 357.329 30.7067 356.156 29.48C354.982 28.2533 353.676 27.2933 352.236 26.6C350.796 25.8533 349.356 25.48 347.916 25.48C346.262 25.48 344.769 25.8267 343.436 26.52C342.102 27.2133 340.929 28.1467 339.916 29.32C338.956 30.4933 338.209 31.8533 337.676 33.4C337.196 34.9467 336.956 36.5733 336.956 38.28C336.956 39.9867 337.222 41.6133 337.756 43.16C338.342 44.6533 339.169 45.96 340.236 47.08C341.302 48.2 342.529 49.08 343.916 49.72C345.356 50.36 346.902 50.68 348.556 50.68C349.569 50.68 350.582 50.52 351.596 50.2C352.662 49.8267 353.649 49.3467 354.556 48.76C355.516 48.12 356.342 47.3733 357.036 46.52C357.782 45.6133 358.342 44.6533 358.716 43.64ZM399.398 59.8C396.038 59.8 392.998 59.24 390.278 58.12C387.558 56.9467 385.238 55.3733 383.318 53.4C381.398 51.3733 379.905 49.08 378.838 46.52C377.825 43.9067 377.318 41.16 377.318 38.28C377.318 34.28 378.198 30.6267 379.958 27.32C381.771 24.0133 384.331 21.3733 387.638 19.4C390.998 17.3733 394.945 16.36 399.478 16.36C404.065 16.36 407.985 17.3733 411.238 19.4C414.491 21.3733 416.971 24.0133 418.678 27.32C420.438 30.5733 421.318 34.0933 421.318 37.88C421.318 38.52 421.291 39.1867 421.238 39.88C421.185 40.52 421.131 41.0533 421.078 41.48H388.678C388.891 43.6133 389.505 45.48 390.518 47.08C391.585 48.68 392.918 49.9067 394.518 50.76C396.171 51.56 397.931 51.96 399.798 51.96C401.931 51.96 403.931 51.4533 405.798 50.44C407.718 49.3733 409.025 47.9867 409.718 46.28L418.918 48.84C417.905 50.9733 416.438 52.8667 414.518 54.52C412.651 56.1733 410.438 57.48 407.878 58.44C405.318 59.3467 402.491 59.8 399.398 59.8ZM388.438 34.68H410.358C410.145 32.5467 409.531 30.7067 408.518 29.16C407.558 27.56 406.278 26.3333 404.678 25.48C403.078 24.5733 401.291 24.12 399.318 24.12C397.398 24.12 395.638 24.5733 394.038 25.48C392.491 26.3333 391.211 27.56 390.198 29.16C389.238 30.7067 388.651 32.5467 388.438 34.68ZM443.289 59.8C439.715 59.8 436.302 59.2133 433.049 58.04C429.795 56.8667 426.995 55.1333 424.649 52.84L428.489 45.88C430.995 47.9067 433.449 49.4 435.849 50.36C438.302 51.32 440.649 51.8 442.889 51.8C444.969 51.8 446.622 51.4267 447.849 50.68C449.129 49.9333 449.769 48.8133 449.769 47.32C449.769 46.3067 449.422 45.5333 448.729 45C448.035 44.4133 447.022 43.9067 445.689 43.48C444.409 43.0533 442.835 42.5733 440.969 42.04C437.875 41.0267 435.289 40.04 433.209 39.08C431.129 38.12 429.555 36.92 428.489 35.48C427.475 33.9867 426.969 32.0933 426.969 29.8C426.969 27.0267 427.662 24.6533 429.049 22.68C430.489 20.6533 432.462 19.08 434.969 17.96C437.529 16.84 440.515 16.28 443.929 16.28C446.915 16.28 449.742 16.76 452.409 17.72C455.075 18.6267 457.502 20.12 459.689 22.2L455.369 29C453.235 27.3467 451.209 26.1467 449.289 25.4C447.369 24.6 445.422 24.2 443.449 24.2C442.329 24.2 441.262 24.3333 440.249 24.6C439.289 24.8667 438.489 25.32 437.849 25.96C437.262 26.5467 436.969 27.4 436.969 28.52C436.969 29.5333 437.235 30.3333 437.769 30.92C438.355 31.4533 439.209 31.9333 440.329 32.36C441.502 32.7867 442.915 33.2667 444.569 33.8C447.929 34.76 450.755 35.7467 453.049 36.76C455.395 37.7733 457.155 39.0267 458.329 40.52C459.502 41.96 460.089 43.96 460.089 46.52C460.089 50.68 458.569 53.9333 455.529 56.28C452.489 58.6267 448.409 59.8 443.289 59.8ZM467.38 59V17.08H478.1V59H467.38ZM467.38 11.24V0.599998H478.1V11.24H467.38ZM504.171 59.24C501.397 59.24 498.837 58.7067 496.491 57.64C494.197 56.52 492.197 54.9733 490.491 53C488.837 51.0267 487.557 48.76 486.651 46.2C485.744 43.64 485.291 40.92 485.291 38.04C485.291 35 485.771 32.1733 486.731 29.56C487.691 26.9467 489.024 24.6533 490.731 22.68C492.491 20.6533 494.544 19.1067 496.891 18.04C499.291 16.92 501.931 16.36 504.811 16.36C508.064 16.36 510.917 17.1067 513.371 18.6C515.824 20.04 517.851 21.9867 519.451 24.44V17.08H528.811V57C528.811 61.16 527.797 64.7067 525.771 67.64C523.797 70.6267 521.051 72.8933 517.531 74.44C514.011 76.04 510.011 76.84 505.531 76.84C500.997 76.84 497.157 76.0667 494.011 74.52C490.864 73.0267 488.171 70.8933 485.931 68.12L491.771 62.44C493.371 64.4133 495.371 65.96 497.771 67.08C500.224 68.2 502.811 68.76 505.531 68.76C507.824 68.76 509.904 68.3333 511.771 67.48C513.691 66.68 515.211 65.4 516.331 63.64C517.504 61.9333 518.091 59.72 518.091 57V51.72C516.704 54.12 514.731 55.9867 512.171 57.32C509.664 58.6 506.997 59.24 504.171 59.24ZM507.771 50.68C508.944 50.68 510.064 50.4933 511.131 50.12C512.197 49.7467 513.184 49.24 514.091 48.6C514.997 47.96 515.797 47.2133 516.491 46.36C517.184 45.4533 517.717 44.5467 518.091 43.64V33.64C517.451 31.9867 516.544 30.5467 515.371 29.32C514.251 28.0933 512.971 27.16 511.531 26.52C510.144 25.8267 508.677 25.48 507.131 25.48C505.477 25.48 503.984 25.8267 502.651 26.52C501.317 27.2133 500.171 28.2 499.211 29.48C498.251 30.7067 497.504 32.0933 496.971 33.64C496.491 35.1333 496.251 36.7067 496.251 38.36C496.251 40.0667 496.544 41.6667 497.131 43.16C497.717 44.6533 498.517 45.96 499.531 47.08C500.597 48.2 501.824 49.08 503.211 49.72C504.651 50.36 506.171 50.68 507.771 50.68ZM577.434 59H566.714V35.48C566.714 32.12 566.127 29.6667 564.954 28.12C563.78 26.5733 562.154 25.8 560.074 25.8C558.634 25.8 557.167 26.1733 555.674 26.92C554.234 27.6667 552.927 28.7067 551.754 30.04C550.58 31.32 549.727 32.8133 549.194 34.52V59H538.474V17.08H548.154V24.84C549.22 23.0267 550.58 21.5067 552.234 20.28C553.887 19 555.78 18.04 557.914 17.4C560.1 16.7067 562.394 16.36 564.794 16.36C567.407 16.36 569.54 16.84 571.194 17.8C572.9 18.7067 574.18 19.96 575.034 21.56C575.94 23.1067 576.554 24.8667 576.874 26.84C577.247 28.8133 577.434 30.8133 577.434 32.84V59ZM605.974 59V17.08H616.694V59H605.974ZM605.974 11.24V0.599998H616.694V11.24H605.974ZM665.324 59H654.604V35.48C654.604 32.12 654.018 29.6667 652.844 28.12C651.671 26.5733 650.044 25.8 647.964 25.8C646.524 25.8 645.058 26.1733 643.564 26.92C642.124 27.6667 640.818 28.7067 639.644 30.04C638.471 31.32 637.618 32.8133 637.084 34.52V59H626.364V17.08H636.044V24.84C637.111 23.0267 638.471 21.5067 640.124 20.28C641.778 19 643.671 18.04 645.804 17.4C647.991 16.7067 650.284 16.36 652.684 16.36C655.298 16.36 657.431 16.84 659.084 17.8C660.791 18.7067 662.071 19.96 662.924 21.56C663.831 23.1067 664.444 24.8667 664.764 26.84C665.138 28.8133 665.324 30.8133 665.324 32.84V59ZM718.984 56.84C718.078 57.2133 716.984 57.64 715.704 58.12C714.424 58.6 713.038 58.9733 711.544 59.24C710.104 59.56 708.638 59.72 707.144 59.72C705.171 59.72 703.358 59.3733 701.704 58.68C700.051 57.9867 698.718 56.8933 697.704 55.4C696.744 53.8533 696.264 51.8533 696.264 49.4V25.32H690.744V17.08H696.264V3.48H706.984V17.08H715.784V25.32H706.984V45.8C707.038 47.24 707.438 48.28 708.184 48.92C708.931 49.56 709.864 49.88 710.984 49.88C712.104 49.88 713.198 49.6933 714.264 49.32C715.331 48.9467 716.184 48.6267 716.824 48.36L718.984 56.84ZM743.539 59.8C740.179 59.8 737.139 59.24 734.419 58.12C731.699 56.9467 729.379 55.3733 727.459 53.4C725.539 51.3733 724.045 49.08 722.979 46.52C721.965 43.9067 721.459 41.16 721.459 38.28C721.459 34.28 722.339 30.6267 724.099 27.32C725.912 24.0133 728.472 21.3733 731.779 19.4C735.139 17.3733 739.085 16.36 743.619 16.36C748.205 16.36 752.125 17.3733 755.379 19.4C758.632 21.3733 761.112 24.0133 762.819 27.32C764.579 30.5733 765.459 34.0933 765.459 37.88C765.459 38.52 765.432 39.1867 765.379 39.88C765.325 40.52 765.272 41.0533 765.219 41.48H732.819C733.032 43.6133 733.645 45.48 734.659 47.08C735.725 48.68 737.059 49.9067 738.659 50.76C740.312 51.56 742.072 51.96 743.939 51.96C746.072 51.96 748.072 51.4533 749.939 50.44C751.859 49.3733 753.165 47.9867 753.859 46.28L763.059 48.84C762.045 50.9733 760.579 52.8667 758.659 54.52C756.792 56.1733 754.579 57.48 752.019 58.44C749.459 59.3467 746.632 59.8 743.539 59.8ZM732.579 34.68H754.499C754.285 32.5467 753.672 30.7067 752.659 29.16C751.699 27.56 750.419 26.3333 748.819 25.48C747.219 24.5733 745.432 24.12 743.459 24.12C741.539 24.12 739.779 24.5733 738.179 25.48C736.632 26.3333 735.352 27.56 734.339 29.16C733.379 30.7067 732.792 32.5467 732.579 34.68ZM769.109 46.6C769.109 43.88 769.856 41.5067 771.349 39.48C772.896 37.4 775.029 35.8 777.749 34.68C780.469 33.56 783.589 33 787.109 33C788.869 33 790.656 33.1333 792.469 33.4C794.283 33.6667 795.856 34.0933 797.189 34.68V32.44C797.189 29.7733 796.389 27.72 794.789 26.28C793.243 24.84 790.923 24.12 787.829 24.12C785.536 24.12 783.349 24.52 781.269 25.32C779.189 26.12 777.003 27.2933 774.709 28.84L771.269 21.8C774.043 19.9867 776.869 18.6267 779.749 17.72C782.683 16.8133 785.749 16.36 788.949 16.36C794.923 16.36 799.563 17.8533 802.869 20.84C806.229 23.8267 807.909 28.0933 807.909 33.64V47C807.909 48.12 808.096 48.92 808.469 49.4C808.896 49.88 809.563 50.1733 810.469 50.28V59C809.509 59.16 808.629 59.2933 807.829 59.4C807.083 59.5067 806.443 59.56 805.909 59.56C803.776 59.56 802.149 59.08 801.029 58.12C799.963 57.16 799.296 55.9867 799.029 54.6L798.789 52.44C796.976 54.7867 794.709 56.6 791.989 57.88C789.269 59.16 786.496 59.8 783.669 59.8C780.896 59.8 778.389 59.24 776.149 58.12C773.963 56.9467 772.229 55.3733 770.949 53.4C769.723 51.3733 769.109 49.1067 769.109 46.6ZM795.189 48.76C795.776 48.12 796.256 47.48 796.629 46.84C797.003 46.2 797.189 45.6133 797.189 45.08V40.84C795.909 40.3067 794.523 39.9067 793.029 39.64C791.536 39.32 790.123 39.16 788.789 39.16C786.016 39.16 783.723 39.7733 781.909 41C780.149 42.1733 779.269 43.7467 779.269 45.72C779.269 46.7867 779.563 47.8 780.149 48.76C780.736 49.72 781.589 50.4933 782.709 51.08C783.829 51.6667 785.163 51.96 786.709 51.96C788.309 51.96 789.883 51.6667 791.429 51.08C792.976 50.44 794.229 49.6667 795.189 48.76ZM883.047 59H872.327V35.48C872.327 32.1733 871.74 29.7467 870.567 28.2C869.447 26.6 867.874 25.8 865.847 25.8C863.767 25.8 861.767 26.6267 859.847 28.28C857.98 29.88 856.647 31.9867 855.847 34.6V59H845.127V35.48C845.127 32.12 844.54 29.6667 843.367 28.12C842.247 26.5733 840.674 25.8 838.647 25.8C836.567 25.8 834.567 26.6 832.647 28.2C830.78 29.8 829.447 31.9067 828.647 34.52V59H817.927V17.08H827.607V24.84C829.207 22.12 831.34 20.04 834.007 18.6C836.674 17.1067 839.74 16.36 843.207 16.36C846.674 16.36 849.367 17.2133 851.287 18.92C853.26 20.6267 854.514 22.7333 855.047 25.24C856.754 22.36 858.914 20.1733 861.527 18.68C864.194 17.1333 867.18 16.36 870.487 16.36C873.1 16.36 875.207 16.84 876.807 17.8C878.46 18.7067 879.74 19.96 880.647 21.56C881.554 23.1067 882.167 24.8667 882.487 26.84C882.86 28.8133 883.047 30.8133 883.047 32.84V59ZM893.34 68.2L895.5 58.68H892.14V47.48H901.42V58.68L898.14 68.2H893.34ZM56.88 97.08H67.04L49.52 139H40.56L33.52 121L26.64 139H17.6L0.16 97.08H10.24L22.72 128.76L27.6 115.08L20.32 97.16H29.2L33.52 109.96L37.92 97.16H46.8L39.52 115.08L44.48 128.76L56.88 97.08ZM71.9894 139V97.08H82.7094V139H71.9894ZM71.9894 91.24V80.6H82.7094V91.24H71.9894ZM117.5 136.84C116.593 137.213 115.5 137.64 114.22 138.12C112.94 138.6 111.553 138.973 110.06 139.24C108.62 139.56 107.153 139.72 105.66 139.72C103.687 139.72 101.873 139.373 100.22 138.68C98.5667 137.987 97.2333 136.893 96.22 135.4C95.26 133.853 94.78 131.853 94.78 129.4V105.32H89.26V97.08H94.78V83.48H105.5V97.08H114.3V105.32H105.5V125.8C105.553 127.24 105.953 128.28 106.7 128.92C107.447 129.56 108.38 129.88 109.5 129.88C110.62 129.88 111.713 129.693 112.78 129.32C113.847 128.947 114.7 128.627 115.34 128.36L117.5 136.84ZM162.043 139H151.323V115.48C151.323 112.227 150.683 109.8 149.403 108.2C148.176 106.6 146.47 105.8 144.283 105.8C143.003 105.8 141.643 106.173 140.203 106.92C138.763 107.667 137.456 108.707 136.283 110.04C135.163 111.32 134.336 112.813 133.803 114.52V139H123.083V80.6H133.803V104.84C135.35 102.173 137.456 100.093 140.123 98.6C142.79 97.1067 145.696 96.36 148.843 96.36C151.563 96.36 153.776 96.84 155.483 97.8C157.19 98.7067 158.523 99.96 159.483 101.56C160.443 103.107 161.11 104.867 161.483 106.84C161.856 108.76 162.043 110.76 162.043 112.84V139ZM189.276 147.16C190.236 147.373 191.116 147.56 191.916 147.72C192.769 147.88 193.489 147.96 194.076 147.96C195.089 147.96 195.916 147.693 196.556 147.16C197.249 146.68 197.916 145.773 198.556 144.44C199.196 143.16 199.862 141.347 200.556 139L183.996 97.08H195.116L206.396 128.04L216.316 97.08H226.556L208.956 147.32C208.316 149.187 207.329 150.867 205.996 152.36C204.716 153.907 203.089 155.107 201.116 155.96C199.196 156.867 197.036 157.32 194.636 157.32C193.782 157.32 192.929 157.24 192.076 157.08C191.222 156.973 190.289 156.76 189.276 156.44V147.16ZM250.334 139.8C246.92 139.8 243.854 139.24 241.134 138.12C238.414 136.947 236.094 135.347 234.174 133.32C232.307 131.293 230.867 128.973 229.854 126.36C228.84 123.747 228.334 121 228.334 118.12C228.334 115.187 228.84 112.413 229.854 109.8C230.867 107.187 232.307 104.867 234.174 102.84C236.094 100.813 238.414 99.24 241.134 98.12C243.854 96.9467 246.92 96.36 250.334 96.36C253.747 96.36 256.787 96.9467 259.454 98.12C262.174 99.24 264.494 100.813 266.414 102.84C268.334 104.867 269.774 107.187 270.734 109.8C271.747 112.413 272.254 115.187 272.254 118.12C272.254 121 271.747 123.747 270.734 126.36C269.774 128.973 268.334 131.293 266.414 133.32C264.547 135.347 262.254 136.947 259.534 138.12C256.814 139.24 253.747 139.8 250.334 139.8ZM239.374 118.12C239.374 120.573 239.854 122.76 240.814 124.68C241.774 126.547 243.08 128.013 244.734 129.08C246.387 130.147 248.254 130.68 250.334 130.68C252.36 130.68 254.2 130.147 255.854 129.08C257.507 127.96 258.814 126.467 259.774 124.6C260.787 122.68 261.294 120.493 261.294 118.04C261.294 115.64 260.787 113.48 259.774 111.56C258.814 109.64 257.507 108.147 255.854 107.08C254.2 106.013 252.36 105.48 250.334 105.48C248.254 105.48 246.387 106.04 244.734 107.16C243.08 108.227 241.774 109.72 240.814 111.64C239.854 113.507 239.374 115.667 239.374 118.12ZM279.089 123.32V97.08H289.809V121C289.809 124.2 290.396 126.627 291.569 128.28C292.743 129.88 294.476 130.68 296.769 130.68C298.156 130.68 299.516 130.413 300.849 129.88C302.236 129.293 303.489 128.44 304.609 127.32C305.783 126.2 306.769 124.787 307.569 123.08V97.08H318.289V127C318.289 128.12 318.476 128.92 318.849 129.4C319.276 129.88 319.943 130.173 320.849 130.28V139C319.783 139.16 318.876 139.267 318.129 139.32C317.436 139.427 316.796 139.48 316.209 139.48C314.289 139.48 312.716 139.053 311.489 138.2C310.316 137.293 309.623 136.067 309.409 134.52L309.169 131.16C307.303 133.987 304.903 136.147 301.969 137.64C299.036 139.08 295.809 139.8 292.289 139.8C287.969 139.8 284.689 138.413 282.449 135.64C280.209 132.813 279.089 128.707 279.089 123.32ZM367.903 139H357.183V115.48C357.183 112.12 356.596 109.667 355.423 108.12C354.249 106.573 352.623 105.8 350.543 105.8C349.103 105.8 347.636 106.173 346.143 106.92C344.703 107.667 343.396 108.707 342.223 110.04C341.049 111.32 340.196 112.813 339.663 114.52V139H328.943V97.08H338.623V104.84C339.689 103.027 341.049 101.507 342.703 100.28C344.356 99 346.249 98.04 348.383 97.4C350.569 96.7067 352.863 96.36 355.263 96.36C357.876 96.36 360.009 96.84 361.663 97.8C363.369 98.7067 364.649 99.96 365.503 101.56C366.409 103.107 367.023 104.867 367.343 106.84C367.716 108.813 367.903 110.813 367.903 112.84V139ZM393.624 139.24C390.85 139.24 388.29 138.707 385.944 137.64C383.65 136.52 381.65 134.973 379.944 133C378.29 131.027 377.01 128.76 376.104 126.2C375.197 123.64 374.744 120.92 374.744 118.04C374.744 115 375.224 112.173 376.184 109.56C377.144 106.947 378.477 104.653 380.184 102.68C381.944 100.653 383.997 99.1067 386.344 98.04C388.744 96.92 391.384 96.36 394.264 96.36C397.517 96.36 400.37 97.1067 402.824 98.6C405.277 100.04 407.304 101.987 408.904 104.44V97.08H418.264V137C418.264 141.16 417.25 144.707 415.224 147.64C413.25 150.627 410.504 152.893 406.984 154.44C403.464 156.04 399.464 156.84 394.984 156.84C390.45 156.84 386.61 156.067 383.464 154.52C380.317 153.027 377.624 150.893 375.384 148.12L381.224 142.44C382.824 144.413 384.824 145.96 387.224 147.08C389.677 148.2 392.264 148.76 394.984 148.76C397.277 148.76 399.357 148.333 401.224 147.48C403.144 146.68 404.664 145.4 405.784 143.64C406.957 141.933 407.544 139.72 407.544 137V131.72C406.157 134.12 404.184 135.987 401.624 137.32C399.117 138.6 396.45 139.24 393.624 139.24ZM397.224 130.68C398.397 130.68 399.517 130.493 400.584 130.12C401.65 129.747 402.637 129.24 403.544 128.6C404.45 127.96 405.25 127.213 405.944 126.36C406.637 125.453 407.17 124.547 407.544 123.64V113.64C406.904 111.987 405.997 110.547 404.824 109.32C403.704 108.093 402.424 107.16 400.984 106.52C399.597 105.827 398.13 105.48 396.584 105.48C394.93 105.48 393.437 105.827 392.104 106.52C390.77 107.213 389.624 108.2 388.664 109.48C387.704 110.707 386.957 112.093 386.424 113.64C385.944 115.133 385.704 116.707 385.704 118.36C385.704 120.067 385.997 121.667 386.584 123.16C387.17 124.653 387.97 125.96 388.984 127.08C390.05 128.2 391.277 129.08 392.664 129.72C394.104 130.36 395.624 130.68 397.224 130.68ZM444.266 126.6C444.266 123.88 445.012 121.507 446.506 119.48C448.052 117.4 450.186 115.8 452.906 114.68C455.626 113.56 458.746 113 462.266 113C464.026 113 465.812 113.133 467.626 113.4C469.439 113.667 471.012 114.093 472.346 114.68V112.44C472.346 109.773 471.546 107.72 469.946 106.28C468.399 104.84 466.079 104.12 462.986 104.12C460.692 104.12 458.506 104.52 456.426 105.32C454.346 106.12 452.159 107.293 449.866 108.84L446.426 101.8C449.199 99.9867 452.026 98.6267 454.906 97.72C457.839 96.8133 460.906 96.36 464.106 96.36C470.079 96.36 474.719 97.8533 478.026 100.84C481.386 103.827 483.066 108.093 483.066 113.64V127C483.066 128.12 483.252 128.92 483.626 129.4C484.052 129.88 484.719 130.173 485.626 130.28V139C484.666 139.16 483.786 139.293 482.986 139.4C482.239 139.507 481.599 139.56 481.066 139.56C478.932 139.56 477.306 139.08 476.186 138.12C475.119 137.16 474.452 135.987 474.186 134.6L473.946 132.44C472.132 134.787 469.866 136.6 467.146 137.88C464.426 139.16 461.652 139.8 458.826 139.8C456.052 139.8 453.546 139.24 451.306 138.12C449.119 136.947 447.386 135.373 446.106 133.4C444.879 131.373 444.266 129.107 444.266 126.6ZM470.346 128.76C470.932 128.12 471.412 127.48 471.786 126.84C472.159 126.2 472.346 125.613 472.346 125.08V120.84C471.066 120.307 469.679 119.907 468.186 119.64C466.692 119.32 465.279 119.16 463.946 119.16C461.172 119.16 458.879 119.773 457.066 121C455.306 122.173 454.426 123.747 454.426 125.72C454.426 126.787 454.719 127.8 455.306 128.76C455.892 129.72 456.746 130.493 457.866 131.08C458.986 131.667 460.319 131.96 461.866 131.96C463.466 131.96 465.039 131.667 466.586 131.08C468.132 130.44 469.386 129.667 470.346 128.76ZM532.043 139H521.323V115.48C521.323 112.12 520.736 109.667 519.563 108.12C518.39 106.573 516.763 105.8 514.683 105.8C513.243 105.8 511.776 106.173 510.283 106.92C508.843 107.667 507.536 108.707 506.363 110.04C505.19 111.32 504.336 112.813 503.803 114.52V139H493.083V97.08H502.763V104.84C503.83 103.027 505.19 101.507 506.843 100.28C508.496 99 510.39 98.04 512.523 97.4C514.71 96.7067 517.003 96.36 519.403 96.36C522.016 96.36 524.15 96.84 525.803 97.8C527.51 98.7067 528.79 99.96 529.643 101.56C530.55 103.107 531.163 104.867 531.483 106.84C531.856 108.813 532.043 110.813 532.043 112.84V139ZM538.804 118.04C538.804 113.987 539.604 110.333 541.204 107.08C542.804 103.773 545.018 101.16 547.844 99.24C550.671 97.32 553.898 96.36 557.524 96.36C560.618 96.36 563.391 97.1333 565.844 98.68C568.351 100.173 570.298 102.093 571.684 104.44V80.6H582.404V127C582.404 128.12 582.591 128.92 582.964 129.4C583.338 129.88 583.978 130.173 584.884 130.28V139C583.018 139.373 581.498 139.56 580.324 139.56C578.404 139.56 576.804 139.08 575.524 138.12C574.298 137.16 573.604 135.907 573.444 134.36L573.284 131.72C571.738 134.333 569.631 136.333 566.964 137.72C564.351 139.107 561.604 139.8 558.724 139.8C555.844 139.8 553.178 139.24 550.724 138.12C548.324 137 546.218 135.453 544.404 133.48C542.644 131.507 541.258 129.213 540.244 126.6C539.284 123.933 538.804 121.08 538.804 118.04ZM571.684 123.64V113.64C571.151 112.093 570.298 110.707 569.124 109.48C567.951 108.253 566.644 107.293 565.204 106.6C563.764 105.853 562.324 105.48 560.884 105.48C559.231 105.48 557.738 105.827 556.404 106.52C555.071 107.213 553.898 108.147 552.884 109.32C551.924 110.493 551.178 111.853 550.644 113.4C550.164 114.947 549.924 116.573 549.924 118.28C549.924 119.987 550.191 121.613 550.724 123.16C551.311 124.653 552.138 125.96 553.204 127.08C554.271 128.2 555.498 129.08 556.884 129.72C558.324 130.36 559.871 130.68 561.524 130.68C562.538 130.68 563.551 130.52 564.564 130.2C565.631 129.827 566.618 129.347 567.524 128.76C568.484 128.12 569.311 127.373 570.004 126.52C570.751 125.613 571.311 124.653 571.684 123.64ZM627.586 139.8C624.012 139.8 620.599 139.213 617.346 138.04C614.092 136.867 611.292 135.133 608.946 132.84L612.786 125.88C615.292 127.907 617.746 129.4 620.146 130.36C622.599 131.32 624.946 131.8 627.186 131.8C629.266 131.8 630.919 131.427 632.146 130.68C633.426 129.933 634.066 128.813 634.066 127.32C634.066 126.307 633.719 125.533 633.026 125C632.332 124.413 631.319 123.907 629.986 123.48C628.706 123.053 627.132 122.573 625.266 122.04C622.172 121.027 619.586 120.04 617.506 119.08C615.426 118.12 613.852 116.92 612.786 115.48C611.772 113.987 611.266 112.093 611.266 109.8C611.266 107.027 611.959 104.653 613.346 102.68C614.786 100.653 616.759 99.08 619.266 97.96C621.826 96.84 624.812 96.28 628.226 96.28C631.212 96.28 634.039 96.76 636.706 97.72C639.372 98.6267 641.799 100.12 643.986 102.2L639.666 109C637.532 107.347 635.506 106.147 633.586 105.4C631.666 104.6 629.719 104.2 627.746 104.2C626.626 104.2 625.559 104.333 624.546 104.6C623.586 104.867 622.786 105.32 622.146 105.96C621.559 106.547 621.266 107.4 621.266 108.52C621.266 109.533 621.532 110.333 622.066 110.92C622.652 111.453 623.506 111.933 624.626 112.36C625.799 112.787 627.212 113.267 628.866 113.8C632.226 114.76 635.052 115.747 637.346 116.76C639.692 117.773 641.452 119.027 642.626 120.52C643.799 121.96 644.386 123.96 644.386 126.52C644.386 130.68 642.866 133.933 639.826 136.28C636.786 138.627 632.706 139.8 627.586 139.8ZM671.117 139.8C667.757 139.8 664.717 139.24 661.997 138.12C659.277 136.947 656.957 135.373 655.037 133.4C653.117 131.373 651.624 129.08 650.557 126.52C649.544 123.907 649.037 121.16 649.037 118.28C649.037 114.28 649.917 110.627 651.677 107.32C653.49 104.013 656.05 101.373 659.357 99.4C662.717 97.3733 666.664 96.36 671.197 96.36C675.784 96.36 679.704 97.3733 682.957 99.4C686.21 101.373 688.69 104.013 690.397 107.32C692.157 110.573 693.037 114.093 693.037 117.88C693.037 118.52 693.01 119.187 692.957 119.88C692.904 120.52 692.85 121.053 692.797 121.48H660.397C660.61 123.613 661.224 125.48 662.237 127.08C663.304 128.68 664.637 129.907 666.237 130.76C667.89 131.56 669.65 131.96 671.517 131.96C673.65 131.96 675.65 131.453 677.517 130.44C679.437 129.373 680.744 127.987 681.437 126.28L690.637 128.84C689.624 130.973 688.157 132.867 686.237 134.52C684.37 136.173 682.157 137.48 679.597 138.44C677.037 139.347 674.21 139.8 671.117 139.8ZM660.157 114.68H682.077C681.864 112.547 681.25 110.707 680.237 109.16C679.277 107.56 677.997 106.333 676.397 105.48C674.797 104.573 673.01 104.12 671.037 104.12C669.117 104.12 667.357 104.573 665.757 105.48C664.21 106.333 662.93 107.56 661.917 109.16C660.957 110.707 660.37 112.547 660.157 114.68ZM738.528 139H727.808V115.48C727.808 112.12 727.221 109.667 726.048 108.12C724.874 106.573 723.248 105.8 721.168 105.8C719.728 105.8 718.261 106.173 716.768 106.92C715.328 107.667 714.021 108.707 712.848 110.04C711.674 111.32 710.821 112.813 710.288 114.52V139H699.568V97.08H709.248V104.84C710.314 103.027 711.674 101.507 713.328 100.28C714.981 99 716.874 98.04 719.008 97.4C721.194 96.7067 723.488 96.36 725.888 96.36C728.501 96.36 730.634 96.84 732.288 97.8C733.994 98.7067 735.274 99.96 736.128 101.56C737.034 103.107 737.648 104.867 737.968 106.84C738.341 108.813 738.528 110.813 738.528 112.84V139ZM747.849 139V97.08H758.569V139H747.849ZM747.849 91.24V80.6H758.569V91.24H747.849ZM787.599 139.8C784.186 139.8 781.119 139.24 778.399 138.12C775.679 136.947 773.359 135.347 771.439 133.32C769.573 131.293 768.133 128.973 767.119 126.36C766.106 123.747 765.599 121 765.599 118.12C765.599 115.187 766.106 112.413 767.119 109.8C768.133 107.187 769.573 104.867 771.439 102.84C773.359 100.813 775.679 99.24 778.399 98.12C781.119 96.9467 784.186 96.36 787.599 96.36C791.013 96.36 794.053 96.9467 796.719 98.12C799.439 99.24 801.759 100.813 803.679 102.84C805.599 104.867 807.039 107.187 807.999 109.8C809.013 112.413 809.519 115.187 809.519 118.12C809.519 121 809.013 123.747 807.999 126.36C807.039 128.973 805.599 131.293 803.679 133.32C801.813 135.347 799.519 136.947 796.799 138.12C794.079 139.24 791.013 139.8 787.599 139.8ZM776.639 118.12C776.639 120.573 777.119 122.76 778.079 124.68C779.039 126.547 780.346 128.013 781.999 129.08C783.653 130.147 785.519 130.68 787.599 130.68C789.626 130.68 791.466 130.147 793.119 129.08C794.773 127.96 796.079 126.467 797.039 124.6C798.053 122.68 798.559 120.493 798.559 118.04C798.559 115.64 798.053 113.48 797.039 111.56C796.079 109.64 794.773 108.147 793.119 107.08C791.466 106.013 789.626 105.48 787.599 105.48C785.519 105.48 783.653 106.04 781.999 107.16C780.346 108.227 779.039 109.72 778.079 111.64C777.119 113.507 776.639 115.667 776.639 118.12ZM841.715 106.36C838.462 106.36 835.555 107 832.995 108.28C830.435 109.507 828.595 111.293 827.475 113.64V139H816.755V97.08H826.595V106.04C828.088 103.16 829.982 100.893 832.275 99.24C834.568 97.5867 836.995 96.68 839.555 96.52C840.142 96.52 840.595 96.52 840.915 96.52C841.235 96.52 841.502 96.5467 841.715 96.6V106.36ZM884.634 139.8C881.221 139.8 878.154 139.24 875.434 138.12C872.714 136.947 870.394 135.347 868.474 133.32C866.554 131.24 865.061 128.893 863.994 126.28C862.981 123.667 862.474 120.92 862.474 118.04C862.474 114.093 863.354 110.493 865.114 107.24C866.928 103.933 869.488 101.293 872.794 99.32C876.101 97.3467 880.021 96.36 884.554 96.36C889.088 96.36 892.981 97.3467 896.234 99.32C899.488 101.293 901.914 103.88 903.514 107.08L893.034 110.28C892.128 108.733 890.928 107.56 889.434 106.76C887.941 105.907 886.288 105.48 884.474 105.48C882.448 105.48 880.581 106.013 878.874 107.08C877.221 108.093 875.914 109.56 874.954 111.48C873.994 113.347 873.514 115.533 873.514 118.04C873.514 120.493 873.994 122.68 874.954 124.6C875.968 126.467 877.301 127.96 878.954 129.08C880.608 130.147 882.448 130.68 884.474 130.68C885.754 130.68 886.954 130.467 888.074 130.04C889.248 129.613 890.288 129.027 891.194 128.28C892.101 127.533 892.768 126.68 893.194 125.72L903.674 128.92C902.714 131 901.301 132.867 899.434 134.52C897.621 136.173 895.461 137.48 892.954 138.44C890.501 139.347 887.728 139.8 884.634 139.8ZM929.24 139.8C925.827 139.8 922.76 139.24 920.04 138.12C917.32 136.947 915 135.347 913.08 133.32C911.213 131.293 909.773 128.973 908.76 126.36C907.747 123.747 907.24 121 907.24 118.12C907.24 115.187 907.747 112.413 908.76 109.8C909.773 107.187 911.213 104.867 913.08 102.84C915 100.813 917.32 99.24 920.04 98.12C922.76 96.9467 925.827 96.36 929.24 96.36C932.653 96.36 935.693 96.9467 938.36 98.12C941.08 99.24 943.4 100.813 945.32 102.84C947.24 104.867 948.68 107.187 949.64 109.8C950.653 112.413 951.16 115.187 951.16 118.12C951.16 121 950.653 123.747 949.64 126.36C948.68 128.973 947.24 131.293 945.32 133.32C943.453 135.347 941.16 136.947 938.44 138.12C935.72 139.24 932.653 139.8 929.24 139.8ZM918.28 118.12C918.28 120.573 918.76 122.76 919.72 124.68C920.68 126.547 921.987 128.013 923.64 129.08C925.293 130.147 927.16 130.68 929.24 130.68C931.267 130.68 933.107 130.147 934.76 129.08C936.413 127.96 937.72 126.467 938.68 124.6C939.693 122.68 940.2 120.493 940.2 118.04C940.2 115.64 939.693 113.48 938.68 111.56C937.72 109.64 936.413 108.147 934.76 107.08C933.107 106.013 931.267 105.48 929.24 105.48C927.16 105.48 925.293 106.04 923.64 107.16C921.987 108.227 920.68 109.72 919.72 111.64C918.76 113.507 918.28 115.667 918.28 118.12ZM958.316 80.6H969.036V125.56C969.036 127.48 969.356 128.787 969.996 129.48C970.636 130.12 971.516 130.44 972.636 130.44C973.489 130.44 974.369 130.333 975.276 130.12C976.182 129.907 976.982 129.64 977.676 129.32L979.116 137.48C977.676 138.173 975.996 138.707 974.076 139.08C972.156 139.453 970.422 139.64 968.876 139.64C965.516 139.64 962.902 138.76 961.036 137C959.222 135.187 958.316 132.627 958.316 129.32V80.6ZM983.706 80.6H994.426V125.56C994.426 127.48 994.746 128.787 995.386 129.48C996.026 130.12 996.906 130.44 998.026 130.44C998.88 130.44 999.76 130.333 1000.67 130.12C1001.57 129.907 1002.37 129.64 1003.07 129.32L1004.51 137.48C1003.07 138.173 1001.39 138.707 999.466 139.08C997.546 139.453 995.813 139.64 994.266 139.64C990.906 139.64 988.293 138.76 986.426 137C984.613 135.187 983.706 132.627 983.706 129.32V80.6ZM1006.3 126.6C1006.3 123.88 1007.04 121.507 1008.54 119.48C1010.08 117.4 1012.22 115.8 1014.94 114.68C1017.66 113.56 1020.78 113 1024.3 113C1026.06 113 1027.84 113.133 1029.66 113.4C1031.47 113.667 1033.04 114.093 1034.38 114.68V112.44C1034.38 109.773 1033.58 107.72 1031.98 106.28C1030.43 104.84 1028.11 104.12 1025.02 104.12C1022.72 104.12 1020.54 104.52 1018.46 105.32C1016.38 106.12 1014.19 107.293 1011.9 108.84L1008.46 101.8C1011.23 99.9867 1014.06 98.6267 1016.94 97.72C1019.87 96.8133 1022.94 96.36 1026.14 96.36C1032.11 96.36 1036.75 97.8533 1040.06 100.84C1043.42 103.827 1045.1 108.093 1045.1 113.64V127C1045.1 128.12 1045.28 128.92 1045.66 129.4C1046.08 129.88 1046.75 130.173 1047.66 130.28V139C1046.7 139.16 1045.82 139.293 1045.02 139.4C1044.27 139.507 1043.63 139.56 1043.1 139.56C1040.96 139.56 1039.34 139.08 1038.22 138.12C1037.15 137.16 1036.48 135.987 1036.22 134.6L1035.98 132.44C1034.16 134.787 1031.9 136.6 1029.18 137.88C1026.46 139.16 1023.68 139.8 1020.86 139.8C1018.08 139.8 1015.58 139.24 1013.34 138.12C1011.15 136.947 1009.42 135.373 1008.14 133.4C1006.91 131.373 1006.3 129.107 1006.3 126.6ZM1032.38 128.76C1032.96 128.12 1033.44 127.48 1033.82 126.84C1034.19 126.2 1034.38 125.613 1034.38 125.08V120.84C1033.1 120.307 1031.71 119.907 1030.22 119.64C1028.72 119.32 1027.31 119.16 1025.98 119.16C1023.2 119.16 1020.91 119.773 1019.1 121C1017.34 122.173 1016.46 123.747 1016.46 125.72C1016.46 126.787 1016.75 127.8 1017.34 128.76C1017.92 129.72 1018.78 130.493 1019.9 131.08C1021.02 131.667 1022.35 131.96 1023.9 131.96C1025.5 131.96 1027.07 131.667 1028.62 131.08C1030.16 130.44 1031.42 129.667 1032.38 128.76ZM1078.95 139.8C1075.75 139.8 1072.9 139.08 1070.39 137.64C1067.89 136.2 1065.91 134.227 1064.47 131.72V139H1055.11V80.6H1065.83V104.44C1067.33 101.933 1069.27 99.96 1071.67 98.52C1074.13 97.08 1076.98 96.36 1080.23 96.36C1082.95 96.36 1085.43 96.9467 1087.67 98.12C1089.91 99.24 1091.83 100.813 1093.43 102.84C1095.09 104.867 1096.34 107.187 1097.19 109.8C1098.1 112.413 1098.55 115.213 1098.55 118.2C1098.55 121.187 1098.05 123.987 1097.03 126.6C1096.07 129.213 1094.71 131.533 1092.95 133.56C1091.19 135.533 1089.11 137.08 1086.71 138.2C1084.37 139.267 1081.78 139.8 1078.95 139.8ZM1075.99 130.68C1077.7 130.68 1079.25 130.36 1080.63 129.72C1082.07 129.027 1083.3 128.12 1084.31 127C1085.38 125.88 1086.18 124.573 1086.71 123.08C1087.3 121.533 1087.59 119.933 1087.59 118.28C1087.59 115.987 1087.11 113.88 1086.15 111.96C1085.25 109.987 1083.97 108.413 1082.31 107.24C1080.71 106.067 1078.82 105.48 1076.63 105.48C1075.09 105.48 1073.59 105.853 1072.15 106.6C1070.77 107.293 1069.51 108.253 1068.39 109.48C1067.33 110.707 1066.47 112.093 1065.83 113.64V123.64C1066.15 124.707 1066.66 125.667 1067.35 126.52C1068.1 127.373 1068.95 128.12 1069.91 128.76C1070.87 129.347 1071.86 129.827 1072.87 130.2C1073.94 130.52 1074.98 130.68 1075.99 130.68ZM1125.18 139.8C1121.76 139.8 1118.7 139.24 1115.98 138.12C1113.26 136.947 1110.94 135.347 1109.02 133.32C1107.15 131.293 1105.71 128.973 1104.7 126.36C1103.68 123.747 1103.18 121 1103.18 118.12C1103.18 115.187 1103.68 112.413 1104.7 109.8C1105.71 107.187 1107.15 104.867 1109.02 102.84C1110.94 100.813 1113.26 99.24 1115.98 98.12C1118.7 96.9467 1121.76 96.36 1125.18 96.36C1128.59 96.36 1131.63 96.9467 1134.3 98.12C1137.02 99.24 1139.34 100.813 1141.26 102.84C1143.18 104.867 1144.62 107.187 1145.58 109.8C1146.59 112.413 1147.1 115.187 1147.1 118.12C1147.1 121 1146.59 123.747 1145.58 126.36C1144.62 128.973 1143.18 131.293 1141.26 133.32C1139.39 135.347 1137.1 136.947 1134.38 138.12C1131.66 139.24 1128.59 139.8 1125.18 139.8ZM1114.22 118.12C1114.22 120.573 1114.7 122.76 1115.66 124.68C1116.62 126.547 1117.92 128.013 1119.58 129.08C1121.23 130.147 1123.1 130.68 1125.18 130.68C1127.2 130.68 1129.04 130.147 1130.7 129.08C1132.35 127.96 1133.66 126.467 1134.62 124.6C1135.63 122.68 1136.14 120.493 1136.14 118.04C1136.14 115.64 1135.63 113.48 1134.62 111.56C1133.66 109.64 1132.35 108.147 1130.7 107.08C1129.04 106.013 1127.2 105.48 1125.18 105.48C1123.1 105.48 1121.23 106.04 1119.58 107.16C1117.92 108.227 1116.62 109.72 1115.66 111.64C1114.7 113.507 1114.22 115.667 1114.22 118.12ZM1179.29 106.36C1176.04 106.36 1173.13 107 1170.57 108.28C1168.01 109.507 1166.17 111.293 1165.05 113.64V139H1154.33V97.08H1164.17V106.04C1165.67 103.16 1167.56 100.893 1169.85 99.24C1172.15 97.5867 1174.57 96.68 1177.13 96.52C1177.72 96.52 1178.17 96.52 1178.49 96.52C1178.81 96.52 1179.08 96.5467 1179.29 96.6V106.36ZM1182.16 126.6C1182.16 123.88 1182.9 121.507 1184.4 119.48C1185.94 117.4 1188.08 115.8 1190.8 114.68C1193.52 113.56 1196.64 113 1200.16 113C1201.92 113 1203.7 113.133 1205.52 113.4C1207.33 113.667 1208.9 114.093 1210.24 114.68V112.44C1210.24 109.773 1209.44 107.72 1207.84 106.28C1206.29 104.84 1203.97 104.12 1200.88 104.12C1198.58 104.12 1196.4 104.52 1194.32 105.32C1192.24 106.12 1190.05 107.293 1187.76 108.84L1184.32 101.8C1187.09 99.9867 1189.92 98.6267 1192.8 97.72C1195.73 96.8133 1198.8 96.36 1202 96.36C1207.97 96.36 1212.61 97.8533 1215.92 100.84C1219.28 103.827 1220.96 108.093 1220.96 113.64V127C1220.96 128.12 1221.14 128.92 1221.52 129.4C1221.94 129.88 1222.61 130.173 1223.52 130.28V139C1222.56 139.16 1221.68 139.293 1220.88 139.4C1220.13 139.507 1219.49 139.56 1218.96 139.56C1216.82 139.56 1215.2 139.08 1214.08 138.12C1213.01 137.16 1212.34 135.987 1212.08 134.6L1211.84 132.44C1210.02 134.787 1207.76 136.6 1205.04 137.88C1202.32 139.16 1199.54 139.8 1196.72 139.8C1193.94 139.8 1191.44 139.24 1189.2 138.12C1187.01 136.947 1185.28 135.373 1184 133.4C1182.77 131.373 1182.16 129.107 1182.16 126.6ZM1208.24 128.76C1208.82 128.12 1209.3 127.48 1209.68 126.84C1210.05 126.2 1210.24 125.613 1210.24 125.08V120.84C1208.96 120.307 1207.57 119.907 1206.08 119.64C1204.58 119.32 1203.17 119.16 1201.84 119.16C1199.06 119.16 1196.77 119.773 1194.96 121C1193.2 122.173 1192.32 123.747 1192.32 125.72C1192.32 126.787 1192.61 127.8 1193.2 128.76C1193.78 129.72 1194.64 130.493 1195.76 131.08C1196.88 131.667 1198.21 131.96 1199.76 131.96C1201.36 131.96 1202.93 131.667 1204.48 131.08C1206.02 130.44 1207.28 129.667 1208.24 128.76ZM1255.7 136.84C1254.8 137.213 1253.7 137.64 1252.42 138.12C1251.14 138.6 1249.76 138.973 1248.26 139.24C1246.82 139.56 1245.36 139.72 1243.86 139.72C1241.89 139.72 1240.08 139.373 1238.42 138.68C1236.77 137.987 1235.44 136.893 1234.42 135.4C1233.46 133.853 1232.98 131.853 1232.98 129.4V105.32H1227.46V97.08H1232.98V83.48H1243.7V97.08H1252.5V105.32H1243.7V125.8C1243.76 127.24 1244.16 128.28 1244.9 128.92C1245.65 129.56 1246.58 129.88 1247.7 129.88C1248.82 129.88 1249.92 129.693 1250.98 129.32C1252.05 128.947 1252.9 128.627 1253.54 128.36L1255.7 136.84ZM1280.18 139.8C1276.76 139.8 1273.7 139.24 1270.98 138.12C1268.26 136.947 1265.94 135.347 1264.02 133.32C1262.15 131.293 1260.71 128.973 1259.7 126.36C1258.68 123.747 1258.18 121 1258.18 118.12C1258.18 115.187 1258.68 112.413 1259.7 109.8C1260.71 107.187 1262.15 104.867 1264.02 102.84C1265.94 100.813 1268.26 99.24 1270.98 98.12C1273.7 96.9467 1276.76 96.36 1280.18 96.36C1283.59 96.36 1286.63 96.9467 1289.3 98.12C1292.02 99.24 1294.34 100.813 1296.26 102.84C1298.18 104.867 1299.62 107.187 1300.58 109.8C1301.59 112.413 1302.1 115.187 1302.1 118.12C1302.1 121 1301.59 123.747 1300.58 126.36C1299.62 128.973 1298.18 131.293 1296.26 133.32C1294.39 135.347 1292.1 136.947 1289.38 138.12C1286.66 139.24 1283.59 139.8 1280.18 139.8ZM1269.22 118.12C1269.22 120.573 1269.7 122.76 1270.66 124.68C1271.62 126.547 1272.92 128.013 1274.58 129.08C1276.23 130.147 1278.1 130.68 1280.18 130.68C1282.2 130.68 1284.04 130.147 1285.7 129.08C1287.35 127.96 1288.66 126.467 1289.62 124.6C1290.63 122.68 1291.14 120.493 1291.14 118.04C1291.14 115.64 1290.63 113.48 1289.62 111.56C1288.66 109.64 1287.35 108.147 1285.7 107.08C1284.04 106.013 1282.2 105.48 1280.18 105.48C1278.1 105.48 1276.23 106.04 1274.58 107.16C1272.92 108.227 1271.62 109.72 1270.66 111.64C1269.7 113.507 1269.22 115.667 1269.22 118.12ZM1334.29 106.36C1331.04 106.36 1328.13 107 1325.57 108.28C1323.01 109.507 1321.17 111.293 1320.05 113.64V139H1309.33V97.08H1319.17V106.04C1320.67 103.16 1322.56 100.893 1324.85 99.24C1327.15 97.5867 1329.57 96.68 1332.13 96.52C1332.72 96.52 1333.17 96.52 1333.49 96.52C1333.81 96.52 1334.08 96.5467 1334.29 96.6V106.36ZM1355.71 139.8C1352.14 139.8 1348.72 139.213 1345.47 138.04C1342.22 136.867 1339.42 135.133 1337.07 132.84L1340.91 125.88C1343.42 127.907 1345.87 129.4 1348.27 130.36C1350.72 131.32 1353.07 131.8 1355.31 131.8C1357.39 131.8 1359.04 131.427 1360.27 130.68C1361.55 129.933 1362.19 128.813 1362.19 127.32C1362.19 126.307 1361.84 125.533 1361.15 125C1360.46 124.413 1359.44 123.907 1358.11 123.48C1356.83 123.053 1355.26 122.573 1353.39 122.04C1350.3 121.027 1347.71 120.04 1345.63 119.08C1343.55 118.12 1341.98 116.92 1340.91 115.48C1339.9 113.987 1339.39 112.093 1339.39 109.8C1339.39 107.027 1340.08 104.653 1341.47 102.68C1342.91 100.653 1344.88 99.08 1347.39 97.96C1349.95 96.84 1352.94 96.28 1356.35 96.28C1359.34 96.28 1362.16 96.76 1364.83 97.72C1367.5 98.6267 1369.92 100.12 1372.11 102.2L1367.79 109C1365.66 107.347 1363.63 106.147 1361.71 105.4C1359.79 104.6 1357.84 104.2 1355.87 104.2C1354.75 104.2 1353.68 104.333 1352.67 104.6C1351.71 104.867 1350.91 105.32 1350.27 105.96C1349.68 106.547 1349.39 107.4 1349.39 108.52C1349.39 109.533 1349.66 110.333 1350.19 110.92C1350.78 111.453 1351.63 111.933 1352.75 112.36C1353.92 112.787 1355.34 113.267 1356.99 113.8C1360.35 114.76 1363.18 115.747 1365.47 116.76C1367.82 117.773 1369.58 119.027 1370.75 120.52C1371.92 121.96 1372.51 123.96 1372.51 126.52C1372.51 130.68 1370.99 133.933 1367.95 136.28C1364.91 138.627 1360.83 139.8 1355.71 139.8ZM1380.76 148.2L1382.92 138.68H1379.56V127.48H1388.84V138.68L1385.56 148.2H1380.76ZM56.88 177.08H67.04L49.52 219H40.56L33.52 201L26.64 219H17.6L0.16 177.08H10.24L22.72 208.76L27.6 195.08L20.32 177.16H29.2L33.52 189.96L37.92 177.16H46.8L39.52 195.08L44.48 208.76L56.88 177.08ZM71.9894 219V177.08H82.7094V219H71.9894ZM71.9894 171.24V160.6H82.7094V171.24H71.9894ZM117.5 216.84C116.593 217.213 115.5 217.64 114.22 218.12C112.94 218.6 111.553 218.973 110.06 219.24C108.62 219.56 107.153 219.72 105.66 219.72C103.687 219.72 101.873 219.373 100.22 218.68C98.5667 217.987 97.2333 216.893 96.22 215.4C95.26 213.853 94.78 211.853 94.78 209.4V185.32H89.26V177.08H94.78V163.48H105.5V177.08H114.3V185.32H105.5V205.8C105.553 207.24 105.953 208.28 106.7 208.92C107.447 209.56 108.38 209.88 109.5 209.88C110.62 209.88 111.713 209.693 112.78 209.32C113.847 208.947 114.7 208.627 115.34 208.36L117.5 216.84ZM162.043 219H151.323V195.48C151.323 192.227 150.683 189.8 149.403 188.2C148.176 186.6 146.47 185.8 144.283 185.8C143.003 185.8 141.643 186.173 140.203 186.92C138.763 187.667 137.456 188.707 136.283 190.04C135.163 191.32 134.336 192.813 133.803 194.52V219H123.083V160.6H133.803V184.84C135.35 182.173 137.456 180.093 140.123 178.6C142.79 177.107 145.696 176.36 148.843 176.36C151.563 176.36 153.776 176.84 155.483 177.8C157.19 178.707 158.523 179.96 159.483 181.56C160.443 183.107 161.11 184.867 161.483 186.84C161.856 188.76 162.043 190.76 162.043 192.84V219ZM210.103 219.8C206.69 219.8 203.623 219.24 200.903 218.12C198.183 216.947 195.863 215.347 193.943 213.32C192.023 211.24 190.53 208.893 189.463 206.28C188.45 203.667 187.943 200.92 187.943 198.04C187.943 194.093 188.823 190.493 190.583 187.24C192.396 183.933 194.956 181.293 198.263 179.32C201.57 177.347 205.49 176.36 210.023 176.36C214.556 176.36 218.45 177.347 221.703 179.32C224.956 181.293 227.383 183.88 228.983 187.08L218.503 190.28C217.596 188.733 216.396 187.56 214.903 186.76C213.41 185.907 211.756 185.48 209.943 185.48C207.916 185.48 206.05 186.013 204.343 187.08C202.69 188.093 201.383 189.56 200.423 191.48C199.463 193.347 198.983 195.533 198.983 198.04C198.983 200.493 199.463 202.68 200.423 204.6C201.436 206.467 202.77 207.96 204.423 209.08C206.076 210.147 207.916 210.68 209.943 210.68C211.223 210.68 212.423 210.467 213.543 210.04C214.716 209.613 215.756 209.027 216.663 208.28C217.57 207.533 218.236 206.68 218.663 205.72L229.143 208.92C228.183 211 226.77 212.867 224.903 214.52C223.09 216.173 220.93 217.48 218.423 218.44C215.97 219.347 213.196 219.8 210.103 219.8ZM254.709 219.8C251.295 219.8 248.229 219.24 245.509 218.12C242.789 216.947 240.469 215.347 238.549 213.32C236.682 211.293 235.242 208.973 234.229 206.36C233.215 203.747 232.709 201 232.709 198.12C232.709 195.187 233.215 192.413 234.229 189.8C235.242 187.187 236.682 184.867 238.549 182.84C240.469 180.813 242.789 179.24 245.509 178.12C248.229 176.947 251.295 176.36 254.709 176.36C258.122 176.36 261.162 176.947 263.829 178.12C266.549 179.24 268.869 180.813 270.789 182.84C272.709 184.867 274.149 187.187 275.109 189.8C276.122 192.413 276.629 195.187 276.629 198.12C276.629 201 276.122 203.747 275.109 206.36C274.149 208.973 272.709 211.293 270.789 213.32C268.922 215.347 266.629 216.947 263.909 218.12C261.189 219.24 258.122 219.8 254.709 219.8ZM243.749 198.12C243.749 200.573 244.229 202.76 245.189 204.68C246.149 206.547 247.455 208.013 249.109 209.08C250.762 210.147 252.629 210.68 254.709 210.68C256.735 210.68 258.575 210.147 260.229 209.08C261.882 207.96 263.189 206.467 264.149 204.6C265.162 202.68 265.669 200.493 265.669 198.04C265.669 195.64 265.162 193.48 264.149 191.56C263.189 189.64 261.882 188.147 260.229 187.08C258.575 186.013 256.735 185.48 254.709 185.48C252.629 185.48 250.762 186.04 249.109 187.16C247.455 188.227 246.149 189.72 245.189 191.64C244.229 193.507 243.749 195.667 243.749 198.12ZM283.784 160.6H294.504V205.56C294.504 207.48 294.824 208.787 295.464 209.48C296.104 210.12 296.984 210.44 298.104 210.44C298.958 210.44 299.838 210.333 300.744 210.12C301.651 209.907 302.451 209.64 303.144 209.32L304.584 217.48C303.144 218.173 301.464 218.707 299.544 219.08C297.624 219.453 295.891 219.64 294.344 219.64C290.984 219.64 288.371 218.76 286.504 217C284.691 215.187 283.784 212.627 283.784 209.32V160.6ZM309.175 160.6H319.895V205.56C319.895 207.48 320.215 208.787 320.855 209.48C321.495 210.12 322.375 210.44 323.495 210.44C324.348 210.44 325.228 210.333 326.135 210.12C327.042 209.907 327.842 209.64 328.535 209.32L329.975 217.48C328.535 218.173 326.855 218.707 324.935 219.08C323.015 219.453 321.282 219.64 319.735 219.64C316.375 219.64 313.762 218.76 311.895 217C310.082 215.187 309.175 212.627 309.175 209.32V160.6ZM354.086 219.8C350.726 219.8 347.686 219.24 344.966 218.12C342.246 216.947 339.926 215.373 338.006 213.4C336.086 211.373 334.592 209.08 333.526 206.52C332.512 203.907 332.006 201.16 332.006 198.28C332.006 194.28 332.886 190.627 334.646 187.32C336.459 184.013 339.019 181.373 342.326 179.4C345.686 177.373 349.632 176.36 354.166 176.36C358.752 176.36 362.672 177.373 365.926 179.4C369.179 181.373 371.659 184.013 373.366 187.32C375.126 190.573 376.006 194.093 376.006 197.88C376.006 198.52 375.979 199.187 375.926 199.88C375.872 200.52 375.819 201.053 375.766 201.48H343.366C343.579 203.613 344.192 205.48 345.206 207.08C346.272 208.68 347.606 209.907 349.206 210.76C350.859 211.56 352.619 211.96 354.486 211.96C356.619 211.96 358.619 211.453 360.486 210.44C362.406 209.373 363.712 207.987 364.406 206.28L373.606 208.84C372.592 210.973 371.126 212.867 369.206 214.52C367.339 216.173 365.126 217.48 362.566 218.44C360.006 219.347 357.179 219.8 354.086 219.8ZM343.126 194.68H365.046C364.832 192.547 364.219 190.707 363.206 189.16C362.246 187.56 360.966 186.333 359.366 185.48C357.766 184.573 355.979 184.12 354.006 184.12C352.086 184.12 350.326 184.573 348.726 185.48C347.179 186.333 345.899 187.56 344.886 189.16C343.926 190.707 343.339 192.547 343.126 194.68ZM379.656 206.6C379.656 203.88 380.403 201.507 381.896 199.48C383.443 197.4 385.576 195.8 388.296 194.68C391.016 193.56 394.136 193 397.656 193C399.416 193 401.203 193.133 403.016 193.4C404.83 193.667 406.403 194.093 407.736 194.68V192.44C407.736 189.773 406.936 187.72 405.336 186.28C403.79 184.84 401.47 184.12 398.376 184.12C396.083 184.12 393.896 184.52 391.816 185.32C389.736 186.12 387.55 187.293 385.256 188.84L381.816 181.8C384.59 179.987 387.416 178.627 390.296 177.72C393.23 176.813 396.296 176.36 399.496 176.36C405.47 176.36 410.11 177.853 413.416 180.84C416.776 183.827 418.456 188.093 418.456 193.64V207C418.456 208.12 418.643 208.92 419.016 209.4C419.443 209.88 420.11 210.173 421.016 210.28V219C420.056 219.16 419.176 219.293 418.376 219.4C417.63 219.507 416.99 219.56 416.456 219.56C414.323 219.56 412.696 219.08 411.576 218.12C410.51 217.16 409.843 215.987 409.576 214.6L409.336 212.44C407.523 214.787 405.256 216.6 402.536 217.88C399.816 219.16 397.043 219.8 394.216 219.8C391.443 219.8 388.936 219.24 386.696 218.12C384.51 216.947 382.776 215.373 381.496 213.4C380.27 211.373 379.656 209.107 379.656 206.6ZM405.736 208.76C406.323 208.12 406.803 207.48 407.176 206.84C407.55 206.2 407.736 205.613 407.736 205.08V200.84C406.456 200.307 405.07 199.907 403.576 199.64C402.083 199.32 400.67 199.16 399.336 199.16C396.563 199.16 394.27 199.773 392.456 201C390.696 202.173 389.816 203.747 389.816 205.72C389.816 206.787 390.11 207.8 390.696 208.76C391.283 209.72 392.136 210.493 393.256 211.08C394.376 211.667 395.71 211.96 397.256 211.96C398.856 211.96 400.43 211.667 401.976 211.08C403.523 210.44 404.776 209.667 405.736 208.76ZM444.874 219.24C442.1 219.24 439.54 218.707 437.194 217.64C434.9 216.52 432.9 214.973 431.194 213C429.54 211.027 428.26 208.76 427.354 206.2C426.447 203.64 425.994 200.92 425.994 198.04C425.994 195 426.474 192.173 427.434 189.56C428.394 186.947 429.727 184.653 431.434 182.68C433.194 180.653 435.247 179.107 437.594 178.04C439.994 176.92 442.634 176.36 445.514 176.36C448.767 176.36 451.62 177.107 454.074 178.6C456.527 180.04 458.554 181.987 460.154 184.44V177.08H469.514V217C469.514 221.16 468.5 224.707 466.474 227.64C464.5 230.627 461.754 232.893 458.234 234.44C454.714 236.04 450.714 236.84 446.234 236.84C441.7 236.84 437.86 236.067 434.714 234.52C431.567 233.027 428.874 230.893 426.634 228.12L432.474 222.44C434.074 224.413 436.074 225.96 438.474 227.08C440.927 228.2 443.514 228.76 446.234 228.76C448.527 228.76 450.607 228.333 452.474 227.48C454.394 226.68 455.914 225.4 457.034 223.64C458.207 221.933 458.794 219.72 458.794 217V211.72C457.407 214.12 455.434 215.987 452.874 217.32C450.367 218.6 447.7 219.24 444.874 219.24ZM448.474 210.68C449.647 210.68 450.767 210.493 451.834 210.12C452.9 209.747 453.887 209.24 454.794 208.6C455.7 207.96 456.5 207.213 457.194 206.36C457.887 205.453 458.42 204.547 458.794 203.64V193.64C458.154 191.987 457.247 190.547 456.074 189.32C454.954 188.093 453.674 187.16 452.234 186.52C450.847 185.827 449.38 185.48 447.834 185.48C446.18 185.48 444.687 185.827 443.354 186.52C442.02 187.213 440.874 188.2 439.914 189.48C438.954 190.707 438.207 192.093 437.674 193.64C437.194 195.133 436.954 196.707 436.954 198.36C436.954 200.067 437.247 201.667 437.834 203.16C438.42 204.653 439.22 205.96 440.234 207.08C441.3 208.2 442.527 209.08 443.914 209.72C445.354 210.36 446.874 210.68 448.474 210.68ZM478.777 203.32V177.08H489.497V201C489.497 204.2 490.084 206.627 491.257 208.28C492.43 209.88 494.164 210.68 496.457 210.68C497.844 210.68 499.204 210.413 500.537 209.88C501.924 209.293 503.177 208.44 504.297 207.32C505.47 206.2 506.457 204.787 507.257 203.08V177.08H517.977V207C517.977 208.12 518.164 208.92 518.537 209.4C518.964 209.88 519.63 210.173 520.537 210.28V219C519.47 219.16 518.564 219.267 517.817 219.32C517.124 219.427 516.484 219.48 515.897 219.48C513.977 219.48 512.404 219.053 511.177 218.2C510.004 217.293 509.31 216.067 509.097 214.52L508.857 211.16C506.99 213.987 504.59 216.147 501.657 217.64C498.724 219.08 495.497 219.8 491.977 219.8C487.657 219.8 484.377 218.413 482.137 215.64C479.897 212.813 478.777 208.707 478.777 203.32ZM548.07 219.8C544.71 219.8 541.67 219.24 538.95 218.12C536.23 216.947 533.91 215.373 531.99 213.4C530.07 211.373 528.577 209.08 527.51 206.52C526.497 203.907 525.99 201.16 525.99 198.28C525.99 194.28 526.87 190.627 528.63 187.32C530.443 184.013 533.003 181.373 536.31 179.4C539.67 177.373 543.617 176.36 548.15 176.36C552.737 176.36 556.657 177.373 559.91 179.4C563.163 181.373 565.643 184.013 567.35 187.32C569.11 190.573 569.99 194.093 569.99 197.88C569.99 198.52 569.963 199.187 569.91 199.88C569.857 200.52 569.803 201.053 569.75 201.48H537.35C537.563 203.613 538.177 205.48 539.19 207.08C540.257 208.68 541.59 209.907 543.19 210.76C544.843 211.56 546.603 211.96 548.47 211.96C550.603 211.96 552.603 211.453 554.47 210.44C556.39 209.373 557.697 207.987 558.39 206.28L567.59 208.84C566.577 210.973 565.11 212.867 563.19 214.52C561.323 216.173 559.11 217.48 556.55 218.44C553.99 219.347 551.163 219.8 548.07 219.8ZM537.11 194.68H559.03C558.817 192.547 558.203 190.707 557.19 189.16C556.23 187.56 554.95 186.333 553.35 185.48C551.75 184.573 549.963 184.12 547.99 184.12C546.07 184.12 544.31 184.573 542.71 185.48C541.163 186.333 539.883 187.56 538.87 189.16C537.91 190.707 537.323 192.547 537.11 194.68ZM591.961 219.8C588.387 219.8 584.974 219.213 581.721 218.04C578.467 216.867 575.667 215.133 573.321 212.84L577.161 205.88C579.667 207.907 582.121 209.4 584.521 210.36C586.974 211.32 589.321 211.8 591.561 211.8C593.641 211.8 595.294 211.427 596.521 210.68C597.801 209.933 598.441 208.813 598.441 207.32C598.441 206.307 598.094 205.533 597.401 205C596.707 204.413 595.694 203.907 594.361 203.48C593.081 203.053 591.507 202.573 589.641 202.04C586.547 201.027 583.961 200.04 581.881 199.08C579.801 198.12 578.227 196.92 577.161 195.48C576.147 193.987 575.641 192.093 575.641 189.8C575.641 187.027 576.334 184.653 577.721 182.68C579.161 180.653 581.134 179.08 583.641 177.96C586.201 176.84 589.187 176.28 592.601 176.28C595.587 176.28 598.414 176.76 601.081 177.72C603.747 178.627 606.174 180.12 608.361 182.2L604.041 189C601.907 187.347 599.881 186.147 597.961 185.4C596.041 184.6 594.094 184.2 592.121 184.2C591.001 184.2 589.934 184.333 588.921 184.6C587.961 184.867 587.161 185.32 586.521 185.96C585.934 186.547 585.641 187.4 585.641 188.52C585.641 189.533 585.907 190.333 586.441 190.92C587.027 191.453 587.881 191.933 589.001 192.36C590.174 192.787 591.587 193.267 593.241 193.8C596.601 194.76 599.427 195.747 601.721 196.76C604.067 197.773 605.827 199.027 607.001 200.52C608.174 201.96 608.761 203.96 608.761 206.52C608.761 210.68 607.241 213.933 604.201 216.28C601.161 218.627 597.081 219.8 591.961 219.8ZM632.391 206.6C632.391 203.88 633.137 201.507 634.631 199.48C636.177 197.4 638.311 195.8 641.031 194.68C643.751 193.56 646.871 193 650.391 193C652.151 193 653.937 193.133 655.751 193.4C657.564 193.667 659.137 194.093 660.471 194.68V192.44C660.471 189.773 659.671 187.72 658.071 186.28C656.524 184.84 654.204 184.12 651.111 184.12C648.817 184.12 646.631 184.52 644.551 185.32C642.471 186.12 640.284 187.293 637.991 188.84L634.551 181.8C637.324 179.987 640.151 178.627 643.031 177.72C645.964 176.813 649.031 176.36 652.231 176.36C658.204 176.36 662.844 177.853 666.151 180.84C669.511 183.827 671.191 188.093 671.191 193.64V207C671.191 208.12 671.377 208.92 671.751 209.4C672.177 209.88 672.844 210.173 673.751 210.28V219C672.791 219.16 671.911 219.293 671.111 219.4C670.364 219.507 669.724 219.56 669.191 219.56C667.057 219.56 665.431 219.08 664.311 218.12C663.244 217.16 662.577 215.987 662.311 214.6L662.071 212.44C660.257 214.787 657.991 216.6 655.271 217.88C652.551 219.16 649.777 219.8 646.951 219.8C644.177 219.8 641.671 219.24 639.431 218.12C637.244 216.947 635.511 215.373 634.231 213.4C633.004 211.373 632.391 209.107 632.391 206.6ZM658.471 208.76C659.057 208.12 659.537 207.48 659.911 206.84C660.284 206.2 660.471 205.613 660.471 205.08V200.84C659.191 200.307 657.804 199.907 656.311 199.64C654.817 199.32 653.404 199.16 652.071 199.16C649.297 199.16 647.004 199.773 645.191 201C643.431 202.173 642.551 203.747 642.551 205.72C642.551 206.787 642.844 207.8 643.431 208.76C644.017 209.72 644.871 210.493 645.991 211.08C647.111 211.667 648.444 211.96 649.991 211.96C651.591 211.96 653.164 211.667 654.711 211.08C656.257 210.44 657.511 209.667 658.471 208.76ZM720.168 219H709.448V195.48C709.448 192.12 708.861 189.667 707.688 188.12C706.515 186.573 704.888 185.8 702.808 185.8C701.368 185.8 699.901 186.173 698.408 186.92C696.968 187.667 695.661 188.707 694.488 190.04C693.315 191.32 692.461 192.813 691.928 194.52V219H681.208V177.08H690.888V184.84C691.955 183.027 693.315 181.507 694.968 180.28C696.621 179 698.515 178.04 700.648 177.4C702.835 176.707 705.128 176.36 707.528 176.36C710.141 176.36 712.275 176.84 713.928 177.8C715.635 178.707 716.915 179.96 717.768 181.56C718.675 183.107 719.288 184.867 719.608 186.84C719.981 188.813 720.168 190.813 720.168 192.84V219ZM726.929 198.04C726.929 193.987 727.729 190.333 729.329 187.08C730.929 183.773 733.143 181.16 735.969 179.24C738.796 177.32 742.023 176.36 745.649 176.36C748.743 176.36 751.516 177.133 753.969 178.68C756.476 180.173 758.423 182.093 759.809 184.44V160.6H770.529V207C770.529 208.12 770.716 208.92 771.089 209.4C771.463 209.88 772.103 210.173 773.009 210.28V219C771.143 219.373 769.623 219.56 768.449 219.56C766.529 219.56 764.929 219.08 763.649 218.12C762.423 217.16 761.729 215.907 761.569 214.36L761.409 211.72C759.863 214.333 757.756 216.333 755.089 217.72C752.476 219.107 749.729 219.8 746.849 219.8C743.969 219.8 741.303 219.24 738.849 218.12C736.449 217 734.343 215.453 732.529 213.48C730.769 211.507 729.383 209.213 728.369 206.6C727.409 203.933 726.929 201.08 726.929 198.04ZM759.809 203.64V193.64C759.276 192.093 758.423 190.707 757.249 189.48C756.076 188.253 754.769 187.293 753.329 186.6C751.889 185.853 750.449 185.48 749.009 185.48C747.356 185.48 745.863 185.827 744.529 186.52C743.196 187.213 742.023 188.147 741.009 189.32C740.049 190.493 739.303 191.853 738.769 193.4C738.289 194.947 738.049 196.573 738.049 198.28C738.049 199.987 738.316 201.613 738.849 203.16C739.436 204.653 740.263 205.96 741.329 207.08C742.396 208.2 743.623 209.08 745.009 209.72C746.449 210.36 747.996 210.68 749.649 210.68C750.663 210.68 751.676 210.52 752.689 210.2C753.756 209.827 754.743 209.347 755.649 208.76C756.609 208.12 757.436 207.373 758.129 206.52C758.876 205.613 759.436 204.653 759.809 203.64ZM819.791 219.8C816.377 219.8 813.311 219.24 810.591 218.12C807.871 216.947 805.551 215.347 803.631 213.32C801.711 211.24 800.217 208.893 799.151 206.28C798.137 203.667 797.631 200.92 797.631 198.04C797.631 194.093 798.511 190.493 800.271 187.24C802.084 183.933 804.644 181.293 807.951 179.32C811.257 177.347 815.177 176.36 819.711 176.36C824.244 176.36 828.137 177.347 831.391 179.32C834.644 181.293 837.071 183.88 838.671 187.08L828.191 190.28C827.284 188.733 826.084 187.56 824.591 186.76C823.097 185.907 821.444 185.48 819.631 185.48C817.604 185.48 815.737 186.013 814.031 187.08C812.377 188.093 811.071 189.56 810.111 191.48C809.151 193.347 808.671 195.533 808.671 198.04C808.671 200.493 809.151 202.68 810.111 204.6C811.124 206.467 812.457 207.96 814.111 209.08C815.764 210.147 817.604 210.68 819.631 210.68C820.911 210.68 822.111 210.467 823.231 210.04C824.404 209.613 825.444 209.027 826.351 208.28C827.257 207.533 827.924 206.68 828.351 205.72L838.831 208.92C837.871 211 836.457 212.867 834.591 214.52C832.777 216.173 830.617 217.48 828.111 218.44C825.657 219.347 822.884 219.8 819.791 219.8ZM845.347 160.6H856.067V205.56C856.067 207.48 856.387 208.787 857.027 209.48C857.667 210.12 858.547 210.44 859.667 210.44C860.52 210.44 861.4 210.333 862.307 210.12C863.214 209.907 864.014 209.64 864.707 209.32L866.147 217.48C864.707 218.173 863.027 218.707 861.107 219.08C859.187 219.453 857.454 219.64 855.907 219.64C852.547 219.64 849.934 218.76 848.067 217C846.254 215.187 845.347 212.627 845.347 209.32V160.6ZM870.818 219V177.08H881.538V219H870.818ZM870.818 171.24V160.6H881.538V171.24H870.818ZM910.648 219.8C907.288 219.8 904.248 219.24 901.528 218.12C898.808 216.947 896.488 215.373 894.568 213.4C892.648 211.373 891.155 209.08 890.088 206.52C889.075 203.907 888.568 201.16 888.568 198.28C888.568 194.28 889.448 190.627 891.208 187.32C893.021 184.013 895.581 181.373 898.888 179.4C902.248 177.373 906.195 176.36 910.728 176.36C915.315 176.36 919.235 177.373 922.488 179.4C925.741 181.373 928.221 184.013 929.928 187.32C931.688 190.573 932.568 194.093 932.568 197.88C932.568 198.52 932.541 199.187 932.488 199.88C932.435 200.52 932.381 201.053 932.328 201.48H899.928C900.141 203.613 900.755 205.48 901.768 207.08C902.835 208.68 904.168 209.907 905.768 210.76C907.421 211.56 909.181 211.96 911.048 211.96C913.181 211.96 915.181 211.453 917.048 210.44C918.968 209.373 920.275 207.987 920.968 206.28L930.168 208.84C929.155 210.973 927.688 212.867 925.768 214.52C923.901 216.173 921.688 217.48 919.128 218.44C916.568 219.347 913.741 219.8 910.648 219.8ZM899.688 194.68H921.608C921.395 192.547 920.781 190.707 919.768 189.16C918.808 187.56 917.528 186.333 915.928 185.48C914.328 184.573 912.541 184.12 910.568 184.12C908.648 184.12 906.888 184.573 905.288 185.48C903.741 186.333 902.461 187.56 901.448 189.16C900.488 190.707 899.901 192.547 899.688 194.68ZM978.059 219H967.339V195.48C967.339 192.12 966.752 189.667 965.579 188.12C964.405 186.573 962.779 185.8 960.699 185.8C959.259 185.8 957.792 186.173 956.299 186.92C954.859 187.667 953.552 188.707 952.379 190.04C951.205 191.32 950.352 192.813 949.819 194.52V219H939.099V177.08H948.779V184.84C949.845 183.027 951.205 181.507 952.859 180.28C954.512 179 956.405 178.04 958.539 177.4C960.725 176.707 963.019 176.36 965.419 176.36C968.032 176.36 970.165 176.84 971.819 177.8C973.525 178.707 974.805 179.96 975.659 181.56C976.565 183.107 977.179 184.867 977.499 186.84C977.872 188.813 978.059 190.813 978.059 192.84V219ZM1012.27 216.84C1011.36 217.213 1010.27 217.64 1008.99 218.12C1007.71 218.6 1006.32 218.973 1004.83 219.24C1003.39 219.56 1001.92 219.72 1000.43 219.72C998.452 219.72 996.639 219.373 994.986 218.68C993.332 217.987 991.999 216.893 990.986 215.4C990.026 213.853 989.546 211.853 989.546 209.4V185.32H984.026V177.08H989.546V163.48H1000.27V177.08H1009.07V185.32H1000.27V205.8C1000.32 207.24 1000.72 208.28 1001.47 208.92C1002.21 209.56 1003.15 209.88 1004.27 209.88C1005.39 209.88 1006.48 209.693 1007.55 209.32C1008.61 208.947 1009.47 208.627 1010.11 208.36L1012.27 216.84ZM1033.29 219.8C1029.72 219.8 1026.3 219.213 1023.05 218.04C1019.8 216.867 1017 215.133 1014.65 212.84L1018.49 205.88C1021 207.907 1023.45 209.4 1025.85 210.36C1028.3 211.32 1030.65 211.8 1032.89 211.8C1034.97 211.8 1036.62 211.427 1037.85 210.68C1039.13 209.933 1039.77 208.813 1039.77 207.32C1039.77 206.307 1039.42 205.533 1038.73 205C1038.04 204.413 1037.02 203.907 1035.69 203.48C1034.41 203.053 1032.84 202.573 1030.97 202.04C1027.88 201.027 1025.29 200.04 1023.21 199.08C1021.13 198.12 1019.56 196.92 1018.49 195.48C1017.48 193.987 1016.97 192.093 1016.97 189.8C1016.97 187.027 1017.66 184.653 1019.05 182.68C1020.49 180.653 1022.46 179.08 1024.97 177.96C1027.53 176.84 1030.52 176.28 1033.93 176.28C1036.92 176.28 1039.74 176.76 1042.41 177.72C1045.08 178.627 1047.5 180.12 1049.69 182.2L1045.37 189C1043.24 187.347 1041.21 186.147 1039.29 185.4C1037.37 184.6 1035.42 184.2 1033.45 184.2C1032.33 184.2 1031.26 184.333 1030.25 184.6C1029.29 184.867 1028.49 185.32 1027.85 185.96C1027.26 186.547 1026.97 187.4 1026.97 188.52C1026.97 189.533 1027.24 190.333 1027.77 190.92C1028.36 191.453 1029.21 191.933 1030.33 192.36C1031.5 192.787 1032.92 193.267 1034.57 193.8C1037.93 194.76 1040.76 195.747 1043.05 196.76C1045.4 197.773 1047.16 199.027 1048.33 200.52C1049.5 201.96 1050.09 203.96 1050.09 206.52C1050.09 210.68 1048.57 213.933 1045.53 216.28C1042.49 218.627 1038.41 219.8 1033.29 219.8ZM1057.14 219V207.48H1065.94V219H1057.14Z" fill="#0022D5"/>
</svg>
