<?xml version="1.0" encoding="utf-8"?>
<!-- Generator: Adobe Illustrator 27.5.0, SVG Export Plug-In . SVG Version: 6.00 Build 0)  -->
<svg version="1.1" id="Livello_1" xmlns="http://www.w3.org/2000/svg" xmlns:xlink="http://www.w3.org/1999/xlink" x="0px" y="0px"
	 viewBox="0 0 501 297" style="enable-background:new 0 0 501 297;" xml:space="preserve">
<style type="text/css">
	.st0{fill:#0022D5;}
</style>
<path class="st0" d="M626.5,263.3v-34.1h5.4v29.3h18.3v4.8H626.5z M664.8,263.8c-2,0-3.8-0.3-5.3-1c-1.6-0.7-2.9-1.7-4.1-2.9
	c-1.1-1.2-2-2.6-2.6-4.1c-0.6-1.6-0.9-3.2-0.9-5c0-1.8,0.3-3.4,0.9-5c0.6-1.6,1.5-2.9,2.6-4.1c1.2-1.2,2.5-2.2,4.1-2.8
	c1.6-0.7,3.4-1.1,5.3-1.1c2,0,3.7,0.4,5.3,1.1c1.6,0.7,3,1.6,4.1,2.8c1.2,1.2,2,2.6,2.6,4.1c0.6,1.6,0.9,3.2,0.9,5
	c0,1.8-0.3,3.4-0.9,5c-0.6,1.5-1.5,2.9-2.6,4.1c-1.1,1.2-2.5,2.2-4.1,2.9C668.5,263.4,666.8,263.8,664.8,263.8z M657.3,250.8
	c0,1.6,0.3,3,1,4.3c0.7,1.3,1.6,2.3,2.7,3s2.4,1.1,3.8,1.1c1.4,0,2.6-0.4,3.7-1.1c1.2-0.8,2.1-1.8,2.7-3.1c0.7-1.3,1-2.8,1-4.3
	c0-1.6-0.3-3-1-4.3s-1.6-2.3-2.7-3c-1.1-0.8-2.4-1.2-3.7-1.2c-1.4,0-2.7,0.4-3.8,1.2s-2,1.8-2.7,3.1
	C657.7,247.7,657.3,249.2,657.3,250.8z M696.5,242.7c-2,0-3.9,0.5-5.5,1.4c-1.6,0.9-2.7,2.2-3.4,3.8v15.4h-5.3v-25.1h4.9v5.6
	c0.9-1.7,2-3.1,3.4-4.1c1.4-1.1,2.9-1.6,4.5-1.7c0.3,0,0.6,0,0.8,0c0.2,0,0.4,0,0.6,0V242.7z M711.3,263.8c-2,0-3.7-0.3-5.3-1
	c-1.6-0.7-2.9-1.6-4.1-2.8c-1.2-1.2-2-2.6-2.7-4.1c-0.6-1.6-0.9-3.2-0.9-5c0-2.4,0.5-4.5,1.6-6.5c1.1-2,2.6-3.6,4.6-4.8
	c2-1.2,4.2-1.8,6.9-1.8c2.6,0,4.9,0.6,6.8,1.8c1.9,1.2,3.4,2.8,4.5,4.7c1.1,2,1.6,4,1.6,6.3c0,0.4,0,0.8,0,1.1
	c0,0.3-0.1,0.6-0.1,0.8h-20.1c0.1,1.5,0.5,2.8,1.2,3.9c0.7,1.1,1.7,2,2.8,2.6c1.1,0.6,2.3,0.9,3.6,0.9c1.4,0,2.7-0.4,4-1.1
	c1.3-0.7,2.1-1.6,2.6-2.8l4.5,1.3c-0.5,1.2-1.4,2.3-2.5,3.3c-1.1,1-2.4,1.7-3.9,2.3C714.7,263.5,713,263.8,711.3,263.8z M703.7,249
	h15.2c-0.1-1.4-0.5-2.7-1.2-3.8c-0.7-1.1-1.6-2-2.7-2.6c-1.1-0.6-2.3-1-3.6-1c-1.3,0-2.5,0.3-3.6,1c-1.1,0.6-2,1.5-2.7,2.6
	C704.2,246.3,703.8,247.5,703.7,249z M766.8,263.3h-5.3v-14.1c0-2.3-0.4-4-1.2-5.1c-0.8-1.1-1.9-1.6-3.4-1.6c-1.5,0-2.8,0.6-4.1,1.7
	c-1.2,1.1-2.1,2.5-2.6,4.3v14.9H745v-14.1c0-2.3-0.4-4-1.2-5.1c-0.8-1.1-1.9-1.6-3.3-1.6c-1.5,0-2.8,0.5-4.1,1.6
	c-1.2,1.1-2.1,2.5-2.7,4.3v14.9h-5.3v-25.1h4.8v5c1-1.8,2.3-3.1,3.9-4c1.6-1,3.5-1.4,5.6-1.4s3.7,0.5,4.9,1.6c1.2,1.1,2,2.4,2.3,4.1
	c1.1-1.9,2.4-3.3,4-4.2c1.6-1,3.4-1.5,5.5-1.5c1.5,0,2.7,0.3,3.7,0.8c1,0.5,1.8,1.3,2.3,2.3c0.5,0.9,0.9,2,1.2,3.3
	c0.3,1.2,0.4,2.5,0.4,3.9V263.3z M784.8,263.3v-25.1h5.3v25.1H784.8z M784.8,234.1v-5.8h5.3v5.8H784.8z M810.7,263.8
	c-2,0-3.8-0.5-5.3-1.4c-1.5-1-2.8-2.2-3.6-3.7v14.9h-5.3v-35.3h4.7v4.5c1-1.5,2.2-2.7,3.7-3.6c1.5-0.9,3.2-1.3,5.1-1.3
	c1.7,0,3.3,0.4,4.8,1.1c1.4,0.7,2.7,1.6,3.7,2.8c1.1,1.2,1.9,2.6,2.4,4.2c0.6,1.5,0.9,3.2,0.9,4.9c0,2.4-0.5,4.6-1.4,6.6
	c-0.9,2-2.2,3.6-3.9,4.8C814.8,263.2,812.8,263.8,810.7,263.8z M808.9,259.3c1.1,0,2.1-0.2,3-0.7c0.9-0.5,1.7-1.1,2.4-1.9
	c0.7-0.8,1.2-1.7,1.5-2.7s0.5-2.1,0.5-3.2c0-1.2-0.2-2.2-0.6-3.3c-0.4-1-0.9-1.9-1.7-2.7c-0.7-0.8-1.5-1.4-2.5-1.8
	c-0.9-0.4-2-0.7-3.1-0.7c-0.7,0-1.4,0.1-2.1,0.4c-0.7,0.3-1.4,0.6-2.1,1.1c-0.6,0.4-1.2,1-1.7,1.6c-0.5,0.6-0.8,1.2-1,1.9v6.6
	c0.4,1,1,2,1.8,2.8c0.7,0.8,1.6,1.5,2.5,2C807,259,807.9,259.3,808.9,259.3z M835.5,263.8c-2.1,0-4.1-0.3-6-1
	c-1.9-0.7-3.5-1.7-4.8-3.1l2-3.6c1.4,1.3,2.9,2.2,4.3,2.8c1.5,0.6,2.9,0.9,4.4,0.9c1.5,0,2.7-0.3,3.6-0.8c0.9-0.6,1.4-1.4,1.4-2.5
	c0-0.8-0.2-1.4-0.7-1.8c-0.5-0.4-1.2-0.7-2.1-1c-0.9-0.3-2-0.6-3.3-1c-1.8-0.5-3.3-1.1-4.5-1.7c-1.2-0.6-2.1-1.3-2.7-2.2
	c-0.6-0.9-0.9-2-0.9-3.3c0-1.6,0.4-3,1.2-4.2c0.8-1.2,2-2,3.5-2.6c1.5-0.6,3.2-0.9,5.2-0.9c1.8,0,3.5,0.3,5,0.9
	c1.6,0.5,2.9,1.4,4.1,2.6l-2.3,3.5c-1.1-1-2.3-1.8-3.5-2.3c-1.2-0.5-2.4-0.7-3.7-0.7c-0.8,0-1.5,0.1-2.2,0.3c-0.7,0.2-1.3,0.5-1.8,1
	c-0.4,0.4-0.7,1.1-0.7,1.9c0,0.7,0.2,1.2,0.6,1.6c0.4,0.4,1,0.8,1.7,1.1c0.8,0.3,1.7,0.6,2.8,1c2,0.6,3.6,1.2,5,1.7
	c1.4,0.5,2.4,1.3,3.2,2.2c0.8,0.9,1.2,2.1,1.2,3.6c0,2.4-0.9,4.3-2.7,5.7C840.9,263.1,838.5,263.8,835.5,263.8z M849.9,253.5v-15.4
	h5.3v14.3c0,2.2,0.4,3.9,1.2,5.1c0.8,1.1,2,1.7,3.6,1.7c1,0,2-0.2,2.9-0.6c1-0.4,1.8-1,2.6-1.8c0.8-0.8,1.4-1.8,1.9-3v-15.6h5.3
	v19.2c0,0.6,0.1,1,0.3,1.3c0.2,0.3,0.6,0.4,1.1,0.4v4.2c-0.5,0.1-1,0.2-1.3,0.2c-0.4,0-0.7,0-1,0c-1,0-1.8-0.3-2.4-0.8
	c-0.6-0.5-1-1.2-1.1-2.1l-0.1-2.5c-1.1,1.8-2.6,3.2-4.4,4.2c-1.8,0.9-3.8,1.4-5.9,1.4c-2.6,0-4.6-0.9-6-2.6S849.9,256.9,849.9,253.5
	z M917.8,263.3h-5.3v-14.1c0-2.3-0.4-4-1.2-5.1c-0.8-1.1-1.9-1.6-3.4-1.6c-1.5,0-2.8,0.6-4.1,1.7c-1.2,1.1-2.1,2.5-2.6,4.3v14.9
	h-5.3v-14.1c0-2.3-0.4-4-1.2-5.1c-0.8-1.1-1.9-1.6-3.3-1.6c-1.5,0-2.8,0.5-4.1,1.6c-1.2,1.1-2.1,2.5-2.7,4.3v14.9h-5.3v-25.1h4.8v5
	c1-1.8,2.3-3.1,3.9-4c1.6-1,3.5-1.4,5.6-1.4c2.1,0,3.7,0.5,4.9,1.6c1.2,1.1,2,2.4,2.3,4.1c1.1-1.9,2.4-3.3,4-4.2
	c1.6-1,3.4-1.5,5.5-1.5c1.5,0,2.7,0.3,3.7,0.8c1,0.5,1.8,1.3,2.3,2.3c0.5,0.9,0.9,2,1.2,3.3c0.3,1.2,0.4,2.5,0.4,3.9V263.3z
	 M934.1,250.8c0-2.4,0.5-4.6,1.4-6.5c1-2,2.3-3.6,4-4.7c1.7-1.2,3.6-1.8,5.9-1.8c1.9,0,3.6,0.5,5.2,1.5c1.6,1,2.8,2.2,3.6,3.7v-14.7
	h5.3v29.1c0,0.6,0.1,1,0.3,1.3c0.2,0.3,0.6,0.4,1.1,0.4v4.2c-1,0.2-1.8,0.2-2.3,0.2c-1,0-1.8-0.3-2.5-0.9c-0.7-0.6-1-1.3-1.1-2.1
	l0-1.9c-1,1.6-2.3,2.8-3.9,3.7c-1.6,0.9-3.3,1.3-5.1,1.3c-1.7,0-3.3-0.3-4.8-1c-1.4-0.7-2.7-1.6-3.8-2.8c-1.1-1.2-1.9-2.6-2.5-4.2
	C934.4,254.2,934.1,252.5,934.1,250.8z M954.3,254.3v-6.6c-0.4-1-0.9-1.9-1.7-2.7c-0.8-0.8-1.6-1.5-2.6-2c-1-0.5-1.9-0.7-2.9-0.7
	c-1.1,0-2.1,0.2-3.1,0.7c-0.9,0.5-1.7,1.1-2.4,1.9c-0.6,0.8-1.1,1.7-1.5,2.7s-0.5,2.1-0.5,3.2c0,1.2,0.2,2.2,0.6,3.3
	c0.4,1,0.9,1.9,1.6,2.7c0.7,0.8,1.6,1.4,2.5,1.8c1,0.4,2,0.6,3.1,0.6c0.7,0,1.4-0.1,2.1-0.4c0.7-0.3,1.4-0.6,2.1-1.1
	c0.7-0.4,1.2-1,1.7-1.6C953.8,255.6,954.1,255,954.3,254.3z M977.6,263.8c-2,0-3.8-0.3-5.3-1c-1.6-0.7-2.9-1.7-4.1-2.9
	c-1.1-1.2-2-2.6-2.6-4.1c-0.6-1.6-0.9-3.2-0.9-5c0-1.8,0.3-3.4,0.9-5c0.6-1.6,1.5-2.9,2.6-4.1c1.2-1.2,2.5-2.2,4.1-2.8
	c1.6-0.7,3.4-1.1,5.3-1.1c2,0,3.7,0.4,5.3,1.1c1.6,0.7,3,1.6,4.1,2.8c1.2,1.2,2,2.6,2.6,4.1c0.6,1.6,0.9,3.2,0.9,5
	c0,1.8-0.3,3.4-0.9,5c-0.6,1.5-1.5,2.9-2.6,4.1c-1.1,1.2-2.5,2.2-4.1,2.9C981.3,263.4,979.5,263.8,977.6,263.8z M970.1,250.8
	c0,1.6,0.3,3,1,4.3c0.7,1.3,1.6,2.3,2.7,3s2.4,1.1,3.8,1.1c1.4,0,2.6-0.4,3.7-1.1c1.2-0.8,2.1-1.8,2.7-3.1c0.7-1.3,1-2.8,1-4.3
	c0-1.6-0.3-3-1-4.3s-1.6-2.3-2.7-3c-1.1-0.8-2.4-1.2-3.7-1.2c-1.4,0-2.7,0.4-3.8,1.2s-2,1.8-2.7,3.1
	C970.4,247.7,970.1,249.2,970.1,250.8z M995.2,228.2h5.3V256c0,1.3,0.2,2.1,0.6,2.4s0.9,0.5,1.4,0.5c0.6,0,1.2-0.1,1.8-0.2
	c0.6-0.1,1.1-0.3,1.5-0.5l0.8,4.2c-0.8,0.3-1.7,0.6-2.7,0.8s-2,0.3-2.8,0.3c-1.8,0-3.2-0.5-4.2-1.5c-1-1-1.5-2.4-1.5-4.2V228.2z
	 M1020.9,263.8c-2,0-3.8-0.3-5.3-1c-1.6-0.7-2.9-1.7-4.1-2.9c-1.1-1.2-2-2.6-2.6-4.1c-0.6-1.6-0.9-3.2-0.9-5c0-1.8,0.3-3.4,0.9-5
	c0.6-1.6,1.5-2.9,2.6-4.1c1.2-1.2,2.5-2.2,4.1-2.8c1.6-0.7,3.4-1.1,5.3-1.1c2,0,3.7,0.4,5.3,1.1c1.6,0.7,3,1.6,4.1,2.8
	c1.2,1.2,2,2.6,2.6,4.1c0.6,1.6,0.9,3.2,0.9,5c0,1.8-0.3,3.4-0.9,5c-0.6,1.5-1.5,2.9-2.6,4.1c-1.1,1.2-2.5,2.2-4.1,2.9
	C1024.6,263.4,1022.8,263.8,1020.9,263.8z M1013.4,250.8c0,1.6,0.3,3,1,4.3c0.7,1.3,1.6,2.3,2.7,3s2.4,1.1,3.8,1.1
	c1.4,0,2.6-0.4,3.7-1.1c1.2-0.8,2.1-1.8,2.7-3.1c0.7-1.3,1-2.8,1-4.3c0-1.6-0.3-3-1-4.3c-0.7-1.3-1.6-2.3-2.7-3
	c-1.1-0.8-2.4-1.2-3.7-1.2c-1.4,0-2.7,0.4-3.8,1.2s-2,1.8-2.7,3.1C1013.7,247.7,1013.4,249.2,1013.4,250.8z M1052.6,242.7
	c-2,0-3.9,0.5-5.5,1.4c-1.6,0.9-2.7,2.2-3.4,3.8v15.4h-5.3v-25.1h4.9v5.6c0.9-1.7,2-3.1,3.4-4.1c1.4-1.1,2.9-1.6,4.5-1.7
	c0.3,0,0.6,0,0.8,0c0.2,0,0.4,0,0.6,0V242.7z M1076.1,263.8c-2.1,0-4.1-0.3-6-1c-1.9-0.7-3.5-1.7-4.8-3.1l2-3.6
	c1.4,1.3,2.9,2.2,4.3,2.8c1.5,0.6,2.9,0.9,4.4,0.9c1.5,0,2.7-0.3,3.6-0.8c0.9-0.6,1.4-1.4,1.4-2.5c0-0.8-0.2-1.4-0.7-1.8
	c-0.5-0.4-1.2-0.7-2.1-1c-0.9-0.3-2-0.6-3.3-1c-1.8-0.5-3.3-1.1-4.5-1.7c-1.2-0.6-2.1-1.3-2.7-2.2s-0.9-2-0.9-3.3
	c0-1.6,0.4-3,1.2-4.2c0.8-1.2,2-2,3.5-2.6c1.5-0.6,3.2-0.9,5.2-0.9c1.8,0,3.5,0.3,5,0.9c1.6,0.5,2.9,1.4,4.1,2.6l-2.3,3.5
	c-1.1-1-2.3-1.8-3.5-2.3c-1.2-0.5-2.4-0.7-3.7-0.7c-0.8,0-1.5,0.1-2.2,0.3c-0.7,0.2-1.3,0.5-1.8,1c-0.4,0.4-0.7,1.1-0.7,1.9
	c0,0.7,0.2,1.2,0.6,1.6c0.4,0.4,1,0.8,1.7,1.1c0.8,0.3,1.7,0.6,2.8,1c2,0.6,3.6,1.2,5,1.7c1.4,0.5,2.4,1.3,3.2,2.2
	c0.8,0.9,1.2,2.1,1.2,3.6c0,2.4-0.9,4.3-2.7,5.7C1081.5,263.1,1079.1,263.8,1076.1,263.8z M1090.8,263.3v-25.1h5.3v25.1H1090.8z
	 M1090.8,234.1v-5.8h5.3v5.8H1090.8z M1116.4,262c-0.4,0.2-1,0.5-1.7,0.7s-1.4,0.5-2.3,0.7c-0.8,0.2-1.7,0.3-2.6,0.3
	c-1.1,0-2.1-0.2-3-0.6s-1.7-1-2.3-1.8c-0.5-0.9-0.8-2-0.8-3.3v-15.7h-3.3v-4.1h3.3v-8.3h5.3v8.3h5.5v4.1h-5.5v14
	c0.1,0.9,0.3,1.5,0.8,1.9c0.5,0.4,1.1,0.6,1.9,0.6s1.4-0.1,2.1-0.4s1.2-0.5,1.5-0.6L1116.4,262z M624,305.9c0-1.6,0.4-3,1.3-4.2
	c0.9-1.2,2.2-2.1,3.8-2.8c1.6-0.7,3.5-1,5.6-1c1.1,0,2.3,0.1,3.4,0.2c1.2,0.2,2.2,0.4,3.1,0.8v-1.6c0-1.8-0.5-3.1-1.6-4.1
	c-1.1-1-2.6-1.5-4.6-1.5c-1.4,0-2.7,0.3-4,0.8c-1.2,0.5-2.6,1.2-4,2.1l-1.8-3.6c1.7-1.1,3.3-2,5-2.5c1.7-0.5,3.5-0.8,5.3-0.8
	c3.4,0,6,0.9,7.9,2.7c2,1.8,2.9,4.3,2.9,7.5v9.4c0,0.6,0.1,1,0.3,1.3c0.2,0.3,0.6,0.4,1.1,0.4v4.2c-0.5,0.1-0.9,0.2-1.3,0.2
	c-0.4,0-0.7,0-1,0c-1.1,0-2-0.3-2.5-0.8c-0.6-0.5-0.9-1.2-1-1.9l-0.1-1.4c-1.1,1.4-2.5,2.5-4.2,3.3c-1.7,0.8-3.4,1.2-5.1,1.2
	c-1.7,0-3.2-0.3-4.5-1c-1.3-0.7-2.3-1.6-3.1-2.8C624.3,308.7,624,307.4,624,305.9z M639.9,307.5c0.4-0.4,0.7-0.8,0.9-1.2
	c0.2-0.4,0.3-0.8,0.3-1.1v-2.9c-0.9-0.4-1.8-0.6-2.8-0.8c-1-0.2-2-0.3-2.9-0.3c-1.9,0-3.5,0.4-4.7,1.2c-1.2,0.8-1.8,1.8-1.8,3.2
	c0,0.7,0.2,1.4,0.6,2.1c0.4,0.7,1,1.2,1.7,1.6c0.8,0.4,1.7,0.6,2.8,0.6c1.2,0,2.3-0.2,3.3-0.7C638.5,308.8,639.3,308.2,639.9,307.5z
	 M691.3,313.3H686v-14.1c0-2.3-0.4-4-1.2-5.1c-0.8-1.1-1.9-1.6-3.4-1.6c-1.5,0-2.8,0.6-4.1,1.7c-1.2,1.1-2.1,2.5-2.6,4.3v14.9h-5.3
	v-14.1c0-2.3-0.4-4-1.2-5.1c-0.8-1.1-1.9-1.6-3.3-1.6c-1.5,0-2.8,0.5-4.1,1.6c-1.2,1.1-2.1,2.5-2.7,4.3v14.9h-5.3v-25.1h4.8v5
	c1-1.8,2.3-3.1,3.9-4c1.6-1,3.5-1.4,5.6-1.4s3.7,0.5,4.9,1.6c1.2,1.1,2,2.4,2.3,4.1c1.1-1.9,2.4-3.3,4-4.2c1.6-1,3.4-1.5,5.5-1.5
	c1.5,0,2.7,0.3,3.7,0.8c1,0.5,1.8,1.3,2.3,2.3c0.5,0.9,0.9,2,1.2,3.3c0.3,1.2,0.4,2.5,0.4,3.9V313.3z M708.7,313.8
	c-2,0-3.7-0.3-5.3-1c-1.6-0.7-2.9-1.6-4.1-2.8c-1.2-1.2-2-2.6-2.7-4.1c-0.6-1.6-0.9-3.2-0.9-5c0-2.4,0.5-4.5,1.6-6.5
	c1.1-2,2.6-3.6,4.6-4.8c2-1.2,4.2-1.8,6.9-1.8c2.6,0,4.9,0.6,6.8,1.8c1.9,1.2,3.4,2.8,4.5,4.7c1.1,2,1.6,4,1.6,6.3
	c0,0.4,0,0.8,0,1.1c0,0.3-0.1,0.6-0.1,0.8h-20.1c0.1,1.5,0.5,2.8,1.2,3.9c0.7,1.1,1.7,2,2.8,2.6c1.1,0.6,2.3,0.9,3.6,0.9
	c1.4,0,2.7-0.4,4-1.1c1.3-0.7,2.1-1.6,2.6-2.8l4.5,1.3c-0.5,1.2-1.4,2.3-2.5,3.3c-1.1,1-2.4,1.7-3.9,2.3
	C712.1,313.5,710.5,313.8,708.7,313.8z M701.2,299h15.2c-0.1-1.4-0.5-2.7-1.2-3.8c-0.7-1.1-1.6-2-2.7-2.6c-1.1-0.6-2.3-1-3.6-1
	c-1.3,0-2.5,0.3-3.6,1c-1.1,0.6-2,1.5-2.7,2.6C701.7,296.3,701.3,297.5,701.2,299z M739.6,312c-0.4,0.2-1,0.5-1.7,0.7
	s-1.4,0.5-2.3,0.7c-0.8,0.2-1.7,0.3-2.6,0.3c-1.1,0-2.1-0.2-3-0.6c-0.9-0.4-1.7-1-2.3-1.8c-0.5-0.9-0.8-2-0.8-3.3v-15.7h-3.3v-4.1
	h3.3v-8.3h5.3v8.3h5.5v4.1h-5.5v14c0.1,0.9,0.3,1.5,0.8,1.9c0.5,0.4,1.1,0.6,1.9,0.6c0.7,0,1.4-0.1,2.1-0.4c0.7-0.3,1.2-0.5,1.5-0.6
	L739.6,312z M743.6,317.9l1.2-4.9h-1.7v-5.9h4.8v5.9l-1.7,4.9H743.6z M777.1,313.8c-2,0-3.7-0.3-5.3-1c-1.6-0.7-2.9-1.7-4.1-2.9
	c-1.2-1.2-2-2.6-2.7-4.2c-0.6-1.6-0.9-3.2-0.9-5c0-2.4,0.5-4.5,1.6-6.5c1.1-2,2.6-3.5,4.5-4.7c2-1.2,4.3-1.8,6.9-1.8
	c2.6,0,4.8,0.6,6.7,1.7c1.9,1.1,3.3,2.6,4.2,4.5l-5.1,1.6c-0.6-1.1-1.4-1.9-2.4-2.4c-1-0.6-2.2-0.9-3.4-0.9c-1.4,0-2.7,0.4-3.8,1.1
	c-1.1,0.7-2,1.7-2.7,3c-0.6,1.2-1,2.7-1,4.4c0,1.6,0.3,3.1,1,4.4c0.7,1.3,1.6,2.3,2.7,3.1c1.2,0.7,2.4,1.1,3.8,1.1
	c0.9,0,1.7-0.1,2.5-0.4c0.8-0.3,1.6-0.7,2.2-1.2c0.6-0.5,1-1.1,1.3-1.8l5.2,1.5c-0.5,1.2-1.4,2.4-2.4,3.3c-1.1,1-2.3,1.7-3.8,2.3
	C780.5,313.5,778.9,313.8,777.1,313.8z M803.6,313.8c-2,0-3.8-0.3-5.3-1c-1.6-0.7-2.9-1.7-4.1-2.9c-1.1-1.2-2-2.6-2.6-4.1
	c-0.6-1.6-0.9-3.2-0.9-5s0.3-3.4,0.9-5c0.6-1.6,1.5-2.9,2.6-4.1c1.2-1.2,2.5-2.2,4.1-2.8c1.6-0.7,3.4-1.1,5.3-1.1
	c2,0,3.7,0.4,5.3,1.1c1.6,0.7,3,1.6,4.1,2.8c1.2,1.2,2,2.6,2.6,4.1c0.6,1.6,0.9,3.2,0.9,5s-0.3,3.4-0.9,5c-0.6,1.5-1.5,2.9-2.6,4.1
	c-1.1,1.2-2.5,2.2-4.1,2.9C807.3,313.4,805.6,313.8,803.6,313.8z M796.1,300.8c0,1.6,0.3,3,1,4.3c0.7,1.3,1.6,2.3,2.7,3
	s2.4,1.1,3.8,1.1c1.4,0,2.6-0.4,3.7-1.1c1.2-0.8,2.1-1.8,2.7-3.1c0.7-1.3,1-2.8,1-4.3c0-1.6-0.3-3-1-4.3s-1.6-2.3-2.7-3
	c-1.1-0.8-2.4-1.2-3.7-1.2c-1.4,0-2.7,0.4-3.8,1.2s-2,1.8-2.7,3.1C796.5,297.7,796.1,299.2,796.1,300.8z M843.7,313.3h-5.3v-14.1
	c0-2.3-0.4-4-1.2-5.1c-0.7-1.1-1.8-1.6-3.3-1.6c-1,0-2,0.3-3.1,0.8c-1,0.5-1.9,1.2-2.7,2.1c-0.8,0.9-1.4,1.9-1.7,3v14.9h-5.3v-25.1
	h4.8v5c0.6-1.1,1.5-2.1,2.5-2.9c1.1-0.8,2.2-1.5,3.6-1.9c1.3-0.4,2.7-0.7,4.2-0.7c1.5,0,2.7,0.3,3.7,0.8c1,0.5,1.8,1.3,2.3,2.3
	c0.6,0.9,1,2,1.2,3.3c0.2,1.2,0.3,2.5,0.3,3.9V313.3z M858.8,313.8c-2.1,0-4.1-0.3-6-1c-1.9-0.7-3.5-1.7-4.8-3.1l2-3.6
	c1.4,1.3,2.9,2.2,4.3,2.8c1.5,0.6,2.9,0.9,4.4,0.9c1.5,0,2.7-0.3,3.6-0.8c0.9-0.6,1.4-1.4,1.4-2.5c0-0.8-0.2-1.4-0.7-1.8
	s-1.2-0.7-2.1-1c-0.9-0.3-2-0.6-3.3-1c-1.8-0.5-3.3-1.1-4.5-1.7c-1.2-0.6-2.1-1.3-2.7-2.2c-0.6-0.9-0.9-2-0.9-3.3
	c0-1.6,0.4-3,1.2-4.2c0.8-1.2,2-2,3.5-2.6c1.5-0.6,3.2-0.9,5.2-0.9c1.8,0,3.5,0.3,5,0.9c1.6,0.5,2.9,1.4,4.1,2.6l-2.3,3.5
	c-1.1-1-2.3-1.8-3.5-2.3c-1.2-0.5-2.4-0.7-3.7-0.7c-0.8,0-1.5,0.1-2.2,0.3c-0.7,0.2-1.3,0.5-1.8,1c-0.4,0.4-0.7,1.1-0.7,1.9
	c0,0.7,0.2,1.2,0.6,1.6c0.4,0.4,1,0.8,1.7,1.1c0.8,0.3,1.7,0.6,2.8,1c2,0.6,3.6,1.2,5,1.7c1.4,0.5,2.4,1.3,3.2,2.2
	c0.8,0.9,1.2,2.1,1.2,3.6c0,2.4-0.9,4.3-2.7,5.7C864.2,313.1,861.8,313.8,858.8,313.8z M884.8,313.8c-2,0-3.7-0.3-5.3-1
	c-1.6-0.7-2.9-1.6-4.1-2.8c-1.2-1.2-2-2.6-2.7-4.1c-0.6-1.6-0.9-3.2-0.9-5c0-2.4,0.5-4.5,1.6-6.5c1.1-2,2.6-3.6,4.6-4.8
	c2-1.2,4.2-1.8,6.9-1.8s4.9,0.6,6.8,1.8c1.9,1.2,3.4,2.8,4.5,4.7s1.6,4,1.6,6.3c0,0.4,0,0.8,0,1.1c0,0.3-0.1,0.6-0.1,0.8h-20.1
	c0.1,1.5,0.5,2.8,1.2,3.9c0.7,1.1,1.7,2,2.8,2.6c1.1,0.6,2.3,0.9,3.6,0.9c1.4,0,2.7-0.4,4-1.1c1.3-0.7,2.1-1.6,2.6-2.8l4.5,1.3
	c-0.5,1.2-1.4,2.3-2.5,3.3c-1.1,1-2.4,1.7-3.9,2.3C888.2,313.5,886.6,313.8,884.8,313.8z M877.3,299h15.2c-0.1-1.4-0.5-2.7-1.2-3.8
	c-0.7-1.1-1.6-2-2.7-2.6c-1.1-0.6-2.3-1-3.6-1c-1.3,0-2.5,0.3-3.6,1c-1.1,0.6-2,1.5-2.7,2.6C877.8,296.3,877.4,297.5,877.3,299z
	 M913.3,313.8c-2,0-3.7-0.3-5.3-1c-1.6-0.7-2.9-1.7-4.1-2.9s-2-2.6-2.7-4.2c-0.6-1.6-0.9-3.2-0.9-5c0-2.4,0.5-4.5,1.6-6.5
	c1.1-2,2.6-3.5,4.5-4.7c2-1.2,4.3-1.8,6.9-1.8c2.6,0,4.8,0.6,6.7,1.7c1.9,1.1,3.3,2.6,4.2,4.5l-5.1,1.6c-0.6-1.1-1.4-1.9-2.4-2.4
	c-1-0.6-2.2-0.9-3.4-0.9c-1.4,0-2.7,0.4-3.8,1.1c-1.1,0.7-2,1.7-2.7,3c-0.6,1.2-1,2.7-1,4.4c0,1.6,0.3,3.1,1,4.4
	c0.7,1.3,1.6,2.3,2.7,3.1c1.2,0.7,2.4,1.1,3.8,1.1c0.9,0,1.7-0.1,2.5-0.4c0.8-0.3,1.6-0.7,2.2-1.2c0.6-0.5,1-1.1,1.3-1.8l5.2,1.5
	c-0.5,1.2-1.4,2.4-2.4,3.3c-1.1,1-2.3,1.7-3.8,2.3C916.8,313.5,915.1,313.8,913.3,313.8z M942.8,312c-0.4,0.2-1,0.5-1.7,0.7
	s-1.4,0.5-2.3,0.7c-0.8,0.2-1.7,0.3-2.6,0.3c-1.1,0-2.1-0.2-3-0.6s-1.7-1-2.3-1.8c-0.5-0.9-0.8-2-0.8-3.3v-15.7h-3.3v-4.1h3.3v-8.3
	h5.3v8.3h5.5v4.1h-5.5v14c0.1,0.9,0.3,1.5,0.8,1.9c0.5,0.4,1.1,0.6,1.9,0.6c0.7,0,1.4-0.1,2.1-0.4c0.7-0.3,1.2-0.5,1.5-0.6
	L942.8,312z M957.5,313.8c-2,0-3.7-0.3-5.3-1c-1.6-0.7-2.9-1.6-4.1-2.8c-1.2-1.2-2-2.6-2.7-4.1c-0.6-1.6-0.9-3.2-0.9-5
	c0-2.4,0.5-4.5,1.6-6.5c1.1-2,2.6-3.6,4.6-4.8c2-1.2,4.2-1.8,6.9-1.8s4.9,0.6,6.8,1.8c1.9,1.2,3.4,2.8,4.5,4.7s1.6,4,1.6,6.3
	c0,0.4,0,0.8,0,1.1c0,0.3-0.1,0.6-0.1,0.8h-20.1c0.1,1.5,0.5,2.8,1.2,3.9c0.7,1.1,1.7,2,2.8,2.6c1.1,0.6,2.3,0.9,3.6,0.9
	c1.4,0,2.7-0.4,4-1.1c1.3-0.7,2.1-1.6,2.6-2.8l4.5,1.3c-0.5,1.2-1.4,2.3-2.5,3.3c-1.1,1-2.4,1.7-3.9,2.3
	C960.8,313.5,959.2,313.8,957.5,313.8z M949.9,299h15.2c-0.1-1.4-0.5-2.7-1.2-3.8c-0.7-1.1-1.6-2-2.7-2.6c-1.1-0.6-2.3-1-3.6-1
	c-1.3,0-2.5,0.3-3.6,1c-1.1,0.6-2,1.5-2.7,2.6C950.4,296.3,950,297.5,949.9,299z M988.4,312c-0.4,0.2-1,0.5-1.7,0.7
	s-1.4,0.5-2.3,0.7c-0.8,0.2-1.7,0.3-2.6,0.3c-1.1,0-2.1-0.2-3-0.6s-1.7-1-2.3-1.8c-0.5-0.9-0.8-2-0.8-3.3v-15.7h-3.3v-4.1h3.3v-8.3
	h5.3v8.3h5.5v4.1H981v14c0.1,0.9,0.3,1.5,0.8,1.9c0.5,0.4,1.1,0.6,1.9,0.6c0.7,0,1.4-0.1,2.1-0.4c0.7-0.3,1.2-0.5,1.5-0.6L988.4,312
	z M991.8,303.5v-15.4h5.3v14.3c0,2.2,0.4,3.9,1.2,5.1c0.8,1.1,2,1.7,3.6,1.7c1,0,2-0.2,2.9-0.6c1-0.4,1.8-1,2.6-1.8
	c0.8-0.8,1.4-1.8,1.9-3v-15.6h5.3v19.2c0,0.6,0.1,1,0.3,1.3c0.2,0.3,0.6,0.4,1.1,0.4v4.2c-0.5,0.1-1,0.2-1.3,0.2c-0.4,0-0.7,0-1,0
	c-1,0-1.8-0.3-2.4-0.8c-0.6-0.5-1-1.2-1.1-2.1l-0.1-2.5c-1.1,1.8-2.6,3.2-4.4,4.2c-1.8,0.9-3.8,1.4-5.9,1.4c-2.6,0-4.6-0.9-6-2.6
	S991.8,306.9,991.8,303.5z M1035.4,292.7c-2,0-3.9,0.5-5.5,1.4c-1.6,0.9-2.7,2.2-3.4,3.8v15.4h-5.3v-25.1h4.9v5.6
	c0.9-1.7,2-3.1,3.4-4.1c1.4-1.1,2.9-1.6,4.5-1.7c0.3,0,0.6,0,0.8,0c0.2,0,0.4,0,0.6,0V292.7z M624,355.9c0-1.6,0.4-3,1.3-4.2
	c0.9-1.2,2.2-2.1,3.8-2.8c1.6-0.7,3.5-1,5.6-1c1.1,0,2.3,0.1,3.4,0.2c1.2,0.2,2.2,0.4,3.1,0.8v-1.6c0-1.8-0.5-3.1-1.6-4.1
	c-1.1-1-2.6-1.5-4.6-1.5c-1.4,0-2.7,0.3-4,0.8c-1.2,0.5-2.6,1.2-4,2.1l-1.8-3.6c1.7-1.1,3.3-2,5-2.5c1.7-0.5,3.5-0.8,5.3-0.8
	c3.4,0,6,0.9,7.9,2.7c2,1.8,2.9,4.3,2.9,7.5v9.4c0,0.6,0.1,1,0.3,1.3c0.2,0.3,0.6,0.4,1.1,0.4v4.2c-0.5,0.1-0.9,0.2-1.3,0.2
	c-0.4,0-0.7,0-1,0c-1.1,0-2-0.3-2.5-0.8c-0.6-0.5-0.9-1.2-1-1.9l-0.1-1.4c-1.1,1.4-2.5,2.5-4.2,3.3c-1.7,0.8-3.4,1.2-5.1,1.2
	c-1.7,0-3.2-0.3-4.5-1c-1.3-0.7-2.3-1.6-3.1-2.8C624.3,358.7,624,357.4,624,355.9z M639.9,357.5c0.4-0.4,0.7-0.8,0.9-1.2
	c0.2-0.4,0.3-0.8,0.3-1.1v-2.9c-0.9-0.4-1.8-0.6-2.8-0.8c-1-0.2-2-0.3-2.9-0.3c-1.9,0-3.5,0.4-4.7,1.2c-1.2,0.8-1.8,1.8-1.8,3.2
	c0,0.7,0.2,1.4,0.6,2.1c0.4,0.7,1,1.2,1.7,1.6c0.8,0.4,1.7,0.6,2.8,0.6c1.2,0,2.3-0.2,3.3-0.7C638.5,358.8,639.3,358.2,639.9,357.5z
	 M651.3,350.8c0-2.4,0.5-4.6,1.4-6.5c1-2,2.3-3.6,4-4.7c1.7-1.2,3.6-1.8,5.9-1.8c1.9,0,3.6,0.5,5.2,1.5c1.6,1,2.8,2.2,3.6,3.7v-14.7
	h5.3v29.1c0,0.6,0.1,1,0.3,1.3c0.2,0.3,0.6,0.4,1.1,0.4v4.2c-1,0.2-1.8,0.2-2.3,0.2c-1,0-1.8-0.3-2.5-0.9c-0.7-0.6-1-1.3-1.1-2.1
	l0-1.9c-1,1.6-2.3,2.8-3.9,3.7c-1.6,0.9-3.3,1.3-5.1,1.3c-1.7,0-3.3-0.3-4.8-1c-1.4-0.7-2.7-1.6-3.8-2.8c-1.1-1.2-1.9-2.6-2.5-4.2
	C651.6,354.2,651.3,352.5,651.3,350.8z M671.5,354.3v-6.6c-0.4-1-0.9-1.9-1.7-2.7c-0.8-0.8-1.6-1.5-2.6-2c-1-0.5-1.9-0.7-2.9-0.7
	c-1.1,0-2.1,0.2-3.1,0.7c-0.9,0.5-1.7,1.1-2.4,1.9c-0.6,0.8-1.1,1.7-1.5,2.7c-0.4,1-0.5,2.1-0.5,3.2c0,1.2,0.2,2.2,0.6,3.3
	c0.4,1,0.9,1.9,1.6,2.7c0.7,0.8,1.6,1.4,2.5,1.8c1,0.4,2,0.6,3.1,0.6c0.7,0,1.4-0.1,2.1-0.4c0.7-0.3,1.4-0.6,2.1-1.1
	c0.7-0.4,1.2-1,1.7-1.6C670.9,355.6,671.3,355,671.5,354.3z M683.4,363.3v-25.1h5.3v25.1H683.4z M683.4,334.1v-5.8h5.3v5.8H683.4z
	 M709.3,363.8c-2,0-3.8-0.5-5.3-1.4s-2.8-2.2-3.6-3.7v14.9h-5.3v-35.3h4.7v4.5c1-1.5,2.2-2.7,3.7-3.6c1.5-0.9,3.2-1.3,5.1-1.3
	c1.7,0,3.3,0.4,4.8,1.1c1.4,0.7,2.7,1.6,3.7,2.8c1.1,1.2,1.9,2.6,2.4,4.2c0.6,1.5,0.9,3.2,0.9,4.9c0,2.4-0.5,4.6-1.4,6.6
	c-0.9,2-2.2,3.6-3.9,4.8C713.4,363.2,711.5,363.8,709.3,363.8z M707.6,359.3c1.1,0,2.1-0.2,3-0.7c0.9-0.5,1.7-1.1,2.4-1.9
	c0.7-0.8,1.2-1.7,1.5-2.7s0.5-2.1,0.5-3.2c0-1.2-0.2-2.2-0.6-3.3c-0.4-1-0.9-1.9-1.7-2.7c-0.7-0.8-1.5-1.4-2.5-1.8
	c-0.9-0.4-2-0.7-3.1-0.7c-0.7,0-1.4,0.1-2.1,0.4c-0.7,0.3-1.4,0.6-2.1,1.1c-0.6,0.4-1.2,1-1.7,1.6c-0.5,0.6-0.8,1.2-1,1.9v6.6
	c0.4,1,1,2,1.8,2.8c0.7,0.8,1.6,1.5,2.5,2C705.6,359,706.6,359.3,707.6,359.3z M725.2,363.3v-25.1h5.3v25.1H725.2z M725.2,334.1
	v-5.8h5.3v5.8H725.2z M745.8,363.8c-2.1,0-4.1-0.3-6-1c-1.9-0.7-3.5-1.7-4.8-3.1l2-3.6c1.4,1.3,2.9,2.2,4.3,2.8
	c1.5,0.6,2.9,0.9,4.4,0.9c1.5,0,2.7-0.3,3.6-0.8c0.9-0.6,1.4-1.4,1.4-2.5c0-0.8-0.2-1.4-0.7-1.8s-1.2-0.7-2.1-1
	c-0.9-0.3-2-0.6-3.3-1c-1.8-0.5-3.3-1.1-4.5-1.7c-1.2-0.6-2.1-1.3-2.7-2.2c-0.6-0.9-0.9-2-0.9-3.3c0-1.6,0.4-3,1.2-4.2
	c0.8-1.2,2-2,3.5-2.6c1.5-0.6,3.2-0.9,5.2-0.9c1.8,0,3.5,0.3,5,0.9c1.6,0.5,2.9,1.4,4.1,2.6l-2.3,3.5c-1.1-1-2.3-1.8-3.5-2.3
	c-1.2-0.5-2.4-0.7-3.7-0.7c-0.8,0-1.5,0.1-2.2,0.3c-0.7,0.2-1.3,0.5-1.8,1c-0.4,0.4-0.7,1.1-0.7,1.9c0,0.7,0.2,1.2,0.6,1.6
	c0.4,0.4,1,0.8,1.7,1.1c0.8,0.3,1.7,0.6,2.8,1c2,0.6,3.6,1.2,5,1.7c1.4,0.5,2.4,1.3,3.2,2.2c0.8,0.9,1.2,2.1,1.2,3.6
	c0,2.4-0.9,4.3-2.7,5.7C751.2,363.1,748.8,363.8,745.8,363.8z M771.8,363.8c-2,0-3.7-0.3-5.3-1c-1.6-0.7-2.9-1.7-4.1-2.9
	c-1.2-1.2-2-2.6-2.7-4.2c-0.6-1.6-0.9-3.2-0.9-5c0-2.4,0.5-4.5,1.6-6.5c1.1-2,2.6-3.5,4.5-4.7c2-1.2,4.3-1.8,6.9-1.8
	c2.6,0,4.8,0.6,6.7,1.7c1.9,1.1,3.3,2.6,4.2,4.5l-5.1,1.6c-0.6-1.1-1.4-1.9-2.4-2.4c-1-0.6-2.2-0.9-3.4-0.9c-1.4,0-2.7,0.4-3.8,1.1
	c-1.1,0.7-2,1.7-2.7,3c-0.6,1.2-1,2.7-1,4.4c0,1.6,0.3,3.1,1,4.4c0.7,1.3,1.6,2.3,2.7,3.1c1.2,0.7,2.4,1.1,3.8,1.1
	c0.9,0,1.7-0.1,2.5-0.4c0.8-0.3,1.6-0.7,2.2-1.2c0.6-0.5,1-1.1,1.3-1.8l5.2,1.5c-0.5,1.2-1.4,2.4-2.4,3.3c-1.1,1-2.3,1.7-3.8,2.3
	C775.2,363.5,773.6,363.8,771.8,363.8z M787.2,363.3v-25.1h5.3v25.1H787.2z M787.2,334.1v-5.8h5.3v5.8H787.2z M821.4,363.3h-5.3
	v-14.1c0-2.3-0.4-4-1.2-5.1c-0.7-1.1-1.8-1.6-3.3-1.6c-1,0-2,0.3-3.1,0.8c-1,0.5-1.9,1.2-2.7,2.1c-0.8,0.9-1.4,1.9-1.7,3v14.9h-5.3
	v-25.1h4.8v5c0.6-1.1,1.5-2.1,2.5-2.9c1.1-0.8,2.2-1.5,3.6-1.9s2.7-0.7,4.2-0.7c1.5,0,2.7,0.3,3.7,0.8c1,0.5,1.8,1.3,2.3,2.3
	c0.6,0.9,1,2,1.2,3.3c0.2,1.2,0.3,2.5,0.3,3.9V363.3z M837.4,363.5c-1.7,0-3.2-0.3-4.7-1c-1.4-0.7-2.6-1.6-3.6-2.8
	c-1-1.2-1.8-2.5-2.4-4.1c-0.5-1.5-0.8-3.2-0.8-4.8c0-1.8,0.3-3.5,0.9-5s1.4-2.9,2.4-4.1c1.1-1.2,2.3-2.2,3.7-2.8c1.4-0.7,3-1,4.7-1
	c2,0,3.8,0.5,5.3,1.4c1.5,1,2.8,2.2,3.8,3.7v-4.8h4.7v24.4c0,2.4-0.6,4.5-1.8,6.2c-1.2,1.7-2.7,3-4.8,3.9s-4.3,1.3-6.8,1.3
	c-2.8,0-5.1-0.5-6.9-1.4c-1.8-1-3.4-2.3-4.7-3.9l3-2.8c1,1.3,2.2,2.4,3.7,3.1c1.5,0.7,3.2,1.1,4.9,1.1c1.4,0,2.8-0.3,4-0.8
	c1.2-0.5,2.2-1.3,3-2.4c0.7-1.1,1.1-2.5,1.1-4.1v-3.8c-0.9,1.5-2.1,2.7-3.7,3.6C840.8,363.1,839.2,363.5,837.4,363.5z M839.2,359.3
	c0.8,0,1.6-0.1,2.3-0.4c0.7-0.3,1.4-0.7,2-1.1c0.6-0.5,1.2-1,1.6-1.6c0.4-0.6,0.8-1.2,1-1.9v-6.6c-0.4-1.1-1-2-1.8-2.8
	c-0.8-0.8-1.6-1.5-2.6-1.9s-1.9-0.7-2.9-0.7c-1.2,0-2.2,0.3-3.1,0.8c-0.9,0.5-1.7,1.1-2.3,2c-0.6,0.8-1.1,1.7-1.5,2.7
	c-0.4,1-0.5,2.1-0.5,3.2c0,1.2,0.2,2.2,0.6,3.2c0.4,1,1,1.9,1.7,2.7c0.7,0.8,1.5,1.4,2.5,1.8C837,359,838.1,359.3,839.2,359.3z
	 M880.9,363.8c-2,0-3.7-0.3-5.3-1c-1.6-0.7-2.9-1.6-4.1-2.8c-1.2-1.2-2-2.6-2.7-4.1c-0.6-1.6-0.9-3.2-0.9-5c0-2.4,0.5-4.5,1.6-6.5
	c1.1-2,2.6-3.6,4.6-4.8c2-1.2,4.2-1.8,6.9-1.8s4.9,0.6,6.8,1.8c1.9,1.2,3.4,2.8,4.5,4.7s1.6,4,1.6,6.3c0,0.4,0,0.8,0,1.1
	c0,0.3-0.1,0.6-0.1,0.8h-20.1c0.1,1.5,0.5,2.8,1.2,3.9c0.7,1.1,1.7,2,2.8,2.6c1.1,0.6,2.3,0.9,3.6,0.9c1.4,0,2.7-0.4,4-1.1
	c1.3-0.7,2.1-1.6,2.6-2.8l4.5,1.3c-0.5,1.2-1.4,2.3-2.5,3.3c-1.1,1-2.4,1.7-3.9,2.3C884.3,363.5,882.7,363.8,880.9,363.8z
	 M873.4,349h15.2c-0.1-1.4-0.5-2.7-1.2-3.8c-0.7-1.1-1.6-2-2.7-2.6c-1.1-0.6-2.3-1-3.6-1c-1.3,0-2.5,0.3-3.6,1
	c-1.1,0.6-2,1.5-2.7,2.6C873.9,346.3,873.5,347.5,873.4,349z M898.1,328.2h5.3V356c0,1.3,0.2,2.1,0.6,2.4s0.9,0.5,1.4,0.5
	c0.6,0,1.2-0.1,1.8-0.2c0.6-0.1,1.1-0.3,1.5-0.5l0.8,4.2c-0.8,0.3-1.7,0.6-2.7,0.8s-2,0.3-2.8,0.3c-1.8,0-3.2-0.5-4.2-1.5
	c-1-1-1.5-2.4-1.5-4.2V328.2z M912.5,363.3v-25.1h5.3v25.1H912.5z M912.5,334.1v-5.8h5.3v5.8H912.5z M938.1,362
	c-0.4,0.2-1,0.5-1.7,0.7c-0.7,0.3-1.4,0.5-2.3,0.7c-0.8,0.2-1.7,0.3-2.6,0.3c-1.1,0-2.1-0.2-3-0.6s-1.7-1-2.3-1.8
	c-0.5-0.9-0.8-2-0.8-3.3v-15.7h-3.3v-4.1h3.3v-8.3h5.3v8.3h5.5v4.1h-5.5v14c0.1,0.9,0.3,1.5,0.8,1.9c0.5,0.4,1.1,0.6,1.9,0.6
	c0.7,0,1.4-0.1,2.1-0.4c0.7-0.3,1.2-0.5,1.5-0.6L938.1,362z M942.1,367.9l1.2-4.9h-1.7v-5.9h4.8v5.9l-1.7,4.9H942.1z M973.2,363.8
	c-2.1,0-4.1-0.3-6-1c-1.9-0.7-3.5-1.7-4.8-3.1l2-3.6c1.4,1.3,2.9,2.2,4.3,2.8c1.5,0.6,2.9,0.9,4.4,0.9c1.5,0,2.7-0.3,3.6-0.8
	c0.9-0.6,1.4-1.4,1.4-2.5c0-0.8-0.2-1.4-0.7-1.8s-1.2-0.7-2.1-1c-0.9-0.3-2-0.6-3.3-1c-1.8-0.5-3.3-1.1-4.5-1.7
	c-1.2-0.6-2.1-1.3-2.7-2.2c-0.6-0.9-0.9-2-0.9-3.3c0-1.6,0.4-3,1.2-4.2c0.8-1.2,2-2,3.5-2.6c1.5-0.6,3.2-0.9,5.2-0.9
	c1.8,0,3.5,0.3,5,0.9c1.6,0.5,2.9,1.4,4.1,2.6l-2.3,3.5c-1.1-1-2.3-1.8-3.5-2.3c-1.2-0.5-2.4-0.7-3.7-0.7c-0.8,0-1.5,0.1-2.2,0.3
	c-0.7,0.2-1.3,0.5-1.8,1c-0.4,0.4-0.7,1.1-0.7,1.9c0,0.7,0.2,1.2,0.6,1.6c0.4,0.4,1,0.8,1.7,1.1c0.8,0.3,1.7,0.6,2.8,1
	c2,0.6,3.6,1.2,5,1.7c1.4,0.5,2.4,1.3,3.2,2.2c0.8,0.9,1.2,2.1,1.2,3.6c0,2.4-0.9,4.3-2.7,5.7C978.6,363.1,976.2,363.8,973.2,363.8z
	 M999.2,363.8c-2,0-3.7-0.3-5.3-1c-1.6-0.7-2.9-1.6-4.1-2.8c-1.2-1.2-2-2.6-2.7-4.1c-0.6-1.6-0.9-3.2-0.9-5c0-2.4,0.5-4.5,1.6-6.5
	c1.1-2,2.6-3.6,4.6-4.8c2-1.2,4.2-1.8,6.9-1.8s4.9,0.6,6.8,1.8c1.9,1.2,3.4,2.8,4.5,4.7s1.6,4,1.6,6.3c0,0.4,0,0.8,0,1.1
	c0,0.3-0.1,0.6-0.1,0.8h-20.1c0.1,1.5,0.5,2.8,1.2,3.9c0.7,1.1,1.7,2,2.8,2.6c1.1,0.6,2.3,0.9,3.6,0.9c1.4,0,2.7-0.4,4-1.1
	c1.3-0.7,2.1-1.6,2.6-2.8l4.5,1.3c-0.5,1.2-1.4,2.3-2.5,3.3c-1.1,1-2.4,1.7-3.9,2.3C1002.6,363.5,1000.9,363.8,999.2,363.8z
	 M991.6,349h15.2c-0.1-1.4-0.5-2.7-1.2-3.8c-0.7-1.1-1.6-2-2.7-2.6c-1.1-0.6-2.3-1-3.6-1c-1.3,0-2.5,0.3-3.6,1
	c-1.1,0.6-2,1.5-2.7,2.6C992.1,346.3,991.7,347.5,991.6,349z M1014.8,350.8c0-2.4,0.5-4.6,1.4-6.5c1-2,2.3-3.6,4-4.7
	c1.7-1.2,3.6-1.8,5.9-1.8c1.9,0,3.6,0.5,5.2,1.5c1.6,1,2.8,2.2,3.6,3.7v-14.7h5.3v29.1c0,0.6,0.1,1,0.3,1.3c0.2,0.3,0.6,0.4,1.1,0.4
	v4.2c-1,0.2-1.8,0.2-2.3,0.2c-1,0-1.8-0.3-2.5-0.9c-0.7-0.6-1-1.3-1.1-2.1l0-1.9c-1,1.6-2.3,2.8-3.9,3.7c-1.6,0.9-3.3,1.3-5.1,1.3
	c-1.7,0-3.3-0.3-4.8-1c-1.4-0.7-2.7-1.6-3.8-2.8c-1.1-1.2-1.9-2.6-2.5-4.2C1015.1,354.2,1014.8,352.5,1014.8,350.8z M1034.9,354.3
	v-6.6c-0.4-1-0.9-1.9-1.7-2.7c-0.8-0.8-1.6-1.5-2.6-2c-1-0.5-1.9-0.7-2.9-0.7c-1.1,0-2.1,0.2-3.1,0.7c-0.9,0.5-1.7,1.1-2.4,1.9
	c-0.6,0.8-1.1,1.7-1.5,2.7c-0.4,1-0.5,2.1-0.5,3.2c0,1.2,0.2,2.2,0.6,3.3c0.4,1,0.9,1.9,1.6,2.7c0.7,0.8,1.6,1.4,2.5,1.8
	c1,0.4,2,0.6,3.1,0.6c0.7,0,1.4-0.1,2.1-0.4c0.7-0.3,1.4-0.6,2.1-1.1c0.7-0.4,1.2-1,1.7-1.6C1034.4,355.6,1034.7,355,1034.9,354.3z
	 M1057.2,350.8c0-2.4,0.5-4.6,1.4-6.5c1-2,2.3-3.6,4-4.7c1.7-1.2,3.6-1.8,5.9-1.8c1.9,0,3.6,0.5,5.2,1.5c1.6,1,2.8,2.2,3.6,3.7
	v-14.7h5.3v29.1c0,0.6,0.1,1,0.3,1.3c0.2,0.3,0.6,0.4,1.1,0.4v4.2c-1,0.2-1.8,0.2-2.3,0.2c-1,0-1.8-0.3-2.5-0.9
	c-0.7-0.6-1-1.3-1.1-2.1l0-1.9c-1,1.6-2.3,2.8-3.9,3.7c-1.6,0.9-3.3,1.3-5.1,1.3c-1.7,0-3.3-0.3-4.8-1c-1.4-0.7-2.7-1.6-3.8-2.8
	c-1.1-1.2-1.9-2.6-2.5-4.2C1057.5,354.2,1057.2,352.5,1057.2,350.8z M1077.3,354.3v-6.6c-0.4-1-0.9-1.9-1.7-2.7
	c-0.8-0.8-1.6-1.5-2.6-2c-1-0.5-1.9-0.7-2.9-0.7c-1.1,0-2.1,0.2-3.1,0.7c-0.9,0.5-1.7,1.1-2.4,1.9c-0.6,0.8-1.1,1.7-1.5,2.7
	c-0.4,1-0.5,2.1-0.5,3.2c0,1.2,0.2,2.2,0.6,3.3c0.4,1,0.9,1.9,1.6,2.7c0.7,0.8,1.6,1.4,2.5,1.8c1,0.4,2,0.6,3.1,0.6
	c0.7,0,1.4-0.1,2.1-0.4c0.7-0.3,1.4-0.6,2.1-1.1c0.7-0.4,1.2-1,1.7-1.6C1076.8,355.6,1077.2,355,1077.3,354.3z M1100.6,363.8
	c-2,0-3.8-0.3-5.3-1c-1.6-0.7-2.9-1.7-4.1-2.9c-1.1-1.2-2-2.6-2.6-4.1c-0.6-1.6-0.9-3.2-0.9-5s0.3-3.4,0.9-5s1.5-2.9,2.6-4.1
	c1.2-1.2,2.5-2.2,4.1-2.8c1.6-0.7,3.4-1.1,5.3-1.1s3.7,0.4,5.3,1.1c1.6,0.7,3,1.6,4.1,2.8c1.2,1.2,2,2.6,2.6,4.1s0.9,3.2,0.9,5
	s-0.3,3.4-0.9,5c-0.6,1.5-1.5,2.9-2.6,4.1c-1.1,1.2-2.5,2.2-4.1,2.9C1104.3,363.4,1102.6,363.8,1100.6,363.8z M1093.1,350.8
	c0,1.6,0.3,3,1,4.3s1.6,2.3,2.7,3s2.4,1.1,3.8,1.1c1.4,0,2.6-0.4,3.7-1.1c1.2-0.8,2.1-1.8,2.7-3.1c0.7-1.3,1-2.8,1-4.3
	c0-1.6-0.3-3-1-4.3c-0.7-1.3-1.6-2.3-2.7-3c-1.1-0.8-2.4-1.2-3.7-1.2c-1.4,0-2.7,0.4-3.8,1.2s-2,1.8-2.7,3.1
	C1093.5,347.7,1093.1,349.2,1093.1,350.8z M637.2,413.8c-2,0-3.7-0.3-5.3-1c-1.6-0.7-2.9-1.6-4.1-2.8c-1.2-1.2-2-2.6-2.7-4.1
	c-0.6-1.6-0.9-3.2-0.9-5c0-2.4,0.5-4.5,1.6-6.5c1.1-2,2.6-3.6,4.6-4.8c2-1.2,4.2-1.8,6.9-1.8c2.6,0,4.9,0.6,6.8,1.8
	c1.9,1.2,3.4,2.8,4.5,4.7c1.1,2,1.6,4,1.6,6.3c0,0.4,0,0.8,0,1.1c0,0.3-0.1,0.6-0.1,0.8h-20.1c0.1,1.5,0.5,2.8,1.2,3.9
	c0.7,1.1,1.7,2,2.8,2.6c1.1,0.6,2.3,0.9,3.6,0.9c1.4,0,2.7-0.4,4-1.1c1.3-0.7,2.1-1.6,2.6-2.8l4.5,1.3c-0.5,1.2-1.4,2.3-2.5,3.3
	c-1.1,1-2.4,1.7-3.9,2.3C640.6,413.5,638.9,413.8,637.2,413.8z M629.6,399h15.2c-0.1-1.4-0.5-2.7-1.2-3.8c-0.7-1.1-1.6-2-2.7-2.6
	c-1.1-0.6-2.3-1-3.6-1c-1.3,0-2.5,0.3-3.6,1c-1.1,0.6-2,1.5-2.7,2.6C630.1,396.3,629.7,397.5,629.6,399z M654.3,413.3v-25.1h5.3
	v25.1H654.3z M654.3,384.1v-5.8h5.3v5.8H654.3z M665.7,403.5v-15.4h5.3v14.3c0,2.2,0.4,3.9,1.2,5.1c0.8,1.1,2,1.7,3.6,1.7
	c1,0,2-0.2,2.9-0.6c1-0.4,1.8-1,2.6-1.8c0.8-0.8,1.4-1.8,1.9-3v-15.6h5.3v19.2c0,0.6,0.1,1,0.3,1.3c0.2,0.3,0.6,0.4,1.1,0.4v4.2
	c-0.5,0.1-1,0.2-1.3,0.2c-0.4,0-0.7,0-1,0c-1,0-1.8-0.3-2.4-0.8c-0.6-0.5-1-1.2-1.1-2.1l-0.1-2.5c-1.1,1.8-2.6,3.2-4.4,4.2
	c-1.8,0.9-3.8,1.4-5.9,1.4c-2.6,0-4.6-0.9-6-2.6C666.4,409.4,665.7,406.9,665.7,403.5z M704.1,413.8c-2.1,0-4.1-0.3-6-1
	c-1.9-0.7-3.5-1.7-4.8-3.1l2-3.6c1.4,1.3,2.9,2.2,4.3,2.8c1.5,0.6,2.9,0.9,4.4,0.9c1.5,0,2.7-0.3,3.6-0.8c0.9-0.6,1.4-1.4,1.4-2.5
	c0-0.8-0.2-1.4-0.7-1.8c-0.5-0.4-1.2-0.7-2.1-1c-0.9-0.3-2-0.6-3.3-1c-1.8-0.5-3.3-1.1-4.5-1.7c-1.2-0.6-2.1-1.3-2.7-2.2
	c-0.6-0.9-0.9-2-0.9-3.3c0-1.6,0.4-3,1.2-4.2c0.8-1.2,2-2,3.5-2.6c1.5-0.6,3.2-0.9,5.2-0.9c1.8,0,3.5,0.3,5,0.9
	c1.6,0.5,2.9,1.4,4.1,2.6l-2.3,3.5c-1.1-1-2.3-1.8-3.5-2.3c-1.2-0.5-2.4-0.7-3.7-0.7c-0.8,0-1.5,0.1-2.2,0.3c-0.7,0.2-1.3,0.5-1.8,1
	c-0.4,0.4-0.7,1.1-0.7,1.9c0,0.7,0.2,1.2,0.6,1.6c0.4,0.4,1,0.8,1.7,1.1s1.7,0.6,2.8,1c2,0.6,3.6,1.2,5,1.7c1.4,0.5,2.4,1.3,3.2,2.2
	c0.8,0.9,1.2,2.1,1.2,3.6c0,2.4-0.9,4.3-2.7,5.7C709.5,413.1,707.1,413.8,704.1,413.8z M757.2,413.3h-5.3v-14.1c0-2.3-0.4-4-1.2-5.1
	c-0.8-1.1-1.9-1.6-3.4-1.6c-1.5,0-2.8,0.6-4.1,1.7c-1.2,1.1-2.1,2.5-2.6,4.3v14.9h-5.3v-14.1c0-2.3-0.4-4-1.2-5.1
	c-0.8-1.1-1.9-1.6-3.3-1.6c-1.5,0-2.8,0.5-4.1,1.6c-1.2,1.1-2.1,2.5-2.7,4.3v14.9h-5.3v-25.1h4.8v5c1-1.8,2.3-3.1,3.9-4
	c1.6-1,3.5-1.4,5.6-1.4c2.1,0,3.7,0.5,4.9,1.6c1.2,1.1,2,2.4,2.3,4.1c1.1-1.9,2.4-3.3,4-4.2c1.6-1,3.4-1.5,5.5-1.5
	c1.5,0,2.7,0.3,3.7,0.8s1.8,1.3,2.3,2.3c0.5,0.9,0.9,2,1.2,3.3c0.3,1.2,0.4,2.5,0.4,3.9V413.3z M774.5,413.8c-2,0-3.8-0.3-5.3-1
	c-1.6-0.7-2.9-1.7-4.1-2.9c-1.1-1.2-2-2.6-2.6-4.1c-0.6-1.6-0.9-3.2-0.9-5c0-1.8,0.3-3.4,0.9-5c0.6-1.6,1.5-2.9,2.6-4.1
	c1.2-1.2,2.5-2.2,4.1-2.8c1.6-0.7,3.4-1.1,5.3-1.1c2,0,3.7,0.4,5.3,1.1c1.6,0.7,3,1.6,4.1,2.8c1.2,1.2,2,2.6,2.6,4.1
	c0.6,1.6,0.9,3.2,0.9,5c0,1.8-0.3,3.4-0.9,5c-0.6,1.5-1.5,2.9-2.6,4.1c-1.1,1.2-2.5,2.2-4.1,2.9
	C778.3,413.4,776.5,413.8,774.5,413.8z M767.1,400.8c0,1.6,0.3,3,1,4.3s1.6,2.3,2.7,3s2.4,1.1,3.8,1.1c1.4,0,2.6-0.4,3.7-1.1
	c1.2-0.8,2.1-1.8,2.7-3.1c0.7-1.3,1-2.8,1-4.3c0-1.6-0.3-3-1-4.3s-1.6-2.3-2.7-3c-1.1-0.8-2.4-1.2-3.7-1.2c-1.4,0-2.7,0.4-3.8,1.2
	c-1.1,0.8-2,1.8-2.7,3.1C767.4,397.7,767.1,399.2,767.1,400.8z M790.6,400.8c0-2.4,0.5-4.6,1.4-6.5c1-2,2.3-3.6,4-4.7
	c1.7-1.2,3.6-1.8,5.9-1.8c1.9,0,3.6,0.5,5.2,1.5c1.6,1,2.8,2.2,3.6,3.7v-14.7h5.3v29.1c0,0.6,0.1,1,0.3,1.3c0.2,0.3,0.6,0.4,1.1,0.4
	v4.2c-1,0.2-1.8,0.2-2.3,0.2c-1,0-1.8-0.3-2.5-0.9c-0.7-0.6-1-1.3-1.1-2.1l0-1.9c-1,1.6-2.3,2.8-3.9,3.7c-1.6,0.9-3.3,1.3-5.1,1.3
	c-1.7,0-3.3-0.3-4.8-1c-1.4-0.7-2.7-1.6-3.8-2.8c-1.1-1.2-1.9-2.6-2.5-4.2C790.8,404.2,790.6,402.5,790.6,400.8z M810.7,404.3v-6.6
	c-0.4-1-0.9-1.9-1.7-2.7c-0.8-0.8-1.6-1.5-2.6-2c-1-0.5-1.9-0.7-2.9-0.7c-1.1,0-2.1,0.2-3.1,0.7c-0.9,0.5-1.7,1.1-2.4,1.9
	c-0.6,0.8-1.1,1.7-1.5,2.7c-0.4,1-0.5,2.1-0.5,3.2c0,1.2,0.2,2.2,0.6,3.3c0.4,1,0.9,1.9,1.6,2.7c0.7,0.8,1.6,1.4,2.5,1.8
	c1,0.4,2,0.6,3.1,0.6c0.7,0,1.4-0.1,2.1-0.4c0.7-0.3,1.4-0.6,2.1-1.1c0.7-0.4,1.2-1,1.7-1.6C810.2,405.6,810.5,405,810.7,404.3z
	 M848.5,412c-0.4,0.2-1,0.5-1.7,0.7c-0.7,0.3-1.4,0.5-2.3,0.7c-0.8,0.2-1.7,0.3-2.6,0.3c-1.1,0-2.1-0.2-3-0.6s-1.7-1-2.3-1.8
	c-0.5-0.9-0.8-2-0.8-3.3v-15.7h-3.3v-4.1h3.3v-8.3h5.3v8.3h5.5v4.1h-5.5v14c0.1,0.9,0.3,1.5,0.8,1.9c0.5,0.4,1.1,0.6,1.9,0.6
	c0.7,0,1.4-0.1,2.1-0.4s1.2-0.5,1.5-0.6L848.5,412z M863.2,413.8c-2,0-3.7-0.3-5.3-1c-1.6-0.7-2.9-1.6-4.1-2.8
	c-1.2-1.2-2-2.6-2.7-4.1c-0.6-1.6-0.9-3.2-0.9-5c0-2.4,0.5-4.5,1.6-6.5c1.1-2,2.6-3.6,4.6-4.8c2-1.2,4.2-1.8,6.9-1.8
	s4.9,0.6,6.8,1.8c1.9,1.2,3.4,2.8,4.5,4.7c1.1,2,1.6,4,1.6,6.3c0,0.4,0,0.8,0,1.1c0,0.3-0.1,0.6-0.1,0.8h-20.1
	c0.1,1.5,0.5,2.8,1.2,3.9c0.7,1.1,1.7,2,2.8,2.6c1.1,0.6,2.3,0.9,3.6,0.9c1.4,0,2.7-0.4,4-1.1c1.3-0.7,2.1-1.6,2.6-2.8l4.5,1.3
	c-0.5,1.2-1.4,2.3-2.5,3.3c-1.1,1-2.4,1.7-3.9,2.3C866.6,413.5,865,413.8,863.2,413.8z M855.7,399h15.2c-0.1-1.4-0.5-2.7-1.2-3.8
	c-0.7-1.1-1.6-2-2.7-2.6c-1.1-0.6-2.3-1-3.6-1c-1.3,0-2.5,0.3-3.6,1c-1.1,0.6-2,1.5-2.7,2.6C856.2,396.3,855.8,397.5,855.7,399z
	 M918.8,413.3h-5.3v-14.1c0-2.3-0.4-4-1.2-5.1c-0.8-1.1-1.9-1.6-3.4-1.6c-1.5,0-2.8,0.6-4.1,1.7c-1.2,1.1-2.1,2.5-2.6,4.3v14.9H897
	v-14.1c0-2.3-0.4-4-1.2-5.1c-0.8-1.1-1.9-1.6-3.3-1.6c-1.5,0-2.8,0.5-4.1,1.6c-1.2,1.1-2.1,2.5-2.7,4.3v14.9h-5.3v-25.1h4.8v5
	c1-1.8,2.3-3.1,3.9-4c1.6-1,3.5-1.4,5.6-1.4c2.1,0,3.7,0.5,4.9,1.6c1.2,1.1,2,2.4,2.3,4.1c1.1-1.9,2.4-3.3,4-4.2
	c1.6-1,3.4-1.5,5.5-1.5c1.5,0,2.7,0.3,3.7,0.8s1.8,1.3,2.3,2.3c0.5,0.9,0.9,2,1.2,3.3c0.3,1.2,0.4,2.5,0.4,3.9V413.3z M939.1,413.8
	c-2,0-3.8-0.5-5.3-1.4c-1.5-1-2.8-2.2-3.6-3.7v14.9h-5.3v-35.3h4.7v4.5c1-1.5,2.2-2.7,3.7-3.6s3.2-1.3,5.1-1.3
	c1.7,0,3.3,0.4,4.8,1.1c1.4,0.7,2.7,1.6,3.7,2.8c1.1,1.2,1.9,2.6,2.4,4.2c0.6,1.5,0.9,3.2,0.9,4.9c0,2.4-0.5,4.6-1.4,6.6
	c-0.9,2-2.2,3.6-3.9,4.8C943.2,413.2,941.3,413.8,939.1,413.8z M937.4,409.3c1.1,0,2.1-0.2,3-0.7c0.9-0.5,1.7-1.1,2.4-1.9
	c0.7-0.8,1.2-1.7,1.5-2.7c0.4-1,0.5-2.1,0.5-3.2c0-1.2-0.2-2.2-0.6-3.3c-0.4-1-0.9-1.9-1.7-2.7c-0.7-0.8-1.5-1.4-2.5-1.8
	c-0.9-0.4-2-0.7-3.1-0.7c-0.7,0-1.4,0.1-2.1,0.4c-0.7,0.3-1.4,0.6-2.1,1.1c-0.6,0.4-1.2,1-1.7,1.6c-0.5,0.6-0.8,1.2-1,1.9v6.6
	c0.4,1,1,2,1.8,2.8c0.7,0.8,1.6,1.5,2.5,2C935.5,409,936.4,409.3,937.4,409.3z M966.3,413.8c-2,0-3.8-0.3-5.3-1
	c-1.6-0.7-2.9-1.7-4.1-2.9c-1.1-1.2-2-2.6-2.6-4.1c-0.6-1.6-0.9-3.2-0.9-5c0-1.8,0.3-3.4,0.9-5c0.6-1.6,1.5-2.9,2.6-4.1
	c1.2-1.2,2.5-2.2,4.1-2.8c1.6-0.7,3.4-1.1,5.3-1.1c2,0,3.7,0.4,5.3,1.1c1.6,0.7,3,1.6,4.1,2.8c1.2,1.2,2,2.6,2.6,4.1
	c0.6,1.6,0.9,3.2,0.9,5c0,1.8-0.3,3.4-0.9,5c-0.6,1.5-1.5,2.9-2.6,4.1c-1.1,1.2-2.5,2.2-4.1,2.9C970,413.4,968.3,413.8,966.3,413.8z
	 M958.8,400.8c0,1.6,0.3,3,1,4.3s1.6,2.3,2.7,3s2.4,1.1,3.8,1.1c1.4,0,2.6-0.4,3.7-1.1c1.2-0.8,2.1-1.8,2.7-3.1c0.7-1.3,1-2.8,1-4.3
	c0-1.6-0.3-3-1-4.3s-1.6-2.3-2.7-3c-1.1-0.8-2.4-1.2-3.7-1.2c-1.4,0-2.7,0.4-3.8,1.2c-1.1,0.8-2,1.8-2.7,3.1
	C959.2,397.7,958.8,399.2,958.8,400.8z M998,392.7c-2,0-3.9,0.5-5.5,1.4c-1.6,0.9-2.7,2.2-3.4,3.8v15.4h-5.3v-25.1h4.9v5.6
	c0.9-1.7,2-3.1,3.4-4.1c1.4-1.1,2.9-1.6,4.5-1.7c0.3,0,0.6,0,0.8,0c0.2,0,0.4,0,0.6,0V392.7z M625.8,463.3v-25.1h5.3v25.1H625.8z
	 M625.8,434.1v-5.8h5.3v5.8H625.8z M659.9,463.3h-5.3v-14.1c0-2.3-0.4-4-1.2-5.1c-0.7-1.1-1.8-1.6-3.3-1.6c-1,0-2,0.3-3.1,0.8
	c-1,0.5-1.9,1.2-2.7,2.1c-0.8,0.9-1.4,1.9-1.7,3v14.9h-5.3v-25.1h4.8v5c0.6-1.1,1.5-2.1,2.5-2.9c1.1-0.8,2.2-1.5,3.6-1.9
	c1.3-0.4,2.7-0.7,4.2-0.7c1.5,0,2.7,0.3,3.7,0.8c1,0.5,1.8,1.3,2.3,2.3c0.6,0.9,1,2,1.2,3.3c0.2,1.2,0.3,2.5,0.3,3.9V463.3z
	 M677.4,463.8c-2,0-3.7-0.3-5.3-1c-1.6-0.7-2.9-1.7-4.1-2.9c-1.2-1.2-2-2.6-2.7-4.2c-0.6-1.6-0.9-3.2-0.9-5c0-2.4,0.5-4.5,1.6-6.5
	c1.1-2,2.6-3.5,4.5-4.7c2-1.2,4.3-1.8,6.9-1.8c2.6,0,4.8,0.6,6.7,1.7c1.9,1.1,3.3,2.6,4.2,4.5l-5.1,1.6c-0.6-1.1-1.4-1.9-2.4-2.4
	c-1-0.6-2.2-0.9-3.4-0.9c-1.4,0-2.7,0.4-3.8,1.1c-1.1,0.7-2,1.7-2.7,3c-0.6,1.2-1,2.7-1,4.4c0,1.6,0.3,3.1,1,4.4
	c0.7,1.3,1.6,2.3,2.7,3.1c1.2,0.7,2.4,1.1,3.8,1.1c0.9,0,1.7-0.1,2.5-0.4c0.8-0.3,1.6-0.7,2.2-1.2c0.6-0.5,1-1.1,1.3-1.8l5.2,1.5
	c-0.5,1.2-1.4,2.4-2.4,3.3c-1.1,1-2.3,1.7-3.8,2.3C680.8,463.5,679.2,463.8,677.4,463.8z M692.9,463.3v-25.1h5.3v25.1H692.9z
	 M692.9,434.1v-5.8h5.3v5.8H692.9z M702.9,450.8c0-2.4,0.5-4.6,1.4-6.5c1-2,2.3-3.6,4-4.7c1.7-1.2,3.6-1.8,5.9-1.8
	c1.9,0,3.6,0.5,5.2,1.5c1.6,1,2.8,2.2,3.6,3.7v-14.7h5.3v29.1c0,0.6,0.1,1,0.3,1.3c0.2,0.3,0.6,0.4,1.1,0.4v4.2
	c-1,0.2-1.8,0.2-2.3,0.2c-1,0-1.8-0.3-2.5-0.9c-0.7-0.6-1-1.3-1.1-2.1l0-1.9c-1,1.6-2.3,2.8-3.9,3.7c-1.6,0.9-3.3,1.3-5.1,1.3
	c-1.7,0-3.3-0.3-4.8-1c-1.4-0.7-2.7-1.6-3.8-2.8c-1.1-1.2-1.9-2.6-2.5-4.2C703.2,454.2,702.9,452.5,702.9,450.8z M723.1,454.3v-6.6
	c-0.4-1-0.9-1.9-1.7-2.7c-0.8-0.8-1.6-1.5-2.6-2c-1-0.5-1.9-0.7-2.9-0.7c-1.1,0-2.1,0.2-3.1,0.7c-0.9,0.5-1.7,1.1-2.4,1.9
	c-0.6,0.8-1.1,1.7-1.5,2.7c-0.4,1-0.5,2.1-0.5,3.2c0,1.2,0.2,2.2,0.6,3.3c0.4,1,0.9,1.9,1.6,2.7c0.7,0.8,1.6,1.4,2.5,1.8
	c1,0.4,2,0.6,3.1,0.6c0.7,0,1.4-0.1,2.1-0.4c0.7-0.3,1.4-0.6,2.1-1.1c0.7-0.4,1.2-1,1.7-1.6C722.5,455.6,722.9,455,723.1,454.3z
	 M735,463.3v-25.1h5.3v25.1H735z M735,434.1v-5.8h5.3v5.8H735z M745.1,450.8c0-2.4,0.5-4.6,1.4-6.5c1-2,2.3-3.6,4-4.7
	c1.7-1.2,3.6-1.8,5.9-1.8c1.9,0,3.6,0.5,5.2,1.5c1.6,1,2.8,2.2,3.6,3.7v-14.7h5.3v29.1c0,0.6,0.1,1,0.3,1.3c0.2,0.3,0.6,0.4,1.1,0.4
	v4.2c-1,0.2-1.8,0.2-2.3,0.2c-1,0-1.8-0.3-2.5-0.9c-0.7-0.6-1-1.3-1.1-2.1l0-1.9c-1,1.6-2.3,2.8-3.9,3.7c-1.6,0.9-3.3,1.3-5.1,1.3
	c-1.7,0-3.3-0.3-4.8-1c-1.4-0.7-2.7-1.6-3.8-2.8c-1.1-1.2-1.9-2.6-2.5-4.2C745.4,454.2,745.1,452.5,745.1,450.8z M765.3,454.3v-6.6
	c-0.4-1-0.9-1.9-1.7-2.7c-0.8-0.8-1.6-1.5-2.6-2c-1-0.5-1.9-0.7-2.9-0.7c-1.1,0-2.1,0.2-3.1,0.7c-0.9,0.5-1.7,1.1-2.4,1.9
	c-0.6,0.8-1.1,1.7-1.5,2.7c-0.4,1-0.5,2.1-0.5,3.2c0,1.2,0.2,2.2,0.6,3.3c0.4,1,0.9,1.9,1.6,2.7c0.7,0.8,1.6,1.4,2.5,1.8
	c1,0.4,2,0.6,3.1,0.6c0.7,0,1.4-0.1,2.1-0.4c0.7-0.3,1.4-0.6,2.1-1.1c0.7-0.4,1.2-1,1.7-1.6C764.7,455.6,765.1,455,765.3,454.3z
	 M777,453.5v-15.4h5.3v14.3c0,2.2,0.4,3.9,1.2,5.1c0.8,1.1,2,1.7,3.6,1.7c1,0,2-0.2,2.9-0.6c1-0.4,1.8-1,2.6-1.8
	c0.8-0.8,1.4-1.8,1.9-3v-15.6h5.3v19.2c0,0.6,0.1,1,0.3,1.3c0.2,0.3,0.6,0.4,1.1,0.4v4.2c-0.5,0.1-1,0.2-1.3,0.2c-0.4,0-0.7,0-1,0
	c-1,0-1.8-0.3-2.4-0.8c-0.6-0.5-1-1.2-1.1-2.1l-0.1-2.5c-1.1,1.8-2.6,3.2-4.4,4.2c-1.8,0.9-3.8,1.4-5.9,1.4c-2.6,0-4.6-0.9-6-2.6
	S777,456.9,777,453.5z M829,463.3h-5.3v-14.1c0-2.3-0.4-4-1.2-5.1c-0.7-1.1-1.8-1.6-3.3-1.6c-1,0-2,0.3-3.1,0.8
	c-1,0.5-1.9,1.2-2.7,2.1c-0.8,0.9-1.4,1.9-1.7,3v14.9h-5.3v-25.1h4.8v5c0.6-1.1,1.5-2.1,2.5-2.9c1.1-0.8,2.2-1.5,3.6-1.9
	c1.3-0.4,2.7-0.7,4.2-0.7c1.5,0,2.7,0.3,3.7,0.8c1,0.5,1.8,1.3,2.3,2.3c0.6,0.9,1,2,1.2,3.3c0.2,1.2,0.3,2.5,0.3,3.9V463.3z
	 M848.9,462c-0.4,0.2-1,0.5-1.7,0.7c-0.7,0.3-1.4,0.5-2.3,0.7c-0.8,0.2-1.7,0.3-2.6,0.3c-1.1,0-2.1-0.2-3-0.6s-1.7-1-2.3-1.8
	c-0.5-0.9-0.8-2-0.8-3.3v-15.7h-3.3v-4.1h3.3v-8.3h5.3v8.3h5.5v4.1h-5.5v14c0.1,0.9,0.3,1.5,0.8,1.9c0.5,0.4,1.1,0.6,1.9,0.6
	c0.7,0,1.4-0.1,2.1-0.4s1.2-0.5,1.5-0.6L848.9,462z M864.2,453.5v-15.4h5.3v14.3c0,2.2,0.4,3.9,1.2,5.1c0.8,1.1,2,1.7,3.6,1.7
	c1,0,2-0.2,2.9-0.6c1-0.4,1.8-1,2.6-1.8c0.8-0.8,1.4-1.8,1.9-3v-15.6h5.3v19.2c0,0.6,0.1,1,0.3,1.3c0.2,0.3,0.6,0.4,1.1,0.4v4.2
	c-0.5,0.1-1,0.2-1.3,0.2c-0.4,0-0.7,0-1,0c-1,0-1.8-0.3-2.4-0.8c-0.6-0.5-1-1.2-1.1-2.1l-0.1-2.5c-1.1,1.8-2.6,3.2-4.4,4.2
	c-1.8,0.9-3.8,1.4-5.9,1.4c-2.6,0-4.6-0.9-6-2.6S864.2,456.9,864.2,453.5z M907.6,462c-0.4,0.2-1,0.5-1.7,0.7
	c-0.7,0.3-1.4,0.5-2.3,0.7c-0.8,0.2-1.7,0.3-2.6,0.3c-1.1,0-2.1-0.2-3-0.6c-0.9-0.4-1.7-1-2.3-1.8c-0.5-0.9-0.8-2-0.8-3.3v-15.7
	h-3.3v-4.1h3.3v-8.3h5.3v8.3h5.5v4.1h-5.5v14c0.1,0.9,0.3,1.5,0.8,1.9c0.5,0.4,1.1,0.6,1.9,0.6c0.7,0,1.4-0.1,2.1-0.4
	s1.2-0.5,1.5-0.6L907.6,462z M923.2,428.2h5.3V456c0,1.3,0.2,2.1,0.6,2.4s0.9,0.5,1.4,0.5c0.6,0,1.2-0.1,1.8-0.2
	c0.6-0.1,1.1-0.3,1.5-0.5l0.8,4.2c-0.8,0.3-1.7,0.6-2.7,0.8c-1.1,0.2-2,0.3-2.8,0.3c-1.8,0-3.2-0.5-4.2-1.5c-1-1-1.5-2.4-1.5-4.2
	V428.2z M935.7,455.9c0-1.6,0.4-3,1.3-4.2c0.9-1.2,2.2-2.1,3.8-2.8c1.6-0.7,3.5-1,5.6-1c1.1,0,2.3,0.1,3.4,0.2
	c1.2,0.2,2.2,0.4,3.1,0.8v-1.6c0-1.8-0.5-3.1-1.6-4.1c-1.1-1-2.6-1.5-4.6-1.5c-1.4,0-2.7,0.3-4,0.8c-1.2,0.5-2.6,1.2-4,2.1l-1.8-3.6
	c1.7-1.1,3.3-2,5-2.5c1.7-0.5,3.5-0.8,5.3-0.8c3.4,0,6,0.9,7.9,2.7c2,1.8,2.9,4.3,2.9,7.5v9.4c0,0.6,0.1,1,0.3,1.3
	c0.2,0.3,0.6,0.4,1.1,0.4v4.2c-0.5,0.1-0.9,0.2-1.3,0.2c-0.4,0-0.7,0-1,0c-1.1,0-2-0.3-2.5-0.8c-0.6-0.5-0.9-1.2-1-1.9l-0.1-1.4
	c-1.1,1.4-2.5,2.5-4.2,3.3c-1.7,0.8-3.4,1.2-5.1,1.2c-1.7,0-3.2-0.3-4.5-1c-1.3-0.7-2.3-1.6-3.1-2.8
	C936.1,458.7,935.7,457.4,935.7,455.9z M951.7,457.5c0.4-0.4,0.7-0.8,0.9-1.2c0.2-0.4,0.3-0.8,0.3-1.1v-2.9
	c-0.9-0.4-1.8-0.6-2.8-0.8c-1-0.2-2-0.3-2.9-0.3c-1.9,0-3.5,0.4-4.7,1.2c-1.2,0.8-1.8,1.8-1.8,3.2c0,0.7,0.2,1.4,0.6,2.1
	c0.4,0.7,1,1.2,1.7,1.6c0.8,0.4,1.7,0.6,2.8,0.6c1.2,0,2.3-0.2,3.3-0.7C950.2,458.8,951.1,458.2,951.7,457.5z M978.2,463.8
	c-1.9,0-3.7-0.4-5.2-1.3c-1.5-0.9-2.8-2.2-3.6-3.7v4.6h-4.7v-35h5.3v14.7c1-1.6,2.2-2.9,3.7-3.8c1.5-0.9,3.3-1.4,5.3-1.4
	c1.7,0,3.2,0.4,4.6,1.1c1.4,0.7,2.5,1.7,3.5,2.9c1,1.2,1.7,2.6,2.3,4.2c0.5,1.6,0.8,3.2,0.8,5c0,1.8-0.3,3.4-0.9,5
	c-0.6,1.6-1.4,2.9-2.5,4.1c-1.1,1.2-2.4,2.1-3.8,2.8C981.4,463.4,979.9,463.8,978.2,463.8z M976.8,459.3c1.2,0,2.2-0.2,3.2-0.7
	c1-0.5,1.8-1.1,2.5-1.9c0.7-0.8,1.2-1.7,1.6-2.7c0.4-1,0.6-2.1,0.6-3.2c0-1.5-0.3-2.9-1-4.2c-0.6-1.3-1.5-2.4-2.6-3.2
	c-1.1-0.8-2.4-1.2-3.9-1.2c-1.1,0-2,0.3-3,0.8c-0.9,0.5-1.8,1.1-2.5,2c-0.7,0.8-1.3,1.7-1.8,2.7v6.6c0.2,0.7,0.5,1.4,1,2
	c0.5,0.6,1,1.1,1.7,1.5c0.6,0.4,1.3,0.8,2.1,1C975.4,459.1,976.1,459.3,976.8,459.3z M1006.1,463.8c-2,0-3.8-0.3-5.3-1
	c-1.6-0.7-2.9-1.7-4.1-2.9c-1.1-1.2-2-2.6-2.6-4.1c-0.6-1.6-0.9-3.2-0.9-5c0-1.8,0.3-3.4,0.9-5c0.6-1.6,1.5-2.9,2.6-4.1
	c1.2-1.2,2.5-2.2,4.1-2.8c1.6-0.7,3.4-1.1,5.3-1.1c2,0,3.7,0.4,5.3,1.1c1.6,0.7,3,1.6,4.1,2.8c1.2,1.2,2,2.6,2.6,4.1
	c0.6,1.6,0.9,3.2,0.9,5c0,1.8-0.3,3.4-0.9,5c-0.6,1.5-1.5,2.9-2.6,4.1c-1.1,1.2-2.5,2.2-4.1,2.9
	C1009.8,463.4,1008,463.8,1006.1,463.8z M998.6,450.8c0,1.6,0.3,3,1,4.3s1.6,2.3,2.7,3s2.4,1.1,3.8,1.1c1.4,0,2.6-0.4,3.7-1.1
	c1.2-0.8,2.1-1.8,2.7-3.1c0.7-1.3,1-2.8,1-4.3c0-1.6-0.3-3-1-4.3s-1.6-2.3-2.7-3c-1.1-0.8-2.4-1.2-3.7-1.2c-1.4,0-2.7,0.4-3.8,1.2
	c-1.1,0.8-2,1.8-2.7,3.1C998.9,447.7,998.6,449.2,998.6,450.8z M1037.8,442.7c-2,0-3.9,0.5-5.5,1.4c-1.6,0.9-2.7,2.2-3.4,3.8v15.4
	h-5.3v-25.1h4.9v5.6c0.9-1.7,2-3.1,3.4-4.1c1.4-1.1,2.9-1.6,4.5-1.7c0.3,0,0.6,0,0.8,0c0.2,0,0.4,0,0.6,0V442.7z M1052.5,463.8
	c-2,0-3.7-0.3-5.3-1c-1.6-0.7-2.9-1.6-4.1-2.8c-1.2-1.2-2-2.6-2.7-4.1c-0.6-1.6-0.9-3.2-0.9-5c0-2.4,0.5-4.5,1.6-6.5
	c1.1-2,2.6-3.6,4.6-4.8c2-1.2,4.2-1.8,6.9-1.8s4.9,0.6,6.8,1.8c1.9,1.2,3.4,2.8,4.5,4.7c1.1,2,1.6,4,1.6,6.3c0,0.4,0,0.8,0,1.1
	c0,0.3-0.1,0.6-0.1,0.8h-20.1c0.1,1.5,0.5,2.8,1.2,3.9c0.7,1.1,1.7,2,2.8,2.6c1.1,0.6,2.3,0.9,3.6,0.9c1.4,0,2.7-0.4,4-1.1
	c1.3-0.7,2.1-1.6,2.6-2.8l4.5,1.3c-0.5,1.2-1.4,2.3-2.5,3.3c-1.1,1-2.4,1.7-3.9,2.3C1055.9,463.5,1054.3,463.8,1052.5,463.8z
	 M1045,449h15.2c-0.1-1.4-0.5-2.7-1.2-3.8c-0.7-1.1-1.6-2-2.7-2.6c-1.1-0.6-2.3-1-3.6-1c-1.3,0-2.5,0.3-3.6,1
	c-1.1,0.6-2,1.5-2.7,2.6C1045.5,446.3,1045.1,447.5,1045,449z M1092.9,463.8c-2,0-3.7-0.3-5.3-1c-1.6-0.7-2.9-1.6-4.1-2.8
	c-1.2-1.2-2-2.6-2.7-4.1c-0.6-1.6-0.9-3.2-0.9-5c0-2.4,0.5-4.5,1.6-6.5c1.1-2,2.6-3.6,4.6-4.8c2-1.2,4.2-1.8,6.9-1.8
	s4.9,0.6,6.8,1.8c1.9,1.2,3.4,2.8,4.5,4.7c1.1,2,1.6,4,1.6,6.3c0,0.4,0,0.8,0,1.1c0,0.3-0.1,0.6-0.1,0.8h-20.1
	c0.1,1.5,0.5,2.8,1.2,3.9c0.7,1.1,1.7,2,2.8,2.6c1.1,0.6,2.3,0.9,3.6,0.9c1.4,0,2.7-0.4,4-1.1c1.3-0.7,2.1-1.6,2.6-2.8l4.5,1.3
	c-0.5,1.2-1.4,2.3-2.5,3.3c-1.1,1-2.4,1.7-3.9,2.3C1096.3,463.5,1094.7,463.8,1092.9,463.8z M1085.4,449h15.2
	c-0.1-1.4-0.5-2.7-1.2-3.8c-0.7-1.1-1.6-2-2.7-2.6c-1.1-0.6-2.3-1-3.6-1c-1.3,0-2.5,0.3-3.6,1c-1.1,0.6-2,1.5-2.7,2.6
	C1085.9,446.3,1085.5,447.5,1085.4,449z M1123.8,462c-0.4,0.2-1,0.5-1.7,0.7c-0.7,0.3-1.4,0.5-2.3,0.7c-0.8,0.2-1.7,0.3-2.6,0.3
	c-1.1,0-2.1-0.2-3-0.6s-1.7-1-2.3-1.8c-0.5-0.9-0.8-2-0.8-3.3v-15.7h-3.3v-4.1h3.3v-8.3h5.3v8.3h5.5v4.1h-5.5v14
	c0.1,0.9,0.3,1.5,0.8,1.9c0.5,0.4,1.1,0.6,1.9,0.6c0.7,0,1.4-0.1,2.1-0.4s1.2-0.5,1.5-0.6L1123.8,462z M624.2,500.8
	c0-2.4,0.5-4.6,1.4-6.5c1-2,2.3-3.6,4-4.7c1.7-1.2,3.6-1.8,5.9-1.8c1.9,0,3.6,0.5,5.2,1.5c1.6,1,2.8,2.2,3.6,3.7v-14.7h5.3v29.1
	c0,0.6,0.1,1,0.3,1.3c0.2,0.3,0.6,0.4,1.1,0.4v4.2c-1,0.2-1.8,0.2-2.3,0.2c-1,0-1.8-0.3-2.5-0.9c-0.7-0.6-1-1.3-1.1-2.1l0-1.9
	c-1,1.6-2.3,2.8-3.9,3.7c-1.6,0.9-3.3,1.3-5.1,1.3c-1.7,0-3.3-0.3-4.8-1c-1.4-0.7-2.7-1.6-3.8-2.8c-1.1-1.2-1.9-2.6-2.5-4.2
	C624.5,504.2,624.2,502.5,624.2,500.8z M644.4,504.3v-6.6c-0.4-1-0.9-1.9-1.7-2.7c-0.8-0.8-1.6-1.5-2.6-2c-1-0.5-1.9-0.7-2.9-0.7
	c-1.1,0-2.1,0.2-3.1,0.7c-0.9,0.5-1.7,1.1-2.4,1.9c-0.6,0.8-1.1,1.7-1.5,2.7c-0.4,1-0.5,2.1-0.5,3.2c0,1.2,0.2,2.2,0.6,3.3
	c0.4,1,0.9,1.9,1.6,2.7c0.7,0.8,1.6,1.4,2.5,1.8c1,0.4,2,0.6,3.1,0.6c0.7,0,1.4-0.1,2.1-0.4c0.7-0.3,1.4-0.6,2.1-1.1
	c0.7-0.4,1.2-1,1.7-1.6C643.8,505.6,644.2,505,644.4,504.3z M667.6,513.8c-2,0-3.8-0.3-5.3-1c-1.6-0.7-2.9-1.7-4.1-2.9
	c-1.1-1.2-2-2.6-2.6-4.1c-0.6-1.6-0.9-3.2-0.9-5c0-1.8,0.3-3.4,0.9-5c0.6-1.6,1.5-2.9,2.6-4.1c1.2-1.2,2.5-2.2,4.1-2.8
	c1.6-0.7,3.4-1.1,5.3-1.1c2,0,3.7,0.4,5.3,1.1c1.6,0.7,3,1.6,4.1,2.8c1.2,1.2,2,2.6,2.6,4.1c0.6,1.6,0.9,3.2,0.9,5
	c0,1.8-0.3,3.4-0.9,5c-0.6,1.5-1.5,2.9-2.6,4.1c-1.1,1.2-2.5,2.2-4.1,2.9C671.3,513.4,669.6,513.8,667.6,513.8z M660.1,500.8
	c0,1.6,0.3,3,1,4.3s1.6,2.3,2.7,3c1.1,0.7,2.4,1.1,3.8,1.1c1.4,0,2.6-0.4,3.7-1.1c1.2-0.8,2.1-1.8,2.7-3.1c0.7-1.3,1-2.8,1-4.3
	c0-1.6-0.3-3-1-4.3s-1.6-2.3-2.7-3c-1.1-0.8-2.4-1.2-3.7-1.2c-1.4,0-2.7,0.4-3.8,1.2s-2,1.8-2.7,3.1
	C660.5,497.7,660.1,499.2,660.1,500.8z M685.3,478.2h5.3V506c0,1.3,0.2,2.1,0.6,2.4c0.4,0.4,0.9,0.5,1.4,0.5c0.6,0,1.2-0.1,1.8-0.2
	c0.6-0.1,1.1-0.3,1.5-0.5l0.8,4.2c-0.8,0.3-1.7,0.6-2.7,0.8c-1.1,0.2-2,0.3-2.8,0.3c-1.8,0-3.2-0.5-4.2-1.5c-1-1-1.5-2.4-1.5-4.2
	V478.2z M710.9,513.8c-2,0-3.8-0.3-5.3-1c-1.6-0.7-2.9-1.7-4.1-2.9c-1.1-1.2-2-2.6-2.6-4.1c-0.6-1.6-0.9-3.2-0.9-5
	c0-1.8,0.3-3.4,0.9-5c0.6-1.6,1.5-2.9,2.6-4.1c1.2-1.2,2.5-2.2,4.1-2.8c1.6-0.7,3.4-1.1,5.3-1.1c2,0,3.7,0.4,5.3,1.1
	c1.6,0.7,3,1.6,4.1,2.8c1.2,1.2,2,2.6,2.6,4.1c0.6,1.6,0.9,3.2,0.9,5c0,1.8-0.3,3.4-0.9,5c-0.6,1.5-1.5,2.9-2.6,4.1
	c-1.1,1.2-2.5,2.2-4.1,2.9C714.7,513.4,712.9,513.8,710.9,513.8z M703.5,500.8c0,1.6,0.3,3,1,4.3s1.6,2.3,2.7,3
	c1.1,0.7,2.4,1.1,3.8,1.1c1.4,0,2.6-0.4,3.7-1.1c1.2-0.8,2.1-1.8,2.7-3.1c0.7-1.3,1-2.8,1-4.3c0-1.6-0.3-3-1-4.3s-1.6-2.3-2.7-3
	c-1.1-0.8-2.4-1.2-3.7-1.2c-1.4,0-2.7,0.4-3.8,1.2s-2,1.8-2.7,3.1C703.8,497.7,703.5,499.2,703.5,500.8z M742.6,492.7
	c-2,0-3.9,0.5-5.5,1.4c-1.6,0.9-2.7,2.2-3.4,3.8v15.4h-5.3v-25.1h4.9v5.6c0.9-1.7,2-3.1,3.4-4.1c1.4-1.1,2.9-1.6,4.5-1.7
	c0.3,0,0.6,0,0.8,0c0.2,0,0.4,0,0.6,0V492.7z M757.4,513.8c-2,0-3.7-0.3-5.3-1c-1.6-0.7-2.9-1.6-4.1-2.8c-1.2-1.2-2-2.6-2.7-4.1
	c-0.6-1.6-0.9-3.2-0.9-5c0-2.4,0.5-4.5,1.6-6.5c1.1-2,2.6-3.6,4.6-4.8c2-1.2,4.2-1.8,6.9-1.8c2.6,0,4.9,0.6,6.8,1.8
	c1.9,1.2,3.4,2.8,4.5,4.7c1.1,2,1.6,4,1.6,6.3c0,0.4,0,0.8,0,1.1c0,0.3-0.1,0.6-0.1,0.8H750c0.1,1.5,0.5,2.8,1.2,3.9
	c0.7,1.1,1.7,2,2.8,2.6c1.1,0.6,2.3,0.9,3.6,0.9c1.4,0,2.7-0.4,4-1.1c1.3-0.7,2.1-1.6,2.6-2.8l4.5,1.3c-0.5,1.2-1.4,2.3-2.5,3.3
	c-1.1,1-2.4,1.7-3.9,2.3C760.8,513.5,759.2,513.8,757.4,513.8z M749.9,499H765c-0.1-1.4-0.5-2.7-1.2-3.8c-0.7-1.1-1.6-2-2.7-2.6
	c-1.1-0.6-2.3-1-3.6-1c-1.3,0-2.5,0.3-3.6,1c-1.1,0.6-2,1.5-2.7,2.6C750.4,496.3,750,497.5,749.9,499z M824.8,513.3h-5.3v-14.1
	c0-2.3-0.4-4-1.2-5.1c-0.8-1.1-1.9-1.6-3.4-1.6s-2.8,0.6-4.1,1.7c-1.2,1.1-2.1,2.5-2.6,4.3v14.9H803v-14.1c0-2.3-0.4-4-1.2-5.1
	c-0.8-1.1-1.9-1.6-3.3-1.6c-1.5,0-2.8,0.5-4.1,1.6c-1.2,1.1-2.1,2.5-2.7,4.3v14.9h-5.3v-25.1h4.8v5c1-1.8,2.3-3.1,3.9-4
	c1.6-1,3.5-1.4,5.6-1.4c2.1,0,3.7,0.5,4.9,1.6c1.2,1.1,2,2.4,2.3,4.1c1.1-1.9,2.4-3.3,4-4.2c1.6-1,3.4-1.5,5.5-1.5
	c1.5,0,2.7,0.3,3.7,0.8s1.8,1.3,2.3,2.3c0.5,0.9,0.9,2,1.2,3.3c0.3,1.2,0.4,2.5,0.4,3.9V513.3z M829.1,505.9c0-1.6,0.4-3,1.3-4.2
	c0.9-1.2,2.2-2.1,3.8-2.8c1.6-0.7,3.5-1,5.6-1c1.1,0,2.3,0.1,3.4,0.2c1.2,0.2,2.2,0.4,3.1,0.8v-1.6c0-1.8-0.5-3.1-1.6-4.1
	c-1.1-1-2.6-1.5-4.6-1.5c-1.4,0-2.7,0.3-4,0.8c-1.2,0.5-2.6,1.2-4,2.1l-1.8-3.6c1.7-1.1,3.3-2,5-2.5c1.7-0.5,3.5-0.8,5.3-0.8
	c3.4,0,6,0.9,7.9,2.7c2,1.8,2.9,4.3,2.9,7.5v9.4c0,0.6,0.1,1,0.3,1.3c0.2,0.3,0.6,0.4,1.1,0.4v4.2c-0.5,0.1-0.9,0.2-1.3,0.2
	c-0.4,0-0.7,0-1,0c-1.1,0-2-0.3-2.5-0.8c-0.6-0.5-0.9-1.2-1-1.9l-0.1-1.4c-1.1,1.4-2.5,2.5-4.2,3.3c-1.7,0.8-3.4,1.2-5.1,1.2
	c-1.7,0-3.2-0.3-4.5-1c-1.3-0.7-2.3-1.6-3.1-2.8C829.5,508.7,829.1,507.4,829.1,505.9z M845.1,507.5c0.4-0.4,0.7-0.8,0.9-1.2
	s0.3-0.8,0.3-1.1v-2.9c-0.9-0.4-1.8-0.6-2.8-0.8c-1-0.2-2-0.3-2.9-0.3c-1.9,0-3.5,0.4-4.7,1.2c-1.2,0.8-1.8,1.8-1.8,3.2
	c0,0.7,0.2,1.4,0.6,2.1c0.4,0.7,1,1.2,1.7,1.6c0.8,0.4,1.7,0.6,2.8,0.6c1.2,0,2.3-0.2,3.3-0.7C843.6,508.8,844.4,508.2,845.1,507.5z
	 M867.9,513.5c-1.7,0-3.2-0.3-4.7-1c-1.4-0.7-2.6-1.6-3.6-2.8c-1-1.2-1.8-2.5-2.4-4.1c-0.5-1.5-0.8-3.2-0.8-4.8c0-1.8,0.3-3.5,0.9-5
	s1.4-2.9,2.4-4.1c1.1-1.2,2.3-2.2,3.7-2.8c1.4-0.7,3-1,4.7-1c2,0,3.8,0.5,5.3,1.4c1.5,1,2.8,2.2,3.8,3.7v-4.8h4.7v24.4
	c0,2.4-0.6,4.5-1.8,6.2c-1.2,1.7-2.7,3-4.8,3.9s-4.3,1.3-6.8,1.3c-2.8,0-5.1-0.5-6.9-1.4c-1.8-1-3.4-2.3-4.7-3.9l3-2.8
	c1,1.3,2.2,2.4,3.7,3.1c1.5,0.7,3.2,1.1,4.9,1.1c1.4,0,2.8-0.3,4-0.8c1.2-0.5,2.2-1.3,3-2.4c0.7-1.1,1.1-2.5,1.1-4.1v-3.8
	c-0.9,1.5-2.1,2.7-3.7,3.6C871.3,513.1,869.7,513.5,867.9,513.5z M869.7,509.3c0.8,0,1.6-0.1,2.3-0.4c0.7-0.3,1.4-0.7,2-1.1
	c0.6-0.5,1.2-1,1.6-1.6c0.4-0.6,0.8-1.2,1-1.9v-6.6c-0.4-1.1-1-2-1.8-2.8c-0.8-0.8-1.6-1.5-2.6-1.9s-1.9-0.7-2.9-0.7
	c-1.2,0-2.2,0.3-3.1,0.8c-0.9,0.5-1.7,1.1-2.3,2c-0.6,0.8-1.1,1.7-1.5,2.7c-0.4,1-0.5,2.1-0.5,3.2c0,1.2,0.2,2.2,0.6,3.2
	c0.4,1,1,1.9,1.7,2.7c0.7,0.8,1.5,1.4,2.5,1.8C867.6,509,868.6,509.3,869.7,509.3z M910.7,513.3h-5.3v-14.1c0-2.3-0.4-4-1.2-5.1
	c-0.7-1.1-1.8-1.6-3.3-1.6c-1,0-2,0.3-3.1,0.8c-1,0.5-1.9,1.2-2.7,2.1c-0.8,0.9-1.4,1.9-1.7,3v14.9h-5.3v-25.1h4.8v5
	c0.6-1.1,1.5-2.1,2.5-2.9c1.1-0.8,2.2-1.5,3.6-1.9c1.3-0.4,2.7-0.7,4.2-0.7c1.5,0,2.7,0.3,3.7,0.8c1,0.5,1.8,1.3,2.3,2.3
	c0.6,0.9,1,2,1.2,3.3c0.2,1.2,0.3,2.5,0.3,3.9V513.3z M915,505.9c0-1.6,0.4-3,1.3-4.2c0.9-1.2,2.2-2.1,3.8-2.8c1.6-0.7,3.5-1,5.6-1
	c1.1,0,2.3,0.1,3.4,0.2c1.2,0.2,2.2,0.4,3.1,0.8v-1.6c0-1.8-0.5-3.1-1.6-4.1c-1.1-1-2.6-1.5-4.6-1.5c-1.4,0-2.7,0.3-4,0.8
	c-1.2,0.5-2.6,1.2-4,2.1l-1.8-3.6c1.7-1.1,3.3-2,5-2.5c1.7-0.5,3.5-0.8,5.3-0.8c3.4,0,6,0.9,7.9,2.7c2,1.8,2.9,4.3,2.9,7.5v9.4
	c0,0.6,0.1,1,0.3,1.3c0.2,0.3,0.6,0.4,1.1,0.4v4.2c-0.5,0.1-0.9,0.2-1.3,0.2c-0.4,0-0.7,0-1,0c-1.1,0-2-0.3-2.5-0.8
	c-0.6-0.5-0.9-1.2-1-1.9l-0.1-1.4c-1.1,1.4-2.5,2.5-4.2,3.3c-1.7,0.8-3.4,1.2-5.1,1.2c-1.7,0-3.2-0.3-4.5-1
	c-1.3-0.7-2.3-1.6-3.1-2.8C915.4,508.7,915,507.4,915,505.9z M931,507.5c0.4-0.4,0.7-0.8,0.9-1.2s0.3-0.8,0.3-1.1v-2.9
	c-0.9-0.4-1.8-0.6-2.8-0.8c-1-0.2-2-0.3-2.9-0.3c-1.9,0-3.5,0.4-4.7,1.2c-1.2,0.8-1.8,1.8-1.8,3.2c0,0.7,0.2,1.4,0.6,2.1
	c0.4,0.7,1,1.2,1.7,1.6c0.8,0.4,1.7,0.6,2.8,0.6c1.2,0,2.3-0.2,3.3-0.7C929.5,508.8,930.4,508.2,931,507.5z M954,505.9
	c0-1.6,0.4-3,1.3-4.2c0.9-1.2,2.2-2.1,3.8-2.8c1.6-0.7,3.5-1,5.6-1c1.1,0,2.3,0.1,3.4,0.2c1.2,0.2,2.2,0.4,3.1,0.8v-1.6
	c0-1.8-0.5-3.1-1.6-4.1c-1.1-1-2.6-1.5-4.6-1.5c-1.4,0-2.7,0.3-4,0.8c-1.2,0.5-2.6,1.2-4,2.1l-1.8-3.6c1.7-1.1,3.3-2,5-2.5
	c1.7-0.5,3.5-0.8,5.3-0.8c3.4,0,6,0.9,7.9,2.7c2,1.8,2.9,4.3,2.9,7.5v9.4c0,0.6,0.1,1,0.3,1.3c0.2,0.3,0.6,0.4,1.1,0.4v4.2
	c-0.5,0.1-0.9,0.2-1.3,0.2c-0.4,0-0.7,0-1,0c-1.1,0-2-0.3-2.5-0.8c-0.6-0.5-0.9-1.2-1-1.9l-0.1-1.4c-1.1,1.4-2.5,2.5-4.2,3.3
	c-1.7,0.8-3.4,1.2-5.1,1.2c-1.7,0-3.2-0.3-4.5-1c-1.3-0.7-2.3-1.6-3.1-2.8C954.3,508.7,954,507.4,954,505.9z M969.9,507.5
	c0.4-0.4,0.7-0.8,0.9-1.2s0.3-0.8,0.3-1.1v-2.9c-0.9-0.4-1.8-0.6-2.8-0.8c-1-0.2-2-0.3-2.9-0.3c-1.9,0-3.5,0.4-4.7,1.2
	c-1.2,0.8-1.8,1.8-1.8,3.2c0,0.7,0.2,1.4,0.6,2.1c0.4,0.7,1,1.2,1.7,1.6c0.8,0.4,1.7,0.6,2.8,0.6c1.2,0,2.3-0.2,3.3-0.7
	C968.5,508.8,969.3,508.2,969.9,507.5z M982.9,478.2h5.3V506c0,1.3,0.2,2.1,0.6,2.4c0.4,0.4,0.9,0.5,1.4,0.5c0.6,0,1.2-0.1,1.8-0.2
	c0.6-0.1,1.1-0.3,1.5-0.5l0.8,4.2c-0.8,0.3-1.7,0.6-2.7,0.8s-2,0.3-2.8,0.3c-1.8,0-3.2-0.5-4.2-1.5c-1-1-1.5-2.4-1.5-4.2V478.2z
	 M997.3,513.3v-25.1h5.3v25.1H997.3z M997.3,484.1v-5.8h5.3v5.8H997.3z M1018.5,513.8c-1.6,0-3.1-0.3-4.5-1
	c-1.3-0.7-2.5-1.6-3.5-2.8c-1-1.2-1.8-2.6-2.3-4.2c-0.5-1.6-0.8-3.3-0.8-5c0-1.8,0.3-3.5,0.9-5c0.6-1.6,1.4-2.9,2.5-4.1
	c1.1-1.2,2.4-2.1,3.8-2.8c1.4-0.7,3-1,4.7-1c1.9,0,3.6,0.5,5.2,1.4c1.6,0.9,2.8,2.1,3.7,3.6v-4.6h4.7v35.3h-5.3v-14.9
	C1025.4,512,1022.4,513.8,1018.5,513.8z M1020.4,509.3c1.1,0,2-0.2,2.9-0.6c0.9-0.4,1.7-1,2.4-1.7c0.7-0.7,1.3-1.6,1.8-2.5v-6.6
	c-0.2-0.8-0.5-1.5-1-2.1c-0.4-0.7-1-1.3-1.7-1.8c-0.7-0.5-1.4-1-2.2-1.2c-0.8-0.3-1.5-0.4-2.3-0.4c-1.1,0-2.1,0.2-3.1,0.7
	c-0.9,0.5-1.7,1.1-2.4,2c-0.7,0.8-1.2,1.7-1.6,2.7c-0.4,1-0.5,2.1-0.5,3.2c0,1.5,0.3,2.9,1,4.2c0.7,1.2,1.6,2.3,2.7,3
	C1017.6,508.9,1018.9,509.3,1020.4,509.3z M1038.8,503.5v-15.4h5.3v14.3c0,2.2,0.4,3.9,1.2,5.1c0.8,1.1,2,1.7,3.6,1.7
	c1,0,2-0.2,2.9-0.6c1-0.4,1.8-1,2.6-1.8c0.8-0.8,1.4-1.8,1.9-3v-15.6h5.3v19.2c0,0.6,0.1,1,0.3,1.3c0.2,0.3,0.6,0.4,1.1,0.4v4.2
	c-0.5,0.1-1,0.2-1.3,0.2c-0.4,0-0.7,0-1,0c-1,0-1.8-0.3-2.4-0.8c-0.6-0.5-1-1.2-1.1-2.1l-0.1-2.5c-1.1,1.8-2.6,3.2-4.4,4.2
	c-1.8,0.9-3.8,1.4-5.9,1.4c-2.6,0-4.6-0.9-6-2.6S1038.8,506.9,1038.8,503.5z M1066.5,505.9c0-1.6,0.4-3,1.3-4.2
	c0.9-1.2,2.2-2.1,3.8-2.8c1.6-0.7,3.5-1,5.6-1c1.1,0,2.3,0.1,3.4,0.2c1.2,0.2,2.2,0.4,3.1,0.8v-1.6c0-1.8-0.5-3.1-1.6-4.1
	c-1.1-1-2.6-1.5-4.6-1.5c-1.4,0-2.7,0.3-4,0.8c-1.2,0.5-2.6,1.2-4,2.1l-1.8-3.6c1.7-1.1,3.3-2,5-2.5c1.7-0.5,3.5-0.8,5.3-0.8
	c3.4,0,6,0.9,7.9,2.7c2,1.8,2.9,4.3,2.9,7.5v9.4c0,0.6,0.1,1,0.3,1.3c0.2,0.3,0.6,0.4,1.1,0.4v4.2c-0.5,0.1-0.9,0.2-1.3,0.2
	c-0.4,0-0.7,0-1,0c-1.1,0-2-0.3-2.5-0.8c-0.6-0.5-0.9-1.2-1-1.9l-0.1-1.4c-1.1,1.4-2.5,2.5-4.2,3.3c-1.7,0.8-3.4,1.2-5.1,1.2
	c-1.7,0-3.2-0.3-4.5-1c-1.3-0.7-2.3-1.6-3.1-2.8C1066.9,508.7,1066.5,507.4,1066.5,505.9z M1082.5,507.5c0.4-0.4,0.7-0.8,0.9-1.2
	s0.3-0.8,0.3-1.1v-2.9c-0.9-0.4-1.8-0.6-2.8-0.8c-1-0.2-2-0.3-2.9-0.3c-1.9,0-3.5,0.4-4.7,1.2c-1.2,0.8-1.8,1.8-1.8,3.2
	c0,0.7,0.2,1.4,0.6,2.1c0.4,0.7,1,1.2,1.7,1.6c0.8,0.4,1.7,0.6,2.8,0.6c1.2,0,2.3-0.2,3.3-0.7C1081,508.8,1081.9,508.2,1082.5,507.5
	z M1095.2,513.3v-6.1h4.4v6.1H1095.2z"/>
</svg>
