<?xml version="1.0" encoding="utf-8"?>
<!-- Generator: Adobe Illustrator 27.5.0, SVG Export Plug-In . SVG Version: 6.00 Build 0)  -->
<svg version="1.1" id="Livello_1" xmlns="http://www.w3.org/2000/svg" xmlns:xlink="http://www.w3.org/1999/xlink" x="0px" y="0px"
	 viewBox="0 0 228 58" style="enable-background:new 0 0 228 58;" xml:space="preserve">
<style type="text/css">
	.st0{fill:#0022D4;}
</style>
<g>
	<path class="st0" d="M60.2,46.6v-33L46.5,38.6h-4.3L28.5,13.5v33h-7.3V0.2H29l15.3,28.3L59.7,0.2h7.8v46.4H60.2z M109.8,40.1v6.5
		H78V0.2h31.2v6.5H85.3v13.2H106v6.1H85.3v14.2H109.8z M124.7,13.8v32.8h-7.3V0.2h6l26.3,33.5V0.3h7.4v46.3h-6.4L124.7,13.8z
		 M186.8,46.9c-3.7,0-6.8-0.6-9.4-1.9c-2.5-1.3-4.6-3-6.1-5.2c-1.5-2.2-2.7-4.7-3.4-7.4c-0.7-2.8-1-5.7-1-8.7V0.2h7.3v23.5
		c0,2.1,0.2,4.2,0.7,6.2c0.4,2,1.1,3.7,2.1,5.3c1,1.6,2.2,2.8,3.9,3.7c1.7,0.9,3.7,1.4,6.1,1.4c2.4,0,4.5-0.5,6.1-1.4
		c1.7-1,2.9-2.2,3.9-3.8c1-1.6,1.7-3.4,2.1-5.4c0.4-2,0.7-4,0.7-6.1V0.2h7.4v23.5c0,3.2-0.4,6.2-1.2,9c-0.7,2.8-1.9,5.2-3.5,7.4
		c-1.6,2.1-3.6,3.7-6.1,5C193.5,46.3,190.4,46.9,186.8,46.9z"/>
	<path class="st0" d="M16,54.7h195.4V58H16V54.7z"/>
</g>
</svg>
