<?xml version="1.0" encoding="utf-8"?>
<!-- Generator: Adobe Illustrator 27.5.0, SVG Export Plug-In . SVG Version: 6.00 Build 0)  -->
<svg version="1.1" id="Livello_1" xmlns="http://www.w3.org/2000/svg" xmlns:xlink="http://www.w3.org/1999/xlink" x="0px" y="0px"
	 viewBox="0 0 221 118" style="enable-background:new 0 0 221 118;" xml:space="preserve">
<style type="text/css">
	.st0{fill:#0022D4;}
</style>
<path class="st0" d="M69.3,68h-8.8V44.6c0-3.9-0.6-6.7-1.9-8.6c-1.3-1.8-3.1-2.7-5.6-2.7s-4.7,0.9-6.9,2.8c-2.1,1.8-3.5,4.2-4.4,7.1
	V68h-8.8V44.6c0-3.9-0.6-6.7-1.9-8.6c-1.3-1.8-3.1-2.7-5.5-2.7c-2.5,0-4.7,0.9-6.9,2.7c-2.1,1.8-3.6,4.2-4.5,7.1V68H5.3V26.2h8v8.4
	c1.7-2.9,3.8-5.2,6.5-6.7c2.7-1.6,5.8-2.4,9.3-2.4c3.5,0,6.2,0.9,8.2,2.7c2,1.8,3.3,4.1,3.8,6.8c1.8-3.1,4-5.4,6.6-7
	c2.7-1.7,5.7-2.5,9.1-2.5c2.5,0,4.5,0.5,6.2,1.4s2.9,2.2,3.8,3.8c0.9,1.5,1.5,3.4,1.9,5.4c0.4,2,0.6,4.2,0.6,6.5V68z M98.4,68.8
	c-3.3,0-6.2-0.6-8.9-1.7c-2.6-1.2-4.9-2.7-6.8-4.7c-1.9-2-3.4-4.3-4.5-6.9c-1-2.6-1.5-5.4-1.5-8.3c0-3.9,0.9-7.5,2.7-10.8
	c1.8-3.3,4.3-5.9,7.6-7.9c3.3-2,7.1-3,11.4-3c4.4,0,8.1,1,11.3,3c3.2,2,5.7,4.6,7.4,7.8s2.6,6.7,2.6,10.5c0,0.6,0,1.3-0.1,1.8
	c-0.1,0.5-0.1,1-0.2,1.4H86.1c0.2,2.5,0.8,4.6,2,6.5c1.2,1.8,2.8,3.3,4.6,4.3c1.9,1,3.9,1.5,6,1.5c2.3,0,4.6-0.6,6.6-1.8
	c2.1-1.2,3.6-2.7,4.3-4.6l7.5,2.2c-0.9,2-2.3,3.9-4.2,5.5c-1.8,1.6-4,2.9-6.5,3.8C104,68.3,101.3,68.8,98.4,68.8z M85.8,44.2h25.3
	c-0.2-2.4-0.9-4.5-2.1-6.3c-1.2-1.9-2.7-3.3-4.6-4.3c-1.8-1.1-3.8-1.6-6.1-1.6c-2.2,0-4.2,0.5-6.1,1.6c-1.8,1-3.3,2.5-4.5,4.3
	C86.6,39.7,86,41.8,85.8,44.2z M164.5,68h-8.8V44.6c0-3.9-0.6-6.7-1.9-8.6c-1.2-1.8-3.1-2.7-5.5-2.7c-1.7,0-3.4,0.4-5.1,1.3
	c-1.7,0.9-3.1,2-4.5,3.5c-1.3,1.4-2.3,3.1-2.9,5V68H127V26.2h8v8.4c1.1-1.9,2.5-3.5,4.2-4.8c1.8-1.4,3.7-2.5,5.9-3.2
	c2.2-0.7,4.5-1.1,7-1.1c2.5,0,4.6,0.5,6.2,1.4c1.7,0.9,2.9,2.2,3.8,3.8c1,1.5,1.6,3.4,1.9,5.4c0.4,2,0.6,4.2,0.6,6.5V68z
	 M174.3,51.8V26.2h8.8V50c0,3.7,0.7,6.6,2,8.5c1.4,1.9,3.4,2.8,6,2.8c1.7,0,3.3-0.3,4.8-1c1.6-0.7,3-1.7,4.3-3c1.3-1.4,2.4-3,3.2-5
	V26.2h8.8v31.9c0,1,0.2,1.7,0.6,2.2c0.4,0.4,1,0.7,1.8,0.7v7c-0.9,0.2-1.7,0.3-2.2,0.3c-0.6,0.1-1.1,0.1-1.7,0.1
	c-1.6,0-2.9-0.4-4-1.3c-1.1-0.9-1.7-2.1-1.8-3.4l-0.2-4.2c-1.9,3-4.3,5.4-7.3,7c-3,1.5-6.3,2.3-9.8,2.3c-4.4,0-7.7-1.4-9.9-4.3
	C175.5,61.6,174.3,57.4,174.3,51.8z"/>
<path class="st0" d="M0,78h218.2v4H0V78z"/>
</svg>
