<svg width="1108" height="246" viewBox="0 0 1108 246" fill="none" xmlns="http://www.w3.org/2000/svg">
<rect y="18" width="933" height="62" fill="white"/>
<rect x="25" y="98" width="942" height="62" fill="white"/>
<rect x="25" y="178" width="1070" height="62" fill="white"/>
<path d="M42.92 68V11.2H53.96V68H42.92ZM81.1094 55.6C81.1094 52.88 81.856 50.5067 83.3494 48.48C84.896 46.4 87.0294 44.8 89.7494 43.68C92.4694 42.56 95.5894 42 99.1094 42C100.869 42 102.656 42.1333 104.469 42.4C106.283 42.6667 107.856 43.0933 109.189 43.68V41.44C109.189 38.7733 108.389 36.72 106.789 35.28C105.243 33.84 102.923 33.12 99.8294 33.12C97.536 33.12 95.3494 33.52 93.2694 34.32C91.1894 35.12 89.0027 36.2933 86.7094 37.84L83.2694 30.8C86.0427 28.9867 88.8694 27.6267 91.7494 26.72C94.6827 25.8133 97.7494 25.36 100.949 25.36C106.923 25.36 111.563 26.8533 114.869 29.84C118.229 32.8267 119.909 37.0933 119.909 42.64V56C119.909 57.12 120.096 57.92 120.469 58.4C120.896 58.88 121.563 59.1733 122.469 59.28V68C121.509 68.16 120.629 68.2933 119.829 68.4C119.083 68.5067 118.443 68.56 117.909 68.56C115.776 68.56 114.149 68.08 113.029 67.12C111.963 66.16 111.296 64.9867 111.029 63.6L110.789 61.44C108.976 63.7867 106.709 65.6 103.989 66.88C101.269 68.16 98.496 68.8 95.6694 68.8C92.896 68.8 90.3894 68.24 88.1494 67.12C85.9627 65.9467 84.2294 64.3733 82.9494 62.4C81.7227 60.3733 81.1094 58.1067 81.1094 55.6ZM107.189 57.76C107.776 57.12 108.256 56.48 108.629 55.84C109.003 55.2 109.189 54.6133 109.189 54.08V49.84C107.909 49.3067 106.523 48.9067 105.029 48.64C103.536 48.32 102.123 48.16 100.789 48.16C98.016 48.16 95.7227 48.7733 93.9094 50C92.1494 51.1733 91.2694 52.7467 91.2694 54.72C91.2694 55.7867 91.5627 56.8 92.1494 57.76C92.736 58.72 93.5894 59.4933 94.7094 60.08C95.8294 60.6667 97.1627 60.96 98.7094 60.96C100.309 60.96 101.883 60.6667 103.429 60.08C104.976 59.44 106.229 58.6667 107.189 57.76ZM129.847 9.6H140.567V54.56C140.567 56.48 140.887 57.7867 141.527 58.48C142.167 59.12 143.047 59.44 144.167 59.44C145.02 59.44 145.9 59.3333 146.807 59.12C147.714 58.9067 148.514 58.64 149.207 58.32L150.647 66.48C149.207 67.1733 147.527 67.7067 145.607 68.08C143.687 68.4533 141.954 68.64 140.407 68.64C137.047 68.64 134.434 67.76 132.567 66C130.754 64.1867 129.847 61.6267 129.847 58.32V9.6ZM205.208 26.08H215.368L197.848 68H188.888L181.848 50L174.968 68H165.928L148.488 26.08H158.568L171.048 57.76L175.928 44.08L168.648 26.16H177.528L181.848 38.96L186.248 26.16H195.128L187.848 44.08L192.808 57.76L205.208 26.08ZM216.422 55.6C216.422 52.88 217.169 50.5067 218.662 48.48C220.209 46.4 222.342 44.8 225.062 43.68C227.782 42.56 230.902 42 234.422 42C236.182 42 237.969 42.1333 239.782 42.4C241.595 42.6667 243.169 43.0933 244.502 43.68V41.44C244.502 38.7733 243.702 36.72 242.102 35.28C240.555 33.84 238.235 33.12 235.142 33.12C232.849 33.12 230.662 33.52 228.582 34.32C226.502 35.12 224.315 36.2933 222.022 37.84L218.582 30.8C221.355 28.9867 224.182 27.6267 227.062 26.72C229.995 25.8133 233.062 25.36 236.262 25.36C242.235 25.36 246.875 26.8533 250.182 29.84C253.542 32.8267 255.222 37.0933 255.222 42.64V56C255.222 57.12 255.409 57.92 255.782 58.4C256.209 58.88 256.875 59.1733 257.782 59.28V68C256.822 68.16 255.942 68.2933 255.142 68.4C254.395 68.5067 253.755 68.56 253.222 68.56C251.089 68.56 249.462 68.08 248.342 67.12C247.275 66.16 246.609 64.9867 246.342 63.6L246.102 61.44C244.289 63.7867 242.022 65.6 239.302 66.88C236.582 68.16 233.809 68.8 230.982 68.8C228.209 68.8 225.702 68.24 223.462 67.12C221.275 65.9467 219.542 64.3733 218.262 62.4C217.035 60.3733 216.422 58.1067 216.422 55.6ZM242.502 57.76C243.089 57.12 243.569 56.48 243.942 55.84C244.315 55.2 244.502 54.6133 244.502 54.08V49.84C243.222 49.3067 241.835 48.9067 240.342 48.64C238.849 48.32 237.435 48.16 236.102 48.16C233.329 48.16 231.035 48.7733 229.222 50C227.462 51.1733 226.582 52.7467 226.582 54.72C226.582 55.7867 226.875 56.8 227.462 57.76C228.049 58.72 228.902 59.4933 230.022 60.08C231.142 60.6667 232.475 60.96 234.022 60.96C235.622 60.96 237.195 60.6667 238.742 60.08C240.289 59.44 241.542 58.6667 242.502 57.76ZM264.557 76.16C265.517 76.3733 266.397 76.56 267.197 76.72C268.05 76.88 268.77 76.96 269.357 76.96C270.37 76.96 271.197 76.6933 271.837 76.16C272.53 75.68 273.197 74.7733 273.837 73.44C274.477 72.16 275.144 70.3467 275.837 68L259.277 26.08H270.397L281.677 57.04L291.597 26.08H301.837L284.237 76.32C283.597 78.1867 282.61 79.8667 281.277 81.36C279.997 82.9067 278.37 84.1067 276.397 84.96C274.477 85.8667 272.317 86.32 269.917 86.32C269.064 86.32 268.21 86.24 267.357 86.08C266.504 85.9733 265.57 85.76 264.557 85.44V76.16ZM322.086 68.8C318.512 68.8 315.099 68.2133 311.846 67.04C308.592 65.8667 305.792 64.1333 303.446 61.84L307.286 54.88C309.792 56.9067 312.246 58.4 314.646 59.36C317.099 60.32 319.446 60.8 321.686 60.8C323.766 60.8 325.419 60.4267 326.646 59.68C327.926 58.9333 328.566 57.8133 328.566 56.32C328.566 55.3067 328.219 54.5333 327.526 54C326.832 53.4133 325.819 52.9067 324.486 52.48C323.206 52.0533 321.632 51.5733 319.766 51.04C316.672 50.0267 314.086 49.04 312.006 48.08C309.926 47.12 308.352 45.92 307.286 44.48C306.272 42.9867 305.766 41.0933 305.766 38.8C305.766 36.0267 306.459 33.6533 307.846 31.68C309.286 29.6533 311.259 28.08 313.766 26.96C316.326 25.84 319.312 25.28 322.726 25.28C325.712 25.28 328.539 25.76 331.206 26.72C333.872 27.6267 336.299 29.12 338.486 31.2L334.166 38C332.032 36.3467 330.006 35.1467 328.086 34.4C326.166 33.6 324.219 33.2 322.246 33.2C321.126 33.2 320.059 33.3333 319.046 33.6C318.086 33.8667 317.286 34.32 316.646 34.96C316.059 35.5467 315.766 36.4 315.766 37.52C315.766 38.5333 316.032 39.3333 316.566 39.92C317.152 40.4533 318.006 40.9333 319.126 41.36C320.299 41.7867 321.712 42.2667 323.366 42.8C326.726 43.76 329.552 44.7467 331.846 45.76C334.192 46.7733 335.952 48.0267 337.126 49.52C338.299 50.96 338.886 52.96 338.886 55.52C338.886 59.68 337.366 62.9333 334.326 65.28C331.286 67.6267 327.206 68.8 322.086 68.8ZM362.836 47.04C362.836 42.9867 363.636 39.3333 365.236 36.08C366.836 32.7733 369.049 30.16 371.876 28.24C374.702 26.32 377.929 25.36 381.556 25.36C384.649 25.36 387.422 26.1333 389.876 27.68C392.382 29.1733 394.329 31.0933 395.716 33.44V9.6H406.436V56C406.436 57.12 406.622 57.92 406.996 58.4C407.369 58.88 408.009 59.1733 408.916 59.28V68C407.049 68.3733 405.529 68.56 404.356 68.56C402.436 68.56 400.836 68.08 399.556 67.12C398.329 66.16 397.636 64.9067 397.476 63.36L397.316 60.72C395.769 63.3333 393.662 65.3333 390.996 66.72C388.382 68.1067 385.636 68.8 382.756 68.8C379.876 68.8 377.209 68.24 374.756 67.12C372.356 66 370.249 64.4533 368.436 62.48C366.676 60.5067 365.289 58.2133 364.276 55.6C363.316 52.9333 362.836 50.08 362.836 47.04ZM395.716 52.64V42.64C395.182 41.0933 394.329 39.7067 393.156 38.48C391.982 37.2533 390.676 36.2933 389.236 35.6C387.796 34.8533 386.356 34.48 384.916 34.48C383.262 34.48 381.769 34.8267 380.436 35.52C379.102 36.2133 377.929 37.1467 376.916 38.32C375.956 39.4933 375.209 40.8533 374.676 42.4C374.196 43.9467 373.956 45.5733 373.956 47.28C373.956 48.9867 374.222 50.6133 374.756 52.16C375.342 53.6533 376.169 54.96 377.236 56.08C378.302 57.2 379.529 58.08 380.916 58.72C382.356 59.36 383.902 59.68 385.556 59.68C386.569 59.68 387.582 59.52 388.596 59.2C389.662 58.8267 390.649 58.3467 391.556 57.76C392.516 57.12 393.342 56.3733 394.036 55.52C394.782 54.6133 395.342 53.6533 395.716 52.64ZM436.398 68.8C433.038 68.8 429.998 68.24 427.278 67.12C424.558 65.9467 422.238 64.3733 420.318 62.4C418.398 60.3733 416.905 58.08 415.838 55.52C414.825 52.9067 414.318 50.16 414.318 47.28C414.318 43.28 415.198 39.6267 416.958 36.32C418.771 33.0133 421.331 30.3733 424.638 28.4C427.998 26.3733 431.945 25.36 436.478 25.36C441.065 25.36 444.985 26.3733 448.238 28.4C451.491 30.3733 453.971 33.0133 455.678 36.32C457.438 39.5733 458.318 43.0933 458.318 46.88C458.318 47.52 458.291 48.1867 458.238 48.88C458.185 49.52 458.131 50.0533 458.078 50.48H425.678C425.891 52.6133 426.505 54.48 427.518 56.08C428.585 57.68 429.918 58.9067 431.518 59.76C433.171 60.56 434.931 60.96 436.798 60.96C438.931 60.96 440.931 60.4533 442.798 59.44C444.718 58.3733 446.025 56.9867 446.718 55.28L455.918 57.84C454.905 59.9733 453.438 61.8667 451.518 63.52C449.651 65.1733 447.438 66.48 444.878 67.44C442.318 68.3467 439.491 68.8 436.398 68.8ZM425.438 43.68H447.358C447.145 41.5467 446.531 39.7067 445.518 38.16C444.558 36.56 443.278 35.3333 441.678 34.48C440.078 33.5733 438.291 33.12 436.318 33.12C434.398 33.12 432.638 33.5733 431.038 34.48C429.491 35.3333 428.211 36.56 427.198 38.16C426.238 39.7067 425.651 41.5467 425.438 43.68ZM480.289 68.8C476.715 68.8 473.302 68.2133 470.049 67.04C466.795 65.8667 463.995 64.1333 461.649 61.84L465.489 54.88C467.995 56.9067 470.449 58.4 472.849 59.36C475.302 60.32 477.649 60.8 479.889 60.8C481.969 60.8 483.622 60.4267 484.849 59.68C486.129 58.9333 486.769 57.8133 486.769 56.32C486.769 55.3067 486.422 54.5333 485.729 54C485.035 53.4133 484.022 52.9067 482.689 52.48C481.409 52.0533 479.835 51.5733 477.969 51.04C474.875 50.0267 472.289 49.04 470.209 48.08C468.129 47.12 466.555 45.92 465.489 44.48C464.475 42.9867 463.969 41.0933 463.969 38.8C463.969 36.0267 464.662 33.6533 466.049 31.68C467.489 29.6533 469.462 28.08 471.969 26.96C474.529 25.84 477.515 25.28 480.929 25.28C483.915 25.28 486.742 25.76 489.409 26.72C492.075 27.6267 494.502 29.12 496.689 31.2L492.369 38C490.235 36.3467 488.209 35.1467 486.289 34.4C484.369 33.6 482.422 33.2 480.449 33.2C479.329 33.2 478.262 33.3333 477.249 33.6C476.289 33.8667 475.489 34.32 474.849 34.96C474.262 35.5467 473.969 36.4 473.969 37.52C473.969 38.5333 474.235 39.3333 474.769 39.92C475.355 40.4533 476.209 40.9333 477.329 41.36C478.502 41.7867 479.915 42.2667 481.569 42.8C484.929 43.76 487.755 44.7467 490.049 45.76C492.395 46.7733 494.155 48.0267 495.329 49.52C496.502 50.96 497.089 52.96 497.089 55.52C497.089 59.68 495.569 62.9333 492.529 65.28C489.489 67.6267 485.409 68.8 480.289 68.8ZM504.38 68V26.08H515.1V68H504.38ZM504.38 20.24V9.6H515.1V20.24H504.38ZM541.171 68.24C538.397 68.24 535.837 67.7067 533.491 66.64C531.197 65.52 529.197 63.9733 527.491 62C525.837 60.0267 524.557 57.76 523.651 55.2C522.744 52.64 522.291 49.92 522.291 47.04C522.291 44 522.771 41.1733 523.731 38.56C524.691 35.9467 526.024 33.6533 527.731 31.68C529.491 29.6533 531.544 28.1067 533.891 27.04C536.291 25.92 538.931 25.36 541.811 25.36C545.064 25.36 547.917 26.1067 550.371 27.6C552.824 29.04 554.851 30.9867 556.451 33.44V26.08H565.811V66C565.811 70.16 564.797 73.7067 562.771 76.64C560.797 79.6267 558.051 81.8933 554.531 83.44C551.011 85.04 547.011 85.84 542.531 85.84C537.997 85.84 534.157 85.0667 531.011 83.52C527.864 82.0267 525.171 79.8933 522.931 77.12L528.771 71.44C530.371 73.4133 532.371 74.96 534.771 76.08C537.224 77.2 539.811 77.76 542.531 77.76C544.824 77.76 546.904 77.3333 548.771 76.48C550.691 75.68 552.211 74.4 553.331 72.64C554.504 70.9333 555.091 68.72 555.091 66V60.72C553.704 63.12 551.731 64.9867 549.171 66.32C546.664 67.6 543.997 68.24 541.171 68.24ZM544.771 59.68C545.944 59.68 547.064 59.4933 548.131 59.12C549.197 58.7467 550.184 58.24 551.091 57.6C551.997 56.96 552.797 56.2133 553.491 55.36C554.184 54.4533 554.717 53.5467 555.091 52.64V42.64C554.451 40.9867 553.544 39.5467 552.371 38.32C551.251 37.0933 549.971 36.16 548.531 35.52C547.144 34.8267 545.677 34.48 544.131 34.48C542.477 34.48 540.984 34.8267 539.651 35.52C538.317 36.2133 537.171 37.2 536.211 38.48C535.251 39.7067 534.504 41.0933 533.971 42.64C533.491 44.1333 533.251 45.7067 533.251 47.36C533.251 49.0667 533.544 50.6667 534.131 52.16C534.717 53.6533 535.517 54.96 536.531 56.08C537.597 57.2 538.824 58.08 540.211 58.72C541.651 59.36 543.171 59.68 544.771 59.68ZM614.434 68H603.714V44.48C603.714 41.12 603.127 38.6667 601.954 37.12C600.78 35.5733 599.154 34.8 597.074 34.8C595.634 34.8 594.167 35.1733 592.674 35.92C591.234 36.6667 589.927 37.7067 588.754 39.04C587.58 40.32 586.727 41.8133 586.194 43.52V68H575.474V26.08H585.154V33.84C586.22 32.0267 587.58 30.5067 589.234 29.28C590.887 28 592.78 27.04 594.914 26.4C597.1 25.7067 599.394 25.36 601.794 25.36C604.407 25.36 606.54 25.84 608.194 26.8C609.9 27.7067 611.18 28.96 612.034 30.56C612.94 32.1067 613.554 33.8667 613.874 35.84C614.247 37.8133 614.434 39.8133 614.434 41.84V68ZM642.974 68V26.08H653.694V68H642.974ZM642.974 20.24V9.6H653.694V20.24H642.974ZM702.324 68H691.604V44.48C691.604 41.12 691.018 38.6667 689.844 37.12C688.671 35.5733 687.044 34.8 684.964 34.8C683.524 34.8 682.058 35.1733 680.564 35.92C679.124 36.6667 677.818 37.7067 676.644 39.04C675.471 40.32 674.618 41.8133 674.084 43.52V68H663.364V26.08H673.044V33.84C674.111 32.0267 675.471 30.5067 677.124 29.28C678.778 28 680.671 27.04 682.804 26.4C684.991 25.7067 687.284 25.36 689.684 25.36C692.298 25.36 694.431 25.84 696.084 26.8C697.791 27.7067 699.071 28.96 699.924 30.56C700.831 32.1067 701.444 33.8667 701.764 35.84C702.138 37.8133 702.324 39.8133 702.324 41.84V68ZM755.984 65.84C755.078 66.2133 753.984 66.64 752.704 67.12C751.424 67.6 750.038 67.9733 748.544 68.24C747.104 68.56 745.638 68.72 744.144 68.72C742.171 68.72 740.358 68.3733 738.704 67.68C737.051 66.9867 735.718 65.8933 734.704 64.4C733.744 62.8533 733.264 60.8533 733.264 58.4V34.32H727.744V26.08H733.264V12.48H743.984V26.08H752.784V34.32H743.984V54.8C744.038 56.24 744.438 57.28 745.184 57.92C745.931 58.56 746.864 58.88 747.984 58.88C749.104 58.88 750.198 58.6933 751.264 58.32C752.331 57.9467 753.184 57.6267 753.824 57.36L755.984 65.84ZM780.539 68.8C777.179 68.8 774.139 68.24 771.419 67.12C768.699 65.9467 766.379 64.3733 764.459 62.4C762.539 60.3733 761.045 58.08 759.979 55.52C758.965 52.9067 758.459 50.16 758.459 47.28C758.459 43.28 759.339 39.6267 761.099 36.32C762.912 33.0133 765.472 30.3733 768.779 28.4C772.139 26.3733 776.085 25.36 780.619 25.36C785.205 25.36 789.125 26.3733 792.379 28.4C795.632 30.3733 798.112 33.0133 799.819 36.32C801.579 39.5733 802.459 43.0933 802.459 46.88C802.459 47.52 802.432 48.1867 802.379 48.88C802.325 49.52 802.272 50.0533 802.219 50.48H769.819C770.032 52.6133 770.645 54.48 771.659 56.08C772.725 57.68 774.059 58.9067 775.659 59.76C777.312 60.56 779.072 60.96 780.939 60.96C783.072 60.96 785.072 60.4533 786.939 59.44C788.859 58.3733 790.165 56.9867 790.859 55.28L800.059 57.84C799.045 59.9733 797.579 61.8667 795.659 63.52C793.792 65.1733 791.579 66.48 789.019 67.44C786.459 68.3467 783.632 68.8 780.539 68.8ZM769.579 43.68H791.499C791.285 41.5467 790.672 39.7067 789.659 38.16C788.699 36.56 787.419 35.3333 785.819 34.48C784.219 33.5733 782.432 33.12 780.459 33.12C778.539 33.12 776.779 33.5733 775.179 34.48C773.632 35.3333 772.352 36.56 771.339 38.16C770.379 39.7067 769.792 41.5467 769.579 43.68ZM806.109 55.6C806.109 52.88 806.856 50.5067 808.349 48.48C809.896 46.4 812.029 44.8 814.749 43.68C817.469 42.56 820.589 42 824.109 42C825.869 42 827.656 42.1333 829.469 42.4C831.283 42.6667 832.856 43.0933 834.189 43.68V41.44C834.189 38.7733 833.389 36.72 831.789 35.28C830.243 33.84 827.923 33.12 824.829 33.12C822.536 33.12 820.349 33.52 818.269 34.32C816.189 35.12 814.003 36.2933 811.709 37.84L808.269 30.8C811.043 28.9867 813.869 27.6267 816.749 26.72C819.683 25.8133 822.749 25.36 825.949 25.36C831.923 25.36 836.563 26.8533 839.869 29.84C843.229 32.8267 844.909 37.0933 844.909 42.64V56C844.909 57.12 845.096 57.92 845.469 58.4C845.896 58.88 846.563 59.1733 847.469 59.28V68C846.509 68.16 845.629 68.2933 844.829 68.4C844.083 68.5067 843.443 68.56 842.909 68.56C840.776 68.56 839.149 68.08 838.029 67.12C836.963 66.16 836.296 64.9867 836.029 63.6L835.789 61.44C833.976 63.7867 831.709 65.6 828.989 66.88C826.269 68.16 823.496 68.8 820.669 68.8C817.896 68.8 815.389 68.24 813.149 67.12C810.963 65.9467 809.229 64.3733 807.949 62.4C806.723 60.3733 806.109 58.1067 806.109 55.6ZM832.189 57.76C832.776 57.12 833.256 56.48 833.629 55.84C834.003 55.2 834.189 54.6133 834.189 54.08V49.84C832.909 49.3067 831.523 48.9067 830.029 48.64C828.536 48.32 827.123 48.16 825.789 48.16C823.016 48.16 820.723 48.7733 818.909 50C817.149 51.1733 816.269 52.7467 816.269 54.72C816.269 55.7867 816.563 56.8 817.149 57.76C817.736 58.72 818.589 59.4933 819.709 60.08C820.829 60.6667 822.163 60.96 823.709 60.96C825.309 60.96 826.883 60.6667 828.429 60.08C829.976 59.44 831.229 58.6667 832.189 57.76ZM920.047 68H909.327V44.48C909.327 41.1733 908.74 38.7467 907.567 37.2C906.447 35.6 904.874 34.8 902.847 34.8C900.767 34.8 898.767 35.6267 896.847 37.28C894.98 38.88 893.647 40.9867 892.847 43.6V68H882.127V44.48C882.127 41.12 881.54 38.6667 880.367 37.12C879.247 35.5733 877.674 34.8 875.647 34.8C873.567 34.8 871.567 35.6 869.647 37.2C867.78 38.8 866.447 40.9067 865.647 43.52V68H854.927V26.08H864.607V33.84C866.207 31.12 868.34 29.04 871.007 27.6C873.674 26.1067 876.74 25.36 880.207 25.36C883.674 25.36 886.367 26.2133 888.287 27.92C890.26 29.6267 891.514 31.7333 892.047 34.24C893.754 31.36 895.914 29.1733 898.527 27.68C901.194 26.1333 904.18 25.36 907.487 25.36C910.1 25.36 912.207 25.84 913.807 26.8C915.46 27.7067 916.74 28.96 917.647 30.56C918.554 32.1067 919.167 33.8667 919.487 35.84C919.86 37.8133 920.047 39.8133 920.047 41.84V68ZM930.34 77.2L932.5 67.68H929.14V56.48H938.42V67.68L935.14 77.2H930.34ZM93.88 106.08H104.04L86.52 148H77.56L70.52 130L63.64 148H54.6L37.16 106.08H47.24L59.72 137.76L64.6 124.08L57.32 106.16H66.2L70.52 118.96L74.92 106.16H83.8L76.52 124.08L81.48 137.76L93.88 106.08ZM108.989 148V106.08H119.709V148H108.989ZM108.989 100.24V89.6H119.709V100.24H108.989ZM154.5 145.84C153.593 146.213 152.5 146.64 151.22 147.12C149.94 147.6 148.553 147.973 147.06 148.24C145.62 148.56 144.153 148.72 142.66 148.72C140.687 148.72 138.873 148.373 137.22 147.68C135.567 146.987 134.233 145.893 133.22 144.4C132.26 142.853 131.78 140.853 131.78 138.4V114.32H126.26V106.08H131.78V92.48H142.5V106.08H151.3V114.32H142.5V134.8C142.553 136.24 142.953 137.28 143.7 137.92C144.447 138.56 145.38 138.88 146.5 138.88C147.62 138.88 148.713 138.693 149.78 138.32C150.847 137.947 151.7 137.627 152.34 137.36L154.5 145.84ZM199.043 148H188.323V124.48C188.323 121.227 187.683 118.8 186.403 117.2C185.176 115.6 183.47 114.8 181.283 114.8C180.003 114.8 178.643 115.173 177.203 115.92C175.763 116.667 174.456 117.707 173.283 119.04C172.163 120.32 171.336 121.813 170.803 123.52V148H160.083V89.6H170.803V113.84C172.35 111.173 174.456 109.093 177.123 107.6C179.79 106.107 182.696 105.36 185.843 105.36C188.563 105.36 190.776 105.84 192.483 106.8C194.19 107.707 195.523 108.96 196.483 110.56C197.443 112.107 198.11 113.867 198.483 115.84C198.856 117.76 199.043 119.76 199.043 121.84V148ZM226.276 156.16C227.236 156.373 228.116 156.56 228.916 156.72C229.769 156.88 230.489 156.96 231.076 156.96C232.089 156.96 232.916 156.693 233.556 156.16C234.249 155.68 234.916 154.773 235.556 153.44C236.196 152.16 236.862 150.347 237.556 148L220.996 106.08H232.116L243.396 137.04L253.316 106.08H263.556L245.956 156.32C245.316 158.187 244.329 159.867 242.996 161.36C241.716 162.907 240.089 164.107 238.116 164.96C236.196 165.867 234.036 166.32 231.636 166.32C230.782 166.32 229.929 166.24 229.076 166.08C228.222 165.973 227.289 165.76 226.276 165.44V156.16ZM287.334 148.8C283.92 148.8 280.854 148.24 278.134 147.12C275.414 145.947 273.094 144.347 271.174 142.32C269.307 140.293 267.867 137.973 266.854 135.36C265.84 132.747 265.334 130 265.334 127.12C265.334 124.187 265.84 121.413 266.854 118.8C267.867 116.187 269.307 113.867 271.174 111.84C273.094 109.813 275.414 108.24 278.134 107.12C280.854 105.947 283.92 105.36 287.334 105.36C290.747 105.36 293.787 105.947 296.454 107.12C299.174 108.24 301.494 109.813 303.414 111.84C305.334 113.867 306.774 116.187 307.734 118.8C308.747 121.413 309.254 124.187 309.254 127.12C309.254 130 308.747 132.747 307.734 135.36C306.774 137.973 305.334 140.293 303.414 142.32C301.547 144.347 299.254 145.947 296.534 147.12C293.814 148.24 290.747 148.8 287.334 148.8ZM276.374 127.12C276.374 129.573 276.854 131.76 277.814 133.68C278.774 135.547 280.08 137.013 281.734 138.08C283.387 139.147 285.254 139.68 287.334 139.68C289.36 139.68 291.2 139.147 292.854 138.08C294.507 136.96 295.814 135.467 296.774 133.6C297.787 131.68 298.294 129.493 298.294 127.04C298.294 124.64 297.787 122.48 296.774 120.56C295.814 118.64 294.507 117.147 292.854 116.08C291.2 115.013 289.36 114.48 287.334 114.48C285.254 114.48 283.387 115.04 281.734 116.16C280.08 117.227 278.774 118.72 277.814 120.64C276.854 122.507 276.374 124.667 276.374 127.12ZM316.089 132.32V106.08H326.809V130C326.809 133.2 327.396 135.627 328.569 137.28C329.743 138.88 331.476 139.68 333.769 139.68C335.156 139.68 336.516 139.413 337.849 138.88C339.236 138.293 340.489 137.44 341.609 136.32C342.783 135.2 343.769 133.787 344.569 132.08V106.08H355.289V136C355.289 137.12 355.476 137.92 355.849 138.4C356.276 138.88 356.943 139.173 357.849 139.28V148C356.783 148.16 355.876 148.267 355.129 148.32C354.436 148.427 353.796 148.48 353.209 148.48C351.289 148.48 349.716 148.053 348.489 147.2C347.316 146.293 346.623 145.067 346.409 143.52L346.169 140.16C344.303 142.987 341.903 145.147 338.969 146.64C336.036 148.08 332.809 148.8 329.289 148.8C324.969 148.8 321.689 147.413 319.449 144.64C317.209 141.813 316.089 137.707 316.089 132.32ZM404.903 148H394.183V124.48C394.183 121.12 393.596 118.667 392.423 117.12C391.249 115.573 389.623 114.8 387.543 114.8C386.103 114.8 384.636 115.173 383.143 115.92C381.703 116.667 380.396 117.707 379.223 119.04C378.049 120.32 377.196 121.813 376.663 123.52V148H365.943V106.08H375.623V113.84C376.689 112.027 378.049 110.507 379.703 109.28C381.356 108 383.249 107.04 385.383 106.4C387.569 105.707 389.863 105.36 392.263 105.36C394.876 105.36 397.009 105.84 398.663 106.8C400.369 107.707 401.649 108.96 402.503 110.56C403.409 112.107 404.023 113.867 404.343 115.84C404.716 117.813 404.903 119.813 404.903 121.84V148ZM430.624 148.24C427.85 148.24 425.29 147.707 422.944 146.64C420.65 145.52 418.65 143.973 416.944 142C415.29 140.027 414.01 137.76 413.104 135.2C412.197 132.64 411.744 129.92 411.744 127.04C411.744 124 412.224 121.173 413.184 118.56C414.144 115.947 415.477 113.653 417.184 111.68C418.944 109.653 420.997 108.107 423.344 107.04C425.744 105.92 428.384 105.36 431.264 105.36C434.517 105.36 437.37 106.107 439.824 107.6C442.277 109.04 444.304 110.987 445.904 113.44V106.08H455.264V146C455.264 150.16 454.25 153.707 452.224 156.64C450.25 159.627 447.504 161.893 443.984 163.44C440.464 165.04 436.464 165.84 431.984 165.84C427.45 165.84 423.61 165.067 420.464 163.52C417.317 162.027 414.624 159.893 412.384 157.12L418.224 151.44C419.824 153.413 421.824 154.96 424.224 156.08C426.677 157.2 429.264 157.76 431.984 157.76C434.277 157.76 436.357 157.333 438.224 156.48C440.144 155.68 441.664 154.4 442.784 152.64C443.957 150.933 444.544 148.72 444.544 146V140.72C443.157 143.12 441.184 144.987 438.624 146.32C436.117 147.6 433.45 148.24 430.624 148.24ZM434.224 139.68C435.397 139.68 436.517 139.493 437.584 139.12C438.65 138.747 439.637 138.24 440.544 137.6C441.45 136.96 442.25 136.213 442.944 135.36C443.637 134.453 444.17 133.547 444.544 132.64V122.64C443.904 120.987 442.997 119.547 441.824 118.32C440.704 117.093 439.424 116.16 437.984 115.52C436.597 114.827 435.13 114.48 433.584 114.48C431.93 114.48 430.437 114.827 429.104 115.52C427.77 116.213 426.624 117.2 425.664 118.48C424.704 119.707 423.957 121.093 423.424 122.64C422.944 124.133 422.704 125.707 422.704 127.36C422.704 129.067 422.997 130.667 423.584 132.16C424.17 133.653 424.97 134.96 425.984 136.08C427.05 137.2 428.277 138.08 429.664 138.72C431.104 139.36 432.624 139.68 434.224 139.68ZM480.367 148.8C476.794 148.8 473.38 148.213 470.127 147.04C466.874 145.867 464.074 144.133 461.727 141.84L465.567 134.88C468.074 136.907 470.527 138.4 472.927 139.36C475.38 140.32 477.727 140.8 479.967 140.8C482.047 140.8 483.7 140.427 484.927 139.68C486.207 138.933 486.847 137.813 486.847 136.32C486.847 135.307 486.5 134.533 485.807 134C485.114 133.413 484.1 132.907 482.767 132.48C481.487 132.053 479.914 131.573 478.047 131.04C474.954 130.027 472.367 129.04 470.287 128.08C468.207 127.12 466.634 125.92 465.567 124.48C464.554 122.987 464.047 121.093 464.047 118.8C464.047 116.027 464.74 113.653 466.127 111.68C467.567 109.653 469.54 108.08 472.047 106.96C474.607 105.84 477.594 105.28 481.007 105.28C483.994 105.28 486.82 105.76 489.487 106.72C492.154 107.627 494.58 109.12 496.767 111.2L492.447 118C490.314 116.347 488.287 115.147 486.367 114.4C484.447 113.6 482.5 113.2 480.527 113.2C479.407 113.2 478.34 113.333 477.327 113.6C476.367 113.867 475.567 114.32 474.927 114.96C474.34 115.547 474.047 116.4 474.047 117.52C474.047 118.533 474.314 119.333 474.847 119.92C475.434 120.453 476.287 120.933 477.407 121.36C478.58 121.787 479.994 122.267 481.647 122.8C485.007 123.76 487.834 124.747 490.127 125.76C492.474 126.773 494.234 128.027 495.407 129.52C496.58 130.96 497.167 132.96 497.167 135.52C497.167 139.68 495.647 142.933 492.607 145.28C489.567 147.627 485.487 148.8 480.367 148.8ZM520.797 135.6C520.797 132.88 521.544 130.507 523.037 128.48C524.584 126.4 526.717 124.8 529.437 123.68C532.157 122.56 535.277 122 538.797 122C540.557 122 542.344 122.133 544.157 122.4C545.97 122.667 547.544 123.093 548.877 123.68V121.44C548.877 118.773 548.077 116.72 546.477 115.28C544.93 113.84 542.61 113.12 539.517 113.12C537.224 113.12 535.037 113.52 532.957 114.32C530.877 115.12 528.69 116.293 526.397 117.84L522.957 110.8C525.73 108.987 528.557 107.627 531.437 106.72C534.37 105.813 537.437 105.36 540.637 105.36C546.61 105.36 551.25 106.853 554.557 109.84C557.917 112.827 559.597 117.093 559.597 122.64V136C559.597 137.12 559.784 137.92 560.157 138.4C560.584 138.88 561.25 139.173 562.157 139.28V148C561.197 148.16 560.317 148.293 559.517 148.4C558.77 148.507 558.13 148.56 557.597 148.56C555.464 148.56 553.837 148.08 552.717 147.12C551.65 146.16 550.984 144.987 550.717 143.6L550.477 141.44C548.664 143.787 546.397 145.6 543.677 146.88C540.957 148.16 538.184 148.8 535.357 148.8C532.584 148.8 530.077 148.24 527.837 147.12C525.65 145.947 523.917 144.373 522.637 142.4C521.41 140.373 520.797 138.107 520.797 135.6ZM546.877 137.76C547.464 137.12 547.944 136.48 548.317 135.84C548.69 135.2 548.877 134.613 548.877 134.08V129.84C547.597 129.307 546.21 128.907 544.717 128.64C543.224 128.32 541.81 128.16 540.477 128.16C537.704 128.16 535.41 128.773 533.597 130C531.837 131.173 530.957 132.747 530.957 134.72C530.957 135.787 531.25 136.8 531.837 137.76C532.424 138.72 533.277 139.493 534.397 140.08C535.517 140.667 536.85 140.96 538.397 140.96C539.997 140.96 541.57 140.667 543.117 140.08C544.664 139.44 545.917 138.667 546.877 137.76ZM608.574 148H597.854V124.48C597.854 121.12 597.268 118.667 596.094 117.12C594.921 115.573 593.294 114.8 591.214 114.8C589.774 114.8 588.308 115.173 586.814 115.92C585.374 116.667 584.068 117.707 582.894 119.04C581.721 120.32 580.868 121.813 580.334 123.52V148H569.614V106.08H579.294V113.84C580.361 112.027 581.721 110.507 583.374 109.28C585.028 108 586.921 107.04 589.054 106.4C591.241 105.707 593.534 105.36 595.934 105.36C598.548 105.36 600.681 105.84 602.334 106.8C604.041 107.707 605.321 108.96 606.174 110.56C607.081 112.107 607.694 113.867 608.014 115.84C608.388 117.813 608.574 119.813 608.574 121.84V148ZM615.336 127.04C615.336 122.987 616.136 119.333 617.736 116.08C619.336 112.773 621.549 110.16 624.376 108.24C627.202 106.32 630.429 105.36 634.056 105.36C637.149 105.36 639.922 106.133 642.376 107.68C644.882 109.173 646.829 111.093 648.216 113.44V89.6H658.936V136C658.936 137.12 659.122 137.92 659.496 138.4C659.869 138.88 660.509 139.173 661.416 139.28V148C659.549 148.373 658.029 148.56 656.856 148.56C654.936 148.56 653.336 148.08 652.056 147.12C650.829 146.16 650.136 144.907 649.976 143.36L649.816 140.72C648.269 143.333 646.162 145.333 643.496 146.72C640.882 148.107 638.136 148.8 635.256 148.8C632.376 148.8 629.709 148.24 627.256 147.12C624.856 146 622.749 144.453 620.936 142.48C619.176 140.507 617.789 138.213 616.776 135.6C615.816 132.933 615.336 130.08 615.336 127.04ZM648.216 132.64V122.64C647.682 121.093 646.829 119.707 645.656 118.48C644.482 117.253 643.176 116.293 641.736 115.6C640.296 114.853 638.856 114.48 637.416 114.48C635.762 114.48 634.269 114.827 632.936 115.52C631.602 116.213 630.429 117.147 629.416 118.32C628.456 119.493 627.709 120.853 627.176 122.4C626.696 123.947 626.456 125.573 626.456 127.28C626.456 128.987 626.722 130.613 627.256 132.16C627.842 133.653 628.669 134.96 629.736 136.08C630.802 137.2 632.029 138.08 633.416 138.72C634.856 139.36 636.402 139.68 638.056 139.68C639.069 139.68 640.082 139.52 641.096 139.2C642.162 138.827 643.149 138.347 644.056 137.76C645.016 137.12 645.842 136.373 646.536 135.52C647.282 134.613 647.842 133.653 648.216 132.64ZM704.117 148.8C700.544 148.8 697.13 148.213 693.877 147.04C690.624 145.867 687.824 144.133 685.477 141.84L689.317 134.88C691.824 136.907 694.277 138.4 696.677 139.36C699.13 140.32 701.477 140.8 703.717 140.8C705.797 140.8 707.45 140.427 708.677 139.68C709.957 138.933 710.597 137.813 710.597 136.32C710.597 135.307 710.25 134.533 709.557 134C708.864 133.413 707.85 132.907 706.517 132.48C705.237 132.053 703.664 131.573 701.797 131.04C698.704 130.027 696.117 129.04 694.037 128.08C691.957 127.12 690.384 125.92 689.317 124.48C688.304 122.987 687.797 121.093 687.797 118.8C687.797 116.027 688.49 113.653 689.877 111.68C691.317 109.653 693.29 108.08 695.797 106.96C698.357 105.84 701.344 105.28 704.757 105.28C707.744 105.28 710.57 105.76 713.237 106.72C715.904 107.627 718.33 109.12 720.517 111.2L716.197 118C714.064 116.347 712.037 115.147 710.117 114.4C708.197 113.6 706.25 113.2 704.277 113.2C703.157 113.2 702.09 113.333 701.077 113.6C700.117 113.867 699.317 114.32 698.677 114.96C698.09 115.547 697.797 116.4 697.797 117.52C697.797 118.533 698.064 119.333 698.597 119.92C699.184 120.453 700.037 120.933 701.157 121.36C702.33 121.787 703.744 122.267 705.397 122.8C708.757 123.76 711.584 124.747 713.877 125.76C716.224 126.773 717.984 128.027 719.157 129.52C720.33 130.96 720.917 132.96 720.917 135.52C720.917 139.68 719.397 142.933 716.357 145.28C713.317 147.627 709.237 148.8 704.117 148.8ZM747.648 148.8C744.288 148.8 741.248 148.24 738.528 147.12C735.808 145.947 733.488 144.373 731.568 142.4C729.648 140.373 728.155 138.08 727.088 135.52C726.075 132.907 725.568 130.16 725.568 127.28C725.568 123.28 726.448 119.627 728.208 116.32C730.021 113.013 732.581 110.373 735.888 108.4C739.248 106.373 743.195 105.36 747.728 105.36C752.315 105.36 756.235 106.373 759.488 108.4C762.741 110.373 765.221 113.013 766.928 116.32C768.688 119.573 769.568 123.093 769.568 126.88C769.568 127.52 769.541 128.187 769.488 128.88C769.435 129.52 769.381 130.053 769.328 130.48H736.928C737.141 132.613 737.755 134.48 738.768 136.08C739.835 137.68 741.168 138.907 742.768 139.76C744.421 140.56 746.181 140.96 748.048 140.96C750.181 140.96 752.181 140.453 754.048 139.44C755.968 138.373 757.275 136.987 757.968 135.28L767.168 137.84C766.155 139.973 764.688 141.867 762.768 143.52C760.901 145.173 758.688 146.48 756.128 147.44C753.568 148.347 750.741 148.8 747.648 148.8ZM736.688 123.68H758.608C758.395 121.547 757.781 119.707 756.768 118.16C755.808 116.56 754.528 115.333 752.928 114.48C751.328 113.573 749.541 113.12 747.568 113.12C745.648 113.12 743.888 113.573 742.288 114.48C740.741 115.333 739.461 116.56 738.448 118.16C737.488 119.707 736.901 121.547 736.688 123.68ZM815.059 148H804.339V124.48C804.339 121.12 803.752 118.667 802.579 117.12C801.405 115.573 799.779 114.8 797.699 114.8C796.259 114.8 794.792 115.173 793.299 115.92C791.859 116.667 790.552 117.707 789.379 119.04C788.205 120.32 787.352 121.813 786.819 123.52V148H776.099V106.08H785.779V113.84C786.845 112.027 788.205 110.507 789.859 109.28C791.512 108 793.405 107.04 795.539 106.4C797.725 105.707 800.019 105.36 802.419 105.36C805.032 105.36 807.165 105.84 808.819 106.8C810.525 107.707 811.805 108.96 812.659 110.56C813.565 112.107 814.179 113.867 814.499 115.84C814.872 117.813 815.059 119.813 815.059 121.84V148ZM824.38 148V106.08H835.1V148H824.38ZM824.38 100.24V89.6H835.1V100.24H824.38ZM864.131 148.8C860.717 148.8 857.651 148.24 854.931 147.12C852.211 145.947 849.891 144.347 847.971 142.32C846.104 140.293 844.664 137.973 843.651 135.36C842.637 132.747 842.131 130 842.131 127.12C842.131 124.187 842.637 121.413 843.651 118.8C844.664 116.187 846.104 113.867 847.971 111.84C849.891 109.813 852.211 108.24 854.931 107.12C857.651 105.947 860.717 105.36 864.131 105.36C867.544 105.36 870.584 105.947 873.251 107.12C875.971 108.24 878.291 109.813 880.211 111.84C882.131 113.867 883.571 116.187 884.531 118.8C885.544 121.413 886.051 124.187 886.051 127.12C886.051 130 885.544 132.747 884.531 135.36C883.571 137.973 882.131 140.293 880.211 142.32C878.344 144.347 876.051 145.947 873.331 147.12C870.611 148.24 867.544 148.8 864.131 148.8ZM853.171 127.12C853.171 129.573 853.651 131.76 854.611 133.68C855.571 135.547 856.877 137.013 858.531 138.08C860.184 139.147 862.051 139.68 864.131 139.68C866.157 139.68 867.997 139.147 869.651 138.08C871.304 136.96 872.611 135.467 873.571 133.6C874.584 131.68 875.091 129.493 875.091 127.04C875.091 124.64 874.584 122.48 873.571 120.56C872.611 118.64 871.304 117.147 869.651 116.08C867.997 115.013 866.157 114.48 864.131 114.48C862.051 114.48 860.184 115.04 858.531 116.16C856.877 117.227 855.571 118.72 854.611 120.64C853.651 122.507 853.171 124.667 853.171 127.12ZM918.246 115.36C914.993 115.36 912.086 116 909.526 117.28C906.966 118.507 905.126 120.293 904.006 122.64V148H893.286V106.08H903.126V115.04C904.62 112.16 906.513 109.893 908.806 108.24C911.1 106.587 913.526 105.68 916.086 105.52C916.673 105.52 917.126 105.52 917.446 105.52C917.766 105.52 918.033 105.547 918.246 105.6V115.36ZM939.664 148.8C936.09 148.8 932.677 148.213 929.424 147.04C926.17 145.867 923.37 144.133 921.024 141.84L924.864 134.88C927.37 136.907 929.824 138.4 932.224 139.36C934.677 140.32 937.024 140.8 939.264 140.8C941.344 140.8 942.997 140.427 944.224 139.68C945.504 138.933 946.144 137.813 946.144 136.32C946.144 135.307 945.797 134.533 945.104 134C944.41 133.413 943.397 132.907 942.064 132.48C940.784 132.053 939.21 131.573 937.344 131.04C934.25 130.027 931.664 129.04 929.584 128.08C927.504 127.12 925.93 125.92 924.864 124.48C923.85 122.987 923.344 121.093 923.344 118.8C923.344 116.027 924.037 113.653 925.424 111.68C926.864 109.653 928.837 108.08 931.344 106.96C933.904 105.84 936.89 105.28 940.304 105.28C943.29 105.28 946.117 105.76 948.784 106.72C951.45 107.627 953.877 109.12 956.064 111.2L951.744 118C949.61 116.347 947.584 115.147 945.664 114.4C943.744 113.6 941.797 113.2 939.824 113.2C938.704 113.2 937.637 113.333 936.624 113.6C935.664 113.867 934.864 114.32 934.224 114.96C933.637 115.547 933.344 116.4 933.344 117.52C933.344 118.533 933.61 119.333 934.144 119.92C934.73 120.453 935.584 120.933 936.704 121.36C937.877 121.787 939.29 122.267 940.944 122.8C944.304 123.76 947.13 124.747 949.424 125.76C951.77 126.773 953.53 128.027 954.704 129.52C955.877 130.96 956.464 132.96 956.464 135.52C956.464 139.68 954.944 142.933 951.904 145.28C948.864 147.627 944.784 148.8 939.664 148.8ZM964.715 157.2L966.875 147.68H963.515V136.48H972.795V147.68L969.515 157.2H964.715ZM93.88 186.08H104.04L86.52 228H77.56L70.52 210L63.64 228H54.6L37.16 186.08H47.24L59.72 217.76L64.6 204.08L57.32 186.16H66.2L70.52 198.96L74.92 186.16H83.8L76.52 204.08L81.48 217.76L93.88 186.08ZM108.989 228V186.08H119.709V228H108.989ZM108.989 180.24V169.6H119.709V180.24H108.989ZM154.5 225.84C153.593 226.213 152.5 226.64 151.22 227.12C149.94 227.6 148.553 227.973 147.06 228.24C145.62 228.56 144.153 228.72 142.66 228.72C140.687 228.72 138.873 228.373 137.22 227.68C135.567 226.987 134.233 225.893 133.22 224.4C132.26 222.853 131.78 220.853 131.78 218.4V194.32H126.26V186.08H131.78V172.48H142.5V186.08H151.3V194.32H142.5V214.8C142.553 216.24 142.953 217.28 143.7 217.92C144.447 218.56 145.38 218.88 146.5 218.88C147.62 218.88 148.713 218.693 149.78 218.32C150.847 217.947 151.7 217.627 152.34 217.36L154.5 225.84ZM199.043 228H188.323V204.48C188.323 201.227 187.683 198.8 186.403 197.2C185.176 195.6 183.47 194.8 181.283 194.8C180.003 194.8 178.643 195.173 177.203 195.92C175.763 196.667 174.456 197.707 173.283 199.04C172.163 200.32 171.336 201.813 170.803 203.52V228H160.083V169.6H170.803V193.84C172.35 191.173 174.456 189.093 177.123 187.6C179.79 186.107 182.696 185.36 185.843 185.36C188.563 185.36 190.776 185.84 192.483 186.8C194.19 187.707 195.523 188.96 196.483 190.56C197.443 192.107 198.11 193.867 198.483 195.84C198.856 197.76 199.043 199.76 199.043 201.84V228ZM247.103 228.8C243.69 228.8 240.623 228.24 237.903 227.12C235.183 225.947 232.863 224.347 230.943 222.32C229.023 220.24 227.53 217.893 226.463 215.28C225.45 212.667 224.943 209.92 224.943 207.04C224.943 203.093 225.823 199.493 227.583 196.24C229.396 192.933 231.956 190.293 235.263 188.32C238.57 186.347 242.49 185.36 247.023 185.36C251.556 185.36 255.45 186.347 258.703 188.32C261.956 190.293 264.383 192.88 265.983 196.08L255.503 199.28C254.596 197.733 253.396 196.56 251.903 195.76C250.41 194.907 248.756 194.48 246.943 194.48C244.916 194.48 243.05 195.013 241.343 196.08C239.69 197.093 238.383 198.56 237.423 200.48C236.463 202.347 235.983 204.533 235.983 207.04C235.983 209.493 236.463 211.68 237.423 213.6C238.436 215.467 239.77 216.96 241.423 218.08C243.076 219.147 244.916 219.68 246.943 219.68C248.223 219.68 249.423 219.467 250.543 219.04C251.716 218.613 252.756 218.027 253.663 217.28C254.57 216.533 255.236 215.68 255.663 214.72L266.143 217.92C265.183 220 263.77 221.867 261.903 223.52C260.09 225.173 257.93 226.48 255.423 227.44C252.97 228.347 250.196 228.8 247.103 228.8ZM291.709 228.8C288.295 228.8 285.229 228.24 282.509 227.12C279.789 225.947 277.469 224.347 275.549 222.32C273.682 220.293 272.242 217.973 271.229 215.36C270.215 212.747 269.709 210 269.709 207.12C269.709 204.187 270.215 201.413 271.229 198.8C272.242 196.187 273.682 193.867 275.549 191.84C277.469 189.813 279.789 188.24 282.509 187.12C285.229 185.947 288.295 185.36 291.709 185.36C295.122 185.36 298.162 185.947 300.829 187.12C303.549 188.24 305.869 189.813 307.789 191.84C309.709 193.867 311.149 196.187 312.109 198.8C313.122 201.413 313.629 204.187 313.629 207.12C313.629 210 313.122 212.747 312.109 215.36C311.149 217.973 309.709 220.293 307.789 222.32C305.922 224.347 303.629 225.947 300.909 227.12C298.189 228.24 295.122 228.8 291.709 228.8ZM280.749 207.12C280.749 209.573 281.229 211.76 282.189 213.68C283.149 215.547 284.455 217.013 286.109 218.08C287.762 219.147 289.629 219.68 291.709 219.68C293.735 219.68 295.575 219.147 297.229 218.08C298.882 216.96 300.189 215.467 301.149 213.6C302.162 211.68 302.669 209.493 302.669 207.04C302.669 204.64 302.162 202.48 301.149 200.56C300.189 198.64 298.882 197.147 297.229 196.08C295.575 195.013 293.735 194.48 291.709 194.48C289.629 194.48 287.762 195.04 286.109 196.16C284.455 197.227 283.149 198.72 282.189 200.64C281.229 202.507 280.749 204.667 280.749 207.12ZM320.784 169.6H331.504V214.56C331.504 216.48 331.824 217.787 332.464 218.48C333.104 219.12 333.984 219.44 335.104 219.44C335.958 219.44 336.838 219.333 337.744 219.12C338.651 218.907 339.451 218.64 340.144 218.32L341.584 226.48C340.144 227.173 338.464 227.707 336.544 228.08C334.624 228.453 332.891 228.64 331.344 228.64C327.984 228.64 325.371 227.76 323.504 226C321.691 224.187 320.784 221.627 320.784 218.32V169.6ZM346.175 169.6H356.895V214.56C356.895 216.48 357.215 217.787 357.855 218.48C358.495 219.12 359.375 219.44 360.495 219.44C361.348 219.44 362.228 219.333 363.135 219.12C364.042 218.907 364.842 218.64 365.535 218.32L366.975 226.48C365.535 227.173 363.855 227.707 361.935 228.08C360.015 228.453 358.282 228.64 356.735 228.64C353.375 228.64 350.762 227.76 348.895 226C347.082 224.187 346.175 221.627 346.175 218.32V169.6ZM391.086 228.8C387.726 228.8 384.686 228.24 381.966 227.12C379.246 225.947 376.926 224.373 375.006 222.4C373.086 220.373 371.592 218.08 370.526 215.52C369.512 212.907 369.006 210.16 369.006 207.28C369.006 203.28 369.886 199.627 371.646 196.32C373.459 193.013 376.019 190.373 379.326 188.4C382.686 186.373 386.632 185.36 391.166 185.36C395.752 185.36 399.672 186.373 402.926 188.4C406.179 190.373 408.659 193.013 410.366 196.32C412.126 199.573 413.006 203.093 413.006 206.88C413.006 207.52 412.979 208.187 412.926 208.88C412.872 209.52 412.819 210.053 412.766 210.48H380.366C380.579 212.613 381.192 214.48 382.206 216.08C383.272 217.68 384.606 218.907 386.206 219.76C387.859 220.56 389.619 220.96 391.486 220.96C393.619 220.96 395.619 220.453 397.486 219.44C399.406 218.373 400.712 216.987 401.406 215.28L410.606 217.84C409.592 219.973 408.126 221.867 406.206 223.52C404.339 225.173 402.126 226.48 399.566 227.44C397.006 228.347 394.179 228.8 391.086 228.8ZM380.126 203.68H402.046C401.832 201.547 401.219 199.707 400.206 198.16C399.246 196.56 397.966 195.333 396.366 194.48C394.766 193.573 392.979 193.12 391.006 193.12C389.086 193.12 387.326 193.573 385.726 194.48C384.179 195.333 382.899 196.56 381.886 198.16C380.926 199.707 380.339 201.547 380.126 203.68ZM416.656 215.6C416.656 212.88 417.403 210.507 418.896 208.48C420.443 206.4 422.576 204.8 425.296 203.68C428.016 202.56 431.136 202 434.656 202C436.416 202 438.203 202.133 440.016 202.4C441.83 202.667 443.403 203.093 444.736 203.68V201.44C444.736 198.773 443.936 196.72 442.336 195.28C440.79 193.84 438.47 193.12 435.376 193.12C433.083 193.12 430.896 193.52 428.816 194.32C426.736 195.12 424.55 196.293 422.256 197.84L418.816 190.8C421.59 188.987 424.416 187.627 427.296 186.72C430.23 185.813 433.296 185.36 436.496 185.36C442.47 185.36 447.11 186.853 450.416 189.84C453.776 192.827 455.456 197.093 455.456 202.64V216C455.456 217.12 455.643 217.92 456.016 218.4C456.443 218.88 457.11 219.173 458.016 219.28V228C457.056 228.16 456.176 228.293 455.376 228.4C454.63 228.507 453.99 228.56 453.456 228.56C451.323 228.56 449.696 228.08 448.576 227.12C447.51 226.16 446.843 224.987 446.576 223.6L446.336 221.44C444.523 223.787 442.256 225.6 439.536 226.88C436.816 228.16 434.043 228.8 431.216 228.8C428.443 228.8 425.936 228.24 423.696 227.12C421.51 225.947 419.776 224.373 418.496 222.4C417.27 220.373 416.656 218.107 416.656 215.6ZM442.736 217.76C443.323 217.12 443.803 216.48 444.176 215.84C444.55 215.2 444.736 214.613 444.736 214.08V209.84C443.456 209.307 442.07 208.907 440.576 208.64C439.083 208.32 437.67 208.16 436.336 208.16C433.563 208.16 431.27 208.773 429.456 210C427.696 211.173 426.816 212.747 426.816 214.72C426.816 215.787 427.11 216.8 427.696 217.76C428.283 218.72 429.136 219.493 430.256 220.08C431.376 220.667 432.71 220.96 434.256 220.96C435.856 220.96 437.43 220.667 438.976 220.08C440.523 219.44 441.776 218.667 442.736 217.76ZM481.874 228.24C479.1 228.24 476.54 227.707 474.194 226.64C471.9 225.52 469.9 223.973 468.194 222C466.54 220.027 465.26 217.76 464.354 215.2C463.447 212.64 462.994 209.92 462.994 207.04C462.994 204 463.474 201.173 464.434 198.56C465.394 195.947 466.727 193.653 468.434 191.68C470.194 189.653 472.247 188.107 474.594 187.04C476.994 185.92 479.634 185.36 482.514 185.36C485.767 185.36 488.62 186.107 491.074 187.6C493.527 189.04 495.554 190.987 497.154 193.44V186.08H506.514V226C506.514 230.16 505.5 233.707 503.474 236.64C501.5 239.627 498.754 241.893 495.234 243.44C491.714 245.04 487.714 245.84 483.234 245.84C478.7 245.84 474.86 245.067 471.714 243.52C468.567 242.027 465.874 239.893 463.634 237.12L469.474 231.44C471.074 233.413 473.074 234.96 475.474 236.08C477.927 237.2 480.514 237.76 483.234 237.76C485.527 237.76 487.607 237.333 489.474 236.48C491.394 235.68 492.914 234.4 494.034 232.64C495.207 230.933 495.794 228.72 495.794 226V220.72C494.407 223.12 492.434 224.987 489.874 226.32C487.367 227.6 484.7 228.24 481.874 228.24ZM485.474 219.68C486.647 219.68 487.767 219.493 488.834 219.12C489.9 218.747 490.887 218.24 491.794 217.6C492.7 216.96 493.5 216.213 494.194 215.36C494.887 214.453 495.42 213.547 495.794 212.64V202.64C495.154 200.987 494.247 199.547 493.074 198.32C491.954 197.093 490.674 196.16 489.234 195.52C487.847 194.827 486.38 194.48 484.834 194.48C483.18 194.48 481.687 194.827 480.354 195.52C479.02 196.213 477.874 197.2 476.914 198.48C475.954 199.707 475.207 201.093 474.674 202.64C474.194 204.133 473.954 205.707 473.954 207.36C473.954 209.067 474.247 210.667 474.834 212.16C475.42 213.653 476.22 214.96 477.234 216.08C478.3 217.2 479.527 218.08 480.914 218.72C482.354 219.36 483.874 219.68 485.474 219.68ZM515.777 212.32V186.08H526.497V210C526.497 213.2 527.084 215.627 528.257 217.28C529.43 218.88 531.164 219.68 533.457 219.68C534.844 219.68 536.204 219.413 537.537 218.88C538.924 218.293 540.177 217.44 541.297 216.32C542.47 215.2 543.457 213.787 544.257 212.08V186.08H554.977V216C554.977 217.12 555.164 217.92 555.537 218.4C555.964 218.88 556.63 219.173 557.537 219.28V228C556.47 228.16 555.564 228.267 554.817 228.32C554.124 228.427 553.484 228.48 552.897 228.48C550.977 228.48 549.404 228.053 548.177 227.2C547.004 226.293 546.31 225.067 546.097 223.52L545.857 220.16C543.99 222.987 541.59 225.147 538.657 226.64C535.724 228.08 532.497 228.8 528.977 228.8C524.657 228.8 521.377 227.413 519.137 224.64C516.897 221.813 515.777 217.707 515.777 212.32ZM585.07 228.8C581.71 228.8 578.67 228.24 575.95 227.12C573.23 225.947 570.91 224.373 568.99 222.4C567.07 220.373 565.577 218.08 564.51 215.52C563.497 212.907 562.99 210.16 562.99 207.28C562.99 203.28 563.87 199.627 565.63 196.32C567.443 193.013 570.003 190.373 573.31 188.4C576.67 186.373 580.617 185.36 585.15 185.36C589.737 185.36 593.657 186.373 596.91 188.4C600.163 190.373 602.643 193.013 604.35 196.32C606.11 199.573 606.99 203.093 606.99 206.88C606.99 207.52 606.963 208.187 606.91 208.88C606.857 209.52 606.803 210.053 606.75 210.48H574.35C574.563 212.613 575.177 214.48 576.19 216.08C577.257 217.68 578.59 218.907 580.19 219.76C581.843 220.56 583.603 220.96 585.47 220.96C587.603 220.96 589.603 220.453 591.47 219.44C593.39 218.373 594.697 216.987 595.39 215.28L604.59 217.84C603.577 219.973 602.11 221.867 600.19 223.52C598.323 225.173 596.11 226.48 593.55 227.44C590.99 228.347 588.163 228.8 585.07 228.8ZM574.11 203.68H596.03C595.817 201.547 595.203 199.707 594.19 198.16C593.23 196.56 591.95 195.333 590.35 194.48C588.75 193.573 586.963 193.12 584.99 193.12C583.07 193.12 581.31 193.573 579.71 194.48C578.163 195.333 576.883 196.56 575.87 198.16C574.91 199.707 574.323 201.547 574.11 203.68ZM628.961 228.8C625.387 228.8 621.974 228.213 618.721 227.04C615.467 225.867 612.667 224.133 610.321 221.84L614.161 214.88C616.667 216.907 619.121 218.4 621.521 219.36C623.974 220.32 626.321 220.8 628.561 220.8C630.641 220.8 632.294 220.427 633.521 219.68C634.801 218.933 635.441 217.813 635.441 216.32C635.441 215.307 635.094 214.533 634.401 214C633.707 213.413 632.694 212.907 631.361 212.48C630.081 212.053 628.507 211.573 626.641 211.04C623.547 210.027 620.961 209.04 618.881 208.08C616.801 207.12 615.227 205.92 614.161 204.48C613.147 202.987 612.641 201.093 612.641 198.8C612.641 196.027 613.334 193.653 614.721 191.68C616.161 189.653 618.134 188.08 620.641 186.96C623.201 185.84 626.187 185.28 629.601 185.28C632.587 185.28 635.414 185.76 638.081 186.72C640.747 187.627 643.174 189.12 645.361 191.2L641.041 198C638.907 196.347 636.881 195.147 634.961 194.4C633.041 193.6 631.094 193.2 629.121 193.2C628.001 193.2 626.934 193.333 625.921 193.6C624.961 193.867 624.161 194.32 623.521 194.96C622.934 195.547 622.641 196.4 622.641 197.52C622.641 198.533 622.907 199.333 623.441 199.92C624.027 200.453 624.881 200.933 626.001 201.36C627.174 201.787 628.587 202.267 630.241 202.8C633.601 203.76 636.427 204.747 638.721 205.76C641.067 206.773 642.827 208.027 644.001 209.52C645.174 210.96 645.761 212.96 645.761 215.52C645.761 219.68 644.241 222.933 641.201 225.28C638.161 227.627 634.081 228.8 628.961 228.8ZM669.391 215.6C669.391 212.88 670.137 210.507 671.631 208.48C673.177 206.4 675.311 204.8 678.031 203.68C680.751 202.56 683.871 202 687.391 202C689.151 202 690.937 202.133 692.751 202.4C694.564 202.667 696.137 203.093 697.471 203.68V201.44C697.471 198.773 696.671 196.72 695.071 195.28C693.524 193.84 691.204 193.12 688.111 193.12C685.817 193.12 683.631 193.52 681.551 194.32C679.471 195.12 677.284 196.293 674.991 197.84L671.551 190.8C674.324 188.987 677.151 187.627 680.031 186.72C682.964 185.813 686.031 185.36 689.231 185.36C695.204 185.36 699.844 186.853 703.151 189.84C706.511 192.827 708.191 197.093 708.191 202.64V216C708.191 217.12 708.377 217.92 708.751 218.4C709.177 218.88 709.844 219.173 710.751 219.28V228C709.791 228.16 708.911 228.293 708.111 228.4C707.364 228.507 706.724 228.56 706.191 228.56C704.057 228.56 702.431 228.08 701.311 227.12C700.244 226.16 699.577 224.987 699.311 223.6L699.071 221.44C697.257 223.787 694.991 225.6 692.271 226.88C689.551 228.16 686.777 228.8 683.951 228.8C681.177 228.8 678.671 228.24 676.431 227.12C674.244 225.947 672.511 224.373 671.231 222.4C670.004 220.373 669.391 218.107 669.391 215.6ZM695.471 217.76C696.057 217.12 696.537 216.48 696.911 215.84C697.284 215.2 697.471 214.613 697.471 214.08V209.84C696.191 209.307 694.804 208.907 693.311 208.64C691.817 208.32 690.404 208.16 689.071 208.16C686.297 208.16 684.004 208.773 682.191 210C680.431 211.173 679.551 212.747 679.551 214.72C679.551 215.787 679.844 216.8 680.431 217.76C681.017 218.72 681.871 219.493 682.991 220.08C684.111 220.667 685.444 220.96 686.991 220.96C688.591 220.96 690.164 220.667 691.711 220.08C693.257 219.44 694.511 218.667 695.471 217.76ZM757.168 228H746.448V204.48C746.448 201.12 745.861 198.667 744.688 197.12C743.515 195.573 741.888 194.8 739.808 194.8C738.368 194.8 736.901 195.173 735.408 195.92C733.968 196.667 732.661 197.707 731.488 199.04C730.315 200.32 729.461 201.813 728.928 203.52V228H718.208V186.08H727.888V193.84C728.955 192.027 730.315 190.507 731.968 189.28C733.621 188 735.515 187.04 737.648 186.4C739.835 185.707 742.128 185.36 744.528 185.36C747.141 185.36 749.275 185.84 750.928 186.8C752.635 187.707 753.915 188.96 754.768 190.56C755.675 192.107 756.288 193.867 756.608 195.84C756.981 197.813 757.168 199.813 757.168 201.84V228ZM763.929 207.04C763.929 202.987 764.729 199.333 766.329 196.08C767.929 192.773 770.143 190.16 772.969 188.24C775.796 186.32 779.023 185.36 782.649 185.36C785.743 185.36 788.516 186.133 790.969 187.68C793.476 189.173 795.423 191.093 796.809 193.44V169.6H807.529V216C807.529 217.12 807.716 217.92 808.089 218.4C808.463 218.88 809.103 219.173 810.009 219.28V228C808.143 228.373 806.623 228.56 805.449 228.56C803.529 228.56 801.929 228.08 800.649 227.12C799.423 226.16 798.729 224.907 798.569 223.36L798.409 220.72C796.863 223.333 794.756 225.333 792.089 226.72C789.476 228.107 786.729 228.8 783.849 228.8C780.969 228.8 778.303 228.24 775.849 227.12C773.449 226 771.343 224.453 769.529 222.48C767.769 220.507 766.383 218.213 765.369 215.6C764.409 212.933 763.929 210.08 763.929 207.04ZM796.809 212.64V202.64C796.276 201.093 795.423 199.707 794.249 198.48C793.076 197.253 791.769 196.293 790.329 195.6C788.889 194.853 787.449 194.48 786.009 194.48C784.356 194.48 782.863 194.827 781.529 195.52C780.196 196.213 779.023 197.147 778.009 198.32C777.049 199.493 776.303 200.853 775.769 202.4C775.289 203.947 775.049 205.573 775.049 207.28C775.049 208.987 775.316 210.613 775.849 212.16C776.436 213.653 777.263 214.96 778.329 216.08C779.396 217.2 780.623 218.08 782.009 218.72C783.449 219.36 784.996 219.68 786.649 219.68C787.663 219.68 788.676 219.52 789.689 219.2C790.756 218.827 791.743 218.347 792.649 217.76C793.609 217.12 794.436 216.373 795.129 215.52C795.876 214.613 796.436 213.653 796.809 212.64ZM856.791 228.8C853.377 228.8 850.311 228.24 847.591 227.12C844.871 225.947 842.551 224.347 840.631 222.32C838.711 220.24 837.217 217.893 836.151 215.28C835.137 212.667 834.631 209.92 834.631 207.04C834.631 203.093 835.511 199.493 837.271 196.24C839.084 192.933 841.644 190.293 844.951 188.32C848.257 186.347 852.177 185.36 856.711 185.36C861.244 185.36 865.137 186.347 868.391 188.32C871.644 190.293 874.071 192.88 875.671 196.08L865.191 199.28C864.284 197.733 863.084 196.56 861.591 195.76C860.097 194.907 858.444 194.48 856.631 194.48C854.604 194.48 852.737 195.013 851.031 196.08C849.377 197.093 848.071 198.56 847.111 200.48C846.151 202.347 845.671 204.533 845.671 207.04C845.671 209.493 846.151 211.68 847.111 213.6C848.124 215.467 849.457 216.96 851.111 218.08C852.764 219.147 854.604 219.68 856.631 219.68C857.911 219.68 859.111 219.467 860.231 219.04C861.404 218.613 862.444 218.027 863.351 217.28C864.257 216.533 864.924 215.68 865.351 214.72L875.831 217.92C874.871 220 873.457 221.867 871.591 223.52C869.777 225.173 867.617 226.48 865.111 227.44C862.657 228.347 859.884 228.8 856.791 228.8ZM882.347 169.6H893.067V214.56C893.067 216.48 893.387 217.787 894.027 218.48C894.667 219.12 895.547 219.44 896.667 219.44C897.52 219.44 898.4 219.333 899.307 219.12C900.214 218.907 901.014 218.64 901.707 218.32L903.147 226.48C901.707 227.173 900.027 227.707 898.107 228.08C896.187 228.453 894.454 228.64 892.907 228.64C889.547 228.64 886.934 227.76 885.067 226C883.254 224.187 882.347 221.627 882.347 218.32V169.6ZM907.818 228V186.08H918.538V228H907.818ZM907.818 180.24V169.6H918.538V180.24H907.818ZM947.648 228.8C944.288 228.8 941.248 228.24 938.528 227.12C935.808 225.947 933.488 224.373 931.568 222.4C929.648 220.373 928.155 218.08 927.088 215.52C926.075 212.907 925.568 210.16 925.568 207.28C925.568 203.28 926.448 199.627 928.208 196.32C930.021 193.013 932.581 190.373 935.888 188.4C939.248 186.373 943.195 185.36 947.728 185.36C952.315 185.36 956.235 186.373 959.488 188.4C962.741 190.373 965.221 193.013 966.928 196.32C968.688 199.573 969.568 203.093 969.568 206.88C969.568 207.52 969.541 208.187 969.488 208.88C969.435 209.52 969.381 210.053 969.328 210.48H936.928C937.141 212.613 937.755 214.48 938.768 216.08C939.835 217.68 941.168 218.907 942.768 219.76C944.421 220.56 946.181 220.96 948.048 220.96C950.181 220.96 952.181 220.453 954.048 219.44C955.968 218.373 957.275 216.987 957.968 215.28L967.168 217.84C966.155 219.973 964.688 221.867 962.768 223.52C960.901 225.173 958.688 226.48 956.128 227.44C953.568 228.347 950.741 228.8 947.648 228.8ZM936.688 203.68H958.608C958.395 201.547 957.781 199.707 956.768 198.16C955.808 196.56 954.528 195.333 952.928 194.48C951.328 193.573 949.541 193.12 947.568 193.12C945.648 193.12 943.888 193.573 942.288 194.48C940.741 195.333 939.461 196.56 938.448 198.16C937.488 199.707 936.901 201.547 936.688 203.68ZM1015.06 228H1004.34V204.48C1004.34 201.12 1003.75 198.667 1002.58 197.12C1001.41 195.573 999.779 194.8 997.699 194.8C996.259 194.8 994.792 195.173 993.299 195.92C991.859 196.667 990.552 197.707 989.379 199.04C988.205 200.32 987.352 201.813 986.819 203.52V228H976.099V186.08H985.779V193.84C986.845 192.027 988.205 190.507 989.859 189.28C991.512 188 993.405 187.04 995.539 186.4C997.725 185.707 1000.02 185.36 1002.42 185.36C1005.03 185.36 1007.17 185.84 1008.82 186.8C1010.53 187.707 1011.81 188.96 1012.66 190.56C1013.57 192.107 1014.18 193.867 1014.5 195.84C1014.87 197.813 1015.06 199.813 1015.06 201.84V228ZM1049.27 225.84C1048.36 226.213 1047.27 226.64 1045.99 227.12C1044.71 227.6 1043.32 227.973 1041.83 228.24C1040.39 228.56 1038.92 228.72 1037.43 228.72C1035.45 228.72 1033.64 228.373 1031.99 227.68C1030.33 226.987 1029 225.893 1027.99 224.4C1027.03 222.853 1026.55 220.853 1026.55 218.4V194.32H1021.03V186.08H1026.55V172.48H1037.27V186.08H1046.07V194.32H1037.27V214.8C1037.32 216.24 1037.72 217.28 1038.47 217.92C1039.21 218.56 1040.15 218.88 1041.27 218.88C1042.39 218.88 1043.48 218.693 1044.55 218.32C1045.61 217.947 1046.47 217.627 1047.11 217.36L1049.27 225.84ZM1070.29 228.8C1066.72 228.8 1063.3 228.213 1060.05 227.04C1056.8 225.867 1054 224.133 1051.65 221.84L1055.49 214.88C1058 216.907 1060.45 218.4 1062.85 219.36C1065.3 220.32 1067.65 220.8 1069.89 220.8C1071.97 220.8 1073.62 220.427 1074.85 219.68C1076.13 218.933 1076.77 217.813 1076.77 216.32C1076.77 215.307 1076.42 214.533 1075.73 214C1075.04 213.413 1074.02 212.907 1072.69 212.48C1071.41 212.053 1069.84 211.573 1067.97 211.04C1064.88 210.027 1062.29 209.04 1060.21 208.08C1058.13 207.12 1056.56 205.92 1055.49 204.48C1054.48 202.987 1053.97 201.093 1053.97 198.8C1053.97 196.027 1054.66 193.653 1056.05 191.68C1057.49 189.653 1059.46 188.08 1061.97 186.96C1064.53 185.84 1067.52 185.28 1070.93 185.28C1073.92 185.28 1076.74 185.76 1079.41 186.72C1082.08 187.627 1084.5 189.12 1086.69 191.2L1082.37 198C1080.24 196.347 1078.21 195.147 1076.29 194.4C1074.37 193.6 1072.42 193.2 1070.45 193.2C1069.33 193.2 1068.26 193.333 1067.25 193.6C1066.29 193.867 1065.49 194.32 1064.85 194.96C1064.26 195.547 1063.97 196.4 1063.97 197.52C1063.97 198.533 1064.24 199.333 1064.77 199.92C1065.36 200.453 1066.21 200.933 1067.33 201.36C1068.5 201.787 1069.92 202.267 1071.57 202.8C1074.93 203.76 1077.76 204.747 1080.05 205.76C1082.4 206.773 1084.16 208.027 1085.33 209.52C1086.5 210.96 1087.09 212.96 1087.09 215.52C1087.09 219.68 1085.57 222.933 1082.53 225.28C1079.49 227.627 1075.41 228.8 1070.29 228.8ZM1094.14 228V216.48H1102.94V228H1094.14Z" fill="#0022D5"/>
</svg>
