<svg width="714" height="151" viewBox="0 0 714 151" fill="none" xmlns="http://www.w3.org/2000/svg">
<path d="M0 8.99998H694V71H0V8.99998Z" fill="white"/>
<path d="M0 89H456V151H0V89Z" fill="white"/>
<path d="M67.16 59.4C63 59.4 59.2133 58.6 55.8 57C52.44 55.4 49.5333 53.24 47.08 50.52C44.68 47.7466 42.8133 44.6533 41.48 41.24C40.1467 37.7733 39.48 34.2266 39.48 30.6C39.48 26.8133 40.1733 23.2133 41.56 19.8C43 16.3333 44.9467 13.2666 47.4 10.6C49.9067 7.87998 52.84 5.74664 56.2 4.19997C59.6133 2.59997 63.3467 1.79997 67.4 1.79997C71.5067 1.79997 75.24 2.62664 78.6 4.27998C82.0133 5.93331 84.92 8.14664 87.32 10.92C89.72 13.6933 91.5867 16.7866 92.92 20.2C94.2533 23.6133 94.92 27.1333 94.92 30.76C94.92 34.4933 94.2267 38.0933 92.84 41.56C91.4533 44.9733 89.5067 48.04 87 50.76C84.5467 53.4266 81.6133 55.5333 78.2 57.08C74.84 58.6266 71.16 59.4 67.16 59.4ZM50.68 30.6C50.68 33.0533 51.0533 35.4266 51.8 37.72C52.5467 40.0133 53.6133 42.0666 55 43.88C56.44 45.64 58.1733 47.0533 60.2 48.12C62.28 49.1333 64.6267 49.64 67.24 49.64C69.9067 49.64 72.28 49.1066 74.36 48.04C76.44 46.92 78.1733 45.4533 79.56 43.64C80.9467 41.7733 81.9867 39.72 82.68 37.48C83.4267 35.1866 83.8 32.8933 83.8 30.6C83.8 28.1466 83.4 25.8 82.6 23.56C81.8533 21.2666 80.76 19.24 79.32 17.48C77.9333 15.6666 76.2 14.2533 74.12 13.24C72.0933 12.1733 69.8 11.64 67.24 11.64C64.52 11.64 62.12 12.2 60.04 13.32C58.0133 14.3866 56.3067 15.8266 54.92 17.64C53.5333 19.4533 52.4667 21.48 51.72 23.72C51.0267 25.96 50.68 28.2533 50.68 30.6Z" fill="#0022D5"/>
<path d="M140.918 59H130.198V35.48C130.198 32.12 129.611 29.6666 128.438 28.12C127.265 26.5733 125.638 25.8 123.558 25.8C122.118 25.8 120.651 26.1733 119.158 26.92C117.718 27.6666 116.411 28.7066 115.238 30.04C114.065 31.32 113.211 32.8133 112.678 34.52V59H101.958V17.08H111.638V24.84C112.705 23.0266 114.065 21.5066 115.718 20.28C117.371 19 119.265 18.04 121.398 17.4C123.585 16.7066 125.878 16.36 128.278 16.36C130.891 16.36 133.025 16.84 134.678 17.8C136.385 18.7066 137.665 19.96 138.518 21.56C139.425 23.1066 140.038 24.8666 140.358 26.84C140.731 28.8133 140.918 30.8133 140.918 32.84V59Z" fill="#0022D5"/>
<path d="M169.679 59.8C166.319 59.8 163.279 59.24 160.559 58.12C157.839 56.9466 155.519 55.3733 153.599 53.4C151.679 51.3733 150.186 49.08 149.119 46.52C148.106 43.9066 147.599 41.16 147.599 38.28C147.599 34.28 148.479 30.6266 150.239 27.32C152.053 24.0133 154.613 21.3733 157.919 19.4C161.279 17.3733 165.226 16.36 169.759 16.36C174.346 16.36 178.266 17.3733 181.519 19.4C184.773 21.3733 187.253 24.0133 188.959 27.32C190.719 30.5733 191.599 34.0933 191.599 37.88C191.599 38.52 191.573 39.1866 191.519 39.88C191.466 40.52 191.413 41.0533 191.359 41.48H158.959C159.173 43.6133 159.786 45.48 160.799 47.08C161.866 48.68 163.199 49.9066 164.799 50.76C166.453 51.56 168.213 51.96 170.079 51.96C172.213 51.96 174.213 51.4533 176.079 50.44C177.999 49.3733 179.306 47.9866 179.999 46.28L189.199 48.84C188.186 50.9733 186.719 52.8666 184.799 54.52C182.933 56.1733 180.719 57.48 178.159 58.44C175.599 59.3466 172.773 59.8 169.679 59.8ZM158.719 34.68H180.639C180.426 32.5466 179.813 30.7066 178.799 29.16C177.839 27.56 176.559 26.3333 174.959 25.48C173.359 24.5733 171.573 24.12 169.599 24.12C167.679 24.12 165.919 24.5733 164.319 25.48C162.773 26.3333 161.493 27.56 160.479 29.16C159.519 30.7066 158.933 32.5466 158.719 34.68Z" fill="#0022D5"/>
<path d="M242.469 59.8C239.215 59.8 236.335 59.08 233.829 57.64C231.375 56.1466 229.455 54.1466 228.069 51.64V76.04H217.349V17.08H226.709V24.28C228.309 21.8266 230.335 19.9066 232.789 18.52C235.242 17.08 238.042 16.36 241.189 16.36C244.015 16.36 246.602 16.92 248.949 18.04C251.349 19.16 253.429 20.7333 255.189 22.76C256.949 24.7333 258.309 27.0266 259.269 29.64C260.282 32.2 260.789 34.9733 260.789 37.96C260.789 42.0133 259.989 45.6933 258.389 49C256.842 52.3066 254.682 54.9466 251.909 56.92C249.189 58.84 246.042 59.8 242.469 59.8ZM238.869 50.68C240.522 50.68 242.015 50.3333 243.349 49.64C244.682 48.9466 245.829 48.0133 246.789 46.84C247.802 45.6133 248.549 44.2533 249.029 42.76C249.562 41.2133 249.829 39.6133 249.829 37.96C249.829 36.2 249.535 34.5733 248.949 33.08C248.415 31.5866 247.615 30.28 246.549 29.16C245.482 27.9866 244.229 27.08 242.789 26.44C241.402 25.8 239.882 25.48 238.229 25.48C237.215 25.48 236.175 25.6666 235.109 26.04C234.095 26.36 233.109 26.84 232.149 27.48C231.189 28.12 230.335 28.8666 229.589 29.72C228.895 30.5733 228.389 31.5066 228.069 32.52V42.36C228.709 43.9066 229.562 45.32 230.629 46.6C231.749 47.88 233.029 48.8933 234.469 49.64C235.909 50.3333 237.375 50.68 238.869 50.68Z" fill="#0022D5"/>
<path d="M293.012 26.36C289.759 26.36 286.852 27 284.292 28.28C281.732 29.5066 279.892 31.2933 278.772 33.64V59H268.052V17.08H277.892V26.04C279.385 23.16 281.279 20.8933 283.572 19.24C285.865 17.5866 288.292 16.68 290.852 16.52C291.439 16.52 291.892 16.52 292.212 16.52C292.532 16.52 292.799 16.5466 293.012 16.6V26.36Z" fill="#0022D5"/>
<path d="M317.802 59.8C314.389 59.8 311.323 59.24 308.603 58.12C305.883 56.9466 303.562 55.3466 301.642 53.32C299.776 51.2933 298.336 48.9733 297.323 46.36C296.309 43.7466 295.802 41 295.802 38.12C295.802 35.1866 296.309 32.4133 297.323 29.8C298.336 27.1866 299.776 24.8666 301.642 22.84C303.562 20.8133 305.883 19.24 308.603 18.12C311.323 16.9466 314.389 16.36 317.802 16.36C321.216 16.36 324.256 16.9466 326.923 18.12C329.643 19.24 331.963 20.8133 333.883 22.84C335.803 24.8666 337.243 27.1866 338.203 29.8C339.216 32.4133 339.723 35.1866 339.723 38.12C339.723 41 339.216 43.7466 338.203 46.36C337.243 48.9733 335.803 51.2933 333.883 53.32C332.016 55.3466 329.723 56.9466 327.003 58.12C324.283 59.24 321.216 59.8 317.802 59.8ZM306.842 38.12C306.842 40.5733 307.323 42.76 308.283 44.68C309.243 46.5466 310.549 48.0133 312.203 49.08C313.856 50.1466 315.722 50.68 317.802 50.68C319.829 50.68 321.669 50.1466 323.323 49.08C324.976 47.96 326.282 46.4666 327.242 44.6C328.256 42.68 328.763 40.4933 328.763 38.04C328.763 35.64 328.256 33.48 327.242 31.56C326.282 29.64 324.976 28.1466 323.323 27.08C321.669 26.0133 319.829 25.48 317.802 25.48C315.722 25.48 313.856 26.04 312.203 27.16C310.549 28.2266 309.243 29.72 308.283 31.64C307.323 33.5066 306.842 35.6666 306.842 38.12Z" fill="#0022D5"/>
<path d="M343.518 74.68C341.545 74.68 339.651 74.36 337.838 73.72C336.025 73.1333 334.371 72.2 332.878 70.92L337.518 63.64C338.105 64.28 338.825 64.7333 339.678 65C340.531 65.2666 341.385 65.4 342.238 65.4C343.198 65.4 344.051 65.16 344.798 64.68C345.598 64.2533 346.211 63.64 346.638 62.84C347.118 62.04 347.358 61.1333 347.358 60.12V17.08H358.078V59.32C358.078 62.3066 357.411 64.9733 356.078 67.32C354.798 69.6666 353.065 71.48 350.878 72.76C348.745 74.04 346.291 74.68 343.518 74.68ZM347.358 11.24V0.599976H358.078V11.24H347.358Z" fill="#0022D5"/>
<path d="M387.258 59.8C383.898 59.8 380.858 59.24 378.138 58.12C375.418 56.9466 373.097 55.3733 371.177 53.4C369.257 51.3733 367.764 49.08 366.698 46.52C365.684 43.9066 365.177 41.16 365.177 38.28C365.177 34.28 366.058 30.6266 367.818 27.32C369.631 24.0133 372.191 21.3733 375.497 19.4C378.857 17.3733 382.804 16.36 387.337 16.36C391.924 16.36 395.844 17.3733 399.098 19.4C402.351 21.3733 404.831 24.0133 406.538 27.32C408.298 30.5733 409.177 34.0933 409.177 37.88C409.177 38.52 409.151 39.1866 409.098 39.88C409.044 40.52 408.991 41.0533 408.938 41.48H376.538C376.751 43.6133 377.364 45.48 378.378 47.08C379.444 48.68 380.778 49.9066 382.378 50.76C384.031 51.56 385.791 51.96 387.658 51.96C389.791 51.96 391.791 51.4533 393.658 50.44C395.578 49.3733 396.884 47.9866 397.578 46.28L406.777 48.84C405.764 50.9733 404.298 52.8666 402.378 54.52C400.511 56.1733 398.297 57.48 395.737 58.44C393.177 59.3466 390.351 59.8 387.258 59.8ZM376.298 34.68H398.217C398.004 32.5466 397.391 30.7066 396.378 29.16C395.418 27.56 394.138 26.3333 392.538 25.48C390.938 24.5733 389.151 24.12 387.177 24.12C385.257 24.12 383.497 24.5733 381.897 25.48C380.351 26.3333 379.071 27.56 378.057 29.16C377.097 30.7066 376.511 32.5466 376.298 34.68Z" fill="#0022D5"/>
<path d="M435.228 59.8C431.815 59.8 428.748 59.24 426.028 58.12C423.308 56.9466 420.988 55.3466 419.068 53.32C417.148 51.24 415.655 48.8933 414.588 46.28C413.575 43.6666 413.068 40.92 413.068 38.04C413.068 34.0933 413.948 30.4933 415.708 27.24C417.521 23.9333 420.081 21.2933 423.388 19.32C426.695 17.3466 430.615 16.36 435.148 16.36C439.681 16.36 443.575 17.3466 446.828 19.32C450.081 21.2933 452.508 23.88 454.108 27.08L443.628 30.28C442.721 28.7333 441.521 27.56 440.028 26.76C438.535 25.9066 436.881 25.48 435.068 25.48C433.041 25.48 431.175 26.0133 429.468 27.08C427.815 28.0933 426.508 29.56 425.548 31.48C424.588 33.3466 424.108 35.5333 424.108 38.04C424.108 40.4933 424.588 42.68 425.548 44.6C426.561 46.4666 427.895 47.96 429.548 49.08C431.201 50.1466 433.041 50.68 435.068 50.68C436.348 50.68 437.548 50.4666 438.668 50.04C439.841 49.6133 440.881 49.0266 441.788 48.28C442.695 47.5333 443.361 46.68 443.788 45.72L454.268 48.92C453.308 51 451.895 52.8666 450.028 54.52C448.215 56.1733 446.055 57.48 443.548 58.44C441.095 59.3466 438.321 59.8 435.228 59.8Z" fill="#0022D5"/>
<path d="M485.984 56.84C485.078 57.2133 483.984 57.64 482.704 58.12C481.424 58.6 480.038 58.9733 478.544 59.24C477.104 59.56 475.638 59.72 474.144 59.72C472.171 59.72 470.358 59.3733 468.704 58.68C467.051 57.9866 465.718 56.8933 464.704 55.4C463.744 53.8533 463.264 51.8533 463.264 49.4V25.32H457.744V17.08H463.264V3.47998H473.984V17.08H482.784V25.32H473.984V45.8C474.038 47.24 474.438 48.28 475.184 48.92C475.931 49.56 476.864 49.88 477.984 49.88C479.104 49.88 480.198 49.6933 481.264 49.32C482.331 48.9466 483.184 48.6266 483.824 48.36L485.984 56.84Z" fill="#0022D5"/>
<path d="M510.706 0.599976H521.426V45.56C521.426 47.48 521.746 48.7866 522.386 49.48C523.026 50.12 523.906 50.44 525.026 50.44C525.88 50.44 526.76 50.3333 527.666 50.12C528.573 49.9066 529.373 49.64 530.066 49.32L531.506 57.48C530.066 58.1733 528.386 58.7066 526.466 59.08C524.546 59.4533 522.813 59.64 521.266 59.64C517.906 59.64 515.293 58.76 513.426 57C511.613 55.1866 510.706 52.6266 510.706 49.32V0.599976Z" fill="#0022D5"/>
<path d="M555.617 59.8C552.257 59.8 549.217 59.24 546.497 58.12C543.777 56.9466 541.457 55.3733 539.537 53.4C537.617 51.3733 536.124 49.08 535.057 46.52C534.044 43.9066 533.537 41.16 533.537 38.28C533.537 34.28 534.417 30.6266 536.177 27.32C537.99 24.0133 540.55 21.3733 543.857 19.4C547.217 17.3733 551.164 16.36 555.697 16.36C560.284 16.36 564.204 17.3733 567.457 19.4C570.71 21.3733 573.19 24.0133 574.897 27.32C576.657 30.5733 577.537 34.0933 577.537 37.88C577.537 38.52 577.51 39.1866 577.457 39.88C577.404 40.52 577.35 41.0533 577.297 41.48H544.897C545.11 43.6133 545.724 45.48 546.737 47.08C547.804 48.68 549.137 49.9066 550.737 50.76C552.39 51.56 554.15 51.96 556.017 51.96C558.15 51.96 560.15 51.4533 562.017 50.44C563.937 49.3733 565.244 47.9866 565.937 46.28L575.137 48.84C574.124 50.9733 572.657 52.8666 570.737 54.52C568.87 56.1733 566.657 57.48 564.097 58.44C561.537 59.3466 558.71 59.8 555.617 59.8ZM544.657 34.68H566.577C566.364 32.5466 565.75 30.7066 564.737 29.16C563.777 27.56 562.497 26.3333 560.897 25.48C559.297 24.5733 557.51 24.12 555.537 24.12C553.617 24.12 551.857 24.5733 550.257 25.48C548.71 26.3333 547.43 27.56 546.417 29.16C545.457 30.7066 544.87 32.5466 544.657 34.68Z" fill="#0022D5"/>
<path d="M581.188 46.6C581.188 43.88 581.934 41.5066 583.427 39.48C584.974 37.4 587.108 35.8 589.828 34.68C592.548 33.56 595.668 33 599.188 33C600.948 33 602.734 33.1333 604.547 33.4C606.361 33.6666 607.934 34.0933 609.268 34.68V32.44C609.268 29.7733 608.467 27.72 606.867 26.28C605.321 24.84 603.001 24.12 599.907 24.12C597.614 24.12 595.427 24.52 593.347 25.32C591.267 26.12 589.081 27.2933 586.787 28.84L583.347 21.8C586.121 19.9866 588.948 18.6266 591.828 17.72C594.761 16.8133 597.828 16.36 601.028 16.36C607.001 16.36 611.641 17.8533 614.948 20.84C618.308 23.8266 619.987 28.0933 619.987 33.64V47C619.987 48.12 620.174 48.92 620.547 49.4C620.974 49.88 621.641 50.1733 622.547 50.28V59C621.587 59.16 620.707 59.2933 619.907 59.4C619.161 59.5066 618.521 59.56 617.987 59.56C615.854 59.56 614.227 59.08 613.107 58.12C612.041 57.16 611.374 55.9866 611.107 54.6L610.867 52.44C609.054 54.7866 606.788 56.6 604.068 57.88C601.348 59.16 598.574 59.8 595.747 59.8C592.974 59.8 590.467 59.24 588.227 58.12C586.041 56.9466 584.308 55.3733 583.028 53.4C581.801 51.3733 581.188 49.1066 581.188 46.6ZM607.268 48.76C607.854 48.12 608.334 47.48 608.708 46.84C609.081 46.2 609.268 45.6133 609.268 45.08V40.84C607.988 40.3066 606.601 39.9066 605.107 39.64C603.614 39.32 602.201 39.16 600.867 39.16C598.094 39.16 595.801 39.7733 593.987 41C592.227 42.1733 591.347 43.7466 591.347 45.72C591.347 46.7866 591.641 47.8 592.227 48.76C592.814 49.72 593.667 50.4933 594.787 51.08C595.907 51.6666 597.241 51.96 598.787 51.96C600.387 51.96 601.961 51.6666 603.508 51.08C605.054 50.44 606.308 49.6666 607.268 48.76Z" fill="#0022D5"/>
<path d="M627.445 38.04C627.445 33.9866 628.245 30.3333 629.845 27.08C631.445 23.7733 633.658 21.16 636.485 19.24C639.312 17.32 642.538 16.36 646.165 16.36C649.258 16.36 652.032 17.1333 654.485 18.68C656.992 20.1733 658.938 22.0933 660.325 24.44V0.599976H671.045V47C671.045 48.12 671.232 48.92 671.605 49.4C671.978 49.88 672.618 50.1733 673.525 50.28V59C671.658 59.3733 670.138 59.56 668.965 59.56C667.045 59.56 665.445 59.08 664.165 58.12C662.938 57.16 662.245 55.9066 662.085 54.36L661.925 51.72C660.378 54.3333 658.272 56.3333 655.605 57.72C652.992 59.1066 650.245 59.8 647.365 59.8C644.485 59.8 641.818 59.24 639.365 58.12C636.965 57 634.858 55.4533 633.045 53.48C631.285 51.5066 629.898 49.2133 628.885 46.6C627.925 43.9333 627.445 41.08 627.445 38.04ZM660.325 43.64V33.64C659.792 32.0933 658.938 30.7066 657.765 29.48C656.592 28.2533 655.285 27.2933 653.845 26.6C652.405 25.8533 650.965 25.48 649.525 25.48C647.872 25.48 646.378 25.8266 645.045 26.52C643.712 27.2133 642.538 28.1466 641.525 29.32C640.565 30.4933 639.818 31.8533 639.285 33.4C638.805 34.9466 638.565 36.5733 638.565 38.28C638.565 39.9866 638.832 41.6133 639.365 43.16C639.952 44.6533 640.778 45.96 641.845 47.08C642.912 48.2 644.138 49.08 645.525 49.72C646.965 50.36 648.512 50.68 650.165 50.68C651.178 50.68 652.192 50.52 653.205 50.2C654.272 49.8266 655.258 49.3466 656.165 48.76C657.125 48.12 657.952 47.3733 658.645 46.52C659.392 45.6133 659.952 44.6533 660.325 43.64Z" fill="#0022D5"/>
<path d="M697.008 59.8C693.434 59.8 690.021 59.2133 686.768 58.04C683.514 56.8666 680.714 55.1333 678.367 52.84L682.208 45.88C684.714 47.9066 687.168 49.4 689.568 50.36C692.021 51.32 694.367 51.8 696.607 51.8C698.687 51.8 700.341 51.4266 701.568 50.68C702.848 49.9333 703.487 48.8133 703.487 47.32C703.487 46.3066 703.141 45.5333 702.448 45C701.754 44.4133 700.741 43.9066 699.407 43.48C698.127 43.0533 696.554 42.5733 694.688 42.04C691.594 41.0266 689.007 40.04 686.927 39.08C684.847 38.12 683.274 36.92 682.208 35.48C681.194 33.9866 680.688 32.0933 680.688 29.8C680.688 27.0266 681.381 24.6533 682.768 22.68C684.208 20.6533 686.181 19.08 688.688 17.96C691.248 16.84 694.234 16.28 697.648 16.28C700.634 16.28 703.461 16.76 706.128 17.72C708.794 18.6266 711.221 20.12 713.408 22.2L709.088 29C706.954 27.3466 704.928 26.1466 703.008 25.4C701.088 24.6 699.141 24.2 697.167 24.2C696.047 24.2 694.981 24.3333 693.968 24.6C693.008 24.8666 692.208 25.32 691.568 25.96C690.981 26.5466 690.688 27.4 690.688 28.52C690.688 29.5333 690.954 30.3333 691.487 30.92C692.074 31.4533 692.927 31.9333 694.047 32.36C695.221 32.7866 696.634 33.2666 698.287 33.8C701.647 34.76 704.474 35.7466 706.768 36.76C709.114 37.7733 710.874 39.0266 712.047 40.52C713.221 41.96 713.807 43.96 713.807 46.52C713.807 50.68 712.287 53.9333 709.247 56.28C706.207 58.6266 702.128 59.8 697.008 59.8Z" fill="#0022D5"/>
<path d="M86.2188 136.84C85.3121 137.213 84.2188 137.64 82.9388 138.12C81.6588 138.6 80.2721 138.973 78.7787 139.24C77.3387 139.56 75.8721 139.72 74.3788 139.72C72.4054 139.72 70.5921 139.373 68.9388 138.68C67.2854 137.987 65.9521 136.893 64.9388 135.4C63.9788 133.853 63.4987 131.853 63.4987 129.4V105.32H57.9787V97.08H63.4987V83.48H74.2188V97.08H83.0188V105.32H74.2188V125.8C74.2721 127.24 74.6721 128.28 75.4187 128.92C76.1654 129.56 77.0988 129.88 78.2188 129.88C79.3387 129.88 80.4321 129.693 81.4987 129.32C82.5654 128.947 83.4188 128.627 84.0588 128.36L86.2188 136.84Z" fill="#0022D5"/>
<path d="M110.693 139.8C107.28 139.8 104.213 139.24 101.493 138.12C98.7731 136.947 96.4531 135.347 94.5331 133.32C92.6665 131.293 91.2265 128.973 90.2131 126.36C89.1998 123.747 88.6931 121 88.6931 118.12C88.6931 115.187 89.1998 112.413 90.2131 109.8C91.2265 107.187 92.6665 104.867 94.5331 102.84C96.4531 100.813 98.7731 99.24 101.493 98.12C104.213 96.9466 107.28 96.36 110.693 96.36C114.106 96.36 117.146 96.9466 119.813 98.12C122.533 99.24 124.853 100.813 126.773 102.84C128.693 104.867 130.133 107.187 131.093 109.8C132.106 112.413 132.613 115.187 132.613 118.12C132.613 121 132.106 123.747 131.093 126.36C130.133 128.973 128.693 131.293 126.773 133.32C124.906 135.347 122.613 136.947 119.893 138.12C117.173 139.24 114.106 139.8 110.693 139.8ZM99.7331 118.12C99.7331 120.573 100.213 122.76 101.173 124.68C102.133 126.547 103.44 128.013 105.093 129.08C106.746 130.147 108.613 130.68 110.693 130.68C112.72 130.68 114.56 130.147 116.213 129.08C117.866 127.96 119.173 126.467 120.133 124.6C121.146 122.68 121.653 120.493 121.653 118.04C121.653 115.64 121.146 113.48 120.133 111.56C119.173 109.64 117.866 108.147 116.213 107.08C114.56 106.013 112.72 105.48 110.693 105.48C108.613 105.48 106.746 106.04 105.093 107.16C103.44 108.227 102.133 109.72 101.173 111.64C100.213 113.507 99.7331 115.667 99.7331 118.12Z" fill="#0022D5"/>
<path d="M156.188 126.6C156.188 123.88 156.934 121.507 158.428 119.48C159.974 117.4 162.107 115.8 164.827 114.68C167.548 113.56 170.668 113 174.188 113C175.948 113 177.734 113.133 179.548 113.4C181.361 113.667 182.934 114.093 184.268 114.68V112.44C184.268 109.773 183.468 107.72 181.868 106.28C180.321 104.84 178.001 104.12 174.908 104.12C172.614 104.12 170.428 104.52 168.348 105.32C166.268 106.12 164.081 107.293 161.788 108.84L158.348 101.8C161.121 99.9866 163.947 98.6266 166.827 97.72C169.761 96.8133 172.827 96.36 176.027 96.36C182.001 96.36 186.641 97.8533 189.948 100.84C193.308 103.827 194.988 108.093 194.988 113.64V127C194.988 128.12 195.174 128.92 195.548 129.4C195.974 129.88 196.641 130.173 197.548 130.28V139C196.588 139.16 195.708 139.293 194.908 139.4C194.161 139.507 193.521 139.56 192.988 139.56C190.854 139.56 189.227 139.08 188.107 138.12C187.041 137.16 186.374 135.987 186.107 134.6L185.868 132.44C184.054 134.787 181.788 136.6 179.068 137.88C176.348 139.16 173.574 139.8 170.747 139.8C167.974 139.8 165.467 139.24 163.227 138.12C161.041 136.947 159.307 135.373 158.027 133.4C156.801 131.373 156.188 129.107 156.188 126.6ZM182.268 128.76C182.854 128.12 183.334 127.48 183.708 126.84C184.081 126.2 184.268 125.613 184.268 125.08V120.84C182.988 120.307 181.601 119.907 180.107 119.64C178.614 119.32 177.201 119.16 175.868 119.16C173.094 119.16 170.801 119.773 168.988 121C167.228 122.173 166.348 123.747 166.348 125.72C166.348 126.787 166.641 127.8 167.227 128.76C167.814 129.72 168.668 130.493 169.788 131.08C170.908 131.667 172.241 131.96 173.788 131.96C175.388 131.96 176.961 131.667 178.508 131.08C180.054 130.44 181.308 129.667 182.268 128.76Z" fill="#0022D5"/>
<path d="M243.965 139H233.245V115.48C233.245 112.12 232.658 109.667 231.485 108.12C230.312 106.573 228.685 105.8 226.605 105.8C225.165 105.8 223.698 106.173 222.205 106.92C220.765 107.667 219.458 108.707 218.285 110.04C217.112 111.32 216.258 112.813 215.725 114.52V139H205.005V97.08H214.685V104.84C215.752 103.027 217.112 101.507 218.765 100.28C220.418 99 222.312 98.04 224.445 97.4C226.632 96.7066 228.925 96.36 231.325 96.36C233.938 96.36 236.072 96.84 237.725 97.8C239.432 98.7066 240.712 99.96 241.565 101.56C242.472 103.107 243.085 104.867 243.405 106.84C243.778 108.813 243.965 110.813 243.965 112.84V139Z" fill="#0022D5"/>
<path d="M272.646 139.8C269.233 139.8 266.166 139.24 263.446 138.12C260.726 136.947 258.406 135.347 256.486 133.32C254.62 131.293 253.18 128.973 252.166 126.36C251.153 123.747 250.646 121 250.646 118.12C250.646 115.187 251.153 112.413 252.166 109.8C253.18 107.187 254.62 104.867 256.486 102.84C258.406 100.813 260.726 99.24 263.446 98.12C266.166 96.9466 269.233 96.36 272.646 96.36C276.06 96.36 279.1 96.9466 281.766 98.12C284.486 99.24 286.806 100.813 288.726 102.84C290.646 104.867 292.086 107.187 293.046 109.8C294.06 112.413 294.566 115.187 294.566 118.12C294.566 121 294.06 123.747 293.046 126.36C292.086 128.973 290.646 131.293 288.726 133.32C286.86 135.347 284.566 136.947 281.846 138.12C279.126 139.24 276.06 139.8 272.646 139.8ZM261.686 118.12C261.686 120.573 262.166 122.76 263.126 124.68C264.086 126.547 265.393 128.013 267.046 129.08C268.7 130.147 270.566 130.68 272.646 130.68C274.673 130.68 276.513 130.147 278.166 129.08C279.82 127.96 281.126 126.467 282.086 124.6C283.1 122.68 283.606 120.493 283.606 118.04C283.606 115.64 283.1 113.48 282.086 111.56C281.126 109.64 279.82 108.147 278.166 107.08C276.513 106.013 274.673 105.48 272.646 105.48C270.566 105.48 268.7 106.04 267.046 107.16C265.393 108.227 264.086 109.72 263.126 111.64C262.166 113.507 261.686 115.667 261.686 118.12Z" fill="#0022D5"/>
<path d="M326.297 136.84C325.39 137.213 324.297 137.64 323.017 138.12C321.737 138.6 320.35 138.973 318.857 139.24C317.417 139.56 315.95 139.72 314.457 139.72C312.484 139.72 310.67 139.373 309.017 138.68C307.364 137.987 306.03 136.893 305.017 135.4C304.057 133.853 303.577 131.853 303.577 129.4V105.32H298.057V97.08H303.577V83.48H314.297V97.08H323.097V105.32H314.297V125.8C314.35 127.24 314.75 128.28 315.497 128.92C316.244 129.56 317.177 129.88 318.297 129.88C319.417 129.88 320.51 129.693 321.577 129.32C322.644 128.947 323.497 128.627 324.137 128.36L326.297 136.84Z" fill="#0022D5"/>
<path d="M370.84 139H360.12V115.48C360.12 112.227 359.48 109.8 358.2 108.2C356.973 106.6 355.267 105.8 353.08 105.8C351.8 105.8 350.44 106.173 349 106.92C347.56 107.667 346.253 108.707 345.08 110.04C343.96 111.32 343.133 112.813 342.6 114.52V139H331.88V80.6H342.6V104.84C344.147 102.173 346.253 100.093 348.92 98.6C351.587 97.1066 354.493 96.36 357.64 96.36C360.36 96.36 362.573 96.84 364.28 97.8C365.987 98.7066 367.32 99.96 368.28 101.56C369.24 103.107 369.907 104.867 370.28 106.84C370.653 108.76 370.84 110.76 370.84 112.84V139Z" fill="#0022D5"/>
<path d="M399.601 139.8C396.241 139.8 393.201 139.24 390.481 138.12C387.761 136.947 385.441 135.373 383.521 133.4C381.601 131.373 380.108 129.08 379.041 126.52C378.028 123.907 377.521 121.16 377.521 118.28C377.521 114.28 378.401 110.627 380.161 107.32C381.975 104.013 384.535 101.373 387.841 99.4C391.201 97.3733 395.148 96.36 399.681 96.36C404.268 96.36 408.188 97.3733 411.441 99.4C414.695 101.373 417.175 104.013 418.881 107.32C420.641 110.573 421.521 114.093 421.521 117.88C421.521 118.52 421.495 119.187 421.441 119.88C421.388 120.52 421.335 121.053 421.281 121.48H388.881C389.095 123.613 389.708 125.48 390.721 127.08C391.788 128.68 393.121 129.907 394.721 130.76C396.375 131.56 398.135 131.96 400.001 131.96C402.135 131.96 404.135 131.453 406.001 130.44C407.921 129.373 409.228 127.987 409.921 126.28L419.121 128.84C418.108 130.973 416.641 132.867 414.721 134.52C412.855 136.173 410.641 137.48 408.081 138.44C405.521 139.347 402.695 139.8 399.601 139.8ZM388.641 114.68H410.561C410.348 112.547 409.735 110.707 408.721 109.16C407.761 107.56 406.481 106.333 404.881 105.48C403.281 104.573 401.495 104.12 399.521 104.12C397.601 104.12 395.841 104.573 394.241 105.48C392.695 106.333 391.415 107.56 390.401 109.16C389.441 110.707 388.855 112.547 388.641 114.68Z" fill="#0022D5"/>
<path d="M453.012 106.36C449.759 106.36 446.852 107 444.292 108.28C441.732 109.507 439.892 111.293 438.772 113.64V139H428.052V97.08H437.892V106.04C439.385 103.16 441.279 100.893 443.572 99.24C445.865 97.5866 448.292 96.68 450.852 96.52C451.439 96.52 451.892 96.52 452.212 96.52C452.532 96.52 452.799 96.5466 453.012 96.6V106.36Z" fill="#0022D5"/>
<path d="M451.981 148.2L454.141 138.68H450.781V127.48H460.061V138.68L456.781 148.2H451.981Z" fill="#0022D5"/>
</svg>
