<svg width="476" height="69" viewBox="0 0 476 69" fill="none" xmlns="http://www.w3.org/2000/svg">
<path d="M19.68 68.8C16.2667 68.8 13.0933 68.24 10.16 67.12C7.22667 66 4.69333 64.2933 2.56 62L4.8 58.16C7.14667 60.3467 9.49333 61.9467 11.84 62.96C14.24 63.92 16.7733 64.4 19.44 64.4C22.6933 64.4 25.3333 63.76 27.36 62.48C29.3867 61.1467 30.4 59.2533 30.4 56.8C30.4 55.1467 29.8933 53.8933 28.88 53.04C27.92 52.1333 26.5067 51.4133 24.64 50.88C22.8267 50.2933 20.64 49.68 18.08 49.04C15.2 48.24 12.7733 47.4133 10.8 46.56C8.88 45.6533 7.41333 44.5333 6.4 43.2C5.44 41.8133 4.96 40.0267 4.96 37.84C4.96 35.12 5.62667 32.88 6.96 31.12C8.34667 29.3067 10.2133 27.9467 12.56 27.04C14.96 26.08 17.6267 25.6 20.56 25.6C23.76 25.6 26.5867 26.1067 29.04 27.12C31.4933 28.1333 33.4933 29.5467 35.04 31.36L32.4 35.04C30.9067 33.3333 29.12 32.08 27.04 31.28C25.0133 30.4267 22.7467 30 20.24 30C18.5333 30 16.9067 30.24 15.36 30.72C13.8133 31.1467 12.5333 31.8933 11.52 32.96C10.56 33.9733 10.08 35.3867 10.08 37.2C10.08 38.6933 10.4533 39.8667 11.2 40.72C11.9467 41.52 13.0667 42.2133 14.56 42.8C16.0533 43.3333 17.8933 43.92 20.08 44.56C23.2267 45.4133 25.9733 46.2933 28.32 47.2C30.6667 48.0533 32.48 49.1733 33.76 50.56C35.04 51.9467 35.68 53.8933 35.68 56.4C35.68 60.2933 34.2133 63.3333 31.28 65.52C28.3467 67.7067 24.48 68.8 19.68 68.8ZM62.7519 68.8C59.7119 68.8 56.9119 68.24 54.3519 67.12C51.8452 65.9467 49.6319 64.3467 47.7119 62.32C45.8452 60.2933 44.3785 57.9733 43.3119 55.36C42.2985 52.7467 41.7919 49.9733 41.7919 47.04C41.7919 43.0933 42.6719 39.4933 44.4319 36.24C46.1919 32.9867 48.6452 30.4 51.7919 28.48C54.9385 26.56 58.5652 25.6 62.6719 25.6C66.5652 25.6 70.0052 26.5067 72.9919 28.32C75.9785 30.08 78.1919 32.48 79.6319 35.52L74.3519 37.2C73.1785 35.0667 71.5252 33.4133 69.3919 32.24C67.3119 31.0133 64.9919 30.4 62.4319 30.4C59.6585 30.4 57.1252 31.12 54.8319 32.56C52.5385 34 50.6985 35.9733 49.3119 38.48C47.9785 40.9867 47.3119 43.84 47.3119 47.04C47.3119 50.1867 48.0052 53.04 49.3919 55.6C50.7785 58.16 52.6185 60.2133 54.9119 61.76C57.2052 63.2533 59.7385 64 62.5119 64C64.3252 64 66.0585 63.68 67.7119 63.04C69.4185 62.4 70.8852 61.5467 72.1119 60.48C73.3919 59.36 74.2452 58.16 74.6719 56.88L80.0319 58.48C79.2852 60.4533 78.0319 62.24 76.2719 63.84C74.5652 65.3867 72.5385 66.6133 70.1919 67.52C67.8985 68.3733 65.4185 68.8 62.7519 68.8ZM109.378 31.12C105.751 31.2267 102.551 32.24 99.7781 34.16C97.0581 36.08 95.1381 38.72 94.0181 42.08V68H88.5781V26.32H93.6981V36.32C95.1381 33.3867 97.0315 31.0133 99.3781 29.2C101.778 27.3867 104.311 26.3733 106.978 26.16C107.511 26.1067 107.965 26.08 108.338 26.08C108.765 26.08 109.111 26.1067 109.378 26.16V31.12ZM133.057 68.8C130.07 68.8 127.297 68.24 124.737 67.12C122.23 65.9467 120.044 64.3733 118.177 62.4C116.364 60.3733 114.95 58.08 113.937 55.52C112.924 52.9067 112.417 50.16 112.417 47.28C112.417 44.2933 112.924 41.52 113.937 38.96C114.95 36.3467 116.39 34.0533 118.257 32.08C120.124 30.0533 122.31 28.48 124.817 27.36C127.377 26.1867 130.15 25.6 133.137 25.6C136.124 25.6 138.87 26.1867 141.377 27.36C143.884 28.48 146.07 30.0533 147.937 32.08C149.804 34.0533 151.244 36.3467 152.257 38.96C153.27 41.52 153.777 44.2933 153.777 47.28C153.777 50.16 153.27 52.9067 152.257 55.52C151.244 58.08 149.804 60.3733 147.937 62.4C146.124 64.3733 143.937 65.9467 141.377 67.12C138.87 68.24 136.097 68.8 133.057 68.8ZM117.937 47.36C117.937 50.4533 118.604 53.28 119.937 55.84C121.324 58.3467 123.164 60.3467 125.457 61.84C127.75 63.28 130.284 64 133.057 64C135.83 64 138.364 63.2533 140.657 61.76C142.95 60.2667 144.79 58.24 146.177 55.68C147.564 53.0667 148.257 50.24 148.257 47.2C148.257 44.1067 147.564 41.28 146.177 38.72C144.79 36.16 142.95 34.1333 140.657 32.64C138.364 31.1467 135.83 30.4 133.057 30.4C130.284 30.4 127.75 31.1733 125.457 32.72C123.217 34.2667 121.404 36.32 120.017 38.88C118.63 41.3867 117.937 44.2133 117.937 47.36ZM163.115 9.6H168.555V58.56C168.555 60.64 168.928 62 169.675 62.64C170.422 63.28 171.328 63.6 172.395 63.6C173.355 63.6 174.315 63.4933 175.275 63.28C176.235 63.0667 177.062 62.8533 177.755 62.64L178.715 67.04C177.702 67.4667 176.448 67.8133 174.955 68.08C173.515 68.3467 172.262 68.48 171.195 68.48C168.742 68.48 166.768 67.76 165.275 66.32C163.835 64.88 163.115 62.9067 163.115 60.4V9.6ZM184.912 9.6H190.352V58.56C190.352 60.64 190.725 62 191.472 62.64C192.219 63.28 193.125 63.6 194.192 63.6C195.152 63.6 196.112 63.4933 197.072 63.28C198.032 63.0667 198.859 62.8533 199.552 62.64L200.512 67.04C199.499 67.4667 198.245 67.8133 196.752 68.08C195.312 68.3467 194.059 68.48 192.992 68.48C190.539 68.48 188.565 67.76 187.072 66.32C185.632 64.88 184.912 62.9067 184.912 60.4V9.6ZM221.638 47.28C221.638 43.3333 222.438 39.7333 224.038 36.48C225.691 33.1733 227.958 30.5333 230.838 28.56C233.718 26.5867 236.998 25.6 240.678 25.6C244.144 25.6 247.238 26.5333 249.958 28.4C252.731 30.2133 254.891 32.4267 256.438 35.04V9.6H261.878V61.44C261.878 62.1867 262.038 62.7467 262.358 63.12C262.678 63.44 263.158 63.6267 263.798 63.68V68C262.731 68.16 261.904 68.2133 261.318 68.16C260.198 68.1067 259.211 67.6533 258.358 66.8C257.504 65.9467 257.078 65.0133 257.078 64V59.92C255.424 62.64 253.184 64.8 250.358 66.4C247.531 68 244.598 68.8 241.558 68.8C238.678 68.8 236.011 68.2133 233.558 67.04C231.158 65.8667 229.051 64.2667 227.238 62.24C225.478 60.2133 224.091 57.92 223.078 55.36C222.118 52.7467 221.638 50.0533 221.638 47.28ZM256.438 53.68V40.8C255.744 38.88 254.624 37.1467 253.078 35.6C251.531 34 249.771 32.7467 247.798 31.84C245.878 30.88 243.958 30.4 242.038 30.4C239.798 30.4 237.771 30.88 235.958 31.84C234.144 32.7467 232.571 34 231.238 35.6C229.958 37.2 228.971 39.0133 228.278 41.04C227.584 43.0667 227.238 45.1467 227.238 47.28C227.238 49.52 227.611 51.6533 228.358 53.68C229.158 55.7067 230.278 57.52 231.718 59.12C233.158 60.6667 234.811 61.8667 236.678 62.72C238.544 63.5733 240.571 64 242.758 64C244.144 64 245.584 63.7333 247.078 63.2C248.571 62.6667 249.984 61.9467 251.318 61.04C252.704 60.08 253.851 58.96 254.758 57.68C255.664 56.4 256.224 55.0667 256.438 53.68ZM291.963 68.8C288.976 68.8 286.203 68.24 283.643 67.12C281.136 65.9467 278.95 64.3733 277.083 62.4C275.27 60.3733 273.856 58.08 272.843 55.52C271.83 52.9067 271.323 50.16 271.323 47.28C271.323 44.2933 271.83 41.52 272.843 38.96C273.856 36.3467 275.296 34.0533 277.163 32.08C279.03 30.0533 281.216 28.48 283.723 27.36C286.283 26.1867 289.056 25.6 292.043 25.6C295.03 25.6 297.776 26.1867 300.283 27.36C302.79 28.48 304.976 30.0533 306.843 32.08C308.71 34.0533 310.15 36.3467 311.163 38.96C312.176 41.52 312.683 44.2933 312.683 47.28C312.683 50.16 312.176 52.9067 311.163 55.52C310.15 58.08 308.71 60.3733 306.843 62.4C305.03 64.3733 302.843 65.9467 300.283 67.12C297.776 68.24 295.003 68.8 291.963 68.8ZM276.843 47.36C276.843 50.4533 277.51 53.28 278.843 55.84C280.23 58.3467 282.07 60.3467 284.363 61.84C286.656 63.28 289.19 64 291.963 64C294.736 64 297.27 63.2533 299.563 61.76C301.856 60.2667 303.696 58.24 305.083 55.68C306.47 53.0667 307.163 50.24 307.163 47.2C307.163 44.1067 306.47 41.28 305.083 38.72C303.696 36.16 301.856 34.1333 299.563 32.64C297.27 31.1467 294.736 30.4 291.963 30.4C289.19 30.4 286.656 31.1733 284.363 32.72C282.123 34.2667 280.31 36.32 278.923 38.88C277.536 41.3867 276.843 44.2133 276.843 47.36ZM372.855 26.32H378.215L360.295 68H355.575L346.855 47.28L338.215 68H333.495L315.575 26.32H320.855L336.055 62.4L343.735 43.6L336.695 26.4H341.575L346.855 39.92L352.215 26.4H357.015L350.055 43.6L357.735 62.4L372.855 26.32ZM420.493 68H415.053V44.72C415.053 39.8133 414.333 36.24 412.893 34C411.453 31.7067 409.186 30.56 406.093 30.56C403.96 30.56 401.853 31.0933 399.773 32.16C397.693 33.1733 395.853 34.5867 394.253 36.4C392.706 38.16 391.586 40.1867 390.893 42.48V68H385.453V26.32H390.413V35.76C391.533 33.7333 393 31.9733 394.813 30.48C396.626 28.9333 398.68 27.7333 400.973 26.88C403.266 26.0267 405.64 25.6 408.093 25.6C410.386 25.6 412.333 26.0267 413.933 26.88C415.533 27.7333 416.813 28.96 417.773 30.56C418.733 32.1067 419.426 34 419.853 36.24C420.28 38.4267 420.493 40.88 420.493 43.6V68Z" fill="#0022D4"/>
<path d="M459.586 67.4142C460.367 68.1953 461.633 68.1953 462.414 67.4142L475.142 54.6863C475.923 53.9052 475.923 52.6389 475.142 51.8579C474.361 51.0768 473.095 51.0768 472.314 51.8579L461 63.1716L449.686 51.8579C448.905 51.0768 447.639 51.0768 446.858 51.8579C446.077 52.6389 446.077 53.9052 446.858 54.6863L459.586 67.4142ZM459 24L459 66L463 66L463 24L459 24Z" fill="#0022D5"/>
</svg>
