<?xml version="1.0" encoding="UTF-8"?>
<svg id="Livello_1" data-name="Livello 1" xmlns="http://www.w3.org/2000/svg" xmlns:xlink="http://www.w3.org/1999/xlink" viewBox="0 0 53 47">
  <defs>
    <style>
      .cls-1, .cls-2 {
        fill: none;
      }

      .cls-3 {
        clip-path: url(#clippath);
      }

      .cls-4 {
        fill: #0022d5;
      }

      .cls-5 {
        fill: #fffcf9;
      }

      .cls-6 {
        fill: #fff;
      }

      .cls-2 {
        stroke: #ff7a00;
        stroke-miterlimit: 10;
      }
    </style>
    <clipPath id="clippath">
      <polygon class="cls-1" points="57.52468 7.95366 27 34 12 22 47.544 -3.91376 57.52468 7.95366"/>
    </clipPath>
  </defs>
  <g>
    <g>
      <path class="cls-5" d="m47.5,18.09v26.1c0,1-.81,1.81-1.81,1.81H6.98c-.99,0-1.8-.81-1.8-1.81v-26.1c0-.26.06-.51.16-.74l20.3,16.26c.41.33.99.33,1.39,0l20.31-16.26c.1.23.16.48.16.74Z"/>
      <path class="cls-5" d="m47.34,17.35l-20.31,16.26c-.4.33-.98.33-1.39,0L5.34,17.35c.12-.26.29-.49.52-.67L25.21,1.19c.66-.52,1.6-.52,2.26,0l19.35,15.49c.23.18.4.41.52.67Z"/>
    </g>
    <g>
      <path class="cls-2" d="m47.34,17.35c.1.23.16.48.16.74v26.1c0,1-.81,1.81-1.81,1.81H6.98c-.99,0-1.8-.81-1.8-1.81v-26.1c0-.26.06-.51.16-.74.12-.26.29-.49.52-.67L25.21,1.19c.66-.52,1.6-.52,2.26,0l19.35,15.49c.23.18.4.41.52.67Z"/>
      <path class="cls-2" d="m5.18,17.22l.16.13,20.3,16.26c.41.33.99.33,1.39,0l20.31-16.26.16-.13"/>
    </g>
  </g>
  <line class="cls-2" x1="25.46484" y1="33.40144" x2="5.54275" y2="45.27193"/>
  <line class="cls-2" x1="26.855" y1="33.40144" x2="47.13561" y2="45.27193"/>
  <g class="cls-3">
    <g>
      <rect class="cls-4" x="12.19788" y="12.55151" width="43" height="12" rx="5.99999" ry="5.99999" transform="translate(-4.03249 26.04318) rotate(-40.06434)"/>
      <g>
        <path class="cls-6" d="m25.05957,24.48535c-.05762-.0083-.11816-.00977-.18066-.00293s-.12695.02051-.19336.04297c-.06641.02148-.13281.05029-.19922.08594-.06738.03564-.13281.08057-.19727.13428-.18457.15527-.29102.30518-.31836.44873-.02734.14307.01172.27539.11328.39648.07031.0835.14453.13232.22656.14551.08008.01367.17773-.00195.29004-.0459.1123-.04297.25-.10693.41211-.18896.17773-.09521.33984-.16699.4873-.21582.14648-.04736.2793-.05957.40234-.03564.12305.02441.2373.10059.34375.22754.08203.09766.13477.19775.15625.30127.02344.10352.01953.20703-.00781.31201-.02734.10449-.07812.20752-.15234.30908s-.16797.19922-.2793.29297c-.10938.0918-.22363.16895-.34375.23047-.11914.06201-.24219.10742-.37109.13867-.12695.03076-.25781.04346-.39453.03857l-.03906-.25781c.07227.00781.14844.00732.23047-.00195.08203-.00977.16797-.02783.25586-.0542.08691-.02686.17578-.06348.26367-.11182.08594-.04785.16992-.10498.24902-.17188.16895-.14258.27539-.28418.31836-.42529.04199-.1416.0127-.27197-.08887-.39307-.07422-.0874-.15625-.1377-.24805-.15039s-.20117.00439-.32422.05127c-.12402.04639-.26953.11279-.43555.19824-.17578.08936-.33203.15674-.46875.19971-.13672.04395-.25977.05273-.36719.02734-.10938-.02637-.21094-.0957-.30664-.20898-.10938-.13135-.16992-.26953-.18164-.41406-.01172-.14502.01953-.28857.09375-.43066s.18555-.27539.33203-.39893c.09375-.07861.18945-.14307.28516-.19141.09766-.04883.19531-.08447.29297-.10645.09961-.02148.20117-.03125.30664-.02734l.03809.25244Z"/>
        <path class="cls-6" d="m28.35156,24.34326l.15527.18506-1.4248,1.19824-1.7832-2.12012,1.39844-1.17529.15527.18506-1.18848.99902.64258.76465,1.03711-.87109.14746.17578-1.03613.87109.68066.80957,1.21582-1.02197Z"/>
        <path class="cls-6" d="m27.65137,22.28564l1.45898,1.73535-.20996.17578-1.78223-2.12012.17285-.14551,2.87891.59717-1.48438-1.76514.20898-.17578,1.78027,2.11768-.19434.16357-2.8291-.58301Z"/>
        <path class="cls-6" d="m31.20703,22.2583l-1.7832-2.12012.71973-.60547c.22461-.18945.45215-.30029.68164-.33154.22949-.03174.4502.00049.66016.09717.21094.09619.39746.24219.56152.43701.18164.21533.29688.4375.34863.6665.05176.22852.03809.4502-.04199.66602-.07715.21582-.2207.41064-.42773.58496l-.71875.60547Zm.63086-2.34717c-.1416-.16895-.29883-.29297-.47266-.37158s-.35156-.10498-.5332-.0791-.36035.11182-.5332.25732l-.51074.4292,1.47168,1.75.51074-.4292c.1748-.14746.29004-.31055.34473-.48877.05273-.17773.05566-.35889.00586-.54297-.04883-.18457-.14355-.35938-.2832-.5249Z"/>
        <path class="cls-6" d="m35.37109,18.43945l.15625.18506-1.4248,1.19775-1.78223-2.12012,1.39648-1.17529.15625.18506-1.18945.99951.64355.76465,1.03613-.87109.14844.17578-1.03711.87109.68164.80957,1.21484-1.02197Z"/>
        <path class="cls-6" d="m35.22852,17.646l-.15723-.18799.87207-.7334.1582.18799-.87305.7334Z"/>
        <path class="cls-6" d="m39.04492,15.66602l-1.45215-1.72607.36035,1.98584-.13086.11084-1.89844-.69287,1.45117,1.72607-.20898.17578-1.78223-2.12012.21582-.18115,2.04688.75586-.3877-2.15186.21191-.17822,1.7832,2.12012-.20898.17578Z"/>
        <path class="cls-6" d="m38.65918,12.37061l.17676-.14844,2.66406,1.37939-.22168.18555-.82227-.43994-.96973.81494.29297.88623-.22461.18799-.89551-2.86572Zm1.59277.86768l-1.30078-.6958.46289,1.40039.83789-.70459Z"/>
        <path class="cls-6" d="m41.80371,13.34521l-1.78223-2.12012.20898-.17578,1.7832,2.12012-.20996.17578Z"/>
        <path class="cls-6" d="m42.54395,12.72266l-1.78223-2.12012.20898-.17578,1.62695,1.93506,1.22461-1.02979.15527.18506-1.43359,1.20557Z"/>
      </g>
    </g>
  </g>
</svg>