<svg width="412" height="138" viewBox="0 0 412 138" fill="none" xmlns="http://www.w3.org/2000/svg">
<rect y="13" width="202" height="37" fill="white"/>
<rect y="88" width="374" height="49" fill="white"/>
<path d="M50.152 41H45.928V26.984C45.928 24.328 45.512 22.392 44.68 21.176C43.88 19.928 42.648 19.304 40.984 19.304C39.832 19.304 38.68 19.592 37.528 20.168C36.408 20.744 35.4 21.528 34.504 22.52C33.64 23.48 33.016 24.6 32.632 25.88V41H28.408V15.944H32.248V21.32C32.92 20.136 33.784 19.112 34.84 18.248C35.896 17.384 37.096 16.712 38.44 16.232C39.784 15.752 41.192 15.512 42.664 15.512C44.104 15.512 45.304 15.784 46.264 16.328C47.256 16.84 48.024 17.576 48.568 18.536C49.144 19.464 49.544 20.568 49.768 21.848C50.024 23.128 50.152 24.52 50.152 26.024V41ZM67.8085 41.48C65.9205 41.48 64.1925 41.144 62.6245 40.472C61.0885 39.768 59.7445 38.824 58.5925 37.64C57.4725 36.424 56.5925 35.032 55.9525 33.464C55.3445 31.896 55.0405 30.232 55.0405 28.472C55.0405 26.104 55.5845 23.944 56.6725 21.992C57.7605 20.04 59.2645 18.472 61.1845 17.288C63.1365 16.104 65.3605 15.512 67.8565 15.512C70.3845 15.512 72.5765 16.12 74.4325 17.336C76.3205 18.52 77.7765 20.088 78.8005 22.04C79.8565 23.96 80.3845 26.04 80.3845 28.28C80.3845 28.6 80.3685 28.92 80.3365 29.24C80.3365 29.528 80.3205 29.752 80.2885 29.912H59.5045C59.6325 31.544 60.0805 33 60.8485 34.28C61.6485 35.528 62.6725 36.52 63.9205 37.256C65.1685 37.96 66.5125 38.312 67.9525 38.312C69.4885 38.312 70.9285 37.928 72.2725 37.16C73.6485 36.392 74.5925 35.384 75.1045 34.136L78.7525 35.144C78.2085 36.36 77.3925 37.448 76.3045 38.408C75.2485 39.368 73.9845 40.12 72.5125 40.664C71.0725 41.208 69.5045 41.48 67.8085 41.48ZM59.3605 26.984H76.4485C76.3205 25.352 75.8565 23.912 75.0565 22.664C74.2565 21.416 73.2325 20.44 71.9845 19.736C70.7365 19.032 69.3605 18.68 67.8565 18.68C66.3845 18.68 65.0245 19.032 63.7765 19.736C62.5285 20.44 61.5045 21.416 60.7045 22.664C59.9365 23.912 59.4885 25.352 59.3605 26.984ZM97.8055 39.752C97.4535 39.912 96.9735 40.12 96.3655 40.376C95.7575 40.632 95.0535 40.856 94.2535 41.048C93.4535 41.24 92.6055 41.336 91.7095 41.336C90.6855 41.336 89.7415 41.16 88.8775 40.808C88.0135 40.424 87.3255 39.848 86.8135 39.08C86.3015 38.28 86.0455 37.288 86.0455 36.104V19.256H82.6375V15.944H86.0455V7.592H90.2695V15.944H95.8855V19.256H90.2695V34.808C90.3335 35.704 90.6375 36.376 91.1815 36.824C91.7255 37.24 92.3655 37.448 93.1015 37.448C93.9335 37.448 94.7015 37.304 95.4055 37.016C96.1095 36.728 96.5735 36.52 96.7975 36.392L97.8055 39.752ZM133.113 15.944H137.193L126.536 41H122.841L117.993 29.192L113.193 41H109.497L98.8405 15.944H102.873L111.513 36.824L115.545 26.552L111.321 15.992H115.017L117.993 23.96L120.969 15.992H124.665L120.489 26.552L124.521 36.824L133.113 15.944ZM151.243 41.48C149.355 41.48 147.643 41.144 146.107 40.472C144.571 39.768 143.243 38.824 142.123 37.64C141.003 36.424 140.139 35.032 139.531 33.464C138.923 31.896 138.619 30.248 138.619 28.52C138.619 26.76 138.923 25.096 139.531 23.528C140.139 21.96 141.003 20.584 142.123 19.4C143.243 18.184 144.571 17.24 146.107 16.568C147.675 15.864 149.387 15.512 151.243 15.512C153.131 15.512 154.843 15.864 156.379 16.568C157.915 17.24 159.243 18.184 160.363 19.4C161.515 20.584 162.395 21.96 163.003 23.528C163.611 25.096 163.915 26.76 163.915 28.52C163.915 30.248 163.611 31.896 163.003 33.464C162.395 35.032 161.531 36.424 160.411 37.64C159.291 38.824 157.947 39.768 156.379 40.472C154.843 41.144 153.131 41.48 151.243 41.48ZM142.939 28.568C142.939 30.296 143.307 31.864 144.043 33.272C144.811 34.68 145.819 35.8 147.067 36.632C148.315 37.432 149.707 37.832 151.243 37.832C152.779 37.832 154.171 37.416 155.419 36.584C156.699 35.752 157.707 34.632 158.443 33.224C159.211 31.784 159.595 30.2 159.595 28.472C159.595 26.744 159.211 25.176 158.443 23.768C157.707 22.36 156.699 21.24 155.419 20.408C154.171 19.576 152.779 19.16 151.243 19.16C149.707 19.16 148.315 19.592 147.067 20.456C145.819 21.288 144.811 22.408 144.043 23.816C143.307 25.224 142.939 26.808 142.939 28.568ZM182.281 19.64C180.169 19.672 178.297 20.216 176.665 21.272C175.065 22.296 173.929 23.72 173.257 25.544V41H169.033V15.944H172.969V21.752C173.833 20.024 174.969 18.632 176.377 17.576C177.817 16.488 179.321 15.88 180.889 15.752C181.209 15.752 181.481 15.752 181.705 15.752C181.929 15.752 182.121 15.768 182.281 15.8V19.64ZM204.135 41L195.447 28.808L190.695 33.272V41H186.471V5.96H190.695V28.856L203.655 15.992H208.215L198.231 26.36L208.695 41H204.135Z" fill="#0022D5"/>
<path d="M36.86 97.04H31.8V110H30.4V97.04H25.34V95.8H36.86V97.04ZM47.467 110H46.107V104.18C46.107 103.007 45.9004 102.127 45.487 101.54C45.0737 100.94 44.4804 100.64 43.707 100.64C43.2004 100.64 42.6937 100.773 42.187 101.04C41.6937 101.293 41.2537 101.647 40.867 102.1C40.4937 102.54 40.227 103.047 40.067 103.62V110H38.707V95.4H40.067V101.94C40.4804 101.167 41.0537 100.553 41.787 100.1C42.5337 99.6333 43.327 99.4 44.167 99.4C44.767 99.4 45.2737 99.5067 45.687 99.72C46.1137 99.9333 46.4537 100.247 46.707 100.66C46.9737 101.06 47.167 101.533 47.287 102.08C47.407 102.613 47.467 103.22 47.467 103.9V110ZM54.8672 110.2C54.1205 110.2 53.4272 110.06 52.7872 109.78C52.1472 109.487 51.5939 109.093 51.1272 108.6C50.6605 108.093 50.2939 107.513 50.0272 106.86C49.7739 106.207 49.6472 105.507 49.6472 104.76C49.6472 103.787 49.8672 102.893 50.3072 102.08C50.7605 101.267 51.3805 100.62 52.1672 100.14C52.9539 99.6467 53.8472 99.4 54.8472 99.4C55.8739 99.4 56.7672 99.6467 57.5272 100.14C58.3005 100.633 58.9072 101.287 59.3472 102.1C59.7872 102.9 60.0072 103.78 60.0072 104.74C60.0072 104.847 60.0072 104.953 60.0072 105.06C60.0072 105.153 60.0005 105.227 59.9872 105.28H51.0672C51.1339 106.027 51.3405 106.693 51.6872 107.28C52.0472 107.853 52.5072 108.313 53.0672 108.66C53.6405 108.993 54.2605 109.16 54.9272 109.16C55.6072 109.16 56.2472 108.987 56.8472 108.64C57.4605 108.293 57.8872 107.84 58.1272 107.28L59.3072 107.6C59.0939 108.093 58.7672 108.54 58.3272 108.94C57.8872 109.34 57.3672 109.653 56.7672 109.88C56.1805 110.093 55.5472 110.2 54.8672 110.2ZM51.0272 104.3H58.7272C58.6739 103.54 58.4672 102.873 58.1072 102.3C57.7605 101.727 57.3005 101.28 56.7272 100.96C56.1672 100.627 55.5472 100.46 54.8672 100.46C54.1872 100.46 53.5672 100.627 53.0072 100.96C52.4472 101.28 51.9872 101.733 51.6272 102.32C51.2805 102.893 51.0805 103.553 51.0272 104.3ZM72.5231 110.2C71.6565 110.2 70.8765 109.973 70.1831 109.52C69.5031 109.067 68.9631 108.507 68.5631 107.84V114.26H67.2031V99.58H68.4231V101.6C68.8365 100.947 69.3898 100.42 70.0831 100.02C70.7765 99.6067 71.5165 99.4 72.3031 99.4C73.0231 99.4 73.6831 99.5533 74.2831 99.86C74.8831 100.153 75.4031 100.553 75.8431 101.06C76.2831 101.567 76.6231 102.147 76.8631 102.8C77.1165 103.44 77.2431 104.107 77.2431 104.8C77.2431 105.773 77.0431 106.673 76.6431 107.5C76.2565 108.313 75.7098 108.967 75.0031 109.46C74.2965 109.953 73.4698 110.2 72.5231 110.2ZM72.1431 109C72.7165 109 73.2298 108.887 73.6831 108.66C74.1365 108.42 74.5231 108.1 74.8431 107.7C75.1765 107.3 75.4298 106.853 75.6031 106.36C75.7765 105.853 75.8631 105.333 75.8631 104.8C75.8631 104.24 75.7631 103.707 75.5631 103.2C75.3765 102.693 75.1031 102.247 74.7431 101.86C74.3831 101.473 73.9698 101.167 73.5031 100.94C73.0365 100.713 72.5298 100.6 71.9831 100.6C71.6365 100.6 71.2765 100.667 70.9031 100.8C70.5298 100.933 70.1698 101.127 69.8231 101.38C69.4898 101.62 69.2098 101.893 68.9831 102.2C68.7565 102.507 68.6165 102.833 68.5631 103.18V106.38C68.7765 106.873 69.0631 107.32 69.4231 107.72C69.7831 108.107 70.1965 108.42 70.6631 108.66C71.1431 108.887 71.6365 109 72.1431 109ZM79.6069 95.4H80.9669V107.64C80.9669 108.16 81.0602 108.5 81.2469 108.66C81.4335 108.82 81.6602 108.9 81.9269 108.9C82.1669 108.9 82.4069 108.873 82.6469 108.82C82.8869 108.767 83.0935 108.713 83.2669 108.66L83.5069 109.76C83.2535 109.867 82.9402 109.953 82.5669 110.02C82.2069 110.087 81.8935 110.12 81.6269 110.12C81.0135 110.12 80.5202 109.94 80.1469 109.58C79.7869 109.22 79.6069 108.727 79.6069 108.1V95.4ZM89.4961 110.2C88.7494 110.2 88.0561 110.06 87.4161 109.78C86.7761 109.487 86.2228 109.093 85.7561 108.6C85.2894 108.093 84.9228 107.513 84.6561 106.86C84.4028 106.207 84.2761 105.507 84.2761 104.76C84.2761 103.787 84.4961 102.893 84.9361 102.08C85.3894 101.267 86.0094 100.62 86.7961 100.14C87.5828 99.6467 88.4761 99.4 89.4761 99.4C90.5028 99.4 91.3961 99.6467 92.1561 100.14C92.9294 100.633 93.5361 101.287 93.9761 102.1C94.4161 102.9 94.6361 103.78 94.6361 104.74C94.6361 104.847 94.6361 104.953 94.6361 105.06C94.6361 105.153 94.6294 105.227 94.6161 105.28H85.6961C85.7628 106.027 85.9694 106.693 86.3161 107.28C86.6761 107.853 87.1361 108.313 87.6961 108.66C88.2694 108.993 88.8894 109.16 89.5561 109.16C90.2361 109.16 90.8761 108.987 91.4761 108.64C92.0894 108.293 92.5161 107.84 92.7561 107.28L93.9361 107.6C93.7228 108.093 93.3961 108.54 92.9561 108.94C92.5161 109.34 91.9961 109.653 91.3961 109.88C90.8094 110.093 90.1761 110.2 89.4961 110.2ZM85.6561 104.3H93.3561C93.3028 103.54 93.0961 102.873 92.7361 102.3C92.3894 101.727 91.9294 101.28 91.3561 100.96C90.7961 100.627 90.1761 100.46 89.4961 100.46C88.8161 100.46 88.1961 100.627 87.6361 100.96C87.0761 101.28 86.6161 101.733 86.2561 102.32C85.9094 102.893 85.7094 103.553 85.6561 104.3ZM95.8944 107C95.8944 106.347 96.081 105.787 96.4544 105.32C96.8277 104.84 97.341 104.473 97.9944 104.22C98.661 103.953 99.4277 103.82 100.294 103.82C100.801 103.82 101.328 103.86 101.874 103.94C102.421 104.02 102.908 104.14 103.334 104.3V103.42C103.334 102.54 103.074 101.84 102.554 101.32C102.034 100.8 101.314 100.54 100.394 100.54C99.8344 100.54 99.281 100.647 98.7344 100.86C98.201 101.06 97.641 101.36 97.0544 101.76L96.5344 100.8C97.2144 100.333 97.881 99.9867 98.5344 99.76C99.1877 99.52 99.8544 99.4 100.534 99.4C101.814 99.4 102.828 99.7667 103.574 100.5C104.321 101.233 104.694 102.247 104.694 103.54V108.36C104.694 108.547 104.734 108.687 104.814 108.78C104.894 108.86 105.021 108.907 105.194 108.92V110C105.048 110.013 104.921 110.027 104.814 110.04C104.708 110.053 104.628 110.053 104.574 110.04C104.241 110.027 103.988 109.92 103.814 109.72C103.641 109.52 103.548 109.307 103.534 109.08L103.514 108.32C103.048 108.92 102.441 109.387 101.694 109.72C100.948 110.04 100.188 110.2 99.4144 110.2C98.7477 110.2 98.141 110.06 97.5944 109.78C97.061 109.487 96.641 109.1 96.3344 108.62C96.041 108.127 95.8944 107.587 95.8944 107ZM102.874 107.8C103.021 107.613 103.134 107.433 103.214 107.26C103.294 107.087 103.334 106.933 103.334 106.8V105.28C102.881 105.107 102.408 104.973 101.914 104.88C101.434 104.787 100.948 104.74 100.454 104.74C99.481 104.74 98.6944 104.933 98.0944 105.32C97.4944 105.707 97.1944 106.233 97.1944 106.9C97.1944 107.287 97.2944 107.653 97.4944 108C97.6944 108.333 97.9877 108.613 98.3744 108.84C98.761 109.053 99.2144 109.16 99.7344 109.16C100.388 109.16 100.994 109.033 101.554 108.78C102.128 108.527 102.568 108.2 102.874 107.8ZM111.053 110.2C110.199 110.2 109.406 110.06 108.673 109.78C107.939 109.5 107.306 109.073 106.773 108.5L107.333 107.54C107.919 108.087 108.506 108.487 109.093 108.74C109.693 108.98 110.326 109.1 110.993 109.1C111.806 109.1 112.466 108.94 112.973 108.62C113.479 108.287 113.733 107.813 113.733 107.2C113.733 106.787 113.606 106.473 113.353 106.26C113.113 106.033 112.759 105.853 112.293 105.72C111.839 105.573 111.293 105.42 110.653 105.26C109.933 105.06 109.326 104.853 108.833 104.64C108.353 104.413 107.986 104.133 107.733 103.8C107.493 103.453 107.373 103.007 107.373 102.46C107.373 101.78 107.539 101.22 107.873 100.78C108.219 100.327 108.686 99.9867 109.273 99.76C109.873 99.52 110.539 99.4 111.273 99.4C112.073 99.4 112.779 99.5267 113.393 99.78C114.006 100.033 114.506 100.387 114.893 100.84L114.233 101.76C113.859 101.333 113.413 101.02 112.893 100.82C112.386 100.607 111.819 100.5 111.193 100.5C110.766 100.5 110.359 100.56 109.973 100.68C109.586 100.787 109.266 100.973 109.013 101.24C108.773 101.493 108.653 101.847 108.653 102.3C108.653 102.673 108.746 102.967 108.933 103.18C109.119 103.38 109.399 103.553 109.773 103.7C110.146 103.833 110.606 103.98 111.153 104.14C111.939 104.353 112.626 104.573 113.213 104.8C113.799 105.013 114.253 105.293 114.573 105.64C114.893 105.987 115.053 106.473 115.053 107.1C115.053 108.073 114.686 108.833 113.953 109.38C113.219 109.927 112.253 110.2 111.053 110.2ZM117.201 105.7V99.58H118.561V105.46C118.561 106.647 118.761 107.533 119.161 108.12C119.574 108.707 120.181 109 120.981 109C121.514 109 122.027 108.887 122.521 108.66C123.027 108.42 123.474 108.087 123.861 107.66C124.247 107.22 124.541 106.713 124.741 106.14V99.58H126.101V108.36C126.101 108.547 126.141 108.687 126.221 108.78C126.301 108.86 126.421 108.907 126.581 108.92V110C126.421 110.013 126.294 110.02 126.201 110.02C126.107 110.033 126.021 110.04 125.941 110.04C125.674 110.013 125.441 109.907 125.241 109.72C125.054 109.533 124.954 109.307 124.941 109.04L124.901 107.64C124.447 108.44 123.827 109.067 123.041 109.52C122.267 109.973 121.427 110.2 120.521 110.2C119.427 110.2 118.601 109.82 118.041 109.06C117.481 108.3 117.201 107.18 117.201 105.7ZM134.376 100.78C133.469 100.807 132.669 101.06 131.976 101.54C131.296 102.02 130.816 102.68 130.536 103.52V110H129.176V99.58H130.456V102.08C130.816 101.347 131.289 100.753 131.876 100.3C132.476 99.8467 133.109 99.5933 133.776 99.54C133.909 99.5267 134.022 99.52 134.116 99.52C134.222 99.52 134.309 99.5267 134.376 99.54V100.78ZM140.355 110.2C139.609 110.2 138.915 110.06 138.275 109.78C137.635 109.487 137.082 109.093 136.615 108.6C136.149 108.093 135.782 107.513 135.515 106.86C135.262 106.207 135.135 105.507 135.135 104.76C135.135 103.787 135.355 102.893 135.795 102.08C136.249 101.267 136.869 100.62 137.655 100.14C138.442 99.6467 139.335 99.4 140.335 99.4C141.362 99.4 142.255 99.6467 143.015 100.14C143.789 100.633 144.395 101.287 144.835 102.1C145.275 102.9 145.495 103.78 145.495 104.74C145.495 104.847 145.495 104.953 145.495 105.06C145.495 105.153 145.489 105.227 145.475 105.28H136.555C136.622 106.027 136.829 106.693 137.175 107.28C137.535 107.853 137.995 108.313 138.555 108.66C139.129 108.993 139.749 109.16 140.415 109.16C141.095 109.16 141.735 108.987 142.335 108.64C142.949 108.293 143.375 107.84 143.615 107.28L144.795 107.6C144.582 108.093 144.255 108.54 143.815 108.94C143.375 109.34 142.855 109.653 142.255 109.88C141.669 110.093 141.035 110.2 140.355 110.2ZM136.515 104.3H144.215C144.162 103.54 143.955 102.873 143.595 102.3C143.249 101.727 142.789 101.28 142.215 100.96C141.655 100.627 141.035 100.46 140.355 100.46C139.675 100.46 139.055 100.627 138.495 100.96C137.935 101.28 137.475 101.733 137.115 102.32C136.769 102.893 136.569 103.553 136.515 104.3ZM147.814 111.62L148.154 109.94H147.694V108.04H149.014V109.94L148.514 111.62H147.814ZM160.604 110.2C159.75 110.2 158.957 110.06 158.224 109.78C157.49 109.5 156.857 109.073 156.324 108.5L156.884 107.54C157.47 108.087 158.057 108.487 158.644 108.74C159.244 108.98 159.877 109.1 160.544 109.1C161.357 109.1 162.017 108.94 162.524 108.62C163.03 108.287 163.284 107.813 163.284 107.2C163.284 106.787 163.157 106.473 162.904 106.26C162.664 106.033 162.31 105.853 161.844 105.72C161.39 105.573 160.844 105.42 160.204 105.26C159.484 105.06 158.877 104.853 158.384 104.64C157.904 104.413 157.537 104.133 157.284 103.8C157.044 103.453 156.924 103.007 156.924 102.46C156.924 101.78 157.09 101.22 157.424 100.78C157.77 100.327 158.237 99.9867 158.824 99.76C159.424 99.52 160.09 99.4 160.824 99.4C161.624 99.4 162.33 99.5267 162.944 99.78C163.557 100.033 164.057 100.387 164.444 100.84L163.784 101.76C163.41 101.333 162.964 101.02 162.444 100.82C161.937 100.607 161.37 100.5 160.744 100.5C160.317 100.5 159.91 100.56 159.524 100.68C159.137 100.787 158.817 100.973 158.564 101.24C158.324 101.493 158.204 101.847 158.204 102.3C158.204 102.673 158.297 102.967 158.484 103.18C158.67 103.38 158.95 103.553 159.324 103.7C159.697 103.833 160.157 103.98 160.704 104.14C161.49 104.353 162.177 104.573 162.764 104.8C163.35 105.013 163.804 105.293 164.124 105.64C164.444 105.987 164.604 106.473 164.604 107.1C164.604 108.073 164.237 108.833 163.504 109.38C162.77 109.927 161.804 110.2 160.604 110.2ZM174.292 110L170.432 104.66L168.212 106.74V110H166.852V95.4H168.212V105.28L174.112 99.6H175.612L171.352 103.86L175.772 110H174.292ZM177.457 110V99.58H178.817V110H177.457ZM177.457 97.4V95.4H178.817V97.4H177.457ZM181.873 95.4H183.233V107.64C183.233 108.16 183.326 108.5 183.513 108.66C183.699 108.82 183.926 108.9 184.193 108.9C184.433 108.9 184.673 108.873 184.913 108.82C185.153 108.767 185.359 108.713 185.533 108.66L185.773 109.76C185.519 109.867 185.206 109.953 184.833 110.02C184.473 110.087 184.159 110.12 183.893 110.12C183.279 110.12 182.786 109.94 182.413 109.58C182.053 109.22 181.873 108.727 181.873 108.1V95.4ZM187.322 95.4H188.682V107.64C188.682 108.16 188.775 108.5 188.962 108.66C189.148 108.82 189.375 108.9 189.642 108.9C189.882 108.9 190.122 108.873 190.362 108.82C190.602 108.767 190.808 108.713 190.982 108.66L191.222 109.76C190.968 109.867 190.655 109.953 190.282 110.02C189.922 110.087 189.608 110.12 189.342 110.12C188.728 110.12 188.235 109.94 187.862 109.58C187.502 109.22 187.322 108.727 187.322 108.1V95.4ZM196.363 107C196.363 106.347 196.55 105.787 196.923 105.32C197.296 104.84 197.81 104.473 198.463 104.22C199.13 103.953 199.896 103.82 200.763 103.82C201.27 103.82 201.796 103.86 202.343 103.94C202.89 104.02 203.376 104.14 203.803 104.3V103.42C203.803 102.54 203.543 101.84 203.023 101.32C202.503 100.8 201.783 100.54 200.863 100.54C200.303 100.54 199.75 100.647 199.203 100.86C198.67 101.06 198.11 101.36 197.523 101.76L197.003 100.8C197.683 100.333 198.35 99.9867 199.003 99.76C199.656 99.52 200.323 99.4 201.003 99.4C202.283 99.4 203.296 99.7667 204.043 100.5C204.79 101.233 205.163 102.247 205.163 103.54V108.36C205.163 108.547 205.203 108.687 205.283 108.78C205.363 108.86 205.49 108.907 205.663 108.92V110C205.516 110.013 205.39 110.027 205.283 110.04C205.176 110.053 205.096 110.053 205.043 110.04C204.71 110.027 204.456 109.92 204.283 109.72C204.11 109.52 204.016 109.307 204.003 109.08L203.983 108.32C203.516 108.92 202.91 109.387 202.163 109.72C201.416 110.04 200.656 110.2 199.883 110.2C199.216 110.2 198.61 110.06 198.063 109.78C197.53 109.487 197.11 109.1 196.803 108.62C196.51 108.127 196.363 107.587 196.363 107ZM203.343 107.8C203.49 107.613 203.603 107.433 203.683 107.26C203.763 107.087 203.803 106.933 203.803 106.8V105.28C203.35 105.107 202.876 104.973 202.383 104.88C201.903 104.787 201.416 104.74 200.923 104.74C199.95 104.74 199.163 104.933 198.563 105.32C197.963 105.707 197.663 106.233 197.663 106.9C197.663 107.287 197.763 107.653 197.963 108C198.163 108.333 198.456 108.613 198.843 108.84C199.23 109.053 199.683 109.16 200.203 109.16C200.856 109.16 201.463 109.033 202.023 108.78C202.596 108.527 203.036 108.2 203.343 107.8ZM216.862 110H215.502V104.18C215.502 102.953 215.322 102.06 214.962 101.5C214.602 100.927 214.035 100.64 213.262 100.64C212.728 100.64 212.202 100.773 211.682 101.04C211.162 101.293 210.702 101.647 210.302 102.1C209.915 102.54 209.635 103.047 209.462 103.62V110H208.102V99.58H209.342V101.94C209.622 101.433 209.988 100.993 210.442 100.62C210.895 100.233 211.408 99.9333 211.982 99.72C212.555 99.5067 213.148 99.4 213.762 99.4C214.335 99.4 214.822 99.5067 215.222 99.72C215.622 99.9333 215.942 100.24 216.182 100.64C216.422 101.027 216.595 101.5 216.702 102.06C216.808 102.607 216.862 103.22 216.862 103.9V110ZM219.062 104.82C219.062 103.833 219.262 102.933 219.662 102.12C220.075 101.293 220.642 100.633 221.362 100.14C222.082 99.6467 222.902 99.4 223.822 99.4C224.688 99.4 225.462 99.6333 226.142 100.1C226.835 100.553 227.375 101.107 227.762 101.76V95.4H229.122V108.36C229.122 108.547 229.162 108.687 229.242 108.78C229.322 108.86 229.442 108.907 229.602 108.92V110C229.335 110.04 229.128 110.053 228.982 110.04C228.702 110.027 228.455 109.913 228.242 109.7C228.028 109.487 227.922 109.253 227.922 109V107.98C227.508 108.66 226.948 109.2 226.242 109.6C225.535 110 224.802 110.2 224.042 110.2C223.322 110.2 222.655 110.053 222.042 109.76C221.442 109.467 220.915 109.067 220.462 108.56C220.022 108.053 219.675 107.48 219.422 106.84C219.182 106.187 219.062 105.513 219.062 104.82ZM227.762 106.42V103.2C227.588 102.72 227.308 102.287 226.922 101.9C226.535 101.5 226.095 101.187 225.602 100.96C225.122 100.72 224.642 100.6 224.162 100.6C223.602 100.6 223.095 100.72 222.642 100.96C222.188 101.187 221.795 101.5 221.462 101.9C221.142 102.3 220.895 102.753 220.722 103.26C220.548 103.767 220.462 104.287 220.462 104.82C220.462 105.38 220.555 105.913 220.742 106.42C220.942 106.927 221.222 107.38 221.582 107.78C221.942 108.167 222.355 108.467 222.822 108.68C223.288 108.893 223.795 109 224.342 109C224.688 109 225.048 108.933 225.422 108.8C225.795 108.667 226.148 108.487 226.482 108.26C226.828 108.02 227.115 107.74 227.342 107.42C227.568 107.1 227.708 106.767 227.762 106.42ZM246.061 110H244.701V104.18C244.701 102.953 244.521 102.06 244.161 101.5C243.801 100.927 243.234 100.64 242.461 100.64C241.927 100.64 241.401 100.773 240.881 101.04C240.361 101.293 239.901 101.647 239.501 102.1C239.114 102.54 238.834 103.047 238.661 103.62V110H237.301V99.58H238.541V101.94C238.821 101.433 239.187 100.993 239.641 100.62C240.094 100.233 240.607 99.9333 241.181 99.72C241.754 99.5067 242.347 99.4 242.961 99.4C243.534 99.4 244.021 99.5067 244.421 99.72C244.821 99.9333 245.141 100.24 245.381 100.64C245.621 101.027 245.794 101.5 245.901 102.06C246.007 102.607 246.061 103.22 246.061 103.9V110ZM253.461 110.2C252.714 110.2 252.021 110.06 251.381 109.78C250.741 109.487 250.188 109.093 249.721 108.6C249.254 108.093 248.888 107.513 248.621 106.86C248.368 106.207 248.241 105.507 248.241 104.76C248.241 103.787 248.461 102.893 248.901 102.08C249.354 101.267 249.974 100.62 250.761 100.14C251.548 99.6467 252.441 99.4 253.441 99.4C254.468 99.4 255.361 99.6467 256.121 100.14C256.894 100.633 257.501 101.287 257.941 102.1C258.381 102.9 258.601 103.78 258.601 104.74C258.601 104.847 258.601 104.953 258.601 105.06C258.601 105.153 258.594 105.227 258.581 105.28H249.661C249.728 106.027 249.934 106.693 250.281 107.28C250.641 107.853 251.101 108.313 251.661 108.66C252.234 108.993 252.854 109.16 253.521 109.16C254.201 109.16 254.841 108.987 255.441 108.64C256.054 108.293 256.481 107.84 256.721 107.28L257.901 107.6C257.688 108.093 257.361 108.54 256.921 108.94C256.481 109.34 255.961 109.653 255.361 109.88C254.774 110.093 254.141 110.2 253.461 110.2ZM249.621 104.3H257.321C257.268 103.54 257.061 102.873 256.701 102.3C256.354 101.727 255.894 101.28 255.321 100.96C254.761 100.627 254.141 100.46 253.461 100.46C252.781 100.46 252.161 100.627 251.601 100.96C251.041 101.28 250.581 101.733 250.221 102.32C249.874 102.893 249.674 103.553 249.621 104.3ZM265.219 110.2C264.459 110.2 263.759 110.06 263.119 109.78C262.493 109.487 261.939 109.087 261.459 108.58C260.993 108.073 260.626 107.493 260.359 106.84C260.106 106.187 259.979 105.493 259.979 104.76C259.979 103.773 260.199 102.873 260.639 102.06C261.079 101.247 261.693 100.6 262.479 100.12C263.266 99.64 264.173 99.4 265.199 99.4C266.173 99.4 267.033 99.6267 267.779 100.08C268.526 100.52 269.079 101.12 269.439 101.88L268.119 102.3C267.826 101.767 267.413 101.353 266.879 101.06C266.359 100.753 265.779 100.6 265.139 100.6C264.446 100.6 263.813 100.78 263.239 101.14C262.666 101.5 262.206 101.993 261.859 102.62C261.526 103.247 261.359 103.96 261.359 104.76C261.359 105.547 261.533 106.26 261.879 106.9C262.226 107.54 262.686 108.053 263.259 108.44C263.833 108.813 264.466 109 265.159 109C265.613 109 266.046 108.92 266.459 108.76C266.886 108.6 267.253 108.387 267.559 108.12C267.879 107.84 268.093 107.54 268.199 107.22L269.539 107.62C269.353 108.113 269.039 108.56 268.599 108.96C268.173 109.347 267.666 109.653 267.079 109.88C266.506 110.093 265.886 110.2 265.219 110.2ZM276.078 110.2C275.331 110.2 274.638 110.06 273.998 109.78C273.358 109.487 272.805 109.093 272.338 108.6C271.871 108.093 271.505 107.513 271.238 106.86C270.985 106.207 270.858 105.507 270.858 104.76C270.858 103.787 271.078 102.893 271.518 102.08C271.971 101.267 272.591 100.62 273.378 100.14C274.165 99.6467 275.058 99.4 276.058 99.4C277.085 99.4 277.978 99.6467 278.738 100.14C279.511 100.633 280.118 101.287 280.558 102.1C280.998 102.9 281.218 103.78 281.218 104.74C281.218 104.847 281.218 104.953 281.218 105.06C281.218 105.153 281.211 105.227 281.198 105.28H272.278C272.345 106.027 272.551 106.693 272.898 107.28C273.258 107.853 273.718 108.313 274.278 108.66C274.851 108.993 275.471 109.16 276.138 109.16C276.818 109.16 277.458 108.987 278.058 108.64C278.671 108.293 279.098 107.84 279.338 107.28L280.518 107.6C280.305 108.093 279.978 108.54 279.538 108.94C279.098 109.34 278.578 109.653 277.978 109.88C277.391 110.093 276.758 110.2 276.078 110.2ZM272.238 104.3H279.938C279.885 103.54 279.678 102.873 279.318 102.3C278.971 101.727 278.511 101.28 277.938 100.96C277.378 100.627 276.758 100.46 276.078 100.46C275.398 100.46 274.778 100.627 274.218 100.96C273.658 101.28 273.198 101.733 272.838 102.32C272.491 102.893 272.291 103.553 272.238 104.3ZM286.736 110.2C285.883 110.2 285.09 110.06 284.356 109.78C283.623 109.5 282.99 109.073 282.456 108.5L283.016 107.54C283.603 108.087 284.19 108.487 284.776 108.74C285.376 108.98 286.01 109.1 286.676 109.1C287.49 109.1 288.15 108.94 288.656 108.62C289.163 108.287 289.416 107.813 289.416 107.2C289.416 106.787 289.29 106.473 289.036 106.26C288.796 106.033 288.443 105.853 287.976 105.72C287.523 105.573 286.976 105.42 286.336 105.26C285.616 105.06 285.01 104.853 284.516 104.64C284.036 104.413 283.67 104.133 283.416 103.8C283.176 103.453 283.056 103.007 283.056 102.46C283.056 101.78 283.223 101.22 283.556 100.78C283.903 100.327 284.37 99.9867 284.956 99.76C285.556 99.52 286.223 99.4 286.956 99.4C287.756 99.4 288.463 99.5267 289.076 99.78C289.69 100.033 290.19 100.387 290.576 100.84L289.916 101.76C289.543 101.333 289.096 101.02 288.576 100.82C288.07 100.607 287.503 100.5 286.876 100.5C286.45 100.5 286.043 100.56 285.656 100.68C285.27 100.787 284.95 100.973 284.696 101.24C284.456 101.493 284.336 101.847 284.336 102.3C284.336 102.673 284.43 102.967 284.616 103.18C284.803 103.38 285.083 103.553 285.456 103.7C285.83 103.833 286.29 103.98 286.836 104.14C287.623 104.353 288.31 104.573 288.896 104.8C289.483 105.013 289.936 105.293 290.256 105.64C290.576 105.987 290.736 106.473 290.736 107.1C290.736 108.073 290.37 108.833 289.636 109.38C288.903 109.927 287.936 110.2 286.736 110.2ZM296.404 110.2C295.551 110.2 294.758 110.06 294.024 109.78C293.291 109.5 292.658 109.073 292.124 108.5L292.684 107.54C293.271 108.087 293.858 108.487 294.444 108.74C295.044 108.98 295.678 109.1 296.344 109.1C297.158 109.1 297.818 108.94 298.324 108.62C298.831 108.287 299.084 107.813 299.084 107.2C299.084 106.787 298.958 106.473 298.704 106.26C298.464 106.033 298.111 105.853 297.644 105.72C297.191 105.573 296.644 105.42 296.004 105.26C295.284 105.06 294.678 104.853 294.184 104.64C293.704 104.413 293.338 104.133 293.084 103.8C292.844 103.453 292.724 103.007 292.724 102.46C292.724 101.78 292.891 101.22 293.224 100.78C293.571 100.327 294.038 99.9867 294.624 99.76C295.224 99.52 295.891 99.4 296.624 99.4C297.424 99.4 298.131 99.5267 298.744 99.78C299.358 100.033 299.858 100.387 300.244 100.84L299.584 101.76C299.211 101.333 298.764 101.02 298.244 100.82C297.738 100.607 297.171 100.5 296.544 100.5C296.118 100.5 295.711 100.56 295.324 100.68C294.938 100.787 294.618 100.973 294.364 101.24C294.124 101.493 294.004 101.847 294.004 102.3C294.004 102.673 294.098 102.967 294.284 103.18C294.471 103.38 294.751 103.553 295.124 103.7C295.498 103.833 295.958 103.98 296.504 104.14C297.291 104.353 297.978 104.573 298.564 104.8C299.151 105.013 299.604 105.293 299.924 105.64C300.244 105.987 300.404 106.473 300.404 107.1C300.404 108.073 300.038 108.833 299.304 109.38C298.571 109.927 297.604 110.2 296.404 110.2ZM302.652 110V99.58H304.012V110H302.652ZM302.652 97.4V95.4H304.012V97.4H302.652ZM312.008 109.5C311.901 109.54 311.734 109.613 311.508 109.72C311.281 109.827 311.008 109.92 310.688 110C310.368 110.08 310.021 110.12 309.648 110.12C309.261 110.12 308.894 110.047 308.548 109.9C308.214 109.753 307.948 109.533 307.748 109.24C307.548 108.933 307.448 108.56 307.448 108.12V100.66H306.008V99.58H307.448V96.06H308.808V99.58H311.208V100.66H308.808V107.74C308.834 108.113 308.968 108.393 309.208 108.58C309.461 108.767 309.748 108.86 310.068 108.86C310.441 108.86 310.781 108.8 311.088 108.68C311.394 108.547 311.581 108.453 311.648 108.4L312.008 109.5ZM314.307 113.2C314.494 113.213 314.674 113.22 314.847 113.22C315.02 113.233 315.147 113.227 315.227 113.2C315.387 113.173 315.54 113.08 315.687 112.92C315.834 112.76 316.007 112.453 316.207 112C316.407 111.547 316.687 110.88 317.047 110L312.507 99.58H313.947L317.767 108.6L321.287 99.58H322.647L317.247 113.02C317.154 113.273 317.014 113.507 316.827 113.72C316.64 113.947 316.407 114.12 316.127 114.24C315.86 114.373 315.527 114.447 315.127 114.46C315.007 114.473 314.88 114.473 314.747 114.46C314.627 114.46 314.48 114.447 314.307 114.42V113.2ZM31.5 132.5C31.3933 132.54 31.2267 132.613 31 132.72C30.7733 132.827 30.5 132.92 30.18 133C29.86 133.08 29.5133 133.12 29.14 133.12C28.7533 133.12 28.3867 133.047 28.04 132.9C27.7067 132.753 27.44 132.533 27.24 132.24C27.04 131.933 26.94 131.56 26.94 131.12V123.66H25.5V122.58H26.94V119.06H28.3V122.58H30.7V123.66H28.3V130.74C28.3267 131.113 28.46 131.393 28.7 131.58C28.9533 131.767 29.24 131.86 29.56 131.86C29.9333 131.86 30.2733 131.8 30.58 131.68C30.8867 131.547 31.0733 131.453 31.14 131.4L31.5 132.5ZM37.4634 133.2C36.7168 133.2 36.0234 133.06 35.3834 132.78C34.7568 132.487 34.2101 132.093 33.7434 131.6C33.2901 131.093 32.9368 130.52 32.6834 129.88C32.4301 129.227 32.3034 128.54 32.3034 127.82C32.3034 127.073 32.4301 126.38 32.6834 125.74C32.9368 125.087 33.2968 124.513 33.7634 124.02C34.2301 123.513 34.7768 123.12 35.4034 122.84C36.0434 122.547 36.7368 122.4 37.4834 122.4C38.2301 122.4 38.9168 122.547 39.5434 122.84C40.1701 123.12 40.7168 123.513 41.1834 124.02C41.6501 124.513 42.0101 125.087 42.2634 125.74C42.5168 126.38 42.6434 127.073 42.6434 127.82C42.6434 128.54 42.5168 129.227 42.2634 129.88C42.0101 130.52 41.6501 131.093 41.1834 131.6C40.7301 132.093 40.1834 132.487 39.5434 132.78C38.9168 133.06 38.2234 133.2 37.4634 133.2ZM33.6834 127.84C33.6834 128.613 33.8501 129.32 34.1834 129.96C34.5301 130.587 34.9901 131.087 35.5634 131.46C36.1368 131.82 36.7701 132 37.4634 132C38.1568 132 38.7901 131.813 39.3634 131.44C39.9368 131.067 40.3968 130.56 40.7434 129.92C41.0901 129.267 41.2634 128.56 41.2634 127.8C41.2634 127.027 41.0901 126.32 40.7434 125.68C40.3968 125.04 39.9368 124.533 39.3634 124.16C38.7901 123.787 38.1568 123.6 37.4634 123.6C36.7701 123.6 36.1368 123.793 35.5634 124.18C35.0034 124.567 34.5501 125.08 34.2034 125.72C33.8568 126.347 33.6834 127.053 33.6834 127.84ZM57.4556 133L53.5956 127.66L51.3756 129.74V133H50.0156V118.4H51.3756V128.28L57.2756 122.6H58.7756L54.5156 126.86L58.9356 133H57.4556ZM69.3811 133H68.0211V127.18C68.0211 125.953 67.8411 125.06 67.4811 124.5C67.1211 123.927 66.5544 123.64 65.7811 123.64C65.2478 123.64 64.7211 123.773 64.2011 124.04C63.6811 124.293 63.2211 124.647 62.8211 125.1C62.4344 125.54 62.1544 126.047 61.9811 126.62V133H60.6211V122.58H61.8611V124.94C62.1411 124.433 62.5078 123.993 62.9611 123.62C63.4144 123.233 63.9278 122.933 64.5011 122.72C65.0744 122.507 65.6678 122.4 66.2811 122.4C66.8544 122.4 67.3411 122.507 67.7411 122.72C68.1411 122.933 68.4611 123.24 68.7011 123.64C68.9411 124.027 69.1144 124.5 69.2211 125.06C69.3278 125.607 69.3811 126.22 69.3811 126.9V133ZM76.7213 133.2C75.9746 133.2 75.2813 133.06 74.6413 132.78C74.0146 132.487 73.4679 132.093 73.0013 131.6C72.5479 131.093 72.1946 130.52 71.9413 129.88C71.6879 129.227 71.5613 128.54 71.5613 127.82C71.5613 127.073 71.6879 126.38 71.9413 125.74C72.1946 125.087 72.5546 124.513 73.0213 124.02C73.4879 123.513 74.0346 123.12 74.6613 122.84C75.3013 122.547 75.9946 122.4 76.7413 122.4C77.4879 122.4 78.1746 122.547 78.8013 122.84C79.4279 123.12 79.9746 123.513 80.4413 124.02C80.9079 124.513 81.2679 125.087 81.5213 125.74C81.7746 126.38 81.9013 127.073 81.9013 127.82C81.9013 128.54 81.7746 129.227 81.5213 129.88C81.2679 130.52 80.9079 131.093 80.4413 131.6C79.9879 132.093 79.4413 132.487 78.8013 132.78C78.1746 133.06 77.4813 133.2 76.7213 133.2ZM72.9413 127.84C72.9413 128.613 73.1079 129.32 73.4413 129.96C73.7879 130.587 74.2479 131.087 74.8213 131.46C75.3946 131.82 76.0279 132 76.7213 132C77.4146 132 78.0479 131.813 78.6213 131.44C79.1946 131.067 79.6546 130.56 80.0013 129.92C80.3479 129.267 80.5213 128.56 80.5213 127.8C80.5213 127.027 80.3479 126.32 80.0013 125.68C79.6546 125.04 79.1946 124.533 78.6213 124.16C78.0479 123.787 77.4146 123.6 76.7213 123.6C76.0279 123.6 75.3946 123.793 74.8213 124.18C74.2613 124.567 73.8079 125.08 73.4613 125.72C73.1146 126.347 72.9413 127.053 72.9413 127.84ZM96.9442 122.58H98.2842L93.8042 133H92.6242L90.4442 127.82L88.2842 133H87.1042L82.6242 122.58H83.9442L87.7442 131.6L89.6642 126.9L87.9042 122.6H89.1242L90.4442 125.98L91.7842 122.6H92.9842L91.2442 126.9L93.1642 131.6L96.9442 122.58ZM109.945 133.2C109.078 133.2 108.298 132.973 107.605 132.52C106.925 132.067 106.385 131.507 105.985 130.84V137.26H104.625V122.58H105.845V124.6C106.258 123.947 106.812 123.42 107.505 123.02C108.198 122.607 108.938 122.4 109.725 122.4C110.445 122.4 111.105 122.553 111.705 122.86C112.305 123.153 112.825 123.553 113.265 124.06C113.705 124.567 114.045 125.147 114.285 125.8C114.538 126.44 114.665 127.107 114.665 127.8C114.665 128.773 114.465 129.673 114.065 130.5C113.678 131.313 113.132 131.967 112.425 132.46C111.718 132.953 110.892 133.2 109.945 133.2ZM109.565 132C110.138 132 110.652 131.887 111.105 131.66C111.558 131.42 111.945 131.1 112.265 130.7C112.598 130.3 112.852 129.853 113.025 129.36C113.198 128.853 113.285 128.333 113.285 127.8C113.285 127.24 113.185 126.707 112.985 126.2C112.798 125.693 112.525 125.247 112.165 124.86C111.805 124.473 111.392 124.167 110.925 123.94C110.458 123.713 109.952 123.6 109.405 123.6C109.058 123.6 108.698 123.667 108.325 123.8C107.952 123.933 107.592 124.127 107.245 124.38C106.912 124.62 106.632 124.893 106.405 125.2C106.178 125.507 106.038 125.833 105.985 126.18V129.38C106.198 129.873 106.485 130.32 106.845 130.72C107.205 131.107 107.618 131.42 108.085 131.66C108.565 131.887 109.058 132 109.565 132ZM121.469 133.2C120.722 133.2 120.029 133.06 119.389 132.78C118.749 132.487 118.195 132.093 117.729 131.6C117.262 131.093 116.895 130.513 116.629 129.86C116.375 129.207 116.249 128.507 116.249 127.76C116.249 126.787 116.469 125.893 116.909 125.08C117.362 124.267 117.982 123.62 118.769 123.14C119.555 122.647 120.449 122.4 121.449 122.4C122.475 122.4 123.369 122.647 124.129 123.14C124.902 123.633 125.509 124.287 125.949 125.1C126.389 125.9 126.609 126.78 126.609 127.74C126.609 127.847 126.609 127.953 126.609 128.06C126.609 128.153 126.602 128.227 126.589 128.28H117.669C117.735 129.027 117.942 129.693 118.289 130.28C118.649 130.853 119.109 131.313 119.669 131.66C120.242 131.993 120.862 132.16 121.529 132.16C122.209 132.16 122.849 131.987 123.449 131.64C124.062 131.293 124.489 130.84 124.729 130.28L125.909 130.6C125.695 131.093 125.369 131.54 124.929 131.94C124.489 132.34 123.969 132.653 123.369 132.88C122.782 133.093 122.149 133.2 121.469 133.2ZM117.629 127.3H125.329C125.275 126.54 125.069 125.873 124.709 125.3C124.362 124.727 123.902 124.28 123.329 123.96C122.769 123.627 122.149 123.46 121.469 123.46C120.789 123.46 120.169 123.627 119.609 123.96C119.049 124.28 118.589 124.733 118.229 125.32C117.882 125.893 117.682 126.553 117.629 127.3ZM133.147 133.2C132.4 133.2 131.707 133.06 131.067 132.78C130.44 132.487 129.894 132.093 129.427 131.6C128.974 131.093 128.62 130.52 128.367 129.88C128.114 129.227 127.987 128.54 127.987 127.82C127.987 127.073 128.114 126.38 128.367 125.74C128.62 125.087 128.98 124.513 129.447 124.02C129.914 123.513 130.46 123.12 131.087 122.84C131.727 122.547 132.42 122.4 133.167 122.4C133.914 122.4 134.6 122.547 135.227 122.84C135.854 123.12 136.4 123.513 136.867 124.02C137.334 124.513 137.694 125.087 137.947 125.74C138.2 126.38 138.327 127.073 138.327 127.82C138.327 128.54 138.2 129.227 137.947 129.88C137.694 130.52 137.334 131.093 136.867 131.6C136.414 132.093 135.867 132.487 135.227 132.78C134.6 133.06 133.907 133.2 133.147 133.2ZM129.367 127.84C129.367 128.613 129.534 129.32 129.867 129.96C130.214 130.587 130.674 131.087 131.247 131.46C131.82 131.82 132.454 132 133.147 132C133.84 132 134.474 131.813 135.047 131.44C135.62 131.067 136.08 130.56 136.427 129.92C136.774 129.267 136.947 128.56 136.947 127.8C136.947 127.027 136.774 126.32 136.427 125.68C136.08 125.04 135.62 124.533 135.047 124.16C134.474 123.787 133.84 123.6 133.147 123.6C132.454 123.6 131.82 123.793 131.247 124.18C130.687 124.567 130.234 125.08 129.887 125.72C129.54 126.347 129.367 127.053 129.367 127.84ZM145.922 133.2C145.055 133.2 144.275 132.973 143.582 132.52C142.902 132.067 142.362 131.507 141.962 130.84V137.26H140.602V122.58H141.822V124.6C142.235 123.947 142.788 123.42 143.482 123.02C144.175 122.607 144.915 122.4 145.702 122.4C146.422 122.4 147.082 122.553 147.682 122.86C148.282 123.153 148.802 123.553 149.242 124.06C149.682 124.567 150.022 125.147 150.262 125.8C150.515 126.44 150.642 127.107 150.642 127.8C150.642 128.773 150.442 129.673 150.042 130.5C149.655 131.313 149.108 131.967 148.402 132.46C147.695 132.953 146.868 133.2 145.922 133.2ZM145.542 132C146.115 132 146.628 131.887 147.082 131.66C147.535 131.42 147.922 131.1 148.242 130.7C148.575 130.3 148.828 129.853 149.002 129.36C149.175 128.853 149.262 128.333 149.262 127.8C149.262 127.24 149.162 126.707 148.962 126.2C148.775 125.693 148.502 125.247 148.142 124.86C147.782 124.473 147.368 124.167 146.902 123.94C146.435 123.713 145.928 123.6 145.382 123.6C145.035 123.6 144.675 123.667 144.302 123.8C143.928 123.933 143.568 124.127 143.222 124.38C142.888 124.62 142.608 124.893 142.382 125.2C142.155 125.507 142.015 125.833 141.962 126.18V129.38C142.175 129.873 142.462 130.32 142.822 130.72C143.182 131.107 143.595 131.42 144.062 131.66C144.542 131.887 145.035 132 145.542 132ZM153.005 118.4H154.365V130.64C154.365 131.16 154.459 131.5 154.645 131.66C154.832 131.82 155.059 131.9 155.325 131.9C155.565 131.9 155.805 131.873 156.045 131.82C156.285 131.767 156.492 131.713 156.665 131.66L156.905 132.76C156.652 132.867 156.339 132.953 155.965 133.02C155.605 133.087 155.292 133.12 155.025 133.12C154.412 133.12 153.919 132.94 153.545 132.58C153.185 132.22 153.005 131.727 153.005 131.1V118.4ZM162.895 133.2C162.148 133.2 161.455 133.06 160.815 132.78C160.175 132.487 159.621 132.093 159.155 131.6C158.688 131.093 158.321 130.513 158.055 129.86C157.801 129.207 157.675 128.507 157.675 127.76C157.675 126.787 157.895 125.893 158.335 125.08C158.788 124.267 159.408 123.62 160.195 123.14C160.981 122.647 161.875 122.4 162.875 122.4C163.901 122.4 164.795 122.647 165.555 123.14C166.328 123.633 166.935 124.287 167.375 125.1C167.815 125.9 168.035 126.78 168.035 127.74C168.035 127.847 168.035 127.953 168.035 128.06C168.035 128.153 168.028 128.227 168.015 128.28H159.095C159.161 129.027 159.368 129.693 159.715 130.28C160.075 130.853 160.535 131.313 161.095 131.66C161.668 131.993 162.288 132.16 162.955 132.16C163.635 132.16 164.275 131.987 164.875 131.64C165.488 131.293 165.915 130.84 166.155 130.28L167.335 130.6C167.121 131.093 166.795 131.54 166.355 131.94C165.915 132.34 165.395 132.653 164.795 132.88C164.208 133.093 163.575 133.2 162.895 133.2ZM159.055 127.3H166.755C166.701 126.54 166.495 125.873 166.135 125.3C165.788 124.727 165.328 124.28 164.755 123.96C164.195 123.627 163.575 123.46 162.895 123.46C162.215 123.46 161.595 123.627 161.035 123.96C160.475 124.28 160.015 124.733 159.655 125.32C159.308 125.893 159.108 126.553 159.055 127.3Z" fill="#0022D5"/>
</svg>
