<svg width="412" height="138" viewBox="0 0 412 138" fill="none" xmlns="http://www.w3.org/2000/svg">
<rect y="13" width="352" height="37" fill="white"/>
<rect y="88" width="402" height="49" fill="white"/>
<path d="M28.408 41V15.944H32.632V41H28.408ZM28.408 11.24V5.96H32.632V11.24H28.408ZM61.2145 41H56.9905V26.984C56.9905 24.328 56.5745 22.392 55.7425 21.176C54.9425 19.928 53.7105 19.304 52.0465 19.304C50.8945 19.304 49.7425 19.592 48.5905 20.168C47.4705 20.744 46.4625 21.528 45.5665 22.52C44.7025 23.48 44.0785 24.6 43.6945 25.88V41H39.4705V15.944H43.3105V21.32C43.9825 20.136 44.8465 19.112 45.9025 18.248C46.9585 17.384 48.1585 16.712 49.5025 16.232C50.8465 15.752 52.2545 15.512 53.7265 15.512C55.1665 15.512 56.3665 15.784 57.3265 16.328C58.3185 16.84 59.0865 17.576 59.6305 18.536C60.2065 19.464 60.6065 20.568 60.8305 21.848C61.0865 23.128 61.2145 24.52 61.2145 26.024V41ZM80.5086 39.752C80.1566 39.912 79.6766 40.12 79.0686 40.376C78.4606 40.632 77.7566 40.856 76.9566 41.048C76.1566 41.24 75.3086 41.336 74.4126 41.336C73.3886 41.336 72.4446 41.16 71.5806 40.808C70.7166 40.424 70.0286 39.848 69.5166 39.08C69.0046 38.28 68.7486 37.288 68.7486 36.104V19.256H65.3406V15.944H68.7486V7.592H72.9726V15.944H78.5886V19.256H72.9726V34.808C73.0366 35.704 73.3406 36.376 73.8846 36.824C74.4286 37.24 75.0686 37.448 75.8046 37.448C76.6366 37.448 77.4046 37.304 78.1086 37.016C78.8126 36.728 79.2766 36.52 79.5006 36.392L80.5086 39.752ZM95.1835 41.48C93.2955 41.48 91.5675 41.144 89.9995 40.472C88.4635 39.768 87.1195 38.824 85.9675 37.64C84.8475 36.424 83.9675 35.032 83.3275 33.464C82.7195 31.896 82.4155 30.232 82.4155 28.472C82.4155 26.104 82.9595 23.944 84.0475 21.992C85.1355 20.04 86.6395 18.472 88.5595 17.288C90.5115 16.104 92.7355 15.512 95.2315 15.512C97.7595 15.512 99.9515 16.12 101.808 17.336C103.696 18.52 105.152 20.088 106.176 22.04C107.232 23.96 107.76 26.04 107.76 28.28C107.76 28.6 107.744 28.92 107.712 29.24C107.712 29.528 107.696 29.752 107.664 29.912H86.8795C87.0075 31.544 87.4555 33 88.2235 34.28C89.0235 35.528 90.0475 36.52 91.2955 37.256C92.5435 37.96 93.8875 38.312 95.3275 38.312C96.8635 38.312 98.3035 37.928 99.6475 37.16C101.024 36.392 101.968 35.384 102.48 34.136L106.128 35.144C105.584 36.36 104.768 37.448 103.68 38.408C102.624 39.368 101.36 40.12 99.8875 40.664C98.4475 41.208 96.8795 41.48 95.1835 41.48ZM86.7355 26.984H103.824C103.696 25.352 103.232 23.912 102.432 22.664C101.632 21.416 100.608 20.44 99.3595 19.736C98.1115 19.032 96.7355 18.68 95.2315 18.68C93.7595 18.68 92.3995 19.032 91.1515 19.736C89.9035 20.44 88.8795 21.416 88.0795 22.664C87.3115 23.912 86.8635 25.352 86.7355 26.984ZM125.703 19.64C123.591 19.672 121.719 20.216 120.087 21.272C118.487 22.296 117.351 23.72 116.679 25.544V41H112.455V15.944H116.391V21.752C117.255 20.024 118.391 18.632 119.799 17.576C121.239 16.488 122.743 15.88 124.311 15.752C124.631 15.752 124.903 15.752 125.127 15.752C125.351 15.752 125.543 15.768 125.703 15.8V19.64ZM151.636 41H147.412V26.984C147.412 24.328 146.996 22.392 146.164 21.176C145.364 19.928 144.132 19.304 142.468 19.304C141.316 19.304 140.164 19.592 139.012 20.168C137.892 20.744 136.884 21.528 135.988 22.52C135.124 23.48 134.5 24.6 134.116 25.88V41H129.892V15.944H133.732V21.32C134.404 20.136 135.268 19.112 136.324 18.248C137.38 17.384 138.58 16.712 139.924 16.232C141.268 15.752 142.676 15.512 144.148 15.512C145.588 15.512 146.788 15.784 147.748 16.328C148.74 16.84 149.508 17.576 150.052 18.536C150.628 19.464 151.028 20.568 151.252 21.848C151.508 23.128 151.636 24.52 151.636 26.024V41ZM156.237 33.752C156.237 32.152 156.685 30.776 157.581 29.624C158.509 28.44 159.773 27.528 161.373 26.888C162.973 26.248 164.829 25.928 166.941 25.928C168.061 25.928 169.245 26.024 170.493 26.216C171.741 26.376 172.845 26.632 173.805 26.984V25.16C173.805 23.24 173.229 21.736 172.077 20.648C170.925 19.528 169.293 18.968 167.181 18.968C165.805 18.968 164.477 19.224 163.197 19.736C161.949 20.216 160.621 20.92 159.213 21.848L157.677 18.872C159.309 17.752 160.941 16.92 162.573 16.376C164.205 15.8 165.901 15.512 167.661 15.512C170.861 15.512 173.389 16.408 175.245 18.2C177.101 19.96 178.029 22.424 178.029 25.592V36.2C178.029 36.712 178.125 37.096 178.317 37.352C178.541 37.576 178.893 37.704 179.373 37.736V41C178.957 41.064 178.589 41.112 178.269 41.144C177.981 41.176 177.741 41.192 177.549 41.192C176.557 41.192 175.805 40.92 175.293 40.376C174.813 39.832 174.541 39.256 174.477 38.648L174.381 37.064C173.293 38.472 171.869 39.56 170.109 40.328C168.349 41.096 166.605 41.48 164.877 41.48C163.213 41.48 161.725 41.144 160.413 40.472C159.101 39.768 158.077 38.84 157.341 37.688C156.605 36.504 156.237 35.192 156.237 33.752ZM172.557 35.528C172.941 35.08 173.245 34.632 173.469 34.184C173.693 33.704 173.805 33.304 173.805 32.984V29.864C172.813 29.48 171.773 29.192 170.685 29C169.597 28.776 168.525 28.664 167.469 28.664C165.325 28.664 163.581 29.096 162.237 29.96C160.925 30.792 160.269 31.944 160.269 33.416C160.269 34.216 160.477 35 160.893 35.768C161.341 36.504 161.981 37.112 162.813 37.592C163.677 38.072 164.733 38.312 165.981 38.312C167.293 38.312 168.541 38.056 169.725 37.544C170.909 37 171.853 36.328 172.557 35.528ZM197.556 39.752C197.204 39.912 196.724 40.12 196.116 40.376C195.508 40.632 194.804 40.856 194.004 41.048C193.204 41.24 192.356 41.336 191.46 41.336C190.436 41.336 189.492 41.16 188.628 40.808C187.764 40.424 187.076 39.848 186.564 39.08C186.052 38.28 185.796 37.288 185.796 36.104V19.256H182.388V15.944H185.796V7.592H190.02V15.944H195.636V19.256H190.02V34.808C190.084 35.704 190.388 36.376 190.932 36.824C191.476 37.24 192.116 37.448 192.852 37.448C193.684 37.448 194.452 37.304 195.156 37.016C195.86 36.728 196.324 36.52 196.548 36.392L197.556 39.752ZM201.471 41V15.944H205.695V41H201.471ZM201.471 11.24V5.96H205.695V11.24H201.471ZM223.477 41.48C221.589 41.48 219.877 41.144 218.341 40.472C216.805 39.768 215.477 38.824 214.357 37.64C213.237 36.424 212.373 35.032 211.765 33.464C211.157 31.896 210.853 30.248 210.853 28.52C210.853 26.76 211.157 25.096 211.765 23.528C212.373 21.96 213.237 20.584 214.357 19.4C215.477 18.184 216.805 17.24 218.341 16.568C219.909 15.864 221.621 15.512 223.477 15.512C225.365 15.512 227.077 15.864 228.613 16.568C230.149 17.24 231.477 18.184 232.597 19.4C233.749 20.584 234.629 21.96 235.237 23.528C235.845 25.096 236.149 26.76 236.149 28.52C236.149 30.248 235.845 31.896 235.237 33.464C234.629 35.032 233.765 36.424 232.645 37.64C231.525 38.824 230.181 39.768 228.613 40.472C227.077 41.144 225.365 41.48 223.477 41.48ZM215.173 28.568C215.173 30.296 215.541 31.864 216.277 33.272C217.045 34.68 218.053 35.8 219.301 36.632C220.549 37.432 221.941 37.832 223.477 37.832C225.013 37.832 226.405 37.416 227.653 36.584C228.933 35.752 229.941 34.632 230.677 33.224C231.445 31.784 231.829 30.2 231.829 28.472C231.829 26.744 231.445 25.176 230.677 23.768C229.941 22.36 228.933 21.24 227.653 20.408C226.405 19.576 225.013 19.16 223.477 19.16C221.941 19.16 220.549 19.592 219.301 20.456C218.053 21.288 217.045 22.408 216.277 23.816C215.541 25.224 215.173 26.808 215.173 28.568ZM263.011 41H258.787V26.984C258.787 24.328 258.371 22.392 257.539 21.176C256.739 19.928 255.507 19.304 253.843 19.304C252.691 19.304 251.539 19.592 250.387 20.168C249.267 20.744 248.259 21.528 247.363 22.52C246.499 23.48 245.875 24.6 245.491 25.88V41H241.267V15.944H245.107V21.32C245.779 20.136 246.643 19.112 247.699 18.248C248.755 17.384 249.955 16.712 251.299 16.232C252.643 15.752 254.051 15.512 255.523 15.512C256.963 15.512 258.163 15.784 259.123 16.328C260.115 16.84 260.883 17.576 261.427 18.536C262.003 19.464 262.403 20.568 262.627 21.848C262.883 23.128 263.011 24.52 263.011 26.024V41ZM267.612 33.752C267.612 32.152 268.06 30.776 268.956 29.624C269.884 28.44 271.148 27.528 272.748 26.888C274.348 26.248 276.204 25.928 278.316 25.928C279.436 25.928 280.62 26.024 281.868 26.216C283.116 26.376 284.22 26.632 285.18 26.984V25.16C285.18 23.24 284.604 21.736 283.452 20.648C282.3 19.528 280.668 18.968 278.556 18.968C277.18 18.968 275.852 19.224 274.572 19.736C273.324 20.216 271.996 20.92 270.588 21.848L269.052 18.872C270.684 17.752 272.316 16.92 273.948 16.376C275.58 15.8 277.276 15.512 279.036 15.512C282.236 15.512 284.764 16.408 286.62 18.2C288.476 19.96 289.404 22.424 289.404 25.592V36.2C289.404 36.712 289.5 37.096 289.692 37.352C289.916 37.576 290.268 37.704 290.748 37.736V41C290.332 41.064 289.964 41.112 289.644 41.144C289.356 41.176 289.116 41.192 288.924 41.192C287.932 41.192 287.18 40.92 286.668 40.376C286.188 39.832 285.916 39.256 285.852 38.648L285.756 37.064C284.668 38.472 283.244 39.56 281.484 40.328C279.724 41.096 277.98 41.48 276.252 41.48C274.588 41.48 273.1 41.144 271.788 40.472C270.476 39.768 269.452 38.84 268.716 37.688C267.98 36.504 267.612 35.192 267.612 33.752ZM283.932 35.528C284.316 35.08 284.62 34.632 284.844 34.184C285.068 33.704 285.18 33.304 285.18 32.984V29.864C284.188 29.48 283.148 29.192 282.06 29C280.972 28.776 279.9 28.664 278.844 28.664C276.7 28.664 274.956 29.096 273.612 29.96C272.3 30.792 271.644 31.944 271.644 33.416C271.644 34.216 271.852 35 272.268 35.768C272.716 36.504 273.356 37.112 274.188 37.592C275.052 38.072 276.108 38.312 277.356 38.312C278.668 38.312 279.916 38.056 281.1 37.544C282.284 37 283.228 36.328 283.932 35.528ZM296.254 5.96H300.478V34.52C300.478 35.896 300.67 36.744 301.054 37.064C301.438 37.384 301.902 37.544 302.446 37.544C303.118 37.544 303.758 37.48 304.366 37.352C304.974 37.192 305.486 37.032 305.902 36.872L306.574 40.328C305.87 40.616 305.038 40.856 304.078 41.048C303.118 41.24 302.27 41.336 301.534 41.336C299.902 41.336 298.606 40.872 297.646 39.944C296.718 39.016 296.254 37.72 296.254 36.056V5.96ZM309.892 41V15.944H314.116V41H309.892ZM309.892 11.24V5.96H314.116V11.24H309.892ZM333.915 39.752C333.563 39.912 333.083 40.12 332.475 40.376C331.867 40.632 331.163 40.856 330.363 41.048C329.563 41.24 328.715 41.336 327.819 41.336C326.795 41.336 325.851 41.16 324.987 40.808C324.123 40.424 323.435 39.848 322.923 39.08C322.411 38.28 322.155 37.288 322.155 36.104V19.256H318.747V15.944H322.155V7.592H326.379V15.944H331.995V19.256H326.379V34.808C326.443 35.704 326.747 36.376 327.291 36.824C327.835 37.24 328.475 37.448 329.211 37.448C330.043 37.448 330.811 37.304 331.515 37.016C332.219 36.728 332.683 36.52 332.907 36.392L333.915 39.752ZM338.982 47.816C339.398 47.848 339.814 47.88 340.23 47.912C340.646 47.976 340.966 48.008 341.19 48.008C341.702 48.008 342.15 47.832 342.534 47.48C342.918 47.128 343.334 46.44 343.782 45.416C344.262 44.424 344.87 42.952 345.606 41L334.998 15.944H339.462L347.91 36.728L355.542 15.944H359.718L347.526 47.576C347.238 48.312 346.806 49 346.23 49.64C345.686 50.312 344.982 50.84 344.118 51.224C343.254 51.608 342.214 51.8 340.998 51.8C340.71 51.8 340.406 51.784 340.086 51.752C339.798 51.72 339.43 51.656 338.982 51.56V47.816Z" fill="#0022D5"/>
<path d="M36.86 97.04H31.8V110H30.4V97.04H25.34V95.8H36.86V97.04ZM47.467 110H46.107V104.18C46.107 103.007 45.9004 102.127 45.487 101.54C45.0737 100.94 44.4804 100.64 43.707 100.64C43.2004 100.64 42.6937 100.773 42.187 101.04C41.6937 101.293 41.2537 101.647 40.867 102.1C40.4937 102.54 40.227 103.047 40.067 103.62V110H38.707V95.4H40.067V101.94C40.4804 101.167 41.0537 100.553 41.787 100.1C42.5337 99.6333 43.327 99.4 44.167 99.4C44.767 99.4 45.2737 99.5067 45.687 99.72C46.1137 99.9333 46.4537 100.247 46.707 100.66C46.9737 101.06 47.167 101.533 47.287 102.08C47.407 102.613 47.467 103.22 47.467 103.9V110ZM54.8672 110.2C54.1205 110.2 53.4272 110.06 52.7872 109.78C52.1472 109.487 51.5939 109.093 51.1272 108.6C50.6605 108.093 50.2939 107.513 50.0272 106.86C49.7739 106.207 49.6472 105.507 49.6472 104.76C49.6472 103.787 49.8672 102.893 50.3072 102.08C50.7605 101.267 51.3805 100.62 52.1672 100.14C52.9539 99.6467 53.8472 99.4 54.8472 99.4C55.8739 99.4 56.7672 99.6467 57.5272 100.14C58.3005 100.633 58.9072 101.287 59.3472 102.1C59.7872 102.9 60.0072 103.78 60.0072 104.74C60.0072 104.847 60.0072 104.953 60.0072 105.06C60.0072 105.153 60.0005 105.227 59.9872 105.28H51.0672C51.1339 106.027 51.3405 106.693 51.6872 107.28C52.0472 107.853 52.5072 108.313 53.0672 108.66C53.6405 108.993 54.2605 109.16 54.9272 109.16C55.6072 109.16 56.2472 108.987 56.8472 108.64C57.4605 108.293 57.8872 107.84 58.1272 107.28L59.3072 107.6C59.0939 108.093 58.7672 108.54 58.3272 108.94C57.8872 109.34 57.3672 109.653 56.7672 109.88C56.1805 110.093 55.5472 110.2 54.8672 110.2ZM51.0272 104.3H58.7272C58.6739 103.54 58.4672 102.873 58.1072 102.3C57.7605 101.727 57.3005 101.28 56.7272 100.96C56.1672 100.627 55.5472 100.46 54.8672 100.46C54.1872 100.46 53.5672 100.627 53.0072 100.96C52.4472 101.28 51.9872 101.733 51.6272 102.32C51.2805 102.893 51.0805 103.553 51.0272 104.3ZM69.7563 110L65.5363 99.58H66.9563L70.5163 108.64L74.0963 99.58H75.4362L71.2163 110H69.7563ZM76.2264 107C76.2264 106.347 76.4131 105.787 76.7864 105.32C77.1597 104.84 77.6731 104.473 78.3264 104.22C78.9931 103.953 79.7597 103.82 80.6264 103.82C81.1331 103.82 81.6597 103.86 82.2064 103.94C82.7531 104.02 83.2397 104.14 83.6664 104.3V103.42C83.6664 102.54 83.4064 101.84 82.8864 101.32C82.3664 100.8 81.6464 100.54 80.7264 100.54C80.1664 100.54 79.6131 100.647 79.0664 100.86C78.5331 101.06 77.9731 101.36 77.3864 101.76L76.8664 100.8C77.5464 100.333 78.2131 99.9867 78.8664 99.76C79.5197 99.52 80.1864 99.4 80.8664 99.4C82.1464 99.4 83.1597 99.7667 83.9064 100.5C84.6531 101.233 85.0264 102.247 85.0264 103.54V108.36C85.0264 108.547 85.0664 108.687 85.1464 108.78C85.2264 108.86 85.3531 108.907 85.5264 108.92V110C85.3797 110.013 85.2531 110.027 85.1464 110.04C85.0397 110.053 84.9597 110.053 84.9064 110.04C84.5731 110.027 84.3197 109.92 84.1464 109.72C83.9731 109.52 83.8797 109.307 83.8664 109.08L83.8464 108.32C83.3797 108.92 82.7731 109.387 82.0264 109.72C81.2797 110.04 80.5197 110.2 79.7464 110.2C79.0797 110.2 78.4731 110.06 77.9264 109.78C77.3931 109.487 76.9731 109.1 76.6664 108.62C76.3731 108.127 76.2264 107.587 76.2264 107ZM83.2064 107.8C83.3531 107.613 83.4664 107.433 83.5464 107.26C83.6264 107.087 83.6664 106.933 83.6664 106.8V105.28C83.2131 105.107 82.7397 104.973 82.2464 104.88C81.7664 104.787 81.2797 104.74 80.7864 104.74C79.8131 104.74 79.0264 104.933 78.4264 105.32C77.8264 105.707 77.5264 106.233 77.5264 106.9C77.5264 107.287 77.6264 107.653 77.8264 108C78.0264 108.333 78.3197 108.613 78.7064 108.84C79.0931 109.053 79.5464 109.16 80.0664 109.16C80.7197 109.16 81.3264 109.033 81.8864 108.78C82.4597 108.527 82.8997 108.2 83.2064 107.8ZM88.0248 95.4H89.3848V107.64C89.3848 108.16 89.4782 108.5 89.6648 108.66C89.8515 108.82 90.0782 108.9 90.3448 108.9C90.5848 108.9 90.8248 108.873 91.0648 108.82C91.3048 108.767 91.5115 108.713 91.6848 108.66L91.9248 109.76C91.6715 109.867 91.3582 109.953 90.9848 110.02C90.6248 110.087 90.3115 110.12 90.0448 110.12C89.4315 110.12 88.9382 109.94 88.5648 109.58C88.2048 109.22 88.0248 108.727 88.0248 108.1V95.4ZM93.3141 105.7V99.58H94.6741V105.46C94.6741 106.647 94.8741 107.533 95.2741 108.12C95.6874 108.707 96.2941 109 97.0941 109C97.6274 109 98.1407 108.887 98.6341 108.66C99.1407 108.42 99.5874 108.087 99.9741 107.66C100.361 107.22 100.654 106.713 100.854 106.14V99.58H102.214V108.36C102.214 108.547 102.254 108.687 102.334 108.78C102.414 108.86 102.534 108.907 102.694 108.92V110C102.534 110.013 102.407 110.02 102.314 110.02C102.221 110.033 102.134 110.04 102.054 110.04C101.787 110.013 101.554 109.907 101.354 109.72C101.167 109.533 101.067 109.307 101.054 109.04L101.014 107.64C100.561 108.44 99.9407 109.067 99.1541 109.52C98.3807 109.973 97.5407 110.2 96.6341 110.2C95.5407 110.2 94.7141 109.82 94.1541 109.06C93.5941 108.3 93.3141 107.18 93.3141 105.7ZM109.789 110.2C109.042 110.2 108.349 110.06 107.709 109.78C107.069 109.487 106.516 109.093 106.049 108.6C105.582 108.093 105.216 107.513 104.949 106.86C104.696 106.207 104.569 105.507 104.569 104.76C104.569 103.787 104.789 102.893 105.229 102.08C105.682 101.267 106.302 100.62 107.089 100.14C107.876 99.6467 108.769 99.4 109.769 99.4C110.796 99.4 111.689 99.6467 112.449 100.14C113.222 100.633 113.829 101.287 114.269 102.1C114.709 102.9 114.929 103.78 114.929 104.74C114.929 104.847 114.929 104.953 114.929 105.06C114.929 105.153 114.922 105.227 114.909 105.28H105.989C106.056 106.027 106.262 106.693 106.609 107.28C106.969 107.853 107.429 108.313 107.989 108.66C108.562 108.993 109.182 109.16 109.849 109.16C110.529 109.16 111.169 108.987 111.769 108.64C112.382 108.293 112.809 107.84 113.049 107.28L114.229 107.6C114.016 108.093 113.689 108.54 113.249 108.94C112.809 109.34 112.289 109.653 111.689 109.88C111.102 110.093 110.469 110.2 109.789 110.2ZM105.949 104.3H113.649C113.596 103.54 113.389 102.873 113.029 102.3C112.682 101.727 112.222 101.28 111.649 100.96C111.089 100.627 110.469 100.46 109.789 100.46C109.109 100.46 108.489 100.627 107.929 100.96C107.369 101.28 106.909 101.733 106.549 102.32C106.202 102.893 106.002 103.553 105.949 104.3ZM126.565 110.2C125.818 110.2 125.125 110.06 124.485 109.78C123.858 109.487 123.312 109.093 122.845 108.6C122.392 108.093 122.038 107.52 121.785 106.88C121.532 106.227 121.405 105.54 121.405 104.82C121.405 104.073 121.532 103.38 121.785 102.74C122.038 102.087 122.398 101.513 122.865 101.02C123.332 100.513 123.878 100.12 124.505 99.84C125.145 99.5467 125.838 99.4 126.585 99.4C127.332 99.4 128.018 99.5467 128.645 99.84C129.272 100.12 129.818 100.513 130.285 101.02C130.752 101.513 131.112 102.087 131.365 102.74C131.618 103.38 131.745 104.073 131.745 104.82C131.745 105.54 131.618 106.227 131.365 106.88C131.112 107.52 130.752 108.093 130.285 108.6C129.832 109.093 129.285 109.487 128.645 109.78C128.018 110.06 127.325 110.2 126.565 110.2ZM122.785 104.84C122.785 105.613 122.952 106.32 123.285 106.96C123.632 107.587 124.092 108.087 124.665 108.46C125.238 108.82 125.872 109 126.565 109C127.258 109 127.892 108.813 128.465 108.44C129.038 108.067 129.498 107.56 129.845 106.92C130.192 106.267 130.365 105.56 130.365 104.8C130.365 104.027 130.192 103.32 129.845 102.68C129.498 102.04 129.038 101.533 128.465 101.16C127.892 100.787 127.258 100.6 126.565 100.6C125.872 100.6 125.238 100.793 124.665 101.18C124.105 101.567 123.652 102.08 123.305 102.72C122.958 103.347 122.785 104.053 122.785 104.84ZM134.344 110V100.66H132.904V99.58H134.344V99.3C134.344 98.4467 134.464 97.7133 134.704 97.1C134.957 96.4867 135.31 96.02 135.764 95.7C136.23 95.3667 136.777 95.2 137.404 95.2C137.817 95.2 138.217 95.26 138.604 95.38C138.99 95.5 139.324 95.66 139.604 95.86L139.184 96.84C139.01 96.6933 138.784 96.58 138.504 96.5C138.224 96.42 137.944 96.38 137.664 96.38C137.037 96.38 136.55 96.6267 136.204 97.12C135.87 97.6133 135.704 98.3267 135.704 99.26V99.58H138.584V100.66H135.704V110H134.344ZM149.614 110.2C148.854 110.2 148.154 110.06 147.514 109.78C146.887 109.487 146.334 109.087 145.854 108.58C145.387 108.073 145.02 107.493 144.754 106.84C144.5 106.187 144.374 105.493 144.374 104.76C144.374 103.773 144.594 102.873 145.034 102.06C145.474 101.247 146.087 100.6 146.874 100.12C147.66 99.64 148.567 99.4 149.594 99.4C150.567 99.4 151.427 99.6267 152.174 100.08C152.92 100.52 153.474 101.12 153.834 101.88L152.514 102.3C152.22 101.767 151.807 101.353 151.274 101.06C150.754 100.753 150.174 100.6 149.534 100.6C148.84 100.6 148.207 100.78 147.634 101.14C147.06 101.5 146.6 101.993 146.254 102.62C145.92 103.247 145.754 103.96 145.754 104.76C145.754 105.547 145.927 106.26 146.274 106.9C146.62 107.54 147.08 108.053 147.654 108.44C148.227 108.813 148.86 109 149.554 109C150.007 109 150.44 108.92 150.854 108.76C151.28 108.6 151.647 108.387 151.954 108.12C152.274 107.84 152.487 107.54 152.594 107.22L153.934 107.62C153.747 108.113 153.434 108.56 152.994 108.96C152.567 109.347 152.06 109.653 151.474 109.88C150.9 110.093 150.28 110.2 149.614 110.2ZM160.413 110.2C159.666 110.2 158.973 110.06 158.333 109.78C157.706 109.487 157.159 109.093 156.693 108.6C156.239 108.093 155.886 107.52 155.633 106.88C155.379 106.227 155.253 105.54 155.253 104.82C155.253 104.073 155.379 103.38 155.633 102.74C155.886 102.087 156.246 101.513 156.713 101.02C157.179 100.513 157.726 100.12 158.353 99.84C158.993 99.5467 159.686 99.4 160.433 99.4C161.179 99.4 161.866 99.5467 162.493 99.84C163.119 100.12 163.666 100.513 164.133 101.02C164.599 101.513 164.959 102.087 165.213 102.74C165.466 103.38 165.593 104.073 165.593 104.82C165.593 105.54 165.466 106.227 165.213 106.88C164.959 107.52 164.599 108.093 164.133 108.6C163.679 109.093 163.133 109.487 162.493 109.78C161.866 110.06 161.173 110.2 160.413 110.2ZM156.633 104.84C156.633 105.613 156.799 106.32 157.133 106.96C157.479 107.587 157.939 108.087 158.513 108.46C159.086 108.82 159.719 109 160.413 109C161.106 109 161.739 108.813 162.313 108.44C162.886 108.067 163.346 107.56 163.693 106.92C164.039 106.267 164.213 105.56 164.213 104.8C164.213 104.027 164.039 103.32 163.693 102.68C163.346 102.04 162.886 101.533 162.313 101.16C161.739 100.787 161.106 100.6 160.413 100.6C159.719 100.6 159.086 100.793 158.513 101.18C157.953 101.567 157.499 102.08 157.153 102.72C156.806 103.347 156.633 104.053 156.633 104.84ZM176.627 110H175.267V104.18C175.267 102.953 175.087 102.06 174.727 101.5C174.367 100.927 173.801 100.64 173.027 100.64C172.494 100.64 171.967 100.773 171.447 101.04C170.927 101.293 170.467 101.647 170.067 102.1C169.681 102.54 169.401 103.047 169.227 103.62V110H167.867V99.58H169.107V101.94C169.387 101.433 169.754 100.993 170.207 100.62C170.661 100.233 171.174 99.9333 171.747 99.72C172.321 99.5067 172.914 99.4 173.527 99.4C174.101 99.4 174.587 99.5067 174.987 99.72C175.387 99.9333 175.707 100.24 175.947 100.64C176.187 101.027 176.361 101.5 176.467 102.06C176.574 102.607 176.627 103.22 176.627 103.9V110ZM188.287 110H186.927V104.18C186.927 102.953 186.747 102.06 186.387 101.5C186.027 100.927 185.461 100.64 184.687 100.64C184.154 100.64 183.627 100.773 183.107 101.04C182.587 101.293 182.127 101.647 181.727 102.1C181.341 102.54 181.061 103.047 180.887 103.62V110H179.527V99.58H180.767V101.94C181.047 101.433 181.414 100.993 181.867 100.62C182.321 100.233 182.834 99.9333 183.407 99.72C183.981 99.5067 184.574 99.4 185.187 99.4C185.761 99.4 186.247 99.5067 186.647 99.72C187.047 99.9333 187.367 100.24 187.607 100.64C187.847 101.027 188.021 101.5 188.127 102.06C188.234 102.607 188.287 103.22 188.287 103.9V110ZM195.688 110.2C194.941 110.2 194.248 110.06 193.608 109.78C192.968 109.487 192.414 109.093 191.948 108.6C191.481 108.093 191.114 107.513 190.848 106.86C190.594 106.207 190.468 105.507 190.468 104.76C190.468 103.787 190.688 102.893 191.128 102.08C191.581 101.267 192.201 100.62 192.988 100.14C193.774 99.6467 194.668 99.4 195.668 99.4C196.694 99.4 197.588 99.6467 198.348 100.14C199.121 100.633 199.728 101.287 200.168 102.1C200.608 102.9 200.828 103.78 200.828 104.74C200.828 104.847 200.828 104.953 200.828 105.06C200.828 105.153 200.821 105.227 200.808 105.28H191.888C191.954 106.027 192.161 106.693 192.508 107.28C192.868 107.853 193.328 108.313 193.888 108.66C194.461 108.993 195.081 109.16 195.748 109.16C196.428 109.16 197.068 108.987 197.668 108.64C198.281 108.293 198.708 107.84 198.948 107.28L200.128 107.6C199.914 108.093 199.588 108.54 199.148 108.94C198.708 109.34 198.188 109.653 197.588 109.88C197.001 110.093 196.368 110.2 195.688 110.2ZM191.848 104.3H199.548C199.494 103.54 199.288 102.873 198.928 102.3C198.581 101.727 198.121 101.28 197.548 100.96C196.988 100.627 196.368 100.46 195.688 100.46C195.008 100.46 194.388 100.627 193.828 100.96C193.268 101.28 192.808 101.733 192.448 102.32C192.101 102.893 191.901 103.553 191.848 104.3ZM207.446 110.2C206.686 110.2 205.986 110.06 205.346 109.78C204.719 109.487 204.166 109.087 203.686 108.58C203.219 108.073 202.852 107.493 202.586 106.84C202.332 106.187 202.206 105.493 202.206 104.76C202.206 103.773 202.426 102.873 202.866 102.06C203.306 101.247 203.919 100.6 204.706 100.12C205.492 99.64 206.399 99.4 207.426 99.4C208.399 99.4 209.259 99.6267 210.006 100.08C210.752 100.52 211.306 101.12 211.666 101.88L210.346 102.3C210.052 101.767 209.639 101.353 209.106 101.06C208.586 100.753 208.006 100.6 207.366 100.6C206.672 100.6 206.039 100.78 205.466 101.14C204.892 101.5 204.432 101.993 204.086 102.62C203.752 103.247 203.586 103.96 203.586 104.76C203.586 105.547 203.759 106.26 204.106 106.9C204.452 107.54 204.912 108.053 205.486 108.44C206.059 108.813 206.692 109 207.386 109C207.839 109 208.272 108.92 208.686 108.76C209.112 108.6 209.479 108.387 209.786 108.12C210.106 107.84 210.319 107.54 210.426 107.22L211.766 107.62C211.579 108.113 211.266 108.56 210.826 108.96C210.399 109.347 209.892 109.653 209.306 109.88C208.732 110.093 208.112 110.2 207.446 110.2ZM218.902 109.5C218.796 109.54 218.629 109.613 218.402 109.72C218.176 109.827 217.902 109.92 217.582 110C217.262 110.08 216.916 110.12 216.542 110.12C216.156 110.12 215.789 110.047 215.442 109.9C215.109 109.753 214.842 109.533 214.642 109.24C214.442 108.933 214.342 108.56 214.342 108.12V100.66H212.902V99.58H214.342V96.06H215.702V99.58H218.102V100.66H215.702V107.74C215.729 108.113 215.862 108.393 216.102 108.58C216.356 108.767 216.642 108.86 216.962 108.86C217.336 108.86 217.676 108.8 217.982 108.68C218.289 108.547 218.476 108.453 218.542 108.4L218.902 109.5ZM220.602 110V99.58H221.962V110H220.602ZM220.602 97.4V95.4H221.962V97.4H220.602ZM233.717 110H232.357V104.18C232.357 102.953 232.177 102.06 231.817 101.5C231.457 100.927 230.89 100.64 230.117 100.64C229.584 100.64 229.057 100.773 228.537 101.04C228.017 101.293 227.557 101.647 227.157 102.1C226.77 102.54 226.49 103.047 226.317 103.62V110H224.957V99.58H226.197V101.94C226.477 101.433 226.844 100.993 227.297 100.62C227.75 100.233 228.264 99.9333 228.837 99.72C229.41 99.5067 230.004 99.4 230.617 99.4C231.19 99.4 231.677 99.5067 232.077 99.72C232.477 99.9333 232.797 100.24 233.037 100.64C233.277 101.027 233.45 101.5 233.557 102.06C233.664 102.607 233.717 103.22 233.717 103.9V110ZM240.797 110.14C240.091 110.14 239.437 109.993 238.837 109.7C238.237 109.407 237.717 109.013 237.277 108.52C236.851 108.013 236.517 107.44 236.277 106.8C236.037 106.16 235.917 105.5 235.917 104.82C235.917 104.087 236.031 103.4 236.257 102.76C236.497 102.107 236.831 101.527 237.257 101.02C237.697 100.513 238.211 100.12 238.797 99.84C239.384 99.5467 240.037 99.4 240.757 99.4C241.651 99.4 242.424 99.6267 243.077 100.08C243.744 100.533 244.304 101.093 244.757 101.76V99.58H245.977V110.04C245.977 111 245.744 111.807 245.277 112.46C244.824 113.127 244.204 113.627 243.417 113.96C242.644 114.293 241.797 114.46 240.877 114.46C239.691 114.46 238.731 114.247 237.997 113.82C237.264 113.393 236.664 112.82 236.197 112.1L237.037 111.44C237.451 112.093 237.997 112.58 238.677 112.9C239.371 113.22 240.104 113.38 240.877 113.38C241.557 113.38 242.177 113.253 242.737 113C243.311 112.76 243.764 112.393 244.097 111.9C244.444 111.407 244.617 110.787 244.617 110.04V107.98C244.217 108.633 243.671 109.16 242.977 109.56C242.284 109.947 241.557 110.14 240.797 110.14ZM241.177 109C241.591 109 241.984 108.927 242.357 108.78C242.744 108.633 243.097 108.44 243.417 108.2C243.737 107.947 244.004 107.667 244.217 107.36C244.431 107.053 244.564 106.74 244.617 106.42V103.2C244.417 102.693 244.131 102.247 243.757 101.86C243.384 101.46 242.957 101.153 242.477 100.94C242.011 100.713 241.524 100.6 241.017 100.6C240.431 100.6 239.904 100.727 239.437 100.98C238.984 101.22 238.597 101.547 238.277 101.96C237.971 102.36 237.731 102.813 237.557 103.32C237.384 103.827 237.297 104.333 237.297 104.84C237.297 105.4 237.397 105.933 237.597 106.44C237.797 106.933 238.071 107.38 238.417 107.78C238.777 108.167 239.191 108.467 239.657 108.68C240.137 108.893 240.644 109 241.177 109ZM259.398 110.2C258.531 110.2 257.751 109.973 257.058 109.52C256.378 109.067 255.838 108.507 255.438 107.84V114.26H254.078V99.58H255.298V101.6C255.711 100.947 256.265 100.42 256.958 100.02C257.651 99.6067 258.391 99.4 259.178 99.4C259.898 99.4 260.558 99.5533 261.158 99.86C261.758 100.153 262.278 100.553 262.718 101.06C263.158 101.567 263.498 102.147 263.738 102.8C263.991 103.44 264.118 104.107 264.118 104.8C264.118 105.773 263.918 106.673 263.518 107.5C263.131 108.313 262.585 108.967 261.878 109.46C261.171 109.953 260.345 110.2 259.398 110.2ZM259.018 109C259.591 109 260.105 108.887 260.558 108.66C261.011 108.42 261.398 108.1 261.718 107.7C262.051 107.3 262.305 106.853 262.478 106.36C262.651 105.853 262.738 105.333 262.738 104.8C262.738 104.24 262.638 103.707 262.438 103.2C262.251 102.693 261.978 102.247 261.618 101.86C261.258 101.473 260.845 101.167 260.378 100.94C259.911 100.713 259.405 100.6 258.858 100.6C258.511 100.6 258.151 100.667 257.778 100.8C257.405 100.933 257.045 101.127 256.698 101.38C256.365 101.62 256.085 101.893 255.858 102.2C255.631 102.507 255.491 102.833 255.438 103.18V106.38C255.651 106.873 255.938 107.32 256.298 107.72C256.658 108.107 257.071 108.42 257.538 108.66C258.018 108.887 258.511 109 259.018 109ZM270.922 110.2C270.175 110.2 269.482 110.06 268.842 109.78C268.202 109.487 267.649 109.093 267.182 108.6C266.715 108.093 266.349 107.513 266.082 106.86C265.829 106.207 265.702 105.507 265.702 104.76C265.702 103.787 265.922 102.893 266.362 102.08C266.815 101.267 267.435 100.62 268.222 100.14C269.009 99.6467 269.902 99.4 270.902 99.4C271.929 99.4 272.822 99.6467 273.582 100.14C274.355 100.633 274.962 101.287 275.402 102.1C275.842 102.9 276.062 103.78 276.062 104.74C276.062 104.847 276.062 104.953 276.062 105.06C276.062 105.153 276.055 105.227 276.042 105.28H267.122C267.189 106.027 267.395 106.693 267.742 107.28C268.102 107.853 268.562 108.313 269.122 108.66C269.695 108.993 270.315 109.16 270.982 109.16C271.662 109.16 272.302 108.987 272.902 108.64C273.515 108.293 273.942 107.84 274.182 107.28L275.362 107.6C275.149 108.093 274.822 108.54 274.382 108.94C273.942 109.34 273.422 109.653 272.822 109.88C272.235 110.093 271.602 110.2 270.922 110.2ZM267.082 104.3H274.782C274.729 103.54 274.522 102.873 274.162 102.3C273.815 101.727 273.355 101.28 272.782 100.96C272.222 100.627 271.602 100.46 270.922 100.46C270.242 100.46 269.622 100.627 269.062 100.96C268.502 101.28 268.042 101.733 267.682 102.32C267.335 102.893 267.135 103.553 267.082 104.3ZM282.6 110.2C281.853 110.2 281.16 110.06 280.52 109.78C279.893 109.487 279.347 109.093 278.88 108.6C278.427 108.093 278.073 107.52 277.82 106.88C277.567 106.227 277.44 105.54 277.44 104.82C277.44 104.073 277.567 103.38 277.82 102.74C278.073 102.087 278.433 101.513 278.9 101.02C279.367 100.513 279.913 100.12 280.54 99.84C281.18 99.5467 281.873 99.4 282.62 99.4C283.367 99.4 284.053 99.5467 284.68 99.84C285.307 100.12 285.853 100.513 286.32 101.02C286.787 101.513 287.147 102.087 287.4 102.74C287.653 103.38 287.78 104.073 287.78 104.82C287.78 105.54 287.653 106.227 287.4 106.88C287.147 107.52 286.787 108.093 286.32 108.6C285.867 109.093 285.32 109.487 284.68 109.78C284.053 110.06 283.36 110.2 282.6 110.2ZM278.82 104.84C278.82 105.613 278.987 106.32 279.32 106.96C279.667 107.587 280.127 108.087 280.7 108.46C281.273 108.82 281.907 109 282.6 109C283.293 109 283.927 108.813 284.5 108.44C285.073 108.067 285.533 107.56 285.88 106.92C286.227 106.267 286.4 105.56 286.4 104.8C286.4 104.027 286.227 103.32 285.88 102.68C285.533 102.04 285.073 101.533 284.5 101.16C283.927 100.787 283.293 100.6 282.6 100.6C281.907 100.6 281.273 100.793 280.7 101.18C280.14 101.567 279.687 102.08 279.34 102.72C278.993 103.347 278.82 104.053 278.82 104.84ZM295.375 110.2C294.508 110.2 293.728 109.973 293.035 109.52C292.355 109.067 291.815 108.507 291.415 107.84V114.26H290.055V99.58H291.275V101.6C291.688 100.947 292.241 100.42 292.935 100.02C293.628 99.6067 294.368 99.4 295.155 99.4C295.875 99.4 296.535 99.5533 297.135 99.86C297.735 100.153 298.255 100.553 298.695 101.06C299.135 101.567 299.475 102.147 299.715 102.8C299.968 103.44 300.095 104.107 300.095 104.8C300.095 105.773 299.895 106.673 299.495 107.5C299.108 108.313 298.561 108.967 297.855 109.46C297.148 109.953 296.321 110.2 295.375 110.2ZM294.995 109C295.568 109 296.081 108.887 296.535 108.66C296.988 108.42 297.375 108.1 297.695 107.7C298.028 107.3 298.281 106.853 298.455 106.36C298.628 105.853 298.715 105.333 298.715 104.8C298.715 104.24 298.615 103.707 298.415 103.2C298.228 102.693 297.955 102.247 297.595 101.86C297.235 101.473 296.821 101.167 296.355 100.94C295.888 100.713 295.381 100.6 294.835 100.6C294.488 100.6 294.128 100.667 293.755 100.8C293.381 100.933 293.021 101.127 292.675 101.38C292.341 101.62 292.061 101.893 291.835 102.2C291.608 102.507 291.468 102.833 291.415 103.18V106.38C291.628 106.873 291.915 107.32 292.275 107.72C292.635 108.107 293.048 108.42 293.515 108.66C293.995 108.887 294.488 109 294.995 109ZM302.458 95.4H303.818V107.64C303.818 108.16 303.912 108.5 304.098 108.66C304.285 108.82 304.512 108.9 304.778 108.9C305.018 108.9 305.258 108.873 305.498 108.82C305.738 108.767 305.945 108.713 306.118 108.66L306.358 109.76C306.105 109.867 305.792 109.953 305.418 110.02C305.058 110.087 304.745 110.12 304.478 110.12C303.865 110.12 303.372 109.94 302.998 109.58C302.638 109.22 302.458 108.727 302.458 108.1V95.4ZM312.348 110.2C311.601 110.2 310.908 110.06 310.268 109.78C309.628 109.487 309.074 109.093 308.608 108.6C308.141 108.093 307.774 107.513 307.508 106.86C307.254 106.207 307.128 105.507 307.128 104.76C307.128 103.787 307.348 102.893 307.788 102.08C308.241 101.267 308.861 100.62 309.648 100.14C310.434 99.6467 311.328 99.4 312.328 99.4C313.354 99.4 314.248 99.6467 315.008 100.14C315.781 100.633 316.388 101.287 316.828 102.1C317.268 102.9 317.488 103.78 317.488 104.74C317.488 104.847 317.488 104.953 317.488 105.06C317.488 105.153 317.481 105.227 317.468 105.28H308.548C308.614 106.027 308.821 106.693 309.168 107.28C309.528 107.853 309.988 108.313 310.548 108.66C311.121 108.993 311.741 109.16 312.408 109.16C313.088 109.16 313.728 108.987 314.328 108.64C314.941 108.293 315.368 107.84 315.608 107.28L316.788 107.6C316.574 108.093 316.248 108.54 315.808 108.94C315.368 109.34 314.848 109.653 314.248 109.88C313.661 110.093 313.028 110.2 312.348 110.2ZM308.508 104.3H316.208C316.154 103.54 315.948 102.873 315.588 102.3C315.241 101.727 314.781 101.28 314.208 100.96C313.648 100.627 313.028 100.46 312.348 100.46C311.668 100.46 311.048 100.627 310.488 100.96C309.928 101.28 309.468 101.733 309.108 102.32C308.761 102.893 308.561 103.553 308.508 104.3ZM323.844 107C323.844 106.347 324.03 105.787 324.404 105.32C324.777 104.84 325.29 104.473 325.944 104.22C326.61 103.953 327.377 103.82 328.244 103.82C328.75 103.82 329.277 103.86 329.824 103.94C330.37 104.02 330.857 104.14 331.284 104.3V103.42C331.284 102.54 331.024 101.84 330.504 101.32C329.984 100.8 329.264 100.54 328.344 100.54C327.784 100.54 327.23 100.647 326.684 100.86C326.15 101.06 325.59 101.36 325.004 101.76L324.484 100.8C325.164 100.333 325.83 99.9867 326.484 99.76C327.137 99.52 327.804 99.4 328.484 99.4C329.764 99.4 330.777 99.7667 331.524 100.5C332.27 101.233 332.644 102.247 332.644 103.54V108.36C332.644 108.547 332.684 108.687 332.764 108.78C332.844 108.86 332.97 108.907 333.144 108.92V110C332.997 110.013 332.87 110.027 332.764 110.04C332.657 110.053 332.577 110.053 332.524 110.04C332.19 110.027 331.937 109.92 331.764 109.72C331.59 109.52 331.497 109.307 331.484 109.08L331.464 108.32C330.997 108.92 330.39 109.387 329.644 109.72C328.897 110.04 328.137 110.2 327.364 110.2C326.697 110.2 326.09 110.06 325.544 109.78C325.01 109.487 324.59 109.1 324.284 108.62C323.99 108.127 323.844 107.587 323.844 107ZM330.824 107.8C330.97 107.613 331.084 107.433 331.164 107.26C331.244 107.087 331.284 106.933 331.284 106.8V105.28C330.83 105.107 330.357 104.973 329.864 104.88C329.384 104.787 328.897 104.74 328.404 104.74C327.43 104.74 326.644 104.933 326.044 105.32C325.444 105.707 325.144 106.233 325.144 106.9C325.144 107.287 325.244 107.653 325.444 108C325.644 108.333 325.937 108.613 326.324 108.84C326.71 109.053 327.164 109.16 327.684 109.16C328.337 109.16 328.944 109.033 329.504 108.78C330.077 108.527 330.517 108.2 330.824 107.8ZM344.342 110H342.982V104.18C342.982 102.953 342.802 102.06 342.442 101.5C342.082 100.927 341.515 100.64 340.742 100.64C340.209 100.64 339.682 100.773 339.162 101.04C338.642 101.293 338.182 101.647 337.782 102.1C337.395 102.54 337.115 103.047 336.942 103.62V110H335.582V99.58H336.822V101.94C337.102 101.433 337.469 100.993 337.922 100.62C338.375 100.233 338.889 99.9333 339.462 99.72C340.035 99.5067 340.629 99.4 341.242 99.4C341.815 99.4 342.302 99.5067 342.702 99.72C343.102 99.9333 343.422 100.24 343.662 100.64C343.902 101.027 344.075 101.5 344.182 102.06C344.289 102.607 344.342 103.22 344.342 103.9V110ZM346.542 104.82C346.542 103.833 346.742 102.933 347.142 102.12C347.556 101.293 348.122 100.633 348.842 100.14C349.562 99.6467 350.382 99.4 351.302 99.4C352.169 99.4 352.942 99.6333 353.622 100.1C354.316 100.553 354.856 101.107 355.242 101.76V95.4H356.602V108.36C356.602 108.547 356.642 108.687 356.722 108.78C356.802 108.86 356.922 108.907 357.082 108.92V110C356.816 110.04 356.609 110.053 356.462 110.04C356.182 110.027 355.936 109.913 355.722 109.7C355.509 109.487 355.402 109.253 355.402 109V107.98C354.989 108.66 354.429 109.2 353.722 109.6C353.016 110 352.282 110.2 351.522 110.2C350.802 110.2 350.136 110.053 349.522 109.76C348.922 109.467 348.396 109.067 347.942 108.56C347.502 108.053 347.156 107.48 346.902 106.84C346.662 106.187 346.542 105.513 346.542 104.82ZM355.242 106.42V103.2C355.069 102.72 354.789 102.287 354.402 101.9C354.016 101.5 353.576 101.187 353.082 100.96C352.602 100.72 352.122 100.6 351.642 100.6C351.082 100.6 350.576 100.72 350.122 100.96C349.669 101.187 349.276 101.5 348.942 101.9C348.622 102.3 348.376 102.753 348.202 103.26C348.029 103.767 347.942 104.287 347.942 104.82C347.942 105.38 348.036 105.913 348.222 106.42C348.422 106.927 348.702 107.38 349.062 107.78C349.422 108.167 349.836 108.467 350.302 108.68C350.769 108.893 351.276 109 351.822 109C352.169 109 352.529 108.933 352.902 108.8C353.276 108.667 353.629 108.487 353.962 108.26C354.309 108.02 354.596 107.74 354.822 107.42C355.049 107.1 355.189 106.767 355.242 106.42ZM31.02 133.2C30.26 133.2 29.56 133.06 28.92 132.78C28.2933 132.487 27.74 132.087 27.26 131.58C26.7933 131.073 26.4267 130.493 26.16 129.84C25.9067 129.187 25.78 128.493 25.78 127.76C25.78 126.773 26 125.873 26.44 125.06C26.88 124.247 27.4933 123.6 28.28 123.12C29.0667 122.64 29.9733 122.4 31 122.4C31.9733 122.4 32.8333 122.627 33.58 123.08C34.3267 123.52 34.88 124.12 35.24 124.88L33.92 125.3C33.6267 124.767 33.2133 124.353 32.68 124.06C32.16 123.753 31.58 123.6 30.94 123.6C30.2467 123.6 29.6133 123.78 29.04 124.14C28.4667 124.5 28.0067 124.993 27.66 125.62C27.3267 126.247 27.16 126.96 27.16 127.76C27.16 128.547 27.3333 129.26 27.68 129.9C28.0267 130.54 28.4867 131.053 29.06 131.44C29.6333 131.813 30.2667 132 30.96 132C31.4133 132 31.8467 131.92 32.26 131.76C32.6867 131.6 33.0533 131.387 33.36 131.12C33.68 130.84 33.8933 130.54 34 130.22L35.34 130.62C35.1533 131.113 34.84 131.56 34.4 131.96C33.9733 132.347 33.4667 132.653 32.88 132.88C32.3067 133.093 31.6867 133.2 31.02 133.2ZM41.8189 133.2C41.0722 133.2 40.3789 133.06 39.7389 132.78C39.1122 132.487 38.5656 132.093 38.0989 131.6C37.6456 131.093 37.2922 130.52 37.0389 129.88C36.7856 129.227 36.6589 128.54 36.6589 127.82C36.6589 127.073 36.7856 126.38 37.0389 125.74C37.2922 125.087 37.6522 124.513 38.1189 124.02C38.5856 123.513 39.1322 123.12 39.7589 122.84C40.3989 122.547 41.0922 122.4 41.8389 122.4C42.5856 122.4 43.2722 122.547 43.8989 122.84C44.5256 123.12 45.0722 123.513 45.5389 124.02C46.0056 124.513 46.3656 125.087 46.6189 125.74C46.8722 126.38 46.9989 127.073 46.9989 127.82C46.9989 128.54 46.8722 129.227 46.6189 129.88C46.3656 130.52 46.0056 131.093 45.5389 131.6C45.0856 132.093 44.5389 132.487 43.8989 132.78C43.2722 133.06 42.5789 133.2 41.8189 133.2ZM38.0389 127.84C38.0389 128.613 38.2056 129.32 38.5389 129.96C38.8856 130.587 39.3456 131.087 39.9189 131.46C40.4922 131.82 41.1256 132 41.8189 132C42.5122 132 43.1456 131.813 43.7189 131.44C44.2922 131.067 44.7522 130.56 45.0989 129.92C45.4456 129.267 45.6189 128.56 45.6189 127.8C45.6189 127.027 45.4456 126.32 45.0989 125.68C44.7522 125.04 44.2922 124.533 43.7189 124.16C43.1456 123.787 42.5122 123.6 41.8189 123.6C41.1256 123.6 40.4922 123.793 39.9189 124.18C39.3589 124.567 38.9056 125.08 38.5589 125.72C38.2122 126.347 38.0389 127.053 38.0389 127.84ZM49.1734 128.7V122.58H50.5334V128.46C50.5334 129.647 50.7334 130.533 51.1334 131.12C51.5468 131.707 52.1534 132 52.9534 132C53.4868 132 54.0001 131.887 54.4934 131.66C55.0001 131.42 55.4468 131.087 55.8334 130.66C56.2201 130.22 56.5134 129.713 56.7134 129.14V122.58H58.0734V131.36C58.0734 131.547 58.1134 131.687 58.1934 131.78C58.2734 131.86 58.3934 131.907 58.5534 131.92V133C58.3934 133.013 58.2668 133.02 58.1734 133.02C58.0801 133.033 57.9934 133.04 57.9134 133.04C57.6468 133.013 57.4134 132.907 57.2134 132.72C57.0268 132.533 56.9268 132.307 56.9134 132.04L56.8734 130.64C56.4201 131.44 55.8001 132.067 55.0134 132.52C54.2401 132.973 53.4001 133.2 52.4934 133.2C51.4001 133.2 50.5734 132.82 50.0134 132.06C49.4534 131.3 49.1734 130.18 49.1734 128.7ZM69.9084 133H68.5484V127.18C68.5484 125.953 68.3684 125.06 68.0084 124.5C67.6484 123.927 67.0818 123.64 66.3084 123.64C65.7751 123.64 65.2484 123.773 64.7284 124.04C64.2084 124.293 63.7484 124.647 63.3484 125.1C62.9618 125.54 62.6818 126.047 62.5084 126.62V133H61.1484V122.58H62.3884V124.94C62.6684 124.433 63.0351 123.993 63.4884 123.62C63.9418 123.233 64.4551 122.933 65.0284 122.72C65.6018 122.507 66.1951 122.4 66.8084 122.4C67.3818 122.4 67.8684 122.507 68.2684 122.72C68.6684 122.933 68.9884 123.24 69.2284 123.64C69.4684 124.027 69.6418 124.5 69.7484 125.06C69.8551 125.607 69.9084 126.22 69.9084 126.9V133ZM77.7109 132.5C77.6043 132.54 77.4376 132.613 77.2109 132.72C76.9843 132.827 76.7109 132.92 76.3909 133C76.0709 133.08 75.7243 133.12 75.3509 133.12C74.9643 133.12 74.5976 133.047 74.2509 132.9C73.9176 132.753 73.6509 132.533 73.4509 132.24C73.2509 131.933 73.1509 131.56 73.1509 131.12V123.66H71.7109V122.58H73.1509V119.06H74.5109V122.58H76.9109V123.66H74.5109V130.74C74.5376 131.113 74.6709 131.393 74.9109 131.58C75.1643 131.767 75.4509 131.86 75.7709 131.86C76.1443 131.86 76.4843 131.8 76.7909 131.68C77.0976 131.547 77.2843 131.453 77.3509 131.4L77.7109 132.5ZM84.6102 123.78C83.7035 123.807 82.9035 124.06 82.2102 124.54C81.5302 125.02 81.0502 125.68 80.7702 126.52V133H79.4102V122.58H80.6902V125.08C81.0502 124.347 81.5235 123.753 82.1102 123.3C82.7102 122.847 83.3435 122.593 84.0102 122.54C84.1435 122.527 84.2568 122.52 84.3502 122.52C84.4568 122.52 84.5435 122.527 84.6102 122.54V123.78ZM86.4219 133V122.58H87.7819V133H86.4219ZM86.4219 120.4V118.4H87.7819V120.4H86.4219ZM95.2773 133.2C94.5307 133.2 93.8373 133.06 93.1973 132.78C92.5573 132.487 92.004 132.093 91.5373 131.6C91.0707 131.093 90.704 130.513 90.4373 129.86C90.184 129.207 90.0573 128.507 90.0573 127.76C90.0573 126.787 90.2773 125.893 90.7173 125.08C91.1707 124.267 91.7907 123.62 92.5773 123.14C93.364 122.647 94.2573 122.4 95.2573 122.4C96.284 122.4 97.1773 122.647 97.9373 123.14C98.7107 123.633 99.3173 124.287 99.7573 125.1C100.197 125.9 100.417 126.78 100.417 127.74C100.417 127.847 100.417 127.953 100.417 128.06C100.417 128.153 100.411 128.227 100.397 128.28H91.4773C91.544 129.027 91.7507 129.693 92.0973 130.28C92.4573 130.853 92.9173 131.313 93.4773 131.66C94.0507 131.993 94.6707 132.16 95.3373 132.16C96.0173 132.16 96.6573 131.987 97.2573 131.64C97.8707 131.293 98.2973 130.84 98.5373 130.28L99.7173 130.6C99.504 131.093 99.1773 131.54 98.7373 131.94C98.2973 132.34 97.7773 132.653 97.1773 132.88C96.5907 133.093 95.9573 133.2 95.2773 133.2ZM91.4373 127.3H99.1373C99.084 126.54 98.8773 125.873 98.5173 125.3C98.1707 124.727 97.7107 124.28 97.1373 123.96C96.5773 123.627 95.9573 123.46 95.2773 123.46C94.5973 123.46 93.9773 123.627 93.4173 123.96C92.8573 124.28 92.3973 124.733 92.0373 125.32C91.6907 125.893 91.4907 126.553 91.4373 127.3ZM105.936 133.2C105.082 133.2 104.289 133.06 103.556 132.78C102.822 132.5 102.189 132.073 101.656 131.5L102.216 130.54C102.802 131.087 103.389 131.487 103.976 131.74C104.576 131.98 105.209 132.1 105.876 132.1C106.689 132.1 107.349 131.94 107.856 131.62C108.362 131.287 108.616 130.813 108.616 130.2C108.616 129.787 108.489 129.473 108.236 129.26C107.996 129.033 107.642 128.853 107.176 128.72C106.722 128.573 106.176 128.42 105.536 128.26C104.816 128.06 104.209 127.853 103.716 127.64C103.236 127.413 102.869 127.133 102.616 126.8C102.376 126.453 102.256 126.007 102.256 125.46C102.256 124.78 102.422 124.22 102.756 123.78C103.102 123.327 103.569 122.987 104.156 122.76C104.756 122.52 105.422 122.4 106.156 122.4C106.956 122.4 107.662 122.527 108.276 122.78C108.889 123.033 109.389 123.387 109.776 123.84L109.116 124.76C108.742 124.333 108.296 124.02 107.776 123.82C107.269 123.607 106.702 123.5 106.076 123.5C105.649 123.5 105.242 123.56 104.856 123.68C104.469 123.787 104.149 123.973 103.896 124.24C103.656 124.493 103.536 124.847 103.536 125.3C103.536 125.673 103.629 125.967 103.816 126.18C104.002 126.38 104.282 126.553 104.656 126.7C105.029 126.833 105.489 126.98 106.036 127.14C106.822 127.353 107.509 127.573 108.096 127.8C108.682 128.013 109.136 128.293 109.456 128.64C109.776 128.987 109.936 129.473 109.936 130.1C109.936 131.073 109.569 131.833 108.836 132.38C108.102 132.927 107.136 133.2 105.936 133.2ZM122.281 132.5C122.175 132.54 122.008 132.613 121.781 132.72C121.555 132.827 121.281 132.92 120.961 133C120.641 133.08 120.295 133.12 119.921 133.12C119.535 133.12 119.168 133.047 118.821 132.9C118.488 132.753 118.221 132.533 118.021 132.24C117.821 131.933 117.721 131.56 117.721 131.12V123.66H116.281V122.58H117.721V119.06H119.081V122.58H121.481V123.66H119.081V130.74C119.108 131.113 119.241 131.393 119.481 131.58C119.735 131.767 120.021 131.86 120.341 131.86C120.715 131.86 121.055 131.8 121.361 131.68C121.668 131.547 121.855 131.453 121.921 131.4L122.281 132.5ZM132.74 133H131.38V127.18C131.38 126.007 131.174 125.127 130.76 124.54C130.347 123.94 129.754 123.64 128.98 123.64C128.474 123.64 127.967 123.773 127.46 124.04C126.967 124.293 126.527 124.647 126.14 125.1C125.767 125.54 125.5 126.047 125.34 126.62V133H123.98V118.4H125.34V124.94C125.754 124.167 126.327 123.553 127.06 123.1C127.807 122.633 128.6 122.4 129.44 122.4C130.04 122.4 130.547 122.507 130.96 122.72C131.387 122.933 131.727 123.247 131.98 123.66C132.247 124.06 132.44 124.533 132.56 125.08C132.68 125.613 132.74 126.22 132.74 126.9V133ZM140.081 133.2C139.334 133.2 138.641 133.06 138.001 132.78C137.374 132.487 136.827 132.093 136.361 131.6C135.907 131.093 135.554 130.52 135.301 129.88C135.047 129.227 134.921 128.54 134.921 127.82C134.921 127.073 135.047 126.38 135.301 125.74C135.554 125.087 135.914 124.513 136.381 124.02C136.847 123.513 137.394 123.12 138.021 122.84C138.661 122.547 139.354 122.4 140.101 122.4C140.847 122.4 141.534 122.547 142.161 122.84C142.787 123.12 143.334 123.513 143.801 124.02C144.267 124.513 144.627 125.087 144.881 125.74C145.134 126.38 145.261 127.073 145.261 127.82C145.261 128.54 145.134 129.227 144.881 129.88C144.627 130.52 144.267 131.093 143.801 131.6C143.347 132.093 142.801 132.487 142.161 132.78C141.534 133.06 140.841 133.2 140.081 133.2ZM136.301 127.84C136.301 128.613 136.467 129.32 136.801 129.96C137.147 130.587 137.607 131.087 138.181 131.46C138.754 131.82 139.387 132 140.081 132C140.774 132 141.407 131.813 141.981 131.44C142.554 131.067 143.014 130.56 143.361 129.92C143.707 129.267 143.881 128.56 143.881 127.8C143.881 127.027 143.707 126.32 143.361 125.68C143.014 125.04 142.554 124.533 141.981 124.16C141.407 123.787 140.774 123.6 140.081 123.6C139.387 123.6 138.754 123.793 138.181 124.18C137.621 124.567 137.167 125.08 136.821 125.72C136.474 126.347 136.301 127.053 136.301 127.84ZM152.735 123.78C151.828 123.807 151.028 124.06 150.335 124.54C149.655 125.02 149.175 125.68 148.895 126.52V133H147.535V122.58H148.815V125.08C149.175 124.347 149.648 123.753 150.235 123.3C150.835 122.847 151.468 122.593 152.135 122.54C152.268 122.527 152.382 122.52 152.475 122.52C152.582 122.52 152.668 122.527 152.735 122.54V123.78ZM154.447 128.7V122.58H155.807V128.46C155.807 129.647 156.007 130.533 156.407 131.12C156.82 131.707 157.427 132 158.227 132C158.76 132 159.274 131.887 159.767 131.66C160.274 131.42 160.72 131.087 161.107 130.66C161.494 130.22 161.787 129.713 161.987 129.14V122.58H163.347V131.36C163.347 131.547 163.387 131.687 163.467 131.78C163.547 131.86 163.667 131.907 163.827 131.92V133C163.667 133.013 163.54 133.02 163.447 133.02C163.354 133.033 163.267 133.04 163.187 133.04C162.92 133.013 162.687 132.907 162.487 132.72C162.3 132.533 162.2 132.307 162.187 132.04L162.147 130.64C161.694 131.44 161.074 132.067 160.287 132.52C159.514 132.973 158.674 133.2 157.767 133.2C156.674 133.2 155.847 132.82 155.287 132.06C154.727 131.3 154.447 130.18 154.447 128.7ZM170.602 133.14C169.895 133.14 169.242 132.993 168.642 132.7C168.042 132.407 167.522 132.013 167.082 131.52C166.655 131.013 166.322 130.44 166.082 129.8C165.842 129.16 165.722 128.5 165.722 127.82C165.722 127.087 165.835 126.4 166.062 125.76C166.302 125.107 166.635 124.527 167.062 124.02C167.502 123.513 168.015 123.12 168.602 122.84C169.189 122.547 169.842 122.4 170.562 122.4C171.455 122.4 172.229 122.627 172.882 123.08C173.549 123.533 174.109 124.093 174.562 124.76V122.58H175.782V133.04C175.782 134 175.549 134.807 175.082 135.46C174.629 136.127 174.009 136.627 173.222 136.96C172.449 137.293 171.602 137.46 170.682 137.46C169.495 137.46 168.535 137.247 167.802 136.82C167.069 136.393 166.469 135.82 166.002 135.1L166.842 134.44C167.255 135.093 167.802 135.58 168.482 135.9C169.175 136.22 169.909 136.38 170.682 136.38C171.362 136.38 171.982 136.253 172.542 136C173.115 135.76 173.569 135.393 173.902 134.9C174.249 134.407 174.422 133.787 174.422 133.04V130.98C174.022 131.633 173.475 132.16 172.782 132.56C172.089 132.947 171.362 133.14 170.602 133.14ZM170.982 132C171.395 132 171.789 131.927 172.162 131.78C172.549 131.633 172.902 131.44 173.222 131.2C173.542 130.947 173.809 130.667 174.022 130.36C174.235 130.053 174.369 129.74 174.422 129.42V126.2C174.222 125.693 173.935 125.247 173.562 124.86C173.189 124.46 172.762 124.153 172.282 123.94C171.815 123.713 171.329 123.6 170.822 123.6C170.235 123.6 169.709 123.727 169.242 123.98C168.789 124.22 168.402 124.547 168.082 124.96C167.775 125.36 167.535 125.813 167.362 126.32C167.189 126.827 167.102 127.333 167.102 127.84C167.102 128.4 167.202 128.933 167.402 129.44C167.602 129.933 167.875 130.38 168.222 130.78C168.582 131.167 168.995 131.467 169.462 131.68C169.942 131.893 170.449 132 170.982 132ZM187.545 133H186.185V127.18C186.185 126.007 185.978 125.127 185.565 124.54C185.152 123.94 184.558 123.64 183.785 123.64C183.278 123.64 182.772 123.773 182.265 124.04C181.772 124.293 181.332 124.647 180.945 125.1C180.572 125.54 180.305 126.047 180.145 126.62V133H178.785V118.4H180.145V124.94C180.558 124.167 181.132 123.553 181.865 123.1C182.612 122.633 183.405 122.4 184.245 122.4C184.845 122.4 185.352 122.507 185.765 122.72C186.192 122.933 186.532 123.247 186.785 123.66C187.052 124.06 187.245 124.533 187.365 125.08C187.485 125.613 187.545 126.22 187.545 126.9V133ZM200.863 133.2C199.996 133.2 199.216 132.973 198.523 132.52C197.843 132.067 197.303 131.507 196.903 130.84V137.26H195.543V122.58H196.763V124.6C197.176 123.947 197.73 123.42 198.423 123.02C199.116 122.607 199.856 122.4 200.643 122.4C201.363 122.4 202.023 122.553 202.623 122.86C203.223 123.153 203.743 123.553 204.183 124.06C204.623 124.567 204.963 125.147 205.203 125.8C205.456 126.44 205.583 127.107 205.583 127.8C205.583 128.773 205.383 129.673 204.983 130.5C204.596 131.313 204.05 131.967 203.343 132.46C202.636 132.953 201.81 133.2 200.863 133.2ZM200.483 132C201.056 132 201.57 131.887 202.023 131.66C202.476 131.42 202.863 131.1 203.183 130.7C203.516 130.3 203.77 129.853 203.943 129.36C204.116 128.853 204.203 128.333 204.203 127.8C204.203 127.24 204.103 126.707 203.903 126.2C203.716 125.693 203.443 125.247 203.083 124.86C202.723 124.473 202.31 124.167 201.843 123.94C201.376 123.713 200.87 123.6 200.323 123.6C199.976 123.6 199.616 123.667 199.243 123.8C198.87 123.933 198.51 124.127 198.163 124.38C197.83 124.62 197.55 124.893 197.323 125.2C197.096 125.507 196.956 125.833 196.903 126.18V129.38C197.116 129.873 197.403 130.32 197.763 130.72C198.123 131.107 198.536 131.42 199.003 131.66C199.483 131.887 199.976 132 200.483 132ZM213.087 123.78C212.18 123.807 211.38 124.06 210.687 124.54C210.007 125.02 209.527 125.68 209.247 126.52V133H207.887V122.58H209.167V125.08C209.527 124.347 210 123.753 210.587 123.3C211.187 122.847 211.82 122.593 212.487 122.54C212.62 122.527 212.733 122.52 212.827 122.52C212.933 122.52 213.02 122.527 213.087 122.54V123.78ZM219.006 133.2C218.26 133.2 217.566 133.06 216.926 132.78C216.3 132.487 215.753 132.093 215.286 131.6C214.833 131.093 214.48 130.52 214.226 129.88C213.973 129.227 213.846 128.54 213.846 127.82C213.846 127.073 213.973 126.38 214.226 125.74C214.48 125.087 214.84 124.513 215.306 124.02C215.773 123.513 216.32 123.12 216.946 122.84C217.586 122.547 218.28 122.4 219.026 122.4C219.773 122.4 220.46 122.547 221.086 122.84C221.713 123.12 222.26 123.513 222.726 124.02C223.193 124.513 223.553 125.087 223.806 125.74C224.06 126.38 224.186 127.073 224.186 127.82C224.186 128.54 224.06 129.227 223.806 129.88C223.553 130.52 223.193 131.093 222.726 131.6C222.273 132.093 221.726 132.487 221.086 132.78C220.46 133.06 219.766 133.2 219.006 133.2ZM215.226 127.84C215.226 128.613 215.393 129.32 215.726 129.96C216.073 130.587 216.533 131.087 217.106 131.46C217.68 131.82 218.313 132 219.006 132C219.7 132 220.333 131.813 220.906 131.44C221.48 131.067 221.94 130.56 222.286 129.92C222.633 129.267 222.806 128.56 222.806 127.8C222.806 127.027 222.633 126.32 222.286 125.68C221.94 125.04 221.48 124.533 220.906 124.16C220.333 123.787 219.7 123.6 219.006 123.6C218.313 123.6 217.68 123.793 217.106 124.18C216.546 124.567 216.093 125.08 215.746 125.72C215.4 126.347 215.226 127.053 215.226 127.84ZM224.901 136.62C224.461 136.62 224.048 136.56 223.661 136.44C223.261 136.32 222.914 136.12 222.621 135.84L223.281 134.92C223.481 135.107 223.714 135.233 223.981 135.3C224.234 135.367 224.488 135.4 224.741 135.4C225.061 135.4 225.361 135.32 225.641 135.16C225.921 135 226.148 134.773 226.321 134.48C226.508 134.2 226.601 133.887 226.601 133.54V122.58H227.961V133.46C227.961 134.073 227.814 134.62 227.521 135.1C227.228 135.58 226.848 135.953 226.381 136.22C225.914 136.487 225.421 136.62 224.901 136.62ZM226.601 120.4V118.4H227.961V120.4H226.601ZM235.453 133.2C234.706 133.2 234.013 133.06 233.373 132.78C232.733 132.487 232.18 132.093 231.713 131.6C231.246 131.093 230.88 130.513 230.613 129.86C230.36 129.207 230.233 128.507 230.233 127.76C230.233 126.787 230.453 125.893 230.893 125.08C231.346 124.267 231.966 123.62 232.753 123.14C233.54 122.647 234.433 122.4 235.433 122.4C236.46 122.4 237.353 122.647 238.113 123.14C238.886 123.633 239.493 124.287 239.933 125.1C240.373 125.9 240.593 126.78 240.593 127.74C240.593 127.847 240.593 127.953 240.593 128.06C240.593 128.153 240.586 128.227 240.573 128.28H231.653C231.72 129.027 231.926 129.693 232.273 130.28C232.633 130.853 233.093 131.313 233.653 131.66C234.226 131.993 234.846 132.16 235.513 132.16C236.193 132.16 236.833 131.987 237.433 131.64C238.046 131.293 238.473 130.84 238.713 130.28L239.893 130.6C239.68 131.093 239.353 131.54 238.913 131.94C238.473 132.34 237.953 132.653 237.353 132.88C236.766 133.093 236.133 133.2 235.453 133.2ZM231.613 127.3H239.313C239.26 126.54 239.053 125.873 238.693 125.3C238.346 124.727 237.886 124.28 237.313 123.96C236.753 123.627 236.133 123.46 235.453 123.46C234.773 123.46 234.153 123.627 233.593 123.96C233.033 124.28 232.573 124.733 232.213 125.32C231.866 125.893 231.666 126.553 231.613 127.3ZM247.211 133.2C246.451 133.2 245.751 133.06 245.111 132.78C244.485 132.487 243.931 132.087 243.451 131.58C242.985 131.073 242.618 130.493 242.351 129.84C242.098 129.187 241.971 128.493 241.971 127.76C241.971 126.773 242.191 125.873 242.631 125.06C243.071 124.247 243.685 123.6 244.471 123.12C245.258 122.64 246.165 122.4 247.191 122.4C248.165 122.4 249.025 122.627 249.771 123.08C250.518 123.52 251.071 124.12 251.431 124.88L250.111 125.3C249.818 124.767 249.405 124.353 248.871 124.06C248.351 123.753 247.771 123.6 247.131 123.6C246.438 123.6 245.805 123.78 245.231 124.14C244.658 124.5 244.198 124.993 243.851 125.62C243.518 126.247 243.351 126.96 243.351 127.76C243.351 128.547 243.525 129.26 243.871 129.9C244.218 130.54 244.678 131.053 245.251 131.44C245.825 131.813 246.458 132 247.151 132C247.605 132 248.038 131.92 248.451 131.76C248.878 131.6 249.245 131.387 249.551 131.12C249.871 130.84 250.085 130.54 250.191 130.22L251.531 130.62C251.345 131.113 251.031 131.56 250.591 131.96C250.165 132.347 249.658 132.653 249.071 132.88C248.498 133.093 247.878 133.2 247.211 133.2ZM258.668 132.5C258.561 132.54 258.395 132.613 258.168 132.72C257.941 132.827 257.668 132.92 257.348 133C257.028 133.08 256.681 133.12 256.308 133.12C255.921 133.12 255.555 133.047 255.208 132.9C254.875 132.753 254.608 132.533 254.408 132.24C254.208 131.933 254.108 131.56 254.108 131.12V123.66H252.668V122.58H254.108V119.06H255.468V122.58H257.868V123.66H255.468V130.74C255.495 131.113 255.628 131.393 255.868 131.58C256.121 131.767 256.408 131.86 256.728 131.86C257.101 131.86 257.441 131.8 257.748 131.68C258.055 131.547 258.241 131.453 258.308 131.4L258.668 132.5ZM263.787 133.2C262.934 133.2 262.141 133.06 261.407 132.78C260.674 132.5 260.041 132.073 259.507 131.5L260.067 130.54C260.654 131.087 261.241 131.487 261.827 131.74C262.427 131.98 263.061 132.1 263.727 132.1C264.541 132.1 265.201 131.94 265.707 131.62C266.214 131.287 266.467 130.813 266.467 130.2C266.467 129.787 266.341 129.473 266.087 129.26C265.847 129.033 265.494 128.853 265.027 128.72C264.574 128.573 264.027 128.42 263.387 128.26C262.667 128.06 262.061 127.853 261.567 127.64C261.087 127.413 260.721 127.133 260.467 126.8C260.227 126.453 260.107 126.007 260.107 125.46C260.107 124.78 260.274 124.22 260.607 123.78C260.954 123.327 261.421 122.987 262.007 122.76C262.607 122.52 263.274 122.4 264.007 122.4C264.807 122.4 265.514 122.527 266.127 122.78C266.741 123.033 267.241 123.387 267.627 123.84L266.967 124.76C266.594 124.333 266.147 124.02 265.627 123.82C265.121 123.607 264.554 123.5 263.927 123.5C263.501 123.5 263.094 123.56 262.707 123.68C262.321 123.787 262.001 123.973 261.747 124.24C261.507 124.493 261.387 124.847 261.387 125.3C261.387 125.673 261.481 125.967 261.667 126.18C261.854 126.38 262.134 126.553 262.507 126.7C262.881 126.833 263.341 126.98 263.887 127.14C264.674 127.353 265.361 127.573 265.947 127.8C266.534 128.013 266.987 128.293 267.307 128.64C267.627 128.987 267.787 129.473 267.787 130.1C267.787 131.073 267.421 131.833 266.687 132.38C265.954 132.927 264.987 133.2 263.787 133.2ZM274.293 130C274.293 129.347 274.479 128.787 274.853 128.32C275.226 127.84 275.739 127.473 276.393 127.22C277.059 126.953 277.826 126.82 278.693 126.82C279.199 126.82 279.726 126.86 280.273 126.94C280.819 127.02 281.306 127.14 281.733 127.3V126.42C281.733 125.54 281.473 124.84 280.953 124.32C280.433 123.8 279.713 123.54 278.793 123.54C278.233 123.54 277.679 123.647 277.133 123.86C276.599 124.06 276.039 124.36 275.453 124.76L274.933 123.8C275.613 123.333 276.279 122.987 276.933 122.76C277.586 122.52 278.253 122.4 278.933 122.4C280.213 122.4 281.226 122.767 281.973 123.5C282.719 124.233 283.093 125.247 283.093 126.54V131.36C283.093 131.547 283.133 131.687 283.213 131.78C283.293 131.86 283.419 131.907 283.593 131.92V133C283.446 133.013 283.319 133.027 283.213 133.04C283.106 133.053 283.026 133.053 282.973 133.04C282.639 133.027 282.386 132.92 282.213 132.72C282.039 132.52 281.946 132.307 281.933 132.08L281.913 131.32C281.446 131.92 280.839 132.387 280.093 132.72C279.346 133.04 278.586 133.2 277.813 133.2C277.146 133.2 276.539 133.06 275.993 132.78C275.459 132.487 275.039 132.1 274.733 131.62C274.439 131.127 274.293 130.587 274.293 130ZM281.273 130.8C281.419 130.613 281.533 130.433 281.613 130.26C281.693 130.087 281.733 129.933 281.733 129.8V128.28C281.279 128.107 280.806 127.973 280.313 127.88C279.833 127.787 279.346 127.74 278.853 127.74C277.879 127.74 277.093 127.933 276.493 128.32C275.893 128.707 275.593 129.233 275.593 129.9C275.593 130.287 275.693 130.653 275.893 131C276.093 131.333 276.386 131.613 276.773 131.84C277.159 132.053 277.613 132.16 278.133 132.16C278.786 132.16 279.393 132.033 279.953 131.78C280.526 131.527 280.966 131.2 281.273 130.8ZM294.791 133H293.431V127.18C293.431 125.953 293.251 125.06 292.891 124.5C292.531 123.927 291.965 123.64 291.191 123.64C290.658 123.64 290.131 123.773 289.611 124.04C289.091 124.293 288.631 124.647 288.231 125.1C287.845 125.54 287.565 126.047 287.391 126.62V133H286.031V122.58H287.271V124.94C287.551 124.433 287.918 123.993 288.371 123.62C288.825 123.233 289.338 122.933 289.911 122.72C290.485 122.507 291.078 122.4 291.691 122.4C292.265 122.4 292.751 122.507 293.151 122.72C293.551 122.933 293.871 123.24 294.111 123.64C294.351 124.027 294.525 124.5 294.631 125.06C294.738 125.607 294.791 126.22 294.791 126.9V133ZM296.991 127.82C296.991 126.833 297.191 125.933 297.591 125.12C298.005 124.293 298.571 123.633 299.291 123.14C300.011 122.647 300.831 122.4 301.751 122.4C302.618 122.4 303.391 122.633 304.071 123.1C304.765 123.553 305.305 124.107 305.691 124.76V118.4H307.051V131.36C307.051 131.547 307.091 131.687 307.171 131.78C307.251 131.86 307.371 131.907 307.531 131.92V133C307.265 133.04 307.058 133.053 306.911 133.04C306.631 133.027 306.385 132.913 306.171 132.7C305.958 132.487 305.851 132.253 305.851 132V130.98C305.438 131.66 304.878 132.2 304.171 132.6C303.465 133 302.731 133.2 301.971 133.2C301.251 133.2 300.585 133.053 299.971 132.76C299.371 132.467 298.845 132.067 298.391 131.56C297.951 131.053 297.605 130.48 297.351 129.84C297.111 129.187 296.991 128.513 296.991 127.82ZM305.691 129.42V126.2C305.518 125.72 305.238 125.287 304.851 124.9C304.465 124.5 304.025 124.187 303.531 123.96C303.051 123.72 302.571 123.6 302.091 123.6C301.531 123.6 301.025 123.72 300.571 123.96C300.118 124.187 299.725 124.5 299.391 124.9C299.071 125.3 298.825 125.753 298.651 126.26C298.478 126.767 298.391 127.287 298.391 127.82C298.391 128.38 298.485 128.913 298.671 129.42C298.871 129.927 299.151 130.38 299.511 130.78C299.871 131.167 300.285 131.467 300.751 131.68C301.218 131.893 301.725 132 302.271 132C302.618 132 302.978 131.933 303.351 131.8C303.725 131.667 304.078 131.487 304.411 131.26C304.758 131.02 305.045 130.74 305.271 130.42C305.498 130.1 305.638 129.767 305.691 129.42ZM315.23 133V122.58H316.59V133H315.23ZM315.23 120.4V118.4H316.59V120.4H315.23ZM328.346 133H326.986V127.18C326.986 125.953 326.806 125.06 326.446 124.5C326.086 123.927 325.519 123.64 324.746 123.64C324.213 123.64 323.686 123.773 323.166 124.04C322.646 124.293 322.186 124.647 321.786 125.1C321.399 125.54 321.119 126.047 320.946 126.62V133H319.586V122.58H320.826V124.94C321.106 124.433 321.473 123.993 321.926 123.62C322.379 123.233 322.893 122.933 323.466 122.72C324.039 122.507 324.633 122.4 325.246 122.4C325.819 122.4 326.306 122.507 326.706 122.72C327.106 122.933 327.426 123.24 327.666 123.64C327.906 124.027 328.079 124.5 328.186 125.06C328.293 125.607 328.346 126.22 328.346 126.9V133ZM340.006 133H338.646V127.18C338.646 125.953 338.466 125.06 338.106 124.5C337.746 123.927 337.179 123.64 336.406 123.64C335.873 123.64 335.346 123.773 334.826 124.04C334.306 124.293 333.846 124.647 333.446 125.1C333.059 125.54 332.779 126.047 332.606 126.62V133H331.246V122.58H332.486V124.94C332.766 124.433 333.133 123.993 333.586 123.62C334.039 123.233 334.553 122.933 335.126 122.72C335.699 122.507 336.293 122.4 336.906 122.4C337.479 122.4 337.966 122.507 338.366 122.72C338.766 122.933 339.086 123.24 339.326 123.64C339.566 124.027 339.739 124.5 339.846 125.06C339.953 125.607 340.006 126.22 340.006 126.9V133ZM347.346 133.2C346.6 133.2 345.906 133.06 345.266 132.78C344.64 132.487 344.093 132.093 343.626 131.6C343.173 131.093 342.82 130.52 342.566 129.88C342.313 129.227 342.186 128.54 342.186 127.82C342.186 127.073 342.313 126.38 342.566 125.74C342.82 125.087 343.18 124.513 343.646 124.02C344.113 123.513 344.66 123.12 345.286 122.84C345.926 122.547 346.62 122.4 347.366 122.4C348.113 122.4 348.8 122.547 349.426 122.84C350.053 123.12 350.6 123.513 351.066 124.02C351.533 124.513 351.893 125.087 352.146 125.74C352.4 126.38 352.526 127.073 352.526 127.82C352.526 128.54 352.4 129.227 352.146 129.88C351.893 130.52 351.533 131.093 351.066 131.6C350.613 132.093 350.066 132.487 349.426 132.78C348.8 133.06 348.106 133.2 347.346 133.2ZM343.566 127.84C343.566 128.613 343.733 129.32 344.066 129.96C344.413 130.587 344.873 131.087 345.446 131.46C346.02 131.82 346.653 132 347.346 132C348.04 132 348.673 131.813 349.246 131.44C349.82 131.067 350.28 130.56 350.626 129.92C350.973 129.267 351.146 128.56 351.146 127.8C351.146 127.027 350.973 126.32 350.626 125.68C350.28 125.04 349.82 124.533 349.246 124.16C348.673 123.787 348.04 123.6 347.346 123.6C346.653 123.6 346.02 123.793 345.446 124.18C344.886 124.567 344.433 125.08 344.086 125.72C343.74 126.347 343.566 127.053 343.566 127.84ZM357.549 133L353.329 122.58H354.749L358.309 131.64L361.889 122.58H363.229L359.009 133H357.549ZM364.019 130C364.019 129.347 364.206 128.787 364.579 128.32C364.953 127.84 365.466 127.473 366.119 127.22C366.786 126.953 367.553 126.82 368.419 126.82C368.926 126.82 369.453 126.86 369.999 126.94C370.546 127.02 371.033 127.14 371.459 127.3V126.42C371.459 125.54 371.199 124.84 370.679 124.32C370.159 123.8 369.439 123.54 368.519 123.54C367.959 123.54 367.406 123.647 366.859 123.86C366.326 124.06 365.766 124.36 365.179 124.76L364.659 123.8C365.339 123.333 366.006 122.987 366.659 122.76C367.313 122.52 367.979 122.4 368.659 122.4C369.939 122.4 370.953 122.767 371.699 123.5C372.446 124.233 372.819 125.247 372.819 126.54V131.36C372.819 131.547 372.859 131.687 372.939 131.78C373.019 131.86 373.146 131.907 373.319 131.92V133C373.173 133.013 373.046 133.027 372.939 133.04C372.833 133.053 372.753 133.053 372.699 133.04C372.366 133.027 372.113 132.92 371.939 132.72C371.766 132.52 371.673 132.307 371.659 132.08L371.639 131.32C371.173 131.92 370.566 132.387 369.819 132.72C369.073 133.04 368.313 133.2 367.539 133.2C366.873 133.2 366.266 133.06 365.719 132.78C365.186 132.487 364.766 132.1 364.459 131.62C364.166 131.127 364.019 130.587 364.019 130ZM370.999 130.8C371.146 130.613 371.259 130.433 371.339 130.26C371.419 130.087 371.459 129.933 371.459 129.8V128.28C371.006 128.107 370.533 127.973 370.039 127.88C369.559 127.787 369.073 127.74 368.579 127.74C367.606 127.74 366.819 127.933 366.219 128.32C365.619 128.707 365.319 129.233 365.319 129.9C365.319 130.287 365.419 130.653 365.619 131C365.819 131.333 366.113 131.613 366.499 131.84C366.886 132.053 367.339 132.16 367.859 132.16C368.513 132.16 369.119 132.033 369.679 131.78C370.253 131.527 370.693 131.2 370.999 130.8ZM380.68 132.5C380.573 132.54 380.406 132.613 380.18 132.72C379.953 132.827 379.68 132.92 379.36 133C379.04 133.08 378.693 133.12 378.32 133.12C377.933 133.12 377.566 133.047 377.22 132.9C376.886 132.753 376.62 132.533 376.42 132.24C376.22 131.933 376.12 131.56 376.12 131.12V123.66H374.68V122.58H376.12V119.06H377.48V122.58H379.88V123.66H377.48V130.74C377.506 131.113 377.64 131.393 377.88 131.58C378.133 131.767 378.42 131.86 378.74 131.86C379.113 131.86 379.453 131.8 379.76 131.68C380.066 131.547 380.253 131.453 380.32 131.4L380.68 132.5ZM382.379 133V122.58H383.739V133H382.379ZM382.379 120.4V118.4H383.739V120.4H382.379ZM391.174 133.2C390.428 133.2 389.734 133.06 389.094 132.78C388.468 132.487 387.921 132.093 387.454 131.6C387.001 131.093 386.648 130.52 386.394 129.88C386.141 129.227 386.014 128.54 386.014 127.82C386.014 127.073 386.141 126.38 386.394 125.74C386.648 125.087 387.008 124.513 387.474 124.02C387.941 123.513 388.488 123.12 389.114 122.84C389.754 122.547 390.448 122.4 391.194 122.4C391.941 122.4 392.628 122.547 393.254 122.84C393.881 123.12 394.428 123.513 394.894 124.02C395.361 124.513 395.721 125.087 395.974 125.74C396.228 126.38 396.354 127.073 396.354 127.82C396.354 128.54 396.228 129.227 395.974 129.88C395.721 130.52 395.361 131.093 394.894 131.6C394.441 132.093 393.894 132.487 393.254 132.78C392.628 133.06 391.934 133.2 391.174 133.2ZM387.394 127.84C387.394 128.613 387.561 129.32 387.894 129.96C388.241 130.587 388.701 131.087 389.274 131.46C389.848 131.82 390.481 132 391.174 132C391.868 132 392.501 131.813 393.074 131.44C393.648 131.067 394.108 130.56 394.454 129.92C394.801 129.267 394.974 128.56 394.974 127.8C394.974 127.027 394.801 126.32 394.454 125.68C394.108 125.04 393.648 124.533 393.074 124.16C392.501 123.787 391.868 123.6 391.174 123.6C390.481 123.6 389.848 123.793 389.274 124.18C388.714 124.567 388.261 125.08 387.914 125.72C387.568 126.347 387.394 127.053 387.394 127.84ZM407.389 133H406.029V127.18C406.029 125.953 405.849 125.06 405.489 124.5C405.129 123.927 404.562 123.64 403.789 123.64C403.256 123.64 402.729 123.773 402.209 124.04C401.689 124.293 401.229 124.647 400.829 125.1C400.442 125.54 400.162 126.047 399.989 126.62V133H398.629V122.58H399.869V124.94C400.149 124.433 400.516 123.993 400.969 123.62C401.422 123.233 401.936 122.933 402.509 122.72C403.082 122.507 403.676 122.4 404.289 122.4C404.862 122.4 405.349 122.507 405.749 122.72C406.149 122.933 406.469 123.24 406.709 123.64C406.949 124.027 407.122 124.5 407.229 125.06C407.336 125.607 407.389 126.22 407.389 126.9V133Z" fill="#0022D5"/>
</svg>
