<svg width="412" height="183" viewBox="0 0 412 183" fill="none" xmlns="http://www.w3.org/2000/svg">
<rect y="12" width="293" height="37" fill="white"/>
<rect y="59" width="329" height="37" fill="white"/>
<rect y="134" width="353" height="49" fill="white"/>
<path d="M39.496 41.48C37.608 41.48 35.88 41.144 34.312 40.472C32.776 39.768 31.432 38.808 30.28 37.592C29.16 36.376 28.28 34.984 27.64 33.416C27.032 31.848 26.728 30.184 26.728 28.424C26.728 26.056 27.256 23.896 28.312 21.944C29.368 19.992 30.856 18.44 32.776 17.288C34.696 16.104 36.92 15.512 39.448 15.512C41.912 15.512 44.056 16.072 45.88 17.192C47.736 18.28 49.112 19.752 50.008 21.608L45.88 22.904C45.24 21.72 44.344 20.808 43.192 20.168C42.04 19.496 40.76 19.16 39.352 19.16C37.816 19.16 36.408 19.56 35.128 20.36C33.88 21.16 32.888 22.264 32.152 23.672C31.416 25.048 31.048 26.632 31.048 28.424C31.048 30.184 31.416 31.784 32.152 33.224C32.92 34.632 33.928 35.752 35.176 36.584C36.456 37.416 37.864 37.832 39.4 37.832C40.392 37.832 41.336 37.656 42.232 37.304C43.16 36.952 43.96 36.488 44.632 35.912C45.336 35.304 45.816 34.648 46.072 33.944L50.2 35.192C49.688 36.408 48.904 37.496 47.848 38.456C46.824 39.384 45.592 40.12 44.152 40.664C42.744 41.208 41.192 41.48 39.496 41.48ZM65.6958 41.48C63.8078 41.48 62.0958 41.144 60.5598 40.472C59.0238 39.768 57.6958 38.824 56.5758 37.64C55.4558 36.424 54.5918 35.032 53.9838 33.464C53.3758 31.896 53.0718 30.248 53.0718 28.52C53.0718 26.76 53.3758 25.096 53.9838 23.528C54.5918 21.96 55.4558 20.584 56.5758 19.4C57.6958 18.184 59.0238 17.24 60.5598 16.568C62.1278 15.864 63.8398 15.512 65.6958 15.512C67.5838 15.512 69.2958 15.864 70.8318 16.568C72.3678 17.24 73.6958 18.184 74.8158 19.4C75.9678 20.584 76.8478 21.96 77.4558 23.528C78.0638 25.096 78.3678 26.76 78.3678 28.52C78.3678 30.248 78.0638 31.896 77.4558 33.464C76.8478 35.032 75.9838 36.424 74.8638 37.64C73.7438 38.824 72.3998 39.768 70.8318 40.472C69.2958 41.144 67.5838 41.48 65.6958 41.48ZM57.3918 28.568C57.3918 30.296 57.7598 31.864 58.4958 33.272C59.2638 34.68 60.2718 35.8 61.5198 36.632C62.7678 37.432 64.1598 37.832 65.6958 37.832C67.2318 37.832 68.6238 37.416 69.8718 36.584C71.1518 35.752 72.1598 34.632 72.8958 33.224C73.6638 31.784 74.0478 30.2 74.0478 28.472C74.0478 26.744 73.6638 25.176 72.8958 23.768C72.1598 22.36 71.1518 21.24 69.8718 20.408C68.6238 19.576 67.2318 19.16 65.6958 19.16C64.1598 19.16 62.7678 19.592 61.5198 20.456C60.2718 21.288 59.2638 22.408 58.4958 23.816C57.7598 25.224 57.3918 26.808 57.3918 28.568ZM105.23 41H101.006V26.984C101.006 24.328 100.59 22.392 99.7581 21.176C98.9581 19.928 97.7261 19.304 96.0621 19.304C94.9101 19.304 93.7581 19.592 92.6061 20.168C91.4861 20.744 90.4781 21.528 89.5821 22.52C88.7181 23.48 88.0941 24.6 87.7101 25.88V41H83.4861V15.944H87.3261V21.32C87.9981 20.136 88.8621 19.112 89.9181 18.248C90.9741 17.384 92.1741 16.712 93.5181 16.232C94.8621 15.752 96.2701 15.512 97.7421 15.512C99.1821 15.512 100.382 15.784 101.342 16.328C102.334 16.84 103.102 17.576 103.646 18.536C104.222 19.464 104.622 20.568 104.846 21.848C105.102 23.128 105.23 24.52 105.23 26.024V41ZM124.524 39.752C124.172 39.912 123.692 40.12 123.084 40.376C122.476 40.632 121.772 40.856 120.972 41.048C120.172 41.24 119.324 41.336 118.428 41.336C117.404 41.336 116.46 41.16 115.596 40.808C114.732 40.424 114.044 39.848 113.532 39.08C113.02 38.28 112.764 37.288 112.764 36.104V19.256H109.356V15.944H112.764V7.592H116.988V15.944H122.604V19.256H116.988V34.808C117.052 35.704 117.356 36.376 117.9 36.824C118.444 37.24 119.084 37.448 119.82 37.448C120.652 37.448 121.42 37.304 122.124 37.016C122.828 36.728 123.292 36.52 123.516 36.392L124.524 39.752ZM126.471 33.752C126.471 32.152 126.919 30.776 127.815 29.624C128.743 28.44 130.007 27.528 131.607 26.888C133.207 26.248 135.063 25.928 137.175 25.928C138.295 25.928 139.479 26.024 140.727 26.216C141.975 26.376 143.079 26.632 144.039 26.984V25.16C144.039 23.24 143.463 21.736 142.311 20.648C141.159 19.528 139.527 18.968 137.415 18.968C136.039 18.968 134.711 19.224 133.431 19.736C132.183 20.216 130.855 20.92 129.447 21.848L127.911 18.872C129.543 17.752 131.175 16.92 132.807 16.376C134.439 15.8 136.135 15.512 137.895 15.512C141.095 15.512 143.623 16.408 145.479 18.2C147.335 19.96 148.263 22.424 148.263 25.592V36.2C148.263 36.712 148.359 37.096 148.551 37.352C148.775 37.576 149.127 37.704 149.607 37.736V41C149.191 41.064 148.823 41.112 148.503 41.144C148.215 41.176 147.975 41.192 147.783 41.192C146.791 41.192 146.039 40.92 145.527 40.376C145.047 39.832 144.775 39.256 144.711 38.648L144.615 37.064C143.527 38.472 142.103 39.56 140.343 40.328C138.583 41.096 136.839 41.48 135.111 41.48C133.447 41.48 131.959 41.144 130.647 40.472C129.335 39.768 128.311 38.84 127.575 37.688C126.839 36.504 126.471 35.192 126.471 33.752ZM142.791 35.528C143.175 35.08 143.479 34.632 143.703 34.184C143.927 33.704 144.039 33.304 144.039 32.984V29.864C143.047 29.48 142.007 29.192 140.919 29C139.831 28.776 138.759 28.664 137.703 28.664C135.559 28.664 133.815 29.096 132.471 29.96C131.159 30.792 130.503 31.944 130.503 33.416C130.503 34.216 130.711 35 131.127 35.768C131.575 36.504 132.215 37.112 133.047 37.592C133.911 38.072 134.967 38.312 136.215 38.312C137.527 38.312 138.775 38.056 139.959 37.544C141.143 37 142.087 36.328 142.791 35.528ZM166.105 41.48C164.217 41.48 162.489 41.144 160.921 40.472C159.385 39.768 158.041 38.808 156.889 37.592C155.769 36.376 154.889 34.984 154.249 33.416C153.641 31.848 153.337 30.184 153.337 28.424C153.337 26.056 153.865 23.896 154.921 21.944C155.977 19.992 157.465 18.44 159.385 17.288C161.305 16.104 163.529 15.512 166.057 15.512C168.521 15.512 170.665 16.072 172.489 17.192C174.345 18.28 175.721 19.752 176.617 21.608L172.489 22.904C171.849 21.72 170.953 20.808 169.801 20.168C168.649 19.496 167.369 19.16 165.961 19.16C164.425 19.16 163.017 19.56 161.737 20.36C160.489 21.16 159.497 22.264 158.761 23.672C158.025 25.048 157.657 26.632 157.657 28.424C157.657 30.184 158.025 31.784 158.761 33.224C159.529 34.632 160.537 35.752 161.785 36.584C163.065 37.416 164.473 37.832 166.009 37.832C167.001 37.832 167.945 37.656 168.841 37.304C169.769 36.952 170.569 36.488 171.241 35.912C171.945 35.304 172.425 34.648 172.681 33.944L176.809 35.192C176.297 36.408 175.513 37.496 174.457 38.456C173.433 39.384 172.201 40.12 170.761 40.664C169.353 41.208 167.801 41.48 166.105 41.48ZM194.556 39.752C194.204 39.912 193.724 40.12 193.116 40.376C192.508 40.632 191.804 40.856 191.004 41.048C190.204 41.24 189.356 41.336 188.46 41.336C187.436 41.336 186.492 41.16 185.628 40.808C184.764 40.424 184.076 39.848 183.564 39.08C183.052 38.28 182.796 37.288 182.796 36.104V19.256H179.388V15.944H182.796V7.592H187.02V15.944H192.636V19.256H187.02V34.808C187.084 35.704 187.388 36.376 187.932 36.824C188.476 37.24 189.116 37.448 189.852 37.448C190.684 37.448 191.452 37.304 192.156 37.016C192.86 36.728 193.324 36.52 193.548 36.392L194.556 39.752ZM240.644 15.944H244.724L234.068 41H230.372L225.524 29.192L220.724 41H217.028L206.372 15.944H210.404L219.044 36.824L223.076 26.552L218.852 15.992H222.548L225.524 23.96L228.5 15.992H232.196L228.02 26.552L232.052 36.824L240.644 15.944ZM248.674 41V15.944H252.898V41H248.674ZM248.674 11.24V5.96H252.898V11.24H248.674ZM272.696 39.752C272.344 39.912 271.864 40.12 271.256 40.376C270.648 40.632 269.944 40.856 269.144 41.048C268.344 41.24 267.496 41.336 266.6 41.336C265.576 41.336 264.632 41.16 263.768 40.808C262.904 40.424 262.216 39.848 261.704 39.08C261.192 38.28 260.936 37.288 260.936 36.104V19.256H257.528V15.944H260.936V7.592H265.16V15.944H270.776V19.256H265.16V34.808C265.224 35.704 265.528 36.376 266.072 36.824C266.616 37.24 267.256 37.448 267.992 37.448C268.824 37.448 269.592 37.304 270.296 37.016C271 36.728 271.464 36.52 271.688 36.392L272.696 39.752ZM298.355 41H294.131V26.984C294.131 24.424 293.667 22.504 292.739 21.224C291.843 19.944 290.547 19.304 288.851 19.304C287.763 19.304 286.659 19.592 285.539 20.168C284.451 20.744 283.491 21.528 282.659 22.52C281.827 23.48 281.219 24.6 280.835 25.88V41H276.611V5.96H280.835V21.32C281.827 19.528 283.171 18.12 284.867 17.096C286.595 16.04 288.451 15.512 290.435 15.512C291.939 15.512 293.187 15.784 294.179 16.328C295.203 16.84 296.019 17.576 296.627 18.536C297.235 19.496 297.667 20.616 297.923 21.896C298.211 23.144 298.355 24.52 298.355 26.024V41ZM29.56 95.816C29.976 95.848 30.392 95.88 30.808 95.912C31.224 95.976 31.544 96.008 31.768 96.008C32.28 96.008 32.728 95.832 33.112 95.48C33.496 95.128 33.912 94.44 34.36 93.416C34.84 92.424 35.448 90.952 36.184 89L25.576 63.944H30.04L38.488 84.728L46.12 63.944H50.296L38.104 95.576C37.816 96.312 37.384 97 36.808 97.64C36.264 98.312 35.56 98.84 34.696 99.224C33.832 99.608 32.792 99.8 31.576 99.8C31.288 99.8 30.984 99.784 30.664 99.752C30.376 99.72 30.008 99.656 29.56 99.56V95.816ZM64.6176 89.48C62.7296 89.48 61.0176 89.144 59.4816 88.472C57.9456 87.768 56.6176 86.824 55.4976 85.64C54.3776 84.424 53.5136 83.032 52.9056 81.464C52.2976 79.896 51.9936 78.248 51.9936 76.52C51.9936 74.76 52.2976 73.096 52.9056 71.528C53.5136 69.96 54.3776 68.584 55.4976 67.4C56.6176 66.184 57.9456 65.24 59.4816 64.568C61.0496 63.864 62.7616 63.512 64.6176 63.512C66.5056 63.512 68.2176 63.864 69.7536 64.568C71.2896 65.24 72.6176 66.184 73.7376 67.4C74.8896 68.584 75.7696 69.96 76.3776 71.528C76.9856 73.096 77.2896 74.76 77.2896 76.52C77.2896 78.248 76.9856 79.896 76.3776 81.464C75.7696 83.032 74.9056 84.424 73.7856 85.64C72.6656 86.824 71.3216 87.768 69.7536 88.472C68.2176 89.144 66.5056 89.48 64.6176 89.48ZM56.3136 76.568C56.3136 78.296 56.6816 79.864 57.4176 81.272C58.1856 82.68 59.1936 83.8 60.4416 84.632C61.6896 85.432 63.0816 85.832 64.6176 85.832C66.1536 85.832 67.5456 85.416 68.7936 84.584C70.0736 83.752 71.0816 82.632 71.8176 81.224C72.5856 79.784 72.9696 78.2 72.9696 76.472C72.9696 74.744 72.5856 73.176 71.8176 71.768C71.0816 70.36 70.0736 69.24 68.7936 68.408C67.5456 67.576 66.1536 67.16 64.6176 67.16C63.0816 67.16 61.6896 67.592 60.4416 68.456C59.1936 69.288 58.1856 70.408 57.4176 71.816C56.6816 73.224 56.3136 74.808 56.3136 76.568ZM82.168 78.968V63.944H86.392V78.152C86.392 80.712 86.84 82.632 87.736 83.912C88.632 85.192 89.96 85.832 91.72 85.832C92.872 85.832 93.976 85.592 95.032 85.112C96.12 84.6 97.096 83.88 97.96 82.952C98.824 82.024 99.496 80.92 99.976 79.64V63.944H104.2V84.2C104.2 84.712 104.296 85.096 104.488 85.352C104.712 85.576 105.064 85.704 105.544 85.736V89C105.064 89.064 104.68 89.096 104.392 89.096C104.136 89.128 103.88 89.144 103.624 89.144C102.824 89.144 102.136 88.904 101.56 88.424C100.984 87.912 100.68 87.288 100.648 86.552L100.552 83.624C99.464 85.48 97.992 86.92 96.136 87.944C94.312 88.968 92.312 89.48 90.136 89.48C87.512 89.48 85.528 88.6 84.184 86.84C82.84 85.048 82.168 82.424 82.168 78.968ZM132.98 89H128.756V74.984C128.756 72.328 128.34 70.392 127.508 69.176C126.708 67.928 125.476 67.304 123.812 67.304C122.66 67.304 121.508 67.592 120.356 68.168C119.236 68.744 118.228 69.528 117.332 70.52C116.468 71.48 115.844 72.6 115.46 73.88V89H111.236V63.944H115.076V69.32C115.748 68.136 116.612 67.112 117.668 66.248C118.724 65.384 119.924 64.712 121.268 64.232C122.612 63.752 124.02 63.512 125.492 63.512C126.932 63.512 128.132 63.784 129.092 64.328C130.084 64.84 130.852 65.576 131.396 66.536C131.972 67.464 132.372 68.568 132.596 69.848C132.852 71.128 132.98 72.52 132.98 74.024V89ZM149.533 89.288C147.837 89.288 146.269 88.952 144.829 88.28C143.421 87.576 142.205 86.632 141.181 85.448C140.157 84.232 139.357 82.856 138.781 81.32C138.237 79.784 137.965 78.184 137.965 76.52C137.965 74.76 138.237 73.096 138.781 71.528C139.357 69.96 140.157 68.584 141.181 67.4C142.237 66.184 143.469 65.24 144.877 64.568C146.285 63.864 147.853 63.512 149.581 63.512C151.661 63.512 153.469 64.024 155.005 65.048C156.573 66.072 157.885 67.368 158.941 68.936V63.944H162.685V88.712C162.685 91.08 162.109 93.08 160.957 94.712C159.837 96.344 158.301 97.576 156.349 98.408C154.429 99.272 152.285 99.704 149.917 99.704C147.101 99.704 144.797 99.208 143.005 98.216C141.213 97.224 139.725 95.88 138.541 94.184L140.989 92.024C141.981 93.496 143.261 94.6 144.829 95.336C146.429 96.072 148.125 96.44 149.917 96.44C151.453 96.44 152.861 96.152 154.141 95.576C155.453 95.032 156.493 94.184 157.261 93.032C158.061 91.88 158.461 90.44 158.461 88.712V84.296C157.533 85.832 156.253 87.048 154.621 87.944C153.021 88.84 151.325 89.288 149.533 89.288ZM150.829 85.832C151.725 85.832 152.589 85.672 153.421 85.352C154.253 85.032 155.021 84.616 155.725 84.104C156.429 83.56 157.021 82.952 157.501 82.28C157.981 81.608 158.301 80.92 158.461 80.216V73.016C158.013 71.864 157.373 70.856 156.541 69.992C155.709 69.096 154.765 68.408 153.709 67.928C152.653 67.416 151.565 67.16 150.445 67.16C149.165 67.16 148.013 67.432 146.989 67.976C145.997 68.52 145.149 69.256 144.445 70.184C143.741 71.08 143.197 72.088 142.813 73.208C142.429 74.328 142.237 75.464 142.237 76.616C142.237 77.864 142.461 79.048 142.909 80.168C143.357 81.256 143.965 82.232 144.733 83.096C145.501 83.96 146.413 84.632 147.469 85.112C148.525 85.592 149.645 85.832 150.829 85.832ZM195.13 89.48C193.082 89.48 191.258 88.968 189.658 87.944C188.058 86.92 186.794 85.624 185.866 84.056V99.224H181.642V63.944H185.386V68.648C186.378 67.112 187.674 65.88 189.274 64.952C190.874 63.992 192.618 63.512 194.506 63.512C196.234 63.512 197.818 63.864 199.258 64.568C200.698 65.272 201.946 66.232 203.002 67.448C204.058 68.664 204.874 70.056 205.45 71.624C206.058 73.16 206.362 74.776 206.362 76.472C206.362 78.84 205.882 81.016 204.922 83C203.994 84.984 202.682 86.568 200.986 87.752C199.29 88.904 197.338 89.48 195.13 89.48ZM193.834 85.832C195.082 85.832 196.202 85.576 197.194 85.064C198.218 84.52 199.082 83.816 199.786 82.952C200.522 82.056 201.082 81.048 201.466 79.928C201.85 78.808 202.042 77.656 202.042 76.472C202.042 75.224 201.818 74.04 201.37 72.92C200.954 71.8 200.346 70.808 199.546 69.944C198.778 69.08 197.866 68.408 196.81 67.928C195.786 67.416 194.666 67.16 193.45 67.16C192.682 67.16 191.882 67.304 191.05 67.592C190.25 67.88 189.482 68.296 188.746 68.84C188.01 69.352 187.386 69.944 186.874 70.616C186.362 71.288 186.026 72.008 185.866 72.776V79.928C186.346 81.016 186.986 82.008 187.786 82.904C188.586 83.8 189.514 84.52 190.57 85.064C191.626 85.576 192.714 85.832 193.834 85.832ZM222.637 89.48C220.749 89.48 219.021 89.144 217.453 88.472C215.917 87.768 214.573 86.824 213.421 85.64C212.301 84.424 211.421 83.032 210.781 81.464C210.173 79.896 209.869 78.232 209.869 76.472C209.869 74.104 210.413 71.944 211.501 69.992C212.589 68.04 214.093 66.472 216.013 65.288C217.965 64.104 220.189 63.512 222.685 63.512C225.213 63.512 227.405 64.12 229.261 65.336C231.149 66.52 232.605 68.088 233.629 70.04C234.685 71.96 235.213 74.04 235.213 76.28C235.213 76.6 235.197 76.92 235.165 77.24C235.165 77.528 235.149 77.752 235.117 77.912H214.333C214.461 79.544 214.909 81 215.677 82.28C216.477 83.528 217.501 84.52 218.749 85.256C219.997 85.96 221.341 86.312 222.781 86.312C224.317 86.312 225.757 85.928 227.101 85.16C228.477 84.392 229.421 83.384 229.933 82.136L233.581 83.144C233.037 84.36 232.221 85.448 231.133 86.408C230.077 87.368 228.813 88.12 227.341 88.664C225.901 89.208 224.333 89.48 222.637 89.48ZM214.189 74.984H231.277C231.149 73.352 230.685 71.912 229.885 70.664C229.085 69.416 228.061 68.44 226.813 67.736C225.565 67.032 224.189 66.68 222.685 66.68C221.213 66.68 219.853 67.032 218.605 67.736C217.357 68.44 216.333 69.416 215.533 70.664C214.765 71.912 214.317 73.352 214.189 74.984ZM250.852 89.48C248.964 89.48 247.252 89.144 245.716 88.472C244.18 87.768 242.852 86.824 241.732 85.64C240.612 84.424 239.748 83.032 239.14 81.464C238.532 79.896 238.228 78.248 238.228 76.52C238.228 74.76 238.532 73.096 239.14 71.528C239.748 69.96 240.612 68.584 241.732 67.4C242.852 66.184 244.18 65.24 245.716 64.568C247.284 63.864 248.996 63.512 250.852 63.512C252.74 63.512 254.452 63.864 255.988 64.568C257.524 65.24 258.852 66.184 259.972 67.4C261.124 68.584 262.004 69.96 262.612 71.528C263.22 73.096 263.524 74.76 263.524 76.52C263.524 78.248 263.22 79.896 262.612 81.464C262.004 83.032 261.14 84.424 260.02 85.64C258.9 86.824 257.556 87.768 255.988 88.472C254.452 89.144 252.74 89.48 250.852 89.48ZM242.548 76.568C242.548 78.296 242.916 79.864 243.652 81.272C244.42 82.68 245.428 83.8 246.676 84.632C247.924 85.432 249.316 85.832 250.852 85.832C252.388 85.832 253.78 85.416 255.028 84.584C256.308 83.752 257.316 82.632 258.052 81.224C258.82 79.784 259.204 78.2 259.204 76.472C259.204 74.744 258.82 73.176 258.052 71.768C257.316 70.36 256.308 69.24 255.028 68.408C253.78 67.576 252.388 67.16 250.852 67.16C249.316 67.16 247.924 67.592 246.676 68.456C245.428 69.288 244.42 70.408 243.652 71.816C242.916 73.224 242.548 74.808 242.548 76.568ZM282.13 89.48C280.082 89.48 278.258 88.968 276.658 87.944C275.058 86.92 273.794 85.624 272.866 84.056V99.224H268.642V63.944H272.386V68.648C273.378 67.112 274.674 65.88 276.274 64.952C277.874 63.992 279.618 63.512 281.506 63.512C283.234 63.512 284.818 63.864 286.258 64.568C287.698 65.272 288.946 66.232 290.002 67.448C291.058 68.664 291.874 70.056 292.45 71.624C293.058 73.16 293.362 74.776 293.362 76.472C293.362 78.84 292.882 81.016 291.922 83C290.994 84.984 289.682 86.568 287.986 87.752C286.29 88.904 284.338 89.48 282.13 89.48ZM280.834 85.832C282.082 85.832 283.202 85.576 284.194 85.064C285.218 84.52 286.082 83.816 286.786 82.952C287.522 82.056 288.082 81.048 288.466 79.928C288.85 78.808 289.042 77.656 289.042 76.472C289.042 75.224 288.818 74.04 288.37 72.92C287.954 71.8 287.346 70.808 286.546 69.944C285.778 69.08 284.866 68.408 283.81 67.928C282.786 67.416 281.666 67.16 280.45 67.16C279.682 67.16 278.882 67.304 278.05 67.592C277.25 67.88 276.482 68.296 275.746 68.84C275.01 69.352 274.386 69.944 273.874 70.616C273.362 71.288 273.026 72.008 272.866 72.776V79.928C273.346 81.016 273.986 82.008 274.786 82.904C275.586 83.8 276.514 84.52 277.57 85.064C278.626 85.576 279.714 85.832 280.834 85.832ZM298.645 53.96H302.869V82.52C302.869 83.896 303.061 84.744 303.445 85.064C303.829 85.384 304.293 85.544 304.837 85.544C305.509 85.544 306.149 85.48 306.757 85.352C307.365 85.192 307.877 85.032 308.293 84.872L308.965 88.328C308.261 88.616 307.429 88.856 306.469 89.048C305.509 89.24 304.661 89.336 303.925 89.336C302.293 89.336 300.997 88.872 300.037 87.944C299.109 87.016 298.645 85.72 298.645 84.056V53.96ZM323.371 89.48C321.483 89.48 319.755 89.144 318.187 88.472C316.651 87.768 315.307 86.824 314.155 85.64C313.035 84.424 312.155 83.032 311.515 81.464C310.907 79.896 310.603 78.232 310.603 76.472C310.603 74.104 311.147 71.944 312.235 69.992C313.323 68.04 314.827 66.472 316.747 65.288C318.699 64.104 320.923 63.512 323.419 63.512C325.947 63.512 328.139 64.12 329.995 65.336C331.883 66.52 333.339 68.088 334.363 70.04C335.419 71.96 335.947 74.04 335.947 76.28C335.947 76.6 335.931 76.92 335.899 77.24C335.899 77.528 335.883 77.752 335.851 77.912H315.067C315.195 79.544 315.643 81 316.411 82.28C317.211 83.528 318.235 84.52 319.483 85.256C320.731 85.96 322.075 86.312 323.515 86.312C325.051 86.312 326.491 85.928 327.835 85.16C329.211 84.392 330.155 83.384 330.667 82.136L334.315 83.144C333.771 84.36 332.955 85.448 331.867 86.408C330.811 87.368 329.547 88.12 328.075 88.664C326.635 89.208 325.067 89.48 323.371 89.48ZM314.923 74.984H332.011C331.883 73.352 331.419 71.912 330.619 70.664C329.819 69.416 328.795 68.44 327.547 67.736C326.299 67.032 324.923 66.68 323.419 66.68C321.947 66.68 320.587 67.032 319.339 67.736C318.091 68.44 317.067 69.416 316.267 70.664C315.499 71.912 315.051 73.352 314.923 74.984Z" fill="#0022D5"/>
<path d="M31.18 141.8H32.36L38.26 156H36.78L34.94 151.56H28.56L26.74 156H25.24L31.18 141.8ZM34.62 150.46L31.76 143.44L28.86 150.46H34.62ZM48.7756 156H47.4156V150.18C47.4156 148.953 47.2356 148.06 46.8756 147.5C46.5156 146.927 45.949 146.64 45.1756 146.64C44.6423 146.64 44.1156 146.773 43.5956 147.04C43.0756 147.293 42.6156 147.647 42.2156 148.1C41.829 148.54 41.549 149.047 41.3756 149.62V156H40.0156V145.58H41.2556V147.94C41.5356 147.433 41.9023 146.993 42.3556 146.62C42.809 146.233 43.3223 145.933 43.8956 145.72C44.469 145.507 45.0623 145.4 45.6756 145.4C46.249 145.4 46.7356 145.507 47.1356 145.72C47.5356 145.933 47.8556 146.24 48.0956 146.64C48.3356 147.027 48.509 147.5 48.6156 148.06C48.7223 148.607 48.7756 149.22 48.7756 149.9V156ZM61.2134 156.2C60.4668 156.2 59.7734 156.06 59.1334 155.78C58.5068 155.487 57.9601 155.093 57.4934 154.6C57.0401 154.093 56.6868 153.52 56.4334 152.88C56.1801 152.227 56.0534 151.54 56.0534 150.82C56.0534 150.073 56.1801 149.38 56.4334 148.74C56.6868 148.087 57.0468 147.513 57.5134 147.02C57.9801 146.513 58.5268 146.12 59.1534 145.84C59.7934 145.547 60.4868 145.4 61.2334 145.4C61.9801 145.4 62.6668 145.547 63.2934 145.84C63.9201 146.12 64.4668 146.513 64.9334 147.02C65.4001 147.513 65.7601 148.087 66.0134 148.74C66.2668 149.38 66.3934 150.073 66.3934 150.82C66.3934 151.54 66.2668 152.227 66.0134 152.88C65.7601 153.52 65.4001 154.093 64.9334 154.6C64.4801 155.093 63.9334 155.487 63.2934 155.78C62.6668 156.06 61.9734 156.2 61.2134 156.2ZM57.4334 150.84C57.4334 151.613 57.6001 152.32 57.9334 152.96C58.2801 153.587 58.7401 154.087 59.3134 154.46C59.8868 154.82 60.5201 155 61.2134 155C61.9068 155 62.5401 154.813 63.1134 154.44C63.6868 154.067 64.1468 153.56 64.4934 152.92C64.8401 152.267 65.0134 151.56 65.0134 150.8C65.0134 150.027 64.8401 149.32 64.4934 148.68C64.1468 148.04 63.6868 147.533 63.1134 147.16C62.5401 146.787 61.9068 146.6 61.2134 146.6C60.5201 146.6 59.8868 146.793 59.3134 147.18C58.7534 147.567 58.3001 148.08 57.9534 148.72C57.6068 149.347 57.4334 150.053 57.4334 150.84ZM73.988 156.2C73.1213 156.2 72.3413 155.973 71.648 155.52C70.968 155.067 70.428 154.507 70.028 153.84V160.26H68.668V145.58H69.888V147.6C70.3013 146.947 70.8546 146.42 71.548 146.02C72.2413 145.607 72.9813 145.4 73.768 145.4C74.488 145.4 75.148 145.553 75.748 145.86C76.348 146.153 76.868 146.553 77.308 147.06C77.748 147.567 78.088 148.147 78.328 148.8C78.5813 149.44 78.708 150.107 78.708 150.8C78.708 151.773 78.508 152.673 78.108 153.5C77.7213 154.313 77.1746 154.967 76.468 155.46C75.7613 155.953 74.9346 156.2 73.988 156.2ZM73.608 155C74.1813 155 74.6946 154.887 75.148 154.66C75.6013 154.42 75.988 154.1 76.308 153.7C76.6413 153.3 76.8946 152.853 77.068 152.36C77.2413 151.853 77.328 151.333 77.328 150.8C77.328 150.24 77.228 149.707 77.028 149.2C76.8413 148.693 76.568 148.247 76.208 147.86C75.848 147.473 75.4346 147.167 74.968 146.94C74.5013 146.713 73.9946 146.6 73.448 146.6C73.1013 146.6 72.7413 146.667 72.368 146.8C71.9946 146.933 71.6346 147.127 71.288 147.38C70.9546 147.62 70.6746 147.893 70.448 148.2C70.2213 148.507 70.0813 148.833 70.028 149.18V152.38C70.2413 152.873 70.528 153.32 70.888 153.72C71.248 154.107 71.6613 154.42 72.128 154.66C72.608 154.887 73.1013 155 73.608 155ZM86.3317 156.2C85.4651 156.2 84.6851 155.973 83.9917 155.52C83.3117 155.067 82.7717 154.507 82.3717 153.84V160.26H81.0117V145.58H82.2317V147.6C82.6451 146.947 83.1984 146.42 83.8917 146.02C84.5851 145.607 85.3251 145.4 86.1117 145.4C86.8317 145.4 87.4917 145.553 88.0917 145.86C88.6917 146.153 89.2117 146.553 89.6517 147.06C90.0917 147.567 90.4317 148.147 90.6717 148.8C90.9251 149.44 91.0517 150.107 91.0517 150.8C91.0517 151.773 90.8517 152.673 90.4517 153.5C90.0651 154.313 89.5184 154.967 88.8117 155.46C88.1051 155.953 87.2784 156.2 86.3317 156.2ZM85.9517 155C86.5251 155 87.0384 154.887 87.4917 154.66C87.9451 154.42 88.3317 154.1 88.6517 153.7C88.9851 153.3 89.2384 152.853 89.4117 152.36C89.5851 151.853 89.6717 151.333 89.6717 150.8C89.6717 150.24 89.5717 149.707 89.3717 149.2C89.1851 148.693 88.9117 148.247 88.5517 147.86C88.1917 147.473 87.7784 147.167 87.3117 146.94C86.8451 146.713 86.3384 146.6 85.7917 146.6C85.4451 146.6 85.0851 146.667 84.7117 146.8C84.3384 146.933 83.9784 147.127 83.6317 147.38C83.2984 147.62 83.0184 147.893 82.7917 148.2C82.5651 148.507 82.4251 148.833 82.3717 149.18V152.38C82.5851 152.873 82.8717 153.32 83.2317 153.72C83.5917 154.107 84.0051 154.42 84.4717 154.66C84.9517 154.887 85.4451 155 85.9517 155ZM97.7955 156.2C97.0488 156.2 96.3555 156.06 95.7155 155.78C95.0888 155.487 94.5421 155.093 94.0755 154.6C93.6221 154.093 93.2688 153.52 93.0155 152.88C92.7621 152.227 92.6355 151.54 92.6355 150.82C92.6355 150.073 92.7621 149.38 93.0155 148.74C93.2688 148.087 93.6288 147.513 94.0955 147.02C94.5621 146.513 95.1088 146.12 95.7355 145.84C96.3755 145.547 97.0688 145.4 97.8155 145.4C98.5621 145.4 99.2488 145.547 99.8755 145.84C100.502 146.12 101.049 146.513 101.515 147.02C101.982 147.513 102.342 148.087 102.595 148.74C102.849 149.38 102.975 150.073 102.975 150.82C102.975 151.54 102.849 152.227 102.595 152.88C102.342 153.52 101.982 154.093 101.515 154.6C101.062 155.093 100.515 155.487 99.8755 155.78C99.2488 156.06 98.5555 156.2 97.7955 156.2ZM94.0155 150.84C94.0155 151.613 94.1821 152.32 94.5155 152.96C94.8621 153.587 95.3221 154.087 95.8955 154.46C96.4688 154.82 97.1021 155 97.7955 155C98.4888 155 99.1221 154.813 99.6955 154.44C100.269 154.067 100.729 153.56 101.075 152.92C101.422 152.267 101.595 151.56 101.595 150.8C101.595 150.027 101.422 149.32 101.075 148.68C100.729 148.04 100.269 147.533 99.6955 147.16C99.1221 146.787 98.4888 146.6 97.7955 146.6C97.1021 146.6 96.4688 146.793 95.8955 147.18C95.3355 147.567 94.8821 148.08 94.5355 148.72C94.1888 149.347 94.0155 150.053 94.0155 150.84ZM110.45 146.78C109.543 146.807 108.743 147.06 108.05 147.54C107.37 148.02 106.89 148.68 106.61 149.52V156H105.25V145.58H106.53V148.08C106.89 147.347 107.363 146.753 107.95 146.3C108.55 145.847 109.183 145.593 109.85 145.54C109.983 145.527 110.097 145.52 110.19 145.52C110.297 145.52 110.383 145.527 110.45 145.54V146.78ZM117.262 155.5C117.155 155.54 116.988 155.613 116.762 155.72C116.535 155.827 116.262 155.92 115.942 156C115.622 156.08 115.275 156.12 114.902 156.12C114.515 156.12 114.148 156.047 113.802 155.9C113.468 155.753 113.202 155.533 113.002 155.24C112.802 154.933 112.702 154.56 112.702 154.12V146.66H111.262V145.58H112.702V142.06H114.062V145.58H116.462V146.66H114.062V153.74C114.088 154.113 114.222 154.393 114.462 154.58C114.715 154.767 115.002 154.86 115.322 154.86C115.695 154.86 116.035 154.8 116.342 154.68C116.648 154.547 116.835 154.453 116.902 154.4L117.262 155.5ZM118.861 151.7V145.58H120.221V151.46C120.221 152.647 120.421 153.533 120.821 154.12C121.234 154.707 121.841 155 122.641 155C123.174 155 123.688 154.887 124.181 154.66C124.688 154.42 125.134 154.087 125.521 153.66C125.908 153.22 126.201 152.713 126.401 152.14V145.58H127.761V154.36C127.761 154.547 127.801 154.687 127.881 154.78C127.961 154.86 128.081 154.907 128.241 154.92V156C128.081 156.013 127.954 156.02 127.861 156.02C127.768 156.033 127.681 156.04 127.601 156.04C127.334 156.013 127.101 155.907 126.901 155.72C126.714 155.533 126.614 155.307 126.601 155.04L126.561 153.64C126.108 154.44 125.488 155.067 124.701 155.52C123.928 155.973 123.088 156.2 122.181 156.2C121.088 156.2 120.261 155.82 119.701 155.06C119.141 154.3 118.861 153.18 118.861 151.7ZM139.596 156H138.236V150.18C138.236 148.953 138.056 148.06 137.696 147.5C137.336 146.927 136.769 146.64 135.996 146.64C135.463 146.64 134.936 146.773 134.416 147.04C133.896 147.293 133.436 147.647 133.036 148.1C132.649 148.54 132.369 149.047 132.196 149.62V156H130.836V145.58H132.076V147.94C132.356 147.433 132.723 146.993 133.176 146.62C133.629 146.233 134.143 145.933 134.716 145.72C135.289 145.507 135.883 145.4 136.496 145.4C137.069 145.4 137.556 145.507 137.956 145.72C138.356 145.933 138.676 146.24 138.916 146.64C139.156 147.027 139.329 147.5 139.436 148.06C139.543 148.607 139.596 149.22 139.596 149.9V156ZM142.496 156V145.58H143.856V156H142.496ZM142.496 143.4V141.4H143.856V143.4H142.496ZM151.852 155.5C151.745 155.54 151.578 155.613 151.352 155.72C151.125 155.827 150.852 155.92 150.532 156C150.212 156.08 149.865 156.12 149.492 156.12C149.105 156.12 148.738 156.047 148.392 155.9C148.058 155.753 147.792 155.533 147.592 155.24C147.392 154.933 147.292 154.56 147.292 154.12V146.66H145.852V145.58H147.292V142.06H148.652V145.58H151.052V146.66H148.652V153.74C148.678 154.113 148.812 154.393 149.052 154.58C149.305 154.767 149.592 154.86 149.912 154.86C150.285 154.86 150.625 154.8 150.932 154.68C151.238 154.547 151.425 154.453 151.492 154.4L151.852 155.5ZM154.151 159.2C154.337 159.213 154.517 159.22 154.691 159.22C154.864 159.233 154.991 159.227 155.071 159.2C155.231 159.173 155.384 159.08 155.531 158.92C155.677 158.76 155.851 158.453 156.051 158C156.251 157.547 156.531 156.88 156.891 156L152.351 145.58H153.791L157.611 154.6L161.131 145.58H162.491L157.091 159.02C156.997 159.273 156.857 159.507 156.671 159.72C156.484 159.947 156.251 160.12 155.971 160.24C155.704 160.373 155.371 160.447 154.971 160.46C154.851 160.473 154.724 160.473 154.591 160.46C154.471 160.46 154.324 160.447 154.151 160.42V159.2ZM173.941 155.5C173.835 155.54 173.668 155.613 173.441 155.72C173.215 155.827 172.941 155.92 172.621 156C172.301 156.08 171.955 156.12 171.581 156.12C171.195 156.12 170.828 156.047 170.481 155.9C170.148 155.753 169.881 155.533 169.681 155.24C169.481 154.933 169.381 154.56 169.381 154.12V146.66H167.941V145.58H169.381V142.06H170.741V145.58H173.141V146.66H170.741V153.74C170.768 154.113 170.901 154.393 171.141 154.58C171.395 154.767 171.681 154.86 172.001 154.86C172.375 154.86 172.715 154.8 173.021 154.68C173.328 154.547 173.515 154.453 173.581 154.4L173.941 155.5ZM179.905 156.2C179.158 156.2 178.465 156.06 177.825 155.78C177.198 155.487 176.652 155.093 176.185 154.6C175.732 154.093 175.378 153.52 175.125 152.88C174.872 152.227 174.745 151.54 174.745 150.82C174.745 150.073 174.872 149.38 175.125 148.74C175.378 148.087 175.738 147.513 176.205 147.02C176.672 146.513 177.218 146.12 177.845 145.84C178.485 145.547 179.178 145.4 179.925 145.4C180.672 145.4 181.358 145.547 181.985 145.84C182.612 146.12 183.158 146.513 183.625 147.02C184.092 147.513 184.452 148.087 184.705 148.74C184.958 149.38 185.085 150.073 185.085 150.82C185.085 151.54 184.958 152.227 184.705 152.88C184.452 153.52 184.092 154.093 183.625 154.6C183.172 155.093 182.625 155.487 181.985 155.78C181.358 156.06 180.665 156.2 179.905 156.2ZM176.125 150.84C176.125 151.613 176.292 152.32 176.625 152.96C176.972 153.587 177.432 154.087 178.005 154.46C178.578 154.82 179.212 155 179.905 155C180.598 155 181.232 154.813 181.805 154.44C182.378 154.067 182.838 153.56 183.185 152.92C183.532 152.267 183.705 151.56 183.705 150.8C183.705 150.027 183.532 149.32 183.185 148.68C182.838 148.04 182.378 147.533 181.805 147.16C181.232 146.787 180.598 146.6 179.905 146.6C179.212 146.6 178.578 146.793 178.005 147.18C177.445 147.567 176.992 148.08 176.645 148.72C176.298 149.347 176.125 150.053 176.125 150.84ZM197.657 146.78C196.75 146.807 195.95 147.06 195.257 147.54C194.577 148.02 194.097 148.68 193.817 149.52V156H192.457V145.58H193.737V148.08C194.097 147.347 194.57 146.753 195.157 146.3C195.757 145.847 196.39 145.593 197.057 145.54C197.19 145.527 197.304 145.52 197.397 145.52C197.504 145.52 197.59 145.527 197.657 145.54V146.78ZM203.637 156.2C202.89 156.2 202.197 156.06 201.557 155.78C200.917 155.487 200.363 155.093 199.897 154.6C199.43 154.093 199.063 153.513 198.797 152.86C198.543 152.207 198.417 151.507 198.417 150.76C198.417 149.787 198.637 148.893 199.077 148.08C199.53 147.267 200.15 146.62 200.937 146.14C201.723 145.647 202.617 145.4 203.617 145.4C204.643 145.4 205.537 145.647 206.297 146.14C207.07 146.633 207.677 147.287 208.117 148.1C208.557 148.9 208.777 149.78 208.777 150.74C208.777 150.847 208.777 150.953 208.777 151.06C208.777 151.153 208.77 151.227 208.757 151.28H199.837C199.903 152.027 200.11 152.693 200.457 153.28C200.817 153.853 201.277 154.313 201.837 154.66C202.41 154.993 203.03 155.16 203.697 155.16C204.377 155.16 205.017 154.987 205.617 154.64C206.23 154.293 206.657 153.84 206.897 153.28L208.077 153.6C207.863 154.093 207.537 154.54 207.097 154.94C206.657 155.34 206.137 155.653 205.537 155.88C204.95 156.093 204.317 156.2 203.637 156.2ZM199.797 150.3H207.497C207.443 149.54 207.237 148.873 206.877 148.3C206.53 147.727 206.07 147.28 205.497 146.96C204.937 146.627 204.317 146.46 203.637 146.46C202.957 146.46 202.337 146.627 201.777 146.96C201.217 147.28 200.757 147.733 200.397 148.32C200.05 148.893 199.85 149.553 199.797 150.3ZM215.395 156.2C214.635 156.2 213.935 156.06 213.295 155.78C212.668 155.487 212.115 155.087 211.635 154.58C211.168 154.073 210.802 153.493 210.535 152.84C210.282 152.187 210.155 151.493 210.155 150.76C210.155 149.773 210.375 148.873 210.815 148.06C211.255 147.247 211.868 146.6 212.655 146.12C213.442 145.64 214.348 145.4 215.375 145.4C216.348 145.4 217.208 145.627 217.955 146.08C218.702 146.52 219.255 147.12 219.615 147.88L218.295 148.3C218.002 147.767 217.588 147.353 217.055 147.06C216.535 146.753 215.955 146.6 215.315 146.6C214.622 146.6 213.988 146.78 213.415 147.14C212.842 147.5 212.382 147.993 212.035 148.62C211.702 149.247 211.535 149.96 211.535 150.76C211.535 151.547 211.708 152.26 212.055 152.9C212.402 153.54 212.862 154.053 213.435 154.44C214.008 154.813 214.642 155 215.335 155C215.788 155 216.222 154.92 216.635 154.76C217.062 154.6 217.428 154.387 217.735 154.12C218.055 153.84 218.268 153.54 218.375 153.22L219.715 153.62C219.528 154.113 219.215 154.56 218.775 154.96C218.348 155.347 217.842 155.653 217.255 155.88C216.682 156.093 216.062 156.2 215.395 156.2ZM226.254 156.2C225.507 156.2 224.814 156.06 224.174 155.78C223.534 155.487 222.981 155.093 222.514 154.6C222.047 154.093 221.681 153.513 221.414 152.86C221.161 152.207 221.034 151.507 221.034 150.76C221.034 149.787 221.254 148.893 221.694 148.08C222.147 147.267 222.767 146.62 223.554 146.14C224.341 145.647 225.234 145.4 226.234 145.4C227.261 145.4 228.154 145.647 228.914 146.14C229.687 146.633 230.294 147.287 230.734 148.1C231.174 148.9 231.394 149.78 231.394 150.74C231.394 150.847 231.394 150.953 231.394 151.06C231.394 151.153 231.387 151.227 231.374 151.28H222.454C222.521 152.027 222.727 152.693 223.074 153.28C223.434 153.853 223.894 154.313 224.454 154.66C225.027 154.993 225.647 155.16 226.314 155.16C226.994 155.16 227.634 154.987 228.234 154.64C228.847 154.293 229.274 153.84 229.514 153.28L230.694 153.6C230.481 154.093 230.154 154.54 229.714 154.94C229.274 155.34 228.754 155.653 228.154 155.88C227.567 156.093 226.934 156.2 226.254 156.2ZM222.414 150.3H230.114C230.061 149.54 229.854 148.873 229.494 148.3C229.147 147.727 228.687 147.28 228.114 146.96C227.554 146.627 226.934 146.46 226.254 146.46C225.574 146.46 224.954 146.627 224.394 146.96C223.834 147.28 223.374 147.733 223.014 148.32C222.667 148.893 222.467 149.553 222.414 150.3ZM233.492 156V145.58H234.852V156H233.492ZM233.492 143.4V141.4H234.852V143.4H233.492ZM240.948 156L236.728 145.58H238.148L241.708 154.64L245.288 145.58H246.628L242.408 156H240.948ZM252.66 156.2C251.913 156.2 251.22 156.06 250.58 155.78C249.94 155.487 249.387 155.093 248.92 154.6C248.453 154.093 248.087 153.513 247.82 152.86C247.567 152.207 247.44 151.507 247.44 150.76C247.44 149.787 247.66 148.893 248.1 148.08C248.553 147.267 249.173 146.62 249.96 146.14C250.747 145.647 251.64 145.4 252.64 145.4C253.667 145.4 254.56 145.647 255.32 146.14C256.093 146.633 256.7 147.287 257.14 148.1C257.58 148.9 257.8 149.78 257.8 150.74C257.8 150.847 257.8 150.953 257.8 151.06C257.8 151.153 257.793 151.227 257.78 151.28H248.86C248.927 152.027 249.133 152.693 249.48 153.28C249.84 153.853 250.3 154.313 250.86 154.66C251.433 154.993 252.053 155.16 252.72 155.16C253.4 155.16 254.04 154.987 254.64 154.64C255.253 154.293 255.68 153.84 255.92 153.28L257.1 153.6C256.887 154.093 256.56 154.54 256.12 154.94C255.68 155.34 255.16 155.653 254.56 155.88C253.973 156.093 253.34 156.2 252.66 156.2ZM248.82 150.3H256.52C256.467 149.54 256.26 148.873 255.9 148.3C255.553 147.727 255.093 147.28 254.52 146.96C253.96 146.627 253.34 146.46 252.66 146.46C251.98 146.46 251.36 146.627 250.8 146.96C250.24 147.28 249.78 147.733 249.42 148.32C249.073 148.893 248.873 149.553 248.82 150.3ZM273.756 156H272.396V150.18C272.396 148.953 272.216 148.06 271.856 147.5C271.496 146.927 270.929 146.64 270.156 146.64C269.623 146.64 269.096 146.773 268.576 147.04C268.056 147.293 267.596 147.647 267.196 148.1C266.809 148.54 266.529 149.047 266.356 149.62V156H264.996V145.58H266.236V147.94C266.516 147.433 266.883 146.993 267.336 146.62C267.789 146.233 268.303 145.933 268.876 145.72C269.449 145.507 270.043 145.4 270.656 145.4C271.229 145.4 271.716 145.507 272.116 145.72C272.516 145.933 272.836 146.24 273.076 146.64C273.316 147.027 273.489 147.5 273.596 148.06C273.703 148.607 273.756 149.22 273.756 149.9V156ZM281.156 156.2C280.41 156.2 279.716 156.06 279.076 155.78C278.436 155.487 277.883 155.093 277.416 154.6C276.95 154.093 276.583 153.513 276.316 152.86C276.063 152.207 275.936 151.507 275.936 150.76C275.936 149.787 276.156 148.893 276.596 148.08C277.05 147.267 277.67 146.62 278.456 146.14C279.243 145.647 280.136 145.4 281.136 145.4C282.163 145.4 283.056 145.647 283.816 146.14C284.59 146.633 285.196 147.287 285.636 148.1C286.076 148.9 286.296 149.78 286.296 150.74C286.296 150.847 286.296 150.953 286.296 151.06C286.296 151.153 286.29 151.227 286.276 151.28H277.356C277.423 152.027 277.63 152.693 277.976 153.28C278.336 153.853 278.796 154.313 279.356 154.66C279.93 154.993 280.55 155.16 281.216 155.16C281.896 155.16 282.536 154.987 283.136 154.64C283.75 154.293 284.176 153.84 284.416 153.28L285.596 153.6C285.383 154.093 285.056 154.54 284.616 154.94C284.176 155.34 283.656 155.653 283.056 155.88C282.47 156.093 281.836 156.2 281.156 156.2ZM277.316 150.3H285.016C284.963 149.54 284.756 148.873 284.396 148.3C284.05 147.727 283.59 147.28 283.016 146.96C282.456 146.627 281.836 146.46 281.156 146.46C280.476 146.46 279.856 146.627 279.296 146.96C278.736 147.28 278.276 147.733 277.916 148.32C277.57 148.893 277.37 149.553 277.316 150.3ZM301.241 145.58H302.581L298.101 156H296.921L294.741 150.82L292.581 156H291.401L286.921 145.58H288.241L292.041 154.6L293.961 149.9L292.201 145.6H293.421L294.741 148.98L296.081 145.6H297.281L295.541 149.9L297.461 154.6L301.241 145.58ZM308.922 156V145.58H310.282V156H308.922ZM308.922 143.4V141.4H310.282V143.4H308.922ZM312.577 150.82C312.577 149.833 312.777 148.933 313.177 148.12C313.591 147.293 314.157 146.633 314.877 146.14C315.597 145.647 316.417 145.4 317.337 145.4C318.204 145.4 318.977 145.633 319.657 146.1C320.351 146.553 320.891 147.107 321.277 147.76V141.4H322.637V154.36C322.637 154.547 322.677 154.687 322.757 154.78C322.837 154.86 322.957 154.907 323.117 154.92V156C322.851 156.04 322.644 156.053 322.497 156.04C322.217 156.027 321.971 155.913 321.757 155.7C321.544 155.487 321.437 155.253 321.437 155V153.98C321.024 154.66 320.464 155.2 319.757 155.6C319.051 156 318.317 156.2 317.557 156.2C316.837 156.2 316.171 156.053 315.557 155.76C314.957 155.467 314.431 155.067 313.977 154.56C313.537 154.053 313.191 153.48 312.937 152.84C312.697 152.187 312.577 151.513 312.577 150.82ZM321.277 152.42V149.2C321.104 148.72 320.824 148.287 320.437 147.9C320.051 147.5 319.611 147.187 319.117 146.96C318.637 146.72 318.157 146.6 317.677 146.6C317.117 146.6 316.611 146.72 316.157 146.96C315.704 147.187 315.311 147.5 314.977 147.9C314.657 148.3 314.411 148.753 314.237 149.26C314.064 149.767 313.977 150.287 313.977 150.82C313.977 151.38 314.071 151.913 314.257 152.42C314.457 152.927 314.737 153.38 315.097 153.78C315.457 154.167 315.871 154.467 316.337 154.68C316.804 154.893 317.311 155 317.857 155C318.204 155 318.564 154.933 318.937 154.8C319.311 154.667 319.664 154.487 319.997 154.26C320.344 154.02 320.631 153.74 320.857 153.42C321.084 153.1 321.224 152.767 321.277 152.42ZM330.219 156.2C329.472 156.2 328.779 156.06 328.139 155.78C327.499 155.487 326.945 155.093 326.479 154.6C326.012 154.093 325.645 153.513 325.379 152.86C325.125 152.207 324.999 151.507 324.999 150.76C324.999 149.787 325.219 148.893 325.659 148.08C326.112 147.267 326.732 146.62 327.519 146.14C328.305 145.647 329.199 145.4 330.199 145.4C331.225 145.4 332.119 145.647 332.879 146.14C333.652 146.633 334.259 147.287 334.699 148.1C335.139 148.9 335.359 149.78 335.359 150.74C335.359 150.847 335.359 150.953 335.359 151.06C335.359 151.153 335.352 151.227 335.339 151.28H326.419C326.485 152.027 326.692 152.693 327.039 153.28C327.399 153.853 327.859 154.313 328.419 154.66C328.992 154.993 329.612 155.16 330.279 155.16C330.959 155.16 331.599 154.987 332.199 154.64C332.812 154.293 333.239 153.84 333.479 153.28L334.659 153.6C334.445 154.093 334.119 154.54 333.679 154.94C333.239 155.34 332.719 155.653 332.119 155.88C331.532 156.093 330.899 156.2 330.219 156.2ZM326.379 150.3H334.079C334.025 149.54 333.819 148.873 333.459 148.3C333.112 147.727 332.652 147.28 332.079 146.96C331.519 146.627 330.899 146.46 330.219 146.46C329.539 146.46 328.919 146.627 328.359 146.96C327.799 147.28 327.339 147.733 326.979 148.32C326.632 148.893 326.432 149.553 326.379 150.3ZM336.617 153C336.617 152.347 336.804 151.787 337.177 151.32C337.55 150.84 338.064 150.473 338.717 150.22C339.384 149.953 340.15 149.82 341.017 149.82C341.524 149.82 342.05 149.86 342.597 149.94C343.144 150.02 343.63 150.14 344.057 150.3V149.42C344.057 148.54 343.797 147.84 343.277 147.32C342.757 146.8 342.037 146.54 341.117 146.54C340.557 146.54 340.004 146.647 339.457 146.86C338.924 147.06 338.364 147.36 337.777 147.76L337.257 146.8C337.937 146.333 338.604 145.987 339.257 145.76C339.91 145.52 340.577 145.4 341.257 145.4C342.537 145.4 343.55 145.767 344.297 146.5C345.044 147.233 345.417 148.247 345.417 149.54V154.36C345.417 154.547 345.457 154.687 345.537 154.78C345.617 154.86 345.744 154.907 345.917 154.92V156C345.77 156.013 345.644 156.027 345.537 156.04C345.43 156.053 345.35 156.053 345.297 156.04C344.964 156.027 344.71 155.92 344.537 155.72C344.364 155.52 344.27 155.307 344.257 155.08L344.237 154.32C343.77 154.92 343.164 155.387 342.417 155.72C341.67 156.04 340.91 156.2 340.137 156.2C339.47 156.2 338.864 156.06 338.317 155.78C337.784 155.487 337.364 155.1 337.057 154.62C336.764 154.127 336.617 153.587 336.617 153ZM343.597 153.8C343.744 153.613 343.857 153.433 343.937 153.26C344.017 153.087 344.057 152.933 344.057 152.8V151.28C343.604 151.107 343.13 150.973 342.637 150.88C342.157 150.787 341.67 150.74 341.177 150.74C340.204 150.74 339.417 150.933 338.817 151.32C338.217 151.707 337.917 152.233 337.917 152.9C337.917 153.287 338.017 153.653 338.217 154C338.417 154.333 338.71 154.613 339.097 154.84C339.484 155.053 339.937 155.16 340.457 155.16C341.11 155.16 341.717 155.033 342.277 154.78C342.85 154.527 343.29 154.2 343.597 153.8ZM351.775 156.2C350.922 156.2 350.129 156.06 349.395 155.78C348.662 155.5 348.029 155.073 347.495 154.5L348.055 153.54C348.642 154.087 349.229 154.487 349.815 154.74C350.415 154.98 351.049 155.1 351.715 155.1C352.529 155.1 353.189 154.94 353.695 154.62C354.202 154.287 354.455 153.813 354.455 153.2C354.455 152.787 354.329 152.473 354.075 152.26C353.835 152.033 353.482 151.853 353.015 151.72C352.562 151.573 352.015 151.42 351.375 151.26C350.655 151.06 350.049 150.853 349.555 150.64C349.075 150.413 348.709 150.133 348.455 149.8C348.215 149.453 348.095 149.007 348.095 148.46C348.095 147.78 348.262 147.22 348.595 146.78C348.942 146.327 349.409 145.987 349.995 145.76C350.595 145.52 351.262 145.4 351.995 145.4C352.795 145.4 353.502 145.527 354.115 145.78C354.729 146.033 355.229 146.387 355.615 146.84L354.955 147.76C354.582 147.333 354.135 147.02 353.615 146.82C353.109 146.607 352.542 146.5 351.915 146.5C351.489 146.5 351.082 146.56 350.695 146.68C350.309 146.787 349.989 146.973 349.735 147.24C349.495 147.493 349.375 147.847 349.375 148.3C349.375 148.673 349.469 148.967 349.655 149.18C349.842 149.38 350.122 149.553 350.495 149.7C350.869 149.833 351.329 149.98 351.875 150.14C352.662 150.353 353.349 150.573 353.935 150.8C354.522 151.013 354.975 151.293 355.295 151.64C355.615 151.987 355.775 152.473 355.775 153.1C355.775 154.073 355.409 154.833 354.675 155.38C353.942 155.927 352.975 156.2 351.775 156.2ZM25.66 176C25.66 175.347 25.8467 174.787 26.22 174.32C26.5933 173.84 27.1067 173.473 27.76 173.22C28.4267 172.953 29.1933 172.82 30.06 172.82C30.5667 172.82 31.0933 172.86 31.64 172.94C32.1867 173.02 32.6733 173.14 33.1 173.3V172.42C33.1 171.54 32.84 170.84 32.32 170.32C31.8 169.8 31.08 169.54 30.16 169.54C29.6 169.54 29.0467 169.647 28.5 169.86C27.9667 170.06 27.4067 170.36 26.82 170.76L26.3 169.8C26.98 169.333 27.6467 168.987 28.3 168.76C28.9533 168.52 29.62 168.4 30.3 168.4C31.58 168.4 32.5933 168.767 33.34 169.5C34.0867 170.233 34.46 171.247 34.46 172.54V177.36C34.46 177.547 34.5 177.687 34.58 177.78C34.66 177.86 34.7867 177.907 34.96 177.92V179C34.8133 179.013 34.6867 179.027 34.58 179.04C34.4733 179.053 34.3933 179.053 34.34 179.04C34.0067 179.027 33.7533 178.92 33.58 178.72C33.4067 178.52 33.3133 178.307 33.3 178.08L33.28 177.32C32.8133 177.92 32.2067 178.387 31.46 178.72C30.7133 179.04 29.9533 179.2 29.18 179.2C28.5133 179.2 27.9067 179.06 27.36 178.78C26.8267 178.487 26.4067 178.1 26.1 177.62C25.8067 177.127 25.66 176.587 25.66 176ZM32.64 176.8C32.7867 176.613 32.9 176.433 32.98 176.26C33.06 176.087 33.1 175.933 33.1 175.8V174.28C32.6467 174.107 32.1733 173.973 31.68 173.88C31.2 173.787 30.7133 173.74 30.22 173.74C29.2467 173.74 28.46 173.933 27.86 174.32C27.26 174.707 26.96 175.233 26.96 175.9C26.96 176.287 27.06 176.653 27.26 177C27.46 177.333 27.7533 177.613 28.14 177.84C28.5267 178.053 28.98 178.16 29.5 178.16C30.1533 178.16 30.76 178.033 31.32 177.78C31.8933 177.527 32.3333 177.2 32.64 176.8ZM46.1584 179H44.7984V173.18C44.7984 171.953 44.6184 171.06 44.2584 170.5C43.8984 169.927 43.3318 169.64 42.5584 169.64C42.0251 169.64 41.4984 169.773 40.9784 170.04C40.4584 170.293 39.9984 170.647 39.5984 171.1C39.2118 171.54 38.9318 172.047 38.7584 172.62V179H37.3984V168.58H38.6384V170.94C38.9184 170.433 39.2851 169.993 39.7384 169.62C40.1918 169.233 40.7051 168.933 41.2784 168.72C41.8518 168.507 42.4451 168.4 43.0584 168.4C43.6318 168.4 44.1184 168.507 44.5184 168.72C44.9184 168.933 45.2384 169.24 45.4784 169.64C45.7184 170.027 45.8918 170.5 45.9984 171.06C46.1051 171.607 46.1584 172.22 46.1584 172.9V179ZM48.3586 173.82C48.3586 172.833 48.5586 171.933 48.9586 171.12C49.3719 170.293 49.9386 169.633 50.6586 169.14C51.3786 168.647 52.1986 168.4 53.1186 168.4C53.9853 168.4 54.7586 168.633 55.4386 169.1C56.1319 169.553 56.6719 170.107 57.0586 170.76V164.4H58.4186V177.36C58.4186 177.547 58.4586 177.687 58.5386 177.78C58.6186 177.86 58.7386 177.907 58.8986 177.92V179C58.6319 179.04 58.4253 179.053 58.2786 179.04C57.9986 179.027 57.7519 178.913 57.5386 178.7C57.3253 178.487 57.2186 178.253 57.2186 178V176.98C56.8053 177.66 56.2453 178.2 55.5386 178.6C54.8319 179 54.0986 179.2 53.3386 179.2C52.6186 179.2 51.9519 179.053 51.3386 178.76C50.7386 178.467 50.2119 178.067 49.7586 177.56C49.3186 177.053 48.9719 176.48 48.7186 175.84C48.4786 175.187 48.3586 174.513 48.3586 173.82ZM57.0586 175.42V172.2C56.8853 171.72 56.6053 171.287 56.2186 170.9C55.8319 170.5 55.3919 170.187 54.8986 169.96C54.4186 169.72 53.9386 169.6 53.4586 169.6C52.8986 169.6 52.3919 169.72 51.9386 169.96C51.4853 170.187 51.0919 170.5 50.7586 170.9C50.4386 171.3 50.1919 171.753 50.0186 172.26C49.8453 172.767 49.7586 173.287 49.7586 173.82C49.7586 174.38 49.8519 174.913 50.0386 175.42C50.2386 175.927 50.5186 176.38 50.8786 176.78C51.2386 177.167 51.6519 177.467 52.1186 177.68C52.5853 177.893 53.0919 178 53.6386 178C53.9853 178 54.3453 177.933 54.7186 177.8C55.0919 177.667 55.4453 177.487 55.7786 177.26C56.1253 177.02 56.4119 176.74 56.6386 176.42C56.8653 176.1 57.0053 175.767 57.0586 175.42ZM70.0177 179.2C69.1643 179.2 68.371 179.06 67.6377 178.78C66.9043 178.5 66.271 178.073 65.7377 177.5L66.2977 176.54C66.8843 177.087 67.471 177.487 68.0577 177.74C68.6577 177.98 69.291 178.1 69.9577 178.1C70.771 178.1 71.431 177.94 71.9377 177.62C72.4443 177.287 72.6977 176.813 72.6977 176.2C72.6977 175.787 72.571 175.473 72.3177 175.26C72.0777 175.033 71.7243 174.853 71.2577 174.72C70.8043 174.573 70.2577 174.42 69.6177 174.26C68.8977 174.06 68.291 173.853 67.7977 173.64C67.3177 173.413 66.951 173.133 66.6977 172.8C66.4577 172.453 66.3377 172.007 66.3377 171.46C66.3377 170.78 66.5043 170.22 66.8377 169.78C67.1843 169.327 67.651 168.987 68.2377 168.76C68.8377 168.52 69.5043 168.4 70.2377 168.4C71.0377 168.4 71.7443 168.527 72.3577 168.78C72.971 169.033 73.471 169.387 73.8577 169.84L73.1977 170.76C72.8243 170.333 72.3777 170.02 71.8577 169.82C71.351 169.607 70.7843 169.5 70.1577 169.5C69.731 169.5 69.3243 169.56 68.9377 169.68C68.551 169.787 68.231 169.973 67.9777 170.24C67.7377 170.493 67.6177 170.847 67.6177 171.3C67.6177 171.673 67.711 171.967 67.8977 172.18C68.0843 172.38 68.3643 172.553 68.7377 172.7C69.111 172.833 69.571 172.98 70.1177 173.14C70.9043 173.353 71.591 173.573 72.1777 173.8C72.7643 174.013 73.2177 174.293 73.5377 174.64C73.8577 174.987 74.0177 175.473 74.0177 176.1C74.0177 177.073 73.651 177.833 72.9177 178.38C72.1843 178.927 71.2177 179.2 70.0177 179.2ZM85.0256 179H83.6656V173.18C83.6656 172.007 83.459 171.127 83.0456 170.54C82.6323 169.94 82.039 169.64 81.2656 169.64C80.759 169.64 80.2523 169.773 79.7456 170.04C79.2523 170.293 78.8123 170.647 78.4256 171.1C78.0523 171.54 77.7856 172.047 77.6256 172.62V179H76.2656V164.4H77.6256V170.94C78.039 170.167 78.6123 169.553 79.3456 169.1C80.0923 168.633 80.8856 168.4 81.7256 168.4C82.3256 168.4 82.8323 168.507 83.2456 168.72C83.6723 168.933 84.0123 169.247 84.2656 169.66C84.5323 170.06 84.7256 170.533 84.8456 171.08C84.9656 171.613 85.0256 172.22 85.0256 172.9V179ZM87.0858 176C87.0858 175.347 87.2724 174.787 87.6458 174.32C88.0191 173.84 88.5324 173.473 89.1858 173.22C89.8524 172.953 90.6191 172.82 91.4858 172.82C91.9924 172.82 92.5191 172.86 93.0658 172.94C93.6124 173.02 94.0991 173.14 94.5258 173.3V172.42C94.5258 171.54 94.2658 170.84 93.7458 170.32C93.2258 169.8 92.5058 169.54 91.5858 169.54C91.0258 169.54 90.4724 169.647 89.9258 169.86C89.3924 170.06 88.8324 170.36 88.2458 170.76L87.7258 169.8C88.4058 169.333 89.0724 168.987 89.7258 168.76C90.3791 168.52 91.0458 168.4 91.7258 168.4C93.0058 168.4 94.0191 168.767 94.7658 169.5C95.5124 170.233 95.8858 171.247 95.8858 172.54V177.36C95.8858 177.547 95.9258 177.687 96.0058 177.78C96.0858 177.86 96.2124 177.907 96.3858 177.92V179C96.2391 179.013 96.1124 179.027 96.0058 179.04C95.8991 179.053 95.8191 179.053 95.7658 179.04C95.4324 179.027 95.1791 178.92 95.0058 178.72C94.8324 178.52 94.7391 178.307 94.7258 178.08L94.7058 177.32C94.2391 177.92 93.6324 178.387 92.8858 178.72C92.1391 179.04 91.3791 179.2 90.6058 179.2C89.9391 179.2 89.3324 179.06 88.7858 178.78C88.2524 178.487 87.8324 178.1 87.5258 177.62C87.2324 177.127 87.0858 176.587 87.0858 176ZM94.0658 176.8C94.2124 176.613 94.3258 176.433 94.4058 176.26C94.4858 176.087 94.5258 175.933 94.5258 175.8V174.28C94.0724 174.107 93.5991 173.973 93.1058 173.88C92.6258 173.787 92.1391 173.74 91.6458 173.74C90.6724 173.74 89.8858 173.933 89.2858 174.32C88.6858 174.707 88.3858 175.233 88.3858 175.9C88.3858 176.287 88.4858 176.653 88.6858 177C88.8858 177.333 89.1791 177.613 89.5658 177.84C89.9524 178.053 90.4058 178.16 90.9258 178.16C91.5791 178.16 92.1858 178.033 92.7458 177.78C93.3191 177.527 93.7591 177.2 94.0658 176.8ZM104.024 169.78C103.118 169.807 102.318 170.06 101.624 170.54C100.944 171.02 100.464 171.68 100.184 172.52V179H98.8242V168.58H100.104V171.08C100.464 170.347 100.938 169.753 101.524 169.3C102.124 168.847 102.758 168.593 103.424 168.54C103.558 168.527 103.671 168.52 103.764 168.52C103.871 168.52 103.958 168.527 104.024 168.54V169.78ZM110.004 179.2C109.257 179.2 108.564 179.06 107.924 178.78C107.284 178.487 106.731 178.093 106.264 177.6C105.797 177.093 105.431 176.513 105.164 175.86C104.911 175.207 104.784 174.507 104.784 173.76C104.784 172.787 105.004 171.893 105.444 171.08C105.897 170.267 106.517 169.62 107.304 169.14C108.091 168.647 108.984 168.4 109.984 168.4C111.011 168.4 111.904 168.647 112.664 169.14C113.437 169.633 114.044 170.287 114.484 171.1C114.924 171.9 115.144 172.78 115.144 173.74C115.144 173.847 115.144 173.953 115.144 174.06C115.144 174.153 115.137 174.227 115.124 174.28H106.204C106.271 175.027 106.477 175.693 106.824 176.28C107.184 176.853 107.644 177.313 108.204 177.66C108.777 177.993 109.397 178.16 110.064 178.16C110.744 178.16 111.384 177.987 111.984 177.64C112.597 177.293 113.024 176.84 113.264 176.28L114.444 176.6C114.231 177.093 113.904 177.54 113.464 177.94C113.024 178.34 112.504 178.653 111.904 178.88C111.317 179.093 110.684 179.2 110.004 179.2ZM106.164 173.3H113.864C113.811 172.54 113.604 171.873 113.244 171.3C112.897 170.727 112.437 170.28 111.864 169.96C111.304 169.627 110.684 169.46 110.004 169.46C109.324 169.46 108.704 169.627 108.144 169.96C107.584 170.28 107.124 170.733 106.764 171.32C106.417 171.893 106.217 172.553 106.164 173.3ZM127.34 178.5C127.233 178.54 127.067 178.613 126.84 178.72C126.613 178.827 126.34 178.92 126.02 179C125.7 179.08 125.353 179.12 124.98 179.12C124.593 179.12 124.227 179.047 123.88 178.9C123.547 178.753 123.28 178.533 123.08 178.24C122.88 177.933 122.78 177.56 122.78 177.12V169.66H121.34V168.58H122.78V165.06H124.14V168.58H126.54V169.66H124.14V176.74C124.167 177.113 124.3 177.393 124.54 177.58C124.793 177.767 125.08 177.86 125.4 177.86C125.773 177.86 126.113 177.8 126.42 177.68C126.727 177.547 126.913 177.453 126.98 177.4L127.34 178.5ZM137.799 179H136.439V173.18C136.439 172.007 136.232 171.127 135.819 170.54C135.406 169.94 134.812 169.64 134.039 169.64C133.532 169.64 133.026 169.773 132.519 170.04C132.026 170.293 131.586 170.647 131.199 171.1C130.826 171.54 130.559 172.047 130.399 172.62V179H129.039V164.4H130.399V170.94C130.812 170.167 131.386 169.553 132.119 169.1C132.866 168.633 133.659 168.4 134.499 168.4C135.099 168.4 135.606 168.507 136.019 168.72C136.446 168.933 136.786 169.247 137.039 169.66C137.306 170.06 137.499 170.533 137.619 171.08C137.739 171.613 137.799 172.22 137.799 172.9V179ZM145.199 179.2C144.453 179.2 143.759 179.06 143.119 178.78C142.479 178.487 141.926 178.093 141.459 177.6C140.993 177.093 140.626 176.513 140.359 175.86C140.106 175.207 139.979 174.507 139.979 173.76C139.979 172.787 140.199 171.893 140.639 171.08C141.093 170.267 141.713 169.62 142.499 169.14C143.286 168.647 144.179 168.4 145.179 168.4C146.206 168.4 147.099 168.647 147.859 169.14C148.633 169.633 149.239 170.287 149.679 171.1C150.119 171.9 150.339 172.78 150.339 173.74C150.339 173.847 150.339 173.953 150.339 174.06C150.339 174.153 150.333 174.227 150.319 174.28H141.399C141.466 175.027 141.673 175.693 142.019 176.28C142.379 176.853 142.839 177.313 143.399 177.66C143.973 177.993 144.593 178.16 145.259 178.16C145.939 178.16 146.579 177.987 147.179 177.64C147.793 177.293 148.219 176.84 148.459 176.28L149.639 176.6C149.426 177.093 149.099 177.54 148.659 177.94C148.219 178.34 147.699 178.653 147.099 178.88C146.513 179.093 145.879 179.2 145.199 179.2ZM141.359 173.3H149.059C149.006 172.54 148.799 171.873 148.439 171.3C148.093 170.727 147.633 170.28 147.059 169.96C146.499 169.627 145.879 169.46 145.199 169.46C144.519 169.46 143.899 169.627 143.339 169.96C142.779 170.28 142.319 170.733 141.959 171.32C141.613 171.893 141.413 172.553 141.359 173.3ZM164.975 179L161.115 173.66L158.895 175.74V179H157.535V164.4H158.895V174.28L164.795 168.6H166.295L162.035 172.86L166.455 179H164.975ZM176.901 179H175.541V173.18C175.541 171.953 175.361 171.06 175.001 170.5C174.641 169.927 174.074 169.64 173.301 169.64C172.767 169.64 172.241 169.773 171.721 170.04C171.201 170.293 170.741 170.647 170.341 171.1C169.954 171.54 169.674 172.047 169.501 172.62V179H168.141V168.58H169.381V170.94C169.661 170.433 170.027 169.993 170.481 169.62C170.934 169.233 171.447 168.933 172.021 168.72C172.594 168.507 173.187 168.4 173.801 168.4C174.374 168.4 174.861 168.507 175.261 168.72C175.661 168.933 175.981 169.24 176.221 169.64C176.461 170.027 176.634 170.5 176.741 171.06C176.847 171.607 176.901 172.22 176.901 172.9V179ZM184.241 179.2C183.494 179.2 182.801 179.06 182.161 178.78C181.534 178.487 180.987 178.093 180.521 177.6C180.067 177.093 179.714 176.52 179.461 175.88C179.207 175.227 179.081 174.54 179.081 173.82C179.081 173.073 179.207 172.38 179.461 171.74C179.714 171.087 180.074 170.513 180.541 170.02C181.007 169.513 181.554 169.12 182.181 168.84C182.821 168.547 183.514 168.4 184.261 168.4C185.007 168.4 185.694 168.547 186.321 168.84C186.947 169.12 187.494 169.513 187.961 170.02C188.427 170.513 188.787 171.087 189.041 171.74C189.294 172.38 189.421 173.073 189.421 173.82C189.421 174.54 189.294 175.227 189.041 175.88C188.787 176.52 188.427 177.093 187.961 177.6C187.507 178.093 186.961 178.487 186.321 178.78C185.694 179.06 185.001 179.2 184.241 179.2ZM180.461 173.84C180.461 174.613 180.627 175.32 180.961 175.96C181.307 176.587 181.767 177.087 182.341 177.46C182.914 177.82 183.547 178 184.241 178C184.934 178 185.567 177.813 186.141 177.44C186.714 177.067 187.174 176.56 187.521 175.92C187.867 175.267 188.041 174.56 188.041 173.8C188.041 173.027 187.867 172.32 187.521 171.68C187.174 171.04 186.714 170.533 186.141 170.16C185.567 169.787 184.934 169.6 184.241 169.6C183.547 169.6 182.914 169.793 182.341 170.18C181.781 170.567 181.327 171.08 180.981 171.72C180.634 172.347 180.461 173.053 180.461 173.84ZM204.464 168.58H205.804L201.324 179H200.144L197.964 173.82L195.804 179H194.624L190.144 168.58H191.464L195.264 177.6L197.184 172.9L195.424 168.6H196.644L197.964 171.98L199.304 168.6H200.504L198.764 172.9L200.684 177.6L204.464 168.58ZM207.159 174.18V172.92H212.999V174.18H207.159ZM224.557 179H223.197V173.18C223.197 172.007 222.99 171.127 222.577 170.54C222.164 169.94 221.57 169.64 220.797 169.64C220.29 169.64 219.784 169.773 219.277 170.04C218.784 170.293 218.344 170.647 217.957 171.1C217.584 171.54 217.317 172.047 217.157 172.62V179H215.797V164.4H217.157V170.94C217.57 170.167 218.144 169.553 218.877 169.1C219.624 168.633 220.417 168.4 221.257 168.4C221.857 168.4 222.364 168.507 222.777 168.72C223.204 168.933 223.544 169.247 223.797 169.66C224.064 170.06 224.257 170.533 224.377 171.08C224.497 171.613 224.557 172.22 224.557 172.9V179ZM231.897 179.2C231.15 179.2 230.457 179.06 229.817 178.78C229.19 178.487 228.644 178.093 228.177 177.6C227.724 177.093 227.37 176.52 227.117 175.88C226.864 175.227 226.737 174.54 226.737 173.82C226.737 173.073 226.864 172.38 227.117 171.74C227.37 171.087 227.73 170.513 228.197 170.02C228.664 169.513 229.21 169.12 229.837 168.84C230.477 168.547 231.17 168.4 231.917 168.4C232.664 168.4 233.35 168.547 233.977 168.84C234.604 169.12 235.15 169.513 235.617 170.02C236.084 170.513 236.444 171.087 236.697 171.74C236.95 172.38 237.077 173.073 237.077 173.82C237.077 174.54 236.95 175.227 236.697 175.88C236.444 176.52 236.084 177.093 235.617 177.6C235.164 178.093 234.617 178.487 233.977 178.78C233.35 179.06 232.657 179.2 231.897 179.2ZM228.117 173.84C228.117 174.613 228.284 175.32 228.617 175.96C228.964 176.587 229.424 177.087 229.997 177.46C230.57 177.82 231.204 178 231.897 178C232.59 178 233.224 177.813 233.797 177.44C234.37 177.067 234.83 176.56 235.177 175.92C235.524 175.267 235.697 174.56 235.697 173.8C235.697 173.027 235.524 172.32 235.177 171.68C234.83 171.04 234.37 170.533 233.797 170.16C233.224 169.787 232.59 169.6 231.897 169.6C231.204 169.6 230.57 169.793 229.997 170.18C229.437 170.567 228.984 171.08 228.637 171.72C228.29 172.347 228.117 173.053 228.117 173.84ZM252.12 168.58H253.46L248.98 179H247.8L245.62 173.82L243.46 179H242.28L237.8 168.58H239.12L242.92 177.6L244.84 172.9L243.08 168.6H244.3L245.62 171.98L246.96 168.6H248.16L246.42 172.9L248.34 177.6L252.12 168.58ZM272.354 168.58H273.694L269.214 179H268.034L265.854 173.82L263.694 179H262.514L258.034 168.58H259.354L263.154 177.6L265.074 172.9L263.314 168.6H264.534L265.854 171.98L267.194 168.6H268.394L266.654 172.9L268.574 177.6L272.354 168.58ZM275.504 179V168.58H276.864V179H275.504ZM275.504 166.4V164.4H276.864V166.4H275.504ZM284.859 178.5C284.753 178.54 284.586 178.613 284.359 178.72C284.133 178.827 283.859 178.92 283.539 179C283.219 179.08 282.873 179.12 282.499 179.12C282.113 179.12 281.746 179.047 281.399 178.9C281.066 178.753 280.799 178.533 280.599 178.24C280.399 177.933 280.299 177.56 280.299 177.12V169.66H278.859V168.58H280.299V165.06H281.659V168.58H284.059V169.66H281.659V176.74C281.686 177.113 281.819 177.393 282.059 177.58C282.313 177.767 282.599 177.86 282.919 177.86C283.293 177.86 283.633 177.8 283.939 177.68C284.246 177.547 284.433 177.453 284.499 177.4L284.859 178.5ZM295.319 179H293.959V173.18C293.959 172.007 293.752 171.127 293.339 170.54C292.925 169.94 292.332 169.64 291.559 169.64C291.052 169.64 290.545 169.773 290.039 170.04C289.545 170.293 289.105 170.647 288.719 171.1C288.345 171.54 288.079 172.047 287.919 172.62V179H286.559V164.4H287.919V170.94C288.332 170.167 288.905 169.553 289.639 169.1C290.385 168.633 291.179 168.4 292.019 168.4C292.619 168.4 293.125 168.507 293.539 168.72C293.965 168.933 294.305 169.247 294.559 169.66C294.825 170.06 295.019 170.533 295.139 171.08C295.259 171.613 295.319 172.22 295.319 172.9V179ZM308.316 178.5C308.21 178.54 308.043 178.613 307.816 178.72C307.59 178.827 307.316 178.92 306.996 179C306.676 179.08 306.33 179.12 305.956 179.12C305.57 179.12 305.203 179.047 304.856 178.9C304.523 178.753 304.256 178.533 304.056 178.24C303.856 177.933 303.756 177.56 303.756 177.12V169.66H302.316V168.58H303.756V165.06H305.116V168.58H307.516V169.66H305.116V176.74C305.143 177.113 305.276 177.393 305.516 177.58C305.77 177.767 306.056 177.86 306.376 177.86C306.75 177.86 307.09 177.8 307.396 177.68C307.703 177.547 307.89 177.453 307.956 177.4L308.316 178.5ZM318.776 179H317.416V173.18C317.416 172.007 317.209 171.127 316.796 170.54C316.382 169.94 315.789 169.64 315.016 169.64C314.509 169.64 314.002 169.773 313.496 170.04C313.002 170.293 312.562 170.647 312.176 171.1C311.802 171.54 311.536 172.047 311.376 172.62V179H310.016V164.4H311.376V170.94C311.789 170.167 312.362 169.553 313.096 169.1C313.842 168.633 314.636 168.4 315.476 168.4C316.076 168.4 316.582 168.507 316.996 168.72C317.422 168.933 317.762 169.247 318.016 169.66C318.282 170.06 318.476 170.533 318.596 171.08C318.716 171.613 318.776 172.22 318.776 172.9V179ZM326.176 179.2C325.429 179.2 324.736 179.06 324.096 178.78C323.456 178.487 322.902 178.093 322.436 177.6C321.969 177.093 321.602 176.513 321.336 175.86C321.082 175.207 320.956 174.507 320.956 173.76C320.956 172.787 321.176 171.893 321.616 171.08C322.069 170.267 322.689 169.62 323.476 169.14C324.262 168.647 325.156 168.4 326.156 168.4C327.182 168.4 328.076 168.647 328.836 169.14C329.609 169.633 330.216 170.287 330.656 171.1C331.096 171.9 331.316 172.78 331.316 173.74C331.316 173.847 331.316 173.953 331.316 174.06C331.316 174.153 331.309 174.227 331.296 174.28H322.376C322.442 175.027 322.649 175.693 322.996 176.28C323.356 176.853 323.816 177.313 324.376 177.66C324.949 177.993 325.569 178.16 326.236 178.16C326.916 178.16 327.556 177.987 328.156 177.64C328.769 177.293 329.196 176.84 329.436 176.28L330.616 176.6C330.402 177.093 330.076 177.54 329.636 177.94C329.196 178.34 328.676 178.653 328.076 178.88C327.489 179.093 326.856 179.2 326.176 179.2ZM322.336 173.3H330.036C329.982 172.54 329.776 171.873 329.416 171.3C329.069 170.727 328.609 170.28 328.036 169.96C327.476 169.627 326.856 169.46 326.176 169.46C325.496 169.46 324.876 169.627 324.316 169.96C323.756 170.28 323.296 170.733 322.936 171.32C322.589 171.893 322.389 172.553 322.336 173.3ZM348.914 179H347.554V173.18C347.554 171.967 347.361 171.073 346.974 170.5C346.587 169.927 346.014 169.64 345.254 169.64C344.467 169.64 343.761 169.92 343.134 170.48C342.521 171.04 342.087 171.76 341.834 172.64V179H340.474V173.18C340.474 171.953 340.287 171.06 339.914 170.5C339.541 169.927 338.967 169.64 338.194 169.64C337.421 169.64 336.721 169.913 336.094 170.46C335.467 171.007 335.027 171.727 334.774 172.62V179H333.414V168.58H334.654V170.94C335.094 170.127 335.654 169.5 336.334 169.06C337.027 168.62 337.794 168.4 338.634 168.4C339.501 168.4 340.201 168.647 340.734 169.14C341.267 169.633 341.594 170.28 341.714 171.08C342.194 170.2 342.767 169.533 343.434 169.08C344.114 168.627 344.881 168.4 345.734 168.4C346.321 168.4 346.814 168.507 347.214 168.72C347.627 168.933 347.954 169.24 348.194 169.64C348.447 170.027 348.627 170.5 348.734 171.06C348.854 171.607 348.914 172.22 348.914 172.9V179Z" fill="#0022D5"/>
</svg>
