<svg width="412" height="206" viewBox="0 0 412 206" fill="none" xmlns="http://www.w3.org/2000/svg">
<rect y="12" width="293" height="37" fill="white"/>
<rect y="59" width="329" height="37" fill="white"/>
<rect y="126" width="376" height="80" fill="white"/>
<path d="M39.496 41.48C37.608 41.48 35.88 41.144 34.312 40.472C32.776 39.768 31.432 38.808 30.28 37.592C29.16 36.376 28.28 34.984 27.64 33.416C27.032 31.848 26.728 30.184 26.728 28.424C26.728 26.056 27.256 23.896 28.312 21.944C29.368 19.992 30.856 18.44 32.776 17.288C34.696 16.104 36.92 15.512 39.448 15.512C41.912 15.512 44.056 16.072 45.88 17.192C47.736 18.28 49.112 19.752 50.008 21.608L45.88 22.904C45.24 21.72 44.344 20.808 43.192 20.168C42.04 19.496 40.76 19.16 39.352 19.16C37.816 19.16 36.408 19.56 35.128 20.36C33.88 21.16 32.888 22.264 32.152 23.672C31.416 25.048 31.048 26.632 31.048 28.424C31.048 30.184 31.416 31.784 32.152 33.224C32.92 34.632 33.928 35.752 35.176 36.584C36.456 37.416 37.864 37.832 39.4 37.832C40.392 37.832 41.336 37.656 42.232 37.304C43.16 36.952 43.96 36.488 44.632 35.912C45.336 35.304 45.816 34.648 46.072 33.944L50.2 35.192C49.688 36.408 48.904 37.496 47.848 38.456C46.824 39.384 45.592 40.12 44.152 40.664C42.744 41.208 41.192 41.48 39.496 41.48ZM65.6958 41.48C63.8078 41.48 62.0958 41.144 60.5598 40.472C59.0238 39.768 57.6958 38.824 56.5758 37.64C55.4558 36.424 54.5918 35.032 53.9838 33.464C53.3758 31.896 53.0718 30.248 53.0718 28.52C53.0718 26.76 53.3758 25.096 53.9838 23.528C54.5918 21.96 55.4558 20.584 56.5758 19.4C57.6958 18.184 59.0238 17.24 60.5598 16.568C62.1278 15.864 63.8398 15.512 65.6958 15.512C67.5838 15.512 69.2958 15.864 70.8318 16.568C72.3678 17.24 73.6958 18.184 74.8158 19.4C75.9678 20.584 76.8478 21.96 77.4558 23.528C78.0638 25.096 78.3678 26.76 78.3678 28.52C78.3678 30.248 78.0638 31.896 77.4558 33.464C76.8478 35.032 75.9838 36.424 74.8638 37.64C73.7438 38.824 72.3998 39.768 70.8318 40.472C69.2958 41.144 67.5838 41.48 65.6958 41.48ZM57.3918 28.568C57.3918 30.296 57.7598 31.864 58.4958 33.272C59.2638 34.68 60.2718 35.8 61.5198 36.632C62.7678 37.432 64.1598 37.832 65.6958 37.832C67.2318 37.832 68.6238 37.416 69.8718 36.584C71.1518 35.752 72.1598 34.632 72.8958 33.224C73.6638 31.784 74.0478 30.2 74.0478 28.472C74.0478 26.744 73.6638 25.176 72.8958 23.768C72.1598 22.36 71.1518 21.24 69.8718 20.408C68.6238 19.576 67.2318 19.16 65.6958 19.16C64.1598 19.16 62.7678 19.592 61.5198 20.456C60.2718 21.288 59.2638 22.408 58.4958 23.816C57.7598 25.224 57.3918 26.808 57.3918 28.568ZM105.23 41H101.006V26.984C101.006 24.328 100.59 22.392 99.7581 21.176C98.9581 19.928 97.7261 19.304 96.0621 19.304C94.9101 19.304 93.7581 19.592 92.6061 20.168C91.4861 20.744 90.4781 21.528 89.5821 22.52C88.7181 23.48 88.0941 24.6 87.7101 25.88V41H83.4861V15.944H87.3261V21.32C87.9981 20.136 88.8621 19.112 89.9181 18.248C90.9741 17.384 92.1741 16.712 93.5181 16.232C94.8621 15.752 96.2701 15.512 97.7421 15.512C99.1821 15.512 100.382 15.784 101.342 16.328C102.334 16.84 103.102 17.576 103.646 18.536C104.222 19.464 104.622 20.568 104.846 21.848C105.102 23.128 105.23 24.52 105.23 26.024V41ZM124.524 39.752C124.172 39.912 123.692 40.12 123.084 40.376C122.476 40.632 121.772 40.856 120.972 41.048C120.172 41.24 119.324 41.336 118.428 41.336C117.404 41.336 116.46 41.16 115.596 40.808C114.732 40.424 114.044 39.848 113.532 39.08C113.02 38.28 112.764 37.288 112.764 36.104V19.256H109.356V15.944H112.764V7.592H116.988V15.944H122.604V19.256H116.988V34.808C117.052 35.704 117.356 36.376 117.9 36.824C118.444 37.24 119.084 37.448 119.82 37.448C120.652 37.448 121.42 37.304 122.124 37.016C122.828 36.728 123.292 36.52 123.516 36.392L124.524 39.752ZM126.471 33.752C126.471 32.152 126.919 30.776 127.815 29.624C128.743 28.44 130.007 27.528 131.607 26.888C133.207 26.248 135.063 25.928 137.175 25.928C138.295 25.928 139.479 26.024 140.727 26.216C141.975 26.376 143.079 26.632 144.039 26.984V25.16C144.039 23.24 143.463 21.736 142.311 20.648C141.159 19.528 139.527 18.968 137.415 18.968C136.039 18.968 134.711 19.224 133.431 19.736C132.183 20.216 130.855 20.92 129.447 21.848L127.911 18.872C129.543 17.752 131.175 16.92 132.807 16.376C134.439 15.8 136.135 15.512 137.895 15.512C141.095 15.512 143.623 16.408 145.479 18.2C147.335 19.96 148.263 22.424 148.263 25.592V36.2C148.263 36.712 148.359 37.096 148.551 37.352C148.775 37.576 149.127 37.704 149.607 37.736V41C149.191 41.064 148.823 41.112 148.503 41.144C148.215 41.176 147.975 41.192 147.783 41.192C146.791 41.192 146.039 40.92 145.527 40.376C145.047 39.832 144.775 39.256 144.711 38.648L144.615 37.064C143.527 38.472 142.103 39.56 140.343 40.328C138.583 41.096 136.839 41.48 135.111 41.48C133.447 41.48 131.959 41.144 130.647 40.472C129.335 39.768 128.311 38.84 127.575 37.688C126.839 36.504 126.471 35.192 126.471 33.752ZM142.791 35.528C143.175 35.08 143.479 34.632 143.703 34.184C143.927 33.704 144.039 33.304 144.039 32.984V29.864C143.047 29.48 142.007 29.192 140.919 29C139.831 28.776 138.759 28.664 137.703 28.664C135.559 28.664 133.815 29.096 132.471 29.96C131.159 30.792 130.503 31.944 130.503 33.416C130.503 34.216 130.711 35 131.127 35.768C131.575 36.504 132.215 37.112 133.047 37.592C133.911 38.072 134.967 38.312 136.215 38.312C137.527 38.312 138.775 38.056 139.959 37.544C141.143 37 142.087 36.328 142.791 35.528ZM166.105 41.48C164.217 41.48 162.489 41.144 160.921 40.472C159.385 39.768 158.041 38.808 156.889 37.592C155.769 36.376 154.889 34.984 154.249 33.416C153.641 31.848 153.337 30.184 153.337 28.424C153.337 26.056 153.865 23.896 154.921 21.944C155.977 19.992 157.465 18.44 159.385 17.288C161.305 16.104 163.529 15.512 166.057 15.512C168.521 15.512 170.665 16.072 172.489 17.192C174.345 18.28 175.721 19.752 176.617 21.608L172.489 22.904C171.849 21.72 170.953 20.808 169.801 20.168C168.649 19.496 167.369 19.16 165.961 19.16C164.425 19.16 163.017 19.56 161.737 20.36C160.489 21.16 159.497 22.264 158.761 23.672C158.025 25.048 157.657 26.632 157.657 28.424C157.657 30.184 158.025 31.784 158.761 33.224C159.529 34.632 160.537 35.752 161.785 36.584C163.065 37.416 164.473 37.832 166.009 37.832C167.001 37.832 167.945 37.656 168.841 37.304C169.769 36.952 170.569 36.488 171.241 35.912C171.945 35.304 172.425 34.648 172.681 33.944L176.809 35.192C176.297 36.408 175.513 37.496 174.457 38.456C173.433 39.384 172.201 40.12 170.761 40.664C169.353 41.208 167.801 41.48 166.105 41.48ZM194.556 39.752C194.204 39.912 193.724 40.12 193.116 40.376C192.508 40.632 191.804 40.856 191.004 41.048C190.204 41.24 189.356 41.336 188.46 41.336C187.436 41.336 186.492 41.16 185.628 40.808C184.764 40.424 184.076 39.848 183.564 39.08C183.052 38.28 182.796 37.288 182.796 36.104V19.256H179.388V15.944H182.796V7.592H187.02V15.944H192.636V19.256H187.02V34.808C187.084 35.704 187.388 36.376 187.932 36.824C188.476 37.24 189.116 37.448 189.852 37.448C190.684 37.448 191.452 37.304 192.156 37.016C192.86 36.728 193.324 36.52 193.548 36.392L194.556 39.752ZM240.644 15.944H244.724L234.068 41H230.372L225.524 29.192L220.724 41H217.028L206.372 15.944H210.404L219.044 36.824L223.076 26.552L218.852 15.992H222.548L225.524 23.96L228.5 15.992H232.196L228.02 26.552L232.052 36.824L240.644 15.944ZM248.674 41V15.944H252.898V41H248.674ZM248.674 11.24V5.96H252.898V11.24H248.674ZM272.696 39.752C272.344 39.912 271.864 40.12 271.256 40.376C270.648 40.632 269.944 40.856 269.144 41.048C268.344 41.24 267.496 41.336 266.6 41.336C265.576 41.336 264.632 41.16 263.768 40.808C262.904 40.424 262.216 39.848 261.704 39.08C261.192 38.28 260.936 37.288 260.936 36.104V19.256H257.528V15.944H260.936V7.592H265.16V15.944H270.776V19.256H265.16V34.808C265.224 35.704 265.528 36.376 266.072 36.824C266.616 37.24 267.256 37.448 267.992 37.448C268.824 37.448 269.592 37.304 270.296 37.016C271 36.728 271.464 36.52 271.688 36.392L272.696 39.752ZM298.355 41H294.131V26.984C294.131 24.424 293.667 22.504 292.739 21.224C291.843 19.944 290.547 19.304 288.851 19.304C287.763 19.304 286.659 19.592 285.539 20.168C284.451 20.744 283.491 21.528 282.659 22.52C281.827 23.48 281.219 24.6 280.835 25.88V41H276.611V5.96H280.835V21.32C281.827 19.528 283.171 18.12 284.867 17.096C286.595 16.04 288.451 15.512 290.435 15.512C291.939 15.512 293.187 15.784 294.179 16.328C295.203 16.84 296.019 17.576 296.627 18.536C297.235 19.496 297.667 20.616 297.923 21.896C298.211 23.144 298.355 24.52 298.355 26.024V41ZM29.56 95.816C29.976 95.848 30.392 95.88 30.808 95.912C31.224 95.976 31.544 96.008 31.768 96.008C32.28 96.008 32.728 95.832 33.112 95.48C33.496 95.128 33.912 94.44 34.36 93.416C34.84 92.424 35.448 90.952 36.184 89L25.576 63.944H30.04L38.488 84.728L46.12 63.944H50.296L38.104 95.576C37.816 96.312 37.384 97 36.808 97.64C36.264 98.312 35.56 98.84 34.696 99.224C33.832 99.608 32.792 99.8 31.576 99.8C31.288 99.8 30.984 99.784 30.664 99.752C30.376 99.72 30.008 99.656 29.56 99.56V95.816ZM64.6176 89.48C62.7296 89.48 61.0176 89.144 59.4816 88.472C57.9456 87.768 56.6176 86.824 55.4976 85.64C54.3776 84.424 53.5136 83.032 52.9056 81.464C52.2976 79.896 51.9936 78.248 51.9936 76.52C51.9936 74.76 52.2976 73.096 52.9056 71.528C53.5136 69.96 54.3776 68.584 55.4976 67.4C56.6176 66.184 57.9456 65.24 59.4816 64.568C61.0496 63.864 62.7616 63.512 64.6176 63.512C66.5056 63.512 68.2176 63.864 69.7536 64.568C71.2896 65.24 72.6176 66.184 73.7376 67.4C74.8896 68.584 75.7696 69.96 76.3776 71.528C76.9856 73.096 77.2896 74.76 77.2896 76.52C77.2896 78.248 76.9856 79.896 76.3776 81.464C75.7696 83.032 74.9056 84.424 73.7856 85.64C72.6656 86.824 71.3216 87.768 69.7536 88.472C68.2176 89.144 66.5056 89.48 64.6176 89.48ZM56.3136 76.568C56.3136 78.296 56.6816 79.864 57.4176 81.272C58.1856 82.68 59.1936 83.8 60.4416 84.632C61.6896 85.432 63.0816 85.832 64.6176 85.832C66.1536 85.832 67.5456 85.416 68.7936 84.584C70.0736 83.752 71.0816 82.632 71.8176 81.224C72.5856 79.784 72.9696 78.2 72.9696 76.472C72.9696 74.744 72.5856 73.176 71.8176 71.768C71.0816 70.36 70.0736 69.24 68.7936 68.408C67.5456 67.576 66.1536 67.16 64.6176 67.16C63.0816 67.16 61.6896 67.592 60.4416 68.456C59.1936 69.288 58.1856 70.408 57.4176 71.816C56.6816 73.224 56.3136 74.808 56.3136 76.568ZM82.168 78.968V63.944H86.392V78.152C86.392 80.712 86.84 82.632 87.736 83.912C88.632 85.192 89.96 85.832 91.72 85.832C92.872 85.832 93.976 85.592 95.032 85.112C96.12 84.6 97.096 83.88 97.96 82.952C98.824 82.024 99.496 80.92 99.976 79.64V63.944H104.2V84.2C104.2 84.712 104.296 85.096 104.488 85.352C104.712 85.576 105.064 85.704 105.544 85.736V89C105.064 89.064 104.68 89.096 104.392 89.096C104.136 89.128 103.88 89.144 103.624 89.144C102.824 89.144 102.136 88.904 101.56 88.424C100.984 87.912 100.68 87.288 100.648 86.552L100.552 83.624C99.464 85.48 97.992 86.92 96.136 87.944C94.312 88.968 92.312 89.48 90.136 89.48C87.512 89.48 85.528 88.6 84.184 86.84C82.84 85.048 82.168 82.424 82.168 78.968ZM132.98 89H128.756V74.984C128.756 72.328 128.34 70.392 127.508 69.176C126.708 67.928 125.476 67.304 123.812 67.304C122.66 67.304 121.508 67.592 120.356 68.168C119.236 68.744 118.228 69.528 117.332 70.52C116.468 71.48 115.844 72.6 115.46 73.88V89H111.236V63.944H115.076V69.32C115.748 68.136 116.612 67.112 117.668 66.248C118.724 65.384 119.924 64.712 121.268 64.232C122.612 63.752 124.02 63.512 125.492 63.512C126.932 63.512 128.132 63.784 129.092 64.328C130.084 64.84 130.852 65.576 131.396 66.536C131.972 67.464 132.372 68.568 132.596 69.848C132.852 71.128 132.98 72.52 132.98 74.024V89ZM149.533 89.288C147.837 89.288 146.269 88.952 144.829 88.28C143.421 87.576 142.205 86.632 141.181 85.448C140.157 84.232 139.357 82.856 138.781 81.32C138.237 79.784 137.965 78.184 137.965 76.52C137.965 74.76 138.237 73.096 138.781 71.528C139.357 69.96 140.157 68.584 141.181 67.4C142.237 66.184 143.469 65.24 144.877 64.568C146.285 63.864 147.853 63.512 149.581 63.512C151.661 63.512 153.469 64.024 155.005 65.048C156.573 66.072 157.885 67.368 158.941 68.936V63.944H162.685V88.712C162.685 91.08 162.109 93.08 160.957 94.712C159.837 96.344 158.301 97.576 156.349 98.408C154.429 99.272 152.285 99.704 149.917 99.704C147.101 99.704 144.797 99.208 143.005 98.216C141.213 97.224 139.725 95.88 138.541 94.184L140.989 92.024C141.981 93.496 143.261 94.6 144.829 95.336C146.429 96.072 148.125 96.44 149.917 96.44C151.453 96.44 152.861 96.152 154.141 95.576C155.453 95.032 156.493 94.184 157.261 93.032C158.061 91.88 158.461 90.44 158.461 88.712V84.296C157.533 85.832 156.253 87.048 154.621 87.944C153.021 88.84 151.325 89.288 149.533 89.288ZM150.829 85.832C151.725 85.832 152.589 85.672 153.421 85.352C154.253 85.032 155.021 84.616 155.725 84.104C156.429 83.56 157.021 82.952 157.501 82.28C157.981 81.608 158.301 80.92 158.461 80.216V73.016C158.013 71.864 157.373 70.856 156.541 69.992C155.709 69.096 154.765 68.408 153.709 67.928C152.653 67.416 151.565 67.16 150.445 67.16C149.165 67.16 148.013 67.432 146.989 67.976C145.997 68.52 145.149 69.256 144.445 70.184C143.741 71.08 143.197 72.088 142.813 73.208C142.429 74.328 142.237 75.464 142.237 76.616C142.237 77.864 142.461 79.048 142.909 80.168C143.357 81.256 143.965 82.232 144.733 83.096C145.501 83.96 146.413 84.632 147.469 85.112C148.525 85.592 149.645 85.832 150.829 85.832ZM195.13 89.48C193.082 89.48 191.258 88.968 189.658 87.944C188.058 86.92 186.794 85.624 185.866 84.056V99.224H181.642V63.944H185.386V68.648C186.378 67.112 187.674 65.88 189.274 64.952C190.874 63.992 192.618 63.512 194.506 63.512C196.234 63.512 197.818 63.864 199.258 64.568C200.698 65.272 201.946 66.232 203.002 67.448C204.058 68.664 204.874 70.056 205.45 71.624C206.058 73.16 206.362 74.776 206.362 76.472C206.362 78.84 205.882 81.016 204.922 83C203.994 84.984 202.682 86.568 200.986 87.752C199.29 88.904 197.338 89.48 195.13 89.48ZM193.834 85.832C195.082 85.832 196.202 85.576 197.194 85.064C198.218 84.52 199.082 83.816 199.786 82.952C200.522 82.056 201.082 81.048 201.466 79.928C201.85 78.808 202.042 77.656 202.042 76.472C202.042 75.224 201.818 74.04 201.37 72.92C200.954 71.8 200.346 70.808 199.546 69.944C198.778 69.08 197.866 68.408 196.81 67.928C195.786 67.416 194.666 67.16 193.45 67.16C192.682 67.16 191.882 67.304 191.05 67.592C190.25 67.88 189.482 68.296 188.746 68.84C188.01 69.352 187.386 69.944 186.874 70.616C186.362 71.288 186.026 72.008 185.866 72.776V79.928C186.346 81.016 186.986 82.008 187.786 82.904C188.586 83.8 189.514 84.52 190.57 85.064C191.626 85.576 192.714 85.832 193.834 85.832ZM222.637 89.48C220.749 89.48 219.021 89.144 217.453 88.472C215.917 87.768 214.573 86.824 213.421 85.64C212.301 84.424 211.421 83.032 210.781 81.464C210.173 79.896 209.869 78.232 209.869 76.472C209.869 74.104 210.413 71.944 211.501 69.992C212.589 68.04 214.093 66.472 216.013 65.288C217.965 64.104 220.189 63.512 222.685 63.512C225.213 63.512 227.405 64.12 229.261 65.336C231.149 66.52 232.605 68.088 233.629 70.04C234.685 71.96 235.213 74.04 235.213 76.28C235.213 76.6 235.197 76.92 235.165 77.24C235.165 77.528 235.149 77.752 235.117 77.912H214.333C214.461 79.544 214.909 81 215.677 82.28C216.477 83.528 217.501 84.52 218.749 85.256C219.997 85.96 221.341 86.312 222.781 86.312C224.317 86.312 225.757 85.928 227.101 85.16C228.477 84.392 229.421 83.384 229.933 82.136L233.581 83.144C233.037 84.36 232.221 85.448 231.133 86.408C230.077 87.368 228.813 88.12 227.341 88.664C225.901 89.208 224.333 89.48 222.637 89.48ZM214.189 74.984H231.277C231.149 73.352 230.685 71.912 229.885 70.664C229.085 69.416 228.061 68.44 226.813 67.736C225.565 67.032 224.189 66.68 222.685 66.68C221.213 66.68 219.853 67.032 218.605 67.736C217.357 68.44 216.333 69.416 215.533 70.664C214.765 71.912 214.317 73.352 214.189 74.984ZM250.852 89.48C248.964 89.48 247.252 89.144 245.716 88.472C244.18 87.768 242.852 86.824 241.732 85.64C240.612 84.424 239.748 83.032 239.14 81.464C238.532 79.896 238.228 78.248 238.228 76.52C238.228 74.76 238.532 73.096 239.14 71.528C239.748 69.96 240.612 68.584 241.732 67.4C242.852 66.184 244.18 65.24 245.716 64.568C247.284 63.864 248.996 63.512 250.852 63.512C252.74 63.512 254.452 63.864 255.988 64.568C257.524 65.24 258.852 66.184 259.972 67.4C261.124 68.584 262.004 69.96 262.612 71.528C263.22 73.096 263.524 74.76 263.524 76.52C263.524 78.248 263.22 79.896 262.612 81.464C262.004 83.032 261.14 84.424 260.02 85.64C258.9 86.824 257.556 87.768 255.988 88.472C254.452 89.144 252.74 89.48 250.852 89.48ZM242.548 76.568C242.548 78.296 242.916 79.864 243.652 81.272C244.42 82.68 245.428 83.8 246.676 84.632C247.924 85.432 249.316 85.832 250.852 85.832C252.388 85.832 253.78 85.416 255.028 84.584C256.308 83.752 257.316 82.632 258.052 81.224C258.82 79.784 259.204 78.2 259.204 76.472C259.204 74.744 258.82 73.176 258.052 71.768C257.316 70.36 256.308 69.24 255.028 68.408C253.78 67.576 252.388 67.16 250.852 67.16C249.316 67.16 247.924 67.592 246.676 68.456C245.428 69.288 244.42 70.408 243.652 71.816C242.916 73.224 242.548 74.808 242.548 76.568ZM282.13 89.48C280.082 89.48 278.258 88.968 276.658 87.944C275.058 86.92 273.794 85.624 272.866 84.056V99.224H268.642V63.944H272.386V68.648C273.378 67.112 274.674 65.88 276.274 64.952C277.874 63.992 279.618 63.512 281.506 63.512C283.234 63.512 284.818 63.864 286.258 64.568C287.698 65.272 288.946 66.232 290.002 67.448C291.058 68.664 291.874 70.056 292.45 71.624C293.058 73.16 293.362 74.776 293.362 76.472C293.362 78.84 292.882 81.016 291.922 83C290.994 84.984 289.682 86.568 287.986 87.752C286.29 88.904 284.338 89.48 282.13 89.48ZM280.834 85.832C282.082 85.832 283.202 85.576 284.194 85.064C285.218 84.52 286.082 83.816 286.786 82.952C287.522 82.056 288.082 81.048 288.466 79.928C288.85 78.808 289.042 77.656 289.042 76.472C289.042 75.224 288.818 74.04 288.37 72.92C287.954 71.8 287.346 70.808 286.546 69.944C285.778 69.08 284.866 68.408 283.81 67.928C282.786 67.416 281.666 67.16 280.45 67.16C279.682 67.16 278.882 67.304 278.05 67.592C277.25 67.88 276.482 68.296 275.746 68.84C275.01 69.352 274.386 69.944 273.874 70.616C273.362 71.288 273.026 72.008 272.866 72.776V79.928C273.346 81.016 273.986 82.008 274.786 82.904C275.586 83.8 276.514 84.52 277.57 85.064C278.626 85.576 279.714 85.832 280.834 85.832ZM298.645 53.96H302.869V82.52C302.869 83.896 303.061 84.744 303.445 85.064C303.829 85.384 304.293 85.544 304.837 85.544C305.509 85.544 306.149 85.48 306.757 85.352C307.365 85.192 307.877 85.032 308.293 84.872L308.965 88.328C308.261 88.616 307.429 88.856 306.469 89.048C305.509 89.24 304.661 89.336 303.925 89.336C302.293 89.336 300.997 88.872 300.037 87.944C299.109 87.016 298.645 85.72 298.645 84.056V53.96ZM323.371 89.48C321.483 89.48 319.755 89.144 318.187 88.472C316.651 87.768 315.307 86.824 314.155 85.64C313.035 84.424 312.155 83.032 311.515 81.464C310.907 79.896 310.603 78.232 310.603 76.472C310.603 74.104 311.147 71.944 312.235 69.992C313.323 68.04 314.827 66.472 316.747 65.288C318.699 64.104 320.923 63.512 323.419 63.512C325.947 63.512 328.139 64.12 329.995 65.336C331.883 66.52 333.339 68.088 334.363 70.04C335.419 71.96 335.947 74.04 335.947 76.28C335.947 76.6 335.931 76.92 335.899 77.24C335.899 77.528 335.883 77.752 335.851 77.912H315.067C315.195 79.544 315.643 81 316.411 82.28C317.211 83.528 318.235 84.52 319.483 85.256C320.731 85.96 322.075 86.312 323.515 86.312C325.051 86.312 326.491 85.928 327.835 85.16C329.211 84.392 330.155 83.384 330.667 82.136L334.315 83.144C333.771 84.36 332.955 85.448 331.867 86.408C330.811 87.368 329.547 88.12 328.075 88.664C326.635 89.208 325.067 89.48 323.371 89.48ZM314.923 74.984H332.011C331.883 73.352 331.419 71.912 330.619 70.664C329.819 69.416 328.795 68.44 327.547 67.736C326.299 67.032 324.923 66.68 323.419 66.68C321.947 66.68 320.587 67.032 319.339 67.736C318.091 68.44 317.067 69.416 316.267 70.664C315.499 71.912 315.051 73.352 314.923 74.984Z" fill="#0022D5"/>
<path d="M26.78 145V130.8H28.18V145H26.78ZM40.2209 145H38.8609V139.18C38.8609 137.953 38.6809 137.06 38.3209 136.5C37.9609 135.927 37.3943 135.64 36.6209 135.64C36.0876 135.64 35.5609 135.773 35.0409 136.04C34.5209 136.293 34.0609 136.647 33.6609 137.1C33.2743 137.54 32.9943 138.047 32.8209 138.62V145H31.4609V134.58H32.7009V136.94C32.9809 136.433 33.3476 135.993 33.8009 135.62C34.2543 135.233 34.7676 134.933 35.3409 134.72C35.9143 134.507 36.5076 134.4 37.1209 134.4C37.6943 134.4 38.1809 134.507 38.5809 134.72C38.9809 134.933 39.3009 135.24 39.5409 135.64C39.7809 136.027 39.9543 136.5 40.0609 137.06C40.1676 137.607 40.2209 138.22 40.2209 138.9V145ZM47.5988 145C47.5988 144.547 47.6388 144.093 47.7188 143.64C47.7988 143.173 47.9521 142.713 48.1788 142.26C48.4054 141.807 48.7388 141.373 49.1788 140.96C49.6188 140.533 50.1988 140.133 50.9188 139.76C51.3054 139.56 51.7054 139.367 52.1188 139.18C52.5321 138.98 52.9188 138.767 53.2788 138.54C53.6521 138.3 53.9454 138.033 54.1588 137.74C54.3854 137.433 54.4988 137.073 54.4988 136.66C54.4988 136.327 54.3988 136 54.1988 135.68C54.0121 135.36 53.7188 135.1 53.3188 134.9C52.9321 134.7 52.4454 134.6 51.8587 134.6C51.4321 134.6 51.0454 134.66 50.6988 134.78C50.3521 134.9 50.0454 135.053 49.7788 135.24C49.5121 135.413 49.2854 135.593 49.0988 135.78C48.9121 135.953 48.7588 136.1 48.6388 136.22L47.7788 135.28C47.8454 135.2 47.9921 135.06 48.2188 134.86C48.4588 134.647 48.7588 134.427 49.1188 134.2C49.4921 133.973 49.9254 133.78 50.4188 133.62C50.9254 133.46 51.4788 133.38 52.0788 133.38C52.8921 133.38 53.5854 133.527 54.1588 133.82C54.7454 134.1 55.1921 134.48 55.4988 134.96C55.8054 135.44 55.9588 135.96 55.9588 136.52C55.9588 137.067 55.8388 137.54 55.5988 137.94C55.3721 138.327 55.0721 138.667 54.6988 138.96C54.3388 139.24 53.9588 139.487 53.5588 139.7C53.1721 139.9 52.8188 140.073 52.4988 140.22C51.8721 140.513 51.3454 140.807 50.9188 141.1C50.4921 141.393 50.1521 141.693 49.8988 142C49.6454 142.293 49.4454 142.587 49.2988 142.88C49.1654 143.16 49.0721 143.453 49.0188 143.76H56.1788V145H47.5988ZM68.2884 139.14C68.2884 140.313 68.0684 141.36 67.6284 142.28C67.2018 143.187 66.6084 143.9 65.8484 144.42C65.0884 144.94 64.2284 145.2 63.2684 145.2C62.3084 145.2 61.4484 144.94 60.6884 144.42C59.9418 143.9 59.3484 143.187 58.9084 142.28C58.4684 141.36 58.2484 140.313 58.2484 139.14C58.2484 137.967 58.4684 136.927 58.9084 136.02C59.3484 135.1 59.9418 134.38 60.6884 133.86C61.4484 133.327 62.3084 133.06 63.2684 133.06C64.2284 133.06 65.0884 133.327 65.8484 133.86C66.6084 134.38 67.2018 135.1 67.6284 136.02C68.0684 136.927 68.2884 137.967 68.2884 139.14ZM66.9084 139.14C66.9084 138.193 66.7551 137.36 66.4484 136.64C66.1418 135.92 65.7151 135.36 65.1684 134.96C64.6218 134.547 63.9884 134.34 63.2684 134.34C62.5484 134.34 61.9151 134.547 61.3684 134.96C60.8218 135.36 60.3884 135.92 60.0684 136.64C59.7618 137.36 59.6084 138.193 59.6084 139.14C59.6084 140.087 59.7618 140.92 60.0684 141.64C60.3884 142.36 60.8218 142.92 61.3684 143.32C61.9151 143.72 62.5484 143.92 63.2684 143.92C63.9884 143.92 64.6218 143.72 65.1684 143.32C65.7151 142.907 66.1418 142.347 66.4484 141.64C66.7551 140.92 66.9084 140.087 66.9084 139.14ZM77.5145 143.76V145H70.7345V143.76H73.5745V135.2C73.4679 135.36 73.2879 135.533 73.0345 135.72C72.7812 135.907 72.4879 136.08 72.1545 136.24C71.8345 136.4 71.5145 136.533 71.1945 136.64C70.8745 136.747 70.5812 136.8 70.3145 136.8V135.48C70.6212 135.48 70.9545 135.393 71.3145 135.22C71.6745 135.047 72.0212 134.847 72.3545 134.62C72.6879 134.393 72.9679 134.18 73.1945 133.98C73.4212 133.78 73.5479 133.647 73.5745 133.58H74.9745V143.76H77.5145ZM88.8092 141.06C88.8092 141.887 88.5759 142.607 88.1092 143.22C87.6559 143.833 87.0492 144.313 86.2892 144.66C85.5426 144.993 84.7226 145.16 83.8292 145.16C82.8826 145.16 82.0426 144.973 81.3092 144.6C80.5759 144.213 79.9959 143.707 79.5692 143.08C79.1559 142.453 78.9492 141.753 78.9492 140.98C78.9492 140.38 79.0892 139.84 79.3692 139.36C79.6626 138.867 80.0226 138.453 80.4492 138.12C80.8892 137.787 81.3359 137.547 81.7892 137.4C81.3759 137.227 80.9892 137 80.6292 136.72C80.2692 136.427 79.9826 136.087 79.7692 135.7C79.5559 135.313 79.4492 134.887 79.4492 134.42C79.4492 133.833 79.5759 133.32 79.8292 132.88C80.0959 132.427 80.4426 132.047 80.8692 131.74C81.2959 131.42 81.7692 131.187 82.2892 131.04C82.8226 130.88 83.3559 130.8 83.8892 130.8C84.4092 130.8 84.9292 130.88 85.4492 131.04C85.9826 131.187 86.4626 131.413 86.8892 131.72C87.3292 132.027 87.6759 132.407 87.9292 132.86C88.1959 133.3 88.3292 133.813 88.3292 134.4C88.3292 134.867 88.2159 135.3 87.9892 135.7C87.7759 136.087 87.4892 136.427 87.1292 136.72C86.7692 137 86.3759 137.227 85.9492 137.4C86.4692 137.573 86.9426 137.84 87.3692 138.2C87.8092 138.547 88.1559 138.96 88.4092 139.44C88.6759 139.92 88.8092 140.46 88.8092 141.06ZM87.4292 140.96C87.4292 140.48 87.3226 140.06 87.1092 139.7C86.9092 139.327 86.6292 139.013 86.2692 138.76C85.9226 138.507 85.5359 138.313 85.1092 138.18C84.6959 138.047 84.2759 137.98 83.8492 137.98C83.2759 137.98 82.7159 138.107 82.1692 138.36C81.6359 138.6 81.1959 138.947 80.8492 139.4C80.5159 139.84 80.3492 140.367 80.3492 140.98C80.3492 141.447 80.4492 141.86 80.6492 142.22C80.8626 142.58 81.1426 142.893 81.4892 143.16C81.8359 143.413 82.2159 143.607 82.6292 143.74C83.0559 143.873 83.4826 143.94 83.9092 143.94C84.4826 143.94 85.0359 143.82 85.5692 143.58C86.1159 143.327 86.5626 142.973 86.9092 142.52C87.2559 142.067 87.4292 141.547 87.4292 140.96ZM80.8092 134.48C80.8092 134.987 80.9626 135.427 81.2692 135.8C81.5892 136.16 81.9892 136.433 82.4692 136.62C82.9492 136.807 83.4159 136.9 83.8692 136.9C84.3492 136.9 84.8226 136.807 85.2892 136.62C85.7692 136.42 86.1626 136.14 86.4692 135.78C86.7892 135.407 86.9492 134.96 86.9492 134.44C86.9492 133.933 86.8026 133.5 86.5092 133.14C86.2159 132.78 85.8292 132.507 85.3492 132.32C84.8826 132.133 84.3826 132.04 83.8492 132.04C83.3426 132.04 82.8492 132.14 82.3692 132.34C81.9026 132.527 81.5226 132.807 81.2292 133.18C80.9492 133.54 80.8092 133.973 80.8092 134.48ZM96.6823 145V130.8H98.0823V143.76H106.282V145H96.6823ZM107.923 140.7V134.58H109.283V140.46C109.283 141.647 109.483 142.533 109.883 143.12C110.297 143.707 110.903 144 111.703 144C112.237 144 112.75 143.887 113.243 143.66C113.75 143.42 114.197 143.087 114.583 142.66C114.97 142.22 115.263 141.713 115.463 141.14V134.58H116.823V143.36C116.823 143.547 116.863 143.687 116.943 143.78C117.023 143.86 117.143 143.907 117.303 143.92V145C117.143 145.013 117.017 145.02 116.923 145.02C116.83 145.033 116.743 145.04 116.663 145.04C116.397 145.013 116.163 144.907 115.963 144.72C115.777 144.533 115.677 144.307 115.663 144.04L115.623 142.64C115.17 143.44 114.55 144.067 113.763 144.52C112.99 144.973 112.15 145.2 111.243 145.2C110.15 145.2 109.323 144.82 108.763 144.06C108.203 143.3 107.923 142.18 107.923 140.7ZM124.418 145.2C123.658 145.2 122.958 145.06 122.318 144.78C121.692 144.487 121.138 144.087 120.658 143.58C120.192 143.073 119.825 142.493 119.558 141.84C119.305 141.187 119.178 140.493 119.178 139.76C119.178 138.773 119.398 137.873 119.838 137.06C120.278 136.247 120.892 135.6 121.678 135.12C122.465 134.64 123.372 134.4 124.398 134.4C125.372 134.4 126.232 134.627 126.978 135.08C127.725 135.52 128.278 136.12 128.638 136.88L127.318 137.3C127.025 136.767 126.612 136.353 126.078 136.06C125.558 135.753 124.978 135.6 124.338 135.6C123.645 135.6 123.012 135.78 122.438 136.14C121.865 136.5 121.405 136.993 121.058 137.62C120.725 138.247 120.558 138.96 120.558 139.76C120.558 140.547 120.732 141.26 121.078 141.9C121.425 142.54 121.885 143.053 122.458 143.44C123.032 143.813 123.665 144 124.358 144C124.812 144 125.245 143.92 125.658 143.76C126.085 143.6 126.452 143.387 126.758 143.12C127.078 142.84 127.292 142.54 127.398 142.22L128.738 142.62C128.552 143.113 128.238 143.56 127.798 143.96C127.372 144.347 126.865 144.653 126.278 144.88C125.705 145.093 125.085 145.2 124.418 145.2ZM130.035 142C130.035 141.347 130.222 140.787 130.595 140.32C130.968 139.84 131.482 139.473 132.135 139.22C132.802 138.953 133.568 138.82 134.435 138.82C134.942 138.82 135.468 138.86 136.015 138.94C136.562 139.02 137.048 139.14 137.475 139.3V138.42C137.475 137.54 137.215 136.84 136.695 136.32C136.175 135.8 135.455 135.54 134.535 135.54C133.975 135.54 133.422 135.647 132.875 135.86C132.342 136.06 131.782 136.36 131.195 136.76L130.675 135.8C131.355 135.333 132.022 134.987 132.675 134.76C133.328 134.52 133.995 134.4 134.675 134.4C135.955 134.4 136.968 134.767 137.715 135.5C138.462 136.233 138.835 137.247 138.835 138.54V143.36C138.835 143.547 138.875 143.687 138.955 143.78C139.035 143.86 139.162 143.907 139.335 143.92V145C139.188 145.013 139.062 145.027 138.955 145.04C138.848 145.053 138.768 145.053 138.715 145.04C138.382 145.027 138.128 144.92 137.955 144.72C137.782 144.52 137.688 144.307 137.675 144.08L137.655 143.32C137.188 143.92 136.582 144.387 135.835 144.72C135.088 145.04 134.328 145.2 133.555 145.2C132.888 145.2 132.282 145.06 131.735 144.78C131.202 144.487 130.782 144.1 130.475 143.62C130.182 143.127 130.035 142.587 130.035 142ZM137.015 142.8C137.162 142.613 137.275 142.433 137.355 142.26C137.435 142.087 137.475 141.933 137.475 141.8V140.28C137.022 140.107 136.548 139.973 136.055 139.88C135.575 139.787 135.088 139.74 134.595 139.74C133.622 139.74 132.835 139.933 132.235 140.32C131.635 140.707 131.335 141.233 131.335 141.9C131.335 142.287 131.435 142.653 131.635 143C131.835 143.333 132.128 143.613 132.515 143.84C132.902 144.053 133.355 144.16 133.875 144.16C134.528 144.16 135.135 144.033 135.695 143.78C136.268 143.527 136.708 143.2 137.015 142.8ZM146.031 142C146.031 141.347 146.218 140.787 146.591 140.32C146.964 139.84 147.478 139.473 148.131 139.22C148.798 138.953 149.564 138.82 150.431 138.82C150.938 138.82 151.464 138.86 152.011 138.94C152.558 139.02 153.044 139.14 153.471 139.3V138.42C153.471 137.54 153.211 136.84 152.691 136.32C152.171 135.8 151.451 135.54 150.531 135.54C149.971 135.54 149.418 135.647 148.871 135.86C148.338 136.06 147.778 136.36 147.191 136.76L146.671 135.8C147.351 135.333 148.018 134.987 148.671 134.76C149.324 134.52 149.991 134.4 150.671 134.4C151.951 134.4 152.964 134.767 153.711 135.5C154.458 136.233 154.831 137.247 154.831 138.54V143.36C154.831 143.547 154.871 143.687 154.951 143.78C155.031 143.86 155.158 143.907 155.331 143.92V145C155.184 145.013 155.058 145.027 154.951 145.04C154.844 145.053 154.764 145.053 154.711 145.04C154.378 145.027 154.124 144.92 153.951 144.72C153.778 144.52 153.684 144.307 153.671 144.08L153.651 143.32C153.184 143.92 152.578 144.387 151.831 144.72C151.084 145.04 150.324 145.2 149.551 145.2C148.884 145.2 148.278 145.06 147.731 144.78C147.198 144.487 146.778 144.1 146.471 143.62C146.178 143.127 146.031 142.587 146.031 142ZM153.011 142.8C153.158 142.613 153.271 142.433 153.351 142.26C153.431 142.087 153.471 141.933 153.471 141.8V140.28C153.018 140.107 152.544 139.973 152.051 139.88C151.571 139.787 151.084 139.74 150.591 139.74C149.618 139.74 148.831 139.933 148.231 140.32C147.631 140.707 147.331 141.233 147.331 141.9C147.331 142.287 147.431 142.653 147.631 143C147.831 143.333 148.124 143.613 148.511 143.84C148.898 144.053 149.351 144.16 149.871 144.16C150.524 144.16 151.131 144.033 151.691 143.78C152.264 143.527 152.704 143.2 153.011 142.8ZM166.53 145H165.17V139.18C165.17 137.953 164.99 137.06 164.63 136.5C164.27 135.927 163.703 135.64 162.93 135.64C162.396 135.64 161.87 135.773 161.35 136.04C160.83 136.293 160.37 136.647 159.97 137.1C159.583 137.54 159.303 138.047 159.13 138.62V145H157.77V134.58H159.01V136.94C159.29 136.433 159.656 135.993 160.11 135.62C160.563 135.233 161.076 134.933 161.65 134.72C162.223 134.507 162.816 134.4 163.43 134.4C164.003 134.4 164.49 134.507 164.89 134.72C165.29 134.933 165.61 135.24 165.85 135.64C166.09 136.027 166.263 136.5 166.37 137.06C166.476 137.607 166.53 138.22 166.53 138.9V145ZM168.73 139.82C168.73 138.833 168.93 137.933 169.33 137.12C169.743 136.293 170.31 135.633 171.03 135.14C171.75 134.647 172.57 134.4 173.49 134.4C174.356 134.4 175.13 134.633 175.81 135.1C176.503 135.553 177.043 136.107 177.43 136.76V130.4H178.79V143.36C178.79 143.547 178.83 143.687 178.91 143.78C178.99 143.86 179.11 143.907 179.27 143.92V145C179.003 145.04 178.796 145.053 178.65 145.04C178.37 145.027 178.123 144.913 177.91 144.7C177.696 144.487 177.59 144.253 177.59 144V142.98C177.176 143.66 176.616 144.2 175.91 144.6C175.203 145 174.47 145.2 173.71 145.2C172.99 145.2 172.323 145.053 171.71 144.76C171.11 144.467 170.583 144.067 170.13 143.56C169.69 143.053 169.343 142.48 169.09 141.84C168.85 141.187 168.73 140.513 168.73 139.82ZM177.43 141.42V138.2C177.256 137.72 176.976 137.287 176.59 136.9C176.203 136.5 175.763 136.187 175.27 135.96C174.79 135.72 174.31 135.6 173.83 135.6C173.27 135.6 172.763 135.72 172.31 135.96C171.856 136.187 171.463 136.5 171.13 136.9C170.81 137.3 170.563 137.753 170.39 138.26C170.216 138.767 170.13 139.287 170.13 139.82C170.13 140.38 170.223 140.913 170.41 141.42C170.61 141.927 170.89 142.38 171.25 142.78C171.61 143.167 172.023 143.467 172.49 143.68C172.956 143.893 173.463 144 174.01 144C174.356 144 174.716 143.933 175.09 143.8C175.463 143.667 175.816 143.487 176.15 143.26C176.496 143.02 176.783 142.74 177.01 142.42C177.236 142.1 177.376 141.767 177.43 141.42ZM199.829 145V133.44L194.689 142.42H193.809L188.649 133.44V145H187.249V130.8H188.689L194.229 140.52L199.809 130.8H201.229V145H199.829ZM203.57 142C203.57 141.347 203.757 140.787 204.13 140.32C204.503 139.84 205.017 139.473 205.67 139.22C206.337 138.953 207.103 138.82 207.97 138.82C208.477 138.82 209.003 138.86 209.55 138.94C210.097 139.02 210.583 139.14 211.01 139.3V138.42C211.01 137.54 210.75 136.84 210.23 136.32C209.71 135.8 208.99 135.54 208.07 135.54C207.51 135.54 206.957 135.647 206.41 135.86C205.877 136.06 205.317 136.36 204.73 136.76L204.21 135.8C204.89 135.333 205.557 134.987 206.21 134.76C206.863 134.52 207.53 134.4 208.21 134.4C209.49 134.4 210.503 134.767 211.25 135.5C211.997 136.233 212.37 137.247 212.37 138.54V143.36C212.37 143.547 212.41 143.687 212.49 143.78C212.57 143.86 212.697 143.907 212.87 143.92V145C212.723 145.013 212.597 145.027 212.49 145.04C212.383 145.053 212.303 145.053 212.25 145.04C211.917 145.027 211.663 144.92 211.49 144.72C211.317 144.52 211.223 144.307 211.21 144.08L211.19 143.32C210.723 143.92 210.117 144.387 209.37 144.72C208.623 145.04 207.863 145.2 207.09 145.2C206.423 145.2 205.817 145.06 205.27 144.78C204.737 144.487 204.317 144.1 204.01 143.62C203.717 143.127 203.57 142.587 203.57 142ZM210.55 142.8C210.697 142.613 210.81 142.433 210.89 142.26C210.97 142.087 211.01 141.933 211.01 141.8V140.28C210.557 140.107 210.083 139.973 209.59 139.88C209.11 139.787 208.623 139.74 208.13 139.74C207.157 139.74 206.37 139.933 205.77 140.32C205.17 140.707 204.87 141.233 204.87 141.9C204.87 142.287 204.97 142.653 205.17 143C205.37 143.333 205.663 143.613 206.05 143.84C206.437 144.053 206.89 144.16 207.41 144.16C208.063 144.16 208.67 144.033 209.23 143.78C209.803 143.527 210.243 143.2 210.55 142.8ZM220.509 135.78C219.602 135.807 218.802 136.06 218.109 136.54C217.429 137.02 216.949 137.68 216.669 138.52V145H215.309V134.58H216.589V137.08C216.949 136.347 217.422 135.753 218.009 135.3C218.609 134.847 219.242 134.593 219.909 134.54C220.042 134.527 220.155 134.52 220.249 134.52C220.355 134.52 220.442 134.527 220.509 134.54V135.78ZM227.32 144.5C227.214 144.54 227.047 144.613 226.82 144.72C226.594 144.827 226.32 144.92 226 145C225.68 145.08 225.334 145.12 224.96 145.12C224.574 145.12 224.207 145.047 223.86 144.9C223.527 144.753 223.26 144.533 223.06 144.24C222.86 143.933 222.76 143.56 222.76 143.12V135.66H221.32V134.58H222.76V131.06H224.12V134.58H226.52V135.66H224.12V142.74C224.147 143.113 224.28 143.393 224.52 143.58C224.774 143.767 225.06 143.86 225.38 143.86C225.754 143.86 226.094 143.8 226.4 143.68C226.707 143.547 226.894 143.453 226.96 143.4L227.32 144.5ZM228.18 142C228.18 141.347 228.366 140.787 228.74 140.32C229.113 139.84 229.626 139.473 230.28 139.22C230.946 138.953 231.713 138.82 232.58 138.82C233.086 138.82 233.613 138.86 234.16 138.94C234.706 139.02 235.193 139.14 235.62 139.3V138.42C235.62 137.54 235.36 136.84 234.84 136.32C234.32 135.8 233.6 135.54 232.68 135.54C232.12 135.54 231.566 135.647 231.02 135.86C230.486 136.06 229.926 136.36 229.34 136.76L228.82 135.8C229.5 135.333 230.166 134.987 230.82 134.76C231.473 134.52 232.14 134.4 232.82 134.4C234.1 134.4 235.113 134.767 235.86 135.5C236.606 136.233 236.98 137.247 236.98 138.54V143.36C236.98 143.547 237.02 143.687 237.1 143.78C237.18 143.86 237.306 143.907 237.48 143.92V145C237.333 145.013 237.206 145.027 237.1 145.04C236.993 145.053 236.913 145.053 236.86 145.04C236.526 145.027 236.273 144.92 236.1 144.72C235.926 144.52 235.833 144.307 235.82 144.08L235.8 143.32C235.333 143.92 234.726 144.387 233.98 144.72C233.233 145.04 232.473 145.2 231.7 145.2C231.033 145.2 230.426 145.06 229.88 144.78C229.346 144.487 228.926 144.1 228.62 143.62C228.326 143.127 228.18 142.587 228.18 142ZM235.16 142.8C235.306 142.613 235.42 142.433 235.5 142.26C235.58 142.087 235.62 141.933 235.62 141.8V140.28C235.166 140.107 234.693 139.973 234.2 139.88C233.72 139.787 233.233 139.74 232.74 139.74C231.766 139.74 230.98 139.933 230.38 140.32C229.78 140.707 229.48 141.233 229.48 141.9C229.48 142.287 229.58 142.653 229.78 143C229.98 143.333 230.273 143.613 230.66 143.84C231.046 144.053 231.5 144.16 232.02 144.16C232.673 144.16 233.28 144.033 233.84 143.78C234.413 143.527 234.853 143.2 235.16 142.8ZM257.569 134.58H258.909L254.429 145H253.249L251.069 139.82L248.909 145H247.729L243.249 134.58H244.569L248.369 143.6L250.289 138.9L248.529 134.6H249.749L251.069 137.98L252.409 134.6H253.609L251.869 138.9L253.789 143.6L257.569 134.58ZM260.719 145V134.58H262.079V145H260.719ZM260.719 132.4V130.4H262.079V132.4H260.719ZM270.074 144.5C269.968 144.54 269.801 144.613 269.574 144.72C269.348 144.827 269.074 144.92 268.754 145C268.434 145.08 268.088 145.12 267.714 145.12C267.328 145.12 266.961 145.047 266.614 144.9C266.281 144.753 266.014 144.533 265.814 144.24C265.614 143.933 265.514 143.56 265.514 143.12V135.66H264.074V134.58H265.514V131.06H266.874V134.58H269.274V135.66H266.874V142.74C266.901 143.113 267.034 143.393 267.274 143.58C267.528 143.767 267.814 143.86 268.134 143.86C268.508 143.86 268.848 143.8 269.154 143.68C269.461 143.547 269.648 143.453 269.714 143.4L270.074 144.5ZM280.533 145H279.173V139.18C279.173 138.007 278.967 137.127 278.553 136.54C278.14 135.94 277.547 135.64 276.773 135.64C276.267 135.64 275.76 135.773 275.253 136.04C274.76 136.293 274.32 136.647 273.933 137.1C273.56 137.54 273.293 138.047 273.133 138.62V145H271.773V130.4H273.133V136.94C273.547 136.167 274.12 135.553 274.853 135.1C275.6 134.633 276.393 134.4 277.233 134.4C277.833 134.4 278.34 134.507 278.753 134.72C279.18 134.933 279.52 135.247 279.773 135.66C280.04 136.06 280.233 136.533 280.353 137.08C280.473 137.613 280.533 138.22 280.533 138.9V145ZM288.811 145V130.8H293.631C295.138 130.8 296.391 131.12 297.391 131.76C298.405 132.387 299.165 133.24 299.671 134.32C300.178 135.387 300.431 136.573 300.431 137.88C300.431 139.32 300.151 140.573 299.591 141.64C299.045 142.707 298.258 143.533 297.231 144.12C296.218 144.707 295.018 145 293.631 145H288.811ZM299.031 137.88C299.031 136.747 298.818 135.74 298.391 134.86C297.978 133.98 297.371 133.293 296.571 132.8C295.771 132.293 294.791 132.04 293.631 132.04H290.211V143.76H293.631C294.805 143.76 295.791 143.5 296.591 142.98C297.391 142.46 297.998 141.76 298.411 140.88C298.825 139.987 299.031 138.987 299.031 137.88ZM301.91 142C301.91 141.347 302.097 140.787 302.47 140.32C302.843 139.84 303.357 139.473 304.01 139.22C304.677 138.953 305.443 138.82 306.31 138.82C306.817 138.82 307.343 138.86 307.89 138.94C308.437 139.02 308.923 139.14 309.35 139.3V138.42C309.35 137.54 309.09 136.84 308.57 136.32C308.05 135.8 307.33 135.54 306.41 135.54C305.85 135.54 305.297 135.647 304.75 135.86C304.217 136.06 303.657 136.36 303.07 136.76L302.55 135.8C303.23 135.333 303.897 134.987 304.55 134.76C305.203 134.52 305.87 134.4 306.55 134.4C307.83 134.4 308.843 134.767 309.59 135.5C310.337 136.233 310.71 137.247 310.71 138.54V143.36C310.71 143.547 310.75 143.687 310.83 143.78C310.91 143.86 311.037 143.907 311.21 143.92V145C311.063 145.013 310.937 145.027 310.83 145.04C310.723 145.053 310.643 145.053 310.59 145.04C310.257 145.027 310.003 144.92 309.83 144.72C309.657 144.52 309.563 144.307 309.55 144.08L309.53 143.32C309.063 143.92 308.457 144.387 307.71 144.72C306.963 145.04 306.203 145.2 305.43 145.2C304.763 145.2 304.157 145.06 303.61 144.78C303.077 144.487 302.657 144.1 302.35 143.62C302.057 143.127 301.91 142.587 301.91 142ZM308.89 142.8C309.037 142.613 309.15 142.433 309.23 142.26C309.31 142.087 309.35 141.933 309.35 141.8V140.28C308.897 140.107 308.423 139.973 307.93 139.88C307.45 139.787 306.963 139.74 306.47 139.74C305.497 139.74 304.71 139.933 304.11 140.32C303.51 140.707 303.21 141.233 303.21 141.9C303.21 142.287 303.31 142.653 303.51 143C303.71 143.333 304.003 143.613 304.39 143.84C304.777 144.053 305.23 144.16 305.75 144.16C306.403 144.16 307.01 144.033 307.57 143.78C308.143 143.527 308.583 143.2 308.89 142.8ZM322.408 145H321.048V139.18C321.048 137.953 320.868 137.06 320.508 136.5C320.148 135.927 319.582 135.64 318.808 135.64C318.275 135.64 317.748 135.773 317.228 136.04C316.708 136.293 316.248 136.647 315.848 137.1C315.462 137.54 315.182 138.047 315.008 138.62V145H313.648V134.58H314.888V136.94C315.168 136.433 315.535 135.993 315.988 135.62C316.442 135.233 316.955 134.933 317.528 134.72C318.102 134.507 318.695 134.4 319.308 134.4C319.882 134.4 320.368 134.507 320.768 134.72C321.168 134.933 321.488 135.24 321.728 135.64C321.968 136.027 322.142 136.5 322.248 137.06C322.355 137.607 322.408 138.22 322.408 138.9V145ZM325.309 145V134.58H326.669V145H325.309ZM325.309 132.4V130.4H326.669V132.4H325.309ZM334.164 145.2C333.417 145.2 332.724 145.06 332.084 144.78C331.444 144.487 330.891 144.093 330.424 143.6C329.957 143.093 329.591 142.513 329.324 141.86C329.071 141.207 328.944 140.507 328.944 139.76C328.944 138.787 329.164 137.893 329.604 137.08C330.057 136.267 330.677 135.62 331.464 135.14C332.251 134.647 333.144 134.4 334.144 134.4C335.171 134.4 336.064 134.647 336.824 135.14C337.597 135.633 338.204 136.287 338.644 137.1C339.084 137.9 339.304 138.78 339.304 139.74C339.304 139.847 339.304 139.953 339.304 140.06C339.304 140.153 339.297 140.227 339.284 140.28H330.364C330.431 141.027 330.637 141.693 330.984 142.28C331.344 142.853 331.804 143.313 332.364 143.66C332.937 143.993 333.557 144.16 334.224 144.16C334.904 144.16 335.544 143.987 336.144 143.64C336.757 143.293 337.184 142.84 337.424 142.28L338.604 142.6C338.391 143.093 338.064 143.54 337.624 143.94C337.184 144.34 336.664 144.653 336.064 144.88C335.477 145.093 334.844 145.2 334.164 145.2ZM330.324 139.3H338.024C337.971 138.54 337.764 137.873 337.404 137.3C337.057 136.727 336.597 136.28 336.024 135.96C335.464 135.627 334.844 135.46 334.164 135.46C333.484 135.46 332.864 135.627 332.304 135.96C331.744 136.28 331.284 136.733 330.924 137.32C330.577 137.893 330.377 138.553 330.324 139.3ZM341.462 130.4H342.822V142.64C342.822 143.16 342.916 143.5 343.102 143.66C343.289 143.82 343.516 143.9 343.782 143.9C344.022 143.9 344.262 143.873 344.502 143.82C344.742 143.767 344.949 143.713 345.122 143.66L345.362 144.76C345.109 144.867 344.796 144.953 344.422 145.02C344.062 145.087 343.749 145.12 343.482 145.12C342.869 145.12 342.376 144.94 342.002 144.58C341.642 144.22 341.462 143.727 341.462 143.1V130.4ZM346.012 142C346.012 141.347 346.198 140.787 346.572 140.32C346.945 139.84 347.458 139.473 348.112 139.22C348.778 138.953 349.545 138.82 350.412 138.82C350.918 138.82 351.445 138.86 351.992 138.94C352.538 139.02 353.025 139.14 353.452 139.3V138.42C353.452 137.54 353.192 136.84 352.672 136.32C352.152 135.8 351.432 135.54 350.512 135.54C349.952 135.54 349.398 135.647 348.852 135.86C348.318 136.06 347.758 136.36 347.172 136.76L346.652 135.8C347.332 135.333 347.998 134.987 348.652 134.76C349.305 134.52 349.972 134.4 350.652 134.4C351.932 134.4 352.945 134.767 353.692 135.5C354.438 136.233 354.812 137.247 354.812 138.54V143.36C354.812 143.547 354.852 143.687 354.932 143.78C355.012 143.86 355.138 143.907 355.312 143.92V145C355.165 145.013 355.038 145.027 354.932 145.04C354.825 145.053 354.745 145.053 354.692 145.04C354.358 145.027 354.105 144.92 353.932 144.72C353.758 144.52 353.665 144.307 353.652 144.08L353.632 143.32C353.165 143.92 352.558 144.387 351.812 144.72C351.065 145.04 350.305 145.2 349.532 145.2C348.865 145.2 348.258 145.06 347.712 144.78C347.178 144.487 346.758 144.1 346.452 143.62C346.158 143.127 346.012 142.587 346.012 142ZM352.992 142.8C353.138 142.613 353.252 142.433 353.332 142.26C353.412 142.087 353.452 141.933 353.452 141.8V140.28C352.998 140.107 352.525 139.973 352.032 139.88C351.552 139.787 351.065 139.74 350.572 139.74C349.598 139.74 348.812 139.933 348.212 140.32C347.612 140.707 347.312 141.233 347.312 141.9C347.312 142.287 347.412 142.653 347.612 143C347.812 143.333 348.105 143.613 348.492 143.84C348.878 144.053 349.332 144.16 349.852 144.16C350.505 144.16 351.112 144.033 351.672 143.78C352.245 143.527 352.685 143.2 352.992 142.8ZM26.78 168V153.8H32.66C33.2733 153.8 33.8333 153.927 34.34 154.18C34.86 154.433 35.3067 154.78 35.68 155.22C36.0533 155.647 36.3467 156.127 36.56 156.66C36.7733 157.18 36.88 157.713 36.88 158.26C36.88 159.033 36.7067 159.767 36.36 160.46C36.0267 161.14 35.5533 161.693 34.94 162.12C34.3267 162.547 33.6067 162.76 32.78 162.76H28.18V168H26.78ZM28.18 161.52H32.72C33.28 161.52 33.7667 161.367 34.18 161.06C34.5933 160.753 34.9133 160.353 35.14 159.86C35.3667 159.367 35.48 158.833 35.48 158.26C35.48 157.673 35.3467 157.133 35.08 156.64C34.8133 156.147 34.46 155.76 34.02 155.48C33.5933 155.187 33.12 155.04 32.6 155.04H28.18V161.52ZM37.9842 165C37.9842 164.347 38.1709 163.787 38.5442 163.32C38.9176 162.84 39.4309 162.473 40.0842 162.22C40.7509 161.953 41.5176 161.82 42.3842 161.82C42.8909 161.82 43.4176 161.86 43.9642 161.94C44.5109 162.02 44.9976 162.14 45.4242 162.3V161.42C45.4242 160.54 45.1642 159.84 44.6442 159.32C44.1242 158.8 43.4042 158.54 42.4842 158.54C41.9242 158.54 41.3709 158.647 40.8242 158.86C40.2909 159.06 39.7309 159.36 39.1442 159.76L38.6242 158.8C39.3042 158.333 39.9709 157.987 40.6242 157.76C41.2776 157.52 41.9442 157.4 42.6242 157.4C43.9042 157.4 44.9176 157.767 45.6642 158.5C46.4109 159.233 46.7842 160.247 46.7842 161.54V166.36C46.7842 166.547 46.8242 166.687 46.9042 166.78C46.9842 166.86 47.1109 166.907 47.2842 166.92V168C47.1376 168.013 47.0109 168.027 46.9042 168.04C46.7976 168.053 46.7176 168.053 46.6642 168.04C46.3309 168.027 46.0776 167.92 45.9042 167.72C45.7309 167.52 45.6376 167.307 45.6242 167.08L45.6042 166.32C45.1376 166.92 44.5309 167.387 43.7842 167.72C43.0376 168.04 42.2776 168.2 41.5042 168.2C40.8376 168.2 40.2309 168.06 39.6842 167.78C39.1509 167.487 38.7309 167.1 38.4242 166.62C38.1309 166.127 37.9842 165.587 37.9842 165ZM44.9642 165.8C45.1109 165.613 45.2242 165.433 45.3042 165.26C45.3842 165.087 45.4242 164.933 45.4242 164.8V163.28C44.9709 163.107 44.4976 162.973 44.0042 162.88C43.5242 162.787 43.0376 162.74 42.5442 162.74C41.5709 162.74 40.7842 162.933 40.1842 163.32C39.5842 163.707 39.2842 164.233 39.2842 164.9C39.2842 165.287 39.3842 165.653 39.5842 166C39.7842 166.333 40.0776 166.613 40.4642 166.84C40.8509 167.053 41.3042 167.16 41.8242 167.16C42.4776 167.16 43.0842 167.033 43.6442 166.78C44.2176 166.527 44.6576 166.2 44.9642 165.8ZM52.5102 168L48.2902 157.58H49.7102L53.2702 166.64L56.8502 157.58H58.1902L53.9702 168H52.5102ZM64.1627 168.2C63.416 168.2 62.7227 168.06 62.0827 167.78C61.456 167.487 60.9093 167.093 60.4427 166.6C59.9893 166.093 59.636 165.52 59.3827 164.88C59.1293 164.227 59.0027 163.54 59.0027 162.82C59.0027 162.073 59.1293 161.38 59.3827 160.74C59.636 160.087 59.996 159.513 60.4627 159.02C60.9293 158.513 61.476 158.12 62.1027 157.84C62.7427 157.547 63.436 157.4 64.1827 157.4C64.9293 157.4 65.616 157.547 66.2427 157.84C66.8693 158.12 67.416 158.513 67.8827 159.02C68.3493 159.513 68.7093 160.087 68.9627 160.74C69.216 161.38 69.3427 162.073 69.3427 162.82C69.3427 163.54 69.216 164.227 68.9627 164.88C68.7093 165.52 68.3493 166.093 67.8827 166.6C67.4293 167.093 66.8827 167.487 66.2427 167.78C65.616 168.06 64.9227 168.2 64.1627 168.2ZM60.3827 162.84C60.3827 163.613 60.5493 164.32 60.8827 164.96C61.2293 165.587 61.6893 166.087 62.2627 166.46C62.836 166.82 63.4693 167 64.1627 167C64.856 167 65.4893 166.813 66.0627 166.44C66.636 166.067 67.096 165.56 67.4427 164.92C67.7893 164.267 67.9627 163.56 67.9627 162.8C67.9627 162.027 67.7893 161.32 67.4427 160.68C67.096 160.04 66.636 159.533 66.0627 159.16C65.4893 158.787 64.856 158.6 64.1627 158.6C63.4693 158.6 62.836 158.793 62.2627 159.18C61.7027 159.567 61.2493 160.08 60.9027 160.72C60.556 161.347 60.3827 162.053 60.3827 162.84ZM80.3772 168H79.0172V162.18C79.0172 160.953 78.8372 160.06 78.4772 159.5C78.1172 158.927 77.5505 158.64 76.7772 158.64C76.2439 158.64 75.7172 158.773 75.1972 159.04C74.6772 159.293 74.2172 159.647 73.8172 160.1C73.4305 160.54 73.1505 161.047 72.9772 161.62V168H71.6172V157.58H72.8572V159.94C73.1372 159.433 73.5039 158.993 73.9572 158.62C74.4105 158.233 74.9239 157.933 75.4972 157.72C76.0705 157.507 76.6639 157.4 77.2772 157.4C77.8505 157.4 78.3372 157.507 78.7372 157.72C79.1372 157.933 79.4572 158.24 79.6972 158.64C79.9372 159.027 80.1105 159.5 80.2172 160.06C80.3239 160.607 80.3772 161.22 80.3772 161.9V168ZM87.7773 168.2C87.0307 168.2 86.3373 168.06 85.6973 167.78C85.0573 167.487 84.504 167.093 84.0373 166.6C83.5707 166.093 83.204 165.513 82.9373 164.86C82.684 164.207 82.5573 163.507 82.5573 162.76C82.5573 161.787 82.7773 160.893 83.2173 160.08C83.6707 159.267 84.2907 158.62 85.0773 158.14C85.864 157.647 86.7573 157.4 87.7573 157.4C88.784 157.4 89.6773 157.647 90.4373 158.14C91.2107 158.633 91.8173 159.287 92.2573 160.1C92.6973 160.9 92.9173 161.78 92.9173 162.74C92.9173 162.847 92.9173 162.953 92.9173 163.06C92.9173 163.153 92.9107 163.227 92.8973 163.28H83.9773C84.044 164.027 84.2507 164.693 84.5973 165.28C84.9573 165.853 85.4173 166.313 85.9773 166.66C86.5507 166.993 87.1707 167.16 87.8373 167.16C88.5173 167.16 89.1573 166.987 89.7573 166.64C90.3707 166.293 90.7973 165.84 91.0373 165.28L92.2173 165.6C92.004 166.093 91.6773 166.54 91.2373 166.94C90.7973 167.34 90.2773 167.653 89.6773 167.88C89.0907 168.093 88.4573 168.2 87.7773 168.2ZM83.9373 162.3H91.6373C91.584 161.54 91.3773 160.873 91.0173 160.3C90.6707 159.727 90.2107 159.28 89.6373 158.96C89.0773 158.627 88.4573 158.46 87.7773 158.46C87.0973 158.46 86.4773 158.627 85.9173 158.96C85.3573 159.28 84.8973 159.733 84.5373 160.32C84.1907 160.893 83.9907 161.553 83.9373 162.3ZM95.2356 169.62L95.5756 167.94H95.1156V166.04H96.4356V167.94L95.9356 169.62H95.2356ZM108.66 153.8H109.84L115.74 168H114.26L112.42 163.56H106.04L104.22 168H102.72L108.66 153.8ZM112.1 162.46L109.24 155.44L106.34 162.46H112.1ZM122.696 158.78C121.789 158.807 120.989 159.06 120.296 159.54C119.616 160.02 119.136 160.68 118.856 161.52V168H117.496V157.58H118.776V160.08C119.136 159.347 119.609 158.753 120.196 158.3C120.796 157.847 121.429 157.593 122.096 157.54C122.229 157.527 122.343 157.52 122.436 157.52C122.543 157.52 122.629 157.527 122.696 157.54V158.78ZM124.508 168V157.58H125.868V168H124.508ZM124.508 155.4V153.4H125.868V155.4H124.508ZM128.023 165C128.023 164.347 128.21 163.787 128.583 163.32C128.957 162.84 129.47 162.473 130.123 162.22C130.79 161.953 131.557 161.82 132.423 161.82C132.93 161.82 133.457 161.86 134.003 161.94C134.55 162.02 135.037 162.14 135.463 162.3V161.42C135.463 160.54 135.203 159.84 134.683 159.32C134.163 158.8 133.443 158.54 132.523 158.54C131.963 158.54 131.41 158.647 130.863 158.86C130.33 159.06 129.77 159.36 129.183 159.76L128.663 158.8C129.343 158.333 130.01 157.987 130.663 157.76C131.317 157.52 131.983 157.4 132.663 157.4C133.943 157.4 134.957 157.767 135.703 158.5C136.45 159.233 136.823 160.247 136.823 161.54V166.36C136.823 166.547 136.863 166.687 136.943 166.78C137.023 166.86 137.15 166.907 137.323 166.92V168C137.177 168.013 137.05 168.027 136.943 168.04C136.837 168.053 136.757 168.053 136.703 168.04C136.37 168.027 136.117 167.92 135.943 167.72C135.77 167.52 135.677 167.307 135.663 167.08L135.643 166.32C135.177 166.92 134.57 167.387 133.823 167.72C133.077 168.04 132.317 168.2 131.543 168.2C130.877 168.2 130.27 168.06 129.723 167.78C129.19 167.487 128.77 167.1 128.463 166.62C128.17 166.127 128.023 165.587 128.023 165ZM135.003 165.8C135.15 165.613 135.263 165.433 135.343 165.26C135.423 165.087 135.463 164.933 135.463 164.8V163.28C135.01 163.107 134.537 162.973 134.043 162.88C133.563 162.787 133.077 162.74 132.583 162.74C131.61 162.74 130.823 162.933 130.223 163.32C129.623 163.707 129.323 164.233 129.323 164.9C129.323 165.287 129.423 165.653 129.623 166C129.823 166.333 130.117 166.613 130.503 166.84C130.89 167.053 131.343 167.16 131.863 167.16C132.517 167.16 133.123 167.033 133.683 166.78C134.257 166.527 134.697 166.2 135.003 165.8ZM148.522 168H147.162V162.18C147.162 160.953 146.982 160.06 146.622 159.5C146.262 158.927 145.695 158.64 144.922 158.64C144.388 158.64 143.862 158.773 143.342 159.04C142.822 159.293 142.362 159.647 141.962 160.1C141.575 160.54 141.295 161.047 141.122 161.62V168H139.762V157.58H141.002V159.94C141.282 159.433 141.648 158.993 142.102 158.62C142.555 158.233 143.068 157.933 143.642 157.72C144.215 157.507 144.808 157.4 145.422 157.4C145.995 157.4 146.482 157.507 146.882 157.72C147.282 157.933 147.602 158.24 147.842 158.64C148.082 159.027 148.255 159.5 148.362 160.06C148.468 160.607 148.522 161.22 148.522 161.9V168ZM160.182 168H158.822V162.18C158.822 160.953 158.642 160.06 158.282 159.5C157.922 158.927 157.355 158.64 156.582 158.64C156.049 158.64 155.522 158.773 155.002 159.04C154.482 159.293 154.022 159.647 153.622 160.1C153.235 160.54 152.955 161.047 152.782 161.62V168H151.422V157.58H152.662V159.94C152.942 159.433 153.309 158.993 153.762 158.62C154.215 158.233 154.729 157.933 155.302 157.72C155.875 157.507 156.469 157.4 157.082 157.4C157.655 157.4 158.142 157.507 158.542 157.72C158.942 157.933 159.262 158.24 159.502 158.64C159.742 159.027 159.915 159.5 160.022 160.06C160.129 160.607 160.182 161.22 160.182 161.9V168ZM162.242 165C162.242 164.347 162.429 163.787 162.802 163.32C163.175 162.84 163.689 162.473 164.342 162.22C165.009 161.953 165.775 161.82 166.642 161.82C167.149 161.82 167.675 161.86 168.222 161.94C168.769 162.02 169.255 162.14 169.682 162.3V161.42C169.682 160.54 169.422 159.84 168.902 159.32C168.382 158.8 167.662 158.54 166.742 158.54C166.182 158.54 165.629 158.647 165.082 158.86C164.549 159.06 163.989 159.36 163.402 159.76L162.882 158.8C163.562 158.333 164.229 157.987 164.882 157.76C165.535 157.52 166.202 157.4 166.882 157.4C168.162 157.4 169.175 157.767 169.922 158.5C170.669 159.233 171.042 160.247 171.042 161.54V166.36C171.042 166.547 171.082 166.687 171.162 166.78C171.242 166.86 171.369 166.907 171.542 166.92V168C171.395 168.013 171.269 168.027 171.162 168.04C171.055 168.053 170.975 168.053 170.922 168.04C170.589 168.027 170.335 167.92 170.162 167.72C169.989 167.52 169.895 167.307 169.882 167.08L169.862 166.32C169.395 166.92 168.789 167.387 168.042 167.72C167.295 168.04 166.535 168.2 165.762 168.2C165.095 168.2 164.489 168.06 163.942 167.78C163.409 167.487 162.989 167.1 162.682 166.62C162.389 166.127 162.242 165.587 162.242 165ZM169.222 165.8C169.369 165.613 169.482 165.433 169.562 165.26C169.642 165.087 169.682 164.933 169.682 164.8V163.28C169.229 163.107 168.755 162.973 168.262 162.88C167.782 162.787 167.295 162.74 166.802 162.74C165.829 162.74 165.042 162.933 164.442 163.32C163.842 163.707 163.542 164.233 163.542 164.9C163.542 165.287 163.642 165.653 163.842 166C164.042 166.333 164.335 166.613 164.722 166.84C165.109 167.053 165.562 167.16 166.082 167.16C166.735 167.16 167.342 167.033 167.902 166.78C168.475 166.527 168.915 166.2 169.222 165.8ZM178.615 153.8L183.695 166.26L188.755 153.8H190.215L184.335 168H183.055L177.155 153.8H178.615ZM191.969 168V157.58H193.329V168H191.969ZM191.969 155.4V153.4H193.329V155.4H191.969ZM200.504 168.14C199.798 168.14 199.144 167.993 198.544 167.7C197.944 167.407 197.424 167.013 196.984 166.52C196.558 166.013 196.224 165.44 195.984 164.8C195.744 164.16 195.624 163.5 195.624 162.82C195.624 162.087 195.738 161.4 195.964 160.76C196.204 160.107 196.538 159.527 196.964 159.02C197.404 158.513 197.918 158.12 198.504 157.84C199.091 157.547 199.744 157.4 200.464 157.4C201.358 157.4 202.131 157.627 202.784 158.08C203.451 158.533 204.011 159.093 204.464 159.76V157.58H205.684V168.04C205.684 169 205.451 169.807 204.984 170.46C204.531 171.127 203.911 171.627 203.124 171.96C202.351 172.293 201.504 172.46 200.584 172.46C199.398 172.46 198.438 172.247 197.704 171.82C196.971 171.393 196.371 170.82 195.904 170.1L196.744 169.44C197.158 170.093 197.704 170.58 198.384 170.9C199.078 171.22 199.811 171.38 200.584 171.38C201.264 171.38 201.884 171.253 202.444 171C203.018 170.76 203.471 170.393 203.804 169.9C204.151 169.407 204.324 168.787 204.324 168.04V165.98C203.924 166.633 203.378 167.16 202.684 167.56C201.991 167.947 201.264 168.14 200.504 168.14ZM200.884 167C201.298 167 201.691 166.927 202.064 166.78C202.451 166.633 202.804 166.44 203.124 166.2C203.444 165.947 203.711 165.667 203.924 165.36C204.138 165.053 204.271 164.74 204.324 164.42V161.2C204.124 160.693 203.838 160.247 203.464 159.86C203.091 159.46 202.664 159.153 202.184 158.94C201.718 158.713 201.231 158.6 200.724 158.6C200.138 158.6 199.611 158.727 199.144 158.98C198.691 159.22 198.304 159.547 197.984 159.96C197.678 160.36 197.438 160.813 197.264 161.32C197.091 161.827 197.004 162.333 197.004 162.84C197.004 163.4 197.104 163.933 197.304 164.44C197.504 164.933 197.778 165.38 198.124 165.78C198.484 166.167 198.898 166.467 199.364 166.68C199.844 166.893 200.351 167 200.884 167ZM217.448 168H216.088V162.18C216.088 160.953 215.908 160.06 215.548 159.5C215.188 158.927 214.621 158.64 213.848 158.64C213.314 158.64 212.788 158.773 212.268 159.04C211.748 159.293 211.288 159.647 210.888 160.1C210.501 160.54 210.221 161.047 210.048 161.62V168H208.688V157.58H209.928V159.94C210.208 159.433 210.574 158.993 211.028 158.62C211.481 158.233 211.994 157.933 212.568 157.72C213.141 157.507 213.734 157.4 214.348 157.4C214.921 157.4 215.408 157.507 215.808 157.72C216.208 157.933 216.528 158.24 216.768 158.64C217.008 159.027 217.181 159.5 217.287 160.06C217.394 160.607 217.448 161.22 217.448 161.9V168ZM219.508 165C219.508 164.347 219.694 163.787 220.068 163.32C220.441 162.84 220.954 162.473 221.608 162.22C222.274 161.953 223.041 161.82 223.908 161.82C224.414 161.82 224.941 161.86 225.488 161.94C226.034 162.02 226.521 162.14 226.948 162.3V161.42C226.948 160.54 226.688 159.84 226.168 159.32C225.648 158.8 224.928 158.54 224.008 158.54C223.448 158.54 222.894 158.647 222.348 158.86C221.814 159.06 221.254 159.36 220.668 159.76L220.148 158.8C220.828 158.333 221.494 157.987 222.148 157.76C222.801 157.52 223.468 157.4 224.148 157.4C225.428 157.4 226.441 157.767 227.188 158.5C227.934 159.233 228.308 160.247 228.308 161.54V166.36C228.308 166.547 228.348 166.687 228.428 166.78C228.508 166.86 228.634 166.907 228.808 166.92V168C228.661 168.013 228.534 168.027 228.428 168.04C228.321 168.053 228.241 168.053 228.188 168.04C227.854 168.027 227.601 167.92 227.428 167.72C227.254 167.52 227.161 167.307 227.148 167.08L227.128 166.32C226.661 166.92 226.054 167.387 225.308 167.72C224.561 168.04 223.801 168.2 223.028 168.2C222.361 168.2 221.754 168.06 221.208 167.78C220.674 167.487 220.254 167.1 219.948 166.62C219.654 166.127 219.508 165.587 219.508 165ZM226.488 165.8C226.634 165.613 226.748 165.433 226.828 165.26C226.908 165.087 226.948 164.933 226.948 164.8V163.28C226.494 163.107 226.021 162.973 225.528 162.88C225.048 162.787 224.561 162.74 224.068 162.74C223.094 162.74 222.308 162.933 221.708 163.32C221.108 163.707 220.808 164.233 220.808 164.9C220.808 165.287 220.908 165.653 221.108 166C221.308 166.333 221.601 166.613 221.988 166.84C222.374 167.053 222.828 167.16 223.348 167.16C224.001 167.16 224.608 167.033 225.168 166.78C225.741 166.527 226.181 166.2 226.488 165.8ZM236.168 167.5C236.061 167.54 235.895 167.613 235.668 167.72C235.441 167.827 235.168 167.92 234.848 168C234.528 168.08 234.181 168.12 233.808 168.12C233.421 168.12 233.055 168.047 232.708 167.9C232.375 167.753 232.108 167.533 231.908 167.24C231.708 166.933 231.608 166.56 231.608 166.12V158.66H230.168V157.58H231.608V154.06H232.968V157.58H235.368V158.66H232.968V165.74C232.995 166.113 233.128 166.393 233.368 166.58C233.621 166.767 233.908 166.86 234.228 166.86C234.601 166.86 234.941 166.8 235.248 166.68C235.555 166.547 235.741 166.453 235.808 166.4L236.168 167.5ZM237.867 168V157.58H239.227V168H237.867ZM237.867 155.4V153.4H239.227V155.4H237.867ZM242.443 169.62L242.783 167.94H242.323V166.04H243.643V167.94L243.143 169.62H242.443ZM260.393 156.46C260.193 156.233 259.959 156.033 259.693 155.86C259.426 155.673 259.126 155.513 258.793 155.38C258.459 155.247 258.099 155.14 257.713 155.06C257.339 154.98 256.939 154.94 256.513 154.94C255.273 154.94 254.359 155.18 253.773 155.66C253.199 156.127 252.913 156.767 252.913 157.58C252.913 158.14 253.046 158.58 253.313 158.9C253.593 159.22 254.026 159.48 254.613 159.68C255.199 159.88 255.946 160.087 256.853 160.3C257.866 160.513 258.739 160.767 259.473 161.06C260.206 161.353 260.773 161.753 261.173 162.26C261.573 162.753 261.773 163.427 261.773 164.28C261.773 164.933 261.646 165.5 261.393 165.98C261.139 166.46 260.786 166.86 260.333 167.18C259.879 167.5 259.339 167.74 258.713 167.9C258.086 168.047 257.399 168.12 256.653 168.12C255.919 168.12 255.213 168.047 254.533 167.9C253.866 167.74 253.233 167.513 252.633 167.22C252.033 166.913 251.473 166.527 250.953 166.06L251.653 164.92C251.906 165.187 252.206 165.44 252.553 165.68C252.913 165.907 253.306 166.113 253.733 166.3C254.173 166.487 254.639 166.633 255.133 166.74C255.639 166.833 256.159 166.88 256.693 166.88C257.826 166.88 258.706 166.673 259.333 166.26C259.973 165.847 260.293 165.233 260.293 164.42C260.293 163.833 260.133 163.367 259.813 163.02C259.493 162.66 259.013 162.367 258.373 162.14C257.733 161.913 256.946 161.693 256.013 161.48C255.026 161.253 254.193 161 253.513 160.72C252.833 160.44 252.319 160.073 251.973 159.62C251.639 159.153 251.473 158.54 251.473 157.78C251.473 156.9 251.686 156.16 252.113 155.56C252.553 154.947 253.153 154.487 253.913 154.18C254.673 153.86 255.546 153.7 256.533 153.7C257.159 153.7 257.739 153.767 258.273 153.9C258.819 154.02 259.319 154.2 259.773 154.44C260.239 154.68 260.673 154.98 261.073 155.34L260.393 156.46ZM268.461 168.2C267.714 168.2 267.021 168.06 266.381 167.78C265.741 167.487 265.188 167.093 264.721 166.6C264.254 166.093 263.888 165.513 263.621 164.86C263.368 164.207 263.241 163.507 263.241 162.76C263.241 161.787 263.461 160.893 263.901 160.08C264.354 159.267 264.974 158.62 265.761 158.14C266.548 157.647 267.441 157.4 268.441 157.4C269.468 157.4 270.361 157.647 271.121 158.14C271.894 158.633 272.501 159.287 272.941 160.1C273.381 160.9 273.601 161.78 273.601 162.74C273.601 162.847 273.601 162.953 273.601 163.06C273.601 163.153 273.594 163.227 273.581 163.28H264.661C264.728 164.027 264.934 164.693 265.281 165.28C265.641 165.853 266.101 166.313 266.661 166.66C267.234 166.993 267.854 167.16 268.521 167.16C269.201 167.16 269.841 166.987 270.441 166.64C271.054 166.293 271.481 165.84 271.721 165.28L272.901 165.6C272.688 166.093 272.361 166.54 271.921 166.94C271.481 167.34 270.961 167.653 270.361 167.88C269.774 168.093 269.141 168.2 268.461 168.2ZM264.621 162.3H272.321C272.268 161.54 272.061 160.873 271.701 160.3C271.354 159.727 270.894 159.28 270.321 158.96C269.761 158.627 269.141 158.46 268.461 158.46C267.781 158.46 267.161 158.627 266.601 158.96C266.041 159.28 265.581 159.733 265.221 160.32C264.874 160.893 264.674 161.553 264.621 162.3ZM280.899 158.78C279.993 158.807 279.193 159.06 278.499 159.54C277.819 160.02 277.339 160.68 277.059 161.52V168H275.699V157.58H276.979V160.08C277.339 159.347 277.813 158.753 278.399 158.3C278.999 157.847 279.633 157.593 280.299 157.54C280.433 157.527 280.546 157.52 280.639 157.52C280.746 157.52 280.833 157.527 280.899 157.54V158.78ZM286.598 168.14C285.891 168.14 285.238 167.993 284.638 167.7C284.038 167.407 283.518 167.013 283.078 166.52C282.651 166.013 282.318 165.44 282.078 164.8C281.838 164.16 281.718 163.5 281.718 162.82C281.718 162.087 281.831 161.4 282.058 160.76C282.298 160.107 282.631 159.527 283.058 159.02C283.498 158.513 284.011 158.12 284.598 157.84C285.185 157.547 285.838 157.4 286.558 157.4C287.451 157.4 288.225 157.627 288.878 158.08C289.545 158.533 290.105 159.093 290.558 159.76V157.58H291.778V168.04C291.778 169 291.545 169.807 291.078 170.46C290.625 171.127 290.005 171.627 289.218 171.96C288.445 172.293 287.598 172.46 286.678 172.46C285.491 172.46 284.531 172.247 283.798 171.82C283.065 171.393 282.465 170.82 281.998 170.1L282.838 169.44C283.251 170.093 283.798 170.58 284.478 170.9C285.171 171.22 285.905 171.38 286.678 171.38C287.358 171.38 287.978 171.253 288.538 171C289.111 170.76 289.565 170.393 289.898 169.9C290.245 169.407 290.418 168.787 290.418 168.04V165.98C290.018 166.633 289.471 167.16 288.778 167.56C288.085 167.947 287.358 168.14 286.598 168.14ZM286.978 167C287.391 167 287.785 166.927 288.158 166.78C288.545 166.633 288.898 166.44 289.218 166.2C289.538 165.947 289.805 165.667 290.018 165.36C290.231 165.053 290.365 164.74 290.418 164.42V161.2C290.218 160.693 289.931 160.247 289.558 159.86C289.185 159.46 288.758 159.153 288.278 158.94C287.811 158.713 287.325 158.6 286.818 158.6C286.231 158.6 285.705 158.727 285.238 158.98C284.785 159.22 284.398 159.547 284.078 159.96C283.771 160.36 283.531 160.813 283.358 161.32C283.185 161.827 283.098 162.333 283.098 162.84C283.098 163.4 283.198 163.933 283.398 164.44C283.598 164.933 283.871 165.38 284.218 165.78C284.578 166.167 284.991 166.467 285.458 166.68C285.938 166.893 286.445 167 286.978 167ZM294.781 168V157.58H296.141V168H294.781ZM294.781 155.4V153.4H296.141V155.4H294.781ZM303.577 168.2C302.83 168.2 302.137 168.06 301.497 167.78C300.87 167.487 300.323 167.093 299.857 166.6C299.403 166.093 299.05 165.52 298.797 164.88C298.543 164.227 298.417 163.54 298.417 162.82C298.417 162.073 298.543 161.38 298.797 160.74C299.05 160.087 299.41 159.513 299.877 159.02C300.343 158.513 300.89 158.12 301.517 157.84C302.157 157.547 302.85 157.4 303.597 157.4C304.343 157.4 305.03 157.547 305.657 157.84C306.283 158.12 306.83 158.513 307.297 159.02C307.763 159.513 308.123 160.087 308.377 160.74C308.63 161.38 308.757 162.073 308.757 162.82C308.757 163.54 308.63 164.227 308.377 164.88C308.123 165.52 307.763 166.093 307.297 166.6C306.843 167.093 306.297 167.487 305.657 167.78C305.03 168.06 304.337 168.2 303.577 168.2ZM299.797 162.84C299.797 163.613 299.963 164.32 300.297 164.96C300.643 165.587 301.103 166.087 301.677 166.46C302.25 166.82 302.883 167 303.577 167C304.27 167 304.903 166.813 305.477 166.44C306.05 166.067 306.51 165.56 306.857 164.92C307.203 164.267 307.377 163.56 307.377 162.8C307.377 162.027 307.203 161.32 306.857 160.68C306.51 160.04 306.05 159.533 305.477 159.16C304.903 158.787 304.27 158.6 303.577 158.6C302.883 158.6 302.25 158.793 301.677 159.18C301.117 159.567 300.663 160.08 300.317 160.72C299.97 161.347 299.797 162.053 299.797 162.84ZM315.469 160.8C315.469 159.933 315.616 159.087 315.909 158.26C316.216 157.42 316.656 156.66 317.229 155.98C317.802 155.287 318.509 154.74 319.349 154.34C320.189 153.927 321.142 153.72 322.209 153.72C323.476 153.72 324.556 154.013 325.449 154.6C326.356 155.173 327.022 155.913 327.449 156.82L326.349 157.5C326.042 156.873 325.656 156.38 325.189 156.02C324.722 155.647 324.222 155.38 323.689 155.22C323.169 155.06 322.649 154.98 322.129 154.98C321.276 154.98 320.522 155.153 319.869 155.5C319.216 155.833 318.662 156.287 318.209 156.86C317.769 157.42 317.436 158.053 317.209 158.76C316.982 159.453 316.869 160.16 316.869 160.88C316.869 161.667 317.002 162.42 317.269 163.14C317.536 163.86 317.909 164.5 318.389 165.06C318.869 165.607 319.429 166.047 320.069 166.38C320.722 166.7 321.429 166.86 322.189 166.86C322.722 166.86 323.269 166.767 323.829 166.58C324.389 166.393 324.909 166.107 325.389 165.72C325.882 165.333 326.276 164.833 326.569 164.22L327.729 164.82C327.436 165.527 326.982 166.127 326.369 166.62C325.756 167.113 325.069 167.487 324.309 167.74C323.562 167.993 322.829 168.12 322.109 168.12C321.136 168.12 320.242 167.913 319.429 167.5C318.616 167.073 317.909 166.513 317.309 165.82C316.722 165.113 316.269 164.327 315.949 163.46C315.629 162.58 315.469 161.693 315.469 160.8ZM329 165C329 164.347 329.187 163.787 329.56 163.32C329.933 162.84 330.447 162.473 331.1 162.22C331.767 161.953 332.533 161.82 333.4 161.82C333.907 161.82 334.433 161.86 334.98 161.94C335.527 162.02 336.013 162.14 336.44 162.3V161.42C336.44 160.54 336.18 159.84 335.66 159.32C335.14 158.8 334.42 158.54 333.5 158.54C332.94 158.54 332.387 158.647 331.84 158.86C331.307 159.06 330.747 159.36 330.16 159.76L329.64 158.8C330.32 158.333 330.987 157.987 331.64 157.76C332.293 157.52 332.96 157.4 333.64 157.4C334.92 157.4 335.933 157.767 336.68 158.5C337.427 159.233 337.8 160.247 337.8 161.54V166.36C337.8 166.547 337.84 166.687 337.92 166.78C338 166.86 338.127 166.907 338.3 166.92V168C338.153 168.013 338.027 168.027 337.92 168.04C337.813 168.053 337.733 168.053 337.68 168.04C337.347 168.027 337.093 167.92 336.92 167.72C336.747 167.52 336.653 167.307 336.64 167.08L336.62 166.32C336.153 166.92 335.547 167.387 334.8 167.72C334.053 168.04 333.293 168.2 332.52 168.2C331.853 168.2 331.247 168.06 330.7 167.78C330.167 167.487 329.747 167.1 329.44 166.62C329.147 166.127 329 165.587 329 165ZM335.98 165.8C336.127 165.613 336.24 165.433 336.32 165.26C336.4 165.087 336.44 164.933 336.44 164.8V163.28C335.987 163.107 335.513 162.973 335.02 162.88C334.54 162.787 334.053 162.74 333.56 162.74C332.587 162.74 331.8 162.933 331.2 163.32C330.6 163.707 330.3 164.233 330.3 164.9C330.3 165.287 330.4 165.653 330.6 166C330.8 166.333 331.093 166.613 331.48 166.84C331.867 167.053 332.32 167.16 332.84 167.16C333.493 167.16 334.1 167.033 334.66 166.78C335.233 166.527 335.673 166.2 335.98 165.8ZM356.238 168H354.878V162.18C354.878 160.967 354.685 160.073 354.298 159.5C353.912 158.927 353.338 158.64 352.578 158.64C351.792 158.64 351.085 158.92 350.458 159.48C349.845 160.04 349.412 160.76 349.158 161.64V168H347.798V162.18C347.798 160.953 347.612 160.06 347.238 159.5C346.865 158.927 346.292 158.64 345.518 158.64C344.745 158.64 344.045 158.913 343.418 159.46C342.792 160.007 342.352 160.727 342.098 161.62V168H340.738V157.58H341.978V159.94C342.418 159.127 342.978 158.5 343.658 158.06C344.352 157.62 345.118 157.4 345.958 157.4C346.825 157.4 347.525 157.647 348.058 158.14C348.592 158.633 348.918 159.28 349.038 160.08C349.518 159.2 350.092 158.533 350.758 158.08C351.438 157.627 352.205 157.4 353.058 157.4C353.645 157.4 354.138 157.507 354.538 157.72C354.952 157.933 355.278 158.24 355.518 158.64C355.772 159.027 355.952 159.5 356.058 160.06C356.178 160.607 356.238 161.22 356.238 161.9V168ZM364.437 168.2C363.571 168.2 362.791 167.973 362.097 167.52C361.417 167.067 360.877 166.507 360.477 165.84V172.26H359.117V157.58H360.337V159.6C360.751 158.947 361.304 158.42 361.997 158.02C362.691 157.607 363.431 157.4 364.217 157.4C364.937 157.4 365.597 157.553 366.197 157.86C366.797 158.153 367.317 158.553 367.757 159.06C368.197 159.567 368.537 160.147 368.777 160.8C369.031 161.44 369.157 162.107 369.157 162.8C369.157 163.773 368.957 164.673 368.557 165.5C368.171 166.313 367.624 166.967 366.917 167.46C366.211 167.953 365.384 168.2 364.437 168.2ZM364.057 167C364.631 167 365.144 166.887 365.597 166.66C366.051 166.42 366.437 166.1 366.757 165.7C367.091 165.3 367.344 164.853 367.517 164.36C367.691 163.853 367.777 163.333 367.777 162.8C367.777 162.24 367.677 161.707 367.477 161.2C367.291 160.693 367.017 160.247 366.657 159.86C366.297 159.473 365.884 159.167 365.417 158.94C364.951 158.713 364.444 158.6 363.897 158.6C363.551 158.6 363.191 158.667 362.817 158.8C362.444 158.933 362.084 159.127 361.737 159.38C361.404 159.62 361.124 159.893 360.897 160.2C360.671 160.507 360.531 160.833 360.477 161.18V164.38C360.691 164.873 360.977 165.32 361.337 165.72C361.697 166.107 362.111 166.42 362.577 166.66C363.057 166.887 363.551 167 364.057 167ZM375.901 168.2C375.154 168.2 374.461 168.06 373.821 167.78C373.194 167.487 372.648 167.093 372.181 166.6C371.728 166.093 371.374 165.52 371.121 164.88C370.868 164.227 370.741 163.54 370.741 162.82C370.741 162.073 370.868 161.38 371.121 160.74C371.374 160.087 371.734 159.513 372.201 159.02C372.668 158.513 373.214 158.12 373.841 157.84C374.481 157.547 375.174 157.4 375.921 157.4C376.668 157.4 377.354 157.547 377.981 157.84C378.608 158.12 379.154 158.513 379.621 159.02C380.088 159.513 380.448 160.087 380.701 160.74C380.954 161.38 381.081 162.073 381.081 162.82C381.081 163.54 380.954 164.227 380.701 164.88C380.448 165.52 380.088 166.093 379.621 166.6C379.168 167.093 378.621 167.487 377.981 167.78C377.354 168.06 376.661 168.2 375.901 168.2ZM372.121 162.84C372.121 163.613 372.288 164.32 372.621 164.96C372.968 165.587 373.428 166.087 374.001 166.46C374.574 166.82 375.208 167 375.901 167C376.594 167 377.228 166.813 377.801 166.44C378.374 166.067 378.834 165.56 379.181 164.92C379.528 164.267 379.701 163.56 379.701 162.8C379.701 162.027 379.528 161.32 379.181 160.68C378.834 160.04 378.374 159.533 377.801 159.16C377.228 158.787 376.594 158.6 375.901 158.6C375.208 158.6 374.574 158.793 374.001 159.18C373.441 159.567 372.988 160.08 372.641 160.72C372.294 161.347 372.121 162.053 372.121 162.84ZM25.8 185.82C25.8 184.833 26 183.933 26.4 183.12C26.8133 182.293 27.38 181.633 28.1 181.14C28.82 180.647 29.64 180.4 30.56 180.4C31.4267 180.4 32.2 180.633 32.88 181.1C33.5733 181.553 34.1133 182.107 34.5 182.76V176.4H35.86V189.36C35.86 189.547 35.9 189.687 35.98 189.78C36.06 189.86 36.18 189.907 36.34 189.92V191C36.0733 191.04 35.8667 191.053 35.72 191.04C35.44 191.027 35.1933 190.913 34.98 190.7C34.7667 190.487 34.66 190.253 34.66 190V188.98C34.2467 189.66 33.6867 190.2 32.98 190.6C32.2733 191 31.54 191.2 30.78 191.2C30.06 191.2 29.3933 191.053 28.78 190.76C28.18 190.467 27.6533 190.067 27.2 189.56C26.76 189.053 26.4133 188.48 26.16 187.84C25.92 187.187 25.8 186.513 25.8 185.82ZM34.5 187.42V184.2C34.3267 183.72 34.0467 183.287 33.66 182.9C33.2733 182.5 32.8333 182.187 32.34 181.96C31.86 181.72 31.38 181.6 30.9 181.6C30.34 181.6 29.8333 181.72 29.38 181.96C28.9267 182.187 28.5333 182.5 28.2 182.9C27.88 183.3 27.6333 183.753 27.46 184.26C27.2867 184.767 27.2 185.287 27.2 185.82C27.2 186.38 27.2933 186.913 27.48 187.42C27.68 187.927 27.96 188.38 28.32 188.78C28.68 189.167 29.0933 189.467 29.56 189.68C30.0267 189.893 30.5333 190 31.08 190C31.4267 190 31.7867 189.933 32.16 189.8C32.5333 189.667 32.8867 189.487 33.22 189.26C33.5667 189.02 33.8533 188.74 34.08 188.42C34.3067 188.1 34.4467 187.767 34.5 187.42ZM38.1014 188C38.1014 187.347 38.2881 186.787 38.6614 186.32C39.0347 185.84 39.5481 185.473 40.2014 185.22C40.8681 184.953 41.6347 184.82 42.5014 184.82C43.0081 184.82 43.5347 184.86 44.0814 184.94C44.6281 185.02 45.1147 185.14 45.5414 185.3V184.42C45.5414 183.54 45.2814 182.84 44.7614 182.32C44.2414 181.8 43.5214 181.54 42.6014 181.54C42.0414 181.54 41.4881 181.647 40.9414 181.86C40.4081 182.06 39.8481 182.36 39.2614 182.76L38.7414 181.8C39.4214 181.333 40.0881 180.987 40.7414 180.76C41.3947 180.52 42.0614 180.4 42.7414 180.4C44.0214 180.4 45.0347 180.767 45.7814 181.5C46.5281 182.233 46.9014 183.247 46.9014 184.54V189.36C46.9014 189.547 46.9414 189.687 47.0214 189.78C47.1014 189.86 47.2281 189.907 47.4014 189.92V191C47.2547 191.013 47.1281 191.027 47.0214 191.04C46.9147 191.053 46.8347 191.053 46.7814 191.04C46.4481 191.027 46.1947 190.92 46.0214 190.72C45.8481 190.52 45.7547 190.307 45.7414 190.08L45.7214 189.32C45.2547 189.92 44.6481 190.387 43.9014 190.72C43.1547 191.04 42.3947 191.2 41.6214 191.2C40.9547 191.2 40.3481 191.06 39.8014 190.78C39.2681 190.487 38.8481 190.1 38.5414 189.62C38.2481 189.127 38.1014 188.587 38.1014 188ZM45.0814 188.8C45.2281 188.613 45.3414 188.433 45.4214 188.26C45.5014 188.087 45.5414 187.933 45.5414 187.8V186.28C45.0881 186.107 44.6147 185.973 44.1214 185.88C43.6414 185.787 43.1547 185.74 42.6614 185.74C41.6881 185.74 40.9014 185.933 40.3014 186.32C39.7014 186.707 39.4014 187.233 39.4014 187.9C39.4014 188.287 39.5014 188.653 39.7014 189C39.9014 189.333 40.1947 189.613 40.5814 189.84C40.9681 190.053 41.4214 190.16 41.9414 190.16C42.5947 190.16 43.2014 190.033 43.7614 189.78C44.3347 189.527 44.7747 189.2 45.0814 188.8ZM49.8998 176.4H51.2598V188.64C51.2598 189.16 51.3532 189.5 51.5398 189.66C51.7265 189.82 51.9532 189.9 52.2198 189.9C52.4598 189.9 52.6998 189.873 52.9398 189.82C53.1798 189.767 53.3865 189.713 53.5598 189.66L53.7998 190.76C53.5465 190.867 53.2332 190.953 52.8598 191.02C52.4998 191.087 52.1865 191.12 51.9198 191.12C51.3065 191.12 50.8132 190.94 50.4398 190.58C50.0798 190.22 49.8998 189.727 49.8998 189.1V176.4ZM55.3491 176.4H56.7091V188.64C56.7091 189.16 56.8024 189.5 56.9891 189.66C57.1757 189.82 57.4024 189.9 57.6691 189.9C57.9091 189.9 58.1491 189.873 58.3891 189.82C58.6291 189.767 58.8357 189.713 59.0091 189.66L59.2491 190.76C58.9957 190.867 58.6824 190.953 58.3091 191.02C57.9491 191.087 57.6357 191.12 57.3691 191.12C56.7557 191.12 56.2624 190.94 55.8891 190.58C55.5291 190.22 55.3491 189.727 55.3491 189.1V176.4ZM60.3253 180.58V176.68H61.5053V180.58H60.3253ZM70.3906 191.1C69.3906 191.1 68.484 190.9 67.6706 190.5C66.8573 190.1 66.1573 189.56 65.5706 188.88C64.984 188.187 64.5306 187.413 64.2106 186.56C63.8906 185.693 63.7306 184.807 63.7306 183.9C63.7306 182.953 63.8973 182.053 64.2306 181.2C64.564 180.333 65.0306 179.567 65.6306 178.9C66.244 178.22 66.9573 177.687 67.7706 177.3C68.584 176.9 69.464 176.7 70.4106 176.7C71.4106 176.7 72.3173 176.907 73.1306 177.32C73.944 177.733 74.6373 178.287 75.2106 178.98C75.7973 179.673 76.2506 180.447 76.5706 181.3C76.8906 182.153 77.0506 183.027 77.0506 183.92C77.0506 184.867 76.884 185.773 76.5506 186.64C76.2173 187.493 75.7506 188.26 75.1506 188.94C74.5506 189.607 73.844 190.133 73.0306 190.52C72.2173 190.907 71.3373 191.1 70.3906 191.1ZM65.1306 183.9C65.1306 184.673 65.2573 185.42 65.5106 186.14C65.764 186.847 66.124 187.48 66.5906 188.04C67.0573 188.587 67.6106 189.027 68.2506 189.36C68.904 189.68 69.6173 189.84 70.3906 189.84C71.204 189.84 71.9306 189.673 72.5706 189.34C73.224 188.993 73.7773 188.54 74.2306 187.98C74.6973 187.407 75.0506 186.767 75.2906 186.06C75.5306 185.353 75.6506 184.633 75.6506 183.9C75.6506 183.127 75.524 182.387 75.2706 181.68C75.0173 180.973 74.6506 180.34 74.1706 179.78C73.704 179.22 73.1506 178.78 72.5106 178.46C71.8706 178.14 71.164 177.98 70.3906 177.98C69.5906 177.98 68.864 178.147 68.2106 178.48C67.5706 178.813 67.0173 179.267 66.5506 179.84C66.0973 180.4 65.744 181.033 65.4906 181.74C65.2506 182.447 65.1306 183.167 65.1306 183.9ZM84.532 181.78C83.6254 181.807 82.8254 182.06 82.132 182.54C81.452 183.02 80.972 183.68 80.692 184.52V191H79.332V180.58H80.612V183.08C80.972 182.347 81.4454 181.753 82.032 181.3C82.632 180.847 83.2654 180.593 83.932 180.54C84.0654 180.527 84.1787 180.52 84.272 180.52C84.3787 180.52 84.4654 180.527 84.532 180.54V181.78ZM91.3438 190.5C91.2371 190.54 91.0704 190.613 90.8438 190.72C90.6171 190.827 90.3438 190.92 90.0238 191C89.7038 191.08 89.3571 191.12 88.9838 191.12C88.5971 191.12 88.2304 191.047 87.8838 190.9C87.5504 190.753 87.2838 190.533 87.0838 190.24C86.8838 189.933 86.7838 189.56 86.7838 189.12V181.66H85.3438V180.58H86.7838V177.06H88.1438V180.58H90.5438V181.66H88.1438V188.74C88.1704 189.113 88.3038 189.393 88.5438 189.58C88.7971 189.767 89.0838 189.86 89.4038 189.86C89.7771 189.86 90.1171 189.8 90.4238 189.68C90.7304 189.547 90.9171 189.453 90.9838 189.4L91.3438 190.5ZM97.3072 191.2C96.5605 191.2 95.8672 191.06 95.2272 190.78C94.6005 190.487 94.0539 190.093 93.5872 189.6C93.1339 189.093 92.7805 188.52 92.5272 187.88C92.2739 187.227 92.1472 186.54 92.1472 185.82C92.1472 185.073 92.2739 184.38 92.5272 183.74C92.7805 183.087 93.1405 182.513 93.6072 182.02C94.0739 181.513 94.6205 181.12 95.2472 180.84C95.8872 180.547 96.5805 180.4 97.3272 180.4C98.0739 180.4 98.7605 180.547 99.3872 180.84C100.014 181.12 100.561 181.513 101.027 182.02C101.494 182.513 101.854 183.087 102.107 183.74C102.361 184.38 102.487 185.073 102.487 185.82C102.487 186.54 102.361 187.227 102.107 187.88C101.854 188.52 101.494 189.093 101.027 189.6C100.574 190.093 100.027 190.487 99.3872 190.78C98.7605 191.06 98.0672 191.2 97.3072 191.2ZM93.5272 185.84C93.5272 186.613 93.6939 187.32 94.0272 187.96C94.3739 188.587 94.8339 189.087 95.4072 189.46C95.9805 189.82 96.6139 190 97.3072 190C98.0005 190 98.6339 189.813 99.2072 189.44C99.7805 189.067 100.241 188.56 100.587 187.92C100.934 187.267 101.107 186.56 101.107 185.8C101.107 185.027 100.934 184.32 100.587 183.68C100.241 183.04 99.7805 182.533 99.2072 182.16C98.6339 181.787 98.0005 181.6 97.3072 181.6C96.6139 181.6 95.9805 181.793 95.4072 182.18C94.8472 182.567 94.3939 183.08 94.0472 183.72C93.7005 184.347 93.5272 185.053 93.5272 185.84ZM114.379 191.2C113.619 191.2 112.919 191.06 112.279 190.78C111.653 190.487 111.099 190.087 110.619 189.58C110.153 189.073 109.786 188.493 109.519 187.84C109.266 187.187 109.139 186.493 109.139 185.76C109.139 184.773 109.359 183.873 109.799 183.06C110.239 182.247 110.853 181.6 111.639 181.12C112.426 180.64 113.333 180.4 114.359 180.4C115.333 180.4 116.193 180.627 116.939 181.08C117.686 181.52 118.239 182.12 118.599 182.88L117.279 183.3C116.986 182.767 116.573 182.353 116.039 182.06C115.519 181.753 114.939 181.6 114.299 181.6C113.606 181.6 112.973 181.78 112.399 182.14C111.826 182.5 111.366 182.993 111.019 183.62C110.686 184.247 110.519 184.96 110.519 185.76C110.519 186.547 110.693 187.26 111.039 187.9C111.386 188.54 111.846 189.053 112.419 189.44C112.993 189.813 113.626 190 114.319 190C114.773 190 115.206 189.92 115.619 189.76C116.046 189.6 116.413 189.387 116.719 189.12C117.039 188.84 117.253 188.54 117.359 188.22L118.699 188.62C118.513 189.113 118.199 189.56 117.759 189.96C117.333 190.347 116.826 190.653 116.239 190.88C115.666 191.093 115.046 191.2 114.379 191.2ZM126.036 181.78C125.129 181.807 124.329 182.06 123.636 182.54C122.956 183.02 122.476 183.68 122.196 184.52V191H120.836V180.58H122.116V183.08C122.476 182.347 122.949 181.753 123.536 181.3C124.136 180.847 124.769 180.593 125.436 180.54C125.569 180.527 125.683 180.52 125.776 180.52C125.883 180.52 125.969 180.527 126.036 180.54V181.78ZM132.016 191.2C131.269 191.2 130.576 191.06 129.936 190.78C129.296 190.487 128.742 190.093 128.276 189.6C127.809 189.093 127.442 188.513 127.176 187.86C126.922 187.207 126.796 186.507 126.796 185.76C126.796 184.787 127.016 183.893 127.456 183.08C127.909 182.267 128.529 181.62 129.316 181.14C130.102 180.647 130.996 180.4 131.996 180.4C133.022 180.4 133.916 180.647 134.676 181.14C135.449 181.633 136.056 182.287 136.496 183.1C136.936 183.9 137.156 184.78 137.156 185.74C137.156 185.847 137.156 185.953 137.156 186.06C137.156 186.153 137.149 186.227 137.136 186.28H128.216C128.282 187.027 128.489 187.693 128.836 188.28C129.196 188.853 129.656 189.313 130.216 189.66C130.789 189.993 131.409 190.16 132.076 190.16C132.756 190.16 133.396 189.987 133.996 189.64C134.609 189.293 135.036 188.84 135.276 188.28L136.456 188.6C136.242 189.093 135.916 189.54 135.476 189.94C135.036 190.34 134.516 190.653 133.916 190.88C133.329 191.093 132.696 191.2 132.016 191.2ZM128.176 185.3H135.876C135.822 184.54 135.616 183.873 135.256 183.3C134.909 182.727 134.449 182.28 133.876 181.96C133.316 181.627 132.696 181.46 132.016 181.46C131.336 181.46 130.716 181.627 130.156 181.96C129.596 182.28 129.136 182.733 128.776 183.32C128.429 183.893 128.229 184.553 128.176 185.3ZM138.414 188C138.414 187.347 138.601 186.787 138.974 186.32C139.347 185.84 139.861 185.473 140.514 185.22C141.181 184.953 141.947 184.82 142.814 184.82C143.321 184.82 143.847 184.86 144.394 184.94C144.941 185.02 145.427 185.14 145.854 185.3V184.42C145.854 183.54 145.594 182.84 145.074 182.32C144.554 181.8 143.834 181.54 142.914 181.54C142.354 181.54 141.801 181.647 141.254 181.86C140.721 182.06 140.161 182.36 139.574 182.76L139.054 181.8C139.734 181.333 140.401 180.987 141.054 180.76C141.707 180.52 142.374 180.4 143.054 180.4C144.334 180.4 145.347 180.767 146.094 181.5C146.841 182.233 147.214 183.247 147.214 184.54V189.36C147.214 189.547 147.254 189.687 147.334 189.78C147.414 189.86 147.541 189.907 147.714 189.92V191C147.567 191.013 147.441 191.027 147.334 191.04C147.227 191.053 147.147 191.053 147.094 191.04C146.761 191.027 146.507 190.92 146.334 190.72C146.161 190.52 146.067 190.307 146.054 190.08L146.034 189.32C145.567 189.92 144.961 190.387 144.214 190.72C143.467 191.04 142.707 191.2 141.934 191.2C141.267 191.2 140.661 191.06 140.114 190.78C139.581 190.487 139.161 190.1 138.854 189.62C138.561 189.127 138.414 188.587 138.414 188ZM145.394 188.8C145.541 188.613 145.654 188.433 145.734 188.26C145.814 188.087 145.854 187.933 145.854 187.8V186.28C145.401 186.107 144.927 185.973 144.434 185.88C143.954 185.787 143.467 185.74 142.974 185.74C142.001 185.74 141.214 185.933 140.614 186.32C140.014 186.707 139.714 187.233 139.714 187.9C139.714 188.287 139.814 188.653 140.014 189C140.214 189.333 140.507 189.613 140.894 189.84C141.281 190.053 141.734 190.16 142.254 190.16C142.907 190.16 143.514 190.033 144.074 189.78C144.647 189.527 145.087 189.2 145.394 188.8ZM155.074 190.5C154.968 190.54 154.801 190.613 154.574 190.72C154.348 190.827 154.074 190.92 153.754 191C153.434 191.08 153.088 191.12 152.714 191.12C152.328 191.12 151.961 191.047 151.614 190.9C151.281 190.753 151.014 190.533 150.814 190.24C150.614 189.933 150.514 189.56 150.514 189.12V181.66H149.074V180.58H150.514V177.06H151.874V180.58H154.274V181.66H151.874V188.74C151.901 189.113 152.034 189.393 152.274 189.58C152.528 189.767 152.814 189.86 153.134 189.86C153.508 189.86 153.848 189.8 154.154 189.68C154.461 189.547 154.648 189.453 154.714 189.4L155.074 190.5ZM161.098 191.2C160.351 191.2 159.658 191.06 159.018 190.78C158.378 190.487 157.824 190.093 157.358 189.6C156.891 189.093 156.524 188.513 156.258 187.86C156.004 187.207 155.878 186.507 155.878 185.76C155.878 184.787 156.098 183.893 156.538 183.08C156.991 182.267 157.611 181.62 158.398 181.14C159.184 180.647 160.078 180.4 161.078 180.4C162.104 180.4 162.998 180.647 163.758 181.14C164.531 181.633 165.138 182.287 165.578 183.1C166.018 183.9 166.238 184.78 166.238 185.74C166.238 185.847 166.238 185.953 166.238 186.06C166.238 186.153 166.231 186.227 166.218 186.28H157.298C157.364 187.027 157.571 187.693 157.918 188.28C158.278 188.853 158.738 189.313 159.298 189.66C159.871 189.993 160.491 190.16 161.158 190.16C161.838 190.16 162.478 189.987 163.078 189.64C163.691 189.293 164.118 188.84 164.358 188.28L165.538 188.6C165.324 189.093 164.998 189.54 164.558 189.94C164.118 190.34 163.598 190.653 162.998 190.88C162.411 191.093 161.778 191.2 161.098 191.2ZM157.258 185.3H164.958C164.904 184.54 164.698 183.873 164.338 183.3C163.991 182.727 163.531 182.28 162.958 181.96C162.398 181.627 161.778 181.46 161.098 181.46C160.418 181.46 159.798 181.627 159.238 181.96C158.678 182.28 158.218 182.733 157.858 183.32C157.511 183.893 157.311 184.553 157.258 185.3ZM167.636 185.82C167.636 184.833 167.836 183.933 168.236 183.12C168.649 182.293 169.216 181.633 169.936 181.14C170.656 180.647 171.476 180.4 172.396 180.4C173.263 180.4 174.036 180.633 174.716 181.1C175.409 181.553 175.949 182.107 176.336 182.76V176.4H177.696V189.36C177.696 189.547 177.736 189.687 177.816 189.78C177.896 189.86 178.016 189.907 178.176 189.92V191C177.909 191.04 177.703 191.053 177.556 191.04C177.276 191.027 177.029 190.913 176.816 190.7C176.603 190.487 176.496 190.253 176.496 190V188.98C176.083 189.66 175.523 190.2 174.816 190.6C174.109 191 173.376 191.2 172.616 191.2C171.896 191.2 171.229 191.053 170.616 190.76C170.016 190.467 169.489 190.067 169.036 189.56C168.596 189.053 168.249 188.48 167.996 187.84C167.756 187.187 167.636 186.513 167.636 185.82ZM176.336 187.42V184.2C176.163 183.72 175.883 183.287 175.496 182.9C175.109 182.5 174.669 182.187 174.176 181.96C173.696 181.72 173.216 181.6 172.736 181.6C172.176 181.6 171.669 181.72 171.216 181.96C170.763 182.187 170.369 182.5 170.036 182.9C169.716 183.3 169.469 183.753 169.296 184.26C169.123 184.767 169.036 185.287 169.036 185.82C169.036 186.38 169.129 186.913 169.316 187.42C169.516 187.927 169.796 188.38 170.156 188.78C170.516 189.167 170.929 189.467 171.396 189.68C171.863 189.893 172.369 190 172.916 190C173.263 190 173.623 189.933 173.996 189.8C174.369 189.667 174.723 189.487 175.056 189.26C175.403 189.02 175.689 188.74 175.916 188.42C176.143 188.1 176.283 187.767 176.336 187.42ZM195.649 178.04H190.589V191H189.189V178.04H184.129V176.8H195.649V178.04ZM206.256 191H204.896V185.18C204.896 184.007 204.689 183.127 204.276 182.54C203.863 181.94 203.269 181.64 202.496 181.64C201.989 181.64 201.483 181.773 200.976 182.04C200.483 182.293 200.043 182.647 199.656 183.1C199.283 183.54 199.016 184.047 198.856 184.62V191H197.496V176.4H198.856V182.94C199.269 182.167 199.843 181.553 200.576 181.1C201.323 180.633 202.116 180.4 202.956 180.4C203.556 180.4 204.063 180.507 204.476 180.72C204.903 180.933 205.243 181.247 205.496 181.66C205.763 182.06 205.956 182.533 206.076 183.08C206.196 183.613 206.256 184.22 206.256 184.9V191ZM213.656 191.2C212.91 191.2 212.216 191.06 211.576 190.78C210.936 190.487 210.383 190.093 209.916 189.6C209.45 189.093 209.083 188.513 208.816 187.86C208.563 187.207 208.436 186.507 208.436 185.76C208.436 184.787 208.656 183.893 209.096 183.08C209.55 182.267 210.17 181.62 210.956 181.14C211.743 180.647 212.636 180.4 213.636 180.4C214.663 180.4 215.556 180.647 216.316 181.14C217.09 181.633 217.696 182.287 218.136 183.1C218.576 183.9 218.796 184.78 218.796 185.74C218.796 185.847 218.796 185.953 218.796 186.06C218.796 186.153 218.79 186.227 218.776 186.28H209.856C209.923 187.027 210.13 187.693 210.476 188.28C210.836 188.853 211.296 189.313 211.856 189.66C212.43 189.993 213.05 190.16 213.716 190.16C214.396 190.16 215.036 189.987 215.636 189.64C216.25 189.293 216.676 188.84 216.916 188.28L218.096 188.6C217.883 189.093 217.556 189.54 217.116 189.94C216.676 190.34 216.156 190.653 215.556 190.88C214.97 191.093 214.336 191.2 213.656 191.2ZM209.816 185.3H217.516C217.463 184.54 217.256 183.873 216.896 183.3C216.55 182.727 216.09 182.28 215.516 181.96C214.956 181.627 214.336 181.46 213.656 181.46C212.976 181.46 212.356 181.627 211.796 181.96C211.236 182.28 210.776 182.733 210.416 183.32C210.07 183.893 209.87 184.553 209.816 185.3ZM226.272 191V176.8H232.152C232.766 176.8 233.326 176.927 233.832 177.18C234.352 177.433 234.799 177.78 235.172 178.22C235.546 178.647 235.839 179.127 236.052 179.66C236.266 180.18 236.372 180.713 236.372 181.26C236.372 182.033 236.199 182.767 235.852 183.46C235.519 184.14 235.046 184.693 234.432 185.12C233.819 185.547 233.099 185.76 232.272 185.76H227.672V191H226.272ZM227.672 184.52H232.212C232.772 184.52 233.259 184.367 233.672 184.06C234.086 183.753 234.406 183.353 234.632 182.86C234.859 182.367 234.972 181.833 234.972 181.26C234.972 180.673 234.839 180.133 234.572 179.64C234.306 179.147 233.952 178.76 233.512 178.48C233.086 178.187 232.612 178.04 232.092 178.04H227.672V184.52ZM238.494 176.4H239.854V188.64C239.854 189.16 239.947 189.5 240.134 189.66C240.32 189.82 240.547 189.9 240.814 189.9C241.054 189.9 241.294 189.873 241.534 189.82C241.774 189.767 241.98 189.713 242.154 189.66L242.394 190.76C242.14 190.867 241.827 190.953 241.454 191.02C241.094 191.087 240.78 191.12 240.514 191.12C239.9 191.12 239.407 190.94 239.034 190.58C238.674 190.22 238.494 189.727 238.494 189.1V176.4ZM243.043 188C243.043 187.347 243.229 186.787 243.603 186.32C243.976 185.84 244.489 185.473 245.143 185.22C245.809 184.953 246.576 184.82 247.443 184.82C247.949 184.82 248.476 184.86 249.023 184.94C249.569 185.02 250.056 185.14 250.483 185.3V184.42C250.483 183.54 250.223 182.84 249.703 182.32C249.183 181.8 248.463 181.54 247.543 181.54C246.983 181.54 246.429 181.647 245.883 181.86C245.349 182.06 244.789 182.36 244.203 182.76L243.683 181.8C244.363 181.333 245.029 180.987 245.683 180.76C246.336 180.52 247.003 180.4 247.683 180.4C248.963 180.4 249.976 180.767 250.723 181.5C251.469 182.233 251.843 183.247 251.843 184.54V189.36C251.843 189.547 251.883 189.687 251.963 189.78C252.043 189.86 252.169 189.907 252.343 189.92V191C252.196 191.013 252.069 191.027 251.963 191.04C251.856 191.053 251.776 191.053 251.723 191.04C251.389 191.027 251.136 190.92 250.963 190.72C250.789 190.52 250.696 190.307 250.683 190.08L250.663 189.32C250.196 189.92 249.589 190.387 248.843 190.72C248.096 191.04 247.336 191.2 246.563 191.2C245.896 191.2 245.289 191.06 244.743 190.78C244.209 190.487 243.789 190.1 243.483 189.62C243.189 189.127 243.043 188.587 243.043 188ZM250.023 188.8C250.169 188.613 250.283 188.433 250.363 188.26C250.443 188.087 250.483 187.933 250.483 187.8V186.28C250.029 186.107 249.556 185.973 249.063 185.88C248.583 185.787 248.096 185.74 247.603 185.74C246.629 185.74 245.843 185.933 245.243 186.32C244.643 186.707 244.343 187.233 244.343 187.9C244.343 188.287 244.443 188.653 244.643 189C244.843 189.333 245.136 189.613 245.523 189.84C245.909 190.053 246.363 190.16 246.883 190.16C247.536 190.16 248.143 190.033 248.703 189.78C249.276 189.527 249.716 189.2 250.023 188.8ZM255.069 194.2C255.255 194.213 255.435 194.22 255.609 194.22C255.782 194.233 255.909 194.227 255.989 194.2C256.149 194.173 256.302 194.08 256.449 193.92C256.595 193.76 256.769 193.453 256.969 193C257.169 192.547 257.449 191.88 257.809 191L253.269 180.58H254.709L258.529 189.6L262.049 180.58H263.409L258.009 194.02C257.915 194.273 257.775 194.507 257.589 194.72C257.402 194.947 257.169 195.12 256.889 195.24C256.622 195.373 256.289 195.447 255.889 195.46C255.769 195.473 255.642 195.473 255.509 195.46C255.389 195.46 255.242 195.447 255.069 195.42V194.2ZM265.809 191V181.66H264.369V180.58H265.809V180.3C265.809 179.447 265.929 178.713 266.169 178.1C266.422 177.487 266.775 177.02 267.229 176.7C267.695 176.367 268.242 176.2 268.869 176.2C269.282 176.2 269.682 176.26 270.069 176.38C270.455 176.5 270.789 176.66 271.069 176.86L270.649 177.84C270.475 177.693 270.249 177.58 269.969 177.5C269.689 177.42 269.409 177.38 269.129 177.38C268.502 177.38 268.015 177.627 267.669 178.12C267.335 178.613 267.169 179.327 267.169 180.26V180.58H270.049V181.66H267.169V191H265.809ZM271.81 186.7V180.58H273.17V186.46C273.17 187.647 273.37 188.533 273.77 189.12C274.183 189.707 274.79 190 275.59 190C276.123 190 276.637 189.887 277.13 189.66C277.637 189.42 278.083 189.087 278.47 188.66C278.857 188.22 279.15 187.713 279.35 187.14V180.58H280.71V189.36C280.71 189.547 280.75 189.687 280.83 189.78C280.91 189.86 281.03 189.907 281.19 189.92V191C281.03 191.013 280.903 191.02 280.81 191.02C280.717 191.033 280.63 191.04 280.55 191.04C280.283 191.013 280.05 190.907 279.85 190.72C279.663 190.533 279.563 190.307 279.55 190.04L279.51 188.64C279.057 189.44 278.437 190.067 277.65 190.52C276.877 190.973 276.037 191.2 275.13 191.2C274.037 191.2 273.21 190.82 272.65 190.06C272.09 189.3 271.81 188.18 271.81 186.7ZM283.845 176.4H285.205V188.64C285.205 189.16 285.298 189.5 285.485 189.66C285.672 189.82 285.898 189.9 286.165 189.9C286.405 189.9 286.645 189.873 286.885 189.82C287.125 189.767 287.332 189.713 287.505 189.66L287.745 190.76C287.492 190.867 287.178 190.953 286.805 191.02C286.445 191.087 286.132 191.12 285.865 191.12C285.252 191.12 284.758 190.94 284.385 190.58C284.025 190.22 283.845 189.727 283.845 189.1V176.4ZM294.007 191V176.8H295.407V189.76H303.607V191H294.007ZM305.387 191V180.58H306.747V191H305.387ZM305.387 178.4V176.4H306.747V178.4H305.387ZM312.842 191L308.622 180.58H310.042L313.602 189.64L317.182 180.58H318.522L314.302 191H312.842ZM320.406 191V180.58H321.766V191H320.406ZM320.406 178.4V176.4H321.766V178.4H320.406ZM333.522 191H332.162V185.18C332.162 183.953 331.982 183.06 331.622 182.5C331.262 181.927 330.695 181.64 329.922 181.64C329.388 181.64 328.862 181.773 328.342 182.04C327.822 182.293 327.362 182.647 326.962 183.1C326.575 183.54 326.295 184.047 326.122 184.62V191H324.762V180.58H326.002V182.94C326.282 182.433 326.648 181.993 327.102 181.62C327.555 181.233 328.068 180.933 328.642 180.72C329.215 180.507 329.808 180.4 330.422 180.4C330.995 180.4 331.482 180.507 331.882 180.72C332.282 180.933 332.602 181.24 332.842 181.64C333.082 182.027 333.255 182.5 333.362 183.06C333.468 183.607 333.522 184.22 333.522 184.9V191ZM340.602 191.14C339.895 191.14 339.242 190.993 338.642 190.7C338.042 190.407 337.522 190.013 337.082 189.52C336.655 189.013 336.322 188.44 336.082 187.8C335.842 187.16 335.722 186.5 335.722 185.82C335.722 185.087 335.835 184.4 336.062 183.76C336.302 183.107 336.635 182.527 337.062 182.02C337.502 181.513 338.015 181.12 338.602 180.84C339.189 180.547 339.842 180.4 340.562 180.4C341.455 180.4 342.229 180.627 342.882 181.08C343.549 181.533 344.109 182.093 344.562 182.76V180.58H345.782V191.04C345.782 192 345.549 192.807 345.082 193.46C344.629 194.127 344.009 194.627 343.222 194.96C342.449 195.293 341.602 195.46 340.682 195.46C339.495 195.46 338.535 195.247 337.802 194.82C337.069 194.393 336.469 193.82 336.002 193.1L336.842 192.44C337.255 193.093 337.802 193.58 338.482 193.9C339.175 194.22 339.909 194.38 340.682 194.38C341.362 194.38 341.982 194.253 342.542 194C343.115 193.76 343.569 193.393 343.902 192.9C344.249 192.407 344.422 191.787 344.422 191.04V188.98C344.022 189.633 343.475 190.16 342.782 190.56C342.089 190.947 341.362 191.14 340.602 191.14ZM340.982 190C341.395 190 341.789 189.927 342.162 189.78C342.549 189.633 342.902 189.44 343.222 189.2C343.542 188.947 343.809 188.667 344.022 188.36C344.235 188.053 344.369 187.74 344.422 187.42V184.2C344.222 183.693 343.935 183.247 343.562 182.86C343.189 182.46 342.762 182.153 342.282 181.94C341.815 181.713 341.329 181.6 340.822 181.6C340.235 181.6 339.709 181.727 339.242 181.98C338.789 182.22 338.402 182.547 338.082 182.96C337.775 183.36 337.535 183.813 337.362 184.32C337.189 184.827 337.102 185.333 337.102 185.84C337.102 186.4 337.202 186.933 337.402 187.44C337.602 187.933 337.875 188.38 338.222 188.78C338.582 189.167 338.995 189.467 339.462 189.68C339.942 189.893 340.449 190 340.982 190Z" fill="#0022D5"/>
</svg>
