<svg width="412" height="184" viewBox="0 0 412 184" fill="none" xmlns="http://www.w3.org/2000/svg">
<rect y="12" width="313" height="37" fill="white"/>
<rect y="59" width="293" height="37" fill="white"/>
<rect y="134" width="374" height="49" fill="white"/>
<path d="M29.752 41V19.256H26.344V15.944H29.752V15.416C29.752 13.368 30.056 11.608 30.664 10.136C31.304 8.632 32.2 7.48 33.352 6.68C34.504 5.88 35.864 5.48 37.432 5.48C38.424 5.48 39.4 5.624 40.36 5.912C41.32 6.168 42.184 6.536 42.952 7.016L41.896 10.136C41.448 9.816 40.888 9.56 40.216 9.368C39.576 9.176 38.936 9.08 38.296 9.08C36.92 9.08 35.848 9.624 35.08 10.712C34.344 11.768 33.976 13.288 33.976 15.272V15.944H40.648V19.256H33.976V41H29.752ZM58.1091 19.64C55.9971 19.672 54.1251 20.216 52.4931 21.272C50.8931 22.296 49.7571 23.72 49.0851 25.544V41H44.8611V15.944H48.7971V21.752C49.6611 20.024 50.7971 18.632 52.2051 17.576C53.6451 16.488 55.1491 15.88 56.7171 15.752C57.0371 15.752 57.3091 15.752 57.5331 15.752C57.7571 15.752 57.9491 15.768 58.1091 15.8V19.64ZM72.6333 41.48C70.7453 41.48 69.0333 41.144 67.4973 40.472C65.9613 39.768 64.6333 38.824 63.5133 37.64C62.3933 36.424 61.5293 35.032 60.9213 33.464C60.3133 31.896 60.0093 30.248 60.0093 28.52C60.0093 26.76 60.3133 25.096 60.9213 23.528C61.5293 21.96 62.3933 20.584 63.5133 19.4C64.6333 18.184 65.9613 17.24 67.4973 16.568C69.0653 15.864 70.7773 15.512 72.6333 15.512C74.5213 15.512 76.2333 15.864 77.7693 16.568C79.3053 17.24 80.6333 18.184 81.7533 19.4C82.9053 20.584 83.7853 21.96 84.3933 23.528C85.0013 25.096 85.3053 26.76 85.3053 28.52C85.3053 30.248 85.0013 31.896 84.3933 33.464C83.7853 35.032 82.9213 36.424 81.8013 37.64C80.6813 38.824 79.3373 39.768 77.7693 40.472C76.2333 41.144 74.5213 41.48 72.6333 41.48ZM64.3293 28.568C64.3293 30.296 64.6973 31.864 65.4333 33.272C66.2013 34.68 67.2093 35.8 68.4573 36.632C69.7053 37.432 71.0973 37.832 72.6333 37.832C74.1693 37.832 75.5613 37.416 76.8093 36.584C78.0893 35.752 79.0973 34.632 79.8333 33.224C80.6013 31.784 80.9853 30.2 80.9853 28.472C80.9853 26.744 80.6013 25.176 79.8333 23.768C79.0973 22.36 78.0893 21.24 76.8093 20.408C75.5613 19.576 74.1693 19.16 72.6333 19.16C71.0973 19.16 69.7053 19.592 68.4573 20.456C67.2093 21.288 66.2013 22.408 65.4333 23.816C64.6973 25.224 64.3293 26.808 64.3293 28.568ZM128.2 41H123.976V26.984C123.976 24.36 123.544 22.424 122.68 21.176C121.848 19.928 120.6 19.304 118.936 19.304C117.24 19.304 115.704 19.928 114.328 21.176C112.952 22.392 111.976 23.976 111.4 25.928V41H107.176V26.984C107.176 24.328 106.76 22.392 105.928 21.176C105.096 19.928 103.848 19.304 102.184 19.304C100.52 19.304 98.9836 19.912 97.5756 21.128C96.1996 22.312 95.2236 23.896 94.6476 25.88V41H90.4236V15.944H94.2636V21.32C95.2876 19.464 96.6156 18.04 98.2476 17.048C99.8796 16.024 101.72 15.512 103.768 15.512C105.848 15.512 107.512 16.088 108.76 17.24C110.008 18.36 110.776 19.816 111.064 21.608C112.184 19.624 113.544 18.12 115.144 17.096C116.744 16.04 118.568 15.512 120.616 15.512C122.056 15.512 123.256 15.784 124.216 16.328C125.208 16.84 125.992 17.576 126.568 18.536C127.144 19.464 127.56 20.568 127.816 21.848C128.072 23.128 128.2 24.52 128.2 26.024V41ZM156.892 41.288C155.196 41.288 153.628 40.952 152.188 40.28C150.78 39.576 149.564 38.632 148.54 37.448C147.516 36.232 146.716 34.856 146.14 33.32C145.596 31.784 145.324 30.184 145.324 28.52C145.324 26.76 145.596 25.096 146.14 23.528C146.716 21.96 147.516 20.584 148.54 19.4C149.596 18.184 150.828 17.24 152.236 16.568C153.644 15.864 155.212 15.512 156.94 15.512C159.02 15.512 160.828 16.024 162.364 17.048C163.932 18.072 165.244 19.368 166.3 20.936V15.944H170.044V40.712C170.044 43.08 169.468 45.08 168.316 46.712C167.196 48.344 165.66 49.576 163.708 50.408C161.788 51.272 159.644 51.704 157.276 51.704C154.46 51.704 152.156 51.208 150.364 50.216C148.572 49.224 147.084 47.88 145.9 46.184L148.348 44.024C149.34 45.496 150.62 46.6 152.188 47.336C153.788 48.072 155.484 48.44 157.276 48.44C158.812 48.44 160.22 48.152 161.5 47.576C162.812 47.032 163.852 46.184 164.62 45.032C165.42 43.88 165.82 42.44 165.82 40.712V36.296C164.892 37.832 163.612 39.048 161.98 39.944C160.38 40.84 158.684 41.288 156.892 41.288ZM158.188 37.832C159.084 37.832 159.948 37.672 160.78 37.352C161.612 37.032 162.38 36.616 163.084 36.104C163.788 35.56 164.38 34.952 164.86 34.28C165.34 33.608 165.66 32.92 165.82 32.216V25.016C165.372 23.864 164.732 22.856 163.9 21.992C163.068 21.096 162.124 20.408 161.068 19.928C160.012 19.416 158.924 19.16 157.804 19.16C156.524 19.16 155.372 19.432 154.348 19.976C153.356 20.52 152.508 21.256 151.804 22.184C151.1 23.08 150.556 24.088 150.172 25.208C149.788 26.328 149.596 27.464 149.596 28.616C149.596 29.864 149.82 31.048 150.268 32.168C150.716 33.256 151.324 34.232 152.092 35.096C152.86 35.96 153.772 36.632 154.828 37.112C155.884 37.592 157.004 37.832 158.188 37.832ZM187.949 41.48C186.061 41.48 184.333 41.144 182.765 40.472C181.229 39.768 179.885 38.824 178.733 37.64C177.613 36.424 176.733 35.032 176.093 33.464C175.485 31.896 175.181 30.232 175.181 28.472C175.181 26.104 175.725 23.944 176.813 21.992C177.901 20.04 179.405 18.472 181.325 17.288C183.277 16.104 185.501 15.512 187.997 15.512C190.525 15.512 192.717 16.12 194.573 17.336C196.461 18.52 197.917 20.088 198.941 22.04C199.997 23.96 200.525 26.04 200.525 28.28C200.525 28.6 200.509 28.92 200.477 29.24C200.477 29.528 200.461 29.752 200.429 29.912H179.645C179.773 31.544 180.221 33 180.989 34.28C181.789 35.528 182.813 36.52 184.061 37.256C185.309 37.96 186.653 38.312 188.093 38.312C189.629 38.312 191.069 37.928 192.413 37.16C193.789 36.392 194.733 35.384 195.245 34.136L198.893 35.144C198.349 36.36 197.533 37.448 196.445 38.408C195.389 39.368 194.125 40.12 192.653 40.664C191.213 41.208 189.645 41.48 187.949 41.48ZM179.501 26.984H196.589C196.461 25.352 195.997 23.912 195.197 22.664C194.397 21.416 193.373 20.44 192.125 19.736C190.877 19.032 189.501 18.68 187.997 18.68C186.525 18.68 185.165 19.032 183.917 19.736C182.669 20.44 181.645 21.416 180.845 22.664C180.077 23.912 179.629 25.352 179.501 26.984ZM226.965 41H222.741V26.984C222.741 24.328 222.325 22.392 221.493 21.176C220.693 19.928 219.461 19.304 217.797 19.304C216.645 19.304 215.493 19.592 214.341 20.168C213.221 20.744 212.213 21.528 211.317 22.52C210.453 23.48 209.829 24.6 209.445 25.88V41H205.221V15.944H209.061V21.32C209.733 20.136 210.597 19.112 211.653 18.248C212.709 17.384 213.909 16.712 215.253 16.232C216.597 15.752 218.005 15.512 219.477 15.512C220.917 15.512 222.117 15.784 223.077 16.328C224.069 16.84 224.837 17.576 225.381 18.536C225.957 19.464 226.357 20.568 226.581 21.848C226.837 23.128 226.965 24.52 226.965 26.024V41ZM244.621 41.48C242.733 41.48 241.005 41.144 239.437 40.472C237.901 39.768 236.557 38.824 235.405 37.64C234.285 36.424 233.405 35.032 232.765 33.464C232.157 31.896 231.853 30.232 231.853 28.472C231.853 26.104 232.397 23.944 233.485 21.992C234.573 20.04 236.077 18.472 237.997 17.288C239.949 16.104 242.173 15.512 244.669 15.512C247.197 15.512 249.389 16.12 251.245 17.336C253.133 18.52 254.589 20.088 255.613 22.04C256.669 23.96 257.197 26.04 257.197 28.28C257.197 28.6 257.181 28.92 257.149 29.24C257.149 29.528 257.133 29.752 257.101 29.912H236.317C236.445 31.544 236.893 33 237.661 34.28C238.461 35.528 239.485 36.52 240.733 37.256C241.981 37.96 243.325 38.312 244.765 38.312C246.301 38.312 247.741 37.928 249.085 37.16C250.461 36.392 251.405 35.384 251.917 34.136L255.565 35.144C255.021 36.36 254.205 37.448 253.117 38.408C252.061 39.368 250.797 40.12 249.325 40.664C247.885 41.208 246.317 41.48 244.621 41.48ZM236.173 26.984H253.261C253.133 25.352 252.669 23.912 251.869 22.664C251.069 21.416 250.045 20.44 248.797 19.736C247.549 19.032 246.173 18.68 244.669 18.68C243.197 18.68 241.837 19.032 240.589 19.736C239.341 20.44 238.317 21.416 237.517 22.664C236.749 23.912 236.301 25.352 236.173 26.984ZM275.14 19.64C273.028 19.672 271.156 20.216 269.524 21.272C267.924 22.296 266.788 23.72 266.116 25.544V41H261.892V15.944H265.828V21.752C266.692 20.024 267.828 18.632 269.236 17.576C270.676 16.488 272.18 15.88 273.748 15.752C274.068 15.752 274.34 15.752 274.564 15.752C274.788 15.752 274.98 15.768 275.14 15.8V19.64ZM277.362 33.752C277.362 32.152 277.81 30.776 278.706 29.624C279.634 28.44 280.898 27.528 282.498 26.888C284.098 26.248 285.954 25.928 288.066 25.928C289.186 25.928 290.37 26.024 291.618 26.216C292.866 26.376 293.97 26.632 294.93 26.984V25.16C294.93 23.24 294.354 21.736 293.202 20.648C292.05 19.528 290.418 18.968 288.306 18.968C286.93 18.968 285.602 19.224 284.322 19.736C283.074 20.216 281.746 20.92 280.338 21.848L278.802 18.872C280.434 17.752 282.066 16.92 283.698 16.376C285.33 15.8 287.026 15.512 288.786 15.512C291.986 15.512 294.514 16.408 296.37 18.2C298.226 19.96 299.154 22.424 299.154 25.592V36.2C299.154 36.712 299.25 37.096 299.442 37.352C299.666 37.576 300.018 37.704 300.498 37.736V41C300.082 41.064 299.714 41.112 299.394 41.144C299.106 41.176 298.866 41.192 298.674 41.192C297.682 41.192 296.93 40.92 296.418 40.376C295.938 39.832 295.666 39.256 295.602 38.648L295.506 37.064C294.418 38.472 292.994 39.56 291.234 40.328C289.474 41.096 287.73 41.48 286.002 41.48C284.338 41.48 282.85 41.144 281.538 40.472C280.226 39.768 279.202 38.84 278.466 37.688C277.73 36.504 277.362 35.192 277.362 33.752ZM293.682 35.528C294.066 35.08 294.37 34.632 294.594 34.184C294.818 33.704 294.93 33.304 294.93 32.984V29.864C293.938 29.48 292.898 29.192 291.81 29C290.722 28.776 289.65 28.664 288.594 28.664C286.45 28.664 284.706 29.096 283.362 29.96C282.05 30.792 281.394 31.944 281.394 33.416C281.394 34.216 281.602 35 282.018 35.768C282.466 36.504 283.106 37.112 283.938 37.592C284.802 38.072 285.858 38.312 287.106 38.312C288.418 38.312 289.666 38.056 290.85 37.544C292.034 37 292.978 36.328 293.682 35.528ZM306.004 5.96H310.228V34.52C310.228 35.896 310.42 36.744 310.804 37.064C311.188 37.384 311.652 37.544 312.196 37.544C312.868 37.544 313.508 37.48 314.116 37.352C314.724 37.192 315.236 37.032 315.652 36.872L316.324 40.328C315.62 40.616 314.788 40.856 313.828 41.048C312.868 41.24 312.02 41.336 311.284 41.336C309.652 41.336 308.356 40.872 307.396 39.944C306.468 39.016 306.004 37.72 306.004 36.056V5.96ZM41.368 87.752C41.016 87.912 40.536 88.12 39.928 88.376C39.32 88.632 38.616 88.856 37.816 89.048C37.016 89.24 36.168 89.336 35.272 89.336C34.248 89.336 33.304 89.16 32.44 88.808C31.576 88.424 30.888 87.848 30.376 87.08C29.864 86.28 29.608 85.288 29.608 84.104V67.256H26.2V63.944H29.608V55.592H33.832V63.944H39.448V67.256H33.832V82.808C33.896 83.704 34.2 84.376 34.744 84.824C35.288 85.24 35.928 85.448 36.664 85.448C37.496 85.448 38.264 85.304 38.968 85.016C39.672 84.728 40.136 84.52 40.36 84.392L41.368 87.752ZM55.8989 89.48C54.0109 89.48 52.2989 89.144 50.7629 88.472C49.2269 87.768 47.8989 86.824 46.7789 85.64C45.6589 84.424 44.7949 83.032 44.1869 81.464C43.5789 79.896 43.2749 78.248 43.2749 76.52C43.2749 74.76 43.5789 73.096 44.1869 71.528C44.7949 69.96 45.6589 68.584 46.7789 67.4C47.8989 66.184 49.2269 65.24 50.7629 64.568C52.3309 63.864 54.0429 63.512 55.8989 63.512C57.7869 63.512 59.4989 63.864 61.0349 64.568C62.5709 65.24 63.8989 66.184 65.0189 67.4C66.1709 68.584 67.0509 69.96 67.6589 71.528C68.2669 73.096 68.5709 74.76 68.5709 76.52C68.5709 78.248 68.2669 79.896 67.6589 81.464C67.0509 83.032 66.1869 84.424 65.0669 85.64C63.9469 86.824 62.6029 87.768 61.0349 88.472C59.4989 89.144 57.7869 89.48 55.8989 89.48ZM47.5949 76.568C47.5949 78.296 47.9629 79.864 48.6989 81.272C49.4669 82.68 50.4749 83.8 51.7229 84.632C52.9709 85.432 54.3629 85.832 55.8989 85.832C57.4349 85.832 58.8269 85.416 60.0749 84.584C61.3549 83.752 62.3629 82.632 63.0989 81.224C63.8669 79.784 64.2509 78.2 64.2509 76.472C64.2509 74.744 63.8669 73.176 63.0989 71.768C62.3629 70.36 61.3549 69.24 60.0749 68.408C58.8269 67.576 57.4349 67.16 55.8989 67.16C54.3629 67.16 52.9709 67.592 51.7229 68.456C50.4749 69.288 49.4669 70.408 48.6989 71.816C47.9629 73.224 47.5949 74.808 47.5949 76.568ZM99.3179 89.48C97.2699 89.48 95.4459 88.968 93.8459 87.944C92.2459 86.92 90.9819 85.624 90.0539 84.056V99.224H85.8299V63.944H89.5739V68.648C90.5659 67.112 91.8619 65.88 93.4619 64.952C95.0619 63.992 96.8059 63.512 98.6939 63.512C100.422 63.512 102.006 63.864 103.446 64.568C104.886 65.272 106.134 66.232 107.19 67.448C108.246 68.664 109.062 70.056 109.638 71.624C110.246 73.16 110.55 74.776 110.55 76.472C110.55 78.84 110.07 81.016 109.11 83C108.182 84.984 106.87 86.568 105.174 87.752C103.478 88.904 101.526 89.48 99.3179 89.48ZM98.0219 85.832C99.2699 85.832 100.39 85.576 101.382 85.064C102.406 84.52 103.27 83.816 103.974 82.952C104.71 82.056 105.27 81.048 105.654 79.928C106.038 78.808 106.23 77.656 106.23 76.472C106.23 75.224 106.006 74.04 105.558 72.92C105.142 71.8 104.534 70.808 103.734 69.944C102.966 69.08 102.054 68.408 100.998 67.928C99.9739 67.416 98.8539 67.16 97.6379 67.16C96.8699 67.16 96.0699 67.304 95.2379 67.592C94.4379 67.88 93.6699 68.296 92.9339 68.84C92.1979 69.352 91.5739 69.944 91.0619 70.616C90.5499 71.288 90.2139 72.008 90.0539 72.776V79.928C90.5339 81.016 91.1739 82.008 91.9739 82.904C92.7739 83.8 93.7019 84.52 94.7579 85.064C95.8139 85.576 96.9019 85.832 98.0219 85.832ZM113.768 81.752C113.768 80.152 114.216 78.776 115.112 77.624C116.04 76.44 117.304 75.528 118.904 74.888C120.504 74.248 122.36 73.928 124.472 73.928C125.592 73.928 126.776 74.024 128.024 74.216C129.272 74.376 130.376 74.632 131.336 74.984V73.16C131.336 71.24 130.76 69.736 129.608 68.648C128.456 67.528 126.824 66.968 124.712 66.968C123.336 66.968 122.008 67.224 120.728 67.736C119.48 68.216 118.152 68.92 116.744 69.848L115.208 66.872C116.84 65.752 118.472 64.92 120.104 64.376C121.736 63.8 123.432 63.512 125.192 63.512C128.392 63.512 130.92 64.408 132.776 66.2C134.632 67.96 135.56 70.424 135.56 73.592V84.2C135.56 84.712 135.656 85.096 135.848 85.352C136.072 85.576 136.424 85.704 136.904 85.736V89C136.488 89.064 136.12 89.112 135.8 89.144C135.512 89.176 135.272 89.192 135.08 89.192C134.088 89.192 133.336 88.92 132.824 88.376C132.344 87.832 132.072 87.256 132.008 86.648L131.912 85.064C130.824 86.472 129.4 87.56 127.64 88.328C125.88 89.096 124.136 89.48 122.408 89.48C120.744 89.48 119.256 89.144 117.944 88.472C116.632 87.768 115.608 86.84 114.872 85.688C114.136 84.504 113.768 83.192 113.768 81.752ZM130.088 83.528C130.472 83.08 130.776 82.632 131 82.184C131.224 81.704 131.336 81.304 131.336 80.984V77.864C130.344 77.48 129.304 77.192 128.216 77C127.128 76.776 126.056 76.664 125 76.664C122.856 76.664 121.112 77.096 119.768 77.96C118.456 78.792 117.8 79.944 117.8 81.416C117.8 82.216 118.008 83 118.424 83.768C118.872 84.504 119.512 85.112 120.344 85.592C121.208 86.072 122.264 86.312 123.512 86.312C124.824 86.312 126.072 86.056 127.256 85.544C128.44 85 129.384 84.328 130.088 83.528ZM155.562 67.64C153.45 67.672 151.578 68.216 149.946 69.272C148.346 70.296 147.21 71.72 146.538 73.544V89H142.314V63.944H146.25V69.752C147.114 68.024 148.25 66.632 149.658 65.576C151.098 64.488 152.602 63.88 154.17 63.752C154.49 63.752 154.762 63.752 154.986 63.752C155.21 63.752 155.402 63.768 155.562 63.8V67.64ZM172.712 87.752C172.36 87.912 171.88 88.12 171.272 88.376C170.664 88.632 169.96 88.856 169.16 89.048C168.36 89.24 167.512 89.336 166.616 89.336C165.592 89.336 164.648 89.16 163.784 88.808C162.92 88.424 162.232 87.848 161.72 87.08C161.208 86.28 160.952 85.288 160.952 84.104V67.256H157.544V63.944H160.952V55.592H165.176V63.944H170.792V67.256H165.176V82.808C165.24 83.704 165.544 84.376 166.088 84.824C166.632 85.24 167.272 85.448 168.008 85.448C168.84 85.448 169.608 85.304 170.312 85.016C171.016 84.728 171.48 84.52 171.704 84.392L172.712 87.752ZM176.627 89V63.944H180.851V89H176.627ZM176.627 59.24V53.96H180.851V59.24H176.627ZM198.777 89.48C196.889 89.48 195.161 89.144 193.593 88.472C192.057 87.768 190.713 86.808 189.561 85.592C188.441 84.376 187.561 82.984 186.921 81.416C186.313 79.848 186.009 78.184 186.009 76.424C186.009 74.056 186.537 71.896 187.593 69.944C188.649 67.992 190.137 66.44 192.057 65.288C193.977 64.104 196.201 63.512 198.729 63.512C201.193 63.512 203.337 64.072 205.161 65.192C207.017 66.28 208.393 67.752 209.289 69.608L205.161 70.904C204.521 69.72 203.625 68.808 202.473 68.168C201.321 67.496 200.041 67.16 198.633 67.16C197.097 67.16 195.689 67.56 194.409 68.36C193.161 69.16 192.169 70.264 191.433 71.672C190.697 73.048 190.329 74.632 190.329 76.424C190.329 78.184 190.697 79.784 191.433 81.224C192.201 82.632 193.209 83.752 194.457 84.584C195.737 85.416 197.145 85.832 198.681 85.832C199.673 85.832 200.617 85.656 201.513 85.304C202.441 84.952 203.241 84.488 203.913 83.912C204.617 83.304 205.097 82.648 205.353 81.944L209.481 83.192C208.969 84.408 208.185 85.496 207.129 86.456C206.105 87.384 204.873 88.12 203.433 88.664C202.025 89.208 200.473 89.48 198.777 89.48ZM214.027 78.968V63.944H218.251V78.152C218.251 80.712 218.699 82.632 219.595 83.912C220.491 85.192 221.819 85.832 223.579 85.832C224.731 85.832 225.835 85.592 226.891 85.112C227.979 84.6 228.955 83.88 229.819 82.952C230.683 82.024 231.355 80.92 231.835 79.64V63.944H236.059V84.2C236.059 84.712 236.155 85.096 236.347 85.352C236.571 85.576 236.923 85.704 237.403 85.736V89C236.923 89.064 236.539 89.096 236.251 89.096C235.995 89.128 235.739 89.144 235.483 89.144C234.683 89.144 233.995 88.904 233.419 88.424C232.843 87.912 232.539 87.288 232.507 86.552L232.411 83.624C231.323 85.48 229.851 86.92 227.995 87.944C226.171 88.968 224.171 89.48 221.995 89.48C219.371 89.48 217.387 88.6 216.043 86.84C214.699 85.048 214.027 82.424 214.027 78.968ZM243.192 53.96H247.416V82.52C247.416 83.896 247.608 84.744 247.992 85.064C248.376 85.384 248.84 85.544 249.384 85.544C250.056 85.544 250.696 85.48 251.304 85.352C251.912 85.192 252.424 85.032 252.84 84.872L253.512 88.328C252.808 88.616 251.976 88.856 251.016 89.048C250.056 89.24 249.208 89.336 248.472 89.336C246.84 89.336 245.544 88.872 244.584 87.944C243.656 87.016 243.192 85.72 243.192 84.056V53.96ZM254.862 81.752C254.862 80.152 255.31 78.776 256.206 77.624C257.134 76.44 258.398 75.528 259.998 74.888C261.598 74.248 263.454 73.928 265.566 73.928C266.686 73.928 267.87 74.024 269.118 74.216C270.366 74.376 271.47 74.632 272.43 74.984V73.16C272.43 71.24 271.854 69.736 270.702 68.648C269.55 67.528 267.918 66.968 265.806 66.968C264.43 66.968 263.102 67.224 261.822 67.736C260.574 68.216 259.246 68.92 257.838 69.848L256.302 66.872C257.934 65.752 259.566 64.92 261.198 64.376C262.83 63.8 264.526 63.512 266.286 63.512C269.486 63.512 272.014 64.408 273.87 66.2C275.726 67.96 276.654 70.424 276.654 73.592V84.2C276.654 84.712 276.75 85.096 276.942 85.352C277.166 85.576 277.518 85.704 277.998 85.736V89C277.582 89.064 277.214 89.112 276.894 89.144C276.606 89.176 276.366 89.192 276.174 89.192C275.182 89.192 274.43 88.92 273.918 88.376C273.438 87.832 273.166 87.256 273.102 86.648L273.006 85.064C271.918 86.472 270.494 87.56 268.734 88.328C266.974 89.096 265.23 89.48 263.502 89.48C261.838 89.48 260.35 89.144 259.038 88.472C257.726 87.768 256.702 86.84 255.966 85.688C255.23 84.504 254.862 83.192 254.862 81.752ZM271.182 83.528C271.566 83.08 271.87 82.632 272.094 82.184C272.318 81.704 272.43 81.304 272.43 80.984V77.864C271.438 77.48 270.398 77.192 269.31 77C268.222 76.776 267.15 76.664 266.094 76.664C263.95 76.664 262.206 77.096 260.862 77.96C259.55 78.792 258.894 79.944 258.894 81.416C258.894 82.216 259.102 83 259.518 83.768C259.966 84.504 260.606 85.112 261.438 85.592C262.302 86.072 263.358 86.312 264.606 86.312C265.918 86.312 267.166 86.056 268.35 85.544C269.534 85 270.478 84.328 271.182 83.528ZM296.656 67.64C294.544 67.672 292.672 68.216 291.04 69.272C289.44 70.296 288.304 71.72 287.632 73.544V89H283.408V63.944H287.344V69.752C288.208 68.024 289.344 66.632 290.752 65.576C292.192 64.488 293.696 63.88 295.264 63.752C295.584 63.752 295.856 63.752 296.08 63.752C296.304 63.752 296.496 63.768 296.656 63.8V67.64Z" fill="#0022D5"/>
<path d="M36.86 143.04H31.8V156H30.4V143.04H25.34V141.8H36.86V143.04ZM47.467 156H46.107V150.18C46.107 149.007 45.9004 148.127 45.487 147.54C45.0737 146.94 44.4804 146.64 43.707 146.64C43.2004 146.64 42.6937 146.773 42.187 147.04C41.6937 147.293 41.2537 147.647 40.867 148.1C40.4937 148.54 40.227 149.047 40.067 149.62V156H38.707V141.4H40.067V147.94C40.4804 147.167 41.0537 146.553 41.787 146.1C42.5337 145.633 43.327 145.4 44.167 145.4C44.767 145.4 45.2737 145.507 45.687 145.72C46.1137 145.933 46.4537 146.247 46.707 146.66C46.9737 147.06 47.167 147.533 47.287 148.08C47.407 148.613 47.467 149.22 47.467 149.9V156ZM54.8672 156.2C54.1205 156.2 53.4272 156.06 52.7872 155.78C52.1472 155.487 51.5939 155.093 51.1272 154.6C50.6605 154.093 50.2939 153.513 50.0272 152.86C49.7739 152.207 49.6472 151.507 49.6472 150.76C49.6472 149.787 49.8672 148.893 50.3072 148.08C50.7605 147.267 51.3805 146.62 52.1672 146.14C52.9539 145.647 53.8472 145.4 54.8472 145.4C55.8739 145.4 56.7672 145.647 57.5272 146.14C58.3005 146.633 58.9072 147.287 59.3472 148.1C59.7872 148.9 60.0072 149.78 60.0072 150.74C60.0072 150.847 60.0072 150.953 60.0072 151.06C60.0072 151.153 60.0005 151.227 59.9872 151.28H51.0672C51.1339 152.027 51.3405 152.693 51.6872 153.28C52.0472 153.853 52.5072 154.313 53.0672 154.66C53.6405 154.993 54.2605 155.16 54.9272 155.16C55.6072 155.16 56.2472 154.987 56.8472 154.64C57.4605 154.293 57.8872 153.84 58.1272 153.28L59.3072 153.6C59.0939 154.093 58.7672 154.54 58.3272 154.94C57.8872 155.34 57.3672 155.653 56.7672 155.88C56.1805 156.093 55.5472 156.2 54.8672 156.2ZM51.0272 150.3H58.7272C58.6739 149.54 58.4672 148.873 58.1072 148.3C57.7605 147.727 57.3005 147.28 56.7272 146.96C56.1672 146.627 55.5472 146.46 54.8672 146.46C54.1872 146.46 53.5672 146.627 53.0072 146.96C52.4472 147.28 51.9872 147.733 51.6272 148.32C51.2805 148.893 51.0805 149.553 51.0272 150.3ZM72.4031 146.78C71.4965 146.807 70.6965 147.06 70.0031 147.54C69.3231 148.02 68.8431 148.68 68.5631 149.52V156H67.2031V145.58H68.4831V148.08C68.8431 147.347 69.3165 146.753 69.9031 146.3C70.5031 145.847 71.1365 145.593 71.8031 145.54C71.9365 145.527 72.0498 145.52 72.1431 145.52C72.2498 145.52 72.3365 145.527 72.4031 145.54V146.78ZM74.2148 156V145.58H75.5748V156H74.2148ZM74.2148 143.4V141.4H75.5748V143.4H74.2148ZM82.7503 156.14C82.0436 156.14 81.3903 155.993 80.7903 155.7C80.1903 155.407 79.6703 155.013 79.2303 154.52C78.8036 154.013 78.4703 153.44 78.2303 152.8C77.9903 152.16 77.8703 151.5 77.8703 150.82C77.8703 150.087 77.9836 149.4 78.2103 148.76C78.4503 148.107 78.7836 147.527 79.2103 147.02C79.6503 146.513 80.1636 146.12 80.7503 145.84C81.337 145.547 81.9903 145.4 82.7103 145.4C83.6036 145.4 84.377 145.627 85.0303 146.08C85.697 146.533 86.257 147.093 86.7103 147.76V145.58H87.9303V156.04C87.9303 157 87.697 157.807 87.2303 158.46C86.777 159.127 86.157 159.627 85.3703 159.96C84.597 160.293 83.7503 160.46 82.8303 160.46C81.6436 160.46 80.6836 160.247 79.9503 159.82C79.217 159.393 78.617 158.82 78.1503 158.1L78.9903 157.44C79.4036 158.093 79.9503 158.58 80.6303 158.9C81.3236 159.22 82.057 159.38 82.8303 159.38C83.5103 159.38 84.1303 159.253 84.6903 159C85.2636 158.76 85.717 158.393 86.0503 157.9C86.397 157.407 86.5703 156.787 86.5703 156.04V153.98C86.1703 154.633 85.6236 155.16 84.9303 155.56C84.237 155.947 83.5103 156.14 82.7503 156.14ZM83.1303 155C83.5436 155 83.937 154.927 84.3103 154.78C84.697 154.633 85.0503 154.44 85.3703 154.2C85.6903 153.947 85.957 153.667 86.1703 153.36C86.3836 153.053 86.517 152.74 86.5703 152.42V149.2C86.3703 148.693 86.0836 148.247 85.7103 147.86C85.337 147.46 84.9103 147.153 84.4303 146.94C83.9636 146.713 83.477 146.6 82.9703 146.6C82.3836 146.6 81.857 146.727 81.3903 146.98C80.937 147.22 80.5503 147.547 80.2303 147.96C79.9236 148.36 79.6836 148.813 79.5103 149.32C79.337 149.827 79.2503 150.333 79.2503 150.84C79.2503 151.4 79.3503 151.933 79.5503 152.44C79.7503 152.933 80.0236 153.38 80.3703 153.78C80.7303 154.167 81.1436 154.467 81.6103 154.68C82.0903 154.893 82.597 155 83.1303 155ZM99.6936 156H98.3336V150.18C98.3336 149.007 98.1269 148.127 97.7136 147.54C97.3003 146.94 96.7069 146.64 95.9336 146.64C95.4269 146.64 94.9203 146.773 94.4136 147.04C93.9203 147.293 93.4803 147.647 93.0936 148.1C92.7203 148.54 92.4536 149.047 92.2936 149.62V156H90.9336V141.4H92.2936V147.94C92.7069 147.167 93.2803 146.553 94.0136 146.1C94.7603 145.633 95.5536 145.4 96.3936 145.4C96.9936 145.4 97.5003 145.507 97.9136 145.72C98.3403 145.933 98.6803 146.247 98.9336 146.66C99.2003 147.06 99.3936 147.533 99.5136 148.08C99.6336 148.613 99.6936 149.22 99.6936 149.9V156ZM107.496 155.5C107.389 155.54 107.223 155.613 106.996 155.72C106.769 155.827 106.496 155.92 106.176 156C105.856 156.08 105.509 156.12 105.136 156.12C104.749 156.12 104.383 156.047 104.036 155.9C103.703 155.753 103.436 155.533 103.236 155.24C103.036 154.933 102.936 154.56 102.936 154.12V146.66H101.496V145.58H102.936V142.06H104.296V145.58H106.696V146.66H104.296V153.74C104.323 154.113 104.456 154.393 104.696 154.58C104.949 154.767 105.236 154.86 105.556 154.86C105.929 154.86 106.269 154.8 106.576 154.68C106.883 154.547 107.069 154.453 107.136 154.4L107.496 155.5ZM113.453 153C113.453 152.347 113.64 151.787 114.013 151.32C114.386 150.84 114.9 150.473 115.553 150.22C116.22 149.953 116.986 149.82 117.853 149.82C118.36 149.82 118.886 149.86 119.433 149.94C119.98 150.02 120.466 150.14 120.893 150.3V149.42C120.893 148.54 120.633 147.84 120.113 147.32C119.593 146.8 118.873 146.54 117.953 146.54C117.393 146.54 116.84 146.647 116.293 146.86C115.76 147.06 115.2 147.36 114.613 147.76L114.093 146.8C114.773 146.333 115.44 145.987 116.093 145.76C116.746 145.52 117.413 145.4 118.093 145.4C119.373 145.4 120.386 145.767 121.133 146.5C121.88 147.233 122.253 148.247 122.253 149.54V154.36C122.253 154.547 122.293 154.687 122.373 154.78C122.453 154.86 122.58 154.907 122.753 154.92V156C122.606 156.013 122.48 156.027 122.373 156.04C122.266 156.053 122.186 156.053 122.133 156.04C121.8 156.027 121.546 155.92 121.373 155.72C121.2 155.52 121.106 155.307 121.093 155.08L121.073 154.32C120.606 154.92 120 155.387 119.253 155.72C118.506 156.04 117.746 156.2 116.973 156.2C116.306 156.2 115.7 156.06 115.153 155.78C114.62 155.487 114.2 155.1 113.893 154.62C113.6 154.127 113.453 153.587 113.453 153ZM120.433 153.8C120.58 153.613 120.693 153.433 120.773 153.26C120.853 153.087 120.893 152.933 120.893 152.8V151.28C120.44 151.107 119.966 150.973 119.473 150.88C118.993 150.787 118.506 150.74 118.013 150.74C117.04 150.74 116.253 150.933 115.653 151.32C115.053 151.707 114.753 152.233 114.753 152.9C114.753 153.287 114.853 153.653 115.053 154C115.253 154.333 115.546 154.613 115.933 154.84C116.32 155.053 116.773 155.16 117.293 155.16C117.946 155.16 118.553 155.033 119.113 154.78C119.686 154.527 120.126 154.2 120.433 153.8ZM130.511 156.2C129.645 156.2 128.865 155.973 128.171 155.52C127.491 155.067 126.951 154.507 126.551 153.84V160.26H125.191V145.58H126.411V147.6C126.825 146.947 127.378 146.42 128.071 146.02C128.765 145.607 129.505 145.4 130.291 145.4C131.011 145.4 131.671 145.553 132.271 145.86C132.871 146.153 133.391 146.553 133.831 147.06C134.271 147.567 134.611 148.147 134.851 148.8C135.105 149.44 135.231 150.107 135.231 150.8C135.231 151.773 135.031 152.673 134.631 153.5C134.245 154.313 133.698 154.967 132.991 155.46C132.285 155.953 131.458 156.2 130.511 156.2ZM130.131 155C130.705 155 131.218 154.887 131.671 154.66C132.125 154.42 132.511 154.1 132.831 153.7C133.165 153.3 133.418 152.853 133.591 152.36C133.765 151.853 133.851 151.333 133.851 150.8C133.851 150.24 133.751 149.707 133.551 149.2C133.365 148.693 133.091 148.247 132.731 147.86C132.371 147.473 131.958 147.167 131.491 146.94C131.025 146.713 130.518 146.6 129.971 146.6C129.625 146.6 129.265 146.667 128.891 146.8C128.518 146.933 128.158 147.127 127.811 147.38C127.478 147.62 127.198 147.893 126.971 148.2C126.745 148.507 126.605 148.833 126.551 149.18V152.38C126.765 152.873 127.051 153.32 127.411 153.72C127.771 154.107 128.185 154.42 128.651 154.66C129.131 154.887 129.625 155 130.131 155ZM142.855 156.2C141.988 156.2 141.208 155.973 140.515 155.52C139.835 155.067 139.295 154.507 138.895 153.84V160.26H137.535V145.58H138.755V147.6C139.168 146.947 139.722 146.42 140.415 146.02C141.108 145.607 141.848 145.4 142.635 145.4C143.355 145.4 144.015 145.553 144.615 145.86C145.215 146.153 145.735 146.553 146.175 147.06C146.615 147.567 146.955 148.147 147.195 148.8C147.448 149.44 147.575 150.107 147.575 150.8C147.575 151.773 147.375 152.673 146.975 153.5C146.588 154.313 146.042 154.967 145.335 155.46C144.628 155.953 143.802 156.2 142.855 156.2ZM142.475 155C143.048 155 143.562 154.887 144.015 154.66C144.468 154.42 144.855 154.1 145.175 153.7C145.508 153.3 145.762 152.853 145.935 152.36C146.108 151.853 146.195 151.333 146.195 150.8C146.195 150.24 146.095 149.707 145.895 149.2C145.708 148.693 145.435 148.247 145.075 147.86C144.715 147.473 144.302 147.167 143.835 146.94C143.368 146.713 142.862 146.6 142.315 146.6C141.968 146.6 141.608 146.667 141.235 146.8C140.862 146.933 140.502 147.127 140.155 147.38C139.822 147.62 139.542 147.893 139.315 148.2C139.088 148.507 138.948 148.833 138.895 149.18V152.38C139.108 152.873 139.395 153.32 139.755 153.72C140.115 154.107 140.528 154.42 140.995 154.66C141.475 154.887 141.968 155 142.475 155ZM155.079 146.78C154.172 146.807 153.372 147.06 152.679 147.54C151.999 148.02 151.519 148.68 151.239 149.52V156H149.879V145.58H151.159V148.08C151.519 147.347 151.992 146.753 152.579 146.3C153.179 145.847 153.812 145.593 154.479 145.54C154.612 145.527 154.726 145.52 154.819 145.52C154.926 145.52 155.012 145.527 155.079 145.54V146.78ZM160.999 156.2C160.252 156.2 159.559 156.06 158.919 155.78C158.292 155.487 157.745 155.093 157.279 154.6C156.825 154.093 156.472 153.52 156.219 152.88C155.965 152.227 155.839 151.54 155.839 150.82C155.839 150.073 155.965 149.38 156.219 148.74C156.472 148.087 156.832 147.513 157.299 147.02C157.765 146.513 158.312 146.12 158.939 145.84C159.579 145.547 160.272 145.4 161.019 145.4C161.765 145.4 162.452 145.547 163.079 145.84C163.705 146.12 164.252 146.513 164.719 147.02C165.185 147.513 165.545 148.087 165.799 148.74C166.052 149.38 166.179 150.073 166.179 150.82C166.179 151.54 166.052 152.227 165.799 152.88C165.545 153.52 165.185 154.093 164.719 154.6C164.265 155.093 163.719 155.487 163.079 155.78C162.452 156.06 161.759 156.2 160.999 156.2ZM157.219 150.84C157.219 151.613 157.385 152.32 157.719 152.96C158.065 153.587 158.525 154.087 159.099 154.46C159.672 154.82 160.305 155 160.999 155C161.692 155 162.325 154.813 162.899 154.44C163.472 154.067 163.932 153.56 164.279 152.92C164.625 152.267 164.799 151.56 164.799 150.8C164.799 150.027 164.625 149.32 164.279 148.68C163.932 148.04 163.472 147.533 162.899 147.16C162.325 146.787 161.692 146.6 160.999 146.6C160.305 146.6 159.672 146.793 159.099 147.18C158.539 147.567 158.085 148.08 157.739 148.72C157.392 149.347 157.219 150.053 157.219 150.84ZM167.613 153C167.613 152.347 167.8 151.787 168.173 151.32C168.546 150.84 169.06 150.473 169.713 150.22C170.38 149.953 171.146 149.82 172.013 149.82C172.52 149.82 173.046 149.86 173.593 149.94C174.14 150.02 174.626 150.14 175.053 150.3V149.42C175.053 148.54 174.793 147.84 174.273 147.32C173.753 146.8 173.033 146.54 172.113 146.54C171.553 146.54 171 146.647 170.453 146.86C169.92 147.06 169.36 147.36 168.773 147.76L168.253 146.8C168.933 146.333 169.6 145.987 170.253 145.76C170.906 145.52 171.573 145.4 172.253 145.4C173.533 145.4 174.546 145.767 175.293 146.5C176.04 147.233 176.413 148.247 176.413 149.54V154.36C176.413 154.547 176.453 154.687 176.533 154.78C176.613 154.86 176.74 154.907 176.913 154.92V156C176.766 156.013 176.64 156.027 176.533 156.04C176.426 156.053 176.346 156.053 176.293 156.04C175.96 156.027 175.706 155.92 175.533 155.72C175.36 155.52 175.266 155.307 175.253 155.08L175.233 154.32C174.766 154.92 174.16 155.387 173.413 155.72C172.666 156.04 171.906 156.2 171.133 156.2C170.466 156.2 169.86 156.06 169.313 155.78C168.78 155.487 168.36 155.1 168.053 154.62C167.76 154.127 167.613 153.587 167.613 153ZM174.593 153.8C174.74 153.613 174.853 153.433 174.933 153.26C175.013 153.087 175.053 152.933 175.053 152.8V151.28C174.6 151.107 174.126 150.973 173.633 150.88C173.153 150.787 172.666 150.74 172.173 150.74C171.2 150.74 170.413 150.933 169.813 151.32C169.213 151.707 168.913 152.233 168.913 152.9C168.913 153.287 169.013 153.653 169.213 154C169.413 154.333 169.706 154.613 170.093 154.84C170.48 155.053 170.933 155.16 171.453 155.16C172.106 155.16 172.713 155.033 173.273 154.78C173.846 154.527 174.286 154.2 174.593 153.8ZM183.872 156.2C183.112 156.2 182.412 156.06 181.772 155.78C181.145 155.487 180.592 155.087 180.112 154.58C179.645 154.073 179.278 153.493 179.012 152.84C178.758 152.187 178.632 151.493 178.632 150.76C178.632 149.773 178.852 148.873 179.292 148.06C179.732 147.247 180.345 146.6 181.132 146.12C181.918 145.64 182.825 145.4 183.852 145.4C184.825 145.4 185.685 145.627 186.432 146.08C187.178 146.52 187.732 147.12 188.092 147.88L186.772 148.3C186.478 147.767 186.065 147.353 185.532 147.06C185.012 146.753 184.432 146.6 183.792 146.6C183.098 146.6 182.465 146.78 181.892 147.14C181.318 147.5 180.858 147.993 180.512 148.62C180.178 149.247 180.012 149.96 180.012 150.76C180.012 151.547 180.185 152.26 180.532 152.9C180.878 153.54 181.338 154.053 181.912 154.44C182.485 154.813 183.118 155 183.812 155C184.265 155 184.698 154.92 185.112 154.76C185.538 154.6 185.905 154.387 186.212 154.12C186.532 153.84 186.745 153.54 186.852 153.22L188.192 153.62C188.005 154.113 187.692 154.56 187.252 154.96C186.825 155.347 186.318 155.653 185.732 155.88C185.158 156.093 184.538 156.2 183.872 156.2ZM199.088 156H197.728V150.18C197.728 149.007 197.521 148.127 197.108 147.54C196.695 146.94 196.101 146.64 195.328 146.64C194.821 146.64 194.315 146.773 193.808 147.04C193.315 147.293 192.875 147.647 192.488 148.1C192.115 148.54 191.848 149.047 191.688 149.62V156H190.328V141.4H191.688V147.94C192.101 147.167 192.675 146.553 193.408 146.1C194.155 145.633 194.948 145.4 195.788 145.4C196.388 145.4 196.895 145.507 197.308 145.72C197.735 145.933 198.075 146.247 198.328 146.66C198.595 147.06 198.788 147.533 198.908 148.08C199.028 148.613 199.088 149.22 199.088 149.9V156ZM212.086 155.5C211.979 155.54 211.813 155.613 211.586 155.72C211.359 155.827 211.086 155.92 210.766 156C210.446 156.08 210.099 156.12 209.726 156.12C209.339 156.12 208.973 156.047 208.626 155.9C208.293 155.753 208.026 155.533 207.826 155.24C207.626 154.933 207.526 154.56 207.526 154.12V146.66H206.086V145.58H207.526V142.06H208.886V145.58H211.286V146.66H208.886V153.74C208.913 154.113 209.046 154.393 209.286 154.58C209.539 154.767 209.826 154.86 210.146 154.86C210.519 154.86 210.859 154.8 211.166 154.68C211.473 154.547 211.659 154.453 211.726 154.4L212.086 155.5ZM218.049 156.2C217.303 156.2 216.609 156.06 215.969 155.78C215.343 155.487 214.796 155.093 214.329 154.6C213.876 154.093 213.523 153.52 213.269 152.88C213.016 152.227 212.889 151.54 212.889 150.82C212.889 150.073 213.016 149.38 213.269 148.74C213.523 148.087 213.883 147.513 214.349 147.02C214.816 146.513 215.363 146.12 215.989 145.84C216.629 145.547 217.323 145.4 218.069 145.4C218.816 145.4 219.503 145.547 220.129 145.84C220.756 146.12 221.303 146.513 221.769 147.02C222.236 147.513 222.596 148.087 222.849 148.74C223.103 149.38 223.229 150.073 223.229 150.82C223.229 151.54 223.103 152.227 222.849 152.88C222.596 153.52 222.236 154.093 221.769 154.6C221.316 155.093 220.769 155.487 220.129 155.78C219.503 156.06 218.809 156.2 218.049 156.2ZM214.269 150.84C214.269 151.613 214.436 152.32 214.769 152.96C215.116 153.587 215.576 154.087 216.149 154.46C216.723 154.82 217.356 155 218.049 155C218.743 155 219.376 154.813 219.949 154.44C220.523 154.067 220.983 153.56 221.329 152.92C221.676 152.267 221.849 151.56 221.849 150.8C221.849 150.027 221.676 149.32 221.329 148.68C220.983 148.04 220.523 147.533 219.949 147.16C219.376 146.787 218.743 146.6 218.049 146.6C217.356 146.6 216.723 146.793 216.149 147.18C215.589 147.567 215.136 148.08 214.789 148.72C214.443 149.347 214.269 150.053 214.269 150.84ZM235.122 156.2C234.362 156.2 233.662 156.06 233.022 155.78C232.395 155.487 231.842 155.087 231.362 154.58C230.895 154.073 230.528 153.493 230.262 152.84C230.008 152.187 229.882 151.493 229.882 150.76C229.882 149.773 230.102 148.873 230.542 148.06C230.982 147.247 231.595 146.6 232.382 146.12C233.168 145.64 234.075 145.4 235.102 145.4C236.075 145.4 236.935 145.627 237.682 146.08C238.428 146.52 238.982 147.12 239.342 147.88L238.022 148.3C237.728 147.767 237.315 147.353 236.782 147.06C236.262 146.753 235.682 146.6 235.042 146.6C234.348 146.6 233.715 146.78 233.142 147.14C232.568 147.5 232.108 147.993 231.762 148.62C231.428 149.247 231.262 149.96 231.262 150.76C231.262 151.547 231.435 152.26 231.782 152.9C232.128 153.54 232.588 154.053 233.162 154.44C233.735 154.813 234.368 155 235.062 155C235.515 155 235.948 154.92 236.362 154.76C236.788 154.6 237.155 154.387 237.462 154.12C237.782 153.84 237.995 153.54 238.102 153.22L239.442 153.62C239.255 154.113 238.942 154.56 238.502 154.96C238.075 155.347 237.568 155.653 236.982 155.88C236.408 156.093 235.788 156.2 235.122 156.2ZM245.92 156.2C245.174 156.2 244.48 156.06 243.84 155.78C243.214 155.487 242.667 155.093 242.2 154.6C241.747 154.093 241.394 153.52 241.14 152.88C240.887 152.227 240.76 151.54 240.76 150.82C240.76 150.073 240.887 149.38 241.14 148.74C241.394 148.087 241.754 147.513 242.22 147.02C242.687 146.513 243.234 146.12 243.86 145.84C244.5 145.547 245.194 145.4 245.94 145.4C246.687 145.4 247.374 145.547 248 145.84C248.627 146.12 249.174 146.513 249.64 147.02C250.107 147.513 250.467 148.087 250.72 148.74C250.974 149.38 251.1 150.073 251.1 150.82C251.1 151.54 250.974 152.227 250.72 152.88C250.467 153.52 250.107 154.093 249.64 154.6C249.187 155.093 248.64 155.487 248 155.78C247.374 156.06 246.68 156.2 245.92 156.2ZM242.14 150.84C242.14 151.613 242.307 152.32 242.64 152.96C242.987 153.587 243.447 154.087 244.02 154.46C244.594 154.82 245.227 155 245.92 155C246.614 155 247.247 154.813 247.82 154.44C248.394 154.067 248.854 153.56 249.2 152.92C249.547 152.267 249.72 151.56 249.72 150.8C249.72 150.027 249.547 149.32 249.2 148.68C248.854 148.04 248.394 147.533 247.82 147.16C247.247 146.787 246.614 146.6 245.92 146.6C245.227 146.6 244.594 146.793 244.02 147.18C243.46 147.567 243.007 148.08 242.66 148.72C242.314 149.347 242.14 150.053 242.14 150.84ZM268.875 156H267.515V150.18C267.515 148.967 267.322 148.073 266.935 147.5C266.548 146.927 265.975 146.64 265.215 146.64C264.428 146.64 263.722 146.92 263.095 147.48C262.482 148.04 262.048 148.76 261.795 149.64V156H260.435V150.18C260.435 148.953 260.248 148.06 259.875 147.5C259.502 146.927 258.928 146.64 258.155 146.64C257.382 146.64 256.682 146.913 256.055 147.46C255.428 148.007 254.988 148.727 254.735 149.62V156H253.375V145.58H254.615V147.94C255.055 147.127 255.615 146.5 256.295 146.06C256.988 145.62 257.755 145.4 258.595 145.4C259.462 145.4 260.162 145.647 260.695 146.14C261.228 146.633 261.555 147.28 261.675 148.08C262.155 147.2 262.728 146.533 263.395 146.08C264.075 145.627 264.842 145.4 265.695 145.4C266.282 145.4 266.775 145.507 267.175 145.72C267.588 145.933 267.915 146.24 268.155 146.64C268.408 147.027 268.588 147.5 268.695 148.06C268.815 148.607 268.875 149.22 268.875 149.9V156ZM277.074 156.2C276.207 156.2 275.427 155.973 274.734 155.52C274.054 155.067 273.514 154.507 273.114 153.84V160.26H271.754V145.58H272.974V147.6C273.387 146.947 273.941 146.42 274.634 146.02C275.327 145.607 276.067 145.4 276.854 145.4C277.574 145.4 278.234 145.553 278.834 145.86C279.434 146.153 279.954 146.553 280.394 147.06C280.834 147.567 281.174 148.147 281.414 148.8C281.667 149.44 281.794 150.107 281.794 150.8C281.794 151.773 281.594 152.673 281.194 153.5C280.807 154.313 280.261 154.967 279.554 155.46C278.847 155.953 278.021 156.2 277.074 156.2ZM276.694 155C277.267 155 277.781 154.887 278.234 154.66C278.687 154.42 279.074 154.1 279.394 153.7C279.727 153.3 279.981 152.853 280.154 152.36C280.327 151.853 280.414 151.333 280.414 150.8C280.414 150.24 280.314 149.707 280.114 149.2C279.927 148.693 279.654 148.247 279.294 147.86C278.934 147.473 278.521 147.167 278.054 146.94C277.587 146.713 277.081 146.6 276.534 146.6C276.187 146.6 275.827 146.667 275.454 146.8C275.081 146.933 274.721 147.127 274.374 147.38C274.041 147.62 273.761 147.893 273.534 148.2C273.307 148.507 273.167 148.833 273.114 149.18V152.38C273.327 152.873 273.614 153.32 273.974 153.72C274.334 154.107 274.747 154.42 275.214 154.66C275.694 154.887 276.187 155 276.694 155ZM289.298 146.78C288.391 146.807 287.591 147.06 286.898 147.54C286.218 148.02 285.738 148.68 285.458 149.52V156H284.098V145.58H285.378V148.08C285.738 147.347 286.211 146.753 286.798 146.3C287.398 145.847 288.031 145.593 288.698 145.54C288.831 145.527 288.944 145.52 289.038 145.52C289.144 145.52 289.231 145.527 289.298 145.54V146.78ZM295.277 156.2C294.531 156.2 293.837 156.06 293.197 155.78C292.557 155.487 292.004 155.093 291.537 154.6C291.071 154.093 290.704 153.513 290.437 152.86C290.184 152.207 290.057 151.507 290.057 150.76C290.057 149.787 290.277 148.893 290.717 148.08C291.171 147.267 291.791 146.62 292.577 146.14C293.364 145.647 294.257 145.4 295.257 145.4C296.284 145.4 297.177 145.647 297.937 146.14C298.711 146.633 299.317 147.287 299.757 148.1C300.197 148.9 300.417 149.78 300.417 150.74C300.417 150.847 300.417 150.953 300.417 151.06C300.417 151.153 300.411 151.227 300.397 151.28H291.477C291.544 152.027 291.751 152.693 292.097 153.28C292.457 153.853 292.917 154.313 293.477 154.66C294.051 154.993 294.671 155.16 295.337 155.16C296.017 155.16 296.657 154.987 297.257 154.64C297.871 154.293 298.297 153.84 298.537 153.28L299.717 153.6C299.504 154.093 299.177 154.54 298.737 154.94C298.297 155.34 297.777 155.653 297.177 155.88C296.591 156.093 295.957 156.2 295.277 156.2ZM291.437 150.3H299.137C299.084 149.54 298.877 148.873 298.517 148.3C298.171 147.727 297.711 147.28 297.137 146.96C296.577 146.627 295.957 146.46 295.277 146.46C294.597 146.46 293.977 146.627 293.417 146.96C292.857 147.28 292.397 147.733 292.037 148.32C291.691 148.893 291.491 149.553 291.437 150.3ZM311.276 156H309.916V150.18C309.916 149.007 309.709 148.127 309.296 147.54C308.882 146.94 308.289 146.64 307.516 146.64C307.009 146.64 306.502 146.773 305.996 147.04C305.502 147.293 305.062 147.647 304.676 148.1C304.302 148.54 304.036 149.047 303.876 149.62V156H302.516V141.4H303.876V147.94C304.289 147.167 304.862 146.553 305.596 146.1C306.342 145.633 307.136 145.4 307.976 145.4C308.576 145.4 309.082 145.507 309.496 145.72C309.922 145.933 310.262 146.247 310.516 146.66C310.782 147.06 310.976 147.533 311.096 148.08C311.216 148.613 311.276 149.22 311.276 149.9V156ZM318.676 156.2C317.929 156.2 317.236 156.06 316.596 155.78C315.956 155.487 315.402 155.093 314.936 154.6C314.469 154.093 314.102 153.513 313.836 152.86C313.582 152.207 313.456 151.507 313.456 150.76C313.456 149.787 313.676 148.893 314.116 148.08C314.569 147.267 315.189 146.62 315.976 146.14C316.762 145.647 317.656 145.4 318.656 145.4C319.682 145.4 320.576 145.647 321.336 146.14C322.109 146.633 322.716 147.287 323.156 148.1C323.596 148.9 323.816 149.78 323.816 150.74C323.816 150.847 323.816 150.953 323.816 151.06C323.816 151.153 323.809 151.227 323.796 151.28H314.876C314.942 152.027 315.149 152.693 315.496 153.28C315.856 153.853 316.316 154.313 316.876 154.66C317.449 154.993 318.069 155.16 318.736 155.16C319.416 155.16 320.056 154.987 320.656 154.64C321.269 154.293 321.696 153.84 321.936 153.28L323.116 153.6C322.902 154.093 322.576 154.54 322.136 154.94C321.696 155.34 321.176 155.653 320.576 155.88C319.989 156.093 319.356 156.2 318.676 156.2ZM314.836 150.3H322.536C322.482 149.54 322.276 148.873 321.916 148.3C321.569 147.727 321.109 147.28 320.536 146.96C319.976 146.627 319.356 146.46 318.676 146.46C317.996 146.46 317.376 146.627 316.816 146.96C316.256 147.28 315.796 147.733 315.436 148.32C315.089 148.893 314.889 149.553 314.836 150.3ZM334.674 156H333.314V150.18C333.314 148.953 333.134 148.06 332.774 147.5C332.414 146.927 331.847 146.64 331.074 146.64C330.541 146.64 330.014 146.773 329.494 147.04C328.974 147.293 328.514 147.647 328.114 148.1C327.727 148.54 327.447 149.047 327.274 149.62V156H325.914V145.58H327.154V147.94C327.434 147.433 327.801 146.993 328.254 146.62C328.707 146.233 329.221 145.933 329.794 145.72C330.367 145.507 330.961 145.4 331.574 145.4C332.147 145.4 332.634 145.507 333.034 145.72C333.434 145.933 333.754 146.24 333.994 146.64C334.234 147.027 334.407 147.5 334.514 148.06C334.621 148.607 334.674 149.22 334.674 149.9V156ZM336.874 150.82C336.874 149.833 337.074 148.933 337.474 148.12C337.888 147.293 338.454 146.633 339.174 146.14C339.894 145.647 340.714 145.4 341.634 145.4C342.501 145.4 343.274 145.633 343.954 146.1C344.648 146.553 345.188 147.107 345.574 147.76V141.4H346.934V154.36C346.934 154.547 346.974 154.687 347.054 154.78C347.134 154.86 347.254 154.907 347.414 154.92V156C347.148 156.04 346.941 156.053 346.794 156.04C346.514 156.027 346.268 155.913 346.054 155.7C345.841 155.487 345.734 155.253 345.734 155V153.98C345.321 154.66 344.761 155.2 344.054 155.6C343.348 156 342.614 156.2 341.854 156.2C341.134 156.2 340.468 156.053 339.854 155.76C339.254 155.467 338.728 155.067 338.274 154.56C337.834 154.053 337.488 153.48 337.234 152.84C336.994 152.187 336.874 151.513 336.874 150.82ZM345.574 152.42V149.2C345.401 148.72 345.121 148.287 344.734 147.9C344.348 147.5 343.908 147.187 343.414 146.96C342.934 146.72 342.454 146.6 341.974 146.6C341.414 146.6 340.908 146.72 340.454 146.96C340.001 147.187 339.608 147.5 339.274 147.9C338.954 148.3 338.708 148.753 338.534 149.26C338.361 149.767 338.274 150.287 338.274 150.82C338.274 151.38 338.368 151.913 338.554 152.42C338.754 152.927 339.034 153.38 339.394 153.78C339.754 154.167 340.168 154.467 340.634 154.68C341.101 154.893 341.608 155 342.154 155C342.501 155 342.861 154.933 343.234 154.8C343.608 154.667 343.961 154.487 344.294 154.26C344.641 154.02 344.928 153.74 345.154 153.42C345.381 153.1 345.521 152.767 345.574 152.42ZM29.92 179.2C29.0667 179.2 28.2733 179.06 27.54 178.78C26.8067 178.5 26.1733 178.073 25.64 177.5L26.2 176.54C26.7867 177.087 27.3733 177.487 27.96 177.74C28.56 177.98 29.1933 178.1 29.86 178.1C30.6733 178.1 31.3333 177.94 31.84 177.62C32.3467 177.287 32.6 176.813 32.6 176.2C32.6 175.787 32.4733 175.473 32.22 175.26C31.98 175.033 31.6267 174.853 31.16 174.72C30.7067 174.573 30.16 174.42 29.52 174.26C28.8 174.06 28.1933 173.853 27.7 173.64C27.22 173.413 26.8533 173.133 26.6 172.8C26.36 172.453 26.24 172.007 26.24 171.46C26.24 170.78 26.4067 170.22 26.74 169.78C27.0867 169.327 27.5533 168.987 28.14 168.76C28.74 168.52 29.4067 168.4 30.14 168.4C30.94 168.4 31.6467 168.527 32.26 168.78C32.8733 169.033 33.3733 169.387 33.76 169.84L33.1 170.76C32.7267 170.333 32.28 170.02 31.76 169.82C31.2533 169.607 30.6867 169.5 30.06 169.5C29.6333 169.5 29.2267 169.56 28.84 169.68C28.4533 169.787 28.1333 169.973 27.88 170.24C27.64 170.493 27.52 170.847 27.52 171.3C27.52 171.673 27.6133 171.967 27.8 172.18C27.9867 172.38 28.2667 172.553 28.64 172.7C29.0133 172.833 29.4733 172.98 30.02 173.14C30.8067 173.353 31.4933 173.573 32.08 173.8C32.6667 174.013 33.12 174.293 33.44 174.64C33.76 174.987 33.92 175.473 33.92 176.1C33.92 177.073 33.5533 177.833 32.82 178.38C32.0867 178.927 31.12 179.2 29.92 179.2ZM40.688 179.2C39.928 179.2 39.228 179.06 38.588 178.78C37.9613 178.487 37.408 178.087 36.928 177.58C36.4613 177.073 36.0946 176.493 35.828 175.84C35.5746 175.187 35.448 174.493 35.448 173.76C35.448 172.773 35.668 171.873 36.108 171.06C36.548 170.247 37.1613 169.6 37.948 169.12C38.7346 168.64 39.6413 168.4 40.668 168.4C41.6413 168.4 42.5013 168.627 43.248 169.08C43.9946 169.52 44.548 170.12 44.908 170.88L43.588 171.3C43.2946 170.767 42.8813 170.353 42.348 170.06C41.828 169.753 41.248 169.6 40.608 169.6C39.9146 169.6 39.2813 169.78 38.708 170.14C38.1346 170.5 37.6746 170.993 37.328 171.62C36.9946 172.247 36.828 172.96 36.828 173.76C36.828 174.547 37.0013 175.26 37.348 175.9C37.6946 176.54 38.1546 177.053 38.728 177.44C39.3013 177.813 39.9346 178 40.628 178C41.0813 178 41.5146 177.92 41.928 177.76C42.3546 177.6 42.7213 177.387 43.028 177.12C43.348 176.84 43.5613 176.54 43.668 176.22L45.008 176.62C44.8213 177.113 44.508 177.56 44.068 177.96C43.6413 178.347 43.1346 178.653 42.548 178.88C41.9746 179.093 41.3546 179.2 40.688 179.2ZM51.5469 179.2C50.8002 179.2 50.1069 179.06 49.4669 178.78C48.8269 178.487 48.2735 178.093 47.8069 177.6C47.3402 177.093 46.9735 176.513 46.7069 175.86C46.4535 175.207 46.3269 174.507 46.3269 173.76C46.3269 172.787 46.5469 171.893 46.9869 171.08C47.4402 170.267 48.0602 169.62 48.8469 169.14C49.6335 168.647 50.5269 168.4 51.5269 168.4C52.5535 168.4 53.4469 168.647 54.2069 169.14C54.9802 169.633 55.5869 170.287 56.0269 171.1C56.4669 171.9 56.6869 172.78 56.6869 173.74C56.6869 173.847 56.6869 173.953 56.6869 174.06C56.6869 174.153 56.6802 174.227 56.6669 174.28H47.7469C47.8135 175.027 48.0202 175.693 48.3669 176.28C48.7269 176.853 49.1869 177.313 49.7469 177.66C50.3202 177.993 50.9402 178.16 51.6069 178.16C52.2869 178.16 52.9269 177.987 53.5269 177.64C54.1402 177.293 54.5669 176.84 54.8069 176.28L55.9869 176.6C55.7735 177.093 55.4469 177.54 55.0069 177.94C54.5669 178.34 54.0469 178.653 53.4469 178.88C52.8602 179.093 52.2269 179.2 51.5469 179.2ZM47.7069 173.3H55.4069C55.3535 172.54 55.1469 171.873 54.7869 171.3C54.4402 170.727 53.9802 170.28 53.4069 169.96C52.8469 169.627 52.2269 169.46 51.5469 169.46C50.8669 169.46 50.2469 169.627 49.6869 169.96C49.1269 170.28 48.6669 170.733 48.3069 171.32C47.9602 171.893 47.7602 172.553 47.7069 173.3ZM67.5452 179H66.1852V173.18C66.1852 171.953 66.0052 171.06 65.6452 170.5C65.2852 169.927 64.7185 169.64 63.9452 169.64C63.4118 169.64 62.8852 169.773 62.3652 170.04C61.8452 170.293 61.3852 170.647 60.9852 171.1C60.5985 171.54 60.3185 172.047 60.1452 172.62V179H58.7852V168.58H60.0252V170.94C60.3052 170.433 60.6718 169.993 61.1252 169.62C61.5785 169.233 62.0918 168.933 62.6652 168.72C63.2385 168.507 63.8318 168.4 64.4452 168.4C65.0185 168.4 65.5052 168.507 65.9052 168.72C66.3052 168.933 66.6252 169.24 66.8652 169.64C67.1052 170.027 67.2785 170.5 67.3852 171.06C67.4918 171.607 67.5452 172.22 67.5452 172.9V179ZM69.6053 176C69.6053 175.347 69.792 174.787 70.1653 174.32C70.5386 173.84 71.052 173.473 71.7053 173.22C72.372 172.953 73.1386 172.82 74.0053 172.82C74.512 172.82 75.0386 172.86 75.5853 172.94C76.132 173.02 76.6186 173.14 77.0453 173.3V172.42C77.0453 171.54 76.7853 170.84 76.2653 170.32C75.7453 169.8 75.0253 169.54 74.1053 169.54C73.5453 169.54 72.992 169.647 72.4453 169.86C71.912 170.06 71.352 170.36 70.7653 170.76L70.2453 169.8C70.9253 169.333 71.592 168.987 72.2453 168.76C72.8986 168.52 73.5653 168.4 74.2453 168.4C75.5253 168.4 76.5386 168.767 77.2853 169.5C78.032 170.233 78.4053 171.247 78.4053 172.54V177.36C78.4053 177.547 78.4453 177.687 78.5253 177.78C78.6053 177.86 78.732 177.907 78.9053 177.92V179C78.7586 179.013 78.632 179.027 78.5253 179.04C78.4186 179.053 78.3386 179.053 78.2853 179.04C77.952 179.027 77.6986 178.92 77.5253 178.72C77.352 178.52 77.2586 178.307 77.2453 178.08L77.2253 177.32C76.7586 177.92 76.152 178.387 75.4053 178.72C74.6586 179.04 73.8986 179.2 73.1253 179.2C72.4586 179.2 71.852 179.06 71.3053 178.78C70.772 178.487 70.352 178.1 70.0453 177.62C69.752 177.127 69.6053 176.587 69.6053 176ZM76.5853 176.8C76.732 176.613 76.8453 176.433 76.9253 176.26C77.0053 176.087 77.0453 175.933 77.0453 175.8V174.28C76.592 174.107 76.1186 173.973 75.6253 173.88C75.1453 173.787 74.6586 173.74 74.1653 173.74C73.192 173.74 72.4053 173.933 71.8053 174.32C71.2053 174.707 70.9053 175.233 70.9053 175.9C70.9053 176.287 71.0053 176.653 71.2053 177C71.4053 177.333 71.6986 177.613 72.0853 177.84C72.472 178.053 72.9253 178.16 73.4453 178.16C74.0986 178.16 74.7053 178.033 75.2653 177.78C75.8386 177.527 76.2786 177.2 76.5853 176.8ZM86.5438 169.78C85.6371 169.807 84.8371 170.06 84.1438 170.54C83.4638 171.02 82.9838 171.68 82.7038 172.52V179H81.3438V168.58H82.6238V171.08C82.9838 170.347 83.4571 169.753 84.0438 169.3C84.6438 168.847 85.2771 168.593 85.9438 168.54C86.0771 168.527 86.1904 168.52 86.2838 168.52C86.3904 168.52 86.4771 168.527 86.5438 168.54V169.78ZM88.3555 179V168.58H89.7155V179H88.3555ZM88.3555 166.4V164.4H89.7155V166.4H88.3555ZM97.1509 179.2C96.4043 179.2 95.7109 179.06 95.0709 178.78C94.4443 178.487 93.8976 178.093 93.4309 177.6C92.9776 177.093 92.6243 176.52 92.3709 175.88C92.1176 175.227 91.9909 174.54 91.9909 173.82C91.9909 173.073 92.1176 172.38 92.3709 171.74C92.6243 171.087 92.9843 170.513 93.4509 170.02C93.9176 169.513 94.4643 169.12 95.0909 168.84C95.7309 168.547 96.4243 168.4 97.1709 168.4C97.9176 168.4 98.6043 168.547 99.2309 168.84C99.8576 169.12 100.404 169.513 100.871 170.02C101.338 170.513 101.698 171.087 101.951 171.74C102.204 172.38 102.331 173.073 102.331 173.82C102.331 174.54 102.204 175.227 101.951 175.88C101.698 176.52 101.338 177.093 100.871 177.6C100.418 178.093 99.8709 178.487 99.2309 178.78C98.6043 179.06 97.9109 179.2 97.1509 179.2ZM93.3709 173.84C93.3709 174.613 93.5376 175.32 93.8709 175.96C94.2176 176.587 94.6776 177.087 95.2509 177.46C95.8243 177.82 96.4576 178 97.1509 178C97.8443 178 98.4776 177.813 99.0509 177.44C99.6243 177.067 100.084 176.56 100.431 175.92C100.778 175.267 100.951 174.56 100.951 173.8C100.951 173.027 100.778 172.32 100.431 171.68C100.084 171.04 99.6243 170.533 99.0509 170.16C98.4776 169.787 97.8443 169.6 97.1509 169.6C96.4576 169.6 95.8243 169.793 95.2509 170.18C94.6909 170.567 94.2376 171.08 93.8909 171.72C93.5443 172.347 93.3709 173.053 93.3709 173.84ZM108.025 179.2C107.172 179.2 106.379 179.06 105.645 178.78C104.912 178.5 104.279 178.073 103.745 177.5L104.305 176.54C104.892 177.087 105.479 177.487 106.065 177.74C106.665 177.98 107.299 178.1 107.965 178.1C108.779 178.1 109.439 177.94 109.945 177.62C110.452 177.287 110.705 176.813 110.705 176.2C110.705 175.787 110.579 175.473 110.325 175.26C110.085 175.033 109.732 174.853 109.265 174.72C108.812 174.573 108.265 174.42 107.625 174.26C106.905 174.06 106.299 173.853 105.805 173.64C105.325 173.413 104.959 173.133 104.705 172.8C104.465 172.453 104.345 172.007 104.345 171.46C104.345 170.78 104.512 170.22 104.845 169.78C105.192 169.327 105.659 168.987 106.245 168.76C106.845 168.52 107.512 168.4 108.245 168.4C109.045 168.4 109.752 168.527 110.365 168.78C110.979 169.033 111.479 169.387 111.865 169.84L111.205 170.76C110.832 170.333 110.385 170.02 109.865 169.82C109.359 169.607 108.792 169.5 108.165 169.5C107.739 169.5 107.332 169.56 106.945 169.68C106.559 169.787 106.239 169.973 105.985 170.24C105.745 170.493 105.625 170.847 105.625 171.3C105.625 171.673 105.719 171.967 105.905 172.18C106.092 172.38 106.372 172.553 106.745 172.7C107.119 172.833 107.579 172.98 108.125 173.14C108.912 173.353 109.599 173.573 110.185 173.8C110.772 174.013 111.225 174.293 111.545 174.64C111.865 174.987 112.025 175.473 112.025 176.1C112.025 177.073 111.659 177.833 110.925 178.38C110.192 178.927 109.225 179.2 108.025 179.2ZM118.531 176C118.531 175.347 118.718 174.787 119.091 174.32C119.464 173.84 119.978 173.473 120.631 173.22C121.298 172.953 122.064 172.82 122.931 172.82C123.438 172.82 123.964 172.86 124.511 172.94C125.058 173.02 125.544 173.14 125.971 173.3V172.42C125.971 171.54 125.711 170.84 125.191 170.32C124.671 169.8 123.951 169.54 123.031 169.54C122.471 169.54 121.918 169.647 121.371 169.86C120.838 170.06 120.278 170.36 119.691 170.76L119.171 169.8C119.851 169.333 120.518 168.987 121.171 168.76C121.824 168.52 122.491 168.4 123.171 168.4C124.451 168.4 125.464 168.767 126.211 169.5C126.958 170.233 127.331 171.247 127.331 172.54V177.36C127.331 177.547 127.371 177.687 127.451 177.78C127.531 177.86 127.658 177.907 127.831 177.92V179C127.684 179.013 127.558 179.027 127.451 179.04C127.344 179.053 127.264 179.053 127.211 179.04C126.878 179.027 126.624 178.92 126.451 178.72C126.278 178.52 126.184 178.307 126.171 178.08L126.151 177.32C125.684 177.92 125.078 178.387 124.331 178.72C123.584 179.04 122.824 179.2 122.051 179.2C121.384 179.2 120.778 179.06 120.231 178.78C119.698 178.487 119.278 178.1 118.971 177.62C118.678 177.127 118.531 176.587 118.531 176ZM125.511 176.8C125.658 176.613 125.771 176.433 125.851 176.26C125.931 176.087 125.971 175.933 125.971 175.8V174.28C125.518 174.107 125.044 173.973 124.551 173.88C124.071 173.787 123.584 173.74 123.091 173.74C122.118 173.74 121.331 173.933 120.731 174.32C120.131 174.707 119.831 175.233 119.831 175.9C119.831 176.287 119.931 176.653 120.131 177C120.331 177.333 120.624 177.613 121.011 177.84C121.398 178.053 121.851 178.16 122.371 178.16C123.024 178.16 123.631 178.033 124.191 177.78C124.764 177.527 125.204 177.2 125.511 176.8ZM139.03 179H137.67V173.18C137.67 171.953 137.49 171.06 137.13 170.5C136.77 169.927 136.203 169.64 135.43 169.64C134.896 169.64 134.37 169.773 133.85 170.04C133.33 170.293 132.87 170.647 132.47 171.1C132.083 171.54 131.803 172.047 131.63 172.62V179H130.27V168.58H131.51V170.94C131.79 170.433 132.156 169.993 132.61 169.62C133.063 169.233 133.576 168.933 134.15 168.72C134.723 168.507 135.316 168.4 135.93 168.4C136.503 168.4 136.99 168.507 137.39 168.72C137.79 168.933 138.11 169.24 138.35 169.64C138.59 170.027 138.763 170.5 138.87 171.06C138.976 171.607 139.03 172.22 139.03 172.9V179ZM141.23 173.82C141.23 172.833 141.43 171.933 141.83 171.12C142.243 170.293 142.81 169.633 143.53 169.14C144.25 168.647 145.07 168.4 145.99 168.4C146.856 168.4 147.63 168.633 148.31 169.1C149.003 169.553 149.543 170.107 149.93 170.76V164.4H151.29V177.36C151.29 177.547 151.33 177.687 151.41 177.78C151.49 177.86 151.61 177.907 151.77 177.92V179C151.503 179.04 151.296 179.053 151.15 179.04C150.87 179.027 150.623 178.913 150.41 178.7C150.196 178.487 150.09 178.253 150.09 178V176.98C149.676 177.66 149.116 178.2 148.41 178.6C147.703 179 146.97 179.2 146.21 179.2C145.49 179.2 144.823 179.053 144.21 178.76C143.61 178.467 143.083 178.067 142.63 177.56C142.19 177.053 141.843 176.48 141.59 175.84C141.35 175.187 141.23 174.513 141.23 173.82ZM149.93 175.42V172.2C149.756 171.72 149.476 171.287 149.09 170.9C148.703 170.5 148.263 170.187 147.77 169.96C147.29 169.72 146.81 169.6 146.33 169.6C145.77 169.6 145.263 169.72 144.81 169.96C144.356 170.187 143.963 170.5 143.63 170.9C143.31 171.3 143.063 171.753 142.89 172.26C142.716 172.767 142.63 173.287 142.63 173.82C142.63 174.38 142.723 174.913 142.91 175.42C143.11 175.927 143.39 176.38 143.75 176.78C144.11 177.167 144.523 177.467 144.99 177.68C145.456 177.893 145.963 178 146.51 178C146.856 178 147.216 177.933 147.59 177.8C147.963 177.667 148.316 177.487 148.65 177.26C148.996 177.02 149.283 176.74 149.51 176.42C149.736 176.1 149.876 175.767 149.93 175.42ZM163.989 179.2C163.229 179.2 162.529 179.06 161.889 178.78C161.262 178.487 160.709 178.087 160.229 177.58C159.762 177.073 159.395 176.493 159.129 175.84C158.875 175.187 158.749 174.493 158.749 173.76C158.749 172.773 158.969 171.873 159.409 171.06C159.849 170.247 160.462 169.6 161.249 169.12C162.035 168.64 162.942 168.4 163.969 168.4C164.942 168.4 165.802 168.627 166.549 169.08C167.295 169.52 167.849 170.12 168.209 170.88L166.889 171.3C166.595 170.767 166.182 170.353 165.649 170.06C165.129 169.753 164.549 169.6 163.909 169.6C163.215 169.6 162.582 169.78 162.009 170.14C161.435 170.5 160.975 170.993 160.629 171.62C160.295 172.247 160.129 172.96 160.129 173.76C160.129 174.547 160.302 175.26 160.649 175.9C160.995 176.54 161.455 177.053 162.029 177.44C162.602 177.813 163.235 178 163.929 178C164.382 178 164.815 177.92 165.229 177.76C165.655 177.6 166.022 177.387 166.329 177.12C166.649 176.84 166.862 176.54 166.969 176.22L168.309 176.62C168.122 177.113 167.809 177.56 167.369 177.96C166.942 178.347 166.435 178.653 165.849 178.88C165.275 179.093 164.655 179.2 163.989 179.2ZM175.645 169.78C174.739 169.807 173.939 170.06 173.245 170.54C172.565 171.02 172.085 171.68 171.805 172.52V179H170.445V168.58H171.725V171.08C172.085 170.347 172.559 169.753 173.145 169.3C173.745 168.847 174.379 168.593 175.045 168.54C175.179 168.527 175.292 168.52 175.385 168.52C175.492 168.52 175.579 168.527 175.645 168.54V169.78ZM181.625 179.2C180.878 179.2 180.185 179.06 179.545 178.78C178.905 178.487 178.352 178.093 177.885 177.6C177.418 177.093 177.052 176.513 176.785 175.86C176.532 175.207 176.405 174.507 176.405 173.76C176.405 172.787 176.625 171.893 177.065 171.08C177.518 170.267 178.138 169.62 178.925 169.14C179.712 168.647 180.605 168.4 181.605 168.4C182.632 168.4 183.525 168.647 184.285 169.14C185.058 169.633 185.665 170.287 186.105 171.1C186.545 171.9 186.765 172.78 186.765 173.74C186.765 173.847 186.765 173.953 186.765 174.06C186.765 174.153 186.758 174.227 186.745 174.28H177.825C177.892 175.027 178.098 175.693 178.445 176.28C178.805 176.853 179.265 177.313 179.825 177.66C180.398 177.993 181.018 178.16 181.685 178.16C182.365 178.16 183.005 177.987 183.605 177.64C184.218 177.293 184.645 176.84 184.885 176.28L186.065 176.6C185.852 177.093 185.525 177.54 185.085 177.94C184.645 178.34 184.125 178.653 183.525 178.88C182.938 179.093 182.305 179.2 181.625 179.2ZM177.785 173.3H185.485C185.432 172.54 185.225 171.873 184.865 171.3C184.518 170.727 184.058 170.28 183.485 169.96C182.925 169.627 182.305 169.46 181.625 169.46C180.945 169.46 180.325 169.627 179.765 169.96C179.205 170.28 178.745 170.733 178.385 171.32C178.038 171.893 177.838 172.553 177.785 173.3ZM188.023 176C188.023 175.347 188.21 174.787 188.583 174.32C188.957 173.84 189.47 173.473 190.123 173.22C190.79 172.953 191.557 172.82 192.423 172.82C192.93 172.82 193.457 172.86 194.003 172.94C194.55 173.02 195.037 173.14 195.463 173.3V172.42C195.463 171.54 195.203 170.84 194.683 170.32C194.163 169.8 193.443 169.54 192.523 169.54C191.963 169.54 191.41 169.647 190.863 169.86C190.33 170.06 189.77 170.36 189.183 170.76L188.663 169.8C189.343 169.333 190.01 168.987 190.663 168.76C191.317 168.52 191.983 168.4 192.663 168.4C193.943 168.4 194.957 168.767 195.703 169.5C196.45 170.233 196.823 171.247 196.823 172.54V177.36C196.823 177.547 196.863 177.687 196.943 177.78C197.023 177.86 197.15 177.907 197.323 177.92V179C197.177 179.013 197.05 179.027 196.943 179.04C196.837 179.053 196.757 179.053 196.703 179.04C196.37 179.027 196.117 178.92 195.943 178.72C195.77 178.52 195.677 178.307 195.663 178.08L195.643 177.32C195.177 177.92 194.57 178.387 193.823 178.72C193.077 179.04 192.317 179.2 191.543 179.2C190.877 179.2 190.27 179.06 189.723 178.78C189.19 178.487 188.77 178.1 188.463 177.62C188.17 177.127 188.023 176.587 188.023 176ZM195.003 176.8C195.15 176.613 195.263 176.433 195.343 176.26C195.423 176.087 195.463 175.933 195.463 175.8V174.28C195.01 174.107 194.537 173.973 194.043 173.88C193.563 173.787 193.077 173.74 192.583 173.74C191.61 173.74 190.823 173.933 190.223 174.32C189.623 174.707 189.323 175.233 189.323 175.9C189.323 176.287 189.423 176.653 189.623 177C189.823 177.333 190.117 177.613 190.503 177.84C190.89 178.053 191.343 178.16 191.863 178.16C192.517 178.16 193.123 178.033 193.683 177.78C194.257 177.527 194.697 177.2 195.003 176.8ZM204.684 178.5C204.577 178.54 204.41 178.613 204.184 178.72C203.957 178.827 203.684 178.92 203.364 179C203.044 179.08 202.697 179.12 202.324 179.12C201.937 179.12 201.57 179.047 201.224 178.9C200.89 178.753 200.624 178.533 200.424 178.24C200.224 177.933 200.124 177.56 200.124 177.12V169.66H198.684V168.58H200.124V165.06H201.484V168.58H203.884V169.66H201.484V176.74C201.51 177.113 201.644 177.393 201.884 177.58C202.137 177.767 202.424 177.86 202.744 177.86C203.117 177.86 203.457 177.8 203.764 177.68C204.07 177.547 204.257 177.453 204.324 177.4L204.684 178.5ZM210.707 179.2C209.96 179.2 209.267 179.06 208.627 178.78C207.987 178.487 207.434 178.093 206.967 177.6C206.5 177.093 206.134 176.513 205.867 175.86C205.614 175.207 205.487 174.507 205.487 173.76C205.487 172.787 205.707 171.893 206.147 171.08C206.6 170.267 207.22 169.62 208.007 169.14C208.794 168.647 209.687 168.4 210.687 168.4C211.714 168.4 212.607 168.647 213.367 169.14C214.14 169.633 214.747 170.287 215.187 171.1C215.627 171.9 215.847 172.78 215.847 173.74C215.847 173.847 215.847 173.953 215.847 174.06C215.847 174.153 215.84 174.227 215.827 174.28H206.907C206.974 175.027 207.18 175.693 207.527 176.28C207.887 176.853 208.347 177.313 208.907 177.66C209.48 177.993 210.1 178.16 210.767 178.16C211.447 178.16 212.087 177.987 212.687 177.64C213.3 177.293 213.727 176.84 213.967 176.28L215.147 176.6C214.934 177.093 214.607 177.54 214.167 177.94C213.727 178.34 213.207 178.653 212.607 178.88C212.02 179.093 211.387 179.2 210.707 179.2ZM206.867 173.3H214.567C214.514 172.54 214.307 171.873 213.947 171.3C213.6 170.727 213.14 170.28 212.567 169.96C212.007 169.627 211.387 169.46 210.707 169.46C210.027 169.46 209.407 169.627 208.847 169.96C208.287 170.28 207.827 170.733 207.467 171.32C207.12 171.893 206.92 172.553 206.867 173.3ZM223.543 179V169.66H222.103V168.58H223.543V168.3C223.543 167.447 223.663 166.713 223.903 166.1C224.156 165.487 224.51 165.02 224.963 164.7C225.43 164.367 225.976 164.2 226.603 164.2C227.016 164.2 227.416 164.26 227.803 164.38C228.19 164.5 228.523 164.66 228.803 164.86L228.383 165.84C228.21 165.693 227.983 165.58 227.703 165.5C227.423 165.42 227.143 165.38 226.863 165.38C226.236 165.38 225.75 165.627 225.403 166.12C225.07 166.613 224.903 167.327 224.903 168.26V168.58H227.783V169.66H224.903V179H223.543ZM229.545 174.7V168.58H230.905V174.46C230.905 175.647 231.105 176.533 231.505 177.12C231.918 177.707 232.525 178 233.325 178C233.858 178 234.371 177.887 234.865 177.66C235.371 177.42 235.818 177.087 236.205 176.66C236.591 176.22 236.885 175.713 237.085 175.14V168.58H238.445V177.36C238.445 177.547 238.485 177.687 238.565 177.78C238.645 177.86 238.765 177.907 238.925 177.92V179C238.765 179.013 238.638 179.02 238.545 179.02C238.451 179.033 238.365 179.04 238.285 179.04C238.018 179.013 237.785 178.907 237.585 178.72C237.398 178.533 237.298 178.307 237.285 178.04L237.245 176.64C236.791 177.44 236.171 178.067 235.385 178.52C234.611 178.973 233.771 179.2 232.865 179.2C231.771 179.2 230.945 178.82 230.385 178.06C229.825 177.3 229.545 176.18 229.545 174.7ZM250.28 179H248.92V173.18C248.92 171.953 248.74 171.06 248.38 170.5C248.02 169.927 247.453 169.64 246.68 169.64C246.146 169.64 245.62 169.773 245.1 170.04C244.58 170.293 244.12 170.647 243.72 171.1C243.333 171.54 243.053 172.047 242.88 172.62V179H241.52V168.58H242.76V170.94C243.04 170.433 243.406 169.993 243.86 169.62C244.313 169.233 244.826 168.933 245.4 168.72C245.973 168.507 246.566 168.4 247.18 168.4C247.753 168.4 248.24 168.507 248.64 168.72C249.04 168.933 249.36 169.24 249.6 169.64C249.84 170.027 250.013 170.5 250.12 171.06C250.226 171.607 250.28 172.22 250.28 172.9V179ZM257.7 179.2C256.94 179.2 256.24 179.06 255.6 178.78C254.973 178.487 254.42 178.087 253.94 177.58C253.473 177.073 253.106 176.493 252.84 175.84C252.586 175.187 252.46 174.493 252.46 173.76C252.46 172.773 252.68 171.873 253.12 171.06C253.56 170.247 254.173 169.6 254.96 169.12C255.746 168.64 256.653 168.4 257.68 168.4C258.653 168.4 259.513 168.627 260.26 169.08C261.006 169.52 261.56 170.12 261.92 170.88L260.6 171.3C260.306 170.767 259.893 170.353 259.36 170.06C258.84 169.753 258.26 169.6 257.62 169.6C256.926 169.6 256.293 169.78 255.72 170.14C255.146 170.5 254.686 170.993 254.34 171.62C254.006 172.247 253.84 172.96 253.84 173.76C253.84 174.547 254.013 175.26 254.36 175.9C254.706 176.54 255.166 177.053 255.74 177.44C256.313 177.813 256.946 178 257.64 178C258.093 178 258.526 177.92 258.94 177.76C259.366 177.6 259.733 177.387 260.04 177.12C260.36 176.84 260.573 176.54 260.68 176.22L262.02 176.62C261.833 177.113 261.52 177.56 261.08 177.96C260.653 178.347 260.146 178.653 259.56 178.88C258.986 179.093 258.366 179.2 257.7 179.2ZM269.156 178.5C269.05 178.54 268.883 178.613 268.656 178.72C268.43 178.827 268.156 178.92 267.836 179C267.516 179.08 267.17 179.12 266.796 179.12C266.41 179.12 266.043 179.047 265.696 178.9C265.363 178.753 265.096 178.533 264.896 178.24C264.696 177.933 264.596 177.56 264.596 177.12V169.66H263.156V168.58H264.596V165.06H265.956V168.58H268.356V169.66H265.956V176.74C265.983 177.113 266.116 177.393 266.356 177.58C266.61 177.767 266.896 177.86 267.216 177.86C267.59 177.86 267.93 177.8 268.236 177.68C268.543 177.547 268.73 177.453 268.796 177.4L269.156 178.5ZM270.855 179V168.58H272.215V179H270.855ZM270.855 166.4V164.4H272.215V166.4H270.855ZM279.651 179.2C278.904 179.2 278.211 179.06 277.571 178.78C276.944 178.487 276.398 178.093 275.931 177.6C275.478 177.093 275.124 176.52 274.871 175.88C274.618 175.227 274.491 174.54 274.491 173.82C274.491 173.073 274.618 172.38 274.871 171.74C275.124 171.087 275.484 170.513 275.951 170.02C276.418 169.513 276.964 169.12 277.591 168.84C278.231 168.547 278.924 168.4 279.671 168.4C280.418 168.4 281.104 168.547 281.731 168.84C282.358 169.12 282.904 169.513 283.371 170.02C283.838 170.513 284.198 171.087 284.451 171.74C284.704 172.38 284.831 173.073 284.831 173.82C284.831 174.54 284.704 175.227 284.451 175.88C284.198 176.52 283.838 177.093 283.371 177.6C282.918 178.093 282.371 178.487 281.731 178.78C281.104 179.06 280.411 179.2 279.651 179.2ZM275.871 173.84C275.871 174.613 276.038 175.32 276.371 175.96C276.718 176.587 277.178 177.087 277.751 177.46C278.324 177.82 278.958 178 279.651 178C280.344 178 280.978 177.813 281.551 177.44C282.124 177.067 282.584 176.56 282.931 175.92C283.278 175.267 283.451 174.56 283.451 173.8C283.451 173.027 283.278 172.32 282.931 171.68C282.584 171.04 282.124 170.533 281.551 170.16C280.978 169.787 280.344 169.6 279.651 169.6C278.958 169.6 278.324 169.793 277.751 170.18C277.191 170.567 276.738 171.08 276.391 171.72C276.044 172.347 275.871 173.053 275.871 173.84ZM295.865 179H294.505V173.18C294.505 171.953 294.325 171.06 293.965 170.5C293.605 169.927 293.039 169.64 292.265 169.64C291.732 169.64 291.205 169.773 290.685 170.04C290.165 170.293 289.705 170.647 289.305 171.1C288.919 171.54 288.639 172.047 288.465 172.62V179H287.105V168.58H288.345V170.94C288.625 170.433 288.992 169.993 289.445 169.62C289.899 169.233 290.412 168.933 290.985 168.72C291.559 168.507 292.152 168.4 292.765 168.4C293.339 168.4 293.825 168.507 294.225 168.72C294.625 168.933 294.945 169.24 295.185 169.64C295.425 170.027 295.599 170.5 295.705 171.06C295.812 171.607 295.865 172.22 295.865 172.9V179ZM297.926 176C297.926 175.347 298.112 174.787 298.486 174.32C298.859 173.84 299.372 173.473 300.026 173.22C300.692 172.953 301.459 172.82 302.326 172.82C302.832 172.82 303.359 172.86 303.906 172.94C304.452 173.02 304.939 173.14 305.366 173.3V172.42C305.366 171.54 305.106 170.84 304.586 170.32C304.066 169.8 303.346 169.54 302.426 169.54C301.866 169.54 301.312 169.647 300.766 169.86C300.232 170.06 299.672 170.36 299.086 170.76L298.566 169.8C299.246 169.333 299.912 168.987 300.566 168.76C301.219 168.52 301.886 168.4 302.566 168.4C303.846 168.4 304.859 168.767 305.606 169.5C306.352 170.233 306.726 171.247 306.726 172.54V177.36C306.726 177.547 306.766 177.687 306.846 177.78C306.926 177.86 307.052 177.907 307.226 177.92V179C307.079 179.013 306.952 179.027 306.846 179.04C306.739 179.053 306.659 179.053 306.606 179.04C306.272 179.027 306.019 178.92 305.846 178.72C305.672 178.52 305.579 178.307 305.566 178.08L305.546 177.32C305.079 177.92 304.472 178.387 303.726 178.72C302.979 179.04 302.219 179.2 301.446 179.2C300.779 179.2 300.172 179.06 299.626 178.78C299.092 178.487 298.672 178.1 298.366 177.62C298.072 177.127 297.926 176.587 297.926 176ZM304.906 176.8C305.052 176.613 305.166 176.433 305.246 176.26C305.326 176.087 305.366 175.933 305.366 175.8V174.28C304.912 174.107 304.439 173.973 303.946 173.88C303.466 173.787 302.979 173.74 302.486 173.74C301.512 173.74 300.726 173.933 300.126 174.32C299.526 174.707 299.226 175.233 299.226 175.9C299.226 176.287 299.326 176.653 299.526 177C299.726 177.333 300.019 177.613 300.406 177.84C300.792 178.053 301.246 178.16 301.766 178.16C302.419 178.16 303.026 178.033 303.586 177.78C304.159 177.527 304.599 177.2 304.906 176.8ZM309.724 164.4H311.084V176.64C311.084 177.16 311.177 177.5 311.364 177.66C311.551 177.82 311.777 177.9 312.044 177.9C312.284 177.9 312.524 177.873 312.764 177.82C313.004 177.767 313.211 177.713 313.384 177.66L313.624 178.76C313.371 178.867 313.057 178.953 312.684 179.02C312.324 179.087 312.011 179.12 311.744 179.12C311.131 179.12 310.637 178.94 310.264 178.58C309.904 178.22 309.724 177.727 309.724 177.1V164.4ZM318.905 173.82C318.905 172.833 319.105 171.933 319.505 171.12C319.919 170.293 320.485 169.633 321.205 169.14C321.925 168.647 322.745 168.4 323.665 168.4C324.532 168.4 325.305 168.633 325.985 169.1C326.679 169.553 327.219 170.107 327.605 170.76V164.4H328.965V177.36C328.965 177.547 329.005 177.687 329.085 177.78C329.165 177.86 329.285 177.907 329.445 177.92V179C329.179 179.04 328.972 179.053 328.825 179.04C328.545 179.027 328.299 178.913 328.085 178.7C327.872 178.487 327.765 178.253 327.765 178V176.98C327.352 177.66 326.792 178.2 326.085 178.6C325.379 179 324.645 179.2 323.885 179.2C323.165 179.2 322.499 179.053 321.885 178.76C321.285 178.467 320.759 178.067 320.305 177.56C319.865 177.053 319.519 176.48 319.265 175.84C319.025 175.187 318.905 174.513 318.905 173.82ZM327.605 175.42V172.2C327.432 171.72 327.152 171.287 326.765 170.9C326.379 170.5 325.939 170.187 325.445 169.96C324.965 169.72 324.485 169.6 324.005 169.6C323.445 169.6 322.939 169.72 322.485 169.96C322.032 170.187 321.639 170.5 321.305 170.9C320.985 171.3 320.739 171.753 320.565 172.26C320.392 172.767 320.305 173.287 320.305 173.82C320.305 174.38 320.399 174.913 320.585 175.42C320.785 175.927 321.065 176.38 321.425 176.78C321.785 177.167 322.199 177.467 322.665 177.68C323.132 177.893 323.639 178 324.185 178C324.532 178 324.892 177.933 325.265 177.8C325.639 177.667 325.992 177.487 326.325 177.26C326.672 177.02 326.959 176.74 327.185 176.42C327.412 176.1 327.552 175.767 327.605 175.42ZM336.547 179.2C335.8 179.2 335.107 179.06 334.467 178.78C333.827 178.487 333.274 178.093 332.807 177.6C332.34 177.093 331.974 176.513 331.707 175.86C331.454 175.207 331.327 174.507 331.327 173.76C331.327 172.787 331.547 171.893 331.987 171.08C332.44 170.267 333.06 169.62 333.847 169.14C334.634 168.647 335.527 168.4 336.527 168.4C337.554 168.4 338.447 168.647 339.207 169.14C339.98 169.633 340.587 170.287 341.027 171.1C341.467 171.9 341.687 172.78 341.687 173.74C341.687 173.847 341.687 173.953 341.687 174.06C341.687 174.153 341.68 174.227 341.667 174.28H332.747C332.814 175.027 333.02 175.693 333.367 176.28C333.727 176.853 334.187 177.313 334.747 177.66C335.32 177.993 335.94 178.16 336.607 178.16C337.287 178.16 337.927 177.987 338.527 177.64C339.14 177.293 339.567 176.84 339.807 176.28L340.987 176.6C340.774 177.093 340.447 177.54 340.007 177.94C339.567 178.34 339.047 178.653 338.447 178.88C337.86 179.093 337.227 179.2 336.547 179.2ZM332.707 173.3H340.407C340.354 172.54 340.147 171.873 339.787 171.3C339.44 170.727 338.98 170.28 338.407 169.96C337.847 169.627 337.227 169.46 336.547 169.46C335.867 169.46 335.247 169.627 334.687 169.96C334.127 170.28 333.667 170.733 333.307 171.32C332.96 171.893 332.76 172.553 332.707 173.3ZM347.205 179.2C346.352 179.2 345.558 179.06 344.825 178.78C344.092 178.5 343.458 178.073 342.925 177.5L343.485 176.54C344.072 177.087 344.658 177.487 345.245 177.74C345.845 177.98 346.478 178.1 347.145 178.1C347.958 178.1 348.618 177.94 349.125 177.62C349.632 177.287 349.885 176.813 349.885 176.2C349.885 175.787 349.758 175.473 349.505 175.26C349.265 175.033 348.912 174.853 348.445 174.72C347.992 174.573 347.445 174.42 346.805 174.26C346.085 174.06 345.478 173.853 344.985 173.64C344.505 173.413 344.138 173.133 343.885 172.8C343.645 172.453 343.525 172.007 343.525 171.46C343.525 170.78 343.692 170.22 344.025 169.78C344.372 169.327 344.838 168.987 345.425 168.76C346.025 168.52 346.692 168.4 347.425 168.4C348.225 168.4 348.932 168.527 349.545 168.78C350.158 169.033 350.658 169.387 351.045 169.84L350.385 170.76C350.012 170.333 349.565 170.02 349.045 169.82C348.538 169.607 347.972 169.5 347.345 169.5C346.918 169.5 346.512 169.56 346.125 169.68C345.738 169.787 345.418 169.973 345.165 170.24C344.925 170.493 344.805 170.847 344.805 171.3C344.805 171.673 344.898 171.967 345.085 172.18C345.272 172.38 345.552 172.553 345.925 172.7C346.298 172.833 346.758 172.98 347.305 173.14C348.092 173.353 348.778 173.573 349.365 173.8C349.952 174.013 350.405 174.293 350.725 174.64C351.045 174.987 351.205 175.473 351.205 176.1C351.205 177.073 350.838 177.833 350.105 178.38C349.372 178.927 348.405 179.2 347.205 179.2ZM353.453 179V168.58H354.813V179H353.453ZM353.453 166.4V164.4H354.813V166.4H353.453ZM361.989 179.14C361.282 179.14 360.629 178.993 360.029 178.7C359.429 178.407 358.909 178.013 358.469 177.52C358.042 177.013 357.709 176.44 357.469 175.8C357.229 175.16 357.109 174.5 357.109 173.82C357.109 173.087 357.222 172.4 357.449 171.76C357.689 171.107 358.022 170.527 358.449 170.02C358.889 169.513 359.402 169.12 359.989 168.84C360.575 168.547 361.229 168.4 361.949 168.4C362.842 168.4 363.615 168.627 364.269 169.08C364.935 169.533 365.495 170.093 365.949 170.76V168.58H367.169V179.04C367.169 180 366.935 180.807 366.469 181.46C366.015 182.127 365.395 182.627 364.609 182.96C363.835 183.293 362.989 183.46 362.069 183.46C360.882 183.46 359.922 183.247 359.189 182.82C358.455 182.393 357.855 181.82 357.389 181.1L358.229 180.44C358.642 181.093 359.189 181.58 359.869 181.9C360.562 182.22 361.295 182.38 362.069 182.38C362.749 182.38 363.369 182.253 363.929 182C364.502 181.76 364.955 181.393 365.289 180.9C365.635 180.407 365.809 179.787 365.809 179.04V176.98C365.409 177.633 364.862 178.16 364.169 178.56C363.475 178.947 362.749 179.14 361.989 179.14ZM362.369 178C362.782 178 363.175 177.927 363.549 177.78C363.935 177.633 364.289 177.44 364.609 177.2C364.929 176.947 365.195 176.667 365.409 176.36C365.622 176.053 365.755 175.74 365.809 175.42V172.2C365.609 171.693 365.322 171.247 364.949 170.86C364.575 170.46 364.149 170.153 363.669 169.94C363.202 169.713 362.715 169.6 362.209 169.6C361.622 169.6 361.095 169.727 360.629 169.98C360.175 170.22 359.789 170.547 359.469 170.96C359.162 171.36 358.922 171.813 358.749 172.32C358.575 172.827 358.489 173.333 358.489 173.84C358.489 174.4 358.589 174.933 358.789 175.44C358.989 175.933 359.262 176.38 359.609 176.78C359.969 177.167 360.382 177.467 360.849 177.68C361.329 177.893 361.835 178 362.369 178ZM378.932 179H377.572V173.18C377.572 171.953 377.392 171.06 377.032 170.5C376.672 169.927 376.105 169.64 375.332 169.64C374.799 169.64 374.272 169.773 373.752 170.04C373.232 170.293 372.772 170.647 372.372 171.1C371.985 171.54 371.705 172.047 371.532 172.62V179H370.172V168.58H371.412V170.94C371.692 170.433 372.059 169.993 372.512 169.62C372.965 169.233 373.479 168.933 374.052 168.72C374.625 168.507 375.219 168.4 375.832 168.4C376.405 168.4 376.892 168.507 377.292 168.72C377.692 168.933 378.012 169.24 378.252 169.64C378.492 170.027 378.665 170.5 378.772 171.06C378.879 171.607 378.932 172.22 378.932 172.9V179Z" fill="#0022D5"/>
</svg>
