<svg width="412" height="138" viewBox="0 0 412 138" fill="none" xmlns="http://www.w3.org/2000/svg">
<rect y="13" width="319" height="37" fill="white"/>
<rect y="88" width="374" height="49" fill="white"/>
<path d="M41.368 39.752C41.016 39.912 40.536 40.12 39.928 40.376C39.32 40.632 38.616 40.856 37.816 41.048C37.016 41.24 36.168 41.336 35.272 41.336C34.248 41.336 33.304 41.16 32.44 40.808C31.576 40.424 30.888 39.848 30.376 39.08C29.864 38.28 29.608 37.288 29.608 36.104V19.256H26.2V15.944H29.608V7.592H33.832V15.944H39.448V19.256H33.832V34.808C33.896 35.704 34.2 36.376 34.744 36.824C35.288 37.24 35.928 37.448 36.664 37.448C37.496 37.448 38.264 37.304 38.968 37.016C39.672 36.728 40.136 36.52 40.36 36.392L41.368 39.752ZM58.531 19.64C56.419 19.672 54.547 20.216 52.915 21.272C51.315 22.296 50.179 23.72 49.507 25.544V41H45.283V15.944H49.219V21.752C50.083 20.024 51.219 18.632 52.627 17.576C54.067 16.488 55.571 15.88 57.139 15.752C57.459 15.752 57.731 15.752 57.955 15.752C58.179 15.752 58.371 15.768 58.531 15.8V19.64ZM60.7525 33.752C60.7525 32.152 61.2005 30.776 62.0965 29.624C63.0245 28.44 64.2885 27.528 65.8885 26.888C67.4885 26.248 69.3445 25.928 71.4565 25.928C72.5765 25.928 73.7605 26.024 75.0085 26.216C76.2565 26.376 77.3605 26.632 78.3205 26.984V25.16C78.3205 23.24 77.7445 21.736 76.5925 20.648C75.4405 19.528 73.8085 18.968 71.6965 18.968C70.3205 18.968 68.9925 19.224 67.7125 19.736C66.4645 20.216 65.1365 20.92 63.7285 21.848L62.1925 18.872C63.8245 17.752 65.4565 16.92 67.0885 16.376C68.7205 15.8 70.4165 15.512 72.1765 15.512C75.3765 15.512 77.9045 16.408 79.7605 18.2C81.6165 19.96 82.5445 22.424 82.5445 25.592V36.2C82.5445 36.712 82.6405 37.096 82.8325 37.352C83.0565 37.576 83.4085 37.704 83.8885 37.736V41C83.4725 41.064 83.1045 41.112 82.7845 41.144C82.4965 41.176 82.2565 41.192 82.0645 41.192C81.0725 41.192 80.3205 40.92 79.8085 40.376C79.3285 39.832 79.0565 39.256 78.9925 38.648L78.8965 37.064C77.8085 38.472 76.3845 39.56 74.6245 40.328C72.8645 41.096 71.1205 41.48 69.3925 41.48C67.7285 41.48 66.2405 41.144 64.9285 40.472C63.6165 39.768 62.5925 38.84 61.8565 37.688C61.1205 36.504 60.7525 35.192 60.7525 33.752ZM77.0725 35.528C77.4565 35.08 77.7605 34.632 77.9845 34.184C78.2085 33.704 78.3205 33.304 78.3205 32.984V29.864C77.3285 29.48 76.2885 29.192 75.2005 29C74.1125 28.776 73.0405 28.664 71.9845 28.664C69.8405 28.664 68.0965 29.096 66.7525 29.96C65.4405 30.792 64.7845 31.944 64.7845 33.416C64.7845 34.216 64.9925 35 65.4085 35.768C65.8565 36.504 66.4965 37.112 67.3285 37.592C68.1925 38.072 69.2485 38.312 70.4965 38.312C71.8085 38.312 73.0565 38.056 74.2405 37.544C75.4245 37 76.3685 36.328 77.0725 35.528ZM111.043 41H106.819V26.984C106.819 24.328 106.403 22.392 105.571 21.176C104.771 19.928 103.539 19.304 101.875 19.304C100.723 19.304 99.5706 19.592 98.4186 20.168C97.2986 20.744 96.2906 21.528 95.3946 22.52C94.5306 23.48 93.9066 24.6 93.5226 25.88V41H89.2986V15.944H93.1386V21.32C93.8106 20.136 94.6746 19.112 95.7306 18.248C96.7866 17.384 97.9866 16.712 99.3306 16.232C100.675 15.752 102.083 15.512 103.555 15.512C104.995 15.512 106.195 15.784 107.155 16.328C108.147 16.84 108.915 17.576 109.459 18.536C110.035 19.464 110.435 20.568 110.659 21.848C110.915 23.128 111.043 24.52 111.043 26.024V41ZM126.203 41.48C124.123 41.48 122.171 41.144 120.347 40.472C118.523 39.768 116.955 38.728 115.643 37.352L117.275 34.376C118.715 35.72 120.155 36.68 121.595 37.256C123.035 37.832 124.507 38.12 126.011 38.12C127.739 38.12 129.147 37.8 130.235 37.16C131.323 36.488 131.867 35.512 131.867 34.232C131.867 33.304 131.579 32.616 131.003 32.168C130.459 31.72 129.675 31.352 128.651 31.064C127.627 30.744 126.411 30.392 125.003 30.008C123.275 29.496 121.819 28.952 120.635 28.376C119.451 27.8 118.555 27.08 117.947 26.216C117.339 25.352 117.035 24.264 117.035 22.952C117.035 21.352 117.451 20.008 118.283 18.92C119.115 17.8 120.251 16.952 121.691 16.376C123.163 15.8 124.827 15.512 126.683 15.512C128.539 15.512 130.219 15.8 131.723 16.376C133.227 16.952 134.523 17.8 135.611 18.92L133.691 21.848C132.699 20.824 131.611 20.072 130.427 19.592C129.243 19.08 127.915 18.824 126.443 18.824C125.579 18.824 124.731 18.936 123.899 19.16C123.067 19.352 122.379 19.72 121.835 20.264C121.291 20.776 121.019 21.512 121.019 22.472C121.019 23.272 121.227 23.912 121.643 24.392C122.091 24.84 122.731 25.224 123.563 25.544C124.427 25.864 125.467 26.216 126.683 26.6C128.571 27.144 130.203 27.688 131.579 28.232C132.987 28.776 134.075 29.48 134.843 30.344C135.611 31.208 135.995 32.408 135.995 33.944C135.995 36.312 135.099 38.168 133.307 39.512C131.515 40.824 129.147 41.48 126.203 41.48ZM147.733 41L137.893 15.944H142.309L150.181 36.968L158.053 15.944H162.181L152.341 41H147.733ZM176.652 41.48C174.764 41.48 173.036 41.144 171.468 40.472C169.932 39.768 168.588 38.824 167.436 37.64C166.316 36.424 165.436 35.032 164.796 33.464C164.188 31.896 163.884 30.232 163.884 28.472C163.884 26.104 164.428 23.944 165.516 21.992C166.604 20.04 168.108 18.472 170.028 17.288C171.98 16.104 174.204 15.512 176.7 15.512C179.228 15.512 181.42 16.12 183.276 17.336C185.164 18.52 186.62 20.088 187.644 22.04C188.7 23.96 189.228 26.04 189.228 28.28C189.228 28.6 189.212 28.92 189.18 29.24C189.18 29.528 189.164 29.752 189.132 29.912H168.348C168.476 31.544 168.924 33 169.692 34.28C170.492 35.528 171.516 36.52 172.764 37.256C174.012 37.96 175.356 38.312 176.796 38.312C178.332 38.312 179.772 37.928 181.116 37.16C182.492 36.392 183.436 35.384 183.948 34.136L187.596 35.144C187.052 36.36 186.236 37.448 185.148 38.408C184.092 39.368 182.828 40.12 181.356 40.664C179.916 41.208 178.348 41.48 176.652 41.48ZM168.204 26.984H185.292C185.164 25.352 184.7 23.912 183.9 22.664C183.1 21.416 182.076 20.44 180.828 19.736C179.58 19.032 178.204 18.68 176.7 18.68C175.228 18.68 173.868 19.032 172.62 19.736C171.372 20.44 170.348 21.416 169.548 22.664C168.78 23.912 168.332 25.352 168.204 26.984ZM207.172 19.64C205.06 19.672 203.188 20.216 201.556 21.272C199.956 22.296 198.82 23.72 198.148 25.544V41H193.924V15.944H197.86V21.752C198.724 20.024 199.86 18.632 201.268 17.576C202.708 16.488 204.212 15.88 205.78 15.752C206.1 15.752 206.372 15.752 206.596 15.752C206.82 15.752 207.012 15.768 207.172 15.8V19.64ZM219.953 41.48C217.873 41.48 215.921 41.144 214.097 40.472C212.273 39.768 210.705 38.728 209.393 37.352L211.025 34.376C212.465 35.72 213.905 36.68 215.345 37.256C216.785 37.832 218.257 38.12 219.761 38.12C221.489 38.12 222.897 37.8 223.985 37.16C225.073 36.488 225.617 35.512 225.617 34.232C225.617 33.304 225.329 32.616 224.753 32.168C224.209 31.72 223.425 31.352 222.401 31.064C221.377 30.744 220.161 30.392 218.753 30.008C217.025 29.496 215.569 28.952 214.385 28.376C213.201 27.8 212.305 27.08 211.697 26.216C211.089 25.352 210.785 24.264 210.785 22.952C210.785 21.352 211.201 20.008 212.033 18.92C212.865 17.8 214.001 16.952 215.441 16.376C216.913 15.8 218.577 15.512 220.433 15.512C222.289 15.512 223.969 15.8 225.473 16.376C226.977 16.952 228.273 17.8 229.361 18.92L227.441 21.848C226.449 20.824 225.361 20.072 224.177 19.592C222.993 19.08 221.665 18.824 220.193 18.824C219.329 18.824 218.481 18.936 217.649 19.16C216.817 19.352 216.129 19.72 215.585 20.264C215.041 20.776 214.769 21.512 214.769 22.472C214.769 23.272 214.977 23.912 215.393 24.392C215.841 24.84 216.481 25.224 217.313 25.544C218.177 25.864 219.217 26.216 220.433 26.6C222.321 27.144 223.953 27.688 225.329 28.232C226.737 28.776 227.825 29.48 228.593 30.344C229.361 31.208 229.745 32.408 229.745 33.944C229.745 36.312 228.849 38.168 227.057 39.512C225.265 40.824 222.897 41.48 219.953 41.48ZM232.831 33.752C232.831 32.152 233.279 30.776 234.175 29.624C235.103 28.44 236.367 27.528 237.967 26.888C239.567 26.248 241.423 25.928 243.535 25.928C244.655 25.928 245.839 26.024 247.087 26.216C248.335 26.376 249.439 26.632 250.399 26.984V25.16C250.399 23.24 249.823 21.736 248.671 20.648C247.519 19.528 245.887 18.968 243.775 18.968C242.399 18.968 241.071 19.224 239.791 19.736C238.543 20.216 237.215 20.92 235.807 21.848L234.271 18.872C235.903 17.752 237.535 16.92 239.167 16.376C240.799 15.8 242.495 15.512 244.255 15.512C247.455 15.512 249.983 16.408 251.839 18.2C253.695 19.96 254.623 22.424 254.623 25.592V36.2C254.623 36.712 254.719 37.096 254.911 37.352C255.135 37.576 255.487 37.704 255.967 37.736V41C255.551 41.064 255.183 41.112 254.863 41.144C254.575 41.176 254.335 41.192 254.143 41.192C253.151 41.192 252.399 40.92 251.887 40.376C251.407 39.832 251.135 39.256 251.071 38.648L250.975 37.064C249.887 38.472 248.463 39.56 246.703 40.328C244.943 41.096 243.199 41.48 241.471 41.48C239.807 41.48 238.319 41.144 237.007 40.472C235.695 39.768 234.671 38.84 233.935 37.688C233.199 36.504 232.831 35.192 232.831 33.752ZM249.151 35.528C249.535 35.08 249.839 34.632 250.063 34.184C250.287 33.704 250.399 33.304 250.399 32.984V29.864C249.407 29.48 248.367 29.192 247.279 29C246.191 28.776 245.119 28.664 244.063 28.664C241.919 28.664 240.175 29.096 238.831 29.96C237.519 30.792 236.863 31.944 236.863 33.416C236.863 34.216 237.071 35 237.487 35.768C237.935 36.504 238.575 37.112 239.407 37.592C240.271 38.072 241.327 38.312 242.575 38.312C243.887 38.312 245.135 38.056 246.319 37.544C247.503 37 248.447 36.328 249.151 35.528ZM261.473 5.96H265.697V34.52C265.697 35.896 265.889 36.744 266.273 37.064C266.657 37.384 267.121 37.544 267.665 37.544C268.337 37.544 268.977 37.48 269.585 37.352C270.193 37.192 270.705 37.032 271.121 36.872L271.793 40.328C271.089 40.616 270.257 40.856 269.297 41.048C268.337 41.24 267.489 41.336 266.753 41.336C265.121 41.336 263.825 40.872 262.865 39.944C261.937 39.016 261.473 37.72 261.473 36.056V5.96ZM275.111 41V15.944H279.335V41H275.111ZM275.111 11.24V5.96H279.335V11.24H275.111ZM299.134 39.752C298.782 39.912 298.302 40.12 297.694 40.376C297.086 40.632 296.382 40.856 295.582 41.048C294.782 41.24 293.934 41.336 293.038 41.336C292.014 41.336 291.07 41.16 290.206 40.808C289.342 40.424 288.654 39.848 288.142 39.08C287.63 38.28 287.374 37.288 287.374 36.104V19.256H283.966V15.944H287.374V7.592H291.598V15.944H297.214V19.256H291.598V34.808C291.662 35.704 291.966 36.376 292.51 36.824C293.054 37.24 293.694 37.448 294.43 37.448C295.262 37.448 296.03 37.304 296.734 37.016C297.438 36.728 297.902 36.52 298.126 36.392L299.134 39.752ZM304.201 47.816C304.617 47.848 305.033 47.88 305.449 47.912C305.865 47.976 306.185 48.008 306.409 48.008C306.921 48.008 307.369 47.832 307.753 47.48C308.137 47.128 308.553 46.44 309.001 45.416C309.481 44.424 310.089 42.952 310.825 41L300.217 15.944H304.681L313.129 36.728L320.761 15.944H324.937L312.745 47.576C312.457 48.312 312.025 49 311.449 49.64C310.905 50.312 310.201 50.84 309.337 51.224C308.473 51.608 307.433 51.8 306.217 51.8C305.929 51.8 305.625 51.784 305.305 51.752C305.017 51.72 304.649 51.656 304.201 51.56V47.816Z" fill="#0022D5"/>
<path d="M36.86 97.04H31.8V110H30.4V97.04H25.34V95.8H36.86V97.04ZM47.467 110H46.107V104.18C46.107 103.007 45.9004 102.127 45.487 101.54C45.0737 100.94 44.4804 100.64 43.707 100.64C43.2004 100.64 42.6937 100.773 42.187 101.04C41.6937 101.293 41.2537 101.647 40.867 102.1C40.4937 102.54 40.227 103.047 40.067 103.62V110H38.707V95.4H40.067V101.94C40.4804 101.167 41.0537 100.553 41.787 100.1C42.5337 99.6333 43.327 99.4 44.167 99.4C44.767 99.4 45.2737 99.5067 45.687 99.72C46.1137 99.9333 46.4537 100.247 46.707 100.66C46.9737 101.06 47.167 101.533 47.287 102.08C47.407 102.613 47.467 103.22 47.467 103.9V110ZM54.8672 110.2C54.1205 110.2 53.4272 110.06 52.7872 109.78C52.1472 109.487 51.5939 109.093 51.1272 108.6C50.6605 108.093 50.2939 107.513 50.0272 106.86C49.7739 106.207 49.6472 105.507 49.6472 104.76C49.6472 103.787 49.8672 102.893 50.3072 102.08C50.7605 101.267 51.3805 100.62 52.1672 100.14C52.9539 99.6467 53.8472 99.4 54.8472 99.4C55.8739 99.4 56.7672 99.6467 57.5272 100.14C58.3005 100.633 58.9072 101.287 59.3472 102.1C59.7872 102.9 60.0072 103.78 60.0072 104.74C60.0072 104.847 60.0072 104.953 60.0072 105.06C60.0072 105.153 60.0005 105.227 59.9872 105.28H51.0672C51.1339 106.027 51.3405 106.693 51.6872 107.28C52.0472 107.853 52.5072 108.313 53.0672 108.66C53.6405 108.993 54.2605 109.16 54.9272 109.16C55.6072 109.16 56.2472 108.987 56.8472 108.64C57.4605 108.293 57.8872 107.84 58.1272 107.28L59.3072 107.6C59.0939 108.093 58.7672 108.54 58.3272 108.94C57.8872 109.34 57.3672 109.653 56.7672 109.88C56.1805 110.093 55.5472 110.2 54.8672 110.2ZM51.0272 104.3H58.7272C58.6739 103.54 58.4672 102.873 58.1072 102.3C57.7605 101.727 57.3005 101.28 56.7272 100.96C56.1672 100.627 55.5472 100.46 54.8672 100.46C54.1872 100.46 53.5672 100.627 53.0072 100.96C52.4472 101.28 51.9872 101.733 51.6272 102.32C51.2805 102.893 51.0805 103.553 51.0272 104.3ZM82.7031 110H81.3431V104.18C81.3431 102.967 81.1498 102.073 80.7631 101.5C80.3765 100.927 79.8031 100.64 79.0431 100.64C78.2565 100.64 77.5498 100.92 76.9231 101.48C76.3098 102.04 75.8765 102.76 75.6231 103.64V110H74.2631V104.18C74.2631 102.953 74.0765 102.06 73.7031 101.5C73.3298 100.927 72.7565 100.64 71.9831 100.64C71.2098 100.64 70.5098 100.913 69.8831 101.46C69.2565 102.007 68.8165 102.727 68.5631 103.62V110H67.2031V99.58H68.4431V101.94C68.8831 101.127 69.4431 100.5 70.1231 100.06C70.8165 99.62 71.5831 99.4 72.4231 99.4C73.2898 99.4 73.9898 99.6467 74.5231 100.14C75.0565 100.633 75.3831 101.28 75.5031 102.08C75.9831 101.2 76.5565 100.533 77.2231 100.08C77.9031 99.6267 78.6698 99.4 79.5231 99.4C80.1098 99.4 80.6031 99.5067 81.0031 99.72C81.4165 99.9333 81.7431 100.24 81.9831 100.64C82.2365 101.027 82.4165 101.5 82.5231 102.06C82.6431 102.607 82.7031 103.22 82.7031 103.9V110ZM90.082 110.2C89.3354 110.2 88.642 110.06 88.002 109.78C87.362 109.487 86.8087 109.093 86.342 108.6C85.8754 108.093 85.5087 107.513 85.242 106.86C84.9887 106.207 84.862 105.507 84.862 104.76C84.862 103.787 85.082 102.893 85.522 102.08C85.9754 101.267 86.5954 100.62 87.382 100.14C88.1687 99.6467 89.062 99.4 90.062 99.4C91.0887 99.4 91.982 99.6467 92.742 100.14C93.5154 100.633 94.122 101.287 94.562 102.1C95.002 102.9 95.222 103.78 95.222 104.74C95.222 104.847 95.222 104.953 95.222 105.06C95.222 105.153 95.2154 105.227 95.202 105.28H86.282C86.3487 106.027 86.5554 106.693 86.902 107.28C87.262 107.853 87.722 108.313 88.282 108.66C88.8554 108.993 89.4754 109.16 90.142 109.16C90.822 109.16 91.462 108.987 92.062 108.64C92.6754 108.293 93.102 107.84 93.342 107.28L94.522 107.6C94.3087 108.093 93.982 108.54 93.542 108.94C93.102 109.34 92.582 109.653 91.982 109.88C91.3954 110.093 90.762 110.2 90.082 110.2ZM86.242 104.3H93.942C93.8887 103.54 93.682 102.873 93.322 102.3C92.9754 101.727 92.5154 101.28 91.942 100.96C91.382 100.627 90.762 100.46 90.082 100.46C89.402 100.46 88.782 100.627 88.222 100.96C87.662 101.28 87.202 101.733 86.842 102.32C86.4954 102.893 86.2954 103.553 86.242 104.3ZM102.223 109.5C102.116 109.54 101.949 109.613 101.723 109.72C101.496 109.827 101.223 109.92 100.903 110C100.583 110.08 100.236 110.12 99.8627 110.12C99.476 110.12 99.1093 110.047 98.7627 109.9C98.4293 109.753 98.1627 109.533 97.9627 109.24C97.7627 108.933 97.6627 108.56 97.6627 108.12V100.66H96.2227V99.58H97.6627V96.06H99.0227V99.58H101.423V100.66H99.0227V107.74C99.0493 108.113 99.1827 108.393 99.4227 108.58C99.676 108.767 99.9627 108.86 100.283 108.86C100.656 108.86 100.996 108.8 101.303 108.68C101.609 108.547 101.796 108.453 101.863 108.4L102.223 109.5ZM112.682 110H111.322V104.18C111.322 103.007 111.115 102.127 110.702 101.54C110.289 100.94 109.695 100.64 108.922 100.64C108.415 100.64 107.909 100.773 107.402 101.04C106.909 101.293 106.469 101.647 106.082 102.1C105.709 102.54 105.442 103.047 105.282 103.62V110H103.922V95.4H105.282V101.94C105.695 101.167 106.269 100.553 107.002 100.1C107.749 99.6333 108.542 99.4 109.382 99.4C109.982 99.4 110.489 99.5067 110.902 99.72C111.329 99.9333 111.669 100.247 111.922 100.66C112.189 101.06 112.382 101.533 112.502 102.08C112.622 102.613 112.682 103.22 112.682 103.9V110ZM120.022 110.2C119.275 110.2 118.582 110.06 117.942 109.78C117.315 109.487 116.769 109.093 116.302 108.6C115.849 108.093 115.495 107.52 115.242 106.88C114.989 106.227 114.862 105.54 114.862 104.82C114.862 104.073 114.989 103.38 115.242 102.74C115.495 102.087 115.855 101.513 116.322 101.02C116.789 100.513 117.335 100.12 117.962 99.84C118.602 99.5467 119.295 99.4 120.042 99.4C120.789 99.4 121.475 99.5467 122.102 99.84C122.729 100.12 123.275 100.513 123.742 101.02C124.209 101.513 124.569 102.087 124.822 102.74C125.075 103.38 125.202 104.073 125.202 104.82C125.202 105.54 125.075 106.227 124.822 106.88C124.569 107.52 124.209 108.093 123.742 108.6C123.289 109.093 122.742 109.487 122.102 109.78C121.475 110.06 120.782 110.2 120.022 110.2ZM116.242 104.84C116.242 105.613 116.409 106.32 116.742 106.96C117.089 107.587 117.549 108.087 118.122 108.46C118.695 108.82 119.329 109 120.022 109C120.715 109 121.349 108.813 121.922 108.44C122.495 108.067 122.955 107.56 123.302 106.92C123.649 106.267 123.822 105.56 123.822 104.8C123.822 104.027 123.649 103.32 123.302 102.68C122.955 102.04 122.495 101.533 121.922 101.16C121.349 100.787 120.715 100.6 120.022 100.6C119.329 100.6 118.695 100.793 118.122 101.18C117.562 101.567 117.109 102.08 116.762 102.72C116.415 103.347 116.242 104.053 116.242 104.84ZM126.777 104.82C126.777 103.833 126.977 102.933 127.377 102.12C127.79 101.293 128.357 100.633 129.077 100.14C129.797 99.6467 130.617 99.4 131.537 99.4C132.403 99.4 133.177 99.6333 133.857 100.1C134.55 100.553 135.09 101.107 135.477 101.76V95.4H136.837V108.36C136.837 108.547 136.877 108.687 136.957 108.78C137.037 108.86 137.157 108.907 137.317 108.92V110C137.05 110.04 136.843 110.053 136.697 110.04C136.417 110.027 136.17 109.913 135.957 109.7C135.743 109.487 135.637 109.253 135.637 109V107.98C135.223 108.66 134.663 109.2 133.957 109.6C133.25 110 132.517 110.2 131.757 110.2C131.037 110.2 130.37 110.053 129.757 109.76C129.157 109.467 128.63 109.067 128.177 108.56C127.737 108.053 127.39 107.48 127.137 106.84C126.897 106.187 126.777 105.513 126.777 104.82ZM135.477 106.42V103.2C135.303 102.72 135.023 102.287 134.637 101.9C134.25 101.5 133.81 101.187 133.317 100.96C132.837 100.72 132.357 100.6 131.877 100.6C131.317 100.6 130.81 100.72 130.357 100.96C129.903 101.187 129.51 101.5 129.177 101.9C128.857 102.3 128.61 102.753 128.437 103.26C128.263 103.767 128.177 104.287 128.177 104.82C128.177 105.38 128.27 105.913 128.457 106.42C128.657 106.927 128.937 107.38 129.297 107.78C129.657 108.167 130.07 108.467 130.537 108.68C131.003 108.893 131.51 109 132.057 109C132.403 109 132.763 108.933 133.137 108.8C133.51 108.667 133.863 108.487 134.197 108.26C134.543 108.02 134.83 107.74 135.057 107.42C135.283 107.1 135.423 106.767 135.477 106.42ZM144.176 107C144.176 106.347 144.362 105.787 144.736 105.32C145.109 104.84 145.622 104.473 146.276 104.22C146.942 103.953 147.709 103.82 148.576 103.82C149.082 103.82 149.609 103.86 150.156 103.94C150.702 104.02 151.189 104.14 151.616 104.3V103.42C151.616 102.54 151.356 101.84 150.836 101.32C150.316 100.8 149.596 100.54 148.676 100.54C148.116 100.54 147.562 100.647 147.016 100.86C146.482 101.06 145.922 101.36 145.336 101.76L144.816 100.8C145.496 100.333 146.162 99.9867 146.816 99.76C147.469 99.52 148.136 99.4 148.816 99.4C150.096 99.4 151.109 99.7667 151.856 100.5C152.602 101.233 152.976 102.247 152.976 103.54V108.36C152.976 108.547 153.016 108.687 153.096 108.78C153.176 108.86 153.302 108.907 153.476 108.92V110C153.329 110.013 153.202 110.027 153.096 110.04C152.989 110.053 152.909 110.053 152.856 110.04C152.522 110.027 152.269 109.92 152.096 109.72C151.922 109.52 151.829 109.307 151.816 109.08L151.796 108.32C151.329 108.92 150.722 109.387 149.976 109.72C149.229 110.04 148.469 110.2 147.696 110.2C147.029 110.2 146.422 110.06 145.876 109.78C145.342 109.487 144.922 109.1 144.616 108.62C144.322 108.127 144.176 107.587 144.176 107ZM151.156 107.8C151.302 107.613 151.416 107.433 151.496 107.26C151.576 107.087 151.616 106.933 151.616 106.8V105.28C151.162 105.107 150.689 104.973 150.196 104.88C149.716 104.787 149.229 104.74 148.736 104.74C147.762 104.74 146.976 104.933 146.376 105.32C145.776 105.707 145.476 106.233 145.476 106.9C145.476 107.287 145.576 107.653 145.776 108C145.976 108.333 146.269 108.613 146.656 108.84C147.042 109.053 147.496 109.16 148.016 109.16C148.669 109.16 149.276 109.033 149.836 108.78C150.409 108.527 150.849 108.2 151.156 107.8ZM164.674 110H163.314V104.18C163.314 102.953 163.134 102.06 162.774 101.5C162.414 100.927 161.847 100.64 161.074 100.64C160.541 100.64 160.014 100.773 159.494 101.04C158.974 101.293 158.514 101.647 158.114 102.1C157.727 102.54 157.447 103.047 157.274 103.62V110H155.914V99.58H157.154V101.94C157.434 101.433 157.801 100.993 158.254 100.62C158.707 100.233 159.221 99.9333 159.794 99.72C160.367 99.5067 160.961 99.4 161.574 99.4C162.147 99.4 162.634 99.5067 163.034 99.72C163.434 99.9333 163.754 100.24 163.994 100.64C164.234 101.027 164.407 101.5 164.514 102.06C164.621 102.607 164.674 103.22 164.674 103.9V110ZM166.874 104.82C166.874 103.833 167.074 102.933 167.474 102.12C167.888 101.293 168.454 100.633 169.174 100.14C169.894 99.6467 170.714 99.4 171.634 99.4C172.501 99.4 173.274 99.6333 173.954 100.1C174.648 100.553 175.188 101.107 175.574 101.76V95.4H176.934V108.36C176.934 108.547 176.974 108.687 177.054 108.78C177.134 108.86 177.254 108.907 177.414 108.92V110C177.148 110.04 176.941 110.053 176.794 110.04C176.514 110.027 176.268 109.913 176.054 109.7C175.841 109.487 175.734 109.253 175.734 109V107.98C175.321 108.66 174.761 109.2 174.054 109.6C173.348 110 172.614 110.2 171.854 110.2C171.134 110.2 170.468 110.053 169.854 109.76C169.254 109.467 168.728 109.067 168.274 108.56C167.834 108.053 167.488 107.48 167.234 106.84C166.994 106.187 166.874 105.513 166.874 104.82ZM175.574 106.42V103.2C175.401 102.72 175.121 102.287 174.734 101.9C174.348 101.5 173.908 101.187 173.414 100.96C172.934 100.72 172.454 100.6 171.974 100.6C171.414 100.6 170.908 100.72 170.454 100.96C170.001 101.187 169.608 101.5 169.274 101.9C168.954 102.3 168.708 102.753 168.534 103.26C168.361 103.767 168.274 104.287 168.274 104.82C168.274 105.38 168.368 105.913 168.554 106.42C168.754 106.927 169.034 107.38 169.394 107.78C169.754 108.167 170.168 108.467 170.634 108.68C171.101 108.893 171.608 109 172.154 109C172.501 109 172.861 108.933 173.234 108.8C173.608 108.667 173.961 108.487 174.294 108.26C174.641 108.02 174.928 107.74 175.154 107.42C175.381 107.1 175.521 106.767 175.574 106.42ZM189.633 110.2C188.873 110.2 188.173 110.06 187.533 109.78C186.907 109.487 186.353 109.087 185.873 108.58C185.407 108.073 185.04 107.493 184.773 106.84C184.52 106.187 184.393 105.493 184.393 104.76C184.393 103.773 184.613 102.873 185.053 102.06C185.493 101.247 186.107 100.6 186.893 100.12C187.68 99.64 188.587 99.4 189.613 99.4C190.587 99.4 191.447 99.6267 192.193 100.08C192.94 100.52 193.493 101.12 193.853 101.88L192.533 102.3C192.24 101.767 191.827 101.353 191.293 101.06C190.773 100.753 190.193 100.6 189.553 100.6C188.86 100.6 188.227 100.78 187.653 101.14C187.08 101.5 186.62 101.993 186.273 102.62C185.94 103.247 185.773 103.96 185.773 104.76C185.773 105.547 185.947 106.26 186.293 106.9C186.64 107.54 187.1 108.053 187.673 108.44C188.247 108.813 188.88 109 189.573 109C190.027 109 190.46 108.92 190.873 108.76C191.3 108.6 191.667 108.387 191.973 108.12C192.293 107.84 192.507 107.54 192.613 107.22L193.953 107.62C193.767 108.113 193.453 108.56 193.013 108.96C192.587 109.347 192.08 109.653 191.493 109.88C190.92 110.093 190.3 110.2 189.633 110.2ZM195.99 105.7V99.58H197.35V105.46C197.35 106.647 197.55 107.533 197.95 108.12C198.363 108.707 198.97 109 199.77 109C200.303 109 200.817 108.887 201.31 108.66C201.817 108.42 202.263 108.087 202.65 107.66C203.037 107.22 203.33 106.713 203.53 106.14V99.58H204.89V108.36C204.89 108.547 204.93 108.687 205.01 108.78C205.09 108.86 205.21 108.907 205.37 108.92V110C205.21 110.013 205.083 110.02 204.99 110.02C204.897 110.033 204.81 110.04 204.73 110.04C204.463 110.013 204.23 109.907 204.03 109.72C203.843 109.533 203.743 109.307 203.73 109.04L203.69 107.64C203.237 108.44 202.617 109.067 201.83 109.52C201.057 109.973 200.217 110.2 199.31 110.2C198.217 110.2 197.39 109.82 196.83 109.06C196.27 108.3 195.99 107.18 195.99 105.7ZM208.025 95.4H209.385V107.64C209.385 108.16 209.478 108.5 209.665 108.66C209.852 108.82 210.078 108.9 210.345 108.9C210.585 108.9 210.825 108.873 211.065 108.82C211.305 108.767 211.512 108.713 211.685 108.66L211.925 109.76C211.672 109.867 211.358 109.953 210.985 110.02C210.625 110.087 210.312 110.12 210.045 110.12C209.432 110.12 208.938 109.94 208.565 109.58C208.205 109.22 208.025 108.727 208.025 108.1V95.4ZM218.414 109.5C218.307 109.54 218.141 109.613 217.914 109.72C217.687 109.827 217.414 109.92 217.094 110C216.774 110.08 216.427 110.12 216.054 110.12C215.667 110.12 215.301 110.047 214.954 109.9C214.621 109.753 214.354 109.533 214.154 109.24C213.954 108.933 213.854 108.56 213.854 108.12V100.66H212.414V99.58H213.854V96.06H215.214V99.58H217.614V100.66H215.214V107.74C215.241 108.113 215.374 108.393 215.614 108.58C215.867 108.767 216.154 108.86 216.474 108.86C216.847 108.86 217.187 108.8 217.494 108.68C217.801 108.547 217.987 108.453 218.054 108.4L218.414 109.5ZM220.013 105.7V99.58H221.373V105.46C221.373 106.647 221.573 107.533 221.973 108.12C222.387 108.707 222.993 109 223.793 109C224.327 109 224.84 108.887 225.333 108.66C225.84 108.42 226.287 108.087 226.673 107.66C227.06 107.22 227.353 106.713 227.553 106.14V99.58H228.913V108.36C228.913 108.547 228.953 108.687 229.033 108.78C229.113 108.86 229.233 108.907 229.393 108.92V110C229.233 110.013 229.107 110.02 229.013 110.02C228.92 110.033 228.833 110.04 228.753 110.04C228.487 110.013 228.253 109.907 228.053 109.72C227.867 109.533 227.767 109.307 227.753 109.04L227.713 107.64C227.26 108.44 226.64 109.067 225.853 109.52C225.08 109.973 224.24 110.2 223.333 110.2C222.24 110.2 221.413 109.82 220.853 109.06C220.293 108.3 220.013 107.18 220.013 105.7ZM237.188 100.78C236.282 100.807 235.482 101.06 234.788 101.54C234.108 102.02 233.628 102.68 233.348 103.52V110H231.988V99.58H233.268V102.08C233.628 101.347 234.102 100.753 234.688 100.3C235.288 99.8467 235.922 99.5933 236.588 99.54C236.722 99.5267 236.835 99.52 236.928 99.52C237.035 99.52 237.122 99.5267 237.188 99.54V100.78ZM243.168 110.2C242.421 110.2 241.728 110.06 241.088 109.78C240.448 109.487 239.895 109.093 239.428 108.6C238.961 108.093 238.595 107.513 238.328 106.86C238.075 106.207 237.948 105.507 237.948 104.76C237.948 103.787 238.168 102.893 238.608 102.08C239.061 101.267 239.681 100.62 240.468 100.14C241.255 99.6467 242.148 99.4 243.148 99.4C244.175 99.4 245.068 99.6467 245.828 100.14C246.601 100.633 247.208 101.287 247.648 102.1C248.088 102.9 248.308 103.78 248.308 104.74C248.308 104.847 248.308 104.953 248.308 105.06C248.308 105.153 248.301 105.227 248.288 105.28H239.368C239.435 106.027 239.641 106.693 239.988 107.28C240.348 107.853 240.808 108.313 241.368 108.66C241.941 108.993 242.561 109.16 243.228 109.16C243.908 109.16 244.548 108.987 245.148 108.64C245.761 108.293 246.188 107.84 246.428 107.28L247.608 107.6C247.395 108.093 247.068 108.54 246.628 108.94C246.188 109.34 245.668 109.653 245.068 109.88C244.481 110.093 243.848 110.2 243.168 110.2ZM239.328 104.3H247.028C246.975 103.54 246.768 102.873 246.408 102.3C246.061 101.727 245.601 101.28 245.028 100.96C244.468 100.627 243.848 100.46 243.168 100.46C242.488 100.46 241.868 100.627 241.308 100.96C240.748 101.28 240.288 101.733 239.928 102.32C239.581 102.893 239.381 103.553 239.328 104.3ZM260.504 109.5C260.397 109.54 260.231 109.613 260.004 109.72C259.777 109.827 259.504 109.92 259.184 110C258.864 110.08 258.517 110.12 258.144 110.12C257.757 110.12 257.391 110.047 257.044 109.9C256.711 109.753 256.444 109.533 256.244 109.24C256.044 108.933 255.944 108.56 255.944 108.12V100.66H254.504V99.58H255.944V96.06H257.304V99.58H259.704V100.66H257.304V107.74C257.331 108.113 257.464 108.393 257.704 108.58C257.957 108.767 258.244 108.86 258.564 108.86C258.937 108.86 259.277 108.8 259.584 108.68C259.891 108.547 260.077 108.453 260.144 108.4L260.504 109.5ZM266.467 110.2C265.721 110.2 265.027 110.06 264.387 109.78C263.761 109.487 263.214 109.093 262.747 108.6C262.294 108.093 261.941 107.52 261.687 106.88C261.434 106.227 261.307 105.54 261.307 104.82C261.307 104.073 261.434 103.38 261.687 102.74C261.941 102.087 262.301 101.513 262.767 101.02C263.234 100.513 263.781 100.12 264.407 99.84C265.047 99.5467 265.741 99.4 266.487 99.4C267.234 99.4 267.921 99.5467 268.547 99.84C269.174 100.12 269.721 100.513 270.187 101.02C270.654 101.513 271.014 102.087 271.267 102.74C271.521 103.38 271.647 104.073 271.647 104.82C271.647 105.54 271.521 106.227 271.267 106.88C271.014 107.52 270.654 108.093 270.187 108.6C269.734 109.093 269.187 109.487 268.547 109.78C267.921 110.06 267.227 110.2 266.467 110.2ZM262.687 104.84C262.687 105.613 262.854 106.32 263.187 106.96C263.534 107.587 263.994 108.087 264.567 108.46C265.141 108.82 265.774 109 266.467 109C267.161 109 267.794 108.813 268.367 108.44C268.941 108.067 269.401 107.56 269.747 106.92C270.094 106.267 270.267 105.56 270.267 104.8C270.267 104.027 270.094 103.32 269.747 102.68C269.401 102.04 268.941 101.533 268.367 101.16C267.794 100.787 267.161 100.6 266.467 100.6C265.774 100.6 265.141 100.793 264.567 101.18C264.007 101.567 263.554 102.08 263.207 102.72C262.861 103.347 262.687 104.053 262.687 104.84ZM284.02 109.5C283.913 109.54 283.746 109.613 283.52 109.72C283.293 109.827 283.02 109.92 282.7 110C282.38 110.08 282.033 110.12 281.66 110.12C281.273 110.12 280.906 110.047 280.56 109.9C280.226 109.753 279.96 109.533 279.76 109.24C279.56 108.933 279.46 108.56 279.46 108.12V100.66H278.02V99.58H279.46V96.06H280.82V99.58H283.22V100.66H280.82V107.74C280.846 108.113 280.98 108.393 281.22 108.58C281.473 108.767 281.76 108.86 282.08 108.86C282.453 108.86 282.793 108.8 283.1 108.68C283.406 108.547 283.593 108.453 283.66 108.4L284.02 109.5ZM290.919 100.78C290.012 100.807 289.212 101.06 288.519 101.54C287.839 102.02 287.359 102.68 287.079 103.52V110H285.719V99.58H286.999V102.08C287.359 101.347 287.832 100.753 288.419 100.3C289.019 99.8467 289.652 99.5933 290.319 99.54C290.452 99.5267 290.565 99.52 290.659 99.52C290.765 99.52 290.852 99.5267 290.919 99.54V100.78ZM291.851 107C291.851 106.347 292.038 105.787 292.411 105.32C292.785 104.84 293.298 104.473 293.951 104.22C294.618 103.953 295.385 103.82 296.251 103.82C296.758 103.82 297.285 103.86 297.831 103.94C298.378 104.02 298.865 104.14 299.291 104.3V103.42C299.291 102.54 299.031 101.84 298.511 101.32C297.991 100.8 297.271 100.54 296.351 100.54C295.791 100.54 295.238 100.647 294.691 100.86C294.158 101.06 293.598 101.36 293.011 101.76L292.491 100.8C293.171 100.333 293.838 99.9867 294.491 99.76C295.145 99.52 295.811 99.4 296.491 99.4C297.771 99.4 298.785 99.7667 299.531 100.5C300.278 101.233 300.651 102.247 300.651 103.54V108.36C300.651 108.547 300.691 108.687 300.771 108.78C300.851 108.86 300.978 108.907 301.151 108.92V110C301.005 110.013 300.878 110.027 300.771 110.04C300.665 110.053 300.585 110.053 300.531 110.04C300.198 110.027 299.945 109.92 299.771 109.72C299.598 109.52 299.505 109.307 299.491 109.08L299.471 108.32C299.005 108.92 298.398 109.387 297.651 109.72C296.905 110.04 296.145 110.2 295.371 110.2C294.705 110.2 294.098 110.06 293.551 109.78C293.018 109.487 292.598 109.1 292.291 108.62C291.998 108.127 291.851 107.587 291.851 107ZM298.831 107.8C298.978 107.613 299.091 107.433 299.171 107.26C299.251 107.087 299.291 106.933 299.291 106.8V105.28C298.838 105.107 298.365 104.973 297.871 104.88C297.391 104.787 296.905 104.74 296.411 104.74C295.438 104.74 294.651 104.933 294.051 105.32C293.451 105.707 293.151 106.233 293.151 106.9C293.151 107.287 293.251 107.653 293.451 108C293.651 108.333 293.945 108.613 294.331 108.84C294.718 109.053 295.171 109.16 295.691 109.16C296.345 109.16 296.951 109.033 297.511 108.78C298.085 108.527 298.525 108.2 298.831 107.8ZM312.35 110H310.99V104.18C310.99 102.953 310.81 102.06 310.45 101.5C310.09 100.927 309.523 100.64 308.75 100.64C308.217 100.64 307.69 100.773 307.17 101.04C306.65 101.293 306.19 101.647 305.79 102.1C305.403 102.54 305.123 103.047 304.95 103.62V110H303.59V99.58H304.83V101.94C305.11 101.433 305.477 100.993 305.93 100.62C306.383 100.233 306.897 99.9333 307.47 99.72C308.043 99.5067 308.637 99.4 309.25 99.4C309.823 99.4 310.31 99.5067 310.71 99.72C311.11 99.9333 311.43 100.24 311.67 100.64C311.91 101.027 312.083 101.5 312.19 102.06C312.297 102.607 312.35 103.22 312.35 103.9V110ZM318.67 110.2C317.817 110.2 317.023 110.06 316.29 109.78C315.557 109.5 314.923 109.073 314.39 108.5L314.95 107.54C315.537 108.087 316.123 108.487 316.71 108.74C317.31 108.98 317.943 109.1 318.61 109.1C319.423 109.1 320.083 108.94 320.59 108.62C321.097 108.287 321.35 107.813 321.35 107.2C321.35 106.787 321.223 106.473 320.97 106.26C320.73 106.033 320.377 105.853 319.91 105.72C319.457 105.573 318.91 105.42 318.27 105.26C317.55 105.06 316.943 104.853 316.45 104.64C315.97 104.413 315.603 104.133 315.35 103.8C315.11 103.453 314.99 103.007 314.99 102.46C314.99 101.78 315.157 101.22 315.49 100.78C315.837 100.327 316.303 99.9867 316.89 99.76C317.49 99.52 318.157 99.4 318.89 99.4C319.69 99.4 320.397 99.5267 321.01 99.78C321.623 100.033 322.123 100.387 322.51 100.84L321.85 101.76C321.477 101.333 321.03 101.02 320.51 100.82C320.003 100.607 319.437 100.5 318.81 100.5C318.383 100.5 317.977 100.56 317.59 100.68C317.203 100.787 316.883 100.973 316.63 101.24C316.39 101.493 316.27 101.847 316.27 102.3C316.27 102.673 316.363 102.967 316.55 103.18C316.737 103.38 317.017 103.553 317.39 103.7C317.763 103.833 318.223 103.98 318.77 104.14C319.557 104.353 320.243 104.573 320.83 104.8C321.417 105.013 321.87 105.293 322.19 105.64C322.51 105.987 322.67 106.473 322.67 107.1C322.67 108.073 322.303 108.833 321.57 109.38C320.837 109.927 319.87 110.2 318.67 110.2ZM325.418 110V100.66H323.978V99.58H325.418V99.3C325.418 98.4467 325.538 97.7133 325.778 97.1C326.031 96.4867 326.385 96.02 326.838 95.7C327.305 95.3667 327.851 95.2 328.478 95.2C328.891 95.2 329.291 95.26 329.678 95.38C330.065 95.5 330.398 95.66 330.678 95.86L330.258 96.84C330.085 96.6933 329.858 96.58 329.578 96.5C329.298 96.42 329.018 96.38 328.738 96.38C328.111 96.38 327.625 96.6267 327.278 97.12C326.945 97.6133 326.778 98.3267 326.778 99.26V99.58H329.658V100.66H326.778V110H325.418ZM335.628 110.2C334.881 110.2 334.188 110.06 333.548 109.78C332.921 109.487 332.374 109.093 331.908 108.6C331.454 108.093 331.101 107.52 330.848 106.88C330.594 106.227 330.468 105.54 330.468 104.82C330.468 104.073 330.594 103.38 330.848 102.74C331.101 102.087 331.461 101.513 331.928 101.02C332.394 100.513 332.941 100.12 333.568 99.84C334.208 99.5467 334.901 99.4 335.648 99.4C336.394 99.4 337.081 99.5467 337.708 99.84C338.334 100.12 338.881 100.513 339.348 101.02C339.814 101.513 340.174 102.087 340.428 102.74C340.681 103.38 340.808 104.073 340.808 104.82C340.808 105.54 340.681 106.227 340.428 106.88C340.174 107.52 339.814 108.093 339.348 108.6C338.894 109.093 338.348 109.487 337.708 109.78C337.081 110.06 336.388 110.2 335.628 110.2ZM331.848 104.84C331.848 105.613 332.014 106.32 332.348 106.96C332.694 107.587 333.154 108.087 333.728 108.46C334.301 108.82 334.934 109 335.628 109C336.321 109 336.954 108.813 337.528 108.44C338.101 108.067 338.561 107.56 338.908 106.92C339.254 106.267 339.428 105.56 339.428 104.8C339.428 104.027 339.254 103.32 338.908 102.68C338.561 102.04 338.101 101.533 337.528 101.16C336.954 100.787 336.321 100.6 335.628 100.6C334.934 100.6 334.301 100.793 333.728 101.18C333.168 101.567 332.714 102.08 332.368 102.72C332.021 103.347 331.848 104.053 331.848 104.84ZM348.282 100.78C347.375 100.807 346.575 101.06 345.882 101.54C345.202 102.02 344.722 102.68 344.442 103.52V110H343.082V99.58H344.362V102.08C344.722 101.347 345.195 100.753 345.782 100.3C346.382 99.8467 347.015 99.5933 347.682 99.54C347.815 99.5267 347.929 99.52 348.022 99.52C348.129 99.52 348.215 99.5267 348.282 99.54V100.78ZM365.594 110H364.234V104.18C364.234 102.967 364.04 102.073 363.654 101.5C363.267 100.927 362.694 100.64 361.934 100.64C361.147 100.64 360.44 100.92 359.814 101.48C359.2 102.04 358.767 102.76 358.514 103.64V110H357.154V104.18C357.154 102.953 356.967 102.06 356.594 101.5C356.22 100.927 355.647 100.64 354.874 100.64C354.1 100.64 353.4 100.913 352.774 101.46C352.147 102.007 351.707 102.727 351.454 103.62V110H350.094V99.58H351.334V101.94C351.774 101.127 352.334 100.5 353.014 100.06C353.707 99.62 354.474 99.4 355.314 99.4C356.18 99.4 356.88 99.6467 357.414 100.14C357.947 100.633 358.274 101.28 358.394 102.08C358.874 101.2 359.447 100.533 360.114 100.08C360.794 99.6267 361.56 99.4 362.414 99.4C363 99.4 363.494 99.5067 363.894 99.72C364.307 99.9333 364.634 100.24 364.874 100.64C365.127 101.027 365.307 101.5 365.414 102.06C365.534 102.607 365.594 103.22 365.594 103.9V110ZM29.6 133L25.38 122.58H26.8L30.36 131.64L33.94 122.58H35.28L31.06 133H29.6ZM37.1641 133V122.58H38.5241V133H37.1641ZM37.1641 120.4V118.4H38.5241V120.4H37.1641ZM44.9395 133.2C44.0862 133.2 43.2929 133.06 42.5595 132.78C41.8262 132.5 41.1929 132.073 40.6595 131.5L41.2195 130.54C41.8062 131.087 42.3929 131.487 42.9795 131.74C43.5795 131.98 44.2129 132.1 44.8795 132.1C45.6929 132.1 46.3529 131.94 46.8595 131.62C47.3662 131.287 47.6195 130.813 47.6195 130.2C47.6195 129.787 47.4929 129.473 47.2395 129.26C46.9995 129.033 46.6462 128.853 46.1795 128.72C45.7262 128.573 45.1795 128.42 44.5395 128.26C43.8195 128.06 43.2129 127.853 42.7195 127.64C42.2395 127.413 41.8729 127.133 41.6195 126.8C41.3795 126.453 41.2595 126.007 41.2595 125.46C41.2595 124.78 41.4262 124.22 41.7595 123.78C42.1062 123.327 42.5729 122.987 43.1595 122.76C43.7595 122.52 44.4262 122.4 45.1595 122.4C45.9595 122.4 46.6662 122.527 47.2795 122.78C47.8929 123.033 48.3929 123.387 48.7795 123.84L48.1195 124.76C47.7462 124.333 47.2995 124.02 46.7795 123.82C46.2729 123.607 45.7062 123.5 45.0795 123.5C44.6529 123.5 44.2462 123.56 43.8595 123.68C43.4729 123.787 43.1529 123.973 42.8995 124.24C42.6595 124.493 42.5395 124.847 42.5395 125.3C42.5395 125.673 42.6329 125.967 42.8195 126.18C43.0062 126.38 43.2862 126.553 43.6595 126.7C44.0329 126.833 44.4929 126.98 45.0395 127.14C45.8262 127.353 46.5129 127.573 47.0995 127.8C47.6862 128.013 48.1395 128.293 48.4595 128.64C48.7795 128.987 48.9395 129.473 48.9395 130.1C48.9395 131.073 48.5729 131.833 47.8395 132.38C47.1062 132.927 46.1395 133.2 44.9395 133.2ZM51.1875 133V122.58H52.5475V133H51.1875ZM51.1875 120.4V118.4H52.5475V120.4H51.1875ZM59.983 133.2C59.2363 133.2 58.543 133.06 57.903 132.78C57.2763 132.487 56.7296 132.093 56.263 131.6C55.8096 131.093 55.4563 130.52 55.203 129.88C54.9496 129.227 54.823 128.54 54.823 127.82C54.823 127.073 54.9496 126.38 55.203 125.74C55.4563 125.087 55.8163 124.513 56.283 124.02C56.7496 123.513 57.2963 123.12 57.923 122.84C58.563 122.547 59.2563 122.4 60.003 122.4C60.7496 122.4 61.4363 122.547 62.063 122.84C62.6896 123.12 63.2363 123.513 63.703 124.02C64.1696 124.513 64.5296 125.087 64.783 125.74C65.0363 126.38 65.163 127.073 65.163 127.82C65.163 128.54 65.0363 129.227 64.783 129.88C64.5296 130.52 64.1696 131.093 63.703 131.6C63.2496 132.093 62.703 132.487 62.063 132.78C61.4363 133.06 60.743 133.2 59.983 133.2ZM56.203 127.84C56.203 128.613 56.3696 129.32 56.703 129.96C57.0496 130.587 57.5096 131.087 58.083 131.46C58.6563 131.82 59.2896 132 59.983 132C60.6763 132 61.3096 131.813 61.883 131.44C62.4563 131.067 62.9163 130.56 63.263 129.92C63.6096 129.267 63.783 128.56 63.783 127.8C63.783 127.027 63.6096 126.32 63.263 125.68C62.9163 125.04 62.4563 124.533 61.883 124.16C61.3096 123.787 60.6763 123.6 59.983 123.6C59.2896 123.6 58.6563 123.793 58.083 124.18C57.523 124.567 57.0696 125.08 56.723 125.72C56.3763 126.347 56.203 127.053 56.203 127.84ZM76.1975 133H74.8375V127.18C74.8375 125.953 74.6575 125.06 74.2975 124.5C73.9375 123.927 73.3708 123.64 72.5975 123.64C72.0642 123.64 71.5375 123.773 71.0175 124.04C70.4975 124.293 70.0375 124.647 69.6375 125.1C69.2508 125.54 68.9708 126.047 68.7975 126.62V133H67.4375V122.58H68.6775V124.94C68.9575 124.433 69.3242 123.993 69.7775 123.62C70.2308 123.233 70.7442 122.933 71.3175 122.72C71.8908 122.507 72.4842 122.4 73.0975 122.4C73.6708 122.4 74.1575 122.507 74.5575 122.72C74.9575 122.933 75.2775 123.24 75.5175 123.64C75.7575 124.027 75.9308 124.5 76.0375 125.06C76.1442 125.607 76.1975 126.22 76.1975 126.9V133ZM82.5177 133.2C81.6643 133.2 80.871 133.06 80.1377 132.78C79.4043 132.5 78.771 132.073 78.2377 131.5L78.7977 130.54C79.3843 131.087 79.971 131.487 80.5577 131.74C81.1577 131.98 81.791 132.1 82.4577 132.1C83.271 132.1 83.931 131.94 84.4377 131.62C84.9443 131.287 85.1977 130.813 85.1977 130.2C85.1977 129.787 85.071 129.473 84.8177 129.26C84.5777 129.033 84.2243 128.853 83.7577 128.72C83.3043 128.573 82.7577 128.42 82.1177 128.26C81.3977 128.06 80.791 127.853 80.2977 127.64C79.8177 127.413 79.451 127.133 79.1977 126.8C78.9577 126.453 78.8377 126.007 78.8377 125.46C78.8377 124.78 79.0043 124.22 79.3377 123.78C79.6843 123.327 80.151 122.987 80.7377 122.76C81.3377 122.52 82.0043 122.4 82.7377 122.4C83.5377 122.4 84.2443 122.527 84.8577 122.78C85.471 123.033 85.971 123.387 86.3577 123.84L85.6977 124.76C85.3243 124.333 84.8777 124.02 84.3577 123.82C83.851 123.607 83.2843 123.5 82.6577 123.5C82.231 123.5 81.8243 123.56 81.4377 123.68C81.051 123.787 80.731 123.973 80.4777 124.24C80.2377 124.493 80.1177 124.847 80.1177 125.3C80.1177 125.673 80.211 125.967 80.3977 126.18C80.5843 126.38 80.8643 126.553 81.2377 126.7C81.611 126.833 82.071 126.98 82.6177 127.14C83.4043 127.353 84.091 127.573 84.6777 127.8C85.2643 128.013 85.7177 128.293 86.0377 128.64C86.3577 128.987 86.5177 129.473 86.5177 130.1C86.5177 131.073 86.151 131.833 85.4177 132.38C84.6843 132.927 83.7177 133.2 82.5177 133.2ZM93.8633 133V122.58H95.2233V133H93.8633ZM93.8633 120.4V118.4H95.2233V120.4H93.8633ZM106.979 133H105.619V127.18C105.619 125.953 105.439 125.06 105.079 124.5C104.719 123.927 104.152 123.64 103.379 123.64C102.845 123.64 102.319 123.773 101.799 124.04C101.279 124.293 100.819 124.647 100.419 125.1C100.032 125.54 99.7521 126.047 99.5788 126.62V133H98.2188V122.58H99.4588V124.94C99.7388 124.433 100.105 123.993 100.559 123.62C101.012 123.233 101.525 122.933 102.099 122.72C102.672 122.507 103.265 122.4 103.879 122.4C104.452 122.4 104.939 122.507 105.339 122.72C105.739 122.933 106.059 123.24 106.299 123.64C106.539 124.027 106.712 124.5 106.819 125.06C106.925 125.607 106.979 126.22 106.979 126.9V133ZM114.781 132.5C114.675 132.54 114.508 132.613 114.281 132.72C114.055 132.827 113.781 132.92 113.461 133C113.141 133.08 112.795 133.12 112.421 133.12C112.035 133.12 111.668 133.047 111.321 132.9C110.988 132.753 110.721 132.533 110.521 132.24C110.321 131.933 110.221 131.56 110.221 131.12V123.66H108.781V122.58H110.221V119.06H111.581V122.58H113.981V123.66H111.581V130.74C111.608 131.113 111.741 131.393 111.981 131.58C112.235 131.767 112.521 131.86 112.841 131.86C113.215 131.86 113.555 131.8 113.861 131.68C114.168 131.547 114.355 131.453 114.421 131.4L114.781 132.5ZM120.745 133.2C119.998 133.2 119.305 133.06 118.665 132.78C118.038 132.487 117.491 132.093 117.025 131.6C116.571 131.093 116.218 130.52 115.965 129.88C115.711 129.227 115.585 128.54 115.585 127.82C115.585 127.073 115.711 126.38 115.965 125.74C116.218 125.087 116.578 124.513 117.045 124.02C117.511 123.513 118.058 123.12 118.685 122.84C119.325 122.547 120.018 122.4 120.765 122.4C121.511 122.4 122.198 122.547 122.825 122.84C123.451 123.12 123.998 123.513 124.465 124.02C124.931 124.513 125.291 125.087 125.545 125.74C125.798 126.38 125.925 127.073 125.925 127.82C125.925 128.54 125.798 129.227 125.545 129.88C125.291 130.52 124.931 131.093 124.465 131.6C124.011 132.093 123.465 132.487 122.825 132.78C122.198 133.06 121.505 133.2 120.745 133.2ZM116.965 127.84C116.965 128.613 117.131 129.32 117.465 129.96C117.811 130.587 118.271 131.087 118.845 131.46C119.418 131.82 120.051 132 120.745 132C121.438 132 122.071 131.813 122.645 131.44C123.218 131.067 123.678 130.56 124.025 129.92C124.371 129.267 124.545 128.56 124.545 127.8C124.545 127.027 124.371 126.32 124.025 125.68C123.678 125.04 123.218 124.533 122.645 124.16C122.071 123.787 121.438 123.6 120.745 123.6C120.051 123.6 119.418 123.793 118.845 124.18C118.285 124.567 117.831 125.08 117.485 125.72C117.138 126.347 116.965 127.053 116.965 127.84ZM133.797 133V123.66H132.357V122.58H133.797V122.3C133.797 121.447 133.917 120.713 134.157 120.1C134.41 119.487 134.764 119.02 135.217 118.7C135.684 118.367 136.23 118.2 136.857 118.2C137.27 118.2 137.67 118.26 138.057 118.38C138.444 118.5 138.777 118.66 139.057 118.86L138.637 119.84C138.464 119.693 138.237 119.58 137.957 119.5C137.677 119.42 137.397 119.38 137.117 119.38C136.49 119.38 136.004 119.627 135.657 120.12C135.324 120.613 135.157 121.327 135.157 122.26V122.58H138.037V123.66H135.157V133H133.797ZM144.066 133.2C143.32 133.2 142.626 133.06 141.986 132.78C141.346 132.487 140.793 132.093 140.326 131.6C139.86 131.093 139.493 130.513 139.226 129.86C138.973 129.207 138.846 128.507 138.846 127.76C138.846 126.787 139.066 125.893 139.506 125.08C139.96 124.267 140.58 123.62 141.366 123.14C142.153 122.647 143.046 122.4 144.046 122.4C145.073 122.4 145.966 122.647 146.726 123.14C147.5 123.633 148.106 124.287 148.546 125.1C148.986 125.9 149.206 126.78 149.206 127.74C149.206 127.847 149.206 127.953 149.206 128.06C149.206 128.153 149.2 128.227 149.186 128.28H140.266C140.333 129.027 140.54 129.693 140.886 130.28C141.246 130.853 141.706 131.313 142.266 131.66C142.84 131.993 143.46 132.16 144.126 132.16C144.806 132.16 145.446 131.987 146.046 131.64C146.66 131.293 147.086 130.84 147.326 130.28L148.506 130.6C148.293 131.093 147.966 131.54 147.526 131.94C147.086 132.34 146.566 132.653 145.966 132.88C145.38 133.093 144.746 133.2 144.066 133.2ZM140.226 127.3H147.926C147.873 126.54 147.666 125.873 147.306 125.3C146.96 124.727 146.5 124.28 145.926 123.96C145.366 123.627 144.746 123.46 144.066 123.46C143.386 123.46 142.766 123.627 142.206 123.96C141.646 124.28 141.186 124.733 140.826 125.32C140.48 125.893 140.28 126.553 140.226 127.3ZM150.465 130C150.465 129.347 150.651 128.787 151.025 128.32C151.398 127.84 151.911 127.473 152.565 127.22C153.231 126.953 153.998 126.82 154.865 126.82C155.371 126.82 155.898 126.86 156.445 126.94C156.991 127.02 157.478 127.14 157.905 127.3V126.42C157.905 125.54 157.645 124.84 157.125 124.32C156.605 123.8 155.885 123.54 154.965 123.54C154.405 123.54 153.851 123.647 153.305 123.86C152.771 124.06 152.211 124.36 151.625 124.76L151.105 123.8C151.785 123.333 152.451 122.987 153.105 122.76C153.758 122.52 154.425 122.4 155.105 122.4C156.385 122.4 157.398 122.767 158.145 123.5C158.891 124.233 159.265 125.247 159.265 126.54V131.36C159.265 131.547 159.305 131.687 159.385 131.78C159.465 131.86 159.591 131.907 159.765 131.92V133C159.618 133.013 159.491 133.027 159.385 133.04C159.278 133.053 159.198 133.053 159.145 133.04C158.811 133.027 158.558 132.92 158.385 132.72C158.211 132.52 158.118 132.307 158.105 132.08L158.085 131.32C157.618 131.92 157.011 132.387 156.265 132.72C155.518 133.04 154.758 133.2 153.985 133.2C153.318 133.2 152.711 133.06 152.165 132.78C151.631 132.487 151.211 132.1 150.905 131.62C150.611 131.127 150.465 130.587 150.465 130ZM157.445 130.8C157.591 130.613 157.705 130.433 157.785 130.26C157.865 130.087 157.905 129.933 157.905 129.8V128.28C157.451 128.107 156.978 127.973 156.485 127.88C156.005 127.787 155.518 127.74 155.025 127.74C154.051 127.74 153.265 127.933 152.665 128.32C152.065 128.707 151.765 129.233 151.765 129.9C151.765 130.287 151.865 130.653 152.065 131C152.265 131.333 152.558 131.613 152.945 131.84C153.331 132.053 153.785 132.16 154.305 132.16C154.958 132.16 155.565 132.033 156.125 131.78C156.698 131.527 157.138 131.2 157.445 130.8ZM165.623 133.2C164.77 133.2 163.976 133.06 163.243 132.78C162.51 132.5 161.876 132.073 161.343 131.5L161.903 130.54C162.49 131.087 163.076 131.487 163.663 131.74C164.263 131.98 164.896 132.1 165.563 132.1C166.376 132.1 167.036 131.94 167.543 131.62C168.05 131.287 168.303 130.813 168.303 130.2C168.303 129.787 168.176 129.473 167.923 129.26C167.683 129.033 167.33 128.853 166.863 128.72C166.41 128.573 165.863 128.42 165.223 128.26C164.503 128.06 163.896 127.853 163.403 127.64C162.923 127.413 162.556 127.133 162.303 126.8C162.063 126.453 161.943 126.007 161.943 125.46C161.943 124.78 162.11 124.22 162.443 123.78C162.79 123.327 163.256 122.987 163.843 122.76C164.443 122.52 165.11 122.4 165.843 122.4C166.643 122.4 167.35 122.527 167.963 122.78C168.576 123.033 169.076 123.387 169.463 123.84L168.803 124.76C168.43 124.333 167.983 124.02 167.463 123.82C166.956 123.607 166.39 123.5 165.763 123.5C165.336 123.5 164.93 123.56 164.543 123.68C164.156 123.787 163.836 123.973 163.583 124.24C163.343 124.493 163.223 124.847 163.223 125.3C163.223 125.673 163.316 125.967 163.503 126.18C163.69 126.38 163.97 126.553 164.343 126.7C164.716 126.833 165.176 126.98 165.723 127.14C166.51 127.353 167.196 127.573 167.783 127.8C168.37 128.013 168.823 128.293 169.143 128.64C169.463 128.987 169.623 129.473 169.623 130.1C169.623 131.073 169.256 131.833 168.523 132.38C167.79 132.927 166.823 133.2 165.623 133.2ZM171.871 133V122.58H173.231V133H171.871ZM171.871 120.4V118.4H173.231V120.4H171.871ZM181.327 133.2C180.513 133.2 179.76 132.993 179.067 132.58C178.373 132.153 177.833 131.62 177.447 130.98V133H176.227V118.4H177.587V124.76C178.053 124.053 178.613 123.487 179.267 123.06C179.92 122.62 180.68 122.4 181.547 122.4C182.28 122.4 182.933 122.553 183.507 122.86C184.093 123.167 184.593 123.58 185.007 124.1C185.42 124.607 185.733 125.187 185.947 125.84C186.16 126.48 186.267 127.14 186.267 127.82C186.267 128.553 186.14 129.24 185.887 129.88C185.647 130.52 185.3 131.093 184.847 131.6C184.393 132.093 183.867 132.487 183.267 132.78C182.68 133.06 182.033 133.2 181.327 133.2ZM181.007 132C181.567 132 182.087 131.887 182.567 131.66C183.047 131.433 183.46 131.12 183.807 130.72C184.153 130.32 184.42 129.873 184.607 129.38C184.793 128.873 184.887 128.353 184.887 127.82C184.887 127.087 184.727 126.4 184.407 125.76C184.1 125.107 183.667 124.587 183.107 124.2C182.56 123.8 181.913 123.6 181.167 123.6C180.633 123.6 180.133 123.72 179.667 123.96C179.213 124.2 178.807 124.52 178.447 124.92C178.1 125.307 177.813 125.733 177.587 126.2V129.44C177.64 129.8 177.78 130.14 178.007 130.46C178.233 130.767 178.513 131.033 178.847 131.26C179.193 131.487 179.553 131.667 179.927 131.8C180.3 131.933 180.66 132 181.007 132ZM188.63 118.4H189.99V130.64C189.99 131.16 190.084 131.5 190.27 131.66C190.457 131.82 190.684 131.9 190.95 131.9C191.19 131.9 191.43 131.873 191.67 131.82C191.91 131.767 192.117 131.713 192.29 131.66L192.53 132.76C192.277 132.867 191.964 132.953 191.59 133.02C191.23 133.087 190.917 133.12 190.65 133.12C190.037 133.12 189.544 132.94 189.17 132.58C188.81 132.22 188.63 131.727 188.63 131.1V118.4ZM198.52 133.2C197.773 133.2 197.08 133.06 196.44 132.78C195.8 132.487 195.246 132.093 194.78 131.6C194.313 131.093 193.946 130.513 193.68 129.86C193.426 129.207 193.3 128.507 193.3 127.76C193.3 126.787 193.52 125.893 193.96 125.08C194.413 124.267 195.033 123.62 195.82 123.14C196.606 122.647 197.5 122.4 198.5 122.4C199.526 122.4 200.42 122.647 201.18 123.14C201.953 123.633 202.56 124.287 203 125.1C203.44 125.9 203.66 126.78 203.66 127.74C203.66 127.847 203.66 127.953 203.66 128.06C203.66 128.153 203.653 128.227 203.64 128.28H194.72C194.786 129.027 194.993 129.693 195.34 130.28C195.7 130.853 196.16 131.313 196.72 131.66C197.293 131.993 197.913 132.16 198.58 132.16C199.26 132.16 199.9 131.987 200.5 131.64C201.113 131.293 201.54 130.84 201.78 130.28L202.96 130.6C202.746 131.093 202.42 131.54 201.98 131.94C201.54 132.34 201.02 132.653 200.42 132.88C199.833 133.093 199.2 133.2 198.52 133.2ZM194.68 127.3H202.38C202.326 126.54 202.12 125.873 201.76 125.3C201.413 124.727 200.953 124.28 200.38 123.96C199.82 123.627 199.2 123.46 198.52 123.46C197.84 123.46 197.22 123.627 196.66 123.96C196.1 124.28 195.64 124.733 195.28 125.32C194.933 125.893 194.733 126.553 194.68 127.3ZM216.175 133.2C215.309 133.2 214.529 132.973 213.835 132.52C213.155 132.067 212.615 131.507 212.215 130.84V137.26H210.855V122.58H212.075V124.6C212.489 123.947 213.042 123.42 213.735 123.02C214.429 122.607 215.169 122.4 215.955 122.4C216.675 122.4 217.335 122.553 217.935 122.86C218.535 123.153 219.055 123.553 219.495 124.06C219.935 124.567 220.275 125.147 220.515 125.8C220.769 126.44 220.895 127.107 220.895 127.8C220.895 128.773 220.695 129.673 220.295 130.5C219.909 131.313 219.362 131.967 218.655 132.46C217.949 132.953 217.122 133.2 216.175 133.2ZM215.795 132C216.369 132 216.882 131.887 217.335 131.66C217.789 131.42 218.175 131.1 218.495 130.7C218.829 130.3 219.082 129.853 219.255 129.36C219.429 128.853 219.515 128.333 219.515 127.8C219.515 127.24 219.415 126.707 219.215 126.2C219.029 125.693 218.755 125.247 218.395 124.86C218.035 124.473 217.622 124.167 217.155 123.94C216.689 123.713 216.182 123.6 215.635 123.6C215.289 123.6 214.929 123.667 214.555 123.8C214.182 123.933 213.822 124.127 213.475 124.38C213.142 124.62 212.862 124.893 212.635 125.2C212.409 125.507 212.269 125.833 212.215 126.18V129.38C212.429 129.873 212.715 130.32 213.075 130.72C213.435 131.107 213.849 131.42 214.315 131.66C214.795 131.887 215.289 132 215.795 132ZM228.399 123.78C227.493 123.807 226.693 124.06 225.999 124.54C225.319 125.02 224.839 125.68 224.559 126.52V133H223.199V122.58H224.479V125.08C224.839 124.347 225.313 123.753 225.899 123.3C226.499 122.847 227.133 122.593 227.799 122.54C227.933 122.527 228.046 122.52 228.139 122.52C228.246 122.52 228.333 122.527 228.399 122.54V123.78ZM234.319 133.2C233.572 133.2 232.879 133.06 232.239 132.78C231.612 132.487 231.066 132.093 230.599 131.6C230.146 131.093 229.792 130.52 229.539 129.88C229.286 129.227 229.159 128.54 229.159 127.82C229.159 127.073 229.286 126.38 229.539 125.74C229.792 125.087 230.152 124.513 230.619 124.02C231.086 123.513 231.632 123.12 232.259 122.84C232.899 122.547 233.592 122.4 234.339 122.4C235.086 122.4 235.772 122.547 236.399 122.84C237.026 123.12 237.572 123.513 238.039 124.02C238.506 124.513 238.866 125.087 239.119 125.74C239.372 126.38 239.499 127.073 239.499 127.82C239.499 128.54 239.372 129.227 239.119 129.88C238.866 130.52 238.506 131.093 238.039 131.6C237.586 132.093 237.039 132.487 236.399 132.78C235.772 133.06 235.079 133.2 234.319 133.2ZM230.539 127.84C230.539 128.613 230.706 129.32 231.039 129.96C231.386 130.587 231.846 131.087 232.419 131.46C232.992 131.82 233.626 132 234.319 132C235.012 132 235.646 131.813 236.219 131.44C236.792 131.067 237.252 130.56 237.599 129.92C237.946 129.267 238.119 128.56 238.119 127.8C238.119 127.027 237.946 126.32 237.599 125.68C237.252 125.04 236.792 124.533 236.219 124.16C235.646 123.787 235.012 123.6 234.319 123.6C233.626 123.6 232.992 123.793 232.419 124.18C231.859 124.567 231.406 125.08 231.059 125.72C230.712 126.347 230.539 127.053 230.539 127.84ZM240.213 136.62C239.773 136.62 239.36 136.56 238.973 136.44C238.573 136.32 238.227 136.12 237.933 135.84L238.593 134.92C238.793 135.107 239.027 135.233 239.293 135.3C239.547 135.367 239.8 135.4 240.053 135.4C240.373 135.4 240.673 135.32 240.953 135.16C241.233 135 241.46 134.773 241.633 134.48C241.82 134.2 241.913 133.887 241.913 133.54V122.58H243.273V133.46C243.273 134.073 243.127 134.62 242.833 135.1C242.54 135.58 242.16 135.953 241.693 136.22C241.227 136.487 240.733 136.62 240.213 136.62ZM241.913 120.4V118.4H243.273V120.4H241.913ZM250.766 133.2C250.019 133.2 249.326 133.06 248.686 132.78C248.046 132.487 247.492 132.093 247.026 131.6C246.559 131.093 246.192 130.513 245.926 129.86C245.672 129.207 245.546 128.507 245.546 127.76C245.546 126.787 245.766 125.893 246.206 125.08C246.659 124.267 247.279 123.62 248.066 123.14C248.852 122.647 249.746 122.4 250.746 122.4C251.772 122.4 252.666 122.647 253.426 123.14C254.199 123.633 254.806 124.287 255.246 125.1C255.686 125.9 255.906 126.78 255.906 127.74C255.906 127.847 255.906 127.953 255.906 128.06C255.906 128.153 255.899 128.227 255.886 128.28H246.966C247.032 129.027 247.239 129.693 247.586 130.28C247.946 130.853 248.406 131.313 248.966 131.66C249.539 131.993 250.159 132.16 250.826 132.16C251.506 132.16 252.146 131.987 252.746 131.64C253.359 131.293 253.786 130.84 254.026 130.28L255.206 130.6C254.992 131.093 254.666 131.54 254.226 131.94C253.786 132.34 253.266 132.653 252.666 132.88C252.079 133.093 251.446 133.2 250.766 133.2ZM246.926 127.3H254.626C254.572 126.54 254.366 125.873 254.006 125.3C253.659 124.727 253.199 124.28 252.626 123.96C252.066 123.627 251.446 123.46 250.766 123.46C250.086 123.46 249.466 123.627 248.906 123.96C248.346 124.28 247.886 124.733 247.526 125.32C247.179 125.893 246.979 126.553 246.926 127.3ZM262.524 133.2C261.764 133.2 261.064 133.06 260.424 132.78C259.797 132.487 259.244 132.087 258.764 131.58C258.297 131.073 257.931 130.493 257.664 129.84C257.411 129.187 257.284 128.493 257.284 127.76C257.284 126.773 257.504 125.873 257.944 125.06C258.384 124.247 258.997 123.6 259.784 123.12C260.571 122.64 261.477 122.4 262.504 122.4C263.477 122.4 264.337 122.627 265.084 123.08C265.831 123.52 266.384 124.12 266.744 124.88L265.424 125.3C265.131 124.767 264.717 124.353 264.184 124.06C263.664 123.753 263.084 123.6 262.444 123.6C261.751 123.6 261.117 123.78 260.544 124.14C259.971 124.5 259.511 124.993 259.164 125.62C258.831 126.247 258.664 126.96 258.664 127.76C258.664 128.547 258.837 129.26 259.184 129.9C259.531 130.54 259.991 131.053 260.564 131.44C261.137 131.813 261.771 132 262.464 132C262.917 132 263.351 131.92 263.764 131.76C264.191 131.6 264.557 131.387 264.864 131.12C265.184 130.84 265.397 130.54 265.504 130.22L266.844 130.62C266.657 131.113 266.344 131.56 265.904 131.96C265.477 132.347 264.971 132.653 264.384 132.88C263.811 133.093 263.191 133.2 262.524 133.2ZM273.98 132.5C273.874 132.54 273.707 132.613 273.48 132.72C273.254 132.827 272.98 132.92 272.66 133C272.34 133.08 271.994 133.12 271.62 133.12C271.234 133.12 270.867 133.047 270.52 132.9C270.187 132.753 269.92 132.533 269.72 132.24C269.52 131.933 269.42 131.56 269.42 131.12V123.66H267.98V122.58H269.42V119.06H270.78V122.58H273.18V123.66H270.78V130.74C270.807 131.113 270.94 131.393 271.18 131.58C271.434 131.767 271.72 131.86 272.04 131.86C272.414 131.86 272.754 131.8 273.06 131.68C273.367 131.547 273.554 131.453 273.62 131.4L273.98 132.5ZM279.1 133.2C278.246 133.2 277.453 133.06 276.72 132.78C275.986 132.5 275.353 132.073 274.82 131.5L275.38 130.54C275.966 131.087 276.553 131.487 277.14 131.74C277.74 131.98 278.373 132.1 279.04 132.1C279.853 132.1 280.513 131.94 281.02 131.62C281.526 131.287 281.78 130.813 281.78 130.2C281.78 129.787 281.653 129.473 281.4 129.26C281.16 129.033 280.806 128.853 280.34 128.72C279.886 128.573 279.34 128.42 278.7 128.26C277.98 128.06 277.373 127.853 276.88 127.64C276.4 127.413 276.033 127.133 275.78 126.8C275.54 126.453 275.42 126.007 275.42 125.46C275.42 124.78 275.586 124.22 275.92 123.78C276.266 123.327 276.733 122.987 277.32 122.76C277.92 122.52 278.586 122.4 279.32 122.4C280.12 122.4 280.826 122.527 281.44 122.78C282.053 123.033 282.553 123.387 282.94 123.84L282.28 124.76C281.906 124.333 281.46 124.02 280.94 123.82C280.433 123.607 279.866 123.5 279.24 123.5C278.813 123.5 278.406 123.56 278.02 123.68C277.633 123.787 277.313 123.973 277.06 124.24C276.82 124.493 276.7 124.847 276.7 125.3C276.7 125.673 276.793 125.967 276.98 126.18C277.166 126.38 277.446 126.553 277.82 126.7C278.193 126.833 278.653 126.98 279.2 127.14C279.986 127.353 280.673 127.573 281.26 127.8C281.846 128.013 282.3 128.293 282.62 128.64C282.94 128.987 283.1 129.473 283.1 130.1C283.1 131.073 282.733 131.833 282 132.38C281.266 132.927 280.3 133.2 279.1 133.2Z" fill="#0022D5"/>
</svg>
